999
dxflib 3.3.4.0
  0
SECTION
  2
HEADER
  9
$ACADVER
  1
AC1015
  9
$HANDSEED
  5
FFFF
  9
$ANGBASE
 50
0.0
  9
$ATTMODE
 70
1
  9
$AUNITS
 70
0
  9
$AUPREC
 70
0
  9
$CELTSCALE
 40
1.0
  9
$CHAMFERA
 40
0.0
  9
$CHAMFERB
 40
0.0
  9
$CHAMFERC
 40
0.0
  9
$CHAMFERD
 40
0.0
  9
$CMLJUST
 70
0
  9
$CMLSCALE
 40
1.0
  9
$DIMADEC
 70
0
  9
$DIMALTD
 70
2
  9
$DIMALTF
 40
25.3999999999999986
  9
$DIMALTRND
 40
0.0
  9
$DIMALTTD
 70
2
  9
$DIMALTTZ
 70
0
  9
$DIMALTU
 70
2
  9
$DIMALTZ
 70
0
  9
$DIMAPOST
  1

  9
$DIMASZ
 40
2.5
  9
$DIMATFIT
 70
3
  9
$DIMAUNIT
 70
0
  9
$DIMAZIN
 70
2
  9
$DIMCEN
 40
0.09
  9
$DIMDEC
 70
4
  9
$DIMDLE
 40
0.0
  9
$DIMDLI
 40
0.38
  9
$DIMDSEP
 70
46
  9
$DIMEXE
 40
1.25
  9
$DIMEXO
 40
0.625
  9
$DIMFRAC
 70
0
  9
$DIMGAP
 40
0.625
  9
$DIMJUST
 70
0
  9
$DIMLFAC
 40
1.0
  9
$DIMLUNIT
 70
2
  9
$DIMLWD
 70
-2
  9
$DIMLWE
 70
-2
  9
$DIMPOST
  1

  9
$DIMRND
 40
0.0
  9
$DIMSCALE
 40
1.0
  9
$DIMTAD
 70
0
  9
$DIMTDEC
 70
4
  9
$DIMTFAC
 40
1.0
  9
$DIMTM
 40
0.0
  9
$DIMTOLJ
 70
1
  9
$DIMTP
 40
0.0
  9
$DIMTSZ
 40
0.0
  9
$DIMTVP
 40
0.0
  9
$DIMTXT
 40
2.5
  9
$DIMTZIN
 70
0
  9
$DIMZIN
 70
8
  9
$DWGCODEPAGE
  3
ANSI_1252
  9
$ELEVATION
 40
0.0
  9
$EXTMAX
 10
-100000000000000000000.0
 20
-100000000000000000000.0
 30
-100000000000000000000.0
  9
$EXTMIN
 10
100000000000000000000.0
 20
100000000000000000000.0
 30
100000000000000000000.0
  9
$FILLETRAD
 40
0.5
  9
$INSBASE
 10
0.0
 20
0.0
 30
0.0
  9
$INSUNITS
 70
4
  9
$LIMMAX
 10
12.0
 20
9.0
  9
$LIMMIN
 10
0.0
 20
0.0
  9
$LTSCALE
 40
1.0
  9
$LUNITS
 70
2
  9
$LUPREC
 70
4
  9
$MAXACTVP
 70
64
  9
$PDMODE
 70
0
  9
$PDSIZE
 40
0.0
  9
$PELEVATION
 40
0.0
  9
$PEXTMAX
 10
-100000000000000000000.0
 20
-100000000000000000000.0
 30
-100000000000000000000.0
  9
$PEXTMIN
 10
100000000000000000000.0
 20
100000000000000000000.0
 30
100000000000000000000.0
  9
$PINSBASE
 10
0.0
 20
0.0
 30
0.0
  9
$PLIMMAX
 10
12.0
 20
9.0
  9
$PLIMMIN
 10
0.0
 20
0.0
  9
$PLINEWID
 40
0.0
  9
$PROXYGRAPHICS
 70
1
  9
$PUCSORG
 10
0.0
 20
0.0
 30
0.0
  9
$PUCSXDIR
 10
1.0
 20
0.0
 30
0.0
  9
$PUCSYDIR
 10
0.0
 20
1.0
 30
0.0
  9
$SHADEDGE
 70
3
  9
$SHADEDIF
 70
70
  9
$SKETCHINC
 40
0.1
  9
$SPLINESEGS
 70
8
  9
$SPLINETYPE
 70
6
  9
$SURFTAB1
 70
6
  9
$SURFTAB2
 70
6
  9
$SURFTYPE
 70
6
  9
$SURFU
 70
6
  9
$SURFV
 70
6
  9
$TEXTSIZE
 40
2.5
  9
$THICKNESS
 40
0.0
  9
$TRACEWID
 40
0.05
  9
$TREEDEPTH
 70
3020
  9
$UCSORG
 10
0.0
 20
0.0
 30
0.0
  9
$UCSXDIR
 10
1.0
 20
0.0
 30
0.0
  9
$UCSYDIR
 10
0.0
 20
1.0
 30
0.0
  9
$UNITMODE
 70
0
  9
$USERI1
 70
0
  9
$USERI2
 70
0
  9
$USERI3
 70
0
  9
$USERI4
 70
0
  9
$USERI5
 70
0
  9
$USERR1
 40
0.0
  9
$USERR2
 40
0.0
  9
$USERR3
 40
0.0
  9
$USERR4
 40
0.0
  9
$USERR5
 40
0.0
  0
ENDSEC
  0
SECTION
  2
TABLES
  0
TABLE
  2
VPORT
  5
8
100
AcDbSymbolTable
 70
1
  0
VPORT
  5
30
100
AcDbSymbolTableRecord
100
AcDbViewportTableRecord
  2
*Active
 70
0
 10
0.0
 20
0.0
 11
1.0
 21
1.0
 12
286.3055555555554861
 22
148.5
 13
0.0
 23
0.0
 14
10.0
 24
10.0
 15
10.0
 25
10.0
 16
0.0
 26
0.0
 36
1.0
 17
0.0
 27
0.0
 37
0.0
 40
297.0
 41
1.92798353909465
 42
50.0
 43
0.0
 44
0.0
 50
0.0
 51
0.0
 71
0
 72
100
 73
1
 74
3
 75
1
 76
1
 77
0
 78
0
281
0
 65
1
110
0.0
120
0.0
130
0.0
111
1.0
121
0.0
131
0.0
112
0.0
122
1.0
132
0.0
 79
0
146
0.0
  0
ENDTAB
  0
TABLE
  2
LTYPE
  5
5
100
AcDbSymbolTable
 70
21
  0
LTYPE
  5
16
100
AcDbSymbolTableRecord
100
AcDbLinetypeTableRecord
  2
CONTINUOUS
 70
0
  3
Solid line
 72
65
 73
0
 40
0.0
  0
LTYPE
  5
31
100
AcDbSymbolTableRecord
100
AcDbLinetypeTableRecord
  2
CENTER2
 70
0
  3
Center (.5x) ___ _ ___ _ ___ _ ___ _ ___ _ ___
 72
65
 73
4
 40
28.5749999999999993
 49
19.0500000000000007
 74
0
 49
-3.1749999999999998
 74
0
 49
3.1749999999999998
 74
0
 49
-3.1749999999999998
 74
0
  0
LTYPE
  5
32
100
AcDbSymbolTableRecord
100
AcDbLinetypeTableRecord
  2
DIVIDEX2
 70
0
  3
Divide (2x) ________  .  .  ________  .  .  _
 72
65
 73
6
 40
63.5
 49
25.3999999999999986
 74
0
 49
-12.6999999999999993
 74
0
 49
0.0
 74
0
 49
-12.6999999999999993
 74
0
 49
0.0
 74
0
 49
-12.6999999999999993
 74
0
  0
LTYPE
  5
33
100
AcDbSymbolTableRecord
100
AcDbLinetypeTableRecord
  2
DOT2
 70
0
  3
Dot (.5x) .....................................
 72
65
 73
2
 40
3.1749999999999998
 49
0.0
 74
0
 49
-3.1749999999999998
 74
0
  0
LTYPE
  5
34
100
AcDbSymbolTableRecord
100
AcDbLinetypeTableRecord
  2
DASHDOT2
 70
0
  3
Dash dot (.5x) _._._._._._._._._._._._._._._.
 72
65
 73
4
 40
12.6999999999999993
 49
6.3499999999999996
 74
0
 49
-3.1749999999999998
 74
0
 49
0.0
 74
0
 49
-3.1749999999999998
 74
0
  0
LTYPE
  5
35
100
AcDbSymbolTableRecord
100
AcDbLinetypeTableRecord
  2
DIVIDE
 70
0
  3
Divide ____ . . ____ . . ____ . . ____ . . ____
 72
65
 73
6
 40
31.75
 49
12.6999999999999993
 74
0
 49
-6.3499999999999996
 74
0
 49
0.0
 74
0
 49
-6.3499999999999996
 74
0
 49
0.0
 74
0
 49
-6.3499999999999996
 74
0
  0
LTYPE
  5
36
100
AcDbSymbolTableRecord
100
AcDbLinetypeTableRecord
  2
DASHDOT
 70
0
  3
Dash dot __ . __ . __ . __ . __ . __ . __ . __
 72
65
 73
4
 40
25.3999999999999986
 49
12.6999999999999993
 74
0
 49
-6.3499999999999996
 74
0
 49
0.0
 74
0
 49
-6.3499999999999996
 74
0
  0
LTYPE
  5
37
100
AcDbSymbolTableRecord
100
AcDbLinetypeTableRecord
  2
BORDER
 70
0
  3
Border __ __ . __ __ . __ __ . __ __ . __ __ .
 72
65
 73
6
 40
44.4500000000000028
 49
12.6999999999999993
 74
0
 49
-6.3499999999999996
 74
0
 49
12.6999999999999993
 74
0
 49
-6.3499999999999996
 74
0
 49
0.0
 74
0
 49
-6.3499999999999996
 74
0
  0
LTYPE
  5
38
100
AcDbSymbolTableRecord
100
AcDbLinetypeTableRecord
  2
DASHDOTX2
 70
0
  3
Dash dot (2x) ____  .  ____  .  ____  .  ___
 72
65
 73
4
 40
50.7999999999999972
 49
25.3999999999999986
 74
0
 49
-12.6999999999999993
 74
0
 49
0.0
 74
0
 49
-12.6999999999999993
 74
0
  0
LTYPE
  5
39
100
AcDbSymbolTableRecord
100
AcDbLinetypeTableRecord
  2
CENTERX2
 70
0
  3
Center (2x) ________  __  ________  __  _____
 72
65
 73
4
 40
101.5999999999999943
 49
63.5
 74
0
 49
-12.6999999999999993
 74
0
 49
12.6999999999999993
 74
0
 49
-12.6999999999999993
 74
0
  0
LTYPE
  5
3A
100
AcDbSymbolTableRecord
100
AcDbLinetypeTableRecord
  2
BORDER2
 70
0
  3
Border (.5x) __.__.__.__.__.__.__.__.__.__.__.
 72
65
 73
6
 40
22.2250000000000014
 49
6.3499999999999996
 74
0
 49
-3.1749999999999998
 74
0
 49
6.3499999999999996
 74
0
 49
-3.1749999999999998
 74
0
 49
0.0
 74
0
 49
-3.1749999999999998
 74
0
  0
LTYPE
  5
3B
100
AcDbSymbolTableRecord
100
AcDbLinetypeTableRecord
  2
BORDERX2
 70
0
  3
Border (2x) ____  ____  .  ____  ____  .  ___
 72
65
 73
6
 40
88.9000000000000057
 49
25.3999999999999986
 74
0
 49
-12.6999999999999993
 74
0
 49
25.3999999999999986
 74
0
 49
-12.6999999999999993
 74
0
 49
0.0
 74
0
 49
-12.6999999999999993
 74
0
  0
LTYPE
  5
14
100
AcDbSymbolTableRecord
100
AcDbLinetypeTableRecord
  2
BYBLOCK
 70
0
  3

 72
65
 73
0
 40
0.0
  0
LTYPE
  5
15
100
AcDbSymbolTableRecord
100
AcDbLinetypeTableRecord
  2
BYLAYER
 70
0
  3

 72
65
 73
0
 40
0.0
  0
LTYPE
  5
3C
100
AcDbSymbolTableRecord
100
AcDbLinetypeTableRecord
  2
DASHED2
 70
0
  3
Dashed (.5x) _ _ _ _ _ _ _ _ _ _ _ _ _ _ _ _ _
 72
65
 73
2
 40
9.5250000000000004
 49
6.3499999999999996
 74
0
 49
-3.1749999999999998
 74
0
  0
LTYPE
  5
3D
100
AcDbSymbolTableRecord
100
AcDbLinetypeTableRecord
  2
CENTER
 70
0
  3
Center ____ _ ____ _ ____ _ ____ _ ____ _ ____
 72
65
 73
4
 40
50.7999999999999972
 49
31.75
 74
0
 49
-6.3499999999999996
 74
0
 49
6.3499999999999996
 74
0
 49
-6.3499999999999996
 74
0
  0
LTYPE
  5
3E
100
AcDbSymbolTableRecord
100
AcDbLinetypeTableRecord
  2
DIVIDE2
 70
0
  3
Divide (.5x) __..__..__..__..__..__..__..__.._
 72
65
 73
6
 40
15.875
 49
6.3499999999999996
 74
0
 49
-3.1749999999999998
 74
0
 49
0.0
 74
0
 49
-3.1749999999999998
 74
0
 49
0.0
 74
0
 49
-3.1749999999999998
 74
0
  0
LTYPE
  5
3F
100
AcDbSymbolTableRecord
100
AcDbLinetypeTableRecord
  2
DASHED
 70
0
  3
Dashed __ __ __ __ __ __ __ __ __ __ __ __ __ _
 72
65
 73
2
 40
19.0500000000000007
 49
12.6999999999999993
 74
0
 49
-6.3499999999999996
 74
0
  0
LTYPE
  5
40
100
AcDbSymbolTableRecord
100
AcDbLinetypeTableRecord
  2
DOTX2
 70
0
  3
Dot (2x) .  .  .  .  .  .  .  .  .  .  .  .  .
 72
65
 73
2
 40
12.6999999999999993
 49
0.0
 74
0
 49
-12.6999999999999993
 74
0
  0
LTYPE
  5
41
100
AcDbSymbolTableRecord
100
AcDbLinetypeTableRecord
  2
DASHEDX2
 70
0
  3
Dashed (2x) ____  ____  ____  ____  ____  ___
 72
65
 73
2
 40
38.1000000000000014
 49
25.3999999999999986
 74
0
 49
-12.6999999999999993
 74
0
  0
LTYPE
  5
42
100
AcDbSymbolTableRecord
100
AcDbLinetypeTableRecord
  2
DOT
 70
0
  3
Dot . . . . . . . . . . . . . . . . . . . . . .
 72
65
 73
2
 40
6.3499999999999996
 49
0.0
 74
0
 49
-6.3499999999999996
 74
0
  0
ENDTAB
  0
TABLE
  2
LAYER
  5
2
100
AcDbSymbolTable
 70
7
  0
LAYER
  5
43
100
AcDbSymbolTableRecord
100
AcDbLayerTableRecord
  2
guides
 70
0
 62
1
420
16711680
  6
CONTINUOUS
370
0
390
F
  0
LAYER
  5
44
100
AcDbSymbolTableRecord
100
AcDbLayerTableRecord
  2
dimensions
 70
0
 62
4
420
65535
  6
CONTINUOUS
370
0
390
F
  0
LAYER
  5
45
100
AcDbSymbolTableRecord
100
AcDbLayerTableRecord
  2
parts
 70
0
 62
3
420
65280
  6
CONTINUOUS
370
0
390
F
  0
LAYER
  5
46
100
AcDbSymbolTableRecord
100
AcDbLayerTableRecord
  2
Defpoints
 70
0
 62
7
420
16777215
  6
CONTINUOUS
290
0
370
-3
390
F
  0
LAYER
  5
10
100
AcDbSymbolTableRecord
100
AcDbLayerTableRecord
  2
0
 70
0
 62
7
420
16777215
  6
CONTINUOUS
370
0
390
F
  0
LAYER
  5
47
100
AcDbSymbolTableRecord
100
AcDbLayerTableRecord
  2
outline
 70
0
 62
2
420
16776960
  6
CONTINUOUS
370
0
390
F
  0
LAYER
  5
48
100
AcDbSymbolTableRecord
100
AcDbLayerTableRecord
  2
labels
 70
0
 62
6
420
16711935
  6
CONTINUOUS
370
0
390
F
  0
ENDTAB
  0
TABLE
  2
STYLE
  5
3
100
AcDbSymbolTable
 70
1
  0
STYLE
  5
49
100
AcDbSymbolTableRecord
100
AcDbTextStyleTableRecord
  2
Standard
 70
0
 40
0.0
 41
1.0
 50
0.0
 71
0
 42
2.5
  3

  4

1001
ACAD
1000
txt
1071
0
  0
ENDTAB
  0
TABLE
  2
VIEW
  5
6
100
AcDbSymbolTable
 70
0
  0
ENDTAB
  0
TABLE
  2
UCS
  5
7
100
AcDbSymbolTable
 70
0
  0
ENDTAB
  0
TABLE
  2
APPID
  5
9
100
AcDbSymbolTable
 70
1
  0
APPID
  5
12
100
AcDbSymbolTableRecord
100
AcDbRegAppTableRecord
  2
ACAD
 70
0
  0
APPID
  5
4A
100
AcDbSymbolTableRecord
100
AcDbRegAppTableRecord
  2
QCAD
 70
0
  0
ENDTAB
  0
TABLE
  2
DIMSTYLE
  5
A
100
AcDbSymbolTable
 70
1
100
AcDbDimStyleTable
 71
0
  0
DIMSTYLE
105
27
100
AcDbSymbolTableRecord
100
AcDbDimStyleTableRecord
  2
Standard
 41
2.5
 42
0.625
 43
3.75
 44
1.25
 70
0
 73
0
 74
0
 77
1
 78
8
140
2.5
141
2.5
143
0.03937007874016
147
0.625
171
3
172
1
271
2
272
2
274
3
278
44
283
0
284
8
340
49
  0
ENDTAB
  0
TABLE
  2
BLOCK_RECORD
  5
1
100
AcDbSymbolTable
 70
1
  0
BLOCK_RECORD
  5
1F
100
AcDbSymbolTableRecord
100
AcDbBlockTableRecord
  2
*Model_Space
340
22
  0
BLOCK_RECORD
  5
1B
100
AcDbSymbolTableRecord
100
AcDbBlockTableRecord
  2
*Paper_Space
340
1E
  0
BLOCK_RECORD
  5
23
100
AcDbSymbolTableRecord
100
AcDbBlockTableRecord
  2
*Paper_Space0
340
26
  0
BLOCK_RECORD
  5
4B
100
AcDbSymbolTableRecord
100
AcDbBlockTableRecord
  2
Nema17Top
340
0
  0
BLOCK_RECORD
  5
4C
100
AcDbSymbolTableRecord
100
AcDbBlockTableRecord
  2
pulley bearing side
340
0
  0
BLOCK_RECORD
  5
4D
100
AcDbSymbolTableRecord
100
AcDbBlockTableRecord
  2
nema 17
340
0
  0
ENDTAB
  0
ENDSEC
  0
SECTION
  2
BLOCKS
  0
BLOCK
  5
20
100
AcDbEntity
  8
0
100
AcDbBlockBegin
  2
*Model_Space
 70
0
 10
0.0
 20
0.0
 30
0.0
  3
*Model_Space
  1

  0
ENDBLK
  5
21
100
AcDbEntity
  8
0
100
AcDbBlockEnd
  0
BLOCK
  5
1C
100
AcDbEntity
 67
1
  8
0
100
AcDbBlockBegin
  2
*Paper_Space
 70
0
 10
0.0
 20
0.0
 30
0.0
  3
*Paper_Space
  1

  0
ENDBLK
  5
1D
100
AcDbEntity
 67
1
  8
0
100
AcDbBlockEnd
  0
BLOCK
  5
24
100
AcDbEntity
  8
0
100
AcDbBlockBegin
  2
*Paper_Space0
 70
0
 10
0.0
 20
0.0
 30
0.0
  3
*Paper_Space0
  1

  0
ENDBLK
  5
25
100
AcDbEntity
  8
0
100
AcDbBlockEnd
  0
BLOCK
  5
4E
100
AcDbEntity
  8
0
100
AcDbBlockBegin
  2
Nema17Top
 70
0
 10
0.0
 20
0.0
 30
0.0
  3
Nema17Top
  1

  0
LINE
  5
4F
100
AcDbEntity
100
AcDbLine
  8
parts
 62
256
370
-1
  6
BYLAYER
 10
15.4999999999999716
 20
15.5
 30
0.0
 11
16.9999999999999716
 21
17.0
 31
0.0
  0
LINE
  5
50
100
AcDbEntity
100
AcDbLine
  8
parts
 62
256
370
-1
  6
BYLAYER
 10
16.9999999999999716
 20
17.0
 30
0.0
 11
16.9999999999999716
 21
21.0
 31
0.0
  0
LINE
  5
51
100
AcDbEntity
100
AcDbLine
  8
parts
 62
256
370
-1
  6
BYLAYER
 10
-14.0
 20
21.0
 30
0.0
 11
-14.0000000000000284
 21
17.0
 31
0.0
  0
LINE
  5
52
100
AcDbEntity
100
AcDbLine
  8
parts
 62
256
370
-1
  6
BYLAYER
 10
-14.0000000000000284
 20
17.0
 30
0.0
 11
-15.5
 21
15.5
 31
0.0
  0
LINE
  5
53
100
AcDbEntity
100
AcDbLine
  8
parts
 62
256
370
-1
  6
BYLAYER
 10
-15.5
 20
15.5
 30
0.0
 11
-17.0
 21
17.0
 31
0.0
  0
LINE
  5
54
100
AcDbEntity
100
AcDbLine
  8
parts
 62
256
370
-1
  6
BYLAYER
 10
-17.0
 20
17.0
 30
0.0
 11
-17.0000000000000284
 21
21.0
 31
0.0
  0
LINE
  5
55
100
AcDbEntity
100
AcDbLine
  8
guides
 62
256
370
-1
  6
BYLAYER
 10
-0.0000000000000284
 20
-28.0
 30
0.0
 11
0.0
 21
52.0
 31
0.0
  0
LINE
  5
56
100
AcDbEntity
100
AcDbLine
  8
parts
 62
256
370
-1
  6
BYLAYER
 10
20.6499999999999488
 20
-21.0
 30
0.0
 11
-20.6500000000000625
 21
-21.0
 31
0.0
  0
LINE
  5
57
100
AcDbEntity
100
AcDbLine
  8
parts
 62
256
370
-1
  6
BYLAYER
 10
21.1499999999999488
 20
-20.5
 30
0.0
 11
21.1499999999999488
 21
20.5
 31
0.0
  0
LINE
  5
58
100
AcDbEntity
100
AcDbLine
  8
parts
 62
256
370
-1
  6
BYLAYER
 10
-21.1500000000000625
 20
20.5
 30
0.0
 11
-21.1500000000000625
 21
-20.5
 31
0.0
  0
LINE
  5
59
100
AcDbEntity
100
AcDbLine
  8
parts
 62
256
370
-1
  6
BYLAYER
 10
-11.0000000000000284
 20
23.0
 30
0.0
 11
-11.0000000000000284
 21
21.0
 31
0.0
  0
LINE
  5
5A
100
AcDbEntity
100
AcDbLine
  8
parts
 62
256
370
-1
  6
BYLAYER
 10
10.9999999999999716
 20
23.0
 30
0.0
 11
10.9999999999999716
 21
21.0
 31
0.0
  0
LINE
  5
5B
100
AcDbEntity
100
AcDbLine
  8
parts
 62
256
370
-1
  6
BYLAYER
 10
-11.0000000000000284
 20
21.0
 30
0.0
 11
-20.6500000000000625
 21
21.0
 31
0.0
  0
LINE
  5
5C
100
AcDbEntity
100
AcDbLine
  8
parts
 62
256
370
-1
  6
BYLAYER
 10
20.6499999999999773
 20
21.0
 30
0.0
 11
10.9999999999999716
 21
21.0
 31
0.0
  0
LINE
  5
5D
100
AcDbEntity
100
AcDbLine
  8
parts
 62
256
370
-1
  6
BYLAYER
 10
-2.5000000000000284
 20
23.0
 30
0.0
 11
-2.5000000000000284
 21
46.5
 31
0.0
  0
LINE
  5
5E
100
AcDbEntity
100
AcDbLine
  8
parts
 62
256
370
-1
  6
BYLAYER
 10
2.4999999999999716
 20
23.0
 30
0.0
 11
2.5
 21
46.5
 31
0.0
  0
LINE
  5
5F
100
AcDbEntity
100
AcDbLine
  8
parts
 62
256
370
-1
  6
BYLAYER
 10
-2.0000000000000284
 20
47.0
 30
0.0
 11
2.0
 21
47.0
 31
0.0
  0
LINE
  5
60
100
AcDbEntity
100
AcDbLine
  8
parts
 62
256
370
-1
  6
BYLAYER
 10
-2.5000000000000284
 20
23.0
 30
0.0
 11
-11.0000000000000284
 21
23.0
 31
0.0
  0
LINE
  5
61
100
AcDbEntity
100
AcDbLine
  8
parts
 62
256
370
-1
  6
BYLAYER
 10
10.9999999999999716
 20
23.0
 30
0.0
 11
2.4999999999999716
 21
23.0
 31
0.0
  0
LINE
  5
62
100
AcDbEntity
100
AcDbLine
  8
parts
 62
256
370
-1
  6
BYLAYER
 10
-2.5000000000000284
 20
46.5
 30
0.0
 11
-2.0000000000000284
 21
47.0
 31
0.0
  0
LINE
  5
63
100
AcDbEntity
100
AcDbLine
  8
parts
 62
256
370
-1
  6
BYLAYER
 10
2.0
 20
47.0
 30
0.0
 11
2.5
 21
46.5
 31
0.0
  0
LINE
  5
64
100
AcDbEntity
100
AcDbLine
  8
parts
 62
256
370
-1
  6
BYLAYER
 10
20.6499999999999773
 20
21.0
 30
0.0
 11
21.1499999999999488
 21
20.5
 31
0.0
  0
LINE
  5
65
100
AcDbEntity
100
AcDbLine
  8
parts
 62
256
370
-1
  6
BYLAYER
 10
-20.6500000000000625
 20
21.0
 30
0.0
 11
-21.1500000000000625
 21
20.5
 31
0.0
  0
LINE
  5
66
100
AcDbEntity
100
AcDbLine
  8
parts
 62
256
370
-1
  6
BYLAYER
 10
-20.6500000000000625
 20
-21.0
 30
0.0
 11
-21.1500000000000625
 21
-20.5
 31
0.0
  0
LINE
  5
67
100
AcDbEntity
100
AcDbLine
  8
parts
 62
256
370
-1
  6
BYLAYER
 10
20.6499999999999488
 20
-21.0
 30
0.0
 11
21.1499999999999488
 21
-20.5
 31
0.0
  0
LINE
  5
68
100
AcDbEntity
100
AcDbLine
  8
guides
 62
256
370
-1
  6
BYLAYER
 10
15.4999999999999716
 20
31.0
 30
0.0
 11
15.4999999999999716
 21
11.0
 31
0.0
  0
LINE
  5
69
100
AcDbEntity
100
AcDbLine
  8
guides
 62
256
370
-1
  6
BYLAYER
 10
-15.5000000000000568
 20
31.0
 30
0.0
 11
-15.5000000000000284
 21
11.0
 31
0.0
  0
LINE
  5
6A
100
AcDbEntity
100
AcDbLine
  8
parts
 62
256
370
-1
  6
BYLAYER
 10
13.9999999999999716
 20
21.0
 30
0.0
 11
13.9999999999999716
 21
17.0
 31
0.0
  0
LINE
  5
6B
100
AcDbEntity
100
AcDbLine
  8
parts
 62
256
370
-1
  6
BYLAYER
 10
13.9999999999999716
 20
17.0
 30
0.0
 11
15.4999999999999716
 21
15.5
 31
0.0
  0
LINE
  5
6C
100
AcDbEntity
100
AcDbLine
  8
guides
 62
256
370
-1
  6
BYLAYER
 10
9.9999999999999716
 20
0.0
 30
0.0
 11
-10.0000000000000284
 21
0.0
 31
0.0
  0
ENDBLK
  5
6D
100
AcDbEntity
  8
0
100
AcDbBlockEnd
  0
BLOCK
  5
6E
100
AcDbEntity
  8
0
100
AcDbBlockBegin
  2
pulley bearing side
 70
0
 10
0.0
 20
0.0
 30
0.0
  3
pulley bearing side
  1

  0
CIRCLE
  5
6F
100
AcDbEntity
100
AcDbCircle
  8
parts
 62
256
370
-1
  6
BYLAYER
 10
0.0
 20
0.0
 30
0.0
 40
2.0
  0
CIRCLE
  5
70
100
AcDbEntity
100
AcDbCircle
  8
parts
 62
256
370
-1
  6
BYLAYER
 10
0.0
 20
0.0
 30
0.0
 40
6.5
  0
CIRCLE
  5
71
100
AcDbEntity
100
AcDbCircle
  8
parts
 62
256
370
-1
  6
DASHED2
 10
0.0
 20
0.0
 30
0.0
 40
4.7000000000000002
  0
LINE
  5
72
100
AcDbEntity
100
AcDbLine
  8
guides
 62
256
370
-1
  6
BYLAYER
 10
10.0
 20
0.0
 30
0.0
 11
-10.0
 21
0.0
 31
0.0
  0
LINE
  5
73
100
AcDbEntity
100
AcDbLine
  8
guides
 62
256
370
-1
  6
BYLAYER
 10
0.0
 20
10.0
 30
0.0
 11
0.0
 21
-10.0
 31
0.0
  0
ENDBLK
  5
74
100
AcDbEntity
  8
0
100
AcDbBlockEnd
  0
BLOCK
  5
75
100
AcDbEntity
  8
0
100
AcDbBlockBegin
  2
nema 17
 70
0
 10
0.0
 20
0.0
 30
0.0
  3
nema 17
  1

  0
LINE
  5
76
100
AcDbEntity
100
AcDbLine
  8
parts
 62
256
370
-1
  6
BYLAYER
 10
-21.0
 20
21.0
 30
0.0
 11
-21.0
 21
21.0
 31
0.0
  0
LINE
  5
77
100
AcDbEntity
100
AcDbLine
  8
parts
 62
256
370
-1
  6
BYLAYER
 10
-21.0
 20
21.0
 30
0.0
 11
-21.0
 21
21.0
 31
0.0
  0
LINE
  5
78
100
AcDbEntity
100
AcDbLine
  8
parts
 62
256
370
-1
  6
BYLAYER
 10
-20.0
 20
21.0
 30
0.0
 11
20.0
 21
21.0
 31
0.0
  0
LINE
  5
79
100
AcDbEntity
100
AcDbLine
  8
parts
 62
256
370
-1
  6
BYLAYER
 10
21.0
 20
20.0
 30
0.0
 11
21.0
 21
-20.0
 31
0.0
  0
LINE
  5
7A
100
AcDbEntity
100
AcDbLine
  8
parts
 62
256
370
-1
  6
BYLAYER
 10
20.0
 20
-21.0
 30
0.0
 11
-20.0
 21
-21.0
 31
0.0
  0
LINE
  5
7B
100
AcDbEntity
100
AcDbLine
  8
parts
 62
256
370
-1
  6
BYLAYER
 10
-21.0
 20
-20.0
 30
0.0
 11
-21.0
 21
20.0
 31
0.0
  0
LINE
  5
7C
100
AcDbEntity
100
AcDbLine
  8
parts
 62
256
370
-1
  6
BYLAYER
 10
-21.0
 20
20.0
 30
0.0
 11
-20.0
 21
21.0
 31
0.0
  0
LINE
  5
7D
100
AcDbEntity
100
AcDbLine
  8
parts
 62
256
370
-1
  6
BYLAYER
 10
21.0
 20
20.0
 30
0.0
 11
20.0
 21
21.0
 31
0.0
  0
LINE
  5
7E
100
AcDbEntity
100
AcDbLine
  8
parts
 62
256
370
-1
  6
BYLAYER
 10
21.0
 20
-20.0
 30
0.0
 11
20.0
 21
-21.0
 31
0.0
  0
LINE
  5
7F
100
AcDbEntity
100
AcDbLine
  8
parts
 62
256
370
-1
  6
BYLAYER
 10
-20.0
 20
-21.0
 30
0.0
 11
-21.0
 21
-20.0
 31
0.0
  0
CIRCLE
  5
80
100
AcDbEntity
100
AcDbCircle
  8
parts
 62
256
370
-1
  6
BYLAYER
 10
0.0
 20
0.0
 30
0.0
 40
2.5
  0
CIRCLE
  5
81
100
AcDbEntity
100
AcDbCircle
  8
parts
 62
256
370
-1
  6
BYLAYER
 10
0.0
 20
0.0
 30
0.0
 40
11.0
  0
CIRCLE
  5
82
100
AcDbEntity
100
AcDbCircle
  8
parts
 62
256
370
-1
  6
BYLAYER
 10
15.5
 20
15.5
 30
0.0
 40
1.5
  0
CIRCLE
  5
83
100
AcDbEntity
100
AcDbCircle
  8
parts
 62
256
370
-1
  6
BYLAYER
 10
15.5
 20
-15.5
 30
0.0
 40
1.5
  0
CIRCLE
  5
84
100
AcDbEntity
100
AcDbCircle
  8
parts
 62
256
370
-1
  6
BYLAYER
 10
-15.4999999999999893
 20
-15.5
 30
0.0
 40
1.5
  0
CIRCLE
  5
85
100
AcDbEntity
100
AcDbCircle
  8
parts
 62
256
370
-1
  6
BYLAYER
 10
-15.4999999999999805
 20
15.5
 30
0.0
 40
1.5
  0
LINE
  5
86
100
AcDbEntity
100
AcDbLine
  8
guides
 62
256
370
-1
  6
BYLAYER
 10
0.0
 20
30.0
 30
0.0
 11
0.0
 21
-30.0
 31
0.0
  0
LINE
  5
87
100
AcDbEntity
100
AcDbLine
  8
guides
 62
256
370
-1
  6
BYLAYER
 10
-30.0
 20
0.0
 30
0.0
 11
30.0
 21
0.0
 31
0.0
  0
LINE
  5
88
100
AcDbEntity
100
AcDbLine
  8
parts
 62
256
370
-1
  6
BYLAYER
 10
-21.0
 20
21.0
 30
0.0
 11
-21.0
 21
21.0
 31
0.0
  0
LINE
  5
89
100
AcDbEntity
100
AcDbLine
  8
parts
 62
256
370
-1
  6
BYLAYER
 10
-21.0
 20
21.0
 30
0.0
 11
-21.0
 21
21.0
 31
0.0
  0
LINE
  5
8A
100
AcDbEntity
100
AcDbLine
  8
parts
 62
256
370
-1
  6
BYLAYER
 10
-21.0
 20
21.0
 30
0.0
 11
-21.0
 21
21.0
 31
0.0
  0
LINE
  5
8B
100
AcDbEntity
100
AcDbLine
  8
parts
 62
256
370
-1
  6
BYLAYER
 10
-21.0
 20
21.0
 30
0.0
 11
-21.0
 21
21.0
 31
0.0
  0
LINE
  5
8C
100
AcDbEntity
100
AcDbLine
  8
parts
 62
256
370
-1
  6
BYLAYER
 10
-21.0
 20
21.0
 30
0.0
 11
-21.0
 21
21.0
 31
0.0
  0
LINE
  5
8D
100
AcDbEntity
100
AcDbLine
  8
parts
 62
256
370
-1
  6
BYLAYER
 10
-21.0
 20
21.0
 30
0.0
 11
-21.0
 21
21.0
 31
0.0
  0
LINE
  5
8E
100
AcDbEntity
100
AcDbLine
  8
parts
 62
256
370
-1
  6
BYLAYER
 10
-21.0
 20
21.0
 30
0.0
 11
-21.0
 21
21.0
 31
0.0
  0
LINE
  5
8F
100
AcDbEntity
100
AcDbLine
  8
parts
 62
256
370
-1
  6
BYLAYER
 10
-21.0
 20
21.0
 30
0.0
 11
-21.0
 21
21.0
 31
0.0
  0
LINE
  5
90
100
AcDbEntity
100
AcDbLine
  8
parts
 62
256
370
-1
  6
BYLAYER
 10
-21.0
 20
21.0
 30
0.0
 11
-21.0
 21
21.0
 31
0.0
  0
LINE
  5
91
100
AcDbEntity
100
AcDbLine
  8
parts
 62
256
370
-1
  6
BYLAYER
 10
-21.0
 20
21.0
 30
0.0
 11
-21.0
 21
21.0
 31
0.0
  0
ENDBLK
  5
92
100
AcDbEntity
  8
0
100
AcDbBlockEnd
  0
ENDSEC
  0
SECTION
  2
ENTITIES
  0
LINE
  5
93
100
AcDbEntity
100
AcDbLine
  8
0
 62
256
370
-1
  6
BYLAYER
 10
205.0
 20
365.0
 30
0.0
 11
205.0
 21
368.0
 31
0.0
  0
LINE
  5
94
100
AcDbEntity
100
AcDbLine
  8
0
 62
256
370
-1
  6
BYLAYER
 10
205.0
 20
368.0
 30
0.0
 11
210.0
 21
368.0
 31
0.0
  0
LINE
  5
95
100
AcDbEntity
100
AcDbLine
  8
0
 62
256
370
-1
  6
BYLAYER
 10
210.0
 20
368.0
 30
0.0
 11
210.0
 21
373.0
 31
0.0
  0
LINE
  5
96
100
AcDbEntity
100
AcDbLine
  8
0
 62
256
370
-1
  6
BYLAYER
 10
210.0
 20
383.0
 30
0.0
 11
210.0
 21
388.0
 31
0.0
  0
LINE
  5
97
100
AcDbEntity
100
AcDbLine
  8
0
 62
256
370
-1
  6
BYLAYER
 10
210.0
 20
388.0
 30
0.0
 11
205.0
 21
388.0
 31
0.0
  0
LINE
  5
98
100
AcDbEntity
100
AcDbLine
  8
0
 62
256
370
-1
  6
BYLAYER
 10
195.0
 20
388.0
 30
0.0
 11
190.0
 21
388.0
 31
0.0
  0
LINE
  5
99
100
AcDbEntity
100
AcDbLine
  8
0
 62
256
370
-1
  6
BYLAYER
 10
190.0
 20
388.0
 30
0.0
 11
190.0
 21
383.0
 31
0.0
  0
LINE
  5
9A
100
AcDbEntity
100
AcDbLine
  8
0
 62
256
370
-1
  6
BYLAYER
 10
190.0
 20
373.0
 30
0.0
 11
190.0
 21
368.0
 31
0.0
  0
LINE
  5
9B
100
AcDbEntity
100
AcDbLine
  8
0
 62
256
370
-1
  6
BYLAYER
 10
190.0
 20
368.0
 30
0.0
 11
195.0
 21
368.0
 31
0.0
  0
LINE
  5
9C
100
AcDbEntity
100
AcDbLine
  8
0
 62
256
370
-1
  6
BYLAYER
 10
210.0
 20
373.0
 30
0.0
 11
210.0
 21
373.0
 31
0.0
  0
LINE
  5
9D
100
AcDbEntity
100
AcDbLine
  8
0
 62
256
370
-1
  6
BYLAYER
 10
210.0
 20
373.0
 30
0.0
 11
210.0
 21
373.0
 31
0.0
  0
LINE
  5
9E
100
AcDbEntity
100
AcDbLine
  8
0
 62
256
370
-1
  6
BYLAYER
 10
210.0
 20
373.0
 30
0.0
 11
210.0
 21
373.0
 31
0.0
  0
LINE
  5
9F
100
AcDbEntity
100
AcDbLine
  8
0
 62
256
370
-1
  6
BYLAYER
 10
210.0
 20
373.0
 30
0.0
 11
210.0
 21
373.0
 31
0.0
  0
LINE
  5
A0
100
AcDbEntity
100
AcDbLine
  8
0
 62
256
370
-1
  6
BYLAYER
 10
213.0
 20
373.0
 30
0.0
 11
210.0
 21
373.0
 31
0.0
  0
LINE
  5
A1
100
AcDbEntity
100
AcDbLine
  8
0
 62
256
370
-1
  6
BYLAYER
 10
210.0
 20
383.0
 30
0.0
 11
213.0
 21
383.0
 31
0.0
  0
LINE
  5
A2
100
AcDbEntity
100
AcDbLine
  8
0
 62
256
370
-1
  6
BYLAYER
 10
213.0
 20
383.0
 30
0.0
 11
213.0
 21
373.0
 31
0.0
  0
LINE
  5
A3
100
AcDbEntity
100
AcDbLine
  8
0
 62
256
370
-1
  6
BYLAYER
 10
195.0
 20
388.0
 30
0.0
 11
195.0
 21
391.0
 31
0.0
  0
LINE
  5
A4
100
AcDbEntity
100
AcDbLine
  8
0
 62
256
370
-1
  6
BYLAYER
 10
205.0
 20
391.0
 30
0.0
 11
205.0
 21
388.0
 31
0.0
  0
LINE
  5
A5
100
AcDbEntity
100
AcDbLine
  8
0
 62
256
370
-1
  6
BYLAYER
 10
190.0
 20
373.0
 30
0.0
 11
187.0
 21
373.0
 31
0.0
  0
LINE
  5
A6
100
AcDbEntity
100
AcDbLine
  8
0
 62
256
370
-1
  6
BYLAYER
 10
221.0
 20
391.0
 30
0.0
 11
205.0
 21
391.0
 31
0.0
  0
LINE
  5
A7
100
AcDbEntity
100
AcDbLine
  8
0
 62
256
370
-1
  6
BYLAYER
 10
187.0
 20
373.0
 30
0.0
 11
187.0
 21
383.0
 31
0.0
  0
LINE
  5
A8
100
AcDbEntity
100
AcDbLine
  8
0
 62
256
370
-1
  6
BYLAYER
 10
195.0
 20
391.0
 30
0.0
 11
179.0
 21
391.0
 31
0.0
  0
LINE
  5
A9
100
AcDbEntity
100
AcDbLine
  8
0
 62
256
370
-1
  6
BYLAYER
 10
187.0
 20
383.0
 30
0.0
 11
190.0
 21
383.0
 31
0.0
  0
LINE
  5
AA
100
AcDbEntity
100
AcDbLine
  8
0
 62
256
370
-1
  6
BYLAYER
 10
195.0
 20
368.0
 30
0.0
 11
195.0
 21
365.0
 31
0.0
  0
LINE
  5
AB
100
AcDbEntity
100
AcDbLine
  8
0
 62
256
370
-1
  6
BYLAYER
 10
195.0
 20
365.0
 30
0.0
 11
205.0
 21
365.0
 31
0.0
  0
LINE
  5
AC
100
AcDbEntity
100
AcDbLine
  8
guides
 62
256
370
-1
  6
BYLAYER
 10
213.0
 20
365.0
 30
0.0
 11
213.0
 21
391.0
 31
0.0
  0
LINE
  5
AD
100
AcDbEntity
100
AcDbLine
  8
guides
 62
256
370
-1
  6
BYLAYER
 10
213.0
 20
391.0
 30
0.0
 11
187.0
 21
391.0
 31
0.0
  0
LINE
  5
AE
100
AcDbEntity
100
AcDbLine
  8
guides
 62
256
370
-1
  6
BYLAYER
 10
187.0
 20
391.0
 30
0.0
 11
187.0
 21
365.0
 31
0.0
  0
LINE
  5
AF
100
AcDbEntity
100
AcDbLine
  8
guides
 62
256
370
-1
  6
BYLAYER
 10
187.0
 20
365.0
 30
0.0
 11
213.0
 21
365.0
 31
0.0
  0
LINE
  5
B0
100
AcDbEntity
100
AcDbLine
  8
guides
 62
256
370
-1
  6
BYLAYER
 10
210.0
 20
373.0
 30
0.0
 11
210.0
 21
383.0
 31
0.0
  0
LINE
  5
B1
100
AcDbEntity
100
AcDbLine
  8
guides
 62
256
370
-1
  6
BYLAYER
 10
205.0
 20
388.0
 30
0.0
 11
195.0
 21
388.0
 31
0.0
  0
LINE
  5
B2
100
AcDbEntity
100
AcDbLine
  8
guides
 62
256
370
-1
  6
BYLAYER
 10
190.0
 20
383.0
 30
0.0
 11
190.0
 21
373.0
 31
0.0
  0
LINE
  5
B3
100
AcDbEntity
100
AcDbLine
  8
guides
 62
256
370
-1
  6
BYLAYER
 10
205.0
 20
368.0
 30
0.0
 11
195.0
 21
368.0
 31
0.0
  0
LINE
  5
B4
100
AcDbEntity
100
AcDbLine
  8
guides
 62
256
370
-1
  6
BYLAYER
 10
-30.0
 20
300.0
 30
0.0
 11
-110.0
 21
300.0
 31
0.0
  0
LINE
  5
B5
100
AcDbEntity
100
AcDbLine
  8
parts
 62
256
370
-1
  6
BYLAYER
 10
-38.0
 20
320.6499999999999773
 30
0.0
 11
-38.0
 21
279.3499999999999659
 31
0.0
  0
LINE
  5
B6
100
AcDbEntity
100
AcDbLine
  8
parts
 62
256
370
-1
  6
BYLAYER
 10
-38.5
 20
321.1499999999999773
 30
0.0
 11
-79.5000000000000284
 21
321.1499999999999773
 31
0.0
  0
LINE
  5
B7
100
AcDbEntity
100
AcDbLine
  8
parts
 62
256
370
-1
  6
BYLAYER
 10
-79.5
 20
278.8499999999999659
 30
0.0
 11
-38.5
 21
278.8499999999999659
 31
0.0
  0
LINE
  5
B8
100
AcDbEntity
100
AcDbLine
  8
parts
 62
256
370
-1
  6
BYLAYER
 10
-82.0
 20
289.0
 30
0.0
 11
-80.0
 21
289.0
 31
0.0
  0
LINE
  5
B9
100
AcDbEntity
100
AcDbLine
  8
parts
 62
256
370
-1
  6
BYLAYER
 10
-82.0
 20
311.0
 30
0.0
 11
-80.0
 21
311.0
 31
0.0
  0
LINE
  5
BA
100
AcDbEntity
100
AcDbLine
  8
parts
 62
256
370
-1
  6
BYLAYER
 10
-80.0
 20
289.0
 30
0.0
 11
-80.0
 21
279.3499999999999659
 31
0.0
  0
LINE
  5
BB
100
AcDbEntity
100
AcDbLine
  8
parts
 62
256
370
-1
  6
BYLAYER
 10
-80.0
 20
320.6499999999999773
 30
0.0
 11
-80.0
 21
311.0
 31
0.0
  0
LINE
  5
BC
100
AcDbEntity
100
AcDbLine
  8
parts
 62
256
370
-1
  6
BYLAYER
 10
-82.0
 20
297.5
 30
0.0
 11
-105.5
 21
297.5
 31
0.0
  0
LINE
  5
BD
100
AcDbEntity
100
AcDbLine
  8
parts
 62
256
370
-1
  6
BYLAYER
 10
-82.0
 20
302.5
 30
0.0
 11
-105.5
 21
302.5
 31
0.0
  0
LINE
  5
BE
100
AcDbEntity
100
AcDbLine
  8
parts
 62
256
370
-1
  6
BYLAYER
 10
-106.0
 20
298.0
 30
0.0
 11
-106.0
 21
302.0
 31
0.0
  0
LINE
  5
BF
100
AcDbEntity
100
AcDbLine
  8
parts
 62
256
370
-1
  6
BYLAYER
 10
-82.0
 20
297.5
 30
0.0
 11
-82.0
 21
289.0
 31
0.0
  0
LINE
  5
C0
100
AcDbEntity
100
AcDbLine
  8
parts
 62
256
370
-1
  6
BYLAYER
 10
-82.0
 20
311.0
 30
0.0
 11
-82.0
 21
302.5
 31
0.0
  0
LINE
  5
C1
100
AcDbEntity
100
AcDbLine
  8
parts
 62
256
370
-1
  6
BYLAYER
 10
-105.5
 20
297.5
 30
0.0
 11
-106.0
 21
298.0
 31
0.0
  0
LINE
  5
C2
100
AcDbEntity
100
AcDbLine
  8
parts
 62
256
370
-1
  6
BYLAYER
 10
-106.0
 20
302.0
 30
0.0
 11
-105.5
 21
302.5
 31
0.0
  0
LINE
  5
C3
100
AcDbEntity
100
AcDbLine
  8
parts
 62
256
370
-1
  6
BYLAYER
 10
-80.0
 20
320.6499999999999773
 30
0.0
 11
-79.5000000000000284
 21
321.1499999999999773
 31
0.0
  0
LINE
  5
C4
100
AcDbEntity
100
AcDbLine
  8
parts
 62
256
370
-1
  6
BYLAYER
 10
-80.0
 20
279.3499999999999659
 30
0.0
 11
-79.5
 21
278.8499999999999659
 31
0.0
  0
LINE
  5
C5
100
AcDbEntity
100
AcDbLine
  8
parts
 62
256
370
-1
  6
BYLAYER
 10
-38.0
 20
279.3499999999999659
 30
0.0
 11
-38.5
 21
278.8499999999999659
 31
0.0
  0
LINE
  5
C6
100
AcDbEntity
100
AcDbLine
  8
parts
 62
256
370
-1
  6
BYLAYER
 10
-38.0
 20
320.6499999999999773
 30
0.0
 11
-38.5
 21
321.1499999999999773
 31
0.0
  0
LINE
  5
C7
100
AcDbEntity
100
AcDbLine
  8
guides
 62
256
370
-1
  6
BYLAYER
 10
-90.0
 20
315.5
 30
0.0
 11
-70.0
 21
315.5
 31
0.0
  0
LINE
  5
C8
100
AcDbEntity
100
AcDbLine
  8
guides
 62
256
370
-1
  6
BYLAYER
 10
-90.0
 20
284.5
 30
0.0
 11
-70.0
 21
284.5
 31
0.0
  0
LINE
  5
C9
100
AcDbEntity
100
AcDbLine
  8
parts
 62
256
370
-1
  6
BYLAYER
 10
-80.0
 20
314.0
 30
0.0
 11
-76.0
 21
314.0
 31
0.0
  0
LINE
  5
CA
100
AcDbEntity
100
AcDbLine
  8
parts
 62
256
370
-1
  6
BYLAYER
 10
-76.0
 20
314.0
 30
0.0
 11
-74.5
 21
315.5
 31
0.0
  0
LINE
  5
CB
100
AcDbEntity
100
AcDbLine
  8
parts
 62
256
370
-1
  6
BYLAYER
 10
-74.5
 20
315.5
 30
0.0
 11
-76.0
 21
317.0
 31
0.0
  0
LINE
  5
CC
100
AcDbEntity
100
AcDbLine
  8
parts
 62
256
370
-1
  6
BYLAYER
 10
-76.0
 20
317.0
 30
0.0
 11
-80.0
 21
317.0
 31
0.0
  0
LINE
  5
CD
100
AcDbEntity
100
AcDbLine
  8
parts
 62
256
370
-1
  6
BYLAYER
 10
-80.0
 20
286.0
 30
0.0
 11
-76.0
 21
286.0
 31
0.0
  0
LINE
  5
CE
100
AcDbEntity
100
AcDbLine
  8
parts
 62
256
370
-1
  6
BYLAYER
 10
-76.0
 20
286.0
 30
0.0
 11
-74.5
 21
284.5
 31
0.0
  0
LINE
  5
CF
100
AcDbEntity
100
AcDbLine
  8
parts
 62
256
370
-1
  6
BYLAYER
 10
-74.5
 20
284.5
 30
0.0
 11
-76.0
 21
283.0
 31
0.0
  0
LINE
  5
D0
100
AcDbEntity
100
AcDbLine
  8
parts
 62
256
370
-1
  6
BYLAYER
 10
-76.0
 20
283.0
 30
0.0
 11
-80.0
 21
283.0
 31
0.0
  0
LINE
  5
D1
100
AcDbEntity
100
AcDbLine
  8
guides
 62
256
370
-1
  6
BYLAYER
 10
200.0
 20
368.0
 30
0.0
 11
200.0
 21
388.0
 31
0.0
  0
LINE
  5
D2
100
AcDbEntity
100
AcDbLine
  8
guides
 62
256
370
-1
  6
BYLAYER
 10
190.0
 20
378.0
 30
0.0
 11
210.0
 21
378.0
 31
0.0
  0
LINE
  5
D3
100
AcDbEntity
100
AcDbLine
  8
0
 62
256
370
-1
  6
BYLAYER
 10
359.1525218736300644
 20
129.6602540378443678
 30
0.0
 11
354.8223948547078521
 21
132.1602540378443962
 31
0.0
  0
LINE
  5
D4
100
AcDbEntity
100
AcDbLine
  8
0
 62
256
370
-1
  6
BYLAYER
 10
346.1621408168634844
 20
137.1602540378443109
 30
0.0
 11
341.8320137979412721
 21
139.6602540378443393
 31
0.0
  0
LINE
  5
D5
100
AcDbEntity
100
AcDbLine
  8
0
 62
256
370
-1
  6
BYLAYER
 10
341.8320137979412721
 20
139.6602540378443393
 30
0.0
 11
339.3320137979412721
 21
135.3301270189220986
 31
0.0
  0
LINE
  5
D6
100
AcDbEntity
100
AcDbLine
  8
0
 62
256
370
-1
  6
BYLAYER
 10
336.1621408168634844
 20
119.8397459621555754
 30
0.0
 11
336.1621408168634844
 21
119.8397459621555754
 31
0.0
  0
LINE
  5
D7
100
AcDbEntity
100
AcDbLine
  8
0
 62
256
370
-1
  6
BYLAYER
 10
336.1621408168634844
 20
119.8397459621555754
 30
0.0
 11
336.1621408168634844
 21
119.8397459621555754
 31
0.0
  0
LINE
  5
D8
100
AcDbEntity
100
AcDbLine
  8
0
 62
256
370
-1
  6
BYLAYER
 10
336.1621408168634844
 20
119.8397459621555754
 30
0.0
 11
336.1621408168634844
 21
119.8397459621555754
 31
0.0
  0
LINE
  5
D9
100
AcDbEntity
100
AcDbLine
  8
0
 62
256
370
-1
  6
BYLAYER
 10
336.1621408168634844
 20
119.8397459621555754
 30
0.0
 11
336.1621408168634844
 21
119.8397459621555754
 31
0.0
  0
LINE
  5
DA
100
AcDbEntity
100
AcDbLine
  8
0
 62
256
370
-1
  6
BYLAYER
 10
334.6621408168634275
 20
117.2416697508022025
 30
0.0
 11
336.1621408168634844
 21
119.8397459621555754
 31
0.0
  0
LINE
  5
DB
100
AcDbEntity
100
AcDbLine
  8
0
 62
256
370
-1
  6
BYLAYER
 10
344.8223948547077953
 20
114.8397459621554759
 30
0.0
 11
343.3223948547078521
 21
112.2416697508022452
 31
0.0
  0
LINE
  5
DC
100
AcDbEntity
100
AcDbLine
  8
0
 62
256
370
-1
  6
BYLAYER
 10
343.3223948547078521
 20
112.2416697508022452
 30
0.0
 11
334.6621408168634275
 21
117.2416697508022025
 31
0.0
  0
LINE
  5
DD
100
AcDbEntity
100
AcDbLine
  8
0
 62
256
370
-1
  6
BYLAYER
 10
356.6525218736300644
 20
125.3301270189221412
 30
0.0
 11
359.2505980849833804
 21
123.8301270189221697
 31
0.0
  0
LINE
  5
DE
100
AcDbEntity
100
AcDbLine
  8
0
 62
256
370
-1
  6
BYLAYER
 10
354.2505980849833236
 20
115.1698729810776598
 30
0.0
 11
351.6525218736300076
 21
116.6698729810776882
 31
0.0
  0
LINE
  5
DF
100
AcDbEntity
100
AcDbLine
  8
0
 62
256
370
-1
  6
BYLAYER
 10
346.1621408168634844
 20
137.1602540378443109
 30
0.0
 11
347.6621408168634844
 21
139.7583302491976553
 31
0.0
  0
LINE
  5
E0
100
AcDbEntity
100
AcDbLine
  8
0
 62
256
370
-1
  6
BYLAYER
 10
346.2505980849833804
 20
101.3134665205267311
 30
0.0
 11
354.2505980849833236
 21
115.1698729810776598
 31
0.0
  0
LINE
  5
E1
100
AcDbEntity
100
AcDbLine
  8
0
 62
256
370
-1
  6
BYLAYER
 10
347.6621408168634844
 20
139.7583302491976553
 30
0.0
 11
356.3223948547078521
 21
134.7583302491975985
 31
0.0
  0
LINE
  5
E2
100
AcDbEntity
100
AcDbLine
  8
0
 62
256
370
-1
  6
BYLAYER
 10
359.2505980849833804
 20
123.8301270189221697
 30
0.0
 11
367.2505980849833804
 21
137.6865334794730984
 31
0.0
  0
LINE
  5
E3
100
AcDbEntity
100
AcDbLine
  8
0
 62
256
370
-1
  6
BYLAYER
 10
356.3223948547078521
 20
134.7583302491975985
 30
0.0
 11
354.8223948547078521
 21
132.1602540378443962
 31
0.0
  0
LINE
  5
E4
100
AcDbEntity
100
AcDbLine
  8
0
 62
256
370
-1
  6
BYLAYER
 10
339.3320137979412721
 20
135.3301270189220986
 30
0.0
 11
336.7339375865878992
 21
136.8301270189220702
 31
0.0
  0
LINE
  5
E5
100
AcDbEntity
100
AcDbLine
  8
0
 62
256
370
-1
  6
BYLAYER
 10
336.7339375865878992
 20
136.8301270189220702
 30
0.0
 11
331.7339375865880129
 21
128.1698729810777877
 31
0.0
  0
LINE
  5
E6
100
AcDbEntity
100
AcDbLine
  8
guides
 62
256
370
-1
  6
BYLAYER
 10
327.733937586587956
 20
121.2416697508022736
 30
0.0
 11
350.2505980849833804
 21
108.2416697508022878
 31
0.0
  0
LINE
  5
E7
100
AcDbEntity
100
AcDbLine
  8
guides
 62
256
370
-1
  6
BYLAYER
 10
336.8320137979412721
 20
130.9999999999999432
 30
0.0
 11
354.1525218736300076
 21
120.9999999999999147
 31
0.0
  0
LINE
  5
E8
100
AcDbEntity
100
AcDbLine
  8
guides
 62
256
370
-1
  6
BYLAYER
 10
350.2505980849833804
 20
108.2416697508022878
 30
0.0
 11
363.2505980849832667
 21
130.7583302491975701
 31
0.0
  0
LINE
  5
E9
100
AcDbEntity
100
AcDbLine
  8
guides
 62
256
370
-1
  6
BYLAYER
 10
350.4922678357856967
 20
134.6602540378443109
 30
0.0
 11
340.492267835785583
 21
117.339745962155547
 31
0.0
  0
LINE
  5
EA
100
AcDbEntity
100
AcDbLine
  8
guides
 62
256
370
-1
  6
BYLAYER
 10
363.2505980849832667
 20
130.7583302491975701
 30
0.0
 11
340.7339375865878992
 21
143.7583302491975701
 31
0.0
  0
LINE
  5
EB
100
AcDbEntity
100
AcDbLine
  8
guides
 62
256
370
-1
  6
BYLAYER
 10
340.7339375865878992
 20
143.7583302491975701
 30
0.0
 11
327.733937586587956
 21
121.2416697508022736
 31
0.0
  0
LINE
  5
EC
100
AcDbEntity
100
AcDbLine
  8
guides
 62
256
370
-1
  6
BYLAYER
 10
336.1621408168634844
 20
119.8397459621555754
 30
0.0
 11
344.8223948547077953
 21
114.8397459621554759
 31
0.0
  0
LINE
  5
ED
100
AcDbEntity
100
AcDbLine
  8
guides
 62
256
370
-1
  6
BYLAYER
 10
351.6525218736300076
 20
116.6698729810776882
 30
0.0
 11
356.6525218736300644
 21
125.3301270189221412
 31
0.0
  0
LINE
  5
EE
100
AcDbEntity
100
AcDbLine
  8
guides
 62
256
370
-1
  6
BYLAYER
 10
354.8223948547078521
 20
132.1602540378443962
 30
0.0
 11
346.1621408168634844
 21
137.1602540378443109
 31
0.0
  0
LINE
  5
EF
100
AcDbEntity
100
AcDbLine
  8
guides
 62
256
370
-1
  6
BYLAYER
 10
334.3320137979412721
 20
126.6698729810777451
 30
0.0
 11
339.3320137979412721
 21
135.3301270189220986
 31
0.0
  0
LINE
  5
F0
100
AcDbEntity
100
AcDbLine
  8
guides
 62
256
370
-1
  6
BYLAYER
 10
262.3538290724795843
 20
173.9999999999999716
 30
0.0
 11
331.63586137523464
 21
133.9999999999999432
 31
0.0
  0
LINE
  5
F1
100
AcDbEntity
100
AcDbLine
  8
0
 62
256
370
-1
  6
BYLAYER
 10
331.7339375865880129
 20
128.1698729810777877
 30
0.0
 11
334.3320137979412721
 21
126.6698729810777451
 31
0.0
  0
LINE
  5
F2
100
AcDbEntity
100
AcDbLine
  8
0
 62
256
370
-1
  6
BYLAYER
 10
334.3320137979412721
 20
126.6698729810777451
 30
0.0
 11
331.8320137979412721
 21
122.3397459621555328
 31
0.0
  0
LINE
  5
F3
100
AcDbEntity
100
AcDbLine
  8
0
 62
256
370
-1
  6
BYLAYER
 10
331.8320137979412721
 20
122.3397459621555328
 30
0.0
 11
336.1621408168634844
 21
119.8397459621555754
 31
0.0
  0
LINE
  5
F4
100
AcDbEntity
100
AcDbLine
  8
0
 62
256
370
-1
  6
BYLAYER
 10
344.8223948547077953
 20
114.8397459621554759
 30
0.0
 11
349.1525218736300076
 21
112.3397459621555043
 31
0.0
  0
LINE
  5
F5
100
AcDbEntity
100
AcDbLine
  8
0
 62
256
370
-1
  6
BYLAYER
 10
349.1525218736300076
 20
112.3397459621555043
 30
0.0
 11
351.6525218736300076
 21
116.6698729810776882
 31
0.0
  0
LINE
  5
F6
100
AcDbEntity
100
AcDbLine
  8
0
 62
256
370
-1
  6
BYLAYER
 10
356.6525218736300644
 20
125.3301270189221412
 30
0.0
 11
359.1525218736300644
 21
129.6602540378443678
 31
0.0
  0
LINE
  5
F7
100
AcDbEntity
100
AcDbLine
  8
0
 62
256
370
-1
  6
BYLAYER
 10
50.8474781263698503
 20
112.3397459621557175
 30
0.0
 11
55.1776051452919774
 21
114.839745962155817
 31
0.0
  0
LINE
  5
F8
100
AcDbEntity
100
AcDbLine
  8
0
 62
256
370
-1
  6
BYLAYER
 10
63.837859183136402
 20
119.8397459621557601
 30
0.0
 11
68.1679862020586143
 21
122.3397459621557317
 31
0.0
  0
LINE
  5
F9
100
AcDbEntity
100
AcDbLine
  8
0
 62
256
370
-1
  6
BYLAYER
 10
68.1679862020586143
 20
122.3397459621557317
 30
0.0
 11
65.667986202058529
 21
126.6698729810780435
 31
0.0
  0
LINE
  5
FA
100
AcDbEntity
100
AcDbLine
  8
0
 62
256
370
-1
  6
BYLAYER
 10
53.8378591831364304
 20
137.1602540378445099
 30
0.0
 11
53.8378591831364304
 21
137.1602540378445099
 31
0.0
  0
LINE
  5
FB
100
AcDbEntity
100
AcDbLine
  8
0
 62
256
370
-1
  6
BYLAYER
 10
53.8378591831364304
 20
137.1602540378445099
 30
0.0
 11
53.8378591831364304
 21
137.1602540378445099
 31
0.0
  0
LINE
  5
FC
100
AcDbEntity
100
AcDbLine
  8
0
 62
256
370
-1
  6
BYLAYER
 10
53.8378591831364304
 20
137.1602540378445099
 30
0.0
 11
53.8378591831364304
 21
137.1602540378445099
 31
0.0
  0
LINE
  5
FD
100
AcDbEntity
100
AcDbLine
  8
0
 62
256
370
-1
  6
BYLAYER
 10
53.8378591831364304
 20
137.1602540378445099
 30
0.0
 11
53.8378591831364304
 21
137.1602540378445099
 31
0.0
  0
LINE
  5
FE
100
AcDbEntity
100
AcDbLine
  8
0
 62
256
370
-1
  6
BYLAYER
 10
52.3378591831364872
 20
139.7583302491977406
 30
0.0
 11
53.8378591831364304
 21
137.1602540378445099
 31
0.0
  0
LINE
  5
FF
100
AcDbEntity
100
AcDbLine
  8
0
 62
256
370
-1
  6
BYLAYER
 10
45.177605145292091
 20
132.1602540378444814
 30
0.0
 11
43.6776051452920342
 21
134.7583302491978543
 31
0.0
  0
LINE
  5
100
100
AcDbEntity
100
AcDbLine
  8
0
 62
256
370
-1
  6
BYLAYER
 10
43.6776051452920342
 20
134.7583302491978543
 30
0.0
 11
52.3378591831364872
 21
139.7583302491977406
 31
0.0
  0
LINE
  5
101
100
AcDbEntity
100
AcDbLine
  8
0
 62
256
370
-1
  6
BYLAYER
 10
48.3474781263698503
 20
116.6698729810779298
 30
0.0
 11
45.7494019150164775
 21
115.1698729810780293
 31
0.0
  0
LINE
  5
102
100
AcDbEntity
100
AcDbLine
  8
0
 62
256
370
-1
  6
BYLAYER
 10
40.7494019150165627
 20
123.8301270189222691
 30
0.0
 11
43.3474781263698219
 21
125.3301270189223686
 31
0.0
  0
LINE
  5
103
100
AcDbEntity
100
AcDbLine
  8
0
 62
256
370
-1
  6
BYLAYER
 10
63.837859183136402
 20
119.8397459621557601
 30
0.0
 11
65.3378591831363451
 21
117.2416697508025294
 31
0.0
  0
LINE
  5
104
100
AcDbEntity
100
AcDbLine
  8
0
 62
256
370
-1
  6
BYLAYER
 10
32.749401915016449
 20
137.6865334794734963
 30
0.0
 11
40.7494019150165627
 21
123.8301270189222691
 31
0.0
  0
LINE
  5
105
100
AcDbEntity
100
AcDbLine
  8
0
 62
256
370
-1
  6
BYLAYER
 10
65.3378591831363451
 20
117.2416697508025294
 30
0.0
 11
56.6776051452920058
 21
112.2416697508024441
 31
0.0
  0
LINE
  5
106
100
AcDbEntity
100
AcDbLine
  8
0
 62
256
370
-1
  6
BYLAYER
 10
45.7494019150164775
 20
115.1698729810780293
 30
0.0
 11
53.7494019150165627
 21
101.3134665205268163
 31
0.0
  0
LINE
  5
107
100
AcDbEntity
100
AcDbLine
  8
0
 62
256
370
-1
  6
BYLAYER
 10
56.6776051452920058
 20
112.2416697508024441
 30
0.0
 11
55.1776051452919774
 21
114.839745962155817
 31
0.0
  0
LINE
  5
108
100
AcDbEntity
100
AcDbLine
  8
0
 62
256
370
-1
  6
BYLAYER
 10
65.667986202058529
 20
126.6698729810780435
 30
0.0
 11
68.2660624134119587
 21
128.1698729810778445
 31
0.0
  0
LINE
  5
109
100
AcDbEntity
100
AcDbLine
  8
0
 62
256
370
-1
  6
BYLAYER
 10
68.2660624134119587
 20
128.1698729810778445
 30
0.0
 11
63.2660624134119018
 21
136.8301270189223828
 31
0.0
  0
LINE
  5
10A
100
AcDbEntity
100
AcDbLine
  8
guides
 62
256
370
-1
  6
BYLAYER
 10
59.2660624134119018
 20
143.7583302491979111
 30
0.0
 11
36.7494019150165059
 21
130.758330249197968
 31
0.0
  0
LINE
  5
10B
100
AcDbEntity
100
AcDbLine
  8
guides
 62
256
370
-1
  6
BYLAYER
 10
63.1679862020586143
 20
131.0000000000001137
 30
0.0
 11
45.8474781263698219
 21
121.0000000000001421
 31
0.0
  0
LINE
  5
10C
100
AcDbEntity
100
AcDbLine
  8
guides
 62
256
370
-1
  6
BYLAYER
 10
36.7494019150165059
 20
130.758330249197968
 30
0.0
 11
49.7494019150165627
 21
108.2416697508023731
 31
0.0
  0
LINE
  5
10D
100
AcDbEntity
100
AcDbLine
  8
guides
 62
256
370
-1
  6
BYLAYER
 10
59.5077321642142181
 20
117.3397459621557459
 30
0.0
 11
49.5077321642142465
 21
134.6602540378445383
 31
0.0
  0
LINE
  5
10E
100
AcDbEntity
100
AcDbLine
  8
guides
 62
256
370
-1
  6
BYLAYER
 10
49.7494019150165627
 20
108.2416697508023731
 30
0.0
 11
72.2660624134119729
 21
121.2416697508023447
 31
0.0
  0
LINE
  5
10F
100
AcDbEntity
100
AcDbLine
  8
guides
 62
256
370
-1
  6
BYLAYER
 10
72.2660624134119729
 20
121.2416697508023447
 30
0.0
 11
59.2660624134119018
 21
143.7583302491979111
 31
0.0
  0
LINE
  5
110
100
AcDbEntity
100
AcDbLine
  8
guides
 62
256
370
-1
  6
BYLAYER
 10
53.8378591831364304
 20
137.1602540378445099
 30
0.0
 11
45.177605145292091
 21
132.1602540378444814
 31
0.0
  0
LINE
  5
111
100
AcDbEntity
100
AcDbLine
  8
guides
 62
256
370
-1
  6
BYLAYER
 10
43.3474781263698219
 20
125.3301270189223686
 30
0.0
 11
48.3474781263698503
 21
116.6698729810779298
 31
0.0
  0
LINE
  5
112
100
AcDbEntity
100
AcDbLine
  8
guides
 62
256
370
-1
  6
BYLAYER
 10
55.1776051452919774
 20
114.839745962155817
 30
0.0
 11
63.837859183136402
 21
119.8397459621557601
 31
0.0
  0
LINE
  5
113
100
AcDbEntity
100
AcDbLine
  8
guides
 62
256
370
-1
  6
BYLAYER
 10
60.6679862020586711
 20
135.3301270189222123
 30
0.0
 11
65.667986202058529
 21
126.6698729810780435
 31
0.0
  0
LINE
  5
114
100
AcDbEntity
100
AcDbLine
  8
guides
 62
256
370
-1
  6
BYLAYER
 10
137.6461709275203873
 20
174.0000000000000568
 30
0.0
 11
68.3641386247652463
 21
134.0000000000001137
 31
0.0
  0
LINE
  5
115
100
AcDbEntity
100
AcDbLine
  8
0
 62
256
370
-1
  6
BYLAYER
 10
63.2660624134119018
 20
136.8301270189223828
 30
0.0
 11
60.6679862020586711
 21
135.3301270189222123
 31
0.0
  0
LINE
  5
116
100
AcDbEntity
100
AcDbLine
  8
0
 62
256
370
-1
  6
BYLAYER
 10
60.6679862020586711
 20
135.3301270189222123
 30
0.0
 11
58.1679862020586143
 21
139.6602540378445383
 31
0.0
  0
LINE
  5
117
100
AcDbEntity
100
AcDbLine
  8
0
 62
256
370
-1
  6
BYLAYER
 10
58.1679862020586143
 20
139.6602540378445383
 30
0.0
 11
53.8378591831364304
 21
137.1602540378445099
 31
0.0
  0
LINE
  5
118
100
AcDbEntity
100
AcDbLine
  8
0
 62
256
370
-1
  6
BYLAYER
 10
45.177605145292091
 20
132.1602540378444814
 30
0.0
 11
40.8474781263698219
 21
129.6602540378445951
 31
0.0
  0
LINE
  5
119
100
AcDbEntity
100
AcDbLine
  8
0
 62
256
370
-1
  6
BYLAYER
 10
40.8474781263698219
 20
129.6602540378445951
 30
0.0
 11
43.3474781263698219
 21
125.3301270189223686
 31
0.0
  0
LINE
  5
11A
100
AcDbEntity
100
AcDbLine
  8
0
 62
256
370
-1
  6
BYLAYER
 10
48.3474781263698503
 20
116.6698729810779298
 30
0.0
 11
50.8474781263698503
 21
112.3397459621557175
 31
0.0
  0
LWPOLYLINE
  5
11B
  8
0
 62
256
370
-1
  6
BYLAYER
100
AcDbEntity
100
AcDbPolyline
 90
30
 70
0
 10
221.0
 20
391.0
 30
0.0
 10
230.5313247606229083
 20
374.4912612511618022
 30
0.0
 10
227.9332485492695923
 20
372.9912612511618022
 30
0.0
 10
237.9332485492695923
 20
355.6707531754730098
 30
0.0
 10
240.5313247606229083
 20
357.1707531754730098
 30
0.0
 10
250.0626495212458167
 20
340.662014426634812
 30
0.0
 10
247.4645733098925007
 20
339.162014426634812
 30
0.0
 10
257.4645733098925007
 20
321.8415063509460197
 30
0.0
 10
260.0626495212458167
 20
323.3415063509460197
 30
0.0
 10
269.593974281868725
 20
306.8327676021078219
 30
0.0
 10
266.995898070515409
 20
305.3327676021078219
 30
0.0
 10
276.995898070515409
 20
288.0122595264190295
 30
0.0
 10
279.593974281868725
 20
289.5122595264190295
 30
0.0
 10
289.1252990424916334
 20
273.0035207775808317
 30
0.0
 10
286.5272228311383174
 20
271.5035207775808317
 30
0.0
 10
296.5272228311383174
 20
254.1830127018920393
 30
0.0
 10
299.1252990424916334
 20
255.6830127018920393
 30
0.0
 10
308.6566238031145417
 20
239.1742739530538415
 30
0.0
 10
306.0585475917612257
 20
237.6742739530538415
 30
0.0
 10
316.0585475917612257
 20
220.3537658773650492
 30
0.0
 10
318.6566238031145417
 20
221.8537658773650492
 30
0.0
 10
328.1879485637374501
 20
205.3450271285268514
 30
0.0
 10
325.589872352384134
 20
203.8450271285268514
 30
0.0
 10
335.589872352384134
 20
186.524519052838059
 30
0.0
 10
338.1879485637374501
 20
188.024519052838059
 30
0.0
 10
347.7192733243603584
 20
171.5157803039998612
 30
0.0
 10
345.1211971130070424
 20
170.0157803039998612
 30
0.0
 10
355.1211971130070424
 20
152.6952722283110688
 30
0.0
 10
357.7192733243603584
 20
154.1952722283110688
 30
0.0
 10
367.2505980849833804
 20
137.6865334794730984
 30
0.0
  0
LWPOLYLINE
  5
11C
  8
0
 62
256
370
-1
  6
BYLAYER
100
AcDbEntity
100
AcDbPolyline
 90
30
 70
0
 10
346.2505980849833804
 20
101.3134665205267311
 30
0.0
 10
327.1879485637375069
 20
101.3134665205267879
 30
0.0
 10
327.1879485637375069
 20
104.3134665205267311
 30
0.0
 10
307.1879485637374501
 20
104.3134665205267453
 30
0.0
 10
307.1879485637375069
 20
101.3134665205268305
 30
0.0
 10
288.1252990424915765
 20
101.3134665205267737
 30
0.0
 10
288.1252990424915197
 20
104.3134665205267595
 30
0.0
 10
268.1252990424915765
 20
104.3134665205268448
 30
0.0
 10
268.1252990424916334
 20
101.3134665205268305
 30
0.0
 10
249.0626495212457598
 20
101.3134665205268874
 30
0.0
 10
249.0626495212456746
 20
104.3134665205268448
 30
0.0
 10
229.0626495212457314
 20
104.3134665205268874
 30
0.0
 10
229.0626495212457314
 20
101.3134665205268874
 30
0.0
 10
209.9999999999998863
 20
101.31346652052693
 30
0.0
 10
209.9999999999998295
 20
104.3134665205269158
 30
0.0
 10
189.9999999999998579
 20
104.31346652052693
 30
0.0
 10
189.9999999999998579
 20
101.31346652052693
 30
0.0
 10
170.9373504787539559
 20
101.3134665205269727
 30
0.0
 10
170.9373504787539559
 20
104.3134665205269869
 30
0.0
 10
150.9373504787538991
 20
104.3134665205270153
 30
0.0
 10
150.9373504787538991
 20
101.3134665205270295
 30
0.0
 10
131.8747009575078266
 20
101.3134665205271716
 30
0.0
 10
131.8747009575081393
 20
104.3134665205270011
 30
0.0
 10
111.8747009575079829
 20
104.3134665205271006
 30
0.0
 10
111.8747009575079261
 20
101.3134665205271432
 30
0.0
 10
92.8120514362620099
 20
101.3134665205272427
 30
0.0
 10
92.8120514362622089
 20
104.3134665205270863
 30
0.0
 10
72.8120514362620668
 20
104.3134665205272285
 30
0.0
 10
72.8120514362621094
 20
101.3134665205271716
 30
0.0
 10
53.7494019150165343
 20
101.3134665205268021
 30
0.0
  0
LWPOLYLINE
  5
11D
  8
0
 62
256
370
-1
  6
BYLAYER
100
AcDbEntity
100
AcDbPolyline
 90
30
 70
0
 10
32.749401915016449
 20
137.6865334794734963
 30
0.0
 10
42.2807266756395279
 20
154.1952722283114952
 30
0.0
 10
44.8788028869927587
 20
152.6952722283116941
 30
0.0
 10
54.8788028869928439
 20
170.0157803040003444
 30
0.0
 10
52.2807266756395279
 20
171.5157803040003728
 30
0.0
 10
61.8120514362624931
 20
188.024519052838599
 30
0.0
 10
64.4101276476158375
 20
186.5245190528384285
 30
0.0
 10
74.4101276476158517
 20
203.8450271285273345
 30
0.0
 10
71.8120514362625215
 20
205.3450271285271924
 30
0.0
 10
81.3433761968855151
 20
221.8537658773654471
 30
0.0
 10
83.9414524082388169
 20
220.3537658773653334
 30
0.0
 10
93.941452408238888
 20
237.6742739530542394
 30
0.0
 10
91.3433761968855435
 20
239.1742739530541542
 30
0.0
 10
100.8747009575085372
 20
255.6830127018923804
 30
0.0
 10
103.4727771688617963
 20
254.1830127018922667
 30
0.0
 10
113.472777168861839
 20
271.5035207775811159
 30
0.0
 10
110.8747009575085656
 20
273.0035207775811728
 30
0.0
 10
120.4060257181314455
 20
289.5122595264192
 30
0.0
 10
123.0041019294848468
 20
288.0122595264192569
 30
0.0
 10
133.0041019294848184
 20
305.3327676021079924
 30
0.0
 10
130.406025718131616
 20
306.8327676021081061
 30
0.0
 10
139.9373504787546949
 20
323.3415063509463039
 30
0.0
 10
142.5354266901076699
 20
321.8415063509461334
 30
0.0
 10
152.5354266901078404
 20
339.1620144266349826
 30
0.0
 10
149.9373504787545812
 20
340.6620144266349826
 30
0.0
 10
159.4686752393776317
 20
357.1707531754731804
 30
0.0
 10
162.0667514507306919
 20
355.6707531754731235
 30
0.0
 10
172.0667514507309193
 20
372.9912612511619159
 30
0.0
 10
169.4686752393778022
 20
374.4912612511619727
 30
0.0
 10
179.0000000000002842
 20
391.0000000000001137
 30
0.0
  0
INSERT
  5
11E
100
AcDbEntity
100
AcDbBlockReference
  8
0
 62
256
370
-1
  6
BYLAYER
  2
Nema17Top
 10
200.0
 20
316.0
 30
0.0
  0
LINE
  5
11F
100
AcDbEntity
100
AcDbLine
  8
guides
 62
256
370
-1
  6
BYLAYER
 10
210.9999999999999716
 20
337.0
 30
0.0
 11
265.95076488490065
 21
337.0
 31
0.0
  0
LINE
  5
120
100
AcDbEntity
100
AcDbLine
  8
guides
 62
256
370
-1
  6
BYLAYER
 10
188.9999999999999716
 20
337.0
 30
0.0
 11
140.5839061396982004
 21
337.0
 31
0.0
  0
LINE
  5
121
100
AcDbEntity
100
AcDbLine
  8
guides
 62
256
370
-1
  6
BYLAYER
 10
250.0626495212458167
 20
340.662014426634812
 30
0.0
 11
260.0626495212458167
 21
323.3415063509460197
 31
0.0
  0
LINE
  5
122
100
AcDbEntity
100
AcDbLine
  8
guides
 62
256
370
-1
  6
BYLAYER
 10
149.9373504787545812
 20
340.6620144266349826
 30
0.0
 11
139.9373504787546949
 21
323.3415063509463039
 31
0.0
  0
LINE
  5
123
100
AcDbEntity
100
AcDbLine
  8
guides
 62
256
370
-1
  6
BYLAYER
 10
140.5839061396982004
 20
337.0
 30
0.0
 11
265.95076488490065
 21
337.0
 31
0.0
  0
LINE
  5
124
100
AcDbEntity
100
AcDbLine
  8
guides
 62
256
370
-1
  6
BYLAYER
 10
140.5839061396982004
 20
340.0
 30
0.0
 11
265.95076488490065
 21
340.0
 31
0.0
  0
DIMENSION
  5
125
100
AcDbEntity
  8
dimensions
 62
256
370
-1
  6
BYLAYER
100
AcDbDimension
 10
5.4035577872084382
 20
153.474663947881055
 30
0.0
 11
76.9050591976044871
 21
281.0688972081442785
 31
0.0
 70
1
 71
8
 72
2
 41
1.0
 42
0.0
  1

  3
Standard
100
AcDbAlignedDimension
 13
32.7494019150164632
 23
137.6865334794734963
 33
0.0
 14
179.000000000000199
 24
391.0
 34
0.0
1001
ACAD
1000
DSTYLE
1002
{
1070
144
1040
1
1002
}
  0
LINE
  5
126
100
AcDbEntity
100
AcDbLine
  8
guides
 62
256
370
-1
  6
BYLAYER
 10
179.000000000000199
 20
391.0
 30
0.0
 11
32.7494019150164632
 21
137.6865334794734963
 31
0.0
  0
LINE
  5
127
100
AcDbEntity
100
AcDbLine
  8
guides
 62
256
370
-1
  6
BYLAYER
 10
367.2505980849833804
 20
137.6865334794730416
 30
0.0
 11
221.0
 21
391.0
 31
0.0
  0
LINE
  5
128
100
AcDbEntity
100
AcDbLine
  8
guides
 62
256
370
-1
  6
BYLAYER
 10
200.0
 20
210.0
 30
0.0
 11
108.4727771688618247
 21
262.8432667397366913
 31
0.0
  0
LINE
  5
129
100
AcDbEntity
100
AcDbLine
  8
guides
 62
256
370
-1
  6
BYLAYER
 10
200.0
 20
210.0
 30
0.0
 11
294.1252990424916902
 21
264.3432667397365208
 31
0.0
  0
DIMENSION
  5
12A
100
AcDbEntity
  8
dimensions
 62
256
370
-1
  6
BYLAYER
100
AcDbDimension
 10
294.1252990424916902
 20
225.0238571413725026
 30
0.0
 11
200.0
 21
226.8988571413726163
 31
0.0
 70
1
 71
8
 72
2
 41
1.0
 42
0.0
  1

  3
Standard
100
AcDbAlignedDimension
 13
294.1252990424916902
 23
264.3432667397365208
 33
0.0
 14
105.8747009575083382
 24
264.3432667397367481
 34
0.0
1001
ACAD
1000
DSTYLE
1002
{
1070
144
1040
1
1002
}
  0
DIMENSION
  5
12B
100
AcDbEntity
  8
dimensions
 62
256
370
-1
  6
BYLAYER
100
AcDbDimension
 10
32.749401915016449
 20
70.0000000000004547
 30
0.0
 11
199.9999999999999147
 21
71.8750000000002274
 31
0.0
 70
1
 71
8
 72
2
 41
1.0
 42
0.0
  1

  3
Standard
100
AcDbAlignedDimension
 13
32.7494019150164632
 23
137.6865334794734963
 33
0.0
 14
367.2505980849833804
 24
137.6865334794730416
 34
0.0
1001
ACAD
1000
DSTYLE
1002
{
1070
144
1040
1
1002
}
  0
LINE
  5
12C
100
AcDbEntity
100
AcDbLine
  8
guides
 62
256
370
-1
  6
BYLAYER
 10
250.444863728670839
 20
340.0
 30
0.0
 11
250.444863728670839
 21
337.0
 31
0.0
  0
LINE
  5
12D
100
AcDbEntity
100
AcDbLine
  8
0
 62
256
370
-1
  6
BYLAYER
 10
205.0
 20
337.0
 30
0.0
 11
205.0
 21
340.0
 31
0.0
  0
LINE
  5
12E
100
AcDbEntity
100
AcDbLine
  8
0
 62
256
370
-1
  6
BYLAYER
 10
205.0
 20
340.0
 30
0.0
 11
195.0
 21
340.0
 31
0.0
  0
LINE
  5
12F
100
AcDbEntity
100
AcDbLine
  8
0
 62
256
370
-1
  6
BYLAYER
 10
195.0
 20
340.0
 30
0.0
 11
195.0
 21
337.0
 31
0.0
  0
LINE
  5
130
100
AcDbEntity
100
AcDbLine
  8
0
 62
256
370
-1
  6
BYLAYER
 10
195.0
 20
337.0
 30
0.0
 11
205.0
 21
337.0
 31
0.0
  0
LINE
  5
131
100
AcDbEntity
100
AcDbLine
  8
0
 62
256
370
-1
  6
BYLAYER
 10
222.0
 20
340.0
 30
0.0
 11
222.0
 21
337.0
 31
0.0
  0
LINE
  5
132
100
AcDbEntity
100
AcDbLine
  8
0
 62
256
370
-1
  6
BYLAYER
 10
222.0
 20
337.0
 30
0.0
 11
232.0
 21
337.0
 31
0.0
  0
LINE
  5
133
100
AcDbEntity
100
AcDbLine
  8
0
 62
256
370
-1
  6
BYLAYER
 10
232.0
 20
337.0
 30
0.0
 11
232.0
 21
340.0
 31
0.0
  0
LINE
  5
134
100
AcDbEntity
100
AcDbLine
  8
0
 62
256
370
-1
  6
BYLAYER
 10
232.0
 20
340.0
 30
0.0
 11
221.9999999999999716
 21
340.0
 31
0.0
  0
LINE
  5
135
100
AcDbEntity
100
AcDbLine
  8
0
 62
256
370
-1
  6
BYLAYER
 10
178.0
 20
340.0
 30
0.0
 11
178.0
 21
337.0
 31
0.0
  0
LINE
  5
136
100
AcDbEntity
100
AcDbLine
  8
0
 62
256
370
-1
  6
BYLAYER
 10
178.0
 20
337.0
 30
0.0
 11
168.0
 21
337.0
 31
0.0
  0
LINE
  5
137
100
AcDbEntity
100
AcDbLine
  8
0
 62
256
370
-1
  6
BYLAYER
 10
168.0
 20
337.0
 30
0.0
 11
168.0
 21
340.0
 31
0.0
  0
LINE
  5
138
100
AcDbEntity
100
AcDbLine
  8
0
 62
256
370
-1
  6
BYLAYER
 10
168.0
 20
340.0
 30
0.0
 11
178.0000000000000284
 21
340.0
 31
0.0
  0
LINE
  5
139
100
AcDbEntity
100
AcDbLine
  8
0
 62
256
370
-1
  6
BYLAYER
 10
310.0833024919769514
 20
140.6698729810777309
 30
0.0
 11
315.0833024919770082
 21
149.3301270189221555
 31
0.0
  0
LINE
  5
13A
100
AcDbEntity
100
AcDbLine
  8
0
 62
256
370
-1
  6
BYLAYER
 10
315.0833024919770082
 20
149.3301270189221555
 30
0.0
 11
312.4852262806236922
 21
150.8301270189221555
 31
0.0
  0
LINE
  5
13B
100
AcDbEntity
100
AcDbLine
  8
0
 62
256
370
-1
  6
BYLAYER
 10
312.4852262806236922
 20
150.8301270189221555
 30
0.0
 11
307.4852262806236354
 21
142.1698729810777309
 31
0.0
  0
LINE
  5
13C
100
AcDbEntity
100
AcDbLine
  8
0
 62
256
370
-1
  6
BYLAYER
 10
301.5833024919769514
 20
125.9474411167423114
 30
0.0
 11
298.9852262806236354
 21
127.4474411167422545
 31
0.0
  0
LINE
  5
13D
100
AcDbEntity
100
AcDbLine
  8
0
 62
256
370
-1
  6
BYLAYER
 10
298.9852262806236354
 20
127.4474411167422545
 30
0.0
 11
293.9852262806236354
 21
118.7871870788978725
 31
0.0
  0
LINE
  5
13E
100
AcDbEntity
100
AcDbLine
  8
0
 62
256
370
-1
  6
BYLAYER
 10
293.9852262806236354
 20
118.7871870788978725
 30
0.0
 11
296.5833024919769514
 21
117.2871870788979152
 31
0.0
  0
LINE
  5
13F
100
AcDbEntity
100
AcDbLine
  8
0
 62
256
370
-1
  6
BYLAYER
 10
296.5833024919769514
 20
117.2871870788979152
 30
0.0
 11
301.5833024919769514
 21
125.9474411167423114
 31
0.0
  0
LINE
  5
140
100
AcDbEntity
100
AcDbLine
  8
0
 62
256
370
-1
  6
BYLAYER
 10
323.5833024919770082
 20
164.052558883257575
 30
0.0
 11
320.9852262806236922
 21
165.5525588832576602
 31
0.0
  0
LINE
  5
141
100
AcDbEntity
100
AcDbLine
  8
0
 62
256
370
-1
  6
BYLAYER
 10
320.9852262806236922
 20
165.5525588832576602
 30
0.0
 11
325.9852262806236922
 21
174.2128129211020564
 31
0.0
  0
LINE
  5
142
100
AcDbEntity
100
AcDbLine
  8
0
 62
256
370
-1
  6
BYLAYER
 10
325.9852262806236922
 20
174.2128129211020564
 30
0.0
 11
328.5833024919770082
 21
172.7128129211019996
 31
0.0
  0
LINE
  5
143
100
AcDbEntity
100
AcDbLine
  8
0
 62
256
370
-1
  6
BYLAYER
 10
328.5833024919770082
 20
172.7128129211019996
 30
0.0
 11
323.5833024919770082
 21
164.052558883257575
 31
0.0
  0
INSERT
  5
144
100
AcDbEntity
100
AcDbBlockReference
  8
0
 62
256
370
-1
  6
BYLAYER
  2
Nema17Top
 10
291.7986928011504801
 20
156.9999999999999432
 30
0.0
 50
240.0
  0
LINE
  5
145
100
AcDbEntity
100
AcDbLine
  8
0
 62
256
370
-1
  6
BYLAYER
 10
307.4852262806236354
 20
142.1698729810777309
 30
0.0
 11
310.0833024919769514
 21
140.6698729810777309
 31
0.0
  0
LINE
  5
146
100
AcDbEntity
100
AcDbLine
  8
0
 62
256
370
-1
  6
BYLAYER
 10
84.9166975080229633
 20
149.3301270189222407
 30
0.0
 11
89.9166975080228781
 21
140.6698729810779867
 31
0.0
  0
LINE
  5
147
100
AcDbEntity
100
AcDbLine
  8
0
 62
256
370
-1
  6
BYLAYER
 10
89.9166975080228781
 20
140.6698729810779867
 30
0.0
 11
92.5147737193761799
 21
142.1698729810779582
 31
0.0
  0
LINE
  5
148
100
AcDbEntity
100
AcDbLine
  8
0
 62
256
370
-1
  6
BYLAYER
 10
92.5147737193761799
 20
142.1698729810779582
 30
0.0
 11
87.5147737193762651
 21
150.8301270189222407
 31
0.0
  0
LINE
  5
149
100
AcDbEntity
100
AcDbLine
  8
0
 62
256
370
-1
  6
BYLAYER
 10
76.4166975080229491
 20
164.0525588832577455
 30
0.0
 11
79.0147737193762651
 21
165.5525588832577171
 31
0.0
  0
LINE
  5
14A
100
AcDbEntity
100
AcDbLine
  8
0
 62
256
370
-1
  6
BYLAYER
 10
79.0147737193762651
 20
165.5525588832577171
 30
0.0
 11
74.0147737193762794
 21
174.2128129211021133
 31
0.0
  0
LINE
  5
14B
100
AcDbEntity
100
AcDbLine
  8
0
 62
256
370
-1
  6
BYLAYER
 10
74.0147737193762794
 20
174.2128129211021133
 30
0.0
 11
71.4166975080229065
 21
172.7128129211022838
 31
0.0
  0
LINE
  5
14C
100
AcDbEntity
100
AcDbLine
  8
0
 62
256
370
-1
  6
BYLAYER
 10
71.4166975080229065
 20
172.7128129211022838
 30
0.0
 11
76.4166975080229491
 21
164.0525588832577455
 31
0.0
  0
LINE
  5
14D
100
AcDbEntity
100
AcDbLine
  8
0
 62
256
370
-1
  6
BYLAYER
 10
98.4166975080228923
 20
125.9474411167424677
 30
0.0
 11
101.0147737193761799
 21
127.4474411167424819
 31
0.0
  0
LINE
  5
14E
100
AcDbEntity
100
AcDbLine
  8
0
 62
256
370
-1
  6
BYLAYER
 10
101.0147737193761799
 20
127.4474411167424819
 30
0.0
 11
106.0147737193761799
 21
118.7871870788980999
 31
0.0
  0
LINE
  5
14F
100
AcDbEntity
100
AcDbLine
  8
0
 62
256
370
-1
  6
BYLAYER
 10
106.0147737193761799
 20
118.7871870788980999
 30
0.0
 11
103.4166975080229918
 21
117.287187078897972
 31
0.0
  0
LINE
  5
150
100
AcDbEntity
100
AcDbLine
  8
0
 62
256
370
-1
  6
BYLAYER
 10
103.4166975080229918
 20
117.287187078897972
 30
0.0
 11
98.4166975080228923
 21
125.9474411167424677
 31
0.0
  0
INSERT
  5
151
100
AcDbEntity
100
AcDbBlockReference
  8
0
 62
256
370
-1
  6
BYLAYER
  2
Nema17Top
 10
108.2013071988494488
 20
157.0000000000000853
 30
0.0
 50
119.9999999999999716
  0
LINE
  5
152
100
AcDbEntity
100
AcDbLine
  8
0
 62
256
370
-1
  6
BYLAYER
 10
87.5147737193762651
 20
150.8301270189222407
 30
0.0
 11
84.9166975080229633
 21
149.3301270189222407
 31
0.0
  0
LINE
  5
153
100
AcDbEntity
100
AcDbLine
  8
0
 62
256
370
-1
  6
BYLAYER
 10
50.0
 20
40.0
 30
0.0
 11
69.0626495212458593
 21
39.9999999999999929
 31
0.0
  0
LINE
  5
154
100
AcDbEntity
100
AcDbLine
  8
0
 62
256
370
-1
  6
BYLAYER
 10
69.0626495212458593
 20
39.9999999999999929
 30
0.0
 11
69.0626495212458593
 21
42.9999999999999929
 31
0.0
  0
LINE
  5
155
100
AcDbEntity
100
AcDbLine
  8
0
 62
256
370
-1
  6
BYLAYER
 10
69.0626495212458593
 20
42.9999999999999929
 30
0.0
 11
89.0626495212458593
 21
42.9999999999999858
 31
0.0
  0
LINE
  5
156
100
AcDbEntity
100
AcDbLine
  8
0
 62
256
370
-1
  6
BYLAYER
 10
89.0626495212458593
 20
42.9999999999999858
 30
0.0
 11
89.0626495212458593
 21
39.9999999999999858
 31
0.0
  0
LINE
  5
157
100
AcDbEntity
100
AcDbLine
  8
0
 62
256
370
-1
  6
BYLAYER
 10
89.0626495212458593
 20
39.9999999999999858
 30
0.0
 11
108.1252990424917186
 21
39.9999999999999787
 31
0.0
  0
LINE
  5
158
100
AcDbEntity
100
AcDbLine
  8
0
 62
256
370
-1
  6
BYLAYER
 10
108.1252990424917186
 20
39.9999999999999787
 30
0.0
 11
108.1252990424917186
 21
42.9999999999999787
 31
0.0
  0
LINE
  5
159
100
AcDbEntity
100
AcDbLine
  8
0
 62
256
370
-1
  6
BYLAYER
 10
108.1252990424917186
 20
42.9999999999999787
 30
0.0
 11
128.1252990424916902
 21
42.9999999999999716
 31
0.0
  0
LINE
  5
15A
100
AcDbEntity
100
AcDbLine
  8
0
 62
256
370
-1
  6
BYLAYER
 10
128.1252990424916902
 20
42.9999999999999716
 30
0.0
 11
128.1252990424916902
 21
39.9999999999999716
 31
0.0
  0
LINE
  5
15B
100
AcDbEntity
100
AcDbLine
  8
0
 62
256
370
-1
  6
BYLAYER
 10
128.1252990424916902
 20
39.9999999999999716
 30
0.0
 11
147.1879485637375637
 21
39.9999999999999645
 31
0.0
  0
LINE
  5
15C
100
AcDbEntity
100
AcDbLine
  8
0
 62
256
370
-1
  6
BYLAYER
 10
147.1879485637375637
 20
39.9999999999999645
 30
0.0
 11
147.1879485637375637
 21
42.9999999999999645
 31
0.0
  0
LINE
  5
15D
100
AcDbEntity
100
AcDbLine
  8
0
 62
256
370
-1
  6
BYLAYER
 10
147.1879485637375637
 20
42.9999999999999645
 30
0.0
 11
167.1879485637375637
 21
42.9999999999999574
 31
0.0
  0
LINE
  5
15E
100
AcDbEntity
100
AcDbLine
  8
0
 62
256
370
-1
  6
BYLAYER
 10
167.1879485637375637
 20
42.9999999999999574
 30
0.0
 11
167.1879485637375637
 21
39.9999999999999574
 31
0.0
  0
LINE
  5
15F
100
AcDbEntity
100
AcDbLine
  8
0
 62
256
370
-1
  6
BYLAYER
 10
167.1879485637375637
 20
39.9999999999999574
 30
0.0
 11
186.2505980849834373
 21
39.9999999999999503
 31
0.0
  0
LINE
  5
160
100
AcDbEntity
100
AcDbLine
  8
0
 62
256
370
-1
  6
BYLAYER
 10
186.2505980849834373
 20
39.9999999999999503
 30
0.0
 11
186.2505980849834373
 21
42.9999999999999503
 31
0.0
  0
LINE
  5
161
100
AcDbEntity
100
AcDbLine
  8
0
 62
256
370
-1
  6
BYLAYER
 10
186.2505980849834373
 20
42.9999999999999503
 30
0.0
 11
206.2505980849834373
 21
42.9999999999999432
 31
0.0
  0
LINE
  5
162
100
AcDbEntity
100
AcDbLine
  8
0
 62
256
370
-1
  6
BYLAYER
 10
206.2505980849834373
 20
42.9999999999999432
 30
0.0
 11
206.2505980849834373
 21
39.9999999999999432
 31
0.0
  0
LINE
  5
163
100
AcDbEntity
100
AcDbLine
  8
0
 62
256
370
-1
  6
BYLAYER
 10
206.2505980849834373
 20
39.9999999999999432
 30
0.0
 11
225.3132476062293108
 21
39.9999999999999361
 31
0.0
  0
LINE
  5
164
100
AcDbEntity
100
AcDbLine
  8
0
 62
256
370
-1
  6
BYLAYER
 10
225.3132476062293108
 20
39.9999999999999361
 30
0.0
 11
225.3132476062293108
 21
42.9999999999999361
 31
0.0
  0
LINE
  5
165
100
AcDbEntity
100
AcDbLine
  8
0
 62
256
370
-1
  6
BYLAYER
 10
225.3132476062293108
 20
42.9999999999999361
 30
0.0
 11
245.3132476062293108
 21
42.9999999999999289
 31
0.0
  0
LINE
  5
166
100
AcDbEntity
100
AcDbLine
  8
0
 62
256
370
-1
  6
BYLAYER
 10
245.3132476062293108
 20
42.9999999999999289
 30
0.0
 11
245.3132476062293108
 21
39.9999999999999289
 31
0.0
  0
LINE
  5
167
100
AcDbEntity
100
AcDbLine
  8
0
 62
256
370
-1
  6
BYLAYER
 10
245.3132476062293108
 20
39.9999999999999289
 30
0.0
 11
264.3758971274751843
 21
39.9999999999999218
 31
0.0
  0
LINE
  5
168
100
AcDbEntity
100
AcDbLine
  8
0
 62
256
370
-1
  6
BYLAYER
 10
264.3758971274751843
 20
39.9999999999999218
 30
0.0
 11
264.3758971274751843
 21
42.9999999999999218
 31
0.0
  0
LINE
  5
169
100
AcDbEntity
100
AcDbLine
  8
0
 62
256
370
-1
  6
BYLAYER
 10
264.3758971274751843
 20
42.9999999999999218
 30
0.0
 11
284.3758971274751843
 21
42.9999999999999147
 31
0.0
  0
LINE
  5
16A
100
AcDbEntity
100
AcDbLine
  8
0
 62
256
370
-1
  6
BYLAYER
 10
284.3758971274751843
 20
42.9999999999999147
 30
0.0
 11
284.3758971274751843
 21
39.9999999999999147
 31
0.0
  0
LINE
  5
16B
100
AcDbEntity
100
AcDbLine
  8
0
 62
256
370
-1
  6
BYLAYER
 10
284.3758971274751843
 20
39.9999999999999147
 30
0.0
 11
303.4385466487210579
 21
39.9999999999999076
 31
0.0
  0
LINE
  5
16C
100
AcDbEntity
100
AcDbLine
  8
0
 62
256
370
-1
  6
BYLAYER
 10
303.4385466487210579
 20
39.9999999999999076
 30
0.0
 11
303.4385466487210579
 21
42.9999999999999076
 31
0.0
  0
LINE
  5
16D
100
AcDbEntity
100
AcDbLine
  8
0
 62
256
370
-1
  6
BYLAYER
 10
303.4385466487210579
 20
42.9999999999999076
 30
0.0
 11
323.4385466487210579
 21
42.9999999999999005
 31
0.0
  0
LINE
  5
16E
100
AcDbEntity
100
AcDbLine
  8
0
 62
256
370
-1
  6
BYLAYER
 10
323.4385466487210579
 20
42.9999999999999005
 30
0.0
 11
323.4385466487210579
 21
39.9999999999999005
 31
0.0
  0
LINE
  5
16F
100
AcDbEntity
100
AcDbLine
  8
0
 62
256
370
-1
  6
BYLAYER
 10
323.4385466487210579
 20
39.9999999999999005
 30
0.0
 11
342.5011961699669314
 21
39.9999999999998934
 31
0.0
  0
LINE
  5
170
100
AcDbEntity
100
AcDbLine
  8
0
 62
256
370
-1
  6
BYLAYER
 10
50.0
 20
-17.0
 30
0.0
 11
110.0
 21
-17.0
 31
0.0
  0
LINE
  5
171
100
AcDbEntity
100
AcDbLine
  8
0
 62
256
370
-1
  6
BYLAYER
 10
342.5011961699669314
 20
-17.0000000000001066
 30
0.0
 11
282.5011961699669314
 21
-17.0000000000001066
 31
0.0
  0
ARC
  5
172
100
AcDbEntity
  8
0
 62
256
370
-1
  6
BYLAYER
100
AcDbCircle
 10
196.2505980849905143
 20
-506.1514488505519012
 30
0.0
 40
496.6973984053194613
100
AcDbArc
 50
80.0000000000014211
 51
100.0000000000001847
  0
DIMENSION
  5
173
100
AcDbEntity
  8
dimensions
 62
256
370
-1
  6
BYLAYER
100
AcDbDimension
 10
260.9992772832109722
 20
346.0935935068524145
 30
0.0
 11
247.9006430509713823
 21
372.5310935068523577
 31
0.0
 70
1
 71
8
 72
2
 41
1.0
 42
0.0
  1

  3
Standard
100
AcDbAlignedDimension
 13
250.444863728670839
 23
340.0000000000000568
 33
0.0
 14
221.0
 24
391.0
 34
0.0
1001
ACAD
1000
DSTYLE
1002
{
1070
144
1040
1
1002
}
  0
DIMENSION
  5
174
100
AcDbEntity
  8
dimensions
 62
256
370
-1
  6
BYLAYER
100
AcDbDimension
 10
263.8769525881156142
 20
347.7550201187796688
 30
0.0
 11
269.975856583335883
 21
340.9414085285733904
 31
0.0
 70
1
 71
8
 72
2
 41
1.0
 42
0.0
  1

  3
Standard
100
AcDbAlignedDimension
 13
250.444863728670839
 23
340.0000000000000568
 33
0.0
 14
252.1769145362397637
 24
337.0000000000000568
 34
0.0
1001
ACAD
1000
DSTYLE
1002
{
1070
144
1040
1
1002
}
  0
LINE
  5
175
100
AcDbEntity
100
AcDbLine
  8
guides
 62
256
370
-1
  6
BYLAYER
 10
342.5011961699669314
 20
39.9999999999998863
 30
0.0
 11
342.5011961699669314
 21
42.9999999999998863
 31
0.0
  0
LINE
  5
176
100
AcDbEntity
100
AcDbLine
  8
guides
 62
256
370
-1
  6
BYLAYER
 10
342.5011961699669314
 20
42.9999999999998863
 30
0.0
 11
50.0
 21
43.0
 31
0.0
  0
LINE
  5
177
100
AcDbEntity
100
AcDbLine
  8
guides
 62
256
370
-1
  6
BYLAYER
 10
50.0
 20
-17.0
 30
0.0
 11
342.5011961699668745
 21
-17.0000000000001066
 31
0.0
  0
LINE
  5
178
100
AcDbEntity
100
AcDbLine
  8
guides
 62
256
370
-1
  6
BYLAYER
 10
50.0
 20
43.0
 30
0.0
 11
108.8897000000000048
 21
43.0
 31
0.0
  0
LINE
  5
179
100
AcDbEntity
100
AcDbLine
  8
guides
 62
256
370
-1
  6
BYLAYER
 10
108.8897000000000048
 20
43.0
 30
0.0
 11
108.8897000000000048
 21
-17.0
 31
0.0
  0
LINE
  5
17A
100
AcDbEntity
100
AcDbLine
  8
guides
 62
256
370
-1
  6
BYLAYER
 10
196.2505980849834373
 20
-17.0000000000000533
 30
0.0
 11
196.2505980849834373
 21
42.9999999999999432
 31
0.0
  0
LINE
  5
17B
100
AcDbEntity
100
AcDbLine
  8
guides
 62
256
370
-1
  6
BYLAYER
 10
108.8897000000000048
 20
-17.0
 30
0.0
 11
108.8897000000000048
 21
3.0
 31
0.0
  0
LINE
  5
17C
100
AcDbEntity
100
AcDbLine
  8
guides
 62
256
370
-1
  6
BYLAYER
 10
108.889700000000019
 20
42.9999999999999858
 30
0.0
 11
108.889700000000019
 21
22.9999999999999858
 31
0.0
  0
LINE
  5
17D
100
AcDbEntity
100
AcDbLine
  8
0
 62
256
370
-1
  6
BYLAYER
 10
108.889700000000019
 20
22.9999999999999858
 30
0.0
 11
108.8897000000000048
 21
3.0
 31
0.0
  0
LINE
  5
17E
100
AcDbEntity
100
AcDbLine
  8
0
 62
256
370
-1
  6
BYLAYER
 10
108.8897000000000048
 20
3.0
 30
0.0
 11
112.3496999999999986
 21
3.0
 31
0.0
  0
LINE
  5
17F
100
AcDbEntity
100
AcDbLine
  8
0
 62
256
370
-1
  6
BYLAYER
 10
112.3496999999999986
 20
3.0
 30
0.0
 11
112.3496999999999986
 21
23.0
 31
0.0
  0
LINE
  5
180
100
AcDbEntity
100
AcDbLine
  8
0
 62
256
370
-1
  6
BYLAYER
 10
112.3496999999999986
 20
23.0
 30
0.0
 11
108.889700000000019
 21
22.9999999999999858
 31
0.0
  0
LINE
  5
181
100
AcDbEntity
100
AcDbLine
  8
guides
 62
256
370
-1
  6
BYLAYER
 10
230.0
 20
388.0
 30
0.0
 11
170.0
 21
388.0
 31
0.0
  0
DIMENSION
  5
182
100
AcDbEntity
  8
dimensions
 62
256
370
-1
  6
BYLAYER
100
AcDbDimension
 10
168.0358983848622643
 20
393.3301270189221555
 30
0.0
 11
170.8872071158907318
 21
402.0187386091284907
 31
0.0
 70
1
 71
8
 72
2
 41
1.0
 42
0.0
  1

  3
Standard
100
AcDbAlignedDimension
 13
177.2679491924313879
 23
388.0
 33
0.0
 14
179.000000000000199
 24
391.0
 34
0.0
1001
ACAD
1000
DSTYLE
1002
{
1070
144
1040
1
1002
}
  0
LINE
  5
183
100
AcDbEntity
100
AcDbLine
  8
0
 62
256
370
-1
  6
BYLAYER
 10
50.0
 20
3.0
 30
0.0
 11
53.4600000000000009
 21
3.0
 31
0.0
  0
LINE
  5
184
100
AcDbEntity
100
AcDbLine
  8
0
 62
256
370
-1
  6
BYLAYER
 10
53.4600000000000009
 20
3.0
 30
0.0
 11
53.4600000000000009
 21
23.0
 31
0.0
  0
LINE
  5
185
100
AcDbEntity
100
AcDbLine
  8
0
 62
256
370
-1
  6
BYLAYER
 10
53.4600000000000009
 20
23.0
 30
0.0
 11
50.0
 21
23.0
 31
0.0
  0
LINE
  5
186
100
AcDbEntity
100
AcDbLine
  8
0
 62
256
370
-1
  6
BYLAYER
 10
283.6114961699669266
 20
22.9999999999999787
 30
0.0
 11
283.6114961699669266
 21
2.9999999999999929
 31
0.0
  0
LINE
  5
187
100
AcDbEntity
100
AcDbLine
  8
0
 62
256
370
-1
  6
BYLAYER
 10
283.6114961699669266
 20
2.9999999999999929
 30
0.0
 11
280.1514961699668902
 21
2.9999999999999289
 31
0.0
  0
LINE
  5
188
100
AcDbEntity
100
AcDbLine
  8
0
 62
256
370
-1
  6
BYLAYER
 10
280.1514961699668902
 20
2.9999999999999289
 30
0.0
 11
280.151496169966947
 21
23.0000000000000533
 31
0.0
  0
LINE
  5
189
100
AcDbEntity
100
AcDbLine
  8
0
 62
256
370
-1
  6
BYLAYER
 10
280.151496169966947
 20
23.0000000000000533
 30
0.0
 11
283.6114961699669266
 21
22.9999999999999787
 31
0.0
  0
LINE
  5
18A
100
AcDbEntity
100
AcDbLine
  8
0
 62
256
370
-1
  6
BYLAYER
 10
339.0411961699669519
 20
23.0000000000000497
 30
0.0
 11
342.5011961699669314
 21
22.9999999999999822
 31
0.0
  0
LINE
  5
18B
100
AcDbEntity
100
AcDbLine
  8
0
 62
256
370
-1
  6
BYLAYER
 10
342.5011961699668745
 20
2.9999999999999005
 30
0.0
 11
339.0411961699669519
 21
3.0
 31
0.0
  0
LINE
  5
18C
100
AcDbEntity
100
AcDbLine
  8
0
 62
256
370
-1
  6
BYLAYER
 10
339.0411961699669519
 20
3.0
 30
0.0
 11
339.0411961699669519
 21
23.0000000000000497
 31
0.0
  0
LINE
  5
18D
100
AcDbEntity
100
AcDbLine
  8
0
 62
256
370
-1
  6
BYLAYER
 10
50.0
 20
40.0
 30
0.0
 11
50.0
 21
22.9999999999999929
 31
0.0
  0
LINE
  5
18E
100
AcDbEntity
100
AcDbLine
  8
0
 62
256
370
-1
  6
BYLAYER
 10
50.0
 20
3.0
 30
0.0
 11
50.0
 21
-17.0
 31
0.0
  0
LINE
  5
18F
100
AcDbEntity
100
AcDbLine
  8
0
 62
256
370
-1
  6
BYLAYER
 10
342.5011961699669314
 20
-17.0000000000001066
 30
0.0
 11
342.5011961699669314
 21
2.9999999999999005
 31
0.0
  0
LINE
  5
190
100
AcDbEntity
100
AcDbLine
  8
0
 62
256
370
-1
  6
BYLAYER
 10
342.5011961699669314
 20
22.9999999999999787
 30
0.0
 11
342.5011961699669314
 21
39.9999999999998934
 31
0.0
  0
ARC
  5
191
100
AcDbEntity
  8
parts
 62
256
370
-1
  6
BYLAYER
100
AcDbCircle
 10
200.0
 20
210.0
 30
0.0
 40
125.0
100
AcDbArc
 50
120.3996912557688006
 51
99.7413086344633513
  0
LINE
  5
192
100
AcDbEntity
100
AcDbLine
  8
guides
 62
256
370
-1
  6
BYLAYER
 10
149.5551362713292178
 20
340.0
 30
0.0
 11
149.5551362713292178
 21
337.0
 31
0.0
  0
LINE
  5
193
100
AcDbEntity
100
AcDbLine
  8
guides
 62
256
370
-1
  6
BYLAYER
 10
151.2871870788982847
 20
337.0
 30
0.0
 11
151.2871870788982847
 21
340.0
 31
0.0
  0
LINE
  5
194
100
AcDbEntity
100
AcDbLine
  8
guides
 62
256
370
-1
  6
BYLAYER
 10
248.7128129211019711
 20
337.0000000000000568
 30
0.0
 11
248.7128129211019711
 21
340.0
 31
0.0
  0
LINE
  5
195
100
AcDbEntity
100
AcDbLine
  8
guides
 62
256
370
-1
  6
BYLAYER
 10
432.5839061396982288
 20
397.0000000000000568
 30
0.0
 11
557.9507648849007637
 21
397.0000000000000568
 31
0.0
  0
LINE
  5
196
100
AcDbEntity
100
AcDbLine
  8
guides
 62
256
370
-1
  6
BYLAYER
 10
430.583906139698172
 20
402.0
 30
0.0
 11
555.9507648849007637
 21
402.0
 31
0.0
  0
LINE
  5
197
100
AcDbEntity
100
AcDbLine
  8
guides
 62
256
370
-1
  6
BYLAYER
 10
443.2679491924311037
 20
400.0
 30
0.0
 11
443.2679491924311037
 21
397.0
 31
0.0
  0
LINE
  5
198
100
AcDbEntity
100
AcDbLine
  8
guides
 62
256
370
-1
  6
BYLAYER
 10
542.4448637286709527
 20
400.0000000000000568
 30
0.0
 11
542.4448637286709527
 21
397.0000000000000568
 31
0.0
  0
LINE
  5
199
100
AcDbEntity
100
AcDbLine
  8
0
 62
256
370
-1
  6
BYLAYER
 10
470.0
 20
406.0
 30
0.0
 11
470.0000000000000568
 21
397.0000000000000568
 31
0.0
  0
LINE
  5
19A
100
AcDbEntity
100
AcDbLine
  8
0
 62
256
370
-1
  6
BYLAYER
 10
460.0000000000000568
 20
397.0000000000000568
 30
0.0
 11
460.0
 21
406.0
 31
0.0
  0
LINE
  5
19B
100
AcDbEntity
100
AcDbLine
  8
0
 62
256
370
-1
  6
BYLAYER
 10
460.0
 20
406.0
 30
0.0
 11
470.0
 21
406.0
 31
0.0
  0
LINE
  5
19C
100
AcDbEntity
100
AcDbLine
  8
guides
 62
256
370
-1
  6
BYLAYER
 10
445.0000000000001705
 20
397.0
 30
0.0
 11
445.0000000000001705
 21
400.0
 31
0.0
  0
LINE
  5
19D
100
AcDbEntity
100
AcDbLine
  8
guides
 62
256
370
-1
  6
BYLAYER
 10
540.7128129211018859
 20
397.0000000000001137
 30
0.0
 11
540.7128129211018859
 21
400.0000000000000568
 31
0.0
  0
INSERT
  5
19E
100
AcDbEntity
100
AcDbBlockReference
  8
0
 62
256
370
-1
  6
BYLAYER
  2
Nema17Top
 10
546.0616491801386019
 20
452.8613488934428233
 30
0.0
  0
LINE
  5
19F
100
AcDbEntity
100
AcDbLine
  8
guides
 62
256
370
-1
  6
BYLAYER
 10
503.0
 20
397.0000000000000568
 30
0.0
 11
557.9507648849007637
 21
397.0000000000000568
 31
0.0
  0
LINE
  5
1A0
100
AcDbEntity
100
AcDbLine
  8
guides
 62
256
370
-1
  6
BYLAYER
 10
481.0
 20
397.0000000000000568
 30
0.0
 11
432.5839061396982288
 21
397.0000000000000568
 31
0.0
  0
LINE
  5
1A1
100
AcDbEntity
100
AcDbLine
  8
0
 62
256
370
-1
  6
BYLAYER
 10
524.0
 20
397.0
 30
0.0
 11
539.0000000000001137
 21
396.9999999999999432
 31
0.0
  0
LINE
  5
1A2
100
AcDbEntity
100
AcDbLine
  8
0
 62
256
370
-1
  6
BYLAYER
 10
514.0
 20
397.0
 30
0.0
 11
496.9999999999999432
 21
397.0000000000000568
 31
0.0
  0
LINE
  5
1A3
100
AcDbEntity
100
AcDbLine
  8
0
 62
256
370
-1
  6
BYLAYER
 10
487.0000000000000568
 20
397.0000000000000568
 30
0.0
 11
470.0000000000000568
 21
397.0
 31
0.0
  0
LINE
  5
1A4
100
AcDbEntity
100
AcDbLine
  8
0
 62
256
370
-1
  6
BYLAYER
 10
460.0000000000000568
 20
397.0
 30
0.0
 11
445.0000000000001705
 21
397.0
 31
0.0
  0
DIMENSION
  5
1A5
100
AcDbEntity
  8
dimensions
 62
256
370
-1
  6
BYLAYER
100
AcDbDimension
 10
365.7952992693281544
 20
42.999999999999865
 30
0.0
 11
363.9202992693280976
 21
12.9999999999998703
 31
0.0
 70
1
 71
8
 72
2
 41
1.0
 42
0.0
  1

  3
Standard
100
AcDbAlignedDimension
 13
342.5011961699669882
 23
42.9999999999998934
 33
0.0
 14
342.5011961699669314
 24
-17.000000000000103
 34
0.0
1001
ACAD
1000
DSTYLE
1002
{
1070
144
1040
1
1002
}
  0
DIMENSION
  5
1A6
100
AcDbEntity
  8
dimensions
 62
256
370
-1
  6
BYLAYER
100
AcDbDimension
 10
355.0857477196475429
 20
39.9999999999998934
 30
0.0
 11
353.2107477196475429
 21
11.4999999999998934
 31
0.0
 70
1
 71
8
 72
2
 41
1.0
 42
0.0
  1

  3
Standard
100
AcDbAlignedDimension
 13
342.5011961699669314
 23
39.9999999999998934
 33
0.0
 14
342.5011961699669314
 24
-17.000000000000103
 34
0.0
1001
ACAD
1000
DSTYLE
1002
{
1070
144
1040
1
1002
}
  0
LINE
  5
1A7
100
AcDbEntity
100
AcDbLine
  8
0
 62
256
370
-1
  6
BYLAYER
 10
539.0000000000004547
 20
340.0
 30
0.0
 11
445.0000000000001705
 21
340.0000000000001137
 31
0.0
  0
LINE
  5
1A8
100
AcDbEntity
100
AcDbLine
  8
guides
 62
256
370
-1
  6
BYLAYER
 10
443.2679491924310469
 20
396.9999999999999432
 30
0.0
 11
443.2679491924310469
 21
339.9999999999999432
 31
0.0
  0
LINE
  5
1A9
100
AcDbEntity
100
AcDbLine
  8
0
 62
256
370
-1
  6
BYLAYER
 10
445.0000000000002274
 20
359.9999999999999432
 30
0.0
 11
443.2679491924310469
 21
359.9999999999999432
 31
0.0
  0
LINE
  5
1AA
100
AcDbEntity
100
AcDbLine
  8
0
 62
256
370
-1
  6
BYLAYER
 10
443.2679491924310469
 20
359.9999999999999432
 30
0.0
 11
443.2679491924310469
 21
379.9999999999999432
 31
0.0
  0
LINE
  5
1AB
100
AcDbEntity
100
AcDbLine
  8
0
 62
256
370
-1
  6
BYLAYER
 10
443.2679491924310469
 20
379.9999999999999432
 30
0.0
 11
445.0000000000001705
 21
379.9999999999999432
 31
0.0
  0
LINE
  5
1AC
100
AcDbEntity
100
AcDbLine
  8
0
 62
256
370
-1
  6
BYLAYER
 10
445.0000000000001705
 20
397.0
 30
0.0
 11
445.0000000000001705
 21
380.0
 31
0.0
  0
LINE
  5
1AD
100
AcDbEntity
100
AcDbLine
  8
0
 62
256
370
-1
  6
BYLAYER
 10
445.0000000000001705
 20
359.9999999999998863
 30
0.0
 11
445.0000000000001705
 21
340.0
 31
0.0
  0
LINE
  5
1AE
100
AcDbEntity
100
AcDbLine
  8
guides
 62
256
370
-1
  6
BYLAYER
 10
542.4448637286709527
 20
397.0
 30
0.0
 11
542.4448637286709527
 21
340.0
 31
0.0
  0
INSERT
  5
1AF
100
AcDbEntity
100
AcDbBlockReference
  8
parts
 62
256
370
-1
  6
BYLAYER
  2
nema 17
 10
492.0000000000001705
 20
369.9999999999998863
 30
0.0
  0
LINE
  5
1B0
100
AcDbEntity
100
AcDbLine
  8
guides
 62
256
370
-1
  6
BYLAYER
 10
492.0000000000000568
 20
400.0000000000000568
 30
0.0
 11
492.0000000000001705
 21
340.0
 31
0.0
  0
LINE
  5
1B1
100
AcDbEntity
100
AcDbLine
  8
guides
 62
256
370
-1
  6
BYLAYER
 10
443.2679491924310469
 20
369.9999999999999432
 30
0.0
 11
544.1576766497728386
 21
369.9999999999999432
 31
0.0
  0
CIRCLE
  5
1B2
100
AcDbEntity
100
AcDbCircle
  8
0
 62
256
370
-1
  6
BYLAYER
 10
492.0000000000001137
 20
369.9999999999999432
 30
0.0
 40
11.0000000000001705
  0
CIRCLE
  5
1B3
100
AcDbEntity
100
AcDbCircle
  8
0
 62
256
370
-1
  6
BYLAYER
 10
507.5000000000002842
 20
385.4999999999999432
 30
0.0
 40
1.5
  0
CIRCLE
  5
1B4
100
AcDbEntity
100
AcDbCircle
  8
0
 62
256
370
-1
  6
BYLAYER
 10
476.5000000000002842
 20
385.4999999999999432
 30
0.0
 40
1.5
  0
CIRCLE
  5
1B5
100
AcDbEntity
100
AcDbCircle
  8
0
 62
256
370
-1
  6
BYLAYER
 10
476.5000000000002842
 20
354.4999999999999432
 30
0.0
 40
1.5
  0
CIRCLE
  5
1B6
100
AcDbEntity
100
AcDbCircle
  8
0
 62
256
370
-1
  6
BYLAYER
 10
507.5000000000002842
 20
354.4999999999999432
 30
0.0
 40
1.5
  0
LINE
  5
1B7
100
AcDbEntity
100
AcDbLine
  8
0
 62
256
370
-1
  6
BYLAYER
 10
735.0
 20
360.0
 30
0.0
 11
740.0
 21
360.0
 31
0.0
  0
LINE
  5
1B8
100
AcDbEntity
100
AcDbLine
  8
0
 62
256
370
-1
  6
BYLAYER
 10
740.0
 20
360.0
 30
0.0
 11
740.0
 21
365.0
 31
0.0
  0
LINE
  5
1B9
100
AcDbEntity
100
AcDbLine
  8
0
 62
256
370
-1
  6
BYLAYER
 10
740.0
 20
375.0
 30
0.0
 11
740.0
 21
380.0
 31
0.0
  0
LINE
  5
1BA
100
AcDbEntity
100
AcDbLine
  8
0
 62
256
370
-1
  6
BYLAYER
 10
740.0
 20
380.0
 30
0.0
 11
735.0
 21
380.0
 31
0.0
  0
LINE
  5
1BB
100
AcDbEntity
100
AcDbLine
  8
0
 62
256
370
-1
  6
BYLAYER
 10
725.0
 20
380.0
 30
0.0
 11
720.0
 21
380.0
 31
0.0
  0
LINE
  5
1BC
100
AcDbEntity
100
AcDbLine
  8
0
 62
256
370
-1
  6
BYLAYER
 10
720.0
 20
380.0
 30
0.0
 11
720.0
 21
375.0
 31
0.0
  0
LINE
  5
1BD
100
AcDbEntity
100
AcDbLine
  8
0
 62
256
370
-1
  6
BYLAYER
 10
720.0
 20
365.0
 30
0.0
 11
720.0
 21
360.0
 31
0.0
  0
LINE
  5
1BE
100
AcDbEntity
100
AcDbLine
  8
0
 62
256
370
-1
  6
BYLAYER
 10
720.0
 20
360.0
 30
0.0
 11
725.0
 21
360.0
 31
0.0
  0
LINE
  5
1BF
100
AcDbEntity
100
AcDbLine
  8
0
 62
256
370
-1
  6
BYLAYER
 10
717.0
 20
365.0
 30
0.0
 11
717.0
 21
375.0
 31
0.0
  0
LINE
  5
1C0
100
AcDbEntity
100
AcDbLine
  8
0
 62
256
370
-1
  6
BYLAYER
 10
725.0
 20
383.0
 30
0.0
 11
735.0
 21
383.0
 31
0.0
  0
LINE
  5
1C1
100
AcDbEntity
100
AcDbLine
  8
0
 62
256
370
-1
  6
BYLAYER
 10
743.0
 20
375.0
 30
0.0
 11
743.0
 21
365.0
 31
0.0
  0
LINE
  5
1C2
100
AcDbEntity
100
AcDbLine
  8
guides
 62
256
370
-1
  6
BYLAYER
 10
714.0000000000002274
 20
383.0000000000001137
 30
0.0
 11
746.0000000000002274
 21
383.0
 31
0.0
  0
LINE
  5
1C3
100
AcDbEntity
100
AcDbLine
  8
guides
 62
256
370
-1
  6
BYLAYER
 10
720.0
 20
360.0
 30
0.0
 11
720.0
 21
360.0
 31
0.0
  0
LINE
  5
1C4
100
AcDbEntity
100
AcDbLine
  8
guides
 62
256
370
-1
  6
BYLAYER
 10
720.0
 20
360.0
 30
0.0
 11
720.0
 21
360.0
 31
0.0
  0
LINE
  5
1C5
100
AcDbEntity
100
AcDbLine
  8
guides
 62
256
370
-1
  6
BYLAYER
 10
720.0
 20
360.0
 30
0.0
 11
720.0
 21
360.0
 31
0.0
  0
LINE
  5
1C6
100
AcDbEntity
100
AcDbLine
  8
guides
 62
256
370
-1
  6
BYLAYER
 10
720.0
 20
360.0
 30
0.0
 11
720.0
 21
360.0
 31
0.0
  0
LINE
  5
1C7
100
AcDbEntity
100
AcDbLine
  8
guides
 62
256
370
-1
  6
BYLAYER
 10
720.0
 20
360.0
 30
0.0
 11
720.0
 21
360.0
 31
0.0
  0
LINE
  5
1C8
100
AcDbEntity
100
AcDbLine
  8
guides
 62
256
370
-1
  6
BYLAYER
 10
720.0
 20
360.0
 30
0.0
 11
720.0
 21
360.0
 31
0.0
  0
LINE
  5
1C9
100
AcDbEntity
100
AcDbLine
  8
guides
 62
256
370
-1
  6
BYLAYER
 10
720.0
 20
360.0
 30
0.0
 11
740.0
 21
360.0
 31
0.0
  0
LINE
  5
1CA
100
AcDbEntity
100
AcDbLine
  8
guides
 62
256
370
-1
  6
BYLAYER
 10
740.0
 20
360.0
 30
0.0
 11
740.0
 21
380.0
 31
0.0
  0
LINE
  5
1CB
100
AcDbEntity
100
AcDbLine
  8
guides
 62
256
370
-1
  6
BYLAYER
 10
740.0
 20
380.0
 30
0.0
 11
720.0
 21
380.0
 31
0.0
  0
LINE
  5
1CC
100
AcDbEntity
100
AcDbLine
  8
guides
 62
256
370
-1
  6
BYLAYER
 10
720.0
 20
380.0
 30
0.0
 11
720.0
 21
360.0
 31
0.0
  0
LINE
  5
1CD
100
AcDbEntity
100
AcDbLine
  8
0
 62
256
370
-1
  6
BYLAYER
 10
740.0
 20
365.0
 30
0.0
 11
740.0
 21
365.0
 31
0.0
  0
LINE
  5
1CE
100
AcDbEntity
100
AcDbLine
  8
0
 62
256
370
-1
  6
BYLAYER
 10
740.0
 20
365.0
 30
0.0
 11
740.0
 21
365.0
 31
0.0
  0
LINE
  5
1CF
100
AcDbEntity
100
AcDbLine
  8
0
 62
256
370
-1
  6
BYLAYER
 10
740.0
 20
365.0
 30
0.0
 11
740.0
 21
365.0
 31
0.0
  0
LINE
  5
1D0
100
AcDbEntity
100
AcDbLine
  8
0
 62
256
370
-1
  6
BYLAYER
 10
740.0
 20
365.0
 30
0.0
 11
740.0
 21
365.0
 31
0.0
  0
LINE
  5
1D1
100
AcDbEntity
100
AcDbLine
  8
0
 62
256
370
-1
  6
BYLAYER
 10
743.0
 20
365.0
 30
0.0
 11
740.0
 21
365.0
 31
0.0
  0
LINE
  5
1D2
100
AcDbEntity
100
AcDbLine
  8
0
 62
256
370
-1
  6
BYLAYER
 10
740.0
 20
375.0
 30
0.0
 11
743.0
 21
375.0
 31
0.0
  0
LINE
  5
1D3
100
AcDbEntity
100
AcDbLine
  8
0
 62
256
370
-1
  6
BYLAYER
 10
725.0
 20
380.0
 30
0.0
 11
725.0
 21
383.0
 31
0.0
  0
LINE
  5
1D4
100
AcDbEntity
100
AcDbLine
  8
0
 62
256
370
-1
  6
BYLAYER
 10
735.0
 20
383.0
 30
0.0
 11
735.0
 21
380.0
 31
0.0
  0
LINE
  5
1D5
100
AcDbEntity
100
AcDbLine
  8
0
 62
256
370
-1
  6
BYLAYER
 10
720.0
 20
365.0
 30
0.0
 11
717.0
 21
365.0
 31
0.0
  0
LINE
  5
1D6
100
AcDbEntity
100
AcDbLine
  8
0
 62
256
370
-1
  6
BYLAYER
 10
717.0
 20
375.0
 30
0.0
 11
720.0
 21
375.0
 31
0.0
  0
LINE
  5
1D7
100
AcDbEntity
100
AcDbLine
  8
guides
 62
256
370
-1
  6
BYLAYER
 10
717.0
 20
383.0
 30
0.0
 11
743.0
 21
383.0
 31
0.0
  0
LINE
  5
1D8
100
AcDbEntity
100
AcDbLine
  8
guides
 62
256
370
-1
  6
BYLAYER
 10
743.0
 20
383.0
 30
0.0
 11
743.0
 21
357.0
 31
0.0
  0
LINE
  5
1D9
100
AcDbEntity
100
AcDbLine
  8
guides
 62
256
370
-1
  6
BYLAYER
 10
743.0
 20
357.0
 30
0.0
 11
717.0
 21
357.0
 31
0.0
  0
LINE
  5
1DA
100
AcDbEntity
100
AcDbLine
  8
guides
 62
256
370
-1
  6
BYLAYER
 10
717.0
 20
357.0
 30
0.0
 11
717.0
 21
383.0
 31
0.0
  0
LINE
  5
1DB
100
AcDbEntity
100
AcDbLine
  8
guides
 62
256
370
-1
  6
BYLAYER
 10
714.0
 20
383.0
 30
0.0
 11
746.0
 21
383.0
 31
0.0
  0
LINE
  5
1DC
100
AcDbEntity
100
AcDbLine
  8
guides
 62
256
370
-1
  6
BYLAYER
 10
720.0
 20
360.0
 30
0.0
 11
720.0
 21
360.0
 31
0.0
  0
LINE
  5
1DD
100
AcDbEntity
100
AcDbLine
  8
guides
 62
256
370
-1
  6
BYLAYER
 10
720.0
 20
360.0
 30
0.0
 11
720.0
 21
360.0
 31
0.0
  0
LINE
  5
1DE
100
AcDbEntity
100
AcDbLine
  8
guides
 62
256
370
-1
  6
BYLAYER
 10
743.0
 20
357.0
 30
0.0
 11
717.0
 21
383.0
 31
0.0
  0
LINE
  5
1DF
100
AcDbEntity
100
AcDbLine
  8
guides
 62
256
370
-1
  6
BYLAYER
 10
743.0
 20
383.0
 30
0.0
 11
717.0
 21
357.0
 31
0.0
  0
LINE
  5
1E0
100
AcDbEntity
100
AcDbLine
  8
0
 62
256
370
-1
  6
BYLAYER
 10
726.9999999999998863
 20
370.0
 30
0.0
 11
726.9999999999998863
 21
360.0
 31
0.0
  0
LINE
  5
1E1
100
AcDbEntity
100
AcDbLine
  8
0
 62
256
370
-1
  6
BYLAYER
 10
732.9999999999998863
 20
370.0
 30
0.0
 11
732.9999999999998863
 21
360.0
 31
0.0
  0
ARC
  5
1E2
100
AcDbEntity
  8
0
 62
256
370
-1
  6
BYLAYER
100
AcDbCircle
 10
729.9999999999998863
 20
370.0
 30
0.0
 40
3.0
100
AcDbArc
 50
0.0
 51
180.0
  0
LINE
  5
1E3
100
AcDbEntity
100
AcDbLine
  8
0
 62
256
370
-1
  6
BYLAYER
 10
735.0
 20
360.0
 30
0.0
 11
732.9999999999998863
 21
360.0
 31
0.0
  0
LINE
  5
1E4
100
AcDbEntity
100
AcDbLine
  8
0
 62
256
370
-1
  6
BYLAYER
 10
726.9999999999998863
 20
360.0
 30
0.0
 11
725.0
 21
360.0
 31
0.0
  0
DIMENSION
  5
1E5
100
AcDbEntity
  8
dimensions
 62
256
370
-1
  6
BYLAYER
100
AcDbDimension
 10
221.0
 20
417.0
 30
0.0
 11
200.0000000000001137
 21
418.875
 31
0.0
 70
1
 71
8
 72
2
 41
1.0
 42
0.0
  1

  3
Standard
100
AcDbAlignedDimension
 13
221.0
 23
391.0
 33
0.0
 14
179.000000000000199
 24
391.0
 34
0.0
1001
ACAD
1000
DSTYLE
1002
{
1070
144
1040
1
1002
}
  0
LINE
  5
1E6
100
AcDbEntity
100
AcDbLine
  8
guides
 62
256
370
-1
  6
BYLAYER
 10
600.0
 20
403.0
 30
0.0
 11
600.0
 21
335.0
 31
0.0
  0
DIMENSION
  5
1E7
100
AcDbEntity
  8
dimensions
 62
256
370
-1
  6
BYLAYER
100
AcDbDimension
 10
195.0
 20
397.6728421124748252
 30
0.0
 11
200.0
 21
399.5478421124748252
 31
0.0
 70
1
 71
8
 72
2
 41
1.0
 42
0.0
  1

  3
Standard
100
AcDbAlignedDimension
 13
195.0
 23
391.0
 33
0.0
 14
205.0
 24
391.0
 34
0.0
1001
ACAD
1000
DSTYLE
1002
{
1070
144
1040
1
1002
}
  0
LINE
  5
1E8
100
AcDbEntity
100
AcDbLine
  8
0
 62
256
370
-1
  6
BYLAYER
 10
595.0
 20
400.0
 30
0.0
 11
595.0
 21
397.0
 31
0.0
  0
LINE
  5
1E9
100
AcDbEntity
100
AcDbLine
  8
0
 62
256
370
-1
  6
BYLAYER
 10
595.0
 20
397.0
 30
0.0
 11
580.7999999999999545
 21
397.0
 31
0.0
  0
LINE
  5
1EA
100
AcDbEntity
100
AcDbLine
  8
0
 62
256
370
-1
  6
BYLAYER
 10
595.0
 20
340.0
 30
0.0
 11
595.0
 21
343.0
 31
0.0
  0
LINE
  5
1EB
100
AcDbEntity
100
AcDbLine
  8
0
 62
256
370
-1
  6
BYLAYER
 10
595.0
 20
343.0
 30
0.0
 11
600.0
 21
343.0
 31
0.0
  0
LINE
  5
1EC
100
AcDbEntity
100
AcDbLine
  8
0
 62
256
370
-1
  6
BYLAYER
 10
595.0
 20
340.0
 30
0.0
 11
580.7999999999999545
 21
340.0
 31
0.0
  0
LINE
  5
1ED
100
AcDbEntity
100
AcDbLine
  8
0
 62
256
370
-1
  6
BYLAYER
 10
580.7999999999999545
 20
340.0
 30
0.0
 11
580.7999999999999545
 21
360.0
 31
0.0
  0
LINE
  5
1EE
100
AcDbEntity
100
AcDbLine
  8
0
 62
256
370
-1
  6
BYLAYER
 10
580.7999999999999545
 20
380.0
 30
0.0
 11
580.7999999999999545
 21
397.0
 31
0.0
  0
LINE
  5
1EF
100
AcDbEntity
100
AcDbLine
  8
guides
 62
256
370
-1
  6
BYLAYER
 10
181.5980762113536287
 20
389.4999999999996589
 30
0.0
 11
35.3474781263698929
 21
136.1865334794731552
 31
0.0
  0
LINE
  5
1F0
100
AcDbEntity
100
AcDbLine
  8
guides
 62
256
370
-1
  6
BYLAYER
 10
191.5980762113537992
 20
406.820508075688565
 30
0.0
 11
45.3474781263700635
 21
153.5070415551620613
 31
0.0
  0
LINE
  5
1F1
100
AcDbEntity
100
AcDbLine
  8
guides
 62
256
370
-1
  6
BYLAYER
 10
179.000000000000199
 20
391.0
 30
0.0
 11
181.5980762113536287
 21
389.4999999999996589
 31
0.0
  0
LINE
  5
1F2
100
AcDbEntity
100
AcDbLine
  8
guides
 62
256
370
-1
  6
BYLAYER
 10
179.000000000000199
 20
391.0
 30
0.0
 11
179.000000000000199
 21
388.0
 31
0.0
  0
LINE
  5
1F3
100
AcDbEntity
100
AcDbLine
  8
guides
 62
256
370
-1
  6
BYLAYER
 10
181.5980762113536287
 20
389.4999999999996589
 30
0.0
 11
181.5980762113536287
 21
388.0
 31
0.0
  0
DIMENSION
  5
1F4
100
AcDbEntity
  8
dimensions
 62
256
370
-1
  6
BYLAYER
100
AcDbDimension
 10
179.0000000000001705
 20
380.5615319868142592
 30
0.0
 11
186.8064095446869715
 21
382.4365319868142592
 31
0.0
 70
1
 71
8
 72
2
 41
1.0
 42
0.0
  1

  3
Standard
100
AcDbAlignedDimension
 13
179.0000000000001705
 23
388.0
 33
0.0
 14
181.5980762113536287
 24
388.0
 34
0.0
1001
ACAD
1000
DSTYLE
1002
{
1070
144
1040
1
1002
}
  0
LINE
  5
1F5
100
AcDbEntity
100
AcDbLine
  8
0
 62
256
370
-1
  6
BYLAYER
 10
579.0
 20
360.0
 30
0.0
 11
579.0
 21
379.9999999999999432
 31
0.0
  0
DIMENSION
  5
1F6
100
AcDbEntity
  8
dimensions
 62
256
370
-1
  6
BYLAYER
100
AcDbDimension
 10
180.7320508075694647
 20
410.0
 30
0.0
 11
190.3660254037847324
 21
411.875
 31
0.0
 70
1
 71
8
 72
2
 41
1.0
 42
0.0
  1

  3
Standard
100
AcDbAlignedDimension
 13
180.7320508075694647
 23
388.0
 33
0.0
 14
200.0
 24
388.0
 34
0.0
1001
ACAD
1000
DSTYLE
1002
{
1070
144
1040
1
1002
}
  0
LINE
  5
1F7
100
AcDbEntity
100
AcDbLine
  8
0
 62
256
370
-1
  6
BYLAYER
 10
580.7999999999999545
 20
380.0
 30
0.0
 11
579.0
 21
379.9999999999999432
 31
0.0
  0
LINE
  5
1F8
100
AcDbEntity
100
AcDbLine
  8
0
 62
256
370
-1
  6
BYLAYER
 10
580.7999999999999545
 20
360.0
 30
0.0
 11
579.0
 21
360.0
 31
0.0
  0
LINE
  5
1F9
100
AcDbEntity
100
AcDbLine
  8
guides
 62
256
370
-1
  6
BYLAYER
 10
570.0
 20
370.0
 30
0.0
 11
730.0
 21
370.0
 31
0.0
  0
LINE
  5
1FA
100
AcDbEntity
100
AcDbLine
  8
0
 62
256
370
-1
  6
BYLAYER
 10
590.0
 20
380.0
 30
0.0
 11
590.0
 21
390.0
 31
0.0
  0
LINE
  5
1FB
100
AcDbEntity
100
AcDbLine
  8
0
 62
256
370
-1
  6
BYLAYER
 10
590.0
 20
390.0
 30
0.0
 11
587.0
 21
390.0
 31
0.0
  0
LINE
  5
1FC
100
AcDbEntity
100
AcDbLine
  8
0
 62
256
370
-1
  6
BYLAYER
 10
587.0
 20
390.0
 30
0.0
 11
587.0
 21
380.0
 31
0.0
  0
LINE
  5
1FD
100
AcDbEntity
100
AcDbLine
  8
0
 62
256
370
-1
  6
BYLAYER
 10
587.0
 20
380.0
 30
0.0
 11
590.0
 21
380.0
 31
0.0
  0
LINE
  5
1FE
100
AcDbEntity
100
AcDbLine
  8
0
 62
256
370
-1
  6
BYLAYER
 10
590.0
 20
360.0
 30
0.0
 11
590.0
 21
350.0
 31
0.0
  0
LINE
  5
1FF
100
AcDbEntity
100
AcDbLine
  8
0
 62
256
370
-1
  6
BYLAYER
 10
590.0
 20
350.0
 30
0.0
 11
587.0
 21
350.0
 31
0.0
  0
LINE
  5
200
100
AcDbEntity
100
AcDbLine
  8
0
 62
256
370
-1
  6
BYLAYER
 10
587.0
 20
350.0
 30
0.0
 11
587.0
 21
360.0
 31
0.0
  0
LINE
  5
201
100
AcDbEntity
100
AcDbLine
  8
0
 62
256
370
-1
  6
BYLAYER
 10
587.0
 20
360.0
 30
0.0
 11
590.0
 21
360.0
 31
0.0
  0
LINE
  5
202
100
AcDbEntity
100
AcDbLine
  8
guides
 62
256
370
-1
  6
BYLAYER
 10
474.4115427318802176
 20
385.4999999999998295
 30
0.0
 11
600.0
 21
385.4999999999998295
 31
0.0
  0
CIRCLE
  5
203
100
AcDbEntity
100
AcDbCircle
  8
0
 62
256
370
-1
  6
BYLAYER
 10
584.5
 20
385.4999999999998295
 30
0.0
 40
1.5
  0
CIRCLE
  5
204
100
AcDbEntity
100
AcDbCircle
  8
0
 62
256
370
-1
  6
BYLAYER
 10
584.5
 20
354.5000000000001705
 30
0.0
 40
1.5
  0
LINE
  5
205
100
AcDbEntity
100
AcDbLine
  8
0
 62
256
370
-1
  6
BYLAYER
 10
595.0
 20
400.0
 30
0.0
 11
600.0
 21
400.0
 31
0.0
  0
LINE
  5
206
100
AcDbEntity
100
AcDbLine
  8
0
 62
256
370
-1
  6
BYLAYER
 10
621.0
 20
360.0
 30
0.0
 11
621.0
 21
379.9999999999999432
 31
0.0
  0
LINE
  5
207
100
AcDbEntity
100
AcDbLine
  8
0
 62
256
370
-1
  6
BYLAYER
 10
610.0
 20
380.0
 30
0.0
 11
610.0
 21
390.0
 31
0.0
  0
LINE
  5
208
100
AcDbEntity
100
AcDbLine
  8
0
 62
256
370
-1
  6
BYLAYER
 10
619.2000000000000455
 20
380.0
 30
0.0
 11
621.0
 21
379.9999999999999432
 31
0.0
  0
LINE
  5
209
100
AcDbEntity
100
AcDbLine
  8
0
 62
256
370
-1
  6
BYLAYER
 10
610.0
 20
390.0
 30
0.0
 11
613.0
 21
390.0
 31
0.0
  0
LINE
  5
20A
100
AcDbEntity
100
AcDbLine
  8
0
 62
256
370
-1
  6
BYLAYER
 10
619.2000000000000455
 20
360.0
 30
0.0
 11
621.0
 21
360.0
 31
0.0
  0
LINE
  5
20B
100
AcDbEntity
100
AcDbLine
  8
0
 62
256
370
-1
  6
BYLAYER
 10
613.0
 20
390.0
 30
0.0
 11
613.0
 21
380.0
 31
0.0
  0
LINE
  5
20C
100
AcDbEntity
100
AcDbLine
  8
0
 62
256
370
-1
  6
BYLAYER
 10
613.0
 20
380.0
 30
0.0
 11
610.0
 21
380.0
 31
0.0
  0
LINE
  5
20D
100
AcDbEntity
100
AcDbLine
  8
0
 62
256
370
-1
  6
BYLAYER
 10
610.0
 20
360.0
 30
0.0
 11
610.0
 21
350.0
 31
0.0
  0
LINE
  5
20E
100
AcDbEntity
100
AcDbLine
  8
0
 62
256
370
-1
  6
BYLAYER
 10
610.0
 20
350.0
 30
0.0
 11
613.0
 21
350.0
 31
0.0
  0
LINE
  5
20F
100
AcDbEntity
100
AcDbLine
  8
0
 62
256
370
-1
  6
BYLAYER
 10
613.0
 20
350.0
 30
0.0
 11
613.0
 21
360.0
 31
0.0
  0
LINE
  5
210
100
AcDbEntity
100
AcDbLine
  8
0
 62
256
370
-1
  6
BYLAYER
 10
613.0
 20
360.0
 30
0.0
 11
610.0
 21
360.0
 31
0.0
  0
CIRCLE
  5
211
100
AcDbEntity
100
AcDbCircle
  8
0
 62
256
370
-1
  6
BYLAYER
 10
615.5
 20
385.4999999999998295
 30
0.0
 40
1.5
  0
CIRCLE
  5
212
100
AcDbEntity
100
AcDbCircle
  8
0
 62
256
370
-1
  6
BYLAYER
 10
615.5
 20
354.5000000000001705
 30
0.0
 40
1.5
  0
LINE
  5
213
100
AcDbEntity
100
AcDbLine
  8
0
 62
256
370
-1
  6
BYLAYER
 10
605.0
 20
400.0
 30
0.0
 11
600.0
 21
400.0
 31
0.0
  0
LINE
  5
214
100
AcDbEntity
100
AcDbLine
  8
0
 62
256
370
-1
  6
BYLAYER
 10
605.0
 20
400.0
 30
0.0
 11
605.0
 21
397.0
 31
0.0
  0
LINE
  5
215
100
AcDbEntity
100
AcDbLine
  8
0
 62
256
370
-1
  6
BYLAYER
 10
605.0
 20
397.0
 30
0.0
 11
619.2000000000000455
 21
397.0
 31
0.0
  0
LINE
  5
216
100
AcDbEntity
100
AcDbLine
  8
0
 62
256
370
-1
  6
BYLAYER
 10
605.0
 20
340.0
 30
0.0
 11
605.0
 21
343.0
 31
0.0
  0
LINE
  5
217
100
AcDbEntity
100
AcDbLine
  8
0
 62
256
370
-1
  6
BYLAYER
 10
605.0
 20
343.0
 30
0.0
 11
600.0
 21
343.0
 31
0.0
  0
LINE
  5
218
100
AcDbEntity
100
AcDbLine
  8
0
 62
256
370
-1
  6
BYLAYER
 10
605.0
 20
340.0
 30
0.0
 11
619.2000000000000455
 21
340.0
 31
0.0
  0
LINE
  5
219
100
AcDbEntity
100
AcDbLine
  8
0
 62
256
370
-1
  6
BYLAYER
 10
619.2000000000000455
 20
340.0
 30
0.0
 11
619.2000000000000455
 21
360.0
 31
0.0
  0
LINE
  5
21A
100
AcDbEntity
100
AcDbLine
  8
0
 62
256
370
-1
  6
BYLAYER
 10
619.2000000000000455
 20
380.0
 30
0.0
 11
619.2000000000000455
 21
397.0
 31
0.0
  0
LINE
  5
21B
100
AcDbEntity
100
AcDbLine
  8
guides
 62
256
370
-1
  6
BYLAYER
 10
640.0
 20
410.0
 30
0.0
 11
640.0
 21
330.0
 31
0.0
  0
LINE
  5
21C
100
AcDbEntity
100
AcDbLine
  8
0
 62
256
370
-1
  6
BYLAYER
 10
630.0
 20
397.0
 30
0.0
 11
635.0
 21
397.0
 31
0.0
  0
LINE
  5
21D
100
AcDbEntity
100
AcDbLine
  8
0
 62
256
370
-1
  6
BYLAYER
 10
635.0
 20
397.0
 30
0.0
 11
635.0
 21
400.0
 31
0.0
  0
LINE
  5
21E
100
AcDbEntity
100
AcDbLine
  8
0
 62
256
370
-1
  6
BYLAYER
 10
635.0
 20
340.0
 30
0.0
 11
635.0
 21
343.0
 31
0.0
  0
LINE
  5
21F
100
AcDbEntity
100
AcDbLine
  8
0
 62
256
370
-1
  6
BYLAYER
 10
635.0
 20
343.0
 30
0.0
 11
640.0
 21
343.0
 31
0.0
  0
LINE
  5
220
100
AcDbEntity
100
AcDbLine
  8
0
 62
256
370
-1
  6
BYLAYER
 10
630.0
 20
350.0
 30
0.0
 11
627.0
 21
350.0
 31
0.0
  0
LINE
  5
221
100
AcDbEntity
100
AcDbLine
  8
0
 62
256
370
-1
  6
BYLAYER
 10
627.0
 20
350.0
 30
0.0
 11
627.0
 21
360.0
 31
0.0
  0
LINE
  5
222
100
AcDbEntity
100
AcDbLine
  8
0
 62
256
370
-1
  6
BYLAYER
 10
627.0
 20
360.0
 30
0.0
 11
630.0
 21
360.0
 31
0.0
  0
LINE
  5
223
100
AcDbEntity
100
AcDbLine
  8
0
 62
256
370
-1
  6
BYLAYER
 10
630.0
 20
380.0
 30
0.0
 11
627.0
 21
380.0
 31
0.0
  0
LINE
  5
224
100
AcDbEntity
100
AcDbLine
  8
0
 62
256
370
-1
  6
BYLAYER
 10
627.0
 20
380.0
 30
0.0
 11
627.0
 21
390.0
 31
0.0
  0
LINE
  5
225
100
AcDbEntity
100
AcDbLine
  8
0
 62
256
370
-1
  6
BYLAYER
 10
627.0
 20
390.0
 30
0.0
 11
630.0
 21
390.0
 31
0.0
  0
LINE
  5
226
100
AcDbEntity
100
AcDbLine
  8
0
 62
256
370
-1
  6
BYLAYER
 10
630.0
 20
390.0
 30
0.0
 11
630.0
 21
397.0
 31
0.0
  0
LINE
  5
227
100
AcDbEntity
100
AcDbLine
  8
0
 62
256
370
-1
  6
BYLAYER
 10
630.0
 20
340.0
 30
0.0
 11
630.0
 21
350.0
 31
0.0
  0
LINE
  5
228
100
AcDbEntity
100
AcDbLine
  8
0
 62
256
370
-1
  6
BYLAYER
 10
630.0
 20
360.0
 30
0.0
 11
630.0
 21
380.0
 31
0.0
  0
LINE
  5
229
100
AcDbEntity
100
AcDbLine
  8
0
 62
256
370
-1
  6
BYLAYER
 10
635.0
 20
340.0
 30
0.0
 11
630.0
 21
340.0
 31
0.0
  0
LINE
  5
22A
100
AcDbEntity
100
AcDbLine
  8
0
 62
256
370
-1
  6
BYLAYER
 10
635.0
 20
400.0
 30
0.0
 11
640.0
 21
400.0
 31
0.0
  0
LINE
  5
22B
100
AcDbEntity
100
AcDbLine
  8
0
 62
256
370
-1
  6
BYLAYER
 10
653.0
 20
390.0
 30
0.0
 11
650.0
 21
390.0
 31
0.0
  0
LINE
  5
22C
100
AcDbEntity
100
AcDbLine
  8
0
 62
256
370
-1
  6
BYLAYER
 10
650.0
 20
390.0
 30
0.0
 11
650.0
 21
397.0
 31
0.0
  0
LINE
  5
22D
100
AcDbEntity
100
AcDbLine
  8
0
 62
256
370
-1
  6
BYLAYER
 10
650.0
 20
340.0
 30
0.0
 11
650.0
 21
350.0
 31
0.0
  0
LINE
  5
22E
100
AcDbEntity
100
AcDbLine
  8
0
 62
256
370
-1
  6
BYLAYER
 10
650.0
 20
360.0
 30
0.0
 11
650.0
 21
380.0
 31
0.0
  0
LINE
  5
22F
100
AcDbEntity
100
AcDbLine
  8
0
 62
256
370
-1
  6
BYLAYER
 10
650.0
 20
397.0
 30
0.0
 11
645.0
 21
397.0
 31
0.0
  0
LINE
  5
230
100
AcDbEntity
100
AcDbLine
  8
0
 62
256
370
-1
  6
BYLAYER
 10
645.0
 20
340.0
 30
0.0
 11
650.0
 21
340.0
 31
0.0
  0
LINE
  5
231
100
AcDbEntity
100
AcDbLine
  8
0
 62
256
370
-1
  6
BYLAYER
 10
645.0
 20
397.0
 30
0.0
 11
645.0
 21
400.0
 31
0.0
  0
LINE
  5
232
100
AcDbEntity
100
AcDbLine
  8
0
 62
256
370
-1
  6
BYLAYER
 10
645.0
 20
400.0
 30
0.0
 11
640.0
 21
400.0
 31
0.0
  0
LINE
  5
233
100
AcDbEntity
100
AcDbLine
  8
0
 62
256
370
-1
  6
BYLAYER
 10
645.0
 20
340.0
 30
0.0
 11
645.0
 21
343.0
 31
0.0
  0
LINE
  5
234
100
AcDbEntity
100
AcDbLine
  8
0
 62
256
370
-1
  6
BYLAYER
 10
645.0
 20
343.0
 30
0.0
 11
640.0
 21
343.0
 31
0.0
  0
LINE
  5
235
100
AcDbEntity
100
AcDbLine
  8
0
 62
256
370
-1
  6
BYLAYER
 10
650.0
 20
350.0
 30
0.0
 11
653.0
 21
350.0
 31
0.0
  0
LINE
  5
236
100
AcDbEntity
100
AcDbLine
  8
0
 62
256
370
-1
  6
BYLAYER
 10
653.0
 20
350.0
 30
0.0
 11
653.0
 21
360.0
 31
0.0
  0
LINE
  5
237
100
AcDbEntity
100
AcDbLine
  8
0
 62
256
370
-1
  6
BYLAYER
 10
653.0
 20
360.0
 30
0.0
 11
650.0
 21
360.0
 31
0.0
  0
LINE
  5
238
100
AcDbEntity
100
AcDbLine
  8
0
 62
256
370
-1
  6
BYLAYER
 10
650.0
 20
380.0
 30
0.0
 11
653.0
 21
380.0
 31
0.0
  0
LINE
  5
239
100
AcDbEntity
100
AcDbLine
  8
0
 62
256
370
-1
  6
BYLAYER
 10
653.0
 20
380.0
 30
0.0
 11
653.0
 21
390.0
 31
0.0
  0
CIRCLE
  5
23A
100
AcDbEntity
100
AcDbCircle
  8
0
 62
256
370
-1
  6
BYLAYER
 10
600.0
 20
370.0
 30
0.0
 40
2.0
  0
CIRCLE
  5
23B
100
AcDbEntity
100
AcDbCircle
  8
0
 62
256
370
-1
  6
BYLAYER
 10
640.0
 20
370.0
 30
0.0
 40
2.0
  0
LINE
  5
23C
100
AcDbEntity
100
AcDbLine
  8
0
 62
256
370
-1
  6
BYLAYER
 10
675.0
 20
340.0
 30
0.0
 11
675.0
 21
343.0
 31
0.0
  0
LINE
  5
23D
100
AcDbEntity
100
AcDbLine
  8
0
 62
256
370
-1
  6
BYLAYER
 10
675.0
 20
343.0
 30
0.0
 11
670.0
 21
343.0
 31
0.0
  0
LINE
  5
23E
100
AcDbEntity
100
AcDbLine
  8
0
 62
256
370
-1
  6
BYLAYER
 10
680.0
 20
350.0
 30
0.0
 11
683.0
 21
350.0
 31
0.0
  0
LINE
  5
23F
100
AcDbEntity
100
AcDbLine
  8
0
 62
256
370
-1
  6
BYLAYER
 10
683.0
 20
350.0
 30
0.0
 11
683.0
 21
360.0
 31
0.0
  0
LINE
  5
240
100
AcDbEntity
100
AcDbLine
  8
0
 62
256
370
-1
  6
BYLAYER
 10
683.0
 20
360.0
 30
0.0
 11
680.0
 21
360.0
 31
0.0
  0
LINE
  5
241
100
AcDbEntity
100
AcDbLine
  8
guides
 62
256
370
-1
  6
BYLAYER
 10
670.0
 20
410.0
 30
0.0
 11
670.0
 21
330.0
 31
0.0
  0
LINE
  5
242
100
AcDbEntity
100
AcDbLine
  8
0
 62
256
370
-1
  6
BYLAYER
 10
680.0
 20
380.0
 30
0.0
 11
683.0
 21
380.0
 31
0.0
  0
LINE
  5
243
100
AcDbEntity
100
AcDbLine
  8
0
 62
256
370
-1
  6
BYLAYER
 10
683.0
 20
380.0
 30
0.0
 11
683.0
 21
390.0
 31
0.0
  0
CIRCLE
  5
244
100
AcDbEntity
100
AcDbCircle
  8
0
 62
256
370
-1
  6
BYLAYER
 10
670.0
 20
370.0
 30
0.0
 40
2.0
  0
LINE
  5
245
100
AcDbEntity
100
AcDbLine
  8
0
 62
256
370
-1
  6
BYLAYER
 10
660.0
 20
397.0
 30
0.0
 11
665.0
 21
397.0
 31
0.0
  0
LINE
  5
246
100
AcDbEntity
100
AcDbLine
  8
0
 62
256
370
-1
  6
BYLAYER
 10
665.0
 20
397.0
 30
0.0
 11
665.0
 21
400.0
 31
0.0
  0
LINE
  5
247
100
AcDbEntity
100
AcDbLine
  8
0
 62
256
370
-1
  6
BYLAYER
 10
665.0
 20
340.0
 30
0.0
 11
665.0
 21
343.0
 31
0.0
  0
LINE
  5
248
100
AcDbEntity
100
AcDbLine
  8
0
 62
256
370
-1
  6
BYLAYER
 10
665.0
 20
343.0
 30
0.0
 11
670.0
 21
343.0
 31
0.0
  0
LINE
  5
249
100
AcDbEntity
100
AcDbLine
  8
0
 62
256
370
-1
  6
BYLAYER
 10
660.0
 20
350.0
 30
0.0
 11
657.0
 21
350.0
 31
0.0
  0
LINE
  5
24A
100
AcDbEntity
100
AcDbLine
  8
0
 62
256
370
-1
  6
BYLAYER
 10
657.0
 20
350.0
 30
0.0
 11
657.0
 21
360.0
 31
0.0
  0
LINE
  5
24B
100
AcDbEntity
100
AcDbLine
  8
0
 62
256
370
-1
  6
BYLAYER
 10
657.0
 20
360.0
 30
0.0
 11
660.0
 21
360.0
 31
0.0
  0
LINE
  5
24C
100
AcDbEntity
100
AcDbLine
  8
0
 62
256
370
-1
  6
BYLAYER
 10
660.0
 20
380.0
 30
0.0
 11
657.0
 21
380.0
 31
0.0
  0
LINE
  5
24D
100
AcDbEntity
100
AcDbLine
  8
0
 62
256
370
-1
  6
BYLAYER
 10
657.0
 20
380.0
 30
0.0
 11
657.0
 21
390.0
 31
0.0
  0
LINE
  5
24E
100
AcDbEntity
100
AcDbLine
  8
0
 62
256
370
-1
  6
BYLAYER
 10
657.0
 20
390.0
 30
0.0
 11
660.0
 21
390.0
 31
0.0
  0
LINE
  5
24F
100
AcDbEntity
100
AcDbLine
  8
0
 62
256
370
-1
  6
BYLAYER
 10
660.0
 20
390.0
 30
0.0
 11
660.0
 21
397.0
 31
0.0
  0
LINE
  5
250
100
AcDbEntity
100
AcDbLine
  8
0
 62
256
370
-1
  6
BYLAYER
 10
660.0
 20
340.0
 30
0.0
 11
660.0
 21
350.0
 31
0.0
  0
LINE
  5
251
100
AcDbEntity
100
AcDbLine
  8
0
 62
256
370
-1
  6
BYLAYER
 10
660.0
 20
360.0
 30
0.0
 11
660.0
 21
380.0
 31
0.0
  0
LINE
  5
252
100
AcDbEntity
100
AcDbLine
  8
0
 62
256
370
-1
  6
BYLAYER
 10
665.0
 20
340.0
 30
0.0
 11
660.0
 21
340.0
 31
0.0
  0
LINE
  5
253
100
AcDbEntity
100
AcDbLine
  8
0
 62
256
370
-1
  6
BYLAYER
 10
665.0
 20
400.0
 30
0.0
 11
670.0
 21
400.0
 31
0.0
  0
LINE
  5
254
100
AcDbEntity
100
AcDbLine
  8
0
 62
256
370
-1
  6
BYLAYER
 10
683.0
 20
390.0
 30
0.0
 11
680.0
 21
390.0
 31
0.0
  0
LINE
  5
255
100
AcDbEntity
100
AcDbLine
  8
0
 62
256
370
-1
  6
BYLAYER
 10
680.0
 20
390.0
 30
0.0
 11
680.0
 21
397.0
 31
0.0
  0
LINE
  5
256
100
AcDbEntity
100
AcDbLine
  8
0
 62
256
370
-1
  6
BYLAYER
 10
680.0
 20
340.0
 30
0.0
 11
680.0
 21
350.0
 31
0.0
  0
LINE
  5
257
100
AcDbEntity
100
AcDbLine
  8
0
 62
256
370
-1
  6
BYLAYER
 10
680.0
 20
360.0
 30
0.0
 11
680.0
 21
380.0
 31
0.0
  0
LINE
  5
258
100
AcDbEntity
100
AcDbLine
  8
0
 62
256
370
-1
  6
BYLAYER
 10
680.0
 20
397.0
 30
0.0
 11
675.0
 21
397.0
 31
0.0
  0
LINE
  5
259
100
AcDbEntity
100
AcDbLine
  8
0
 62
256
370
-1
  6
BYLAYER
 10
675.0
 20
340.0
 30
0.0
 11
680.0
 21
340.0
 31
0.0
  0
LINE
  5
25A
100
AcDbEntity
100
AcDbLine
  8
0
 62
256
370
-1
  6
BYLAYER
 10
675.0
 20
397.0
 30
0.0
 11
675.0
 21
400.0
 31
0.0
  0
LINE
  5
25B
100
AcDbEntity
100
AcDbLine
  8
0
 62
256
370
-1
  6
BYLAYER
 10
675.0
 20
400.0
 30
0.0
 11
670.0
 21
400.0
 31
0.0
  0
LINE
  5
25C
100
AcDbEntity
100
AcDbLine
  8
0
 62
256
370
-1
  6
BYLAYER
 10
191.0
 20
362.0
 30
0.0
 11
209.0
 21
362.0
 31
0.0
  0
LINE
  5
25D
100
AcDbEntity
100
AcDbLine
  8
0
 62
256
370
-1
  6
BYLAYER
 10
210.0
 20
361.0
 30
0.0
 11
210.0
 21
344.0
 31
0.0
  0
LINE
  5
25E
100
AcDbEntity
100
AcDbLine
  8
0
 62
256
370
-1
  6
BYLAYER
 10
209.0
 20
343.0
 30
0.0
 11
191.0
 21
343.0
 31
0.0
  0
LINE
  5
25F
100
AcDbEntity
100
AcDbLine
  8
0
 62
256
370
-1
  6
BYLAYER
 10
190.0
 20
344.0
 30
0.0
 11
190.0
 21
361.0
 31
0.0
  0
ARC
  5
260
100
AcDbEntity
  8
0
 62
256
370
-1
  6
BYLAYER
100
AcDbCircle
 10
191.0
 20
361.0
 30
0.0
 40
1.0
100
AcDbArc
 50
90.0
 51
180.0
  0
ARC
  5
261
100
AcDbEntity
  8
0
 62
256
370
-1
  6
BYLAYER
100
AcDbCircle
 10
209.0
 20
361.0
 30
0.0
 40
1.0
100
AcDbArc
 50
0.0
 51
90.0
  0
ARC
  5
262
100
AcDbEntity
  8
0
 62
256
370
-1
  6
BYLAYER
100
AcDbCircle
 10
209.0
 20
344.0
 30
0.0
 40
1.0
100
AcDbArc
 50
270.0
 51
0.0
  0
ARC
  5
263
100
AcDbEntity
  8
0
 62
256
370
-1
  6
BYLAYER
100
AcDbCircle
 10
191.0
 20
344.0
 30
0.0
 40
1.0
100
AcDbArc
 50
180.0
 51
270.0
  0
LINE
  5
264
100
AcDbEntity
100
AcDbLine
  8
0
 62
256
370
-1
  6
BYLAYER
 10
713.0
 20
380.0
 30
0.0
 11
710.0
 21
380.0
 31
0.0
  0
LINE
  5
265
100
AcDbEntity
100
AcDbLine
  8
0
 62
256
370
-1
  6
BYLAYER
 10
710.0
 20
360.0
 30
0.0
 11
710.0
 21
350.0
 31
0.0
  0
LINE
  5
266
100
AcDbEntity
100
AcDbLine
  8
0
 62
256
370
-1
  6
BYLAYER
 10
710.0
 20
350.0
 30
0.0
 11
713.0
 21
350.0
 31
0.0
  0
LINE
  5
267
100
AcDbEntity
100
AcDbLine
  8
0
 62
256
370
-1
  6
BYLAYER
 10
713.0
 20
360.0
 30
0.0
 11
710.0
 21
360.0
 31
0.0
  0
LINE
  5
268
100
AcDbEntity
100
AcDbLine
  8
0
 62
256
370
-1
  6
BYLAYER
 10
705.0
 20
400.0
 30
0.0
 11
700.0
 21
400.0
 31
0.0
  0
LINE
  5
269
100
AcDbEntity
100
AcDbLine
  8
0
 62
256
370
-1
  6
BYLAYER
 10
705.0
 20
400.0
 30
0.0
 11
705.0
 21
397.0
 31
0.0
  0
LINE
  5
26A
100
AcDbEntity
100
AcDbLine
  8
0
 62
256
370
-1
  6
BYLAYER
 10
705.0
 20
340.0
 30
0.0
 11
705.0
 21
343.0
 31
0.0
  0
LINE
  5
26B
100
AcDbEntity
100
AcDbLine
  8
0
 62
256
370
-1
  6
BYLAYER
 10
705.0
 20
343.0
 30
0.0
 11
700.0
 21
343.0
 31
0.0
  0
LINE
  5
26C
100
AcDbEntity
100
AcDbLine
  8
0
 62
256
370
-1
  6
BYLAYER
 10
690.0
 20
380.0
 30
0.0
 11
690.0
 21
390.0
 31
0.0
  0
LINE
  5
26D
100
AcDbEntity
100
AcDbLine
  8
0
 62
256
370
-1
  6
BYLAYER
 10
690.0
 20
390.0
 30
0.0
 11
687.0
 21
390.0
 31
0.0
  0
LINE
  5
26E
100
AcDbEntity
100
AcDbLine
  8
0
 62
256
370
-1
  6
BYLAYER
 10
687.0
 20
380.0
 30
0.0
 11
690.0
 21
380.0
 31
0.0
  0
LINE
  5
26F
100
AcDbEntity
100
AcDbLine
  8
guides
 62
256
370
-1
  6
BYLAYER
 10
700.0
 20
403.0
 30
0.0
 11
700.0
 21
335.0
 31
0.0
  0
LINE
  5
270
100
AcDbEntity
100
AcDbLine
  8
0
 62
256
370
-1
  6
BYLAYER
 10
690.0
 20
360.0
 30
0.0
 11
690.0
 21
350.0
 31
0.0
  0
LINE
  5
271
100
AcDbEntity
100
AcDbLine
  8
0
 62
256
370
-1
  6
BYLAYER
 10
690.0
 20
350.0
 30
0.0
 11
687.0
 21
350.0
 31
0.0
  0
LINE
  5
272
100
AcDbEntity
100
AcDbLine
  8
0
 62
256
370
-1
  6
BYLAYER
 10
695.0
 20
400.0
 30
0.0
 11
695.0
 21
397.0
 31
0.0
  0
CIRCLE
  5
273
100
AcDbEntity
100
AcDbCircle
  8
0
 62
256
370
-1
  6
BYLAYER
 10
700.0
 20
370.0
 30
0.0
 40
2.0
  0
LINE
  5
274
100
AcDbEntity
100
AcDbLine
  8
0
 62
256
370
-1
  6
BYLAYER
 10
687.0
 20
360.0
 30
0.0
 11
690.0
 21
360.0
 31
0.0
  0
LINE
  5
275
100
AcDbEntity
100
AcDbLine
  8
0
 62
256
370
-1
  6
BYLAYER
 10
695.0
 20
340.0
 30
0.0
 11
695.0
 21
343.0
 31
0.0
  0
LINE
  5
276
100
AcDbEntity
100
AcDbLine
  8
0
 62
256
370
-1
  6
BYLAYER
 10
695.0
 20
343.0
 30
0.0
 11
700.0
 21
343.0
 31
0.0
  0
LINE
  5
277
100
AcDbEntity
100
AcDbLine
  8
0
 62
256
370
-1
  6
BYLAYER
 10
695.0
 20
400.0
 30
0.0
 11
700.0
 21
400.0
 31
0.0
  0
LINE
  5
278
100
AcDbEntity
100
AcDbLine
  8
0
 62
256
370
-1
  6
BYLAYER
 10
710.0
 20
380.0
 30
0.0
 11
710.0
 21
390.0
 31
0.0
  0
LINE
  5
279
100
AcDbEntity
100
AcDbLine
  8
0
 62
256
370
-1
  6
BYLAYER
 10
710.0
 20
390.0
 30
0.0
 11
713.0
 21
390.0
 31
0.0
  0
LINE
  5
27A
100
AcDbEntity
100
AcDbLine
  8
0
 62
256
370
-1
  6
BYLAYER
 10
713.0
 20
350.0
 30
0.0
 11
713.0
 21
340.0
 31
0.0
  0
LINE
  5
27B
100
AcDbEntity
100
AcDbLine
  8
0
 62
256
370
-1
  6
BYLAYER
 10
713.0
 20
397.0
 30
0.0
 11
713.0
 21
390.0
 31
0.0
  0
LINE
  5
27C
100
AcDbEntity
100
AcDbLine
  8
0
 62
256
370
-1
  6
BYLAYER
 10
713.0
 20
380.0
 30
0.0
 11
713.0
 21
360.0
 31
0.0
  0
LINE
  5
27D
100
AcDbEntity
100
AcDbLine
  8
0
 62
256
370
-1
  6
BYLAYER
 10
687.0
 20
397.0
 30
0.0
 11
687.0
 21
390.0
 31
0.0
  0
LINE
  5
27E
100
AcDbEntity
100
AcDbLine
  8
0
 62
256
370
-1
  6
BYLAYER
 10
687.0
 20
380.0
 30
0.0
 11
687.0
 21
360.0
 31
0.0
  0
LINE
  5
27F
100
AcDbEntity
100
AcDbLine
  8
0
 62
256
370
-1
  6
BYLAYER
 10
687.0
 20
350.0
 30
0.0
 11
687.0
 21
340.0
 31
0.0
  0
LINE
  5
280
100
AcDbEntity
100
AcDbLine
  8
0
 62
256
370
-1
  6
BYLAYER
 10
705.0
 20
397.0
 30
0.0
 11
713.0
 21
397.0
 31
0.0
  0
LINE
  5
281
100
AcDbEntity
100
AcDbLine
  8
0
 62
256
370
-1
  6
BYLAYER
 10
695.0
 20
397.0
 30
0.0
 11
687.0
 21
397.0
 31
0.0
  0
LINE
  5
282
100
AcDbEntity
100
AcDbLine
  8
0
 62
256
370
-1
  6
BYLAYER
 10
695.0
 20
340.0
 30
0.0
 11
687.0
 21
340.0
 31
0.0
  0
LINE
  5
283
100
AcDbEntity
100
AcDbLine
  8
0
 62
256
370
-1
  6
BYLAYER
 10
705.0
 20
340.0
 30
0.0
 11
713.0
 21
340.0
 31
0.0
  0
CIRCLE
  5
284
100
AcDbEntity
100
AcDbCircle
  8
parts
 62
256
370
-1
  6
BYLAYER
 10
199.9999999999999716
 20
209.9999999999999716
 30
0.0
 40
125.0000000000000284
  0
CIRCLE
  5
285
100
AcDbEntity
100
AcDbCircle
  8
0
 62
256
370
-1
  6
BYLAYER
 10
457.0884572681200666
 20
370.0000000000001137
 30
0.0
 40
4.0
  0
CIRCLE
  5
286
100
AcDbEntity
100
AcDbCircle
  8
0
 62
256
370
-1
  6
BYLAYER
 10
526.911542731880445
 20
369.9999999999998295
 30
0.0
 40
4.0
  0
LINE
  5
287
100
AcDbEntity
100
AcDbLine
  8
0
 62
256
370
-1
  6
BYLAYER
 10
336.1358613752345832
 20
141.7942286340597775
 30
0.0
 11
327.1358613752345832
 21
126.2057713659398956
 31
0.0
  0
LINE
  5
288
100
AcDbEntity
100
AcDbLine
  8
0
 62
256
370
-1
  6
BYLAYER
 10
325.7698359714501635
 20
125.8397459621554759
 30
0.0
 11
311.047404107114744
 21
134.3397459621555186
 31
0.0
  0
LINE
  5
289
100
AcDbEntity
100
AcDbLine
  8
0
 62
256
370
-1
  6
BYLAYER
 10
310.6813787033303242
 20
135.7057713659399383
 30
0.0
 11
319.6813787033303242
 21
151.2942286340598343
 31
0.0
  0
LINE
  5
28A
100
AcDbEntity
100
AcDbLine
  8
0
 62
256
370
-1
  6
BYLAYER
 10
321.047404107114744
 20
151.6602540378442541
 30
0.0
 11
335.7698359714501635
 21
143.1602540378441972
 31
0.0
  0
ARC
  5
28B
100
AcDbEntity
  8
0
 62
256
370
-1
  6
BYLAYER
100
AcDbCircle
 10
335.2698359714502203
 20
142.2942286340598912
 30
0.0
 40
1.0
100
AcDbArc
 50
330.0
 51
59.9999999999999858
  0
ARC
  5
28C
100
AcDbEntity
  8
0
 62
256
370
-1
  6
BYLAYER
100
AcDbCircle
 10
326.2698359714501635
 20
126.7057713659399241
 30
0.0
 40
1.0
100
AcDbArc
 50
240.0
 51
330.0
  0
ARC
  5
28D
100
AcDbEntity
  8
0
 62
256
370
-1
  6
BYLAYER
100
AcDbCircle
 10
311.547404107114744
 20
135.2057713659399667
 30
0.0
 40
1.0
100
AcDbArc
 50
150.0000000000000284
 51
240.0
  0
ARC
  5
28E
100
AcDbEntity
  8
0
 62
256
370
-1
  6
BYLAYER
100
AcDbCircle
 10
320.547404107114744
 20
150.7942286340598343
 30
0.0
 40
1.0
100
AcDbArc
 50
59.9999999999999858
 51
150.0000000000000284
  0
LINE
  5
28F
100
AcDbEntity
100
AcDbLine
  8
0
 62
256
370
-1
  6
BYLAYER
 10
72.864138624765161
 20
126.2057713659401941
 30
0.0
 11
63.8641386247652463
 21
141.7942286340600049
 31
0.0
  0
LINE
  5
290
100
AcDbEntity
100
AcDbLine
  8
0
 62
256
370
-1
  6
BYLAYER
 10
64.2301640285496376
 20
143.1602540378445383
 30
0.0
 11
78.9525958928850571
 21
151.6602540378445383
 31
0.0
  0
LINE
  5
291
100
AcDbEntity
100
AcDbLine
  8
0
 62
256
370
-1
  6
BYLAYER
 10
80.3186212966695052
 20
151.294228634060147
 30
0.0
 11
89.3186212966694768
 21
135.7057713659402225
 31
0.0
  0
LINE
  5
292
100
AcDbEntity
100
AcDbLine
  8
0
 62
256
370
-1
  6
BYLAYER
 10
88.9525958928850145
 20
134.3397459621558028
 30
0.0
 11
74.230164028549666
 21
125.8397459621556322
 31
0.0
  0
ARC
  5
293
100
AcDbEntity
  8
0
 62
256
370
-1
  6
BYLAYER
100
AcDbCircle
 10
73.7301640285495807
 20
126.7057713659402083
 30
0.0
 40
1.0
100
AcDbArc
 50
209.9999999999999716
 51
300.0
  0
ARC
  5
294
100
AcDbEntity
  8
0
 62
256
370
-1
  6
BYLAYER
100
AcDbCircle
 10
64.7301640285496944
 20
142.294228634059948
 30
0.0
 40
1.0
100
AcDbArc
 50
119.9999999999999716
 51
209.9999999999999716
  0
ARC
  5
295
100
AcDbEntity
  8
0
 62
256
370
-1
  6
BYLAYER
100
AcDbCircle
 10
79.4525958928851139
 20
150.7942286340600049
 30
0.0
 40
1.0
100
AcDbArc
 50
29.999999999999968
 51
119.9999999999999716
  0
ARC
  5
296
100
AcDbEntity
  8
0
 62
256
370
-1
  6
BYLAYER
100
AcDbCircle
 10
88.4525958928850855
 20
135.2057713659401088
 30
0.0
 40
1.0
100
AcDbArc
 50
300.0
 51
29.999999999999968
  0
LINE
  5
297
100
AcDbEntity
100
AcDbLine
  8
parts
 62
256
370
-1
  6
BYLAYER
 10
250.6807499204458338
 20
236.6073911986602241
 30
0.0
 11
250.6807499204458338
 21
183.3926088013397191
 31
0.0
  0
LINE
  5
298
100
AcDbEntity
100
AcDbLine
  8
parts
 62
256
370
-1
  6
BYLAYER
 10
250.6807499204458338
 20
183.3926088013397191
 30
0.0
 11
149.3192500795541378
 21
183.3926088013397191
 31
0.0
  0
LINE
  5
299
100
AcDbEntity
100
AcDbLine
  8
parts
 62
256
370
-1
  6
BYLAYER
 10
149.3192500795541378
 20
183.3926088013397191
 30
0.0
 11
149.3192500795541378
 21
236.6073911986602241
 31
0.0
  0
CIRCLE
  5
29A
100
AcDbEntity
100
AcDbCircle
  8
0
 62
256
370
-1
  6
BYLAYER
 10
164.5234808768945527
 20
234.073357790702147
 30
0.0
 40
1.581356286168502
  0
CIRCLE
  5
29B
100
AcDbEntity
100
AcDbCircle
  8
0
 62
256
370
-1
  6
BYLAYER
 10
239.2775791200046456
 20
234.073356288190098
 30
0.0
 40
1.5813660243157941
  0
CIRCLE
  5
29C
100
AcDbEntity
100
AcDbCircle
  8
0
 62
256
370
-1
  6
BYLAYER
 10
215.2042184266098275
 20
218.8691371276095481
 30
0.0
 40
1.5813673761576481
  0
CIRCLE
  5
29D
100
AcDbEntity
100
AcDbCircle
  8
0
 62
256
370
-1
  6
BYLAYER
 10
215.2042184266133518
 20
190.9947227150396714
 30
0.0
 40
1.5813673761495659
  0
CIRCLE
  5
29E
100
AcDbEntity
100
AcDbCircle
  8
0
 62
256
370
-1
  6
BYLAYER
 10
163.2564607457131842
 20
185.9266466653299688
 30
0.0
 40
1.5813576380231471
  0
CIRCLE
  5
29F
100
AcDbEntity
100
AcDbCircle
  8
0
 62
256
370
-1
  6
BYLAYER
 10
245.612682754870491
 20
185.9266460761890016
 30
0.0
 40
1.5813562861915029
  0
LINE
  5
2A0
100
AcDbEntity
100
AcDbLine
  8
parts
 62
256
370
-1
  6
BYLAYER
 10
149.3192500795541378
 20
236.6073911986602241
 30
0.0
 11
250.6807499204458338
 21
236.6073911986602241
 31
0.0
  0
LINE
  5
2A1
100
AcDbEntity
100
AcDbLine
  8
guides
 62
256
370
-1
  6
BYLAYER
 10
210.0
 20
335.0
 30
0.0
 11
190.0
 21
335.0
 31
0.0
  0
LINE
  5
2A2
100
AcDbEntity
100
AcDbLine
  8
guides
 62
256
370
-1
  6
BYLAYER
 10
199.9999999999999716
 20
335.0
 30
0.0
 11
200.0
 21
325.0
 31
0.0
  0
LINE
  5
2A3
100
AcDbEntity
100
AcDbLine
  8
guides
 62
256
370
-1
  6
BYLAYER
 10
200.0
 20
325.0
 30
0.0
 11
203.0
 21
325.0
 31
0.0
  0
LINE
  5
2A4
100
AcDbEntity
100
AcDbLine
  8
guides
 62
256
370
-1
  6
BYLAYER
 10
165.0
 20
337.0
 30
0.0
 11
165.0
 21
340.0
 31
0.0
  0
LINE
  5
2A5
100
AcDbEntity
100
AcDbLine
  8
0
 62
256
370
-1
  6
BYLAYER
 10
595.0
 20
215.0
 30
0.0
 11
595.0
 21
212.0
 31
0.0
  0
LINE
  5
2A6
100
AcDbEntity
100
AcDbLine
  8
0
 62
256
370
-1
  6
BYLAYER
 10
578.0
 20
215.0
 30
0.0
 11
578.0
 21
212.0
 31
0.0
  0
LINE
  5
2A7
100
AcDbEntity
100
AcDbLine
  8
0
 62
256
370
-1
  6
BYLAYER
 10
578.0
 20
212.0
 30
0.0
 11
568.0
 21
212.0
 31
0.0
  0
LINE
  5
2A8
100
AcDbEntity
100
AcDbLine
  8
0
 62
256
370
-1
  6
BYLAYER
 10
568.0
 20
212.0
 30
0.0
 11
568.0
 21
215.0
 31
0.0
  0
LINE
  5
2A9
100
AcDbEntity
100
AcDbLine
  8
0
 62
256
370
-1
  6
BYLAYER
 10
568.0
 20
215.0
 30
0.0
 11
578.0
 21
215.0
 31
0.0
  0
LINE
  5
2AA
100
AcDbEntity
100
AcDbLine
  8
guides
 62
256
370
-1
  6
BYLAYER
 10
600.0
 20
240.0
 30
0.0
 11
600.0
 21
186.0
 31
0.0
  0
LINE
  5
2AB
100
AcDbEntity
100
AcDbLine
  8
0
 62
256
370
-1
  6
BYLAYER
 10
567.9949625097232229
 20
218.0
 30
0.0
 11
600.0
 21
218.0
 31
0.0
  0
LINE
  5
2AC
100
AcDbEntity
100
AcDbLine
  8
0
 62
256
370
-1
  6
BYLAYER
 10
564.9949667462158232
 20
215.0050417196554235
 30
0.0
 11
564.9848768344712653
 21
209.0011988730875316
 31
0.0
  0
LINE
  5
2AD
100
AcDbEntity
100
AcDbLine
  8
guides
 62
256
370
-1
  6
BYLAYER
 10
165.0
 20
337.0
 30
0.0
 11
165.0
 21
323.0
 31
0.0
  0
ARC
  5
2AE
100
AcDbEntity
  8
0
 62
256
370
-1
  6
BYLAYER
100
AcDbCircle
 10
600.0
 20
82.9999999999999716
 30
0.0
 40
127.0000000000000284
100
AcDbArc
 50
99.8424870696333358
 51
104.2569116621462371
  0
ARC
  5
2AF
100
AcDbEntity
  8
0
 62
256
370
-1
  6
BYLAYER
100
AcDbCircle
 10
567.9848725979787787
 20
208.9961571534320797
 30
0.0
 40
3.0
100
AcDbArc
 50
179.9037102020872112
 51
284.2569116621461376
  0
ARC
  5
2B0
100
AcDbEntity
  8
0
 62
256
370
-1
  6
BYLAYER
100
AcDbCircle
 10
567.9949625097232229
 20
214.9999999999999716
 30
0.0
 40
3.0
100
AcDbArc
 50
90.0
 51
179.9037102020872112
  0
LINE
  5
2B1
100
AcDbEntity
100
AcDbLine
  8
0
 62
256
370
-1
  6
BYLAYER
 10
732.0
 20
212.0
 30
0.0
 11
732.0
 21
215.0
 31
0.0
  0
LINE
  5
2B2
100
AcDbEntity
100
AcDbLine
  8
0
 62
256
370
-1
  6
BYLAYER
 10
732.0
 20
215.0
 30
0.0
 11
722.0
 21
215.0
 31
0.0
  0
LINE
  5
2B3
100
AcDbEntity
100
AcDbLine
  8
0
 62
256
370
-1
  6
BYLAYER
 10
678.0
 20
215.0
 30
0.0
 11
678.0
 21
212.0
 31
0.0
  0
LINE
  5
2B4
100
AcDbEntity
100
AcDbLine
  8
0
 62
256
370
-1
  6
BYLAYER
 10
678.0
 20
212.0
 30
0.0
 11
668.0
 21
212.0
 31
0.0
  0
LINE
  5
2B5
100
AcDbEntity
100
AcDbLine
  8
0
 62
256
370
-1
  6
BYLAYER
 10
668.0
 20
212.0
 30
0.0
 11
668.0
 21
215.0
 31
0.0
  0
LINE
  5
2B6
100
AcDbEntity
100
AcDbLine
  8
0
 62
256
370
-1
  6
BYLAYER
 10
668.0
 20
215.0
 30
0.0
 11
678.0
 21
215.0
 31
0.0
  0
LINE
  5
2B7
100
AcDbEntity
100
AcDbLine
  8
guides
 62
256
370
-1
  6
BYLAYER
 10
700.0
 20
240.0
 30
0.0
 11
700.0
 21
186.0
 31
0.0
  0
LINE
  5
2B8
100
AcDbEntity
100
AcDbLine
  8
0
 62
256
370
-1
  6
BYLAYER
 10
667.9949625097232229
 20
218.0
 30
0.0
 11
700.0
 21
218.0
 31
0.0
  0
LINE
  5
2B9
100
AcDbEntity
100
AcDbLine
  8
0
 62
256
370
-1
  6
BYLAYER
 10
664.9949667462158232
 20
215.0050417196554235
 30
0.0
 11
664.9848768344712653
 21
209.0011988730875316
 31
0.0
  0
ARC
  5
2BA
100
AcDbEntity
  8
0
 62
256
370
-1
  6
BYLAYER
100
AcDbCircle
 10
700.0
 20
82.9999999999999716
 30
0.0
 40
127.0000000000000284
100
AcDbArc
 50
90.0
 51
104.2569116621462371
  0
ARC
  5
2BB
100
AcDbEntity
  8
0
 62
256
370
-1
  6
BYLAYER
100
AcDbCircle
 10
667.9848725979787787
 20
208.9961571534320797
 30
0.0
 40
3.0
100
AcDbArc
 50
179.9037102020872112
 51
284.2569116621461376
  0
ARC
  5
2BC
100
AcDbEntity
  8
0
 62
256
370
-1
  6
BYLAYER
100
AcDbCircle
 10
667.9949625097232229
 20
214.9999999999999716
 30
0.0
 40
3.0
100
AcDbArc
 50
90.0
 51
179.9037102020872112
  0
LINE
  5
2BD
100
AcDbEntity
100
AcDbLine
  8
0
 62
256
370
-1
  6
BYLAYER
 10
695.0
 20
215.0
 30
0.0
 11
695.0
 21
212.0
 31
0.0
  0
LINE
  5
2BE
100
AcDbEntity
100
AcDbLine
  8
0
 62
256
370
-1
  6
BYLAYER
 10
722.0
 20
215.0
 30
0.0
 11
722.0
 21
212.0
 31
0.0
  0
LINE
  5
2BF
100
AcDbEntity
100
AcDbLine
  8
0
 62
256
370
-1
  6
BYLAYER
 10
722.0
 20
212.0
 30
0.0
 11
732.0
 21
212.0
 31
0.0
  0
ARC
  5
2C0
100
AcDbEntity
  8
0
 62
256
370
-1
  6
BYLAYER
100
AcDbCircle
 10
580.7245154339585724
 20
199.1389625166865756
 30
0.0
 40
9.3153636258893702
100
AcDbArc
 50
5.3035325173882777
 51
105.1460195870215557
  0
LINE
  5
2C1
100
AcDbEntity
100
AcDbLine
  8
0
 62
256
370
-1
  6
BYLAYER
 10
600.0
 20
215.0
 30
0.0
 11
595.0
 21
215.0
 31
0.0
  0
LINE
  5
2C2
100
AcDbEntity
100
AcDbLine
  8
0
 62
256
370
-1
  6
BYLAYER
 10
595.0
 20
212.0
 30
0.0
 11
600.0
 21
212.0
 31
0.0
  0
LINE
  5
2C3
100
AcDbEntity
100
AcDbLine
  8
0
 62
256
370
-1
  6
BYLAYER
 10
605.0
 20
215.0
 30
0.0
 11
605.0
 21
212.0
 31
0.0
  0
LINE
  5
2C4
100
AcDbEntity
100
AcDbLine
  8
0
 62
256
370
-1
  6
BYLAYER
 10
632.0050374902767771
 20
218.0000000000000284
 30
0.0
 11
600.0
 21
218.0
 31
0.0
  0
LINE
  5
2C5
100
AcDbEntity
100
AcDbLine
  8
0
 62
256
370
-1
  6
BYLAYER
 10
635.0050332537841768
 20
215.0050417196553951
 30
0.0
 11
635.0151231655287347
 21
209.0011988730875601
 31
0.0
  0
LINE
  5
2C6
100
AcDbEntity
100
AcDbLine
  8
0
 62
256
370
-1
  6
BYLAYER
 10
622.0
 20
215.0
 30
0.0
 11
622.0
 21
212.0
 31
0.0
  0
ARC
  5
2C7
100
AcDbEntity
  8
0
 62
256
370
-1
  6
BYLAYER
100
AcDbCircle
 10
600.0
 20
82.9999999999999716
 30
0.0
 40
127.0000000000000284
100
AcDbArc
 50
75.7430883378537345
 51
80.1575129303666642
  0
LINE
  5
2C8
100
AcDbEntity
100
AcDbLine
  8
0
 62
256
370
-1
  6
BYLAYER
 10
622.0
 20
212.0
 30
0.0
 11
632.0
 21
212.0
 31
0.0
  0
ARC
  5
2C9
100
AcDbEntity
  8
0
 62
256
370
-1
  6
BYLAYER
100
AcDbCircle
 10
632.0151274020212213
 20
208.9961571534320512
 30
0.0
 40
3.0
100
AcDbArc
 50
255.7430883378538056
 51
0.0962897979128037
  0
LINE
  5
2CA
100
AcDbEntity
100
AcDbLine
  8
0
 62
256
370
-1
  6
BYLAYER
 10
600.0
 20
215.0
 30
0.0
 11
605.0
 21
215.0
 31
0.0
  0
LINE
  5
2CB
100
AcDbEntity
100
AcDbLine
  8
0
 62
256
370
-1
  6
BYLAYER
 10
632.0
 20
212.0
 30
0.0
 11
632.0
 21
215.0
 31
0.0
  0
ARC
  5
2CC
100
AcDbEntity
  8
0
 62
256
370
-1
  6
BYLAYER
100
AcDbCircle
 10
632.0050374902767771
 20
215.0
 30
0.0
 40
3.0
100
AcDbArc
 50
0.0962897979128037
 51
89.9999999999999858
  0
LINE
  5
2CD
100
AcDbEntity
100
AcDbLine
  8
0
 62
256
370
-1
  6
BYLAYER
 10
605.0
 20
212.0
 30
0.0
 11
600.0
 21
212.0
 31
0.0
  0
LINE
  5
2CE
100
AcDbEntity
100
AcDbLine
  8
0
 62
256
370
-1
  6
BYLAYER
 10
632.0
 20
215.0
 30
0.0
 11
622.0
 21
215.0
 31
0.0
  0
ARC
  5
2CF
100
AcDbEntity
  8
0
 62
256
370
-1
  6
BYLAYER
100
AcDbCircle
 10
600.0
 20
200.0
 30
0.0
 40
10.0
100
AcDbArc
 50
180.0
 51
0.0
  0
ARC
  5
2D0
100
AcDbEntity
  8
0
 62
256
370
-1
  6
BYLAYER
100
AcDbCircle
 10
619.2754845660414276
 20
199.1389625166865756
 30
0.0
 40
9.3153636258893702
100
AcDbArc
 50
74.8539804129784017
 51
174.69646748261178
  0
LINE
  5
2D1
100
AcDbEntity
100
AcDbLine
  8
0
 62
256
370
-1
  6
BYLAYER
 10
700.0
 20
215.0
 30
0.0
 11
695.0
 21
215.0
 31
0.0
  0
LINE
  5
2D2
100
AcDbEntity
100
AcDbLine
  8
0
 62
256
370
-1
  6
BYLAYER
 10
695.0
 20
212.0
 30
0.0
 11
700.0
 21
212.0
 31
0.0
  0
LINE
  5
2D3
100
AcDbEntity
100
AcDbLine
  8
0
 62
256
370
-1
  6
BYLAYER
 10
722.0
 20
215.0
 30
0.0
 11
722.0
 21
212.0
 31
0.0
  0
LINE
  5
2D4
100
AcDbEntity
100
AcDbLine
  8
0
 62
256
370
-1
  6
BYLAYER
 10
722.0
 20
212.0
 30
0.0
 11
732.0
 21
212.0
 31
0.0
  0
LINE
  5
2D5
100
AcDbEntity
100
AcDbLine
  8
0
 62
256
370
-1
  6
BYLAYER
 10
700.0
 20
215.0
 30
0.0
 11
705.0
 21
215.0
 31
0.0
  0
LINE
  5
2D6
100
AcDbEntity
100
AcDbLine
  8
0
 62
256
370
-1
  6
BYLAYER
 10
732.0
 20
212.0
 30
0.0
 11
732.0
 21
215.0
 31
0.0
  0
LINE
  5
2D7
100
AcDbEntity
100
AcDbLine
  8
0
 62
256
370
-1
  6
BYLAYER
 10
705.0
 20
212.0
 30
0.0
 11
700.0
 21
212.0
 31
0.0
  0
LINE
  5
2D8
100
AcDbEntity
100
AcDbLine
  8
0
 62
256
370
-1
  6
BYLAYER
 10
732.0
 20
215.0
 30
0.0
 11
722.0
 21
215.0
 31
0.0
  0
LINE
  5
2D9
100
AcDbEntity
100
AcDbLine
  8
0
 62
256
370
-1
  6
BYLAYER
 10
705.0
 20
215.0
 30
0.0
 11
705.0
 21
212.0
 31
0.0
  0
LINE
  5
2DA
100
AcDbEntity
100
AcDbLine
  8
0
 62
256
370
-1
  6
BYLAYER
 10
732.0050374902767771
 20
218.0
 30
0.0
 11
700.0
 21
218.0
 31
0.0
  0
LINE
  5
2DB
100
AcDbEntity
100
AcDbLine
  8
0
 62
256
370
-1
  6
BYLAYER
 10
735.0050332537841768
 20
215.0050417196554235
 30
0.0
 11
735.0151231655287347
 21
209.0011988730875316
 31
0.0
  0
ARC
  5
2DC
100
AcDbEntity
  8
0
 62
256
370
-1
  6
BYLAYER
100
AcDbCircle
 10
700.0
 20
82.9999999999999716
 30
0.0
 40
127.0000000000000284
100
AcDbArc
 50
75.7430883378537629
 51
90.0
  0
ARC
  5
2DD
100
AcDbEntity
  8
0
 62
256
370
-1
  6
BYLAYER
100
AcDbCircle
 10
732.0151274020212213
 20
208.9961571534320797
 30
0.0
 40
3.0
100
AcDbArc
 50
255.7430883378538056
 51
0.0962897979128037
  0
ARC
  5
2DE
100
AcDbEntity
  8
0
 62
256
370
-1
  6
BYLAYER
100
AcDbCircle
 10
732.0050374902767771
 20
214.9999999999999716
 30
0.0
 40
3.0
100
AcDbArc
 50
0.0962897979128037
 51
90.0
  0
LINE
  5
2DF
100
AcDbEntity
100
AcDbLine
  8
0
 62
256
370
-1
  6
BYLAYER
 10
497.0000000000000568
 20
406.0
 30
0.0
 11
497.0000000000001137
 21
397.0000000000000568
 31
0.0
  0
LINE
  5
2E0
100
AcDbEntity
100
AcDbLine
  8
0
 62
256
370
-1
  6
BYLAYER
 10
487.0000000000001137
 20
397.0000000000000568
 30
0.0
 11
487.0000000000000568
 21
406.0
 31
0.0
  0
LINE
  5
2E1
100
AcDbEntity
100
AcDbLine
  8
0
 62
256
370
-1
  6
BYLAYER
 10
487.0000000000000568
 20
406.0
 30
0.0
 11
497.0000000000000568
 21
406.0
 31
0.0
  0
LINE
  5
2E2
100
AcDbEntity
100
AcDbLine
  8
0
 62
256
370
-1
  6
BYLAYER
 10
514.0
 20
405.9999999999999432
 30
0.0
 11
524.0
 21
405.9999999999999432
 31
0.0
  0
LINE
  5
2E3
100
AcDbEntity
100
AcDbLine
  8
0
 62
256
370
-1
  6
BYLAYER
 10
524.0
 20
405.9999999999999432
 30
0.0
 11
524.0
 21
397.0
 31
0.0
  0
LINE
  5
2E4
100
AcDbEntity
100
AcDbLine
  8
0
 62
256
370
-1
  6
BYLAYER
 10
514.0
 20
397.0
 30
0.0
 11
514.0
 21
405.9999999999999432
 31
0.0
  0
LINE
  5
2E5
100
AcDbEntity
100
AcDbLine
  8
guides
 62
256
370
-1
  6
BYLAYER
 10
32.0
 20
100.0
 30
0.0
 11
632.0
 21
100.0
 31
0.0
  0
LINE
  5
2E6
100
AcDbEntity
100
AcDbLine
  8
guides
 62
256
370
-1
  6
BYLAYER
 10
632.0
 20
100.0
 30
0.0
 11
632.0
 21
400.0
 31
0.0
  0
LINE
  5
2E7
100
AcDbEntity
100
AcDbLine
  8
guides
 62
256
370
-1
  6
BYLAYER
 10
632.0
 20
400.0
 30
0.0
 11
32.0
 21
400.0
 31
0.0
  0
LINE
  5
2E8
100
AcDbEntity
100
AcDbLine
  8
guides
 62
256
370
-1
  6
BYLAYER
 10
32.0
 20
400.0
 30
0.0
 11
32.0
 21
100.0
 31
0.0
  0
DIMENSION
  5
2E9
100
AcDbEntity
  8
dimensions
 62
256
370
-1
  6
BYLAYER
100
AcDbDimension
 10
153.0192378864673515
 20
341.9999999999999432
 30
0.0
 11
176.5096189432336757
 21
343.875
 31
0.0
 70
1
 71
8
 72
2
 41
1.0
 42
0.0
  1

  3
Standard
100
AcDbAlignedDimension
 13
153.0192378864673515
 23
340.0
 33
0.0
 14
200.0
 24
340.0000000000000568
 34
0.0
1001
ACAD
1000
DSTYLE
1002
{
1070
144
1040
1
1002
}
  0
LINE
  5
2EA
100
AcDbEntity
100
AcDbLine
  8
0
 62
256
370
-1
  6
BYLAYER
 10
539.0000000000002274
 20
360.0000000000002274
 30
0.0
 11
540.7320508075694079
 21
360.0000000000002274
 31
0.0
  0
LINE
  5
2EB
100
AcDbEntity
100
AcDbLine
  8
0
 62
256
370
-1
  6
BYLAYER
 10
540.7320508075694079
 20
360.0000000000002274
 30
0.0
 11
540.7320508075692942
 21
380.0000000000002274
 31
0.0
  0
LINE
  5
2EC
100
AcDbEntity
100
AcDbLine
  8
0
 62
256
370
-1
  6
BYLAYER
 10
540.7320508075692942
 20
380.0000000000002274
 30
0.0
 11
539.0000000000001137
 21
380.0000000000002274
 31
0.0
  0
LINE
  5
2ED
100
AcDbEntity
100
AcDbLine
  8
0
 62
256
370
-1
  6
BYLAYER
 10
539.0000000000001137
 20
397.0000000000002842
 30
0.0
 11
539.0000000000002274
 21
380.0000000000002842
 31
0.0
  0
LINE
  5
2EE
100
AcDbEntity
100
AcDbLine
  8
0
 62
256
370
-1
  6
BYLAYER
 10
539.0000000000003411
 20
360.0000000000001137
 30
0.0
 11
539.0000000000004547
 21
340.0000000000003411
 31
0.0
  0
DIMENSION
  5
2EF
100
AcDbEntity
  8
dimensions
 62
256
370
-1
  6
BYLAYER
100
AcDbDimension
 10
492.0000000000001705
 20
318.4189401310592302
 30
0.0
 11
468.5000000000001705
 21
320.2939401310592302
 31
0.0
 70
1
 71
8
 72
2
 41
1.0
 42
0.0
  1

  3
Standard
100
AcDbAlignedDimension
 13
492.0000000000001705
 23
340.0000000000000568
 33
0.0
 14
445.0000000000001705
 24
340.0000000000001137
 34
0.0
1001
ACAD
1000
DSTYLE
1002
{
1070
144
1040
1
1002
}
  0
DIMENSION
  5
2F0
100
AcDbEntity
  8
dimensions
 62
256
370
-1
  6
BYLAYER
100
AcDbDimension
 10
580.8000000000000682
 20
323.0667296310227812
 30
0.0
 11
600.0
 21
324.9417296310227812
 31
0.0
 70
1
 71
8
 72
2
 41
1.0
 42
0.0
  1

  3
Standard
100
AcDbAlignedDimension
 13
580.8000000000000682
 23
340.0
 33
0.0
 14
619.2000000000000455
 24
340.0
 34
0.0
1001
ACAD
1000
DSTYLE
1002
{
1070
144
1040
1
1002
}
  0
DIMENSION
  5
2F1
100
AcDbEntity
  8
dimensions
 62
256
370
-1
  6
BYLAYER
100
AcDbDimension
 10
579.0
 20
312.5527382405493313
 30
0.0
 11
600.0
 21
314.4277382405493313
 31
0.0
 70
1
 71
8
 72
2
 41
1.0
 42
0.0
  1

  3
Standard
100
AcDbAlignedDimension
 13
579.0
 23
360.0
 33
0.0
 14
621.0
 24
360.0
 34
0.0
1001
ACAD
1000
DSTYLE
1002
{
1070
144
1040
1
1002
}
  0
DIMENSION
  5
2F2
100
AcDbEntity
  8
dimensions
 62
256
370
-1
  6
BYLAYER
100
AcDbDimension
 10
249.7152966832137793
 20
393.7031399228955024
 30
0.0
 11
318.4560631086035869
 21
278.3906399228955024
 31
0.0
 70
1
 71
8
 72
2
 41
1.0
 42
0.0
  1

  3
Standard
100
AcDbAlignedDimension
 13
200.0
 23
365.0
 33
0.0
 14
334.2339375865880129
 24
132.4999999999999147
 34
0.0
1001
ACAD
1000
DSTYLE
1002
{
1070
144
1040
1
1002
}
  0
ENDSEC
  0
SECTION
  2
OBJECTS
  0
DICTIONARY
  5
C
100
AcDbDictionary
280
0
281
1
  3
ACAD_GROUP
350
D
  3
ACAD_LAYOUT
350
1A
  3
ACAD_MLINESTYLE
350
17
  3
ACAD_PLOTSETTINGS
350
19
  3
ACAD_PLOTSTYLENAME
350
E
  3
AcDbVariableDictionary
350
2F3
  3
QCAD_OBJECTS
350
2F4
  0
DICTIONARY
  5
D
100
AcDbDictionary
280
0
281
1
  0
ACDBDICTIONARYWDFLT
  5
E
100
AcDbDictionary
281
1
  3
Normal
350
F
100
AcDbDictionaryWithDefault
340
F
  0
ACDBPLACEHOLDER
  5
F
  0
DICTIONARY
  5
17
100
AcDbDictionary
280
0
281
1
  3
Standard
350
18
  0
MLINESTYLE
  5
18
100
AcDbMlineStyle
  2
STANDARD
 70
0
  3

 62
256
 51
90.0
 52
90.0
 71
2
 49
0.5
 62
256
  6
BYLAYER
 49
-0.5
 62
256
  6
BYLAYER
  0
DICTIONARY
  5
19
100
AcDbDictionary
280
0
281
1
  0
DICTIONARY
  5
1A
100
AcDbDictionary
281
1
  3
Layout1
350
1E
  3
Layout2
350
26
  3
Model
350
22
  0
LAYOUT
  5
1E
100
AcDbPlotSettings
  1

  2
none_device
  4

  6

 40
0.0
 41
0.0
 42
0.0
 43
0.0
 44
0.0
 45
0.0
 46
0.0
 47
0.0
 48
0.0
 49
0.0
140
0.0
141
0.0
142
1.0
143
1.0
 70
688
 72
0
 73
0
 74
5
  7

 75
16
147
1.0
148
0.0
149
0.0
100
AcDbLayout
  1
Layout1
 70
1
 71
1
 10
0.0
 20
0.0
 11
420.0
 21
297.0
 12
0.0
 22
0.0
 32
0.0
 14
100000000000000000000.0
 24
100000000000000000000.0
 34
100000000000000000000.0
 15
-100000000000000000000.0
 25
-100000000000000000000.0
 35
-100000000000000000000.0
146
0.0
 13
0.0
 23
0.0
 33
0.0
 16
1.0
 26
0.0
 36
0.0
 17
0.0
 27
1.0
 37
0.0
 76
0
330
1B
  0
LAYOUT
  5
22
100
AcDbPlotSettings
  1

  2
none_device
  4

  6

 40
0.0
 41
0.0
 42
0.0
 43
0.0
 44
0.0
 45
0.0
 46
0.0
 47
0.0
 48
0.0
 49
0.0
140
0.0
141
0.0
142
1.0
143
1.0
 70
1712
 72
0
 73
0
 74
0
  7

 75
0
147
1.0
148
0.0
149
0.0
100
AcDbLayout
  1
Model
 70
1
 71
0
 10
0.0
 20
0.0
 11
12.0
 21
9.0
 12
0.0
 22
0.0
 32
0.0
 14
0.0
 24
0.0
 34
0.0
 15
0.0
 25
0.0
 35
0.0
146
0.0
 13
0.0
 23
0.0
 33
0.0
 16
1.0
 26
0.0
 36
0.0
 17
0.0
 27
1.0
 37
0.0
 76
0
330
1F
  0
LAYOUT
  5
26
100
AcDbPlotSettings
  1

  2
none_device
  4

  6

 40
0.0
 41
0.0
 42
0.0
 43
0.0
 44
0.0
 45
0.0
 46
0.0
 47
0.0
 48
0.0
 49
0.0
140
0.0
141
0.0
142
1.0
143
1.0
 70
688
 72
0
 73
0
 74
5
  7

 75
16
147
1.0
148
0.0
149
0.0
100
AcDbLayout
  1
Layout2
 70
1
 71
2
 10
0.0
 20
0.0
 11
12.0
 21
9.0
 12
0.0
 22
0.0
 32
0.0
 14
0.0
 24
0.0
 34
0.0
 15
0.0
 25
0.0
 35
0.0
146
0.0
 13
0.0
 23
0.0
 33
0.0
 16
1.0
 26
0.0
 36
0.0
 17
0.0
 27
1.0
 37
0.0
 76
0
330
23
  0
DICTIONARY
  5
2F3
100
AcDbDictionary
281
1
  3
DIMASSOC
350
2F6
  3
HIDETEXT
350
2F5
  0
DICTIONARYVAR
  5
2F5
100
DictionaryVariables
280
0
  1
2
  0
DICTIONARYVAR
  5
2F6
100
DictionaryVariables
280
0
  1
1
  0
DICTIONARY
  5
2F4
100
AcDbDictionary
281
1
  3
Grid/DisplayGrid00
350
2F7
  3
Grid/DisplayGrid01
350
2F8
  3
Grid/DisplayGrid02
350
2F9
  3
Grid/DisplayGrid03
350
2FA
  3
Grid/GridSpacingX00
350
2FB
  3
Grid/GridSpacingX01
350
2FC
  3
Grid/GridSpacingX02
350
2FD
  3
Grid/GridSpacingX03
350
2FE
  3
Grid/GridSpacingY00
350
2FF
  3
Grid/GridSpacingY01
350
300
  3
Grid/GridSpacingY02
350
301
  3
Grid/GridSpacingY03
350
302
  3
Grid/IsometricGrid00
350
303
  3
Grid/IsometricGrid01
350
304
  3
Grid/IsometricGrid02
350
305
  3
Grid/IsometricGrid03
350
306
  3
Grid/IsometricProjection00
350
307
  3
Grid/IsometricProjection01
350
308
  3
Grid/IsometricProjection02
350
309
  3
Grid/IsometricProjection03
350
30A
  3
Grid/MetaGridSpacingX00
350
30B
  3
Grid/MetaGridSpacingX01
350
30C
  3
Grid/MetaGridSpacingX02
350
30D
  3
Grid/MetaGridSpacingX03
350
30E
  3
Grid/MetaGridSpacingY00
350
30F
  3
Grid/MetaGridSpacingY01
350
310
  3
Grid/MetaGridSpacingY02
350
311
  3
Grid/MetaGridSpacingY03
350
312
  3
MultiPageSettings/Columns
350
313
  3
MultiPageSettings/GlueMarginsBottom
350
314
  3
MultiPageSettings/GlueMarginsLeft
350
315
  3
MultiPageSettings/GlueMarginsRight
350
316
  3
MultiPageSettings/GlueMarginsTop
350
317
  3
MultiPageSettings/PrintCropMarks
350
318
  3
MultiPageSettings/Rows
350
319
  3
PageSettings/OffsetX
350
31A
  3
PageSettings/OffsetY
350
31B
  3
PageSettings/PageOrientation
350
31C
  3
PageSettings/PaperHeight
350
31D
  3
PageSettings/PaperWidth
350
31E
  3
PageSettings/Scale
350
31F
  3
PageSettings/ShowPaperBorders
350
320
  3
UnitSettings/PaperUnit
350
321
  0
XRECORD
  5
2F7
330
2F4
100
AcDbXrecord
280
1
290
1
  0
XRECORD
  5
2F8
330
2F4
100
AcDbXrecord
280
1
290
1
  0
XRECORD
  5
2F9
330
2F4
100
AcDbXrecord
280
1
290
1
  0
XRECORD
  5
2FA
330
2F4
100
AcDbXrecord
280
1
290
1
  0
XRECORD
  5
2FB
330
2F4
100
AcDbXrecord
280
1
1000
auto
  0
XRECORD
  5
2FC
330
2F4
100
AcDbXrecord
280
1
1000
auto
  0
XRECORD
  5
2FD
330
2F4
100
AcDbXrecord
280
1
1000
auto
  0
XRECORD
  5
2FE
330
2F4
100
AcDbXrecord
280
1
1000
auto
  0
XRECORD
  5
2FF
330
2F4
100
AcDbXrecord
280
1
1000
auto
  0
XRECORD
  5
300
330
2F4
100
AcDbXrecord
280
1
1000
auto
  0
XRECORD
  5
301
330
2F4
100
AcDbXrecord
280
1
1000
auto
  0
XRECORD
  5
302
330
2F4
100
AcDbXrecord
280
1
1000
auto
  0
XRECORD
  5
303
330
2F4
100
AcDbXrecord
280
1
290
0
  0
XRECORD
  5
304
330
2F4
100
AcDbXrecord
280
1
290
0
  0
XRECORD
  5
305
330
2F4
100
AcDbXrecord
280
1
290
0
  0
XRECORD
  5
306
330
2F4
100
AcDbXrecord
280
1
290
0
  0
XRECORD
  5
307
330
2F4
100
AcDbXrecord
280
1
 90
0
  0
XRECORD
  5
308
330
2F4
100
AcDbXrecord
280
1
 90
0
  0
XRECORD
  5
309
330
2F4
100
AcDbXrecord
280
1
 90
0
  0
XRECORD
  5
30A
330
2F4
100
AcDbXrecord
280
1
 90
0
  0
XRECORD
  5
30B
330
2F4
100
AcDbXrecord
280
1
1000
auto
  0
XRECORD
  5
30C
330
2F4
100
AcDbXrecord
280
1
1000
auto
  0
XRECORD
  5
30D
330
2F4
100
AcDbXrecord
280
1
1000
auto
  0
XRECORD
  5
30E
330
2F4
100
AcDbXrecord
280
1
1000
auto
  0
XRECORD
  5
30F
330
2F4
100
AcDbXrecord
280
1
1000
auto
  0
XRECORD
  5
310
330
2F4
100
AcDbXrecord
280
1
1000
auto
  0
XRECORD
  5
311
330
2F4
100
AcDbXrecord
280
1
1000
auto
  0
XRECORD
  5
312
330
2F4
100
AcDbXrecord
280
1
1000
auto
  0
XRECORD
  5
313
330
2F4
100
AcDbXrecord
280
1
 90
1
  0
XRECORD
  5
314
330
2F4
100
AcDbXrecord
280
1
 40
10.0
  0
XRECORD
  5
315
330
2F4
100
AcDbXrecord
280
1
 40
10.0
  0
XRECORD
  5
316
330
2F4
100
AcDbXrecord
280
1
 40
10.0
  0
XRECORD
  5
317
330
2F4
100
AcDbXrecord
280
1
 40
10.0
  0
XRECORD
  5
318
330
2F4
100
AcDbXrecord
280
1
290
0
  0
XRECORD
  5
319
330
2F4
100
AcDbXrecord
280
1
 90
1
  0
XRECORD
  5
31A
330
2F4
100
AcDbXrecord
280
1
 40
0.0
  0
XRECORD
  5
31B
330
2F4
100
AcDbXrecord
280
1
 40
0.0
  0
XRECORD
  5
31C
330
2F4
100
AcDbXrecord
280
1
1000
Portrait
  0
XRECORD
  5
31D
330
2F4
100
AcDbXrecord
280
1
 40
297.0
  0
XRECORD
  5
31E
330
2F4
100
AcDbXrecord
280
1
 40
210.0
  0
XRECORD
  5
31F
330
2F4
100
AcDbXrecord
280
1
1000
1:1
  0
XRECORD
  5
320
330
2F4
100
AcDbXrecord
280
1
290
1
  0
XRECORD
  5
321
330
2F4
100
AcDbXrecord
280
1
 90
4
  0
ENDSEC
  0
EOF
