999
dxflib 3.3.4.0
  0
SECTION
  2
HEADER
  9
$ACADVER
  1
AC1015
  9
$HANDSEED
  5
FFFF
  9
$ANGBASE
 50
0.0
  9
$ANGDIR
 70
0
  9
$ATTMODE
 70
1
  9
$AUNITS
 70
0
  9
$AUPREC
 70
0
  9
$CECOLOR
 62
178
  9
$CELTSCALE
 40
1.0
  9
$CHAMFERA
 40
0.0
  9
$CHAMFERB
 40
0.0
  9
$CHAMFERC
 40
0.0
  9
$CHAMFERD
 40
0.0
  9
$CMLJUST
 70
0
  9
$CMLSCALE
 40
1.0
  9
$DIMADEC
 70
0
  9
$DIMALT
 70
0
  9
$DIMALTD
 70
2
  9
$DIMALTF
 40
25.3999999999999986
  9
$DIMALTRND
 40
0.0
  9
$DIMALTTD
 70
2
  9
$DIMALTTZ
 70
0
  9
$DIMALTU
 70
2
  9
$DIMALTZ
 70
0
  9
$DIMAPOST
  1

  9
$DIMASZ
 40
2.5
  9
$DIMATFIT
 70
3
  9
$DIMAUNIT
 70
0
  9
$DIMAZIN
 70
2
  9
$DIMBLK
  1

  9
$DIMBLK1
  1

  9
$DIMBLK2
  1

  9
$DIMCEN
 40
0.09
  9
$DIMCLRD
 70
178
  9
$DIMCLRE
 70
178
  9
$DIMCLRT
 70
178
  9
$DIMDEC
 70
4
  9
$DIMDLE
 40
0.0
  9
$DIMDLI
 40
0.38
  9
$DIMDSEP
 70
46
  9
$DIMEXE
 40
1.25
  9
$DIMEXO
 40
0.625
  9
$DIMFRAC
 70
0
  9
$DIMGAP
 40
0.625
  9
$DIMJUST
 70
0
  9
$DIMLDRBLK
  1

  9
$DIMLFAC
 40
1.0
  9
$DIMLIM
 70
0
  9
$DIMLUNIT
 70
2
  9
$DIMLWD
 70
-2
  9
$DIMLWE
 70
-2
  9
$DIMPOST
  1

  9
$DIMRND
 40
0.0
  9
$DIMSAH
 70
0
  9
$DIMSCALE
 40
1.0
  9
$DIMSD1
 70
0
  9
$DIMSD2
 70
0
  9
$DIMSE1
 70
0
  9
$DIMSE2
 70
0
  9
$DIMSOXD
 70
0
  9
$DIMTAD
 70
0
  9
$DIMTDEC
 70
4
  9
$DIMTFAC
 40
1.0
  9
$DIMTIH
 70
1
  9
$DIMTIX
 70
0
  9
$DIMTM
 40
0.0
  9
$DIMTOFL
 70
0
  9
$DIMTOH
 70
1
  9
$DIMTOL
 70
0
  9
$DIMTOLJ
 70
1
  9
$DIMTP
 40
0.0
  9
$DIMTSZ
 40
0.0
  9
$DIMTVP
 40
0.0
  9
$DIMTXSTY
  7
Standard
  9
$DIMTXT
 40
2.5
  9
$DIMTZIN
 70
0
  9
$DIMUPT
 70
0
  9
$DIMZIN
 70
8
  9
$DISPSILH
 70
0
  9
$DWGCODEPAGE
  3
ANSI_1252
  9
$ELEVATION
 40
0.0
  9
$EXTMAX
 10
-100000000000000000000.0
 20
-100000000000000000000.0
 30
-100000000000000000000.0
  9
$EXTMIN
 10
100000000000000000000.0
 20
100000000000000000000.0
 30
100000000000000000000.0
  9
$FILLETRAD
 40
0.5
  9
$FILLMODE
 70
1
  9
$INSBASE
 10
0.0
 20
0.0
 30
0.0
  9
$INSUNITS
 70
4
  9
$LIMCHECK
 70
0
  9
$LIMMAX
 10
12.0
 20
9.0
  9
$LIMMIN
 10
0.0
 20
0.0
  9
$LTSCALE
 40
1.0
  9
$LUNITS
 70
2
  9
$LUPREC
 70
4
  9
$MAXACTVP
 70
64
  9
$MIRRTEXT
 70
1
  9
$ORTHOMODE
 70
0
  9
$PDMODE
 70
0
  9
$PDSIZE
 40
0.0
  9
$PELEVATION
 40
0.0
  9
$PEXTMAX
 10
-100000000000000000000.0
 20
-100000000000000000000.0
 30
-100000000000000000000.0
  9
$PEXTMIN
 10
100000000000000000000.0
 20
100000000000000000000.0
 30
100000000000000000000.0
  9
$PINSBASE
 10
0.0
 20
0.0
 30
0.0
  9
$PLIMCHECK
 70
0
  9
$PLIMMAX
 10
12.0
 20
9.0
  9
$PLIMMIN
 10
0.0
 20
0.0
  9
$PLINEGEN
 70
0
  9
$PLINEWID
 40
0.0
  9
$PROXYGRAPHICS
 70
1
  9
$PSLTSCALE
 70
1
  9
$PUCSNAME
  2

  9
$PUCSORG
 10
0.0
 20
0.0
 30
0.0
  9
$PUCSXDIR
 10
1.0
 20
0.0
 30
0.0
  9
$PUCSYDIR
 10
0.0
 20
1.0
 30
0.0
  9
$QTEXTMODE
 70
0
  9
$REGENMODE
 70
1
  9
$SHADEDGE
 70
3
  9
$SHADEDIF
 70
70
  9
$SKETCHINC
 40
0.1
  9
$SKPOLY
 70
0
  9
$SPLFRAME
 70
0
  9
$SPLINESEGS
 70
8
  9
$SPLINETYPE
 70
6
  9
$SURFTAB1
 70
6
  9
$SURFTAB2
 70
6
  9
$SURFTYPE
 70
6
  9
$SURFU
 70
6
  9
$SURFV
 70
6
  9
$TEXTSIZE
 40
0.2
  9
$TEXTSTYLE
  7
Standard
  9
$THICKNESS
 40
0.0
  9
$TILEMODE
 70
1
  9
$TRACEWID
 40
0.05
  9
$TREEDEPTH
 70
3020
  9
$UCSNAME
  2

  9
$UCSORG
 10
0.0
 20
0.0
 30
0.0
  9
$UCSXDIR
 10
1.0
 20
0.0
 30
0.0
  9
$UCSYDIR
 10
0.0
 20
1.0
 30
0.0
  9
$UNITMODE
 70
0
  9
$USERI1
 70
0
  9
$USERI2
 70
0
  9
$USERI3
 70
0
  9
$USERI4
 70
0
  9
$USERI5
 70
0
  9
$USERR1
 40
0.0
  9
$USERR2
 40
0.0
  9
$USERR3
 40
0.0
  9
$USERR4
 40
0.0
  9
$USERR5
 40
0.0
  9
$USRTIMER
 70
1
  9
$VISRETAIN
 70
1
  0
ENDSEC
  0
SECTION
  2
TABLES
  0
TABLE
  2
VPORT
  5
8
100
AcDbSymbolTable
 70
1
  0
VPORT
  5
30
100
AcDbSymbolTableRecord
100
AcDbViewportTableRecord
  2
*Active
 70
0
 10
0.0
 20
0.0
 11
1.0
 21
1.0
 12
286.3055555555554861
 22
148.5
 13
0.0
 23
0.0
 14
10.0
 24
10.0
 15
10.0
 25
10.0
 16
0.0
 26
0.0
 36
1.0
 17
0.0
 27
0.0
 37
0.0
 40
297.0
 41
1.92798353909465
 42
50.0
 43
0.0
 44
0.0
 50
0.0
 51
0.0
 71
0
 72
100
 73
1
 74
3
 75
1
 76
1
 77
0
 78
0
281
0
 65
1
110
0.0
120
0.0
130
0.0
111
1.0
121
0.0
131
0.0
112
0.0
122
1.0
132
0.0
 79
0
146
0.0
  0
ENDTAB
  0
TABLE
  2
LTYPE
  5
5
100
AcDbSymbolTable
 70
21
  0
LTYPE
  5
16
100
AcDbSymbolTableRecord
100
AcDbLinetypeTableRecord
  2
CONTINUOUS
 70
0
  3
Solid line
 72
65
 73
0
 40
0.0
  0
LTYPE
  5
31
100
AcDbSymbolTableRecord
100
AcDbLinetypeTableRecord
  2
CENTER2
 70
0
  3
Center (.5x) ___ _ ___ _ ___ _ ___ _ ___ _ ___
 72
65
 73
4
 40
28.5749999999999993
 49
19.0500000000000007
 74
0
 49
-3.1749999999999998
 74
0
 49
3.1749999999999998
 74
0
 49
-3.1749999999999998
 74
0
  0
LTYPE
  5
32
100
AcDbSymbolTableRecord
100
AcDbLinetypeTableRecord
  2
DIVIDEX2
 70
0
  3
Divide (2x) ________  .  .  ________  .  .  _
 72
65
 73
6
 40
63.5
 49
25.3999999999999986
 74
0
 49
-12.6999999999999993
 74
0
 49
0.0
 74
0
 49
-12.6999999999999993
 74
0
 49
0.0
 74
0
 49
-12.6999999999999993
 74
0
  0
LTYPE
  5
33
100
AcDbSymbolTableRecord
100
AcDbLinetypeTableRecord
  2
DOT2
 70
0
  3
Dot (.5x) .....................................
 72
65
 73
2
 40
3.1749999999999998
 49
0.0
 74
0
 49
-3.1749999999999998
 74
0
  0
LTYPE
  5
34
100
AcDbSymbolTableRecord
100
AcDbLinetypeTableRecord
  2
DASHDOT2
 70
0
  3
Dash dot (.5x) _._._._._._._._._._._._._._._.
 72
65
 73
4
 40
12.6999999999999993
 49
6.3499999999999996
 74
0
 49
-3.1749999999999998
 74
0
 49
0.0
 74
0
 49
-3.1749999999999998
 74
0
  0
LTYPE
  5
35
100
AcDbSymbolTableRecord
100
AcDbLinetypeTableRecord
  2
DIVIDE
 70
0
  3
Divide ____ . . ____ . . ____ . . ____ . . ____
 72
65
 73
6
 40
31.75
 49
12.6999999999999993
 74
0
 49
-6.3499999999999996
 74
0
 49
0.0
 74
0
 49
-6.3499999999999996
 74
0
 49
0.0
 74
0
 49
-6.3499999999999996
 74
0
  0
LTYPE
  5
36
100
AcDbSymbolTableRecord
100
AcDbLinetypeTableRecord
  2
DASHDOT
 70
0
  3
Dash dot __ . __ . __ . __ . __ . __ . __ . __
 72
65
 73
4
 40
25.3999999999999986
 49
12.6999999999999993
 74
0
 49
-6.3499999999999996
 74
0
 49
0.0
 74
0
 49
-6.3499999999999996
 74
0
  0
LTYPE
  5
37
100
AcDbSymbolTableRecord
100
AcDbLinetypeTableRecord
  2
BORDER
 70
0
  3
Border __ __ . __ __ . __ __ . __ __ . __ __ .
 72
65
 73
6
 40
44.4500000000000028
 49
12.6999999999999993
 74
0
 49
-6.3499999999999996
 74
0
 49
12.6999999999999993
 74
0
 49
-6.3499999999999996
 74
0
 49
0.0
 74
0
 49
-6.3499999999999996
 74
0
  0
LTYPE
  5
38
100
AcDbSymbolTableRecord
100
AcDbLinetypeTableRecord
  2
DASHDOTX2
 70
0
  3
Dash dot (2x) ____  .  ____  .  ____  .  ___
 72
65
 73
4
 40
50.7999999999999972
 49
25.3999999999999986
 74
0
 49
-12.6999999999999993
 74
0
 49
0.0
 74
0
 49
-12.6999999999999993
 74
0
  0
LTYPE
  5
39
100
AcDbSymbolTableRecord
100
AcDbLinetypeTableRecord
  2
CENTERX2
 70
0
  3
Center (2x) ________  __  ________  __  _____
 72
65
 73
4
 40
101.5999999999999943
 49
63.5
 74
0
 49
-12.6999999999999993
 74
0
 49
12.6999999999999993
 74
0
 49
-12.6999999999999993
 74
0
  0
LTYPE
  5
3A
100
AcDbSymbolTableRecord
100
AcDbLinetypeTableRecord
  2
BORDER2
 70
0
  3
Border (.5x) __.__.__.__.__.__.__.__.__.__.__.
 72
65
 73
6
 40
22.2250000000000014
 49
6.3499999999999996
 74
0
 49
-3.1749999999999998
 74
0
 49
6.3499999999999996
 74
0
 49
-3.1749999999999998
 74
0
 49
0.0
 74
0
 49
-3.1749999999999998
 74
0
  0
LTYPE
  5
3B
100
AcDbSymbolTableRecord
100
AcDbLinetypeTableRecord
  2
BORDERX2
 70
0
  3
Border (2x) ____  ____  .  ____  ____  .  ___
 72
65
 73
6
 40
88.9000000000000057
 49
25.3999999999999986
 74
0
 49
-12.6999999999999993
 74
0
 49
25.3999999999999986
 74
0
 49
-12.6999999999999993
 74
0
 49
0.0
 74
0
 49
-12.6999999999999993
 74
0
  0
LTYPE
  5
14
100
AcDbSymbolTableRecord
100
AcDbLinetypeTableRecord
  2
BYBLOCK
 70
0
  3

 72
65
 73
0
 40
0.0
  0
LTYPE
  5
15
100
AcDbSymbolTableRecord
100
AcDbLinetypeTableRecord
  2
BYLAYER
 70
0
  3

 72
65
 73
0
 40
0.0
  0
LTYPE
  5
3C
100
AcDbSymbolTableRecord
100
AcDbLinetypeTableRecord
  2
DASHED2
 70
0
  3
Dashed (.5x) _ _ _ _ _ _ _ _ _ _ _ _ _ _ _ _ _
 72
65
 73
2
 40
9.5250000000000004
 49
6.3499999999999996
 74
0
 49
-3.1749999999999998
 74
0
  0
LTYPE
  5
3D
100
AcDbSymbolTableRecord
100
AcDbLinetypeTableRecord
  2
CENTER
 70
0
  3
Center ____ _ ____ _ ____ _ ____ _ ____ _ ____
 72
65
 73
4
 40
50.7999999999999972
 49
31.75
 74
0
 49
-6.3499999999999996
 74
0
 49
6.3499999999999996
 74
0
 49
-6.3499999999999996
 74
0
  0
LTYPE
  5
3E
100
AcDbSymbolTableRecord
100
AcDbLinetypeTableRecord
  2
DIVIDE2
 70
0
  3
Divide (.5x) __..__..__..__..__..__..__..__.._
 72
65
 73
6
 40
15.875
 49
6.3499999999999996
 74
0
 49
-3.1749999999999998
 74
0
 49
0.0
 74
0
 49
-3.1749999999999998
 74
0
 49
0.0
 74
0
 49
-3.1749999999999998
 74
0
  0
LTYPE
  5
3F
100
AcDbSymbolTableRecord
100
AcDbLinetypeTableRecord
  2
DASHED
 70
0
  3
Dashed __ __ __ __ __ __ __ __ __ __ __ __ __ _
 72
65
 73
2
 40
19.0500000000000007
 49
12.6999999999999993
 74
0
 49
-6.3499999999999996
 74
0
  0
LTYPE
  5
40
100
AcDbSymbolTableRecord
100
AcDbLinetypeTableRecord
  2
DOTX2
 70
0
  3
Dot (2x) .  .  .  .  .  .  .  .  .  .  .  .  .
 72
65
 73
2
 40
12.6999999999999993
 49
0.0
 74
0
 49
-12.6999999999999993
 74
0
  0
LTYPE
  5
41
100
AcDbSymbolTableRecord
100
AcDbLinetypeTableRecord
  2
DASHEDX2
 70
0
  3
Dashed (2x) ____  ____  ____  ____  ____  ___
 72
65
 73
2
 40
38.1000000000000014
 49
25.3999999999999986
 74
0
 49
-12.6999999999999993
 74
0
  0
LTYPE
  5
42
100
AcDbSymbolTableRecord
100
AcDbLinetypeTableRecord
  2
DOT
 70
0
  3
Dot . . . . . . . . . . . . . . . . . . . . . .
 72
65
 73
2
 40
6.3499999999999996
 49
0.0
 74
0
 49
-6.3499999999999996
 74
0
  0
ENDTAB
  0
TABLE
  2
LAYER
  5
2
100
AcDbSymbolTable
 70
5
  0
LAYER
  5
43
100
AcDbSymbolTableRecord
100
AcDbLayerTableRecord
  2
guides
 70
0
 62
1
420
16711680
  6
CONTINUOUS
370
0
390
F
  0
LAYER
  5
44
100
AcDbSymbolTableRecord
100
AcDbLayerTableRecord
  2
dimensions
 70
0
 62
4
420
65535
  6
CONTINUOUS
370
0
390
F
  0
LAYER
  5
45
100
AcDbSymbolTableRecord
100
AcDbLayerTableRecord
  2
parts
 70
0
 62
3
420
65280
  6
CONTINUOUS
370
0
390
F
  0
LAYER
  5
10
100
AcDbSymbolTableRecord
100
AcDbLayerTableRecord
  2
0
 70
0
 62
7
420
16777215
  6
CONTINUOUS
370
0
390
F
  0
LAYER
  5
46
100
AcDbSymbolTableRecord
100
AcDbLayerTableRecord
  2
labels
 70
0
 62
6
420
16711935
  6
CONTINUOUS
370
0
390
F
  0
ENDTAB
  0
TABLE
  2
STYLE
  5
3
100
AcDbSymbolTable
 70
5
  0
STYLE
  5
47
100
AcDbSymbolTableRecord
100
AcDbTextStyleTableRecord
  2
Standard
 70
0
 40
0.0
 41
1.0
 50
0.0
 71
0
 42
2.5
  3

  4

1001
ACAD
1000
txt
1071
0
  0
STYLE
  5
48
100
AcDbSymbolTableRecord
100
AcDbTextStyleTableRecord
  2
textstyle0
 70
0
 40
0.0
 41
1.0
 50
0.0
 71
0
 42
3.0
  3

  4

1001
ACAD
1000
Arial
1071
0
  0
STYLE
  5
49
100
AcDbSymbolTableRecord
100
AcDbTextStyleTableRecord
  2
textstyle1
 70
0
 40
0.0
 41
1.0
 50
0.0
 71
0
 42
3.0
  3

  4

1001
ACAD
1000
Arial
1071
0
  0
STYLE
  5
4A
100
AcDbSymbolTableRecord
100
AcDbTextStyleTableRecord
  2
textstyle2
 70
0
 40
0.0
 41
1.0
 50
0.0
 71
0
 42
3.0
  3

  4

1001
ACAD
1000
Arial
1071
0
  0
STYLE
  5
4B
100
AcDbSymbolTableRecord
100
AcDbTextStyleTableRecord
  2
textstyle3
 70
0
 40
0.0
 41
1.0
 50
0.0
 71
0
 42
3.0
  3

  4

1001
ACAD
1000
Arial
1071
0
  0
ENDTAB
  0
TABLE
  2
VIEW
  5
6
100
AcDbSymbolTable
 70
0
  0
ENDTAB
  0
TABLE
  2
UCS
  5
7
100
AcDbSymbolTable
 70
0
  0
ENDTAB
  0
TABLE
  2
APPID
  5
9
100
AcDbSymbolTable
 70
1
  0
APPID
  5
12
100
AcDbSymbolTableRecord
100
AcDbRegAppTableRecord
  2
ACAD
 70
0
  0
APPID
  5
4C
100
AcDbSymbolTableRecord
100
AcDbRegAppTableRecord
  2
QCAD
 70
0
  0
ENDTAB
  0
TABLE
  2
DIMSTYLE
  5
A
100
AcDbSymbolTable
 70
1
100
AcDbDimStyleTable
 71
0
  0
DIMSTYLE
105
27
100
AcDbSymbolTableRecord
100
AcDbDimStyleTableRecord
  2
Standard
 41
2.5
 42
0.625
 43
3.75
 44
1.25
 70
0
 73
0
 74
0
 77
1
 78
8
140
2.5
141
2.5
143
0.03937007874016
147
0.625
171
3
172
1
271
2
272
2
274
3
278
44
283
0
284
8
340
47
  0
ENDTAB
  0
TABLE
  2
BLOCK_RECORD
  5
1
100
AcDbSymbolTable
 70
1
  0
BLOCK_RECORD
  5
1F
100
AcDbSymbolTableRecord
100
AcDbBlockTableRecord
  2
*Model_Space
340
22
  0
BLOCK_RECORD
  5
1B
100
AcDbSymbolTableRecord
100
AcDbBlockTableRecord
  2
*Paper_Space
340
1E
  0
BLOCK_RECORD
  5
23
100
AcDbSymbolTableRecord
100
AcDbBlockTableRecord
  2
*Paper_Space0
340
26
  0
ENDTAB
  0
ENDSEC
  0
SECTION
  2
BLOCKS
  0
BLOCK
  5
20
100
AcDbEntity
  8
0
100
AcDbBlockBegin
  2
*Model_Space
 70
0
 10
0.0
 20
0.0
 30
0.0
  3
*Model_Space
  1

  0
ENDBLK
  5
21
100
AcDbEntity
  8
0
100
AcDbBlockEnd
  0
BLOCK
  5
1C
100
AcDbEntity
 67
1
  8
0
100
AcDbBlockBegin
  2
*Paper_Space
 70
0
 10
0.0
 20
0.0
 30
0.0
  3
*Paper_Space
  1

  0
ENDBLK
  5
1D
100
AcDbEntity
 67
1
  8
0
100
AcDbBlockEnd
  0
BLOCK
  5
24
100
AcDbEntity
  8
0
100
AcDbBlockBegin
  2
*Paper_Space0
 70
0
 10
0.0
 20
0.0
 30
0.0
  3
*Paper_Space0
  1

  0
ENDBLK
  5
25
100
AcDbEntity
  8
0
100
AcDbBlockEnd
  0
ENDSEC
  0
SECTION
  2
ENTITIES
  0
CIRCLE
  5
4D
100
AcDbEntity
100
AcDbCircle
  8
0
 62
256
370
-1
  6
BYLAYER
 10
40.0
 20
8.0
 30
0.0
 40
1.5
  0
CIRCLE
  5
4E
100
AcDbEntity
100
AcDbCircle
  8
0
 62
256
370
-1
  6
BYLAYER
 10
20.9474411167423682
 20
40.9999999999999716
 30
0.0
 40
1.5
  0
CIRCLE
  5
4F
100
AcDbEntity
100
AcDbCircle
  8
0
 62
256
370
-1
  6
BYLAYER
 10
40.0
 20
52.0
 30
0.0
 40
1.5
  0
CIRCLE
  5
50
100
AcDbEntity
100
AcDbCircle
  8
0
 62
256
370
-1
  6
BYLAYER
 10
59.0525588832576886
 20
18.9999999999999716
 30
0.0
 40
1.5
  0
CIRCLE
  5
51
100
AcDbEntity
100
AcDbCircle
  8
0
 62
256
370
-1
  6
BYLAYER
 10
20.9474411167423682
 20
19.0
 30
0.0
 40
1.5
  0
CIRCLE
  5
52
100
AcDbEntity
100
AcDbCircle
  8
0
 62
256
370
-1
  6
BYLAYER
 10
40.0
 20
30.0
 30
0.0
 40
15.0
  0
CIRCLE
  5
53
100
AcDbEntity
100
AcDbCircle
  8
0
 62
256
370
-1
  6
BYLAYER
 10
59.0525588832576886
 20
40.9999999999999716
 30
0.0
 40
1.5
  0
CIRCLE
  5
54
100
AcDbEntity
100
AcDbCircle
  8
0
 62
256
370
-1
  6
BYLAYER
 10
120.0
 20
-18.0
 30
0.0
 40
1.5
  0
CIRCLE
  5
55
100
AcDbEntity
100
AcDbCircle
  8
0
 62
256
370
-1
  6
BYLAYER
 10
120.0
 20
-62.0
 30
0.0
 40
1.5
  0
CIRCLE
  5
56
100
AcDbEntity
100
AcDbCircle
  8
0
 62
256
370
-1
  6
BYLAYER
 10
139.052558883257575
 20
-51.0000000000000284
 30
0.0
 40
1.5
  0
CIRCLE
  5
57
100
AcDbEntity
100
AcDbCircle
  8
0
 62
256
370
-1
  6
BYLAYER
 10
100.9474411167423114
 20
-29.0
 30
0.0
 40
1.5
  0
CIRCLE
  5
58
100
AcDbEntity
100
AcDbCircle
  8
0
 62
256
370
-1
  6
BYLAYER
 10
100.9474411167423114
 20
-50.9999999999999432
 30
0.0
 40
1.5
  0
CIRCLE
  5
59
100
AcDbEntity
100
AcDbCircle
  8
0
 62
256
370
-1
  6
BYLAYER
 10
139.0525588832576886
 20
-29.0000000000000284
 30
0.0
 40
1.5
  0
ARC
  5
5A
100
AcDbEntity
  8
0
 62
256
370
-1
  6
BYLAYER
100
AcDbCircle
 10
50.3025557922507005
 20
62.6554499200089765
 30
0.0
 40
0.2499999999999972
100
AcDbArc
 50
30.0000000000103135
 51
180.0735651333806118
  0
ARC
  5
5B
100
AcDbEntity
  8
0
 62
256
370
-1
  6
BYLAYER
100
AcDbCircle
 10
46.5525588832578023
 20
62.6506350946109762
 30
0.0
 40
3.4999999999999654
100
AcDbArc
 50
119.9264348666148123
 51
0.0735651333855516
  0
ARC
  5
5C
100
AcDbEntity
  8
0
 62
256
370
-1
  6
BYLAYER
100
AcDbCircle
 10
44.681730189870791
 20
65.9006350946109194
 30
0.0
 40
0.2500000000000033
100
AcDbArc
 50
299.9264348666208093
 51
90.0
  0
LINE
  5
5D
100
AcDbEntity
100
AcDbLine
  8
0
 62
256
370
-1
  6
BYLAYER
 10
44.681730189870791
 20
66.1506350946109478
 30
0.0
 11
35.3182698101293227
 21
66.1506350946109478
 31
0.0
  0
ARC
  5
5E
100
AcDbEntity
  8
0
 62
256
370
-1
  6
BYLAYER
100
AcDbCircle
 10
35.3182698101293227
 20
65.9006350946109478
 30
0.0
 40
0.2499999999999957
100
AcDbArc
 50
90.0
 51
240.0735651333937142
  0
ARC
  5
5F
100
AcDbEntity
  8
0
 62
256
370
-1
  6
BYLAYER
100
AcDbCircle
 10
33.447441116742425
 20
62.6506350946109478
 30
0.0
 40
3.499999999999992
100
AcDbArc
 50
179.9264348666144429
 51
60.0735651333862251
  0
ARC
  5
60
100
AcDbEntity
  8
0
 62
256
370
-1
  6
BYLAYER
100
AcDbCircle
 10
29.69744420774947
 20
62.6554499200089481
 30
0.0
 40
0.2500000000000246
100
AcDbArc
 50
359.9264348666194451
 51
150.0000000000027285
  0
LINE
  5
61
100
AcDbEntity
100
AcDbLine
  8
0
 62
256
370
-1
  6
BYLAYER
 10
29.4809378568033367
 20
62.7804499200089481
 30
0.0
 11
6.3517665501902911
 21
22.7195500799909951
 31
0.0
  0
ARC
  5
62
100
AcDbEntity
  8
0
 62
256
370
-1
  6
BYLAYER
100
AcDbCircle
 10
6.5682729011364245
 20
22.5945500799909951
 30
0.0
 40
0.2500000000000216
100
AcDbArc
 50
150.0000000000027285
 51
300.0735651333844203
  0
ARC
  5
63
100
AcDbEntity
  8
0
 62
256
370
-1
  6
BYLAYER
100
AcDbCircle
 10
8.447441116742425
 20
19.3493649053890238
 30
0.0
 40
3.5000000000000009
100
AcDbArc
 50
239.9264348666146134
 51
120.0735651333866372
  0
ARC
  5
64
100
AcDbEntity
  8
0
 62
256
370
-1
  6
BYLAYER
100
AcDbCircle
 10
6.5682729011364245
 20
16.104179730787024
 30
0.0
 40
0.2500000000000103
100
AcDbArc
 50
59.926434866601042
 51
210.0000000000037801
  0
LINE
  5
65
100
AcDbEntity
100
AcDbLine
  8
0
 62
256
370
-1
  6
BYLAYER
 10
6.351766550190348
 20
15.979179730787024
 30
0.0
 11
11.0334967400609685
 21
7.8701851746019429
 31
0.0
  0
ARC
  5
66
100
AcDbEntity
  8
0
 62
256
370
-1
  6
BYLAYER
100
AcDbCircle
 10
11.250003091007045
 20
7.9951851746019713
 30
0.0
 40
0.2500000000000038
100
AcDbArc
 50
210.000000000009436
 51
0.0735651333805973
  0
ARC
  5
67
100
AcDbEntity
  8
0
 62
256
370
-1
  6
BYLAYER
100
AcDbCircle
 10
15.0
 20
8.0
 30
0.0
 40
3.5000000000000182
100
AcDbArc
 50
299.9264348666145565
 51
180.0735651333855287
  0
ARC
  5
68
100
AcDbEntity
  8
0
 62
256
370
-1
  6
BYLAYER
100
AcDbCircle
 10
16.8708286933870113
 20
4.7500000000000284
 30
0.0
 40
0.2500000000000032
100
AcDbArc
 50
119.9264348666208377
 51
270.0
  0
LINE
  5
69
100
AcDbEntity
100
AcDbLine
  8
0
 62
256
370
-1
  6
BYLAYER
 10
16.8708286933870113
 20
4.5
 30
0.0
 11
63.1291713066131024
 21
4.5
 31
0.0
  0
ARC
  5
6A
100
AcDbEntity
  8
0
 62
256
370
-1
  6
BYLAYER
100
AcDbCircle
 10
63.1291713066131024
 20
4.75
 30
0.0
 40
0.2499999999999883
100
AcDbArc
 50
270.0
 51
60.0735651334050047
  0
ARC
  5
6B
100
AcDbEntity
  8
0
 62
256
370
-1
  6
BYLAYER
100
AcDbCircle
 10
65.0
 20
8.0000000000000284
 30
0.0
 40
3.5000000000000218
100
AcDbArc
 50
359.9264348666144429
 51
240.0735651333856424
  0
ARC
  5
6C
100
AcDbEntity
  8
0
 62
256
370
-1
  6
BYLAYER
100
AcDbCircle
 10
68.7499969089930119
 20
7.9951851746019713
 30
0.0
 40
0.2499999999999971
100
AcDbArc
 50
179.9264348666193882
 51
329.9999999999897113
  0
LINE
  5
6D
100
AcDbEntity
100
AcDbLine
  8
0
 62
256
370
-1
  6
BYLAYER
 10
68.9665032599390315
 20
7.8701851746019713
 30
0.0
 11
73.6482334498097089
 21
15.9791797307869956
 31
0.0
  0
ARC
  5
6E
100
AcDbEntity
  8
0
 62
256
370
-1
  6
BYLAYER
100
AcDbCircle
 10
73.4317270988635755
 20
16.1041797307869956
 30
0.0
 40
0.2499999999999896
100
AcDbArc
 50
330.0000000000027285
 51
120.0735651333764338
  0
ARC
  5
6F
100
AcDbEntity
  8
0
 62
256
370
-1
  6
BYLAYER
100
AcDbCircle
 10
71.5525588832576886
 20
19.3493649053889953
 30
0.0
 40
3.5000000000000102
100
AcDbArc
 50
59.9264348666143931
 51
300.0735651333853866
  0
ARC
  5
70
100
AcDbEntity
  8
0
 62
256
370
-1
  6
BYLAYER
100
AcDbCircle
 10
73.4317270988635755
 20
22.5945500799909382
 30
0.0
 40
0.2499999999999894
100
AcDbArc
 50
239.9264348666203261
 51
30.0000000000029168
  0
LINE
  5
71
100
AcDbEntity
100
AcDbLine
  8
0
 62
256
370
-1
  6
BYLAYER
 10
73.6482334498097089
 20
22.7195500799909667
 30
0.0
 11
50.5190621431967202
 21
62.7804499200089765
 31
0.0
  0
LINE
  5
72
100
AcDbEntity
100
AcDbLine
  8
guides
 62
256
370
-1
  6
BYLAYER
 10
46.5525588832578023
 20
62.6506350946109762
 30
0.0
 11
33.447441116742425
 21
62.6506350946109478
 31
0.0
  0
LINE
  5
73
100
AcDbEntity
100
AcDbLine
  8
guides
 62
256
370
-1
  6
BYLAYER
 10
33.447441116742425
 20
62.6506350946109478
 30
0.0
 11
8.447441116742425
 21
19.3493649053890238
 31
0.0
  0
LINE
  5
74
100
AcDbEntity
100
AcDbLine
  8
guides
 62
256
370
-1
  6
BYLAYER
 10
8.447441116742425
 20
19.3493649053890238
 30
0.0
 11
15.0
 21
8.0
 31
0.0
  0
LINE
  5
75
100
AcDbEntity
100
AcDbLine
  8
guides
 62
256
370
-1
  6
BYLAYER
 10
15.0
 20
8.0
 30
0.0
 11
65.0
 21
8.0000000000000284
 31
0.0
  0
LINE
  5
76
100
AcDbEntity
100
AcDbLine
  8
guides
 62
256
370
-1
  6
BYLAYER
 10
65.0
 20
8.0000000000000284
 30
0.0
 11
71.5525588832576886
 21
19.3493649053889953
 31
0.0
  0
LINE
  5
77
100
AcDbEntity
100
AcDbLine
  8
guides
 62
256
370
-1
  6
BYLAYER
 10
71.5525588832576886
 20
19.3493649053889953
 30
0.0
 11
46.5525588832578023
 21
62.6506350946109762
 31
0.0
  0
DIMENSION
  5
78
100
AcDbEntity
  8
dimensions
 62
256
370
-1
  6
BYLAYER
100
AcDbDimension
 10
46.5525588832576886
 20
69.3253175473055308
 30
0.0
 11
49.1220033277021315
 21
71.2003175473056302
 31
0.0
 70
1
 71
8
 72
2
 41
1.0
 42
0.0
  1

  3
Standard
100
AcDbAlignedDimension
 13
46.5525588832576886
 23
62.6506350946109478
 33
0.0
 14
43.0525588832578023
 24
62.6506350946111468
 34
0.0
1001
ACAD
1000
DSTYLE
1002
{
1070
144
1040
1
1002
}
  0
DIMENSION
  5
79
100
AcDbEntity
  8
dimensions
 62
256
370
-1
  6
BYLAYER
100
AcDbDimension
 10
67.0
 20
62.6506350946119355
 30
0.0
 11
65.124999999999801
 21
68.7200795390563712
 31
0.0
 70
1
 71
8
 72
2
 41
1.0
 42
0.0
  1

  3
Standard
100
AcDbAlignedDimension
 13
40.0000000000001208
 23
62.6506350946110047
 33
0.0
 14
40.0
 24
66.1506350946110615
 34
0.0
1001
ACAD
1000
DSTYLE
1002
{
1070
144
1040
1
1002
}
  0
ARC
  5
7A
100
AcDbEntity
  8
0
 62
256
370
-1
  6
BYLAYER
100
AcDbCircle
 10
120.0
 20
-40.0
 30
0.0
 40
6.0
100
AcDbArc
 50
90.0
 51
270.0
  0
LINE
  5
7B
100
AcDbEntity
100
AcDbLine
  8
0
 62
256
370
-1
  6
BYLAYER
 10
120.0
 20
-34.0
 30
0.0
 11
144.7840674627874478
 21
-34.0
 31
0.0
  0
LINE
  5
7C
100
AcDbEntity
100
AcDbLine
  8
0
 62
256
370
-1
  6
BYLAYER
 10
120.0
 20
-46.0
 30
0.0
 11
144.7840674627874478
 21
-46.0
 31
0.0
  0
CIRCLE
  5
7D
100
AcDbEntity
100
AcDbCircle
  8
0
 62
256
370
-1
  6
BYLAYER
 10
147.9999999999999716
 20
29.9999999999999822
 30
0.0
 40
1.5
  0
CIRCLE
  5
7E
100
AcDbEntity
100
AcDbCircle
  8
0
 62
256
370
-1
  6
BYLAYER
 10
158.9999999999999432
 20
10.9474411167423824
 30
0.0
 40
1.5
  0
CIRCLE
  5
7F
100
AcDbEntity
100
AcDbCircle
  8
0
 62
256
370
-1
  6
BYLAYER
 10
159.0
 20
49.0525588832576531
 30
0.0
 40
1.5
  0
ARC
  5
80
100
AcDbEntity
  8
0
 62
256
370
-1
  6
BYLAYER
100
AcDbCircle
 10
120.0
 20
-40.0
 30
0.0
 40
25.5
100
AcDbArc
 50
13.6089606307829154
 51
346.3910393692170828
  0
LINE
  5
81
100
AcDbEntity
100
AcDbLine
  8
guides
 62
256
370
-1
  6
BYLAYER
 10
170.0
 20
60.0
 30
0.0
 11
170.0
 21
0.0
 31
0.0
  0
LINE
  5
82
100
AcDbEntity
100
AcDbLine
  8
0
 62
256
370
-1
  6
BYLAYER
 10
170.0
 20
4.5
 30
0.0
 11
179.6265854749753146
 21
23.2718416762018521
 31
0.0
  0
LINE
  5
83
100
AcDbEntity
100
AcDbLine
  8
0
 62
256
370
-1
  6
BYLAYER
 10
179.6265854749753146
 20
36.7281583237981479
 30
0.0
 11
170.0
 21
55.5
 31
0.0
  0
LINE
  5
84
100
AcDbEntity
100
AcDbLine
  8
0
 62
256
370
-1
  6
BYLAYER
 10
170.0
 20
36.0
 30
0.0
 11
179.1816767435689144
 21
36.0
 31
0.0
  0
LINE
  5
85
100
AcDbEntity
100
AcDbLine
  8
0
 62
256
370
-1
  6
BYLAYER
 10
170.0
 20
24.0
 30
0.0
 11
179.1816767435689144
 21
24.0
 31
0.0
  0
ARC
  5
86
100
AcDbEntity
  8
0
 62
256
370
-1
  6
BYLAYER
100
AcDbCircle
 10
170.0
 20
30.0
 30
0.0
 40
6.0
100
AcDbArc
 50
90.0
 51
270.0
  0
ARC
  5
87
100
AcDbEntity
  8
0
 62
256
370
-1
  6
BYLAYER
100
AcDbCircle
 10
170.0
 20
30.0
 30
0.0
 40
25.5
100
AcDbArc
 50
90.0
 51
270.0
  0
ARC
  5
88
100
AcDbEntity
  8
0
 62
256
370
-1
  6
BYLAYER
100
AcDbCircle
 10
179.1816767435689144
 20
36.5
 30
0.0
 40
0.5
100
AcDbArc
 50
270.0
 51
27.1496816977825581
  0
ARC
  5
89
100
AcDbEntity
  8
0
 62
256
370
-1
  6
BYLAYER
100
AcDbCircle
 10
179.1816767435689144
 20
23.5
 30
0.0
 40
0.5
100
AcDbArc
 50
332.8503183022170901
 51
90.0
  0
ARC
  5
8A
100
AcDbEntity
  8
0
 62
256
370
-1
  6
BYLAYER
100
AcDbCircle
 10
190.7141016151377642
 20
24.5
 30
0.0
 40
0.5
100
AcDbArc
 50
122.2042275039720636
 51
270.0
  0
LINE
  5
8B
100
AcDbEntity
100
AcDbLine
  8
0
 62
256
370
-1
  6
BYLAYER
 10
190.7141016151377642
 20
24.0
 30
0.0
 11
196.4316767435689428
 21
24.0
 31
0.0
  0
ARC
  5
8C
100
AcDbEntity
  8
0
 62
256
370
-1
  6
BYLAYER
100
AcDbCircle
 10
187.25
 20
30.0
 30
0.0
 40
25.5
100
AcDbArc
 50
270.0
 51
90.0
  0
LINE
  5
8D
100
AcDbEntity
100
AcDbLine
  8
0
 62
256
370
-1
  6
BYLAYER
 10
187.25
 20
4.5
 30
0.0
 11
196.8765854749753146
 21
23.2718416762018592
 31
0.0
  0
ARC
  5
8E
100
AcDbEntity
  8
0
 62
256
370
-1
  6
BYLAYER
100
AcDbCircle
 10
187.25
 20
30.0
 30
0.0
 40
6.0
100
AcDbArc
 50
302.204227503972163
 51
57.795772496027908
  0
LINE
  5
8F
100
AcDbEntity
100
AcDbLine
  8
0
 62
256
370
-1
  6
BYLAYER
 10
196.8765854749753146
 20
36.7281583237981408
 30
0.0
 11
187.25
 21
55.5
 31
0.0
  0
CIRCLE
  5
90
100
AcDbEntity
100
AcDbCircle
  8
0
 62
256
370
-1
  6
BYLAYER
 10
198.25
 20
10.9474411167423504
 30
0.0
 40
1.5
  0
CIRCLE
  5
91
100
AcDbEntity
100
AcDbCircle
  8
0
 62
256
370
-1
  6
BYLAYER
 10
209.2499999999999432
 20
29.9999999999999361
 30
0.0
 40
1.5
  0
CIRCLE
  5
92
100
AcDbEntity
100
AcDbCircle
  8
0
 62
256
370
-1
  6
BYLAYER
 10
198.2500000000000568
 20
49.052558883257646
 30
0.0
 40
1.5
  0
ARC
  5
93
100
AcDbEntity
  8
0
 62
256
370
-1
  6
BYLAYER
100
AcDbCircle
 10
196.4316767435689428
 20
23.5
 30
0.0
 40
0.5
100
AcDbArc
 50
332.8503183022166922
 51
90.0
  0
ARC
  5
94
100
AcDbEntity
  8
0
 62
256
370
-1
  6
BYLAYER
100
AcDbCircle
 10
196.4316767435689428
 20
36.5
 30
0.0
 40
0.5
100
AcDbArc
 50
270.0
 51
27.1496816977833149
  0
ARC
  5
95
100
AcDbEntity
  8
0
 62
256
370
-1
  6
BYLAYER
100
AcDbCircle
 10
190.7141016151377642
 20
35.5
 30
0.0
 40
0.5
100
AcDbArc
 50
90.0
 51
237.7957724960279506
  0
LINE
  5
96
100
AcDbEntity
100
AcDbLine
  8
0
 62
256
370
-1
  6
BYLAYER
 10
190.7141016151377642
 20
36.0
 30
0.0
 11
196.4316767435689428
 21
36.0
 31
0.0
  0
MTEXT
  5
97
100
AcDbEntity
100
AcDbMText
  8
labels
 62
256
370
-1
  6
BYLAYER
 10
16.7285043667048541
 20
-0.0772099185524979
 30
0.0
 40
3.0
 41
0.0
 71
1
 72
1
  1
Effector plate (1 required)
  7
textstyle1
 50
0.0
 73
2
 44
1.0
  0
MTEXT
  5
98
100
AcDbEntity
100
AcDbMText
  8
labels
 62
256
370
-1
  6
BYLAYER
 10
150.0
 20
0.0
 30
0.0
 40
3.0
 41
0.0
 71
1
 72
1
  1
HotEnd mount (2 of each part required)
  7
textstyle2
 50
0.0
 73
2
 44
1.0
  0
MTEXT
  5
99
100
AcDbEntity
100
AcDbMText
  8
labels
 62
256
370
-1
  6
BYLAYER
 10
100.0
 20
-70.0
 30
0.0
 40
3.0
 41
0.0
 71
1
 72
1
  1
Previous HotEnd mount - unused
  7
textstyle3
 50
0.0
 73
2
 44
1.0
  0
LINE
  5
9A
100
AcDbEntity
100
AcDbLine
  8
0
 62
256
370
-1
  6
BYLAYER
 10
270.0
 20
24.0000000000000071
 30
0.0
 11
279.1816767435689144
 21
24.0000000000000071
 31
0.0
  0
ARC
  5
9B
100
AcDbEntity
  8
0
 62
256
370
-1
  6
BYLAYER
100
AcDbCircle
 10
270.0
 20
30.0000000000000071
 30
0.0
 40
6.0
100
AcDbArc
 50
90.0
 51
270.0
  0
ARC
  5
9C
100
AcDbEntity
  8
0
 62
256
370
-1
  6
BYLAYER
100
AcDbCircle
 10
279.1816767435689144
 20
36.5000000000000071
 30
0.0
 40
0.5
100
AcDbArc
 50
270.0
 51
27.1496816977825581
  0
ARC
  5
9D
100
AcDbEntity
  8
0
 62
256
370
-1
  6
BYLAYER
100
AcDbCircle
 10
279.1816767435689144
 20
23.5000000000000071
 30
0.0
 40
0.5
100
AcDbArc
 50
332.8503183022170901
 51
90.0
  0
CIRCLE
  5
9E
100
AcDbEntity
100
AcDbCircle
  8
0
 62
256
370
-1
  6
BYLAYER
 10
247.9999999999999716
 20
29.9999999999999893
 30
0.0
 40
1.5
  0
CIRCLE
  5
9F
100
AcDbEntity
100
AcDbCircle
  8
0
 62
256
370
-1
  6
BYLAYER
 10
258.9999999999999432
 20
10.9474411167423895
 30
0.0
 40
1.5
  0
CIRCLE
  5
A0
100
AcDbEntity
100
AcDbCircle
  8
0
 62
256
370
-1
  6
BYLAYER
 10
259.0
 20
49.0525588832576602
 30
0.0
 40
1.5
  0
LINE
  5
A1
100
AcDbEntity
100
AcDbLine
  8
guides
 62
256
370
-1
  6
BYLAYER
 10
270.0
 20
60.0000000000000071
 30
0.0
 11
270.0
 21
0.0000000000000071
 31
0.0
  0
LINE
  5
A2
100
AcDbEntity
100
AcDbLine
  8
0
 62
256
370
-1
  6
BYLAYER
 10
270.0
 20
4.5000000000000071
 30
0.0
 11
279.6265854749752862
 21
23.2718416762018592
 31
0.0
  0
LINE
  5
A3
100
AcDbEntity
100
AcDbLine
  8
0
 62
256
370
-1
  6
BYLAYER
 10
279.6265854749752862
 20
36.728158323798155
 30
0.0
 11
270.0
 21
55.5000000000000071
 31
0.0
  0
LINE
  5
A4
100
AcDbEntity
100
AcDbLine
  8
0
 62
256
370
-1
  6
BYLAYER
 10
270.0
 20
36.0000000000000071
 30
0.0
 11
279.1816767435689144
 21
36.0000000000000071
 31
0.0
  0
LINE
  5
A5
100
AcDbEntity
100
AcDbLine
  8
guides
 62
256
370
-1
  6
BYLAYER
 10
130.0
 20
30.0
 30
0.0
 11
230.0
 21
30.0
 31
0.0
  0
LINE
  5
A6
100
AcDbEntity
100
AcDbLine
  8
guides
 62
256
370
-1
  6
BYLAYER
 10
130.0
 20
30.0
 30
0.0
 11
230.0
 21
30.0
 31
0.0
  0
LINE
  5
A7
100
AcDbEntity
100
AcDbLine
  8
guides
 62
256
370
-1
  6
BYLAYER
 10
130.0
 20
30.0
 30
0.0
 11
230.0
 21
30.0
 31
0.0
  0
LINE
  5
A8
100
AcDbEntity
100
AcDbLine
  8
guides
 62
256
370
-1
  6
BYLAYER
 10
270.0
 20
30.0000000000000071
 30
0.0
 11
243.1188914712244866
 21
76.5594457356122575
 31
0.0
  0
CIRCLE
  5
A9
100
AcDbEntity
100
AcDbCircle
  8
guides
 62
256
370
-1
  6
BYLAYER
 10
270.0
 20
30.0
 30
0.0
 40
34.5
  0
CIRCLE
  5
AA
100
AcDbEntity
100
AcDbCircle
  8
0
 62
256
370
-1
  6
BYLAYER
 10
252.75
 20
59.8778764305631412
 30
0.0
 40
6.0
  0
LINE
  5
AB
100
AcDbEntity
100
AcDbLine
  8
0
 62
256
370
-1
  6
BYLAYER
 10
270.0
 20
55.5000000000000071
 30
0.0
 11
263.4082656738992227
 21
65.3916204239474723
 31
0.0
  0
LINE
  5
AC
100
AcDbEntity
100
AcDbLine
  8
0
 62
256
370
-1
  6
BYLAYER
 10
246.9462378924861241
 20
45.9302872758201701
 30
0.0
 11
242.357695154586736
 21
53.8778764305631412
 31
0.0
  0
ARC
  5
AD
100
AcDbEntity
  8
0
 62
256
370
-1
  6
BYLAYER
100
AcDbCircle
 10
252.75
 20
59.8778764305631412
 30
0.0
 40
12.0
100
AcDbArc
 50
27.353471895883338
 51
209.9999999999999716
  0
ARC
  5
AE
100
AcDbEntity
  8
0
 62
256
370
-1
  6
BYLAYER
100
AcDbCircle
 10
270.0
 20
30.0000000000000071
 30
0.0
 40
25.5
100
AcDbArc
 50
153.8745966015326587
 51
270.0
  0
ARC
  5
AF
100
AcDbEntity
  8
0
 62
256
370
-1
  6
BYLAYER
100
AcDbCircle
 10
242.6161108735639402
 20
43.4302872758201701
 30
0.0
 40
5.0
100
AcDbArc
 50
333.8745966015326303
 51
29.9999999999999787
  0
MTEXT
  5
B0
100
AcDbEntity
100
AcDbMText
  8
labels
 62
256
370
-1
  6
BYLAYER
 10
243.7889768076398411
 20
-8.0334242837652816
 30
0.0
 40
3.0
 41
0.0
 71
1
 72
1
  1
Optional induction proximity sensor mount
  7
textstyle0
 50
0.0
 73
2
 44
1.0
  0
ENDSEC
  0
SECTION
  2
OBJECTS
  0
DICTIONARY
  5
C
100
AcDbDictionary
280
0
281
1
  3
ACAD_GROUP
350
D
  3
ACAD_LAYOUT
350
1A
  3
ACAD_MLINESTYLE
350
17
  3
ACAD_PLOTSETTINGS
350
19
  3
ACAD_PLOTSTYLENAME
350
E
  3
AcDbVariableDictionary
350
B1
  3
QCAD_OBJECTS
350
B2
  0
DICTIONARY
  5
D
100
AcDbDictionary
280
0
281
1
  0
ACDBDICTIONARYWDFLT
  5
E
100
AcDbDictionary
281
1
  3
Normal
350
F
100
AcDbDictionaryWithDefault
340
F
  0
ACDBPLACEHOLDER
  5
F
  0
DICTIONARY
  5
17
100
AcDbDictionary
280
0
281
1
  3
Standard
350
18
  0
MLINESTYLE
  5
18
100
AcDbMlineStyle
  2
STANDARD
 70
0
  3

 62
256
 51
90.0
 52
90.0
 71
2
 49
0.5
 62
256
  6
BYLAYER
 49
-0.5
 62
256
  6
BYLAYER
  0
DICTIONARY
  5
19
100
AcDbDictionary
280
0
281
1
  0
DICTIONARY
  5
1A
100
AcDbDictionary
281
1
  3
Layout1
350
1E
  3
Layout2
350
26
  3
Model
350
22
  0
LAYOUT
  5
1E
100
AcDbPlotSettings
  1

  2
none_device
  4

  6

 40
0.0
 41
0.0
 42
0.0
 43
0.0
 44
0.0
 45
0.0
 46
0.0
 47
0.0
 48
0.0
 49
0.0
140
0.0
141
0.0
142
1.0
143
1.0
 70
688
 72
0
 73
0
 74
5
  7

 75
16
147
1.0
148
0.0
149
0.0
100
AcDbLayout
  1
Layout1
 70
1
 71
1
 10
0.0
 20
0.0
 11
420.0
 21
297.0
 12
0.0
 22
0.0
 32
0.0
 14
100000000000000000000.0
 24
100000000000000000000.0
 34
100000000000000000000.0
 15
-100000000000000000000.0
 25
-100000000000000000000.0
 35
-100000000000000000000.0
146
0.0
 13
0.0
 23
0.0
 33
0.0
 16
1.0
 26
0.0
 36
0.0
 17
0.0
 27
1.0
 37
0.0
 76
0
330
1B
  0
LAYOUT
  5
22
100
AcDbPlotSettings
  1

  2
none_device
  4

  6

 40
0.0
 41
0.0
 42
0.0
 43
0.0
 44
0.0
 45
0.0
 46
0.0
 47
0.0
 48
0.0
 49
0.0
140
0.0
141
0.0
142
1.0
143
1.0
 70
1712
 72
0
 73
0
 74
0
  7

 75
0
147
1.0
148
0.0
149
0.0
100
AcDbLayout
  1
Model
 70
1
 71
0
 10
0.0
 20
0.0
 11
12.0
 21
9.0
 12
0.0
 22
0.0
 32
0.0
 14
0.0
 24
0.0
 34
0.0
 15
0.0
 25
0.0
 35
0.0
146
0.0
 13
0.0
 23
0.0
 33
0.0
 16
1.0
 26
0.0
 36
0.0
 17
0.0
 27
1.0
 37
0.0
 76
0
330
1F
  0
LAYOUT
  5
26
100
AcDbPlotSettings
  1

  2
none_device
  4

  6

 40
0.0
 41
0.0
 42
0.0
 43
0.0
 44
0.0
 45
0.0
 46
0.0
 47
0.0
 48
0.0
 49
0.0
140
0.0
141
0.0
142
1.0
143
1.0
 70
688
 72
0
 73
0
 74
5
  7

 75
16
147
1.0
148
0.0
149
0.0
100
AcDbLayout
  1
Layout2
 70
1
 71
2
 10
0.0
 20
0.0
 11
12.0
 21
9.0
 12
0.0
 22
0.0
 32
0.0
 14
0.0
 24
0.0
 34
0.0
 15
0.0
 25
0.0
 35
0.0
146
0.0
 13
0.0
 23
0.0
 33
0.0
 16
1.0
 26
0.0
 36
0.0
 17
0.0
 27
1.0
 37
0.0
 76
0
330
23
  0
DICTIONARY
  5
B1
100
AcDbDictionary
281
1
  3
DIMASSOC
350
B4
  3
HIDETEXT
350
B3
  0
DICTIONARYVAR
  5
B3
100
DictionaryVariables
280
0
  1
2
  0
DICTIONARYVAR
  5
B4
100
DictionaryVariables
280
0
  1
1
  0
DICTIONARY
  5
B2
100
AcDbDictionary
281
1
  3
Grid/DisplayGrid00
350
B5
  3
Grid/DisplayGrid01
350
B6
  3
Grid/DisplayGrid02
350
B7
  3
Grid/DisplayGrid03
350
B8
  3
Grid/GridSpacingX00
350
B9
  3
Grid/GridSpacingX01
350
BA
  3
Grid/GridSpacingX02
350
BB
  3
Grid/GridSpacingX03
350
BC
  3
Grid/GridSpacingY00
350
BD
  3
Grid/GridSpacingY01
350
BE
  3
Grid/GridSpacingY02
350
BF
  3
Grid/GridSpacingY03
350
C0
  3
Grid/IsometricGrid00
350
C1
  3
Grid/IsometricGrid01
350
C2
  3
Grid/IsometricGrid02
350
C3
  3
Grid/IsometricGrid03
350
C4
  3
Grid/IsometricProjection00
350
C5
  3
Grid/IsometricProjection01
350
C6
  3
Grid/IsometricProjection02
350
C7
  3
Grid/IsometricProjection03
350
C8
  3
Grid/MetaGridSpacingX00
350
C9
  3
Grid/MetaGridSpacingX01
350
CA
  3
Grid/MetaGridSpacingX02
350
CB
  3
Grid/MetaGridSpacingX03
350
CC
  3
Grid/MetaGridSpacingY00
350
CD
  3
Grid/MetaGridSpacingY01
350
CE
  3
Grid/MetaGridSpacingY02
350
CF
  3
Grid/MetaGridSpacingY03
350
D0
  3
MultiPageSettings/Columns
350
D1
  3
MultiPageSettings/GlueMarginsBottom
350
D2
  3
MultiPageSettings/GlueMarginsLeft
350
D3
  3
MultiPageSettings/GlueMarginsRight
350
D4
  3
MultiPageSettings/GlueMarginsTop
350
D5
  3
MultiPageSettings/PrintCropMarks
350
D6
  3
MultiPageSettings/Rows
350
D7
  3
PageSettings/OffsetX
350
D8
  3
PageSettings/OffsetY
350
D9
  3
PageSettings/PageOrientation
350
DA
  3
PageSettings/PaperHeight
350
DB
  3
PageSettings/PaperWidth
350
DC
  3
PageSettings/Scale
350
DD
  3
PageSettings/ShowPaperBorders
350
DE
  3
UnitSettings/PaperUnit
350
DF
  0
XRECORD
  5
B5
330
B2
100
AcDbXrecord
280
1
290
1
  0
XRECORD
  5
B6
330
B2
100
AcDbXrecord
280
1
290
1
  0
XRECORD
  5
B7
330
B2
100
AcDbXrecord
280
1
290
1
  0
XRECORD
  5
B8
330
B2
100
AcDbXrecord
280
1
290
1
  0
XRECORD
  5
B9
330
B2
100
AcDbXrecord
280
1
1000
auto
  0
XRECORD
  5
BA
330
B2
100
AcDbXrecord
280
1
1000
auto
  0
XRECORD
  5
BB
330
B2
100
AcDbXrecord
280
1
1000
auto
  0
XRECORD
  5
BC
330
B2
100
AcDbXrecord
280
1
1000
auto
  0
XRECORD
  5
BD
330
B2
100
AcDbXrecord
280
1
1000
auto
  0
XRECORD
  5
BE
330
B2
100
AcDbXrecord
280
1
1000
auto
  0
XRECORD
  5
BF
330
B2
100
AcDbXrecord
280
1
1000
auto
  0
XRECORD
  5
C0
330
B2
100
AcDbXrecord
280
1
1000
auto
  0
XRECORD
  5
C1
330
B2
100
AcDbXrecord
280
1
290
0
  0
XRECORD
  5
C2
330
B2
100
AcDbXrecord
280
1
290
0
  0
XRECORD
  5
C3
330
B2
100
AcDbXrecord
280
1
290
0
  0
XRECORD
  5
C4
330
B2
100
AcDbXrecord
280
1
290
0
  0
XRECORD
  5
C5
330
B2
100
AcDbXrecord
280
1
 90
0
  0
XRECORD
  5
C6
330
B2
100
AcDbXrecord
280
1
 90
0
  0
XRECORD
  5
C7
330
B2
100
AcDbXrecord
280
1
 90
0
  0
XRECORD
  5
C8
330
B2
100
AcDbXrecord
280
1
 90
0
  0
XRECORD
  5
C9
330
B2
100
AcDbXrecord
280
1
1000
auto
  0
XRECORD
  5
CA
330
B2
100
AcDbXrecord
280
1
1000
auto
  0
XRECORD
  5
CB
330
B2
100
AcDbXrecord
280
1
1000
auto
  0
XRECORD
  5
CC
330
B2
100
AcDbXrecord
280
1
1000
auto
  0
XRECORD
  5
CD
330
B2
100
AcDbXrecord
280
1
1000
auto
  0
XRECORD
  5
CE
330
B2
100
AcDbXrecord
280
1
1000
auto
  0
XRECORD
  5
CF
330
B2
100
AcDbXrecord
280
1
1000
auto
  0
XRECORD
  5
D0
330
B2
100
AcDbXrecord
280
1
1000
auto
  0
XRECORD
  5
D1
330
B2
100
AcDbXrecord
280
1
 90
1
  0
XRECORD
  5
D2
330
B2
100
AcDbXrecord
280
1
 40
10.0
  0
XRECORD
  5
D3
330
B2
100
AcDbXrecord
280
1
 40
10.0
  0
XRECORD
  5
D4
330
B2
100
AcDbXrecord
280
1
 40
10.0
  0
XRECORD
  5
D5
330
B2
100
AcDbXrecord
280
1
 40
10.0
  0
XRECORD
  5
D6
330
B2
100
AcDbXrecord
280
1
290
0
  0
XRECORD
  5
D7
330
B2
100
AcDbXrecord
280
1
 90
1
  0
XRECORD
  5
D8
330
B2
100
AcDbXrecord
280
1
 40
0.0
  0
XRECORD
  5
D9
330
B2
100
AcDbXrecord
280
1
 40
0.0
  0
XRECORD
  5
DA
330
B2
100
AcDbXrecord
280
1
1000
Portrait
  0
XRECORD
  5
DB
330
B2
100
AcDbXrecord
280
1
 40
297.0
  0
XRECORD
  5
DC
330
B2
100
AcDbXrecord
280
1
 40
210.0
  0
XRECORD
  5
DD
330
B2
100
AcDbXrecord
280
1
1000
1:1
  0
XRECORD
  5
DE
330
B2
100
AcDbXrecord
280
1
290
1
  0
XRECORD
  5
DF
330
B2
100
AcDbXrecord
280
1
 90
4
  0
ENDSEC
  0
EOF
