999
dxflib 3.3.4.0
  0
SECTION
  2
HEADER
  9
$ACADVER
  1
AC1015
  9
$HANDSEED
  5
FFFF
  9
$ANGBASE
 50
0.0
  9
$ATTMODE
 70
1
  9
$AUNITS
 70
0
  9
$AUPREC
 70
0
  9
$CELTSCALE
 40
1.0
  9
$CHAMFERA
 40
0.0
  9
$CHAMFERB
 40
0.0
  9
$CHAMFERC
 40
0.0
  9
$CHAMFERD
 40
0.0
  9
$CMLJUST
 70
0
  9
$CMLSCALE
 40
1.0
  9
$DIMADEC
 70
0
  9
$DIMALTD
 70
2
  9
$DIMALTF
 40
25.3999999999999986
  9
$DIMALTRND
 40
0.0
  9
$DIMALTTD
 70
2
  9
$DIMALTTZ
 70
0
  9
$DIMALTU
 70
2
  9
$DIMALTZ
 70
0
  9
$DIMAPOST
  1

  9
$DIMASZ
 40
2.5
  9
$DIMATFIT
 70
3
  9
$DIMAUNIT
 70
0
  9
$DIMAZIN
 70
2
  9
$DIMCEN
 40
0.09
  9
$DIMDEC
 70
4
  9
$DIMDLE
 40
0.0
  9
$DIMDLI
 40
0.38
  9
$DIMDSEP
 70
46
  9
$DIMEXE
 40
1.25
  9
$DIMEXO
 40
0.625
  9
$DIMFRAC
 70
0
  9
$DIMGAP
 40
0.625
  9
$DIMJUST
 70
0
  9
$DIMLFAC
 40
1.0
  9
$DIMLUNIT
 70
2
  9
$DIMLWD
 70
-2
  9
$DIMLWE
 70
-2
  9
$DIMPOST
  1

  9
$DIMRND
 40
0.0
  9
$DIMSCALE
 40
1.0
  9
$DIMTAD
 70
0
  9
$DIMTDEC
 70
4
  9
$DIMTFAC
 40
1.0
  9
$DIMTM
 40
0.0
  9
$DIMTOLJ
 70
1
  9
$DIMTP
 40
0.0
  9
$DIMTSZ
 40
0.0
  9
$DIMTVP
 40
0.0
  9
$DIMTXT
 40
2.5
  9
$DIMTZIN
 70
0
  9
$DIMZIN
 70
8
  9
$DWGCODEPAGE
  3
ANSI_1252
  9
$ELEVATION
 40
0.0
  9
$EXTMAX
 10
-100000000000000000000.0
 20
-100000000000000000000.0
 30
-100000000000000000000.0
  9
$EXTMIN
 10
100000000000000000000.0
 20
100000000000000000000.0
 30
100000000000000000000.0
  9
$FILLETRAD
 40
0.5
  9
$INSBASE
 10
0.0
 20
0.0
 30
0.0
  9
$INSUNITS
 70
4
  9
$LIMMAX
 10
12.0
 20
9.0
  9
$LIMMIN
 10
0.0
 20
0.0
  9
$LTSCALE
 40
1.0
  9
$LUNITS
 70
2
  9
$LUPREC
 70
4
  9
$MAXACTVP
 70
64
  9
$PDMODE
 70
0
  9
$PDSIZE
 40
0.0
  9
$PELEVATION
 40
0.0
  9
$PEXTMAX
 10
-100000000000000000000.0
 20
-100000000000000000000.0
 30
-100000000000000000000.0
  9
$PEXTMIN
 10
100000000000000000000.0
 20
100000000000000000000.0
 30
100000000000000000000.0
  9
$PINSBASE
 10
0.0
 20
0.0
 30
0.0
  9
$PLIMMAX
 10
12.0
 20
9.0
  9
$PLIMMIN
 10
0.0
 20
0.0
  9
$PLINEWID
 40
0.0
  9
$PROXYGRAPHICS
 70
1
  9
$PUCSORG
 10
0.0
 20
0.0
 30
0.0
  9
$PUCSXDIR
 10
1.0
 20
0.0
 30
0.0
  9
$PUCSYDIR
 10
0.0
 20
1.0
 30
0.0
  9
$SHADEDGE
 70
3
  9
$SHADEDIF
 70
70
  9
$SKETCHINC
 40
0.1
  9
$SPLINESEGS
 70
8
  9
$SPLINETYPE
 70
6
  9
$SURFTAB1
 70
6
  9
$SURFTAB2
 70
6
  9
$SURFTYPE
 70
6
  9
$SURFU
 70
6
  9
$SURFV
 70
6
  9
$TEXTSIZE
 40
2.5
  9
$THICKNESS
 40
0.0
  9
$TRACEWID
 40
0.05
  9
$TREEDEPTH
 70
3020
  9
$UCSORG
 10
0.0
 20
0.0
 30
0.0
  9
$UCSXDIR
 10
1.0
 20
0.0
 30
0.0
  9
$UCSYDIR
 10
0.0
 20
1.0
 30
0.0
  9
$UNITMODE
 70
0
  9
$USERI1
 70
0
  9
$USERI2
 70
0
  9
$USERI3
 70
0
  9
$USERI4
 70
0
  9
$USERI5
 70
0
  9
$USERR1
 40
0.0
  9
$USERR2
 40
0.0
  9
$USERR3
 40
0.0
  9
$USERR4
 40
0.0
  9
$USERR5
 40
0.0
  0
ENDSEC
  0
SECTION
  2
TABLES
  0
TABLE
  2
VPORT
  5
8
100
AcDbSymbolTable
 70
1
  0
VPORT
  5
30
100
AcDbSymbolTableRecord
100
AcDbViewportTableRecord
  2
*Active
 70
0
 10
0.0
 20
0.0
 11
1.0
 21
1.0
 12
286.3055555555554861
 22
148.5
 13
0.0
 23
0.0
 14
10.0
 24
10.0
 15
10.0
 25
10.0
 16
0.0
 26
0.0
 36
1.0
 17
0.0
 27
0.0
 37
0.0
 40
297.0
 41
1.92798353909465
 42
50.0
 43
0.0
 44
0.0
 50
0.0
 51
0.0
 71
0
 72
100
 73
1
 74
3
 75
1
 76
1
 77
0
 78
0
281
0
 65
1
110
0.0
120
0.0
130
0.0
111
1.0
121
0.0
131
0.0
112
0.0
122
1.0
132
0.0
 79
0
146
0.0
  0
ENDTAB
  0
TABLE
  2
LTYPE
  5
5
100
AcDbSymbolTable
 70
21
  0
LTYPE
  5
16
100
AcDbSymbolTableRecord
100
AcDbLinetypeTableRecord
  2
CONTINUOUS
 70
0
  3
Solid line
 72
65
 73
0
 40
0.0
  0
LTYPE
  5
31
100
AcDbSymbolTableRecord
100
AcDbLinetypeTableRecord
  2
CENTER2
 70
0
  3
Center (.5x) ___ _ ___ _ ___ _ ___ _ ___ _ ___
 72
65
 73
4
 40
28.5749999999999993
 49
19.0500000000000007
 74
0
 49
-3.1749999999999998
 74
0
 49
3.1749999999999998
 74
0
 49
-3.1749999999999998
 74
0
  0
LTYPE
  5
32
100
AcDbSymbolTableRecord
100
AcDbLinetypeTableRecord
  2
DIVIDEX2
 70
0
  3
Divide (2x) ________  .  .  ________  .  .  _
 72
65
 73
6
 40
63.5
 49
25.3999999999999986
 74
0
 49
-12.6999999999999993
 74
0
 49
0.0
 74
0
 49
-12.6999999999999993
 74
0
 49
0.0
 74
0
 49
-12.6999999999999993
 74
0
  0
LTYPE
  5
33
100
AcDbSymbolTableRecord
100
AcDbLinetypeTableRecord
  2
DOT2
 70
0
  3
Dot (.5x) .....................................
 72
65
 73
2
 40
3.1749999999999998
 49
0.0
 74
0
 49
-3.1749999999999998
 74
0
  0
LTYPE
  5
34
100
AcDbSymbolTableRecord
100
AcDbLinetypeTableRecord
  2
DASHDOT2
 70
0
  3
Dash dot (.5x) _._._._._._._._._._._._._._._.
 72
65
 73
4
 40
12.6999999999999993
 49
6.3499999999999996
 74
0
 49
-3.1749999999999998
 74
0
 49
0.0
 74
0
 49
-3.1749999999999998
 74
0
  0
LTYPE
  5
35
100
AcDbSymbolTableRecord
100
AcDbLinetypeTableRecord
  2
DIVIDE
 70
0
  3
Divide ____ . . ____ . . ____ . . ____ . . ____
 72
65
 73
6
 40
31.75
 49
12.6999999999999993
 74
0
 49
-6.3499999999999996
 74
0
 49
0.0
 74
0
 49
-6.3499999999999996
 74
0
 49
0.0
 74
0
 49
-6.3499999999999996
 74
0
  0
LTYPE
  5
36
100
AcDbSymbolTableRecord
100
AcDbLinetypeTableRecord
  2
DASHDOT
 70
0
  3
Dash dot __ . __ . __ . __ . __ . __ . __ . __
 72
65
 73
4
 40
25.3999999999999986
 49
12.6999999999999993
 74
0
 49
-6.3499999999999996
 74
0
 49
0.0
 74
0
 49
-6.3499999999999996
 74
0
  0
LTYPE
  5
37
100
AcDbSymbolTableRecord
100
AcDbLinetypeTableRecord
  2
BORDER
 70
0
  3
Border __ __ . __ __ . __ __ . __ __ . __ __ .
 72
65
 73
6
 40
44.4500000000000028
 49
12.6999999999999993
 74
0
 49
-6.3499999999999996
 74
0
 49
12.6999999999999993
 74
0
 49
-6.3499999999999996
 74
0
 49
0.0
 74
0
 49
-6.3499999999999996
 74
0
  0
LTYPE
  5
38
100
AcDbSymbolTableRecord
100
AcDbLinetypeTableRecord
  2
DASHDOTX2
 70
0
  3
Dash dot (2x) ____  .  ____  .  ____  .  ___
 72
65
 73
4
 40
50.7999999999999972
 49
25.3999999999999986
 74
0
 49
-12.6999999999999993
 74
0
 49
0.0
 74
0
 49
-12.6999999999999993
 74
0
  0
LTYPE
  5
39
100
AcDbSymbolTableRecord
100
AcDbLinetypeTableRecord
  2
CENTERX2
 70
0
  3
Center (2x) ________  __  ________  __  _____
 72
65
 73
4
 40
101.5999999999999943
 49
63.5
 74
0
 49
-12.6999999999999993
 74
0
 49
12.6999999999999993
 74
0
 49
-12.6999999999999993
 74
0
  0
LTYPE
  5
3A
100
AcDbSymbolTableRecord
100
AcDbLinetypeTableRecord
  2
BORDER2
 70
0
  3
Border (.5x) __.__.__.__.__.__.__.__.__.__.__.
 72
65
 73
6
 40
22.2250000000000014
 49
6.3499999999999996
 74
0
 49
-3.1749999999999998
 74
0
 49
6.3499999999999996
 74
0
 49
-3.1749999999999998
 74
0
 49
0.0
 74
0
 49
-3.1749999999999998
 74
0
  0
LTYPE
  5
3B
100
AcDbSymbolTableRecord
100
AcDbLinetypeTableRecord
  2
BORDERX2
 70
0
  3
Border (2x) ____  ____  .  ____  ____  .  ___
 72
65
 73
6
 40
88.9000000000000057
 49
25.3999999999999986
 74
0
 49
-12.6999999999999993
 74
0
 49
25.3999999999999986
 74
0
 49
-12.6999999999999993
 74
0
 49
0.0
 74
0
 49
-12.6999999999999993
 74
0
  0
LTYPE
  5
14
100
AcDbSymbolTableRecord
100
AcDbLinetypeTableRecord
  2
BYBLOCK
 70
0
  3

 72
65
 73
0
 40
0.0
  0
LTYPE
  5
15
100
AcDbSymbolTableRecord
100
AcDbLinetypeTableRecord
  2
BYLAYER
 70
0
  3

 72
65
 73
0
 40
0.0
  0
LTYPE
  5
3C
100
AcDbSymbolTableRecord
100
AcDbLinetypeTableRecord
  2
DASHED2
 70
0
  3
Dashed (.5x) _ _ _ _ _ _ _ _ _ _ _ _ _ _ _ _ _
 72
65
 73
2
 40
9.5250000000000004
 49
6.3499999999999996
 74
0
 49
-3.1749999999999998
 74
0
  0
LTYPE
  5
3D
100
AcDbSymbolTableRecord
100
AcDbLinetypeTableRecord
  2
CENTER
 70
0
  3
Center ____ _ ____ _ ____ _ ____ _ ____ _ ____
 72
65
 73
4
 40
50.7999999999999972
 49
31.75
 74
0
 49
-6.3499999999999996
 74
0
 49
6.3499999999999996
 74
0
 49
-6.3499999999999996
 74
0
  0
LTYPE
  5
3E
100
AcDbSymbolTableRecord
100
AcDbLinetypeTableRecord
  2
DIVIDE2
 70
0
  3
Divide (.5x) __..__..__..__..__..__..__..__.._
 72
65
 73
6
 40
15.875
 49
6.3499999999999996
 74
0
 49
-3.1749999999999998
 74
0
 49
0.0
 74
0
 49
-3.1749999999999998
 74
0
 49
0.0
 74
0
 49
-3.1749999999999998
 74
0
  0
LTYPE
  5
3F
100
AcDbSymbolTableRecord
100
AcDbLinetypeTableRecord
  2
DASHED
 70
0
  3
Dashed __ __ __ __ __ __ __ __ __ __ __ __ __ _
 72
65
 73
2
 40
19.0500000000000007
 49
12.6999999999999993
 74
0
 49
-6.3499999999999996
 74
0
  0
LTYPE
  5
40
100
AcDbSymbolTableRecord
100
AcDbLinetypeTableRecord
  2
DOTX2
 70
0
  3
Dot (2x) .  .  .  .  .  .  .  .  .  .  .  .  .
 72
65
 73
2
 40
12.6999999999999993
 49
0.0
 74
0
 49
-12.6999999999999993
 74
0
  0
LTYPE
  5
41
100
AcDbSymbolTableRecord
100
AcDbLinetypeTableRecord
  2
DASHEDX2
 70
0
  3
Dashed (2x) ____  ____  ____  ____  ____  ___
 72
65
 73
2
 40
38.1000000000000014
 49
25.3999999999999986
 74
0
 49
-12.6999999999999993
 74
0
  0
LTYPE
  5
42
100
AcDbSymbolTableRecord
100
AcDbLinetypeTableRecord
  2
DOT
 70
0
  3
Dot . . . . . . . . . . . . . . . . . . . . . .
 72
65
 73
2
 40
6.3499999999999996
 49
0.0
 74
0
 49
-6.3499999999999996
 74
0
  0
ENDTAB
  0
TABLE
  2
LAYER
  5
2
100
AcDbSymbolTable
 70
5
  0
LAYER
  5
43
100
AcDbSymbolTableRecord
100
AcDbLayerTableRecord
  2
guides
 70
0
 62
1
420
16711680
  6
CONTINUOUS
370
0
390
F
  0
LAYER
  5
44
100
AcDbSymbolTableRecord
100
AcDbLayerTableRecord
  2
dimensions
 70
0
 62
4
420
65535
  6
CONTINUOUS
370
0
390
F
  0
LAYER
  5
45
100
AcDbSymbolTableRecord
100
AcDbLayerTableRecord
  2
parts
 70
0
 62
3
420
65280
  6
CONTINUOUS
370
0
390
F
  0
LAYER
  5
46
100
AcDbSymbolTableRecord
100
AcDbLayerTableRecord
  2
Defpoints
 70
0
 62
7
420
16777215
  6
CONTINUOUS
290
0
370
-3
390
F
  0
LAYER
  5
10
100
AcDbSymbolTableRecord
100
AcDbLayerTableRecord
  2
0
 70
0
 62
7
420
16777215
  6
CONTINUOUS
370
0
390
F
  0
ENDTAB
  0
TABLE
  2
STYLE
  5
3
100
AcDbSymbolTable
 70
6
  0
STYLE
  5
47
100
AcDbSymbolTableRecord
100
AcDbTextStyleTableRecord
  2
Standard
 70
0
 40
0.0
 41
1.0
 50
0.0
 71
0
 42
2.5
  3

  4

1001
ACAD
1000
txt
1071
0
  0
STYLE
  5
48
100
AcDbSymbolTableRecord
100
AcDbTextStyleTableRecord
  2
textstyle0
 70
0
 40
0.0
 41
1.0
 50
0.0
 71
0
 42
4.0
  3

  4

1001
ACAD
1000
Arial
1071
0
  0
STYLE
  5
49
100
AcDbSymbolTableRecord
100
AcDbTextStyleTableRecord
  2
textstyle1
 70
0
 40
0.0
 41
1.0
 50
0.0
 71
0
 42
4.0
  3

  4

1001
ACAD
1000
Arial
1071
0
  0
STYLE
  5
4A
100
AcDbSymbolTableRecord
100
AcDbTextStyleTableRecord
  2
textstyle2
 70
0
 40
0.0
 41
1.0
 50
0.0
 71
0
 42
4.0
  3

  4

1001
ACAD
1000
Arial
1071
0
  0
STYLE
  5
4B
100
AcDbSymbolTableRecord
100
AcDbTextStyleTableRecord
  2
textstyle3
 70
0
 40
0.0
 41
1.0
 50
0.0
 71
0
 42
4.0
  3

  4

1001
ACAD
1000
Arial
1071
0
  0
STYLE
  5
4C
100
AcDbSymbolTableRecord
100
AcDbTextStyleTableRecord
  2
textstyle4
 70
0
 40
0.0
 41
1.0
 50
0.0
 71
0
 42
8.0
  3

  4

1001
ACAD
1000
Arial
1071
0
  0
ENDTAB
  0
TABLE
  2
VIEW
  5
6
100
AcDbSymbolTable
 70
0
  0
ENDTAB
  0
TABLE
  2
UCS
  5
7
100
AcDbSymbolTable
 70
0
  0
ENDTAB
  0
TABLE
  2
APPID
  5
9
100
AcDbSymbolTable
 70
1
  0
APPID
  5
12
100
AcDbSymbolTableRecord
100
AcDbRegAppTableRecord
  2
ACAD
 70
0
  0
APPID
  5
4D
100
AcDbSymbolTableRecord
100
AcDbRegAppTableRecord
  2
QCAD
 70
0
  0
ENDTAB
  0
TABLE
  2
DIMSTYLE
  5
A
100
AcDbSymbolTable
 70
1
100
AcDbDimStyleTable
 71
0
  0
DIMSTYLE
105
27
100
AcDbSymbolTableRecord
100
AcDbDimStyleTableRecord
  2
Standard
 41
2.5
 42
0.625
 43
3.75
 44
1.25
 70
0
 73
0
 74
0
 77
1
 78
8
140
2.5
141
2.5
143
0.03937007874016
147
0.625
171
3
172
1
271
2
272
2
274
3
278
44
283
0
284
8
340
47
  0
ENDTAB
  0
TABLE
  2
BLOCK_RECORD
  5
1
100
AcDbSymbolTable
 70
1
  0
BLOCK_RECORD
  5
1F
100
AcDbSymbolTableRecord
100
AcDbBlockTableRecord
  2
*Model_Space
340
22
  0
BLOCK_RECORD
  5
1B
100
AcDbSymbolTableRecord
100
AcDbBlockTableRecord
  2
*Paper_Space
340
1E
  0
BLOCK_RECORD
  5
23
100
AcDbSymbolTableRecord
100
AcDbBlockTableRecord
  2
*Paper_Space0
340
26
  0
BLOCK_RECORD
  5
4E
100
AcDbSymbolTableRecord
100
AcDbBlockTableRecord
  2
bearing
340
0
  0
ENDTAB
  0
ENDSEC
  0
SECTION
  2
BLOCKS
  0
BLOCK
  5
20
100
AcDbEntity
  8
0
100
AcDbBlockBegin
  2
*Model_Space
 70
0
 10
0.0
 20
0.0
 30
0.0
  3
*Model_Space
  1

  0
ENDBLK
  5
21
100
AcDbEntity
  8
0
100
AcDbBlockEnd
  0
BLOCK
  5
1C
100
AcDbEntity
 67
1
  8
0
100
AcDbBlockBegin
  2
*Paper_Space
 70
0
 10
0.0
 20
0.0
 30
0.0
  3
*Paper_Space
  1

  0
ENDBLK
  5
1D
100
AcDbEntity
 67
1
  8
0
100
AcDbBlockEnd
  0
BLOCK
  5
24
100
AcDbEntity
  8
0
100
AcDbBlockBegin
  2
*Paper_Space0
 70
0
 10
0.0
 20
0.0
 30
0.0
  3
*Paper_Space0
  1

  0
ENDBLK
  5
25
100
AcDbEntity
  8
0
100
AcDbBlockEnd
  0
BLOCK
  5
4F
100
AcDbEntity
  8
0
100
AcDbBlockBegin
  2
bearing
 70
0
 10
0.0
 20
0.0
 30
0.0
  3
bearing
  1

  0
CIRCLE
  5
50
100
AcDbEntity
100
AcDbCircle
  8
parts
 62
256
370
-1
  6
BYLAYER
 10
0.0
 20
0.0
 30
0.0
 40
5.0
  0
LINE
  5
51
100
AcDbEntity
100
AcDbLine
  8
guides
 62
256
370
-1
  6
BYLAYER
 10
0.0
 20
7.0
 30
0.0
 11
0.0
 21
-7.0
 31
0.0
  0
LINE
  5
52
100
AcDbEntity
100
AcDbLine
  8
guides
 62
256
370
-1
  6
BYLAYER
 10
7.0
 20
0.0
 30
0.0
 11
-7.0
 21
0.0
 31
0.0
  0
CIRCLE
  5
53
100
AcDbEntity
100
AcDbCircle
  8
parts
 62
256
370
-1
  6
BYLAYER
 10
0.0
 20
0.0
 30
0.0
 40
1.5
  0
ENDBLK
  5
54
100
AcDbEntity
  8
0
100
AcDbBlockEnd
  0
ENDSEC
  0
SECTION
  2
ENTITIES
  0
LINE
  5
55
100
AcDbEntity
100
AcDbLine
  8
guides
 62
256
370
-1
  6
BYLAYER
 10
167.0
 20
99.9999999999999716
 30
0.0
 11
167.0
 21
18.0
 31
0.0
  0
LINE
  5
56
100
AcDbEntity
100
AcDbLine
  8
guides
 62
256
370
-1
  6
BYLAYER
 10
-10.0
 20
100.0
 30
0.0
 11
-10.0
 21
18.0
 31
0.0
  0
LINE
  5
57
100
AcDbEntity
100
AcDbLine
  8
guides
 62
256
370
-1
  6
BYLAYER
 10
177.0
 20
99.9999999999999716
 30
0.0
 11
177.0
 21
18.0
 31
0.0
  0
INSERT
  5
58
100
AcDbEntity
100
AcDbBlockReference
  8
parts
 62
256
370
-1
  6
BYLAYER
  2
bearing
 10
96.0000000000000284
 20
85.0000000000000284
 30
0.0
  0
INSERT
  5
59
100
AcDbEntity
100
AcDbBlockReference
  8
parts
 62
256
370
-1
  6
BYLAYER
  2
bearing
 10
96.0000000000000284
 20
35.0000000000000213
 30
0.0
  0
LINE
  5
5A
100
AcDbEntity
100
AcDbLine
  8
0
 62
256
370
-1
  6
BYLAYER
 10
14.0
 20
20.0000000000000142
 30
0.0
 11
-11.0
 21
20.0000000000000284
 31
0.0
  0
LINE
  5
5B
100
AcDbEntity
100
AcDbLine
  8
parts
 62
256
370
-1
  6
BYLAYER
 10
110.0
 20
65.0
 30
0.0
 11
106.0
 21
65.0
 31
0.0
  0
LINE
  5
5C
100
AcDbEntity
100
AcDbLine
  8
parts
 62
256
370
-1
  6
BYLAYER
 10
106.0
 20
65.0
 30
0.0
 11
106.0
 21
55.0
 31
0.0
  0
LINE
  5
5D
100
AcDbEntity
100
AcDbLine
  8
parts
 62
256
370
-1
  6
BYLAYER
 10
106.0
 20
55.0
 30
0.0
 11
110.0
 21
55.0
 31
0.0
  0
LINE
  5
5E
100
AcDbEntity
100
AcDbLine
  8
parts
 62
256
370
-1
  6
BYLAYER
 10
110.0
 20
55.0
 30
0.0
 11
110.0
 21
65.0
 31
0.0
  0
LINE
  5
5F
100
AcDbEntity
100
AcDbLine
  8
0
 62
256
370
-1
  6
BYLAYER
 10
182.0
 20
40.0
 30
0.0
 11
181.0
 21
40.0
 31
0.0
  0
LINE
  5
60
100
AcDbEntity
100
AcDbLine
  8
0
 62
256
370
-1
  6
BYLAYER
 10
182.0
 20
30.0
 30
0.0
 11
181.0
 21
30.0
 31
0.0
  0
ARC
  5
61
100
AcDbEntity
  8
0
 62
256
370
-1
  6
BYLAYER
100
AcDbCircle
 10
182.0
 20
35.0
 30
0.0
 40
5.0
100
AcDbArc
 50
270.0
 51
90.0
  0
LINE
  5
62
100
AcDbEntity
100
AcDbLine
  8
0
 62
256
370
-1
  6
BYLAYER
 10
181.0
 20
30.0
 30
0.0
 11
181.0
 21
25.0
 31
0.0
  0
LINE
  5
63
100
AcDbEntity
100
AcDbLine
  8
0
 62
256
370
-1
  6
BYLAYER
 10
182.0
 20
80.0
 30
0.0
 11
181.0
 21
80.0
 31
0.0
  0
LINE
  5
64
100
AcDbEntity
100
AcDbLine
  8
0
 62
256
370
-1
  6
BYLAYER
 10
182.0
 20
90.0
 30
0.0
 11
181.0
 21
90.0
 31
0.0
  0
ARC
  5
65
100
AcDbEntity
  8
0
 62
256
370
-1
  6
BYLAYER
100
AcDbCircle
 10
182.0
 20
85.0
 30
0.0
 40
5.0
100
AcDbArc
 50
270.0
 51
90.0
  0
LINE
  5
66
100
AcDbEntity
100
AcDbLine
  8
0
 62
256
370
-1
  6
BYLAYER
 10
178.0
 20
65.0
 30
0.0
 11
178.0
 21
70.0
 31
0.0
  0
LINE
  5
67
100
AcDbEntity
100
AcDbLine
  8
0
 62
256
370
-1
  6
BYLAYER
 10
178.0
 20
70.0
 30
0.0
 11
181.0
 21
70.0
 31
0.0
  0
LINE
  5
68
100
AcDbEntity
100
AcDbLine
  8
0
 62
256
370
-1
  6
BYLAYER
 10
178.0
 20
55.0
 30
0.0
 11
178.0
 21
50.0
 31
0.0
  0
LINE
  5
69
100
AcDbEntity
100
AcDbLine
  8
0
 62
256
370
-1
  6
BYLAYER
 10
178.0
 20
50.0
 30
0.0
 11
181.0
 21
50.0
 31
0.0
  0
LINE
  5
6A
100
AcDbEntity
100
AcDbLine
  8
0
 62
256
370
-1
  6
BYLAYER
 10
181.0
 20
50.0
 30
0.0
 11
181.0
 21
40.0
 31
0.0
  0
LINE
  5
6B
100
AcDbEntity
100
AcDbLine
  8
0
 62
256
370
-1
  6
BYLAYER
 10
173.0
 20
55.0
 30
0.0
 11
178.0
 21
55.0
 31
0.0
  0
LINE
  5
6C
100
AcDbEntity
100
AcDbLine
  8
0
 62
256
370
-1
  6
BYLAYER
 10
178.0
 20
65.0
 30
0.0
 11
173.0
 21
65.0
 31
0.0
  0
LINE
  5
6D
100
AcDbEntity
100
AcDbLine
  8
0
 62
256
370
-1
  6
BYLAYER
 10
181.0
 20
80.0
 30
0.0
 11
181.0
 21
70.0
 31
0.0
  0
LINE
  5
6E
100
AcDbEntity
100
AcDbLine
  8
0
 62
256
370
-1
  6
BYLAYER
 10
178.0
 20
99.9999999999999716
 30
0.0
 11
178.0
 21
95.0
 31
0.0
  0
LINE
  5
6F
100
AcDbEntity
100
AcDbLine
  8
0
 62
256
370
-1
  6
BYLAYER
 10
178.0
 20
95.0
 30
0.0
 11
181.0
 21
95.0
 31
0.0
  0
LINE
  5
70
100
AcDbEntity
100
AcDbLine
  8
0
 62
256
370
-1
  6
BYLAYER
 10
-11.0
 20
100.0
 30
0.0
 11
-11.0
 21
95.0000000000000284
 31
0.0
  0
LINE
  5
71
100
AcDbEntity
100
AcDbLine
  8
0
 62
256
370
-1
  6
BYLAYER
 10
-11.0
 20
95.0000000000000284
 30
0.0
 11
-14.0000000000000142
 21
95.0000000000000284
 31
0.0
  0
LINE
  5
72
100
AcDbEntity
100
AcDbLine
  8
0
 62
256
370
-1
  6
BYLAYER
 10
-14.0
 20
88.0000000000000284
 30
0.0
 11
-11.0
 21
88.0000000000000284
 31
0.0
  0
LINE
  5
73
100
AcDbEntity
100
AcDbLine
  8
0
 62
256
370
-1
  6
BYLAYER
 10
-11.0
 20
88.0000000000000284
 30
0.0
 11
-11.0
 21
82.0000000000000284
 31
0.0
  0
LINE
  5
74
100
AcDbEntity
100
AcDbLine
  8
0
 62
256
370
-1
  6
BYLAYER
 10
-11.0
 20
82.0000000000000284
 30
0.0
 11
-14.0000000000000142
 21
82.0000000000000284
 31
0.0
  0
LINE
  5
75
100
AcDbEntity
100
AcDbLine
  8
0
 62
256
370
-1
  6
BYLAYER
 10
-14.0
 20
68.0000000000000284
 30
0.0
 11
-11.0
 21
68.0000000000000284
 31
0.0
  0
LINE
  5
76
100
AcDbEntity
100
AcDbLine
  8
0
 62
256
370
-1
  6
BYLAYER
 10
-11.0
 20
68.0000000000000284
 30
0.0
 11
-11.0
 21
74.0000000000000284
 31
0.0
  0
LINE
  5
77
100
AcDbEntity
100
AcDbLine
  8
0
 62
256
370
-1
  6
BYLAYER
 10
-11.0
 20
74.0000000000000284
 30
0.0
 11
-14.0
 21
74.0000000000000284
 31
0.0
  0
LINE
  5
78
100
AcDbEntity
100
AcDbLine
  8
0
 62
256
370
-1
  6
BYLAYER
 10
-11.0
 20
52.0000000000000284
 30
0.0
 11
-11.0
 21
46.0000000000000284
 31
0.0
  0
LINE
  5
79
100
AcDbEntity
100
AcDbLine
  8
0
 62
256
370
-1
  6
BYLAYER
 10
-11.0
 20
46.0000000000000284
 30
0.0
 11
-14.0
 21
46.0000000000000284
 31
0.0
  0
LINE
  5
7A
100
AcDbEntity
100
AcDbLine
  8
0
 62
256
370
-1
  6
BYLAYER
 10
-11.0
 20
20.0000000000000284
 30
0.0
 11
-11.0
 21
25.0000000000000284
 31
0.0
  0
LINE
  5
7B
100
AcDbEntity
100
AcDbLine
  8
0
 62
256
370
-1
  6
BYLAYER
 10
-11.0
 20
25.0000000000000284
 30
0.0
 11
-14.0000000000000142
 21
25.0000000000000284
 31
0.0
  0
LINE
  5
7C
100
AcDbEntity
100
AcDbLine
  8
0
 62
256
370
-1
  6
BYLAYER
 10
-14.0
 20
32.0000000000000284
 30
0.0
 11
-11.0
 21
32.0000000000000284
 31
0.0
  0
LINE
  5
7D
100
AcDbEntity
100
AcDbLine
  8
0
 62
256
370
-1
  6
BYLAYER
 10
-11.0
 20
32.0000000000000284
 30
0.0
 11
-11.0
 21
38.0000000000000284
 31
0.0
  0
LINE
  5
7E
100
AcDbEntity
100
AcDbLine
  8
0
 62
256
370
-1
  6
BYLAYER
 10
-11.0
 20
38.0000000000000284
 30
0.0
 11
-14.0000000000000142
 21
38.0000000000000284
 31
0.0
  0
LINE
  5
7F
100
AcDbEntity
100
AcDbLine
  8
0
 62
256
370
-1
  6
BYLAYER
 10
-14.0
 20
52.0000000000000284
 30
0.0
 11
-11.0
 21
52.0000000000000284
 31
0.0
  0
LINE
  5
80
100
AcDbEntity
100
AcDbLine
  8
0
 62
256
370
-1
  6
BYLAYER
 10
178.0
 20
20.0
 30
0.0
 11
178.0
 21
25.0
 31
0.0
  0
LINE
  5
81
100
AcDbEntity
100
AcDbLine
  8
0
 62
256
370
-1
  6
BYLAYER
 10
178.0
 20
25.0
 30
0.0
 11
181.0
 21
25.0
 31
0.0
  0
LINE
  5
82
100
AcDbEntity
100
AcDbLine
  8
0
 62
256
370
-1
  6
BYLAYER
 10
-14.0000000000000142
 20
25.0000000000000107
 30
0.0
 11
-14.0000000000000142
 21
32.0000000000000284
 31
0.0
  0
LINE
  5
83
100
AcDbEntity
100
AcDbLine
  8
0
 62
256
370
-1
  6
BYLAYER
 10
-14.0000000000000142
 20
38.0000000000000284
 30
0.0
 11
-14.0000000000000142
 21
46.0000000000000284
 31
0.0
  0
LINE
  5
84
100
AcDbEntity
100
AcDbLine
  8
0
 62
256
370
-1
  6
BYLAYER
 10
-14.0000000000000142
 20
74.0000000000000284
 30
0.0
 11
-14.0000000000000142
 21
82.0000000000000284
 31
0.0
  0
LINE
  5
85
100
AcDbEntity
100
AcDbLine
  8
0
 62
256
370
-1
  6
BYLAYER
 10
-14.0000000000000142
 20
88.0000000000000284
 30
0.0
 11
-14.0000000000000142
 21
95.0000000000000284
 31
0.0
  0
LINE
  5
86
100
AcDbEntity
100
AcDbLine
  8
0
 62
256
370
-1
  6
BYLAYER
 10
-11.0
 20
100.0
 30
0.0
 11
14.0
 21
100.0000000000000142
 31
0.0
  0
LINE
  5
87
100
AcDbEntity
100
AcDbLine
  8
0
 62
256
370
-1
  6
BYLAYER
 10
181.0
 20
95.0
 30
0.0
 11
181.0
 21
90.0
 31
0.0
  0
LINE
  5
88
100
AcDbEntity
100
AcDbLine
  8
0
 62
256
370
-1
  6
BYLAYER
 10
39.0
 20
46.0
 30
0.0
 11
36.0
 21
46.0
 31
0.0
  0
LINE
  5
89
100
AcDbEntity
100
AcDbLine
  8
0
 62
256
370
-1
  6
BYLAYER
 10
39.0
 20
25.0
 30
0.0
 11
35.9999999999999929
 21
25.0
 31
0.0
  0
LINE
  5
8A
100
AcDbEntity
100
AcDbLine
  8
0
 62
256
370
-1
  6
BYLAYER
 10
36.0
 20
32.0
 30
0.0
 11
39.0
 21
32.0
 31
0.0
  0
LINE
  5
8B
100
AcDbEntity
100
AcDbLine
  8
0
 62
256
370
-1
  6
BYLAYER
 10
39.0
 20
38.0
 30
0.0
 11
35.9999999999999929
 21
38.0
 31
0.0
  0
LINE
  5
8C
100
AcDbEntity
100
AcDbLine
  8
0
 62
256
370
-1
  6
BYLAYER
 10
61.0
 20
20.0
 30
0.0
 11
39.0
 21
20.0
 31
0.0
  0
LINE
  5
8D
100
AcDbEntity
100
AcDbLine
  8
0
 62
256
370
-1
  6
BYLAYER
 10
36.0
 20
52.0
 30
0.0
 11
39.0
 21
52.0
 31
0.0
  0
LINE
  5
8E
100
AcDbEntity
100
AcDbLine
  8
0
 62
256
370
-1
  6
BYLAYER
 10
39.0
 20
100.0
 30
0.0
 11
61.0
 21
100.0
 31
0.0
  0
LINE
  5
8F
100
AcDbEntity
100
AcDbLine
  8
guides
 62
256
370
-1
  6
BYLAYER
 10
50.0
 20
100.0
 30
0.0
 11
50.0
 21
-5.0
 31
0.0
  0
LINE
  5
90
100
AcDbEntity
100
AcDbLine
  8
guides
 62
256
370
-1
  6
BYLAYER
 10
40.0
 20
100.0
 30
0.0
 11
40.0
 21
-5.0
 31
0.0
  0
LINE
  5
91
100
AcDbEntity
100
AcDbLine
  8
guides
 62
256
370
-1
  6
BYLAYER
 10
60.0
 20
100.0
 30
0.0
 11
60.0
 21
-5.0
 31
0.0
  0
LINE
  5
92
100
AcDbEntity
100
AcDbLine
  8
0
 62
256
370
-1
  6
BYLAYER
 10
39.0
 20
95.0
 30
0.0
 11
35.9999999999999929
 21
95.0
 31
0.0
  0
LINE
  5
93
100
AcDbEntity
100
AcDbLine
  8
0
 62
256
370
-1
  6
BYLAYER
 10
36.0
 20
88.0
 30
0.0
 11
39.0
 21
88.0
 31
0.0
  0
LINE
  5
94
100
AcDbEntity
100
AcDbLine
  8
0
 62
256
370
-1
  6
BYLAYER
 10
39.0
 20
82.0
 30
0.0
 11
35.9999999999999929
 21
82.0
 31
0.0
  0
LINE
  5
95
100
AcDbEntity
100
AcDbLine
  8
0
 62
256
370
-1
  6
BYLAYER
 10
36.0
 20
100.0
 30
0.0
 11
39.0
 21
100.0
 31
0.0
  0
LINE
  5
96
100
AcDbEntity
100
AcDbLine
  8
0
 62
256
370
-1
  6
BYLAYER
 10
39.0
 20
20.0
 30
0.0
 11
36.0
 21
20.0
 31
0.0
  0
LINE
  5
97
100
AcDbEntity
100
AcDbLine
  8
0
 62
256
370
-1
  6
BYLAYER
 10
36.0
 20
20.0
 30
0.0
 11
36.0
 21
25.0
 31
0.0
  0
LINE
  5
98
100
AcDbEntity
100
AcDbLine
  8
0
 62
256
370
-1
  6
BYLAYER
 10
36.0
 20
32.0
 30
0.0
 11
36.0
 21
38.0
 31
0.0
  0
LINE
  5
99
100
AcDbEntity
100
AcDbLine
  8
0
 62
256
370
-1
  6
BYLAYER
 10
39.0
 20
32.0
 30
0.0
 11
39.0
 21
25.0
 31
0.0
  0
LINE
  5
9A
100
AcDbEntity
100
AcDbLine
  8
0
 62
256
370
-1
  6
BYLAYER
 10
39.0
 20
45.9999999999999929
 30
0.0
 11
39.0
 21
37.9999999999999929
 31
0.0
  0
LINE
  5
9B
100
AcDbEntity
100
AcDbLine
  8
0
 62
256
370
-1
  6
BYLAYER
 10
36.0
 20
46.0
 30
0.0
 11
36.0
 21
52.0
 31
0.0
  0
LINE
  5
9C
100
AcDbEntity
100
AcDbLine
  8
0
 62
256
370
-1
  6
BYLAYER
 10
36.0
 20
82.0
 30
0.0
 11
36.0
 21
88.0
 31
0.0
  0
LINE
  5
9D
100
AcDbEntity
100
AcDbLine
  8
0
 62
256
370
-1
  6
BYLAYER
 10
36.0
 20
95.0
 30
0.0
 11
36.0
 21
100.0
 31
0.0
  0
LINE
  5
9E
100
AcDbEntity
100
AcDbLine
  8
0
 62
256
370
-1
  6
BYLAYER
 10
39.0
 20
95.0
 30
0.0
 11
39.0
 21
88.0
 31
0.0
  0
INSERT
  5
9F
100
AcDbEntity
100
AcDbBlockReference
  8
parts
 62
256
370
-1
  6
BYLAYER
  2
bearing
 10
65.0
 20
60.0
 30
0.0
  0
LINE
  5
A0
100
AcDbEntity
100
AcDbLine
  8
0
 62
256
370
-1
  6
BYLAYER
 10
61.0
 20
50.0
 30
0.0
 11
64.0
 21
50.0
 31
0.0
  0
LINE
  5
A1
100
AcDbEntity
100
AcDbLine
  8
0
 62
256
370
-1
  6
BYLAYER
 10
64.0
 20
50.0
 30
0.0
 11
64.0
 21
50.0
 31
0.0
  0
LINE
  5
A2
100
AcDbEntity
100
AcDbLine
  8
0
 62
256
370
-1
  6
BYLAYER
 10
64.0
 20
50.0
 30
0.0
 11
64.0
 21
55.0
 31
0.0
  0
LINE
  5
A3
100
AcDbEntity
100
AcDbLine
  8
0
 62
256
370
-1
  6
BYLAYER
 10
64.0
 20
55.0
 30
0.0
 11
65.0
 21
55.0
 31
0.0
  0
CIRCLE
  5
A4
100
AcDbEntity
100
AcDbCircle
  8
0
 62
256
370
-1
  6
BYLAYER
 10
65.0
 20
60.0
 30
0.0
 40
1.5
  0
LINE
  5
A5
100
AcDbEntity
100
AcDbLine
  8
0
 62
256
370
-1
  6
BYLAYER
 10
61.0
 20
70.0
 30
0.0
 11
64.0
 21
70.0
 31
0.0
  0
LINE
  5
A6
100
AcDbEntity
100
AcDbLine
  8
0
 62
256
370
-1
  6
BYLAYER
 10
64.0
 20
70.0
 30
0.0
 11
64.0
 21
65.0
 31
0.0
  0
LINE
  5
A7
100
AcDbEntity
100
AcDbLine
  8
0
 62
256
370
-1
  6
BYLAYER
 10
64.0
 20
65.0
 30
0.0
 11
65.0
 21
65.0
 31
0.0
  0
ARC
  5
A8
100
AcDbEntity
  8
0
 62
256
370
-1
  6
BYLAYER
100
AcDbCircle
 10
65.0
 20
60.0
 30
0.0
 40
5.0
100
AcDbArc
 50
270.0
 51
90.0
  0
LINE
  5
A9
100
AcDbEntity
100
AcDbLine
  8
0
 62
256
370
-1
  6
BYLAYER
 10
122.0000000000000995
 20
100.0
 30
0.0
 11
122.0000000000000995
 21
94.9999999999999858
 31
0.0
  0
LINE
  5
AA
100
AcDbEntity
100
AcDbLine
  8
0
 62
256
370
-1
  6
BYLAYER
 10
122.0000000000000995
 20
94.9999999999999858
 30
0.0
 11
125.0000000000000995
 21
94.9999999999999858
 31
0.0
  0
LINE
  5
AB
100
AcDbEntity
100
AcDbLine
  8
0
 62
256
370
-1
  6
BYLAYER
 10
125.0
 20
88.0000000000000142
 30
0.0
 11
122.0
 21
88.0000000000000142
 31
0.0
  0
LINE
  5
AC
100
AcDbEntity
100
AcDbLine
  8
0
 62
256
370
-1
  6
BYLAYER
 10
122.0
 20
88.0000000000000142
 30
0.0
 11
122.0
 21
82.0000000000000142
 31
0.0
  0
LINE
  5
AD
100
AcDbEntity
100
AcDbLine
  8
0
 62
256
370
-1
  6
BYLAYER
 10
122.0
 20
82.0000000000000142
 30
0.0
 11
125.0000000000000995
 21
82.0000000000000142
 31
0.0
  0
LINE
  5
AE
100
AcDbEntity
100
AcDbLine
  8
0
 62
256
370
-1
  6
BYLAYER
 10
100.0
 20
100.0
 30
0.0
 11
100.0
 21
95.0000000000000142
 31
0.0
  0
LINE
  5
AF
100
AcDbEntity
100
AcDbLine
  8
0
 62
256
370
-1
  6
BYLAYER
 10
100.0
 20
95.0000000000000142
 30
0.0
 11
97.0000000000000568
 21
95.0000000000000142
 31
0.0
  0
LINE
  5
B0
100
AcDbEntity
100
AcDbLine
  8
0
 62
256
370
-1
  6
BYLAYER
 10
125.0
 20
68.0000000000000142
 30
0.0
 11
125.0000000000000995
 21
65.0000000000000142
 31
0.0
  0
LINE
  5
B1
100
AcDbEntity
100
AcDbLine
  8
0
 62
256
370
-1
  6
BYLAYER
 10
125.0
 20
55.0000000000000497
 30
0.0
 11
125.0
 21
52.0000000000000071
 31
0.0
  0
LINE
  5
B2
100
AcDbEntity
100
AcDbLine
  8
0
 62
256
370
-1
  6
BYLAYER
 10
125.0
 20
46.0000000000000071
 30
0.0
 11
125.0
 21
38.0000000000000213
 31
0.0
  0
LINE
  5
B3
100
AcDbEntity
100
AcDbLine
  8
0
 62
256
370
-1
  6
BYLAYER
 10
125.0000000000000995
 20
32.0000000000000284
 30
0.0
 11
125.0
 21
25.0000000000000107
 31
0.0
  0
LINE
  5
B4
100
AcDbEntity
100
AcDbLine
  8
0
 62
256
370
-1
  6
BYLAYER
 10
122.0
 20
20.0000000000000284
 30
0.0
 11
100.0
 21
20.0000000000000213
 31
0.0
  0
LINE
  5
B5
100
AcDbEntity
100
AcDbLine
  8
0
 62
256
370
-1
  6
BYLAYER
 10
97.0
 20
25.0000000000000284
 30
0.0
 11
97.0000000000000284
 21
30.0000000000000213
 31
0.0
  0
CIRCLE
  5
B6
100
AcDbEntity
100
AcDbCircle
  8
0
 62
256
370
-1
  6
BYLAYER
 10
96.0
 20
84.9999999999999858
 30
0.0
 40
1.5
  0
CIRCLE
  5
B7
100
AcDbEntity
100
AcDbCircle
  8
0
 62
256
370
-1
  6
BYLAYER
 10
96.0000000000000284
 20
35.0000000000000213
 30
0.0
 40
1.5
  0
LINE
  5
B8
100
AcDbEntity
100
AcDbLine
  8
guides
 62
256
370
-1
  6
BYLAYER
 10
111.0
 20
100.0
 30
0.0
 11
111.0
 21
20.0000000000000213
 31
0.0
  0
LINE
  5
B9
100
AcDbEntity
100
AcDbLine
  8
0
 62
256
370
-1
  6
BYLAYER
 10
96.0000000000000284
 20
40.0000000000000213
 30
0.0
 11
97.0000000000000284
 21
40.0000000000000213
 31
0.0
  0
LINE
  5
BA
100
AcDbEntity
100
AcDbLine
  8
0
 62
256
370
-1
  6
BYLAYER
 10
96.0
 20
30.0000000000000284
 30
0.0
 11
97.0000000000000284
 21
30.0000000000000213
 31
0.0
  0
ARC
  5
BB
100
AcDbEntity
  8
0
 62
256
370
-1
  6
BYLAYER
100
AcDbCircle
 10
96.0000000000000284
 20
35.0000000000000213
 30
0.0
 40
5.0
100
AcDbArc
 50
90.0
 51
270.0
  0
LINE
  5
BC
100
AcDbEntity
100
AcDbLine
  8
0
 62
256
370
-1
  6
BYLAYER
 10
100.0
 20
55.0000000000000071
 30
0.0
 11
100.0
 21
50.0000000000000213
 31
0.0
  0
LINE
  5
BD
100
AcDbEntity
100
AcDbLine
  8
0
 62
256
370
-1
  6
BYLAYER
 10
100.0
 20
50.0000000000000213
 30
0.0
 11
97.0000000000000284
 21
50.0000000000000213
 31
0.0
  0
LINE
  5
BE
100
AcDbEntity
100
AcDbLine
  8
0
 62
256
370
-1
  6
BYLAYER
 10
100.0
 20
65.0000000000000142
 30
0.0
 11
100.0
 21
70.0000000000000142
 31
0.0
  0
LINE
  5
BF
100
AcDbEntity
100
AcDbLine
  8
0
 62
256
370
-1
  6
BYLAYER
 10
100.0
 20
70.0000000000000142
 30
0.0
 11
97.0000000000000284
 21
70.0000000000000142
 31
0.0
  0
LINE
  5
C0
100
AcDbEntity
100
AcDbLine
  8
0
 62
256
370
-1
  6
BYLAYER
 10
105.0
 20
65.0000000000000142
 30
0.0
 11
100.0
 21
65.0000000000000142
 31
0.0
  0
LINE
  5
C1
100
AcDbEntity
100
AcDbLine
  8
0
 62
256
370
-1
  6
BYLAYER
 10
100.0
 20
55.0000000000000071
 30
0.0
 11
105.0
 21
55.0000000000000213
 31
0.0
  0
LINE
  5
C2
100
AcDbEntity
100
AcDbLine
  8
0
 62
256
370
-1
  6
BYLAYER
 10
97.0
 20
40.0000000000000071
 30
0.0
 11
97.0000000000000284
 21
50.0000000000000213
 31
0.0
  0
LINE
  5
C3
100
AcDbEntity
100
AcDbLine
  8
0
 62
256
370
-1
  6
BYLAYER
 10
100.0
 20
20.0000000000000213
 30
0.0
 11
100.0
 21
25.0000000000000107
 31
0.0
  0
LINE
  5
C4
100
AcDbEntity
100
AcDbLine
  8
0
 62
256
370
-1
  6
BYLAYER
 10
100.0
 20
25.0000000000000107
 30
0.0
 11
97.0
 21
25.0000000000000284
 31
0.0
  0
LINE
  5
C5
100
AcDbEntity
100
AcDbLine
  8
0
 62
256
370
-1
  6
BYLAYER
 10
122.0
 20
20.0000000000000107
 30
0.0
 11
122.0
 21
25.0000000000000107
 31
0.0
  0
LINE
  5
C6
100
AcDbEntity
100
AcDbLine
  8
0
 62
256
370
-1
  6
BYLAYER
 10
122.0
 20
25.0000000000000107
 30
0.0
 11
125.0
 21
25.0000000000000107
 31
0.0
  0
LINE
  5
C7
100
AcDbEntity
100
AcDbLine
  8
0
 62
256
370
-1
  6
BYLAYER
 10
125.0
 20
32.0000000000000213
 30
0.0
 11
122.0
 21
32.0000000000000213
 31
0.0
  0
LINE
  5
C8
100
AcDbEntity
100
AcDbLine
  8
0
 62
256
370
-1
  6
BYLAYER
 10
122.0
 20
32.0000000000000213
 30
0.0
 11
122.0
 21
38.0000000000000213
 31
0.0
  0
LINE
  5
C9
100
AcDbEntity
100
AcDbLine
  8
0
 62
256
370
-1
  6
BYLAYER
 10
122.0
 20
38.0000000000000213
 30
0.0
 11
125.0
 21
38.0000000000000213
 31
0.0
  0
LINE
  5
CA
100
AcDbEntity
100
AcDbLine
  8
0
 62
256
370
-1
  6
BYLAYER
 10
125.0
 20
52.0000000000000213
 30
0.0
 11
122.0
 21
52.0000000000000213
 31
0.0
  0
LINE
  5
CB
100
AcDbEntity
100
AcDbLine
  8
0
 62
256
370
-1
  6
BYLAYER
 10
122.0
 20
52.0000000000000213
 30
0.0
 11
122.0
 21
46.0000000000000213
 31
0.0
  0
LINE
  5
CC
100
AcDbEntity
100
AcDbLine
  8
0
 62
256
370
-1
  6
BYLAYER
 10
122.0
 20
46.0000000000000213
 30
0.0
 11
125.0
 21
46.0000000000000213
 31
0.0
  0
LINE
  5
CD
100
AcDbEntity
100
AcDbLine
  8
0
 62
256
370
-1
  6
BYLAYER
 10
100.0
 20
100.0
 30
0.0
 11
122.0000000000000995
 21
100.0
 31
0.0
  0
LINE
  5
CE
100
AcDbEntity
100
AcDbLine
  8
0
 62
256
370
-1
  6
BYLAYER
 10
61.0
 20
20.0
 30
0.0
 11
64.0
 21
20.0
 31
0.0
  0
LINE
  5
CF
100
AcDbEntity
100
AcDbLine
  8
0
 62
256
370
-1
  6
BYLAYER
 10
64.0
 20
20.0
 30
0.0
 11
64.0
 21
25.0
 31
0.0
  0
LINE
  5
D0
100
AcDbEntity
100
AcDbLine
  8
0
 62
256
370
-1
  6
BYLAYER
 10
64.0
 20
25.0
 30
0.0
 11
61.0
 21
25.0
 31
0.0
  0
LINE
  5
D1
100
AcDbEntity
100
AcDbLine
  8
0
 62
256
370
-1
  6
BYLAYER
 10
61.0000000000000071
 20
100.0
 30
0.0
 11
64.0
 21
100.0
 31
0.0
  0
LINE
  5
D2
100
AcDbEntity
100
AcDbLine
  8
0
 62
256
370
-1
  6
BYLAYER
 10
64.0
 20
100.0
 30
0.0
 11
64.0
 21
95.0
 31
0.0
  0
LINE
  5
D3
100
AcDbEntity
100
AcDbLine
  8
0
 62
256
370
-1
  6
BYLAYER
 10
64.0
 20
95.0
 30
0.0
 11
61.0000000000000071
 21
95.0
 31
0.0
  0
INSERT
  5
D4
100
AcDbEntity
100
AcDbBlockReference
  8
parts
 62
256
370
-1
  6
BYLAYER
  2
bearing
 10
178.0
 20
59.9999999999999716
 30
0.0
  0
LINE
  5
D5
100
AcDbEntity
100
AcDbLine
  8
guides
 62
256
370
-1
  6
BYLAYER
 10
111.0000000000000995
 20
78.9705419721785091
 30
0.0
 11
86.0000000000001137
 21
78.9705419721785091
 31
0.0
  0
LINE
  5
D6
100
AcDbEntity
100
AcDbLine
  8
guides
 62
256
370
-1
  6
BYLAYER
 10
77.2262800667148497
 20
74.9705419721785091
 30
0.0
 11
80.8038475772934817
 21
74.9705419721785091
 31
0.0
  0
CIRCLE
  5
D7
100
AcDbEntity
100
AcDbCircle
  8
guides
 62
256
370
-1
  6
BYLAYER
 10
86.0000000000001137
 20
78.9705419721785091
 30
0.0
 40
10.0
  0
LINE
  5
D8
100
AcDbEntity
100
AcDbLine
  8
0
 62
256
370
-1
  6
BYLAYER
 10
97.0000000000000568
 20
95.0000000000000142
 30
0.0
 11
97.0000000000000568
 21
99.9705419721785091
 31
0.0
  0
ARC
  5
D9
100
AcDbEntity
  8
0
 62
256
370
-1
  6
BYLAYER
100
AcDbCircle
 10
91.0000000000000568
 20
68.9705419721785091
 30
0.0
 40
6.0876747474750816
100
AcDbArc
 50
9.7358030428563183
 51
89.9999999999989342
  0
ARC
  5
DA
100
AcDbEntity
  8
0
 62
256
370
-1
  6
BYLAYER
100
AcDbCircle
 10
97.0000000000000284
 20
78.9705419721785091
 30
0.0
 40
21.0
100
AcDbArc
 50
89.9999999999999147
 51
188.6269265586785764
  0
ARC
  5
DB
100
AcDbEntity
  8
0
 62
256
370
-1
  6
BYLAYER
100
AcDbCircle
 10
77.2262800667148497
 20
75.9705419721785091
 30
0.0
 40
1.0
100
AcDbArc
 50
188.626926558678889
 51
270.0
  0
LINE
  5
DC
100
AcDbEntity
100
AcDbLine
  8
0
 62
256
370
-1
  6
BYLAYER
 10
77.2262800667148497
 20
74.9705419721785091
 30
0.0
 11
80.8038475772934817
 21
74.9705419721785091
 31
0.0
  0
ARC
  5
DD
100
AcDbEntity
  8
0
 62
256
370
-1
  6
BYLAYER
100
AcDbCircle
 10
144.7737199332852072
 20
75.9705419721785091
 30
0.0
 40
1.0
100
AcDbArc
 50
270.0
 51
351.3730734413210257
  0
LINE
  5
DE
100
AcDbEntity
100
AcDbLine
  8
guides
 62
256
370
-1
  6
BYLAYER
 10
144.7737199332852072
 20
74.9705419721784949
 30
0.0
 11
141.1961524227064899
 21
74.9705419721784949
 31
0.0
  0
LINE
  5
DF
100
AcDbEntity
100
AcDbLine
  8
0
 62
256
370
-1
  6
BYLAYER
 10
144.7737199332852072
 20
74.9705419721784949
 30
0.0
 11
141.1961524227064899
 21
74.9705419721784949
 31
0.0
  0
LINE
  5
E0
100
AcDbEntity
100
AcDbLine
  8
0
 62
256
370
-1
  6
BYLAYER
 10
124.9999999999999005
 20
95.0000000000000142
 30
0.0
 11
124.9999999999999005
 21
99.970541972178637
 31
0.0
  0
ARC
  5
E1
100
AcDbEntity
  8
0
 62
256
370
-1
  6
BYLAYER
100
AcDbCircle
 10
130.9999999999998863
 20
68.9705419721785091
 30
0.0
 40
6.0876747474750816
100
AcDbArc
 50
90.0000000000010658
 51
170.2641969571436675
  0
ARC
  5
E2
100
AcDbEntity
  8
0
 62
256
370
-1
  6
BYLAYER
100
AcDbCircle
 10
125.0
 20
78.9705419721785091
 30
0.0
 40
21.0
100
AcDbArc
 50
351.3730734413214805
 51
90.0000000000000853
  0
LINE
  5
E3
100
AcDbEntity
100
AcDbLine
  8
0
 62
256
370
-1
  6
BYLAYER
 10
125.0000000000000995
 20
82.0000000000000142
 30
0.0
 11
125.0000000000000995
 21
88.0
 31
0.0
  0
LINE
  5
E4
100
AcDbEntity
100
AcDbLine
  8
0
 62
256
370
-1
  6
BYLAYER
 10
61.0
 20
80.0
 30
0.0
 11
56.0
 21
80.0
 31
0.0
  0
LINE
  5
E5
100
AcDbEntity
100
AcDbLine
  8
0
 62
256
370
-1
  6
BYLAYER
 10
56.0
 20
90.0
 30
0.0
 11
61.0000000000000071
 21
90.0
 31
0.0
  0
LINE
  5
E6
100
AcDbEntity
100
AcDbLine
  8
0
 62
256
370
-1
  6
BYLAYER
 10
61.0000000000000071
 20
95.0
 30
0.0
 11
61.0000000000000071
 21
90.0000000000000142
 31
0.0
  0
LINE
  5
E7
100
AcDbEntity
100
AcDbLine
  8
0
 62
256
370
-1
  6
BYLAYER
 10
61.0000000000000071
 20
80.0
 30
0.0
 11
61.0
 21
70.0
 31
0.0
  0
LINE
  5
E8
100
AcDbEntity
100
AcDbLine
  8
0
 62
256
370
-1
  6
BYLAYER
 10
61.0
 20
40.0
 30
0.0
 11
56.0
 21
40.0
 31
0.0
  0
LINE
  5
E9
100
AcDbEntity
100
AcDbLine
  8
0
 62
256
370
-1
  6
BYLAYER
 10
55.9999999999999929
 20
30.0
 30
0.0
 11
61.0
 21
30.0
 31
0.0
  0
LINE
  5
EA
100
AcDbEntity
100
AcDbLine
  8
0
 62
256
370
-1
  6
BYLAYER
 10
61.0
 20
25.0
 30
0.0
 11
61.0
 21
30.0000000000000107
 31
0.0
  0
LINE
  5
EB
100
AcDbEntity
100
AcDbLine
  8
0
 62
256
370
-1
  6
BYLAYER
 10
61.0
 20
40.0
 30
0.0
 11
61.0
 21
50.0
 31
0.0
  0
LINE
  5
EC
100
AcDbEntity
100
AcDbLine
  8
0
 62
256
370
-1
  6
BYLAYER
 10
125.0
 20
55.0
 30
0.0
 11
125.0000000000000995
 21
65.0000000000000142
 31
0.0
  0
LINE
  5
ED
100
AcDbEntity
100
AcDbLine
  8
0
 62
256
370
-1
  6
BYLAYER
 10
-14.0
 20
68.0000000000000284
 30
0.0
 11
-14.0
 21
52.0000000000000284
 31
0.0
  0
LINE
  5
EE
100
AcDbEntity
100
AcDbLine
  8
0
 62
256
370
-1
  6
BYLAYER
 10
125.0
 20
68.0000000000000142
 30
0.0
 11
125.0
 21
70.0000000000002416
 31
0.0
  0
LINE
  5
EF
100
AcDbEntity
100
AcDbLine
  8
guides
 62
256
370
-1
  6
BYLAYER
 10
97.0000000000000284
 20
50.0000000000000213
 30
0.0
 11
97.0000000000000284
 21
70.0000000000000142
 31
0.0
  0
LINE
  5
F0
100
AcDbEntity
100
AcDbLine
  8
guides
 62
256
370
-1
  6
BYLAYER
 10
97.0000000000000284
 20
60.0000000000000071
 30
0.0
 11
109.0
 21
60.0
 31
0.0
  0
LINE
  5
F1
100
AcDbEntity
100
AcDbLine
  8
0
 62
256
370
-1
  6
BYLAYER
 10
105.0
 20
57.0
 30
0.0
 11
109.0
 21
57.0
 31
0.0
  0
LINE
  5
F2
100
AcDbEntity
100
AcDbLine
  8
0
 62
256
370
-1
  6
BYLAYER
 10
109.0
 20
57.0
 30
0.0
 11
109.0
 21
63.0
 31
0.0
  0
LINE
  5
F3
100
AcDbEntity
100
AcDbLine
  8
0
 62
256
370
-1
  6
BYLAYER
 10
109.0
 20
63.0
 30
0.0
 11
105.0
 21
63.0
 31
0.0
  0
LINE
  5
F4
100
AcDbEntity
100
AcDbLine
  8
0
 62
256
370
-1
  6
BYLAYER
 10
105.0
 20
55.0000000000000213
 30
0.0
 11
105.0
 21
57.0
 31
0.0
  0
LINE
  5
F5
100
AcDbEntity
100
AcDbLine
  8
0
 62
256
370
-1
  6
BYLAYER
 10
105.0
 20
63.0
 30
0.0
 11
105.0
 21
65.0000000000000142
 31
0.0
  0
LINE
  5
F6
100
AcDbEntity
100
AcDbLine
  8
0
 62
256
370
-1
  6
BYLAYER
 10
173.0
 20
57.0
 30
0.0
 11
169.0
 21
57.0
 31
0.0
  0
LINE
  5
F7
100
AcDbEntity
100
AcDbLine
  8
0
 62
256
370
-1
  6
BYLAYER
 10
169.0
 20
57.0
 30
0.0
 11
169.0
 21
63.0
 31
0.0
  0
LINE
  5
F8
100
AcDbEntity
100
AcDbLine
  8
0
 62
256
370
-1
  6
BYLAYER
 10
169.0
 20
63.0
 30
0.0
 11
173.0
 21
63.0
 31
0.0
  0
LINE
  5
F9
100
AcDbEntity
100
AcDbLine
  8
0
 62
256
370
-1
  6
BYLAYER
 10
173.0
 20
65.0
 30
0.0
 11
173.0
 21
63.0
 31
0.0
  0
LINE
  5
FA
100
AcDbEntity
100
AcDbLine
  8
0
 62
256
370
-1
  6
BYLAYER
 10
173.0
 20
57.0
 30
0.0
 11
173.0
 21
55.0
 31
0.0
  0
LINE
  5
FB
100
AcDbEntity
100
AcDbLine
  8
0
 62
256
370
-1
  6
BYLAYER
 10
56.0
 20
82.0
 30
0.0
 11
52.0
 21
82.0
 31
0.0
  0
LINE
  5
FC
100
AcDbEntity
100
AcDbLine
  8
0
 62
256
370
-1
  6
BYLAYER
 10
52.0
 20
82.0
 30
0.0
 11
52.0
 21
88.0
 31
0.0
  0
LINE
  5
FD
100
AcDbEntity
100
AcDbLine
  8
0
 62
256
370
-1
  6
BYLAYER
 10
52.0
 20
88.0
 30
0.0
 11
56.0
 21
88.0
 31
0.0
  0
LINE
  5
FE
100
AcDbEntity
100
AcDbLine
  8
0
 62
256
370
-1
  6
BYLAYER
 10
56.0
 20
80.0
 30
0.0
 11
56.0
 21
82.0
 31
0.0
  0
LINE
  5
FF
100
AcDbEntity
100
AcDbLine
  8
0
 62
256
370
-1
  6
BYLAYER
 10
56.0
 20
88.0
 30
0.0
 11
56.0
 21
90.0
 31
0.0
  0
LINE
  5
100
100
AcDbEntity
100
AcDbLine
  8
0
 62
256
370
-1
  6
BYLAYER
 10
56.0
 20
32.0
 30
0.0
 11
52.0
 21
32.0
 31
0.0
  0
LINE
  5
101
100
AcDbEntity
100
AcDbLine
  8
0
 62
256
370
-1
  6
BYLAYER
 10
52.0
 20
32.0
 30
0.0
 11
52.0
 21
38.0
 31
0.0
  0
LINE
  5
102
100
AcDbEntity
100
AcDbLine
  8
0
 62
256
370
-1
  6
BYLAYER
 10
52.0
 20
38.0
 30
0.0
 11
56.0
 21
37.9999999999999929
 31
0.0
  0
LINE
  5
103
100
AcDbEntity
100
AcDbLine
  8
0
 62
256
370
-1
  6
BYLAYER
 10
56.0
 20
40.0
 30
0.0
 11
56.0
 21
37.9999999999999929
 31
0.0
  0
LINE
  5
104
100
AcDbEntity
100
AcDbLine
  8
0
 62
256
370
-1
  6
BYLAYER
 10
55.9999999999999929
 20
32.0
 30
0.0
 11
55.9999999999999929
 21
30.0
 31
0.0
  0
LINE
  5
105
100
AcDbEntity
100
AcDbLine
  8
0
 62
256
370
-1
  6
BYLAYER
 10
156.0
 20
46.0
 30
0.0
 11
153.0
 21
46.0
 31
0.0
  0
LINE
  5
106
100
AcDbEntity
100
AcDbLine
  8
0
 62
256
370
-1
  6
BYLAYER
 10
156.0
 20
25.0
 30
0.0
 11
153.0
 21
25.0
 31
0.0
  0
LINE
  5
107
100
AcDbEntity
100
AcDbLine
  8
0
 62
256
370
-1
  6
BYLAYER
 10
153.0
 20
32.0
 30
0.0
 11
156.0
 21
32.0
 31
0.0
  0
LINE
  5
108
100
AcDbEntity
100
AcDbLine
  8
0
 62
256
370
-1
  6
BYLAYER
 10
156.0
 20
38.0
 30
0.0
 11
153.0
 21
38.0
 31
0.0
  0
LINE
  5
109
100
AcDbEntity
100
AcDbLine
  8
0
 62
256
370
-1
  6
BYLAYER
 10
175.0
 20
20.0
 30
0.0
 11
153.0
 21
20.0
 31
0.0
  0
LINE
  5
10A
100
AcDbEntity
100
AcDbLine
  8
0
 62
256
370
-1
  6
BYLAYER
 10
153.0
 20
52.0
 30
0.0
 11
156.0
 21
52.0
 31
0.0
  0
LINE
  5
10B
100
AcDbEntity
100
AcDbLine
  8
0
 62
256
370
-1
  6
BYLAYER
 10
153.0
 20
100.0
 30
0.0
 11
175.0
 21
100.0
 31
0.0
  0
LINE
  5
10C
100
AcDbEntity
100
AcDbLine
  8
0
 62
256
370
-1
  6
BYLAYER
 10
156.0
 20
52.0
 30
0.0
 11
156.0
 21
82.0
 31
0.0
  0
LINE
  5
10D
100
AcDbEntity
100
AcDbLine
  8
0
 62
256
370
-1
  6
BYLAYER
 10
156.0
 20
95.0
 30
0.0
 11
153.0
 21
95.0
 31
0.0
  0
LINE
  5
10E
100
AcDbEntity
100
AcDbLine
  8
0
 62
256
370
-1
  6
BYLAYER
 10
153.0
 20
88.0
 30
0.0
 11
156.0
 21
88.0
 31
0.0
  0
LINE
  5
10F
100
AcDbEntity
100
AcDbLine
  8
0
 62
256
370
-1
  6
BYLAYER
 10
156.0
 20
82.0
 30
0.0
 11
153.0
 21
82.0
 31
0.0
  0
LINE
  5
110
100
AcDbEntity
100
AcDbLine
  8
0
 62
256
370
-1
  6
BYLAYER
 10
175.0
 20
20.0
 30
0.0
 11
178.0
 21
20.0
 31
0.0
  0
LINE
  5
111
100
AcDbEntity
100
AcDbLine
  8
0
 62
256
370
-1
  6
BYLAYER
 10
153.0
 20
20.0
 30
0.0
 11
153.0
 21
25.0
 31
0.0
  0
LINE
  5
112
100
AcDbEntity
100
AcDbLine
  8
0
 62
256
370
-1
  6
BYLAYER
 10
14.0
 20
20.0000000000000142
 30
0.0
 11
14.0
 21
25.0000000000000142
 31
0.0
  0
LINE
  5
113
100
AcDbEntity
100
AcDbLine
  8
0
 62
256
370
-1
  6
BYLAYER
 10
153.0
 20
32.0
 30
0.0
 11
153.0
 21
38.0
 31
0.0
  0
LINE
  5
114
100
AcDbEntity
100
AcDbLine
  8
0
 62
256
370
-1
  6
BYLAYER
 10
14.0
 20
25.0000000000000142
 30
0.0
 11
11.0
 21
25.0000000000000142
 31
0.0
  0
LINE
  5
115
100
AcDbEntity
100
AcDbLine
  8
0
 62
256
370
-1
  6
BYLAYER
 10
156.0
 20
32.0
 30
0.0
 11
156.0
 21
25.0
 31
0.0
  0
LINE
  5
116
100
AcDbEntity
100
AcDbLine
  8
0
 62
256
370
-1
  6
BYLAYER
 10
175.0
 20
100.0
 30
0.0
 11
178.0
 21
100.0
 31
0.0
  0
LINE
  5
117
100
AcDbEntity
100
AcDbLine
  8
0
 62
256
370
-1
  6
BYLAYER
 10
156.0
 20
45.9999999999999929
 30
0.0
 11
156.0
 21
37.9999999999999929
 31
0.0
  0
LINE
  5
118
100
AcDbEntity
100
AcDbLine
  8
0
 62
256
370
-1
  6
BYLAYER
 10
14.0
 20
100.0000000000000142
 30
0.0
 11
14.0
 21
95.0000000000000142
 31
0.0
  0
LINE
  5
119
100
AcDbEntity
100
AcDbLine
  8
0
 62
256
370
-1
  6
BYLAYER
 10
153.0
 20
46.0
 30
0.0
 11
153.0
 21
52.0
 31
0.0
  0
LINE
  5
11A
100
AcDbEntity
100
AcDbLine
  8
0
 62
256
370
-1
  6
BYLAYER
 10
14.0
 20
95.0000000000000142
 30
0.0
 11
11.0
 21
95.0000000000000142
 31
0.0
  0
LINE
  5
11B
100
AcDbEntity
100
AcDbLine
  8
0
 62
256
370
-1
  6
BYLAYER
 10
6.0
 20
82.0000000000000142
 30
0.0
 11
2.0
 21
82.0000000000000142
 31
0.0
  0
LINE
  5
11C
100
AcDbEntity
100
AcDbLine
  8
0
 62
256
370
-1
  6
BYLAYER
 10
2.0
 20
82.0000000000000142
 30
0.0
 11
2.0
 21
88.0000000000000142
 31
0.0
  0
LINE
  5
11D
100
AcDbEntity
100
AcDbLine
  8
0
 62
256
370
-1
  6
BYLAYER
 10
153.0
 20
82.0
 30
0.0
 11
153.0
 21
88.0
 31
0.0
  0
LINE
  5
11E
100
AcDbEntity
100
AcDbLine
  8
0
 62
256
370
-1
  6
BYLAYER
 10
11.0
 20
80.0000000000000142
 30
0.0
 11
6.0
 21
80.0000000000000142
 31
0.0
  0
LINE
  5
11F
100
AcDbEntity
100
AcDbLine
  8
0
 62
256
370
-1
  6
BYLAYER
 10
2.0
 20
88.0000000000000142
 30
0.0
 11
6.0
 21
88.0000000000000142
 31
0.0
  0
LINE
  5
120
100
AcDbEntity
100
AcDbLine
  8
0
 62
256
370
-1
  6
BYLAYER
 10
11.0
 20
50.0000000000000142
 30
0.0
 11
14.0
 21
50.0000000000000142
 31
0.0
  0
LINE
  5
121
100
AcDbEntity
100
AcDbLine
  8
0
 62
256
370
-1
  6
BYLAYER
 10
153.0
 20
95.0
 30
0.0
 11
153.0
 21
100.0
 31
0.0
  0
LINE
  5
122
100
AcDbEntity
100
AcDbLine
  8
0
 62
256
370
-1
  6
BYLAYER
 10
6.0
 20
80.0000000000000142
 30
0.0
 11
6.0
 21
82.0000000000000142
 31
0.0
  0
LINE
  5
123
100
AcDbEntity
100
AcDbLine
  8
0
 62
256
370
-1
  6
BYLAYER
 10
14.0
 20
50.0000000000000142
 30
0.0
 11
14.0
 21
50.0000000000000142
 31
0.0
  0
LINE
  5
124
100
AcDbEntity
100
AcDbLine
  8
0
 62
256
370
-1
  6
BYLAYER
 10
6.0
 20
90.0000000000000142
 30
0.0
 11
11.0
 21
90.0000000000000142
 31
0.0
  0
LINE
  5
125
100
AcDbEntity
100
AcDbLine
  8
0
 62
256
370
-1
  6
BYLAYER
 10
14.0
 20
50.0000000000000142
 30
0.0
 11
14.0
 21
55.0000000000000142
 31
0.0
  0
LINE
  5
126
100
AcDbEntity
100
AcDbLine
  8
0
 62
256
370
-1
  6
BYLAYER
 10
11.0
 20
95.0000000000000142
 30
0.0
 11
11.0
 21
90.0000000000000284
 31
0.0
  0
LINE
  5
127
100
AcDbEntity
100
AcDbLine
  8
0
 62
256
370
-1
  6
BYLAYER
 10
6.0
 20
88.0000000000000142
 30
0.0
 11
6.0
 21
90.0000000000000142
 31
0.0
  0
LINE
  5
128
100
AcDbEntity
100
AcDbLine
  8
0
 62
256
370
-1
  6
BYLAYER
 10
14.0
 20
55.0000000000000142
 30
0.0
 11
15.0
 21
55.0000000000000142
 31
0.0
  0
LINE
  5
129
100
AcDbEntity
100
AcDbLine
  8
0
 62
256
370
-1
  6
BYLAYER
 10
156.0
 20
95.0
 30
0.0
 11
156.0
 21
88.0
 31
0.0
  0
LINE
  5
12A
100
AcDbEntity
100
AcDbLine
  8
0
 62
256
370
-1
  6
BYLAYER
 10
11.0
 20
80.0000000000000142
 30
0.0
 11
11.0
 21
70.0000000000000142
 31
0.0
  0
LINE
  5
12B
100
AcDbEntity
100
AcDbLine
  8
0
 62
256
370
-1
  6
BYLAYER
 10
6.0
 20
32.0000000000000142
 30
0.0
 11
2.0
 21
32.0000000000000142
 31
0.0
  0
LINE
  5
12C
100
AcDbEntity
100
AcDbLine
  8
0
 62
256
370
-1
  6
BYLAYER
 10
11.0
 20
40.0000000000000142
 30
0.0
 11
6.0
 21
40.0000000000000142
 31
0.0
  0
LINE
  5
12D
100
AcDbEntity
100
AcDbLine
  8
0
 62
256
370
-1
  6
BYLAYER
 10
2.0
 20
32.0000000000000142
 30
0.0
 11
2.0
 21
38.0000000000000142
 31
0.0
  0
LINE
  5
12E
100
AcDbEntity
100
AcDbLine
  8
0
 62
256
370
-1
  6
BYLAYER
 10
11.0
 20
70.0000000000000142
 30
0.0
 11
14.0
 21
70.0000000000000142
 31
0.0
  0
LINE
  5
12F
100
AcDbEntity
100
AcDbLine
  8
0
 62
256
370
-1
  6
BYLAYER
 10
2.0
 20
38.0000000000000142
 30
0.0
 11
6.0
 21
38.0000000000000071
 31
0.0
  0
LINE
  5
130
100
AcDbEntity
100
AcDbLine
  8
0
 62
256
370
-1
  6
BYLAYER
 10
14.0
 20
70.0000000000000142
 30
0.0
 11
14.0
 21
65.0000000000000142
 31
0.0
  0
LINE
  5
131
100
AcDbEntity
100
AcDbLine
  8
0
 62
256
370
-1
  6
BYLAYER
 10
6.0
 20
30.0000000000000142
 30
0.0
 11
11.0
 21
30.0000000000000142
 31
0.0
  0
LINE
  5
132
100
AcDbEntity
100
AcDbLine
  8
0
 62
256
370
-1
  6
BYLAYER
 10
6.0
 20
40.0000000000000142
 30
0.0
 11
6.0
 21
38.0000000000000071
 31
0.0
  0
LINE
  5
133
100
AcDbEntity
100
AcDbLine
  8
0
 62
256
370
-1
  6
BYLAYER
 10
14.0
 20
65.0000000000000142
 30
0.0
 11
15.0
 21
65.0000000000000142
 31
0.0
  0
LINE
  5
134
100
AcDbEntity
100
AcDbLine
  8
0
 62
256
370
-1
  6
BYLAYER
 10
11.0
 20
25.0000000000000142
 30
0.0
 11
11.0
 21
30.0000000000000249
 31
0.0
  0
LINE
  5
135
100
AcDbEntity
100
AcDbLine
  8
0
 62
256
370
-1
  6
BYLAYER
 10
6.0
 20
32.0000000000000142
 30
0.0
 11
6.0
 21
30.0000000000000142
 31
0.0
  0
ARC
  5
136
100
AcDbEntity
  8
0
 62
256
370
-1
  6
BYLAYER
100
AcDbCircle
 10
15.0
 20
60.0000000000000142
 30
0.0
 40
5.0
100
AcDbArc
 50
270.0
 51
90.0
  0
LINE
  5
137
100
AcDbEntity
100
AcDbLine
  8
0
 62
256
370
-1
  6
BYLAYER
 10
11.0
 20
40.0000000000000142
 30
0.0
 11
11.0
 21
50.0000000000000142
 31
0.0
  0
LINE
  5
138
100
AcDbEntity
100
AcDbLine
  8
0
 62
256
370
-1
  6
BYLAYER
 10
39.0
 20
68.0
 30
0.0
 11
36.0
 21
68.0
 31
0.0
  0
LINE
  5
139
100
AcDbEntity
100
AcDbLine
  8
0
 62
256
370
-1
  6
BYLAYER
 10
36.0
 20
68.0
 30
0.0
 11
36.0
 21
74.0
 31
0.0
  0
LINE
  5
13A
100
AcDbEntity
100
AcDbLine
  8
0
 62
256
370
-1
  6
BYLAYER
 10
36.0
 20
74.0
 30
0.0
 11
39.0
 21
74.0
 31
0.0
  0
LINE
  5
13B
100
AcDbEntity
100
AcDbLine
  8
0
 62
256
370
-1
  6
BYLAYER
 10
39.0
 20
52.0
 30
0.0
 11
39.0
 21
68.0
 31
0.0
  0
LINE
  5
13C
100
AcDbEntity
100
AcDbLine
  8
0
 62
256
370
-1
  6
BYLAYER
 10
39.0
 20
74.0
 30
0.0
 11
39.0
 21
82.0
 31
0.0
  0
LINE
  5
13D
100
AcDbEntity
100
AcDbLine
  8
0
 62
256
370
-1
  6
BYLAYER
 10
182.5
 20
86.5
 30
0.0
 11
181.5
 21
86.5
 31
0.0
  0
LINE
  5
13E
100
AcDbEntity
100
AcDbLine
  8
0
 62
256
370
-1
  6
BYLAYER
 10
182.5
 20
83.5
 30
0.0
 11
181.5
 21
83.5
 31
0.0
  0
ARC
  5
13F
100
AcDbEntity
  8
0
 62
256
370
-1
  6
BYLAYER
100
AcDbCircle
 10
182.5
 20
85.0
 30
0.0
 40
1.5
100
AcDbArc
 50
270.0
 51
90.0
  0
ARC
  5
140
100
AcDbEntity
  8
0
 62
256
370
-1
  6
BYLAYER
100
AcDbCircle
 10
181.5
 20
85.0
 30
0.0
 40
1.5
100
AcDbArc
 50
90.0
 51
270.0
  0
ARC
  5
141
100
AcDbEntity
  8
0
 62
256
370
-1
  6
BYLAYER
100
AcDbCircle
 10
182.5
 20
35.0
 30
0.0
 40
1.5
100
AcDbArc
 50
270.0
 51
90.0
  0
ARC
  5
142
100
AcDbEntity
  8
0
 62
256
370
-1
  6
BYLAYER
100
AcDbCircle
 10
181.5
 20
35.0
 30
0.0
 40
1.5
100
AcDbArc
 50
90.0
 51
270.0
  0
LINE
  5
143
100
AcDbEntity
100
AcDbLine
  8
0
 62
256
370
-1
  6
BYLAYER
 10
182.5
 20
36.5
 30
0.0
 11
181.5
 21
36.5
 31
0.0
  0
LINE
  5
144
100
AcDbEntity
100
AcDbLine
  8
0
 62
256
370
-1
  6
BYLAYER
 10
182.5
 20
33.5
 30
0.0
 11
181.5
 21
33.5
 31
0.0
  0
ARC
  5
145
100
AcDbEntity
  8
0
 62
256
370
-1
  6
BYLAYER
100
AcDbCircle
 10
15.5
 20
60.0000000000000426
 30
0.0
 40
1.5
100
AcDbArc
 50
270.0
 51
90.0
  0
ARC
  5
146
100
AcDbEntity
  8
0
 62
256
370
-1
  6
BYLAYER
100
AcDbCircle
 10
14.5
 20
60.0000000000000426
 30
0.0
 40
1.5
100
AcDbArc
 50
90.0
 51
270.0
  0
LINE
  5
147
100
AcDbEntity
100
AcDbLine
  8
0
 62
256
370
-1
  6
BYLAYER
 10
15.5
 20
61.5000000000000426
 30
0.0
 11
14.5
 21
61.5000000000000426
 31
0.0
  0
LINE
  5
148
100
AcDbEntity
100
AcDbLine
  8
0
 62
256
370
-1
  6
BYLAYER
 10
15.5
 20
58.5000000000000426
 30
0.0
 11
14.5
 21
58.5000000000000426
 31
0.0
  0
LINE
  5
149
100
AcDbEntity
100
AcDbLine
  8
guides
 62
256
370
-1
  6
BYLAYER
 10
111.0
 20
95.0
 30
0.0
 11
122.0000000000000995
 21
94.9999999999999716
 31
0.0
  0
LINE
  5
14A
100
AcDbEntity
100
AcDbLine
  8
guides
 62
256
370
-1
  6
BYLAYER
 10
118.0
 20
99.0
 30
0.0
 11
118.0
 21
91.0
 31
0.0
  0
CIRCLE
  5
14B
100
AcDbEntity
100
AcDbCircle
  8
0
 62
256
370
-1
  6
BYLAYER
 10
118.0
 20
94.9999999999999858
 30
0.0
 40
1.0
  0
LINE
  5
14C
100
AcDbEntity
100
AcDbLine
  8
guides
 62
256
370
-1
  6
BYLAYER
 10
111.0
 20
25.0
 30
0.0
 11
121.0
 21
25.0
 31
0.0
  0
LINE
  5
14D
100
AcDbEntity
100
AcDbLine
  8
guides
 62
256
370
-1
  6
BYLAYER
 10
118.0
 20
29.0
 30
0.0
 11
118.0
 21
20.0000000000000284
 31
0.0
  0
CIRCLE
  5
14E
100
AcDbEntity
100
AcDbCircle
  8
0
 62
256
370
-1
  6
BYLAYER
 10
118.0
 20
25.0
 30
0.0
 40
1.0
  0
DIMENSION
  5
14F
100
AcDbEntity
  8
dimensions
 62
256
370
-1
  6
BYLAYER
100
AcDbDimension
 10
65.0
 20
62.5362708902461222
 30
0.0
 11
62.5
 21
64.4112708902461293
 31
0.0
 70
1
 71
8
 72
2
 41
1.0
 42
0.0
  1

  3
Standard
100
AcDbAlignedDimension
 13
65.0
 23
60.0
 33
0.0
 14
60.0
 24
60.0
 34
0.0
1001
ACAD
1000
DSTYLE
1002
{
1070
144
1040
1
1002
}
  0
DIMENSION
  5
150
100
AcDbEntity
  8
dimensions
 62
256
370
-1
  6
BYLAYER
100
AcDbDimension
 10
64.0
 20
74.5910439161560817
 30
0.0
 11
62.0
 21
76.4660439161560817
 31
0.0
 70
1
 71
8
 72
2
 41
1.0
 42
0.0
  1

  3
Standard
100
AcDbAlignedDimension
 13
64.0
 23
70.0
 33
0.0
 14
60.0
 24
70.0
 34
0.0
1001
ACAD
1000
DSTYLE
1002
{
1070
144
1040
1
1002
}
  0
LINE
  5
151
100
AcDbEntity
100
AcDbLine
  8
guides
 62
256
370
-1
  6
BYLAYER
 10
121.0
 20
103.0
 30
0.0
 11
121.0
 21
15.0
 31
0.0
  0
LINE
  5
152
100
AcDbEntity
100
AcDbLine
  8
guides
 62
256
370
-1
  6
BYLAYER
 10
101.0
 20
15.0
 30
0.0
 11
101.0
 21
103.0
 31
0.0
  0
MTEXT
  5
153
100
AcDbEntity
100
AcDbMText
  8
dimensions
 62
256
370
-1
  6
BYLAYER
 10
104.584518538533473
 20
17.3726729763381087
 30
0.0
 40
4.0
 41
0.0
 71
1
 72
1
  1
Front
  7
textstyle0
 50
0.0
 73
2
 44
1.0
  0
MTEXT
  5
154
100
AcDbEntity
100
AcDbMText
  8
dimensions
 62
256
370
-1
  6
BYLAYER
 10
42.3846326803054154
 20
18.1721573704027293
 30
0.0
 40
4.0
 41
0.0
 71
1
 72
1
  1
Left
  7
textstyle1
 50
0.0
 73
2
 44
1.0
  0
MTEXT
  5
155
100
AcDbEntity
100
AcDbMText
  8
dimensions
 62
256
370
-1
  6
BYLAYER
 10
-7.2787671701295125
 20
18.1145944940300865
 30
0.0
 40
4.0
 41
0.0
 71
1
 72
1
  1
Back
  7
textstyle2
 50
0.0
 73
2
 44
1.0
  0
MTEXT
  5
156
100
AcDbEntity
100
AcDbMText
  8
dimensions
 62
256
370
-1
  6
BYLAYER
 10
157.447410654879377
 20
18.1145944940300865
 30
0.0
 40
4.0
 41
0.0
 71
1
 72
1
  1
Right
  7
textstyle3
 50
0.0
 73
2
 44
1.0
  0
LINE
  5
157
100
AcDbEntity
100
AcDbLine
  8
guides
 62
256
370
-1
  6
BYLAYER
 10
157.0
 20
102.0
 30
0.0
 11
157.0
 21
18.0
 31
0.0
  0
DIMENSION
  5
158
100
AcDbEntity
  8
dimensions
 62
256
370
-1
  6
BYLAYER
100
AcDbDimension
 10
167.0
 20
103.0779280916334528
 30
0.0
 11
172.0
 21
104.9529280916334528
 31
0.0
 70
1
 71
8
 72
2
 41
1.0
 42
0.0
  1

  3
Standard
100
AcDbAlignedDimension
 13
167.0
 23
100.0
 33
0.0
 14
177.0000000000000284
 24
100.0000000000000142
 34
0.0
1001
ACAD
1000
DSTYLE
1002
{
1070
144
1040
1
1002
}
  0
DIMENSION
  5
159
100
AcDbEntity
  8
dimensions
 62
256
370
-1
  6
BYLAYER
100
AcDbDimension
 10
157.0
 20
111.5788723447163733
 30
0.0
 11
162.0
 21
113.4538723447163733
 31
0.0
 70
1
 71
8
 72
2
 41
1.0
 42
0.0
  1

  3
Standard
100
AcDbAlignedDimension
 13
157.0
 23
100.0
 33
0.0
 14
167.0
 24
100.0
 34
0.0
1001
ACAD
1000
DSTYLE
1002
{
1070
144
1040
1
1002
}
  0
LINE
  5
15A
100
AcDbEntity
100
AcDbLine
  8
guides
 62
256
370
-1
  6
BYLAYER
 10
10.0
 20
100.0
 30
0.0
 11
10.0
 21
18.0
 31
0.0
  0
DIMENSION
  5
15B
100
AcDbEntity
  8
dimensions
 62
256
370
-1
  6
BYLAYER
100
AcDbDimension
 10
-10.0
 20
103.1833662895193129
 30
0.0
 11
0.0000000000000001
 21
105.0583662895193129
 31
0.0
 70
1
 71
8
 72
2
 41
1.0
 42
0.0
  1

  3
Standard
100
AcDbAlignedDimension
 13
-10.0
 23
100.0
 33
0.0
 14
10.0
 24
100.0
 34
0.0
1001
ACAD
1000
DSTYLE
1002
{
1070
144
1040
1
1002
}
  0
LINE
  5
15C
100
AcDbEntity
100
AcDbLine
  8
guides
 62
256
370
-1
  6
BYLAYER
 10
190.0
 20
85.0
 30
0.0
 11
151.0
 21
85.0
 31
0.0
  0
LINE
  5
15D
100
AcDbEntity
100
AcDbLine
  8
guides
 62
256
370
-1
  6
BYLAYER
 10
148.0
 20
85.0
 30
0.0
 11
74.0
 21
85.0
 31
0.0
  0
LINE
  5
15E
100
AcDbEntity
100
AcDbLine
  8
guides
 62
256
370
-1
  6
BYLAYER
 10
66.0
 20
85.0
 30
0.0
 11
34.0
 21
85.0
 31
0.0
  0
LINE
  5
15F
100
AcDbEntity
100
AcDbLine
  8
guides
 62
256
370
-1
  6
BYLAYER
 10
15.9999999999999929
 20
85.0
 30
0.0
 11
-12.0
 21
85.0
 31
0.0
  0
CIRCLE
  5
160
100
AcDbEntity
100
AcDbCircle
  8
parts
 62
256
370
-1
  6
BYLAYER
 10
86.0000000000001137
 20
78.9705419721785091
 30
0.0
 40
5.0
  0
LINE
  5
161
100
AcDbEntity
100
AcDbLine
  8
guides
 62
256
370
-1
  6
BYLAYER
 10
86.0000000000000995
 20
78.9705419721785091
 30
0.0
 11
83.0
 21
75.0
 31
0.0
  0
LINE
  5
162
100
AcDbEntity
100
AcDbLine
  8
guides
 62
256
370
-1
  6
BYLAYER
 10
86.0000000000000853
 20
78.9705419721785091
 30
0.0
 11
89.0
 21
75.0
 31
0.0
  0
ARC
  5
163
100
AcDbEntity
  8
0
 62
256
370
-1
  6
BYLAYER
100
AcDbCircle
 10
86.0000000000001137
 20
78.9705419721785091
 30
0.0
 40
3.5
100
AcDbArc
 50
328.0414252961278407
 51
212.2813497699386573
  0
LINE
  5
164
100
AcDbEntity
100
AcDbLine
  8
0
 62
256
370
-1
  6
BYLAYER
 10
91.0000000000001705
 20
75.0582167196535863
 30
0.0
 11
89.4566465626800209
 21
75.656212713057684
 31
0.0
  0
LINE
  5
165
100
AcDbEntity
100
AcDbLine
  8
0
 62
256
370
-1
  6
BYLAYER
 10
82.5729962871551635
 20
75.6411675612225025
 30
0.0
 11
81.0
 21
75.0
 31
0.0
  0
ARC
  5
166
100
AcDbEntity
  8
0
 62
256
370
-1
  6
BYLAYER
100
AcDbCircle
 10
82.195539240375652
 20
76.5671946546903257
 30
0.0
 40
1.0
100
AcDbArc
 50
292.1762549685058161
 51
32.2813497699387639
  0
ARC
  5
167
100
AcDbEntity
  8
0
 62
256
370
-1
  6
BYLAYER
100
AcDbCircle
 10
89.8179395460614955
 20
76.5886650604510066
 30
0.0
 40
1.0
100
AcDbArc
 50
148.041425296128125
 51
248.8203761918577186
  0
ARC
  5
168
100
AcDbEntity
  8
0
 62
256
370
-1
  6
BYLAYER
100
AcDbCircle
 10
139.8044607596243623
 20
76.5671946546903257
 30
0.0
 40
1.0
100
AcDbArc
 50
147.7186502300612858
 51
247.8237450314941839
  0
ARC
  5
169
100
AcDbEntity
  8
0
 62
256
370
-1
  6
BYLAYER
100
AcDbCircle
 10
132.1820604539385045
 20
76.5886650604510208
 30
0.0
 40
1.0
100
AcDbArc
 50
291.1796238081421961
 51
31.9585747038718715
  0
ARC
  5
16A
100
AcDbEntity
  8
0
 62
256
370
-1
  6
BYLAYER
100
AcDbCircle
 10
135.9999999999998863
 20
78.9705419721784949
 30
0.0
 40
3.5
100
AcDbArc
 50
327.7186502300613142
 51
211.9585747038721308
  0
LINE
  5
16B
100
AcDbEntity
100
AcDbLine
  8
0
 62
256
370
-1
  6
BYLAYER
 10
130.9999999999998295
 20
75.0582167196535721
 30
0.0
 11
132.5433534373199791
 21
75.6562127130576698
 31
0.0
  0
LINE
  5
16C
100
AcDbEntity
100
AcDbLine
  8
0
 62
256
370
-1
  6
BYLAYER
 10
139.4270037128448507
 20
75.6411675612225025
 30
0.0
 11
141.1961524227064899
 21
74.9705419721784949
 31
0.0
  0
MTEXT
  5
16D
100
AcDbEntity
100
AcDbMText
  8
dimensions
 62
256
370
-1
  6
BYLAYER
 10
0.0
 20
120.0
 30
0.0
 40
8.0
 41
0.0
 71
1
 72
1
  1
Cut 3 sets of these parts
  7
textstyle4
 50
0.0
 73
2
 44
1.0
  0
ENDSEC
  0
SECTION
  2
OBJECTS
  0
DICTIONARY
  5
C
100
AcDbDictionary
280
0
281
1
  3
ACAD_GROUP
350
D
  3
ACAD_LAYOUT
350
1A
  3
ACAD_MLINESTYLE
350
17
  3
ACAD_PLOTSETTINGS
350
19
  3
ACAD_PLOTSTYLENAME
350
E
  3
AcDbVariableDictionary
350
16E
  3
QCAD_OBJECTS
350
16F
  0
DICTIONARY
  5
D
100
AcDbDictionary
280
0
281
1
  0
ACDBDICTIONARYWDFLT
  5
E
100
AcDbDictionary
281
1
  3
Normal
350
F
100
AcDbDictionaryWithDefault
340
F
  0
ACDBPLACEHOLDER
  5
F
  0
DICTIONARY
  5
17
100
AcDbDictionary
280
0
281
1
  3
Standard
350
18
  0
MLINESTYLE
  5
18
100
AcDbMlineStyle
  2
STANDARD
 70
0
  3

 62
256
 51
90.0
 52
90.0
 71
2
 49
0.5
 62
256
  6
BYLAYER
 49
-0.5
 62
256
  6
BYLAYER
  0
DICTIONARY
  5
19
100
AcDbDictionary
280
0
281
1
  0
DICTIONARY
  5
1A
100
AcDbDictionary
281
1
  3
Layout1
350
1E
  3
Layout2
350
26
  3
Model
350
22
  0
LAYOUT
  5
1E
100
AcDbPlotSettings
  1

  2
none_device
  4

  6

 40
0.0
 41
0.0
 42
0.0
 43
0.0
 44
0.0
 45
0.0
 46
0.0
 47
0.0
 48
0.0
 49
0.0
140
0.0
141
0.0
142
1.0
143
1.0
 70
688
 72
0
 73
0
 74
5
  7

 75
16
147
1.0
148
0.0
149
0.0
100
AcDbLayout
  1
Layout1
 70
1
 71
1
 10
0.0
 20
0.0
 11
420.0
 21
297.0
 12
0.0
 22
0.0
 32
0.0
 14
100000000000000000000.0
 24
100000000000000000000.0
 34
100000000000000000000.0
 15
-100000000000000000000.0
 25
-100000000000000000000.0
 35
-100000000000000000000.0
146
0.0
 13
0.0
 23
0.0
 33
0.0
 16
1.0
 26
0.0
 36
0.0
 17
0.0
 27
1.0
 37
0.0
 76
0
330
1B
  0
LAYOUT
  5
22
100
AcDbPlotSettings
  1

  2
none_device
  4

  6

 40
0.0
 41
0.0
 42
0.0
 43
0.0
 44
0.0
 45
0.0
 46
0.0
 47
0.0
 48
0.0
 49
0.0
140
0.0
141
0.0
142
1.0
143
1.0
 70
1712
 72
0
 73
0
 74
0
  7

 75
0
147
1.0
148
0.0
149
0.0
100
AcDbLayout
  1
Model
 70
1
 71
0
 10
0.0
 20
0.0
 11
12.0
 21
9.0
 12
0.0
 22
0.0
 32
0.0
 14
0.0
 24
0.0
 34
0.0
 15
0.0
 25
0.0
 35
0.0
146
0.0
 13
0.0
 23
0.0
 33
0.0
 16
1.0
 26
0.0
 36
0.0
 17
0.0
 27
1.0
 37
0.0
 76
0
330
1F
  0
LAYOUT
  5
26
100
AcDbPlotSettings
  1

  2
none_device
  4

  6

 40
0.0
 41
0.0
 42
0.0
 43
0.0
 44
0.0
 45
0.0
 46
0.0
 47
0.0
 48
0.0
 49
0.0
140
0.0
141
0.0
142
1.0
143
1.0
 70
688
 72
0
 73
0
 74
5
  7

 75
16
147
1.0
148
0.0
149
0.0
100
AcDbLayout
  1
Layout2
 70
1
 71
2
 10
0.0
 20
0.0
 11
12.0
 21
9.0
 12
0.0
 22
0.0
 32
0.0
 14
0.0
 24
0.0
 34
0.0
 15
0.0
 25
0.0
 35
0.0
146
0.0
 13
0.0
 23
0.0
 33
0.0
 16
1.0
 26
0.0
 36
0.0
 17
0.0
 27
1.0
 37
0.0
 76
0
330
23
  0
DICTIONARY
  5
16E
100
AcDbDictionary
281
1
  3
DIMASSOC
350
171
  3
HIDETEXT
350
170
  0
DICTIONARYVAR
  5
170
100
DictionaryVariables
280
0
  1
2
  0
DICTIONARYVAR
  5
171
100
DictionaryVariables
280
0
  1
1
  0
DICTIONARY
  5
16F
100
AcDbDictionary
281
1
  3
Grid/DisplayGrid00
350
172
  3
Grid/DisplayGrid01
350
173
  3
Grid/DisplayGrid02
350
174
  3
Grid/DisplayGrid03
350
175
  3
Grid/GridSpacingX00
350
176
  3
Grid/GridSpacingX01
350
177
  3
Grid/GridSpacingX02
350
178
  3
Grid/GridSpacingX03
350
179
  3
Grid/GridSpacingY00
350
17A
  3
Grid/GridSpacingY01
350
17B
  3
Grid/GridSpacingY02
350
17C
  3
Grid/GridSpacingY03
350
17D
  3
Grid/IsometricGrid00
350
17E
  3
Grid/IsometricGrid01
350
17F
  3
Grid/IsometricGrid02
350
180
  3
Grid/IsometricGrid03
350
181
  3
Grid/IsometricProjection00
350
182
  3
Grid/IsometricProjection01
350
183
  3
Grid/IsometricProjection02
350
184
  3
Grid/IsometricProjection03
350
185
  3
Grid/MetaGridSpacingX00
350
186
  3
Grid/MetaGridSpacingX01
350
187
  3
Grid/MetaGridSpacingX02
350
188
  3
Grid/MetaGridSpacingX03
350
189
  3
Grid/MetaGridSpacingY00
350
18A
  3
Grid/MetaGridSpacingY01
350
18B
  3
Grid/MetaGridSpacingY02
350
18C
  3
Grid/MetaGridSpacingY03
350
18D
  3
MultiPageSettings/Columns
350
18E
  3
MultiPageSettings/GlueMarginsBottom
350
18F
  3
MultiPageSettings/GlueMarginsLeft
350
190
  3
MultiPageSettings/GlueMarginsRight
350
191
  3
MultiPageSettings/GlueMarginsTop
350
192
  3
MultiPageSettings/PrintCropMarks
350
193
  3
MultiPageSettings/Rows
350
194
  3
PageSettings/OffsetX
350
195
  3
PageSettings/OffsetY
350
196
  3
PageSettings/PageOrientation
350
197
  3
PageSettings/PaperHeight
350
198
  3
PageSettings/PaperWidth
350
199
  3
PageSettings/Scale
350
19A
  3
PageSettings/ShowPaperBorders
350
19B
  3
UnitSettings/PaperUnit
350
19C
  0
XRECORD
  5
172
330
16F
100
AcDbXrecord
280
1
290
1
  0
XRECORD
  5
173
330
16F
100
AcDbXrecord
280
1
290
1
  0
XRECORD
  5
174
330
16F
100
AcDbXrecord
280
1
290
1
  0
XRECORD
  5
175
330
16F
100
AcDbXrecord
280
1
290
1
  0
XRECORD
  5
176
330
16F
100
AcDbXrecord
280
1
1000
auto
  0
XRECORD
  5
177
330
16F
100
AcDbXrecord
280
1
1000
auto
  0
XRECORD
  5
178
330
16F
100
AcDbXrecord
280
1
1000
auto
  0
XRECORD
  5
179
330
16F
100
AcDbXrecord
280
1
1000
auto
  0
XRECORD
  5
17A
330
16F
100
AcDbXrecord
280
1
1000
auto
  0
XRECORD
  5
17B
330
16F
100
AcDbXrecord
280
1
1000
auto
  0
XRECORD
  5
17C
330
16F
100
AcDbXrecord
280
1
1000
auto
  0
XRECORD
  5
17D
330
16F
100
AcDbXrecord
280
1
1000
auto
  0
XRECORD
  5
17E
330
16F
100
AcDbXrecord
280
1
290
0
  0
XRECORD
  5
17F
330
16F
100
AcDbXrecord
280
1
290
0
  0
XRECORD
  5
180
330
16F
100
AcDbXrecord
280
1
290
0
  0
XRECORD
  5
181
330
16F
100
AcDbXrecord
280
1
290
0
  0
XRECORD
  5
182
330
16F
100
AcDbXrecord
280
1
 90
0
  0
XRECORD
  5
183
330
16F
100
AcDbXrecord
280
1
 90
0
  0
XRECORD
  5
184
330
16F
100
AcDbXrecord
280
1
 90
0
  0
XRECORD
  5
185
330
16F
100
AcDbXrecord
280
1
 90
0
  0
XRECORD
  5
186
330
16F
100
AcDbXrecord
280
1
1000
auto
  0
XRECORD
  5
187
330
16F
100
AcDbXrecord
280
1
1000
auto
  0
XRECORD
  5
188
330
16F
100
AcDbXrecord
280
1
1000
auto
  0
XRECORD
  5
189
330
16F
100
AcDbXrecord
280
1
1000
auto
  0
XRECORD
  5
18A
330
16F
100
AcDbXrecord
280
1
1000
auto
  0
XRECORD
  5
18B
330
16F
100
AcDbXrecord
280
1
1000
auto
  0
XRECORD
  5
18C
330
16F
100
AcDbXrecord
280
1
1000
auto
  0
XRECORD
  5
18D
330
16F
100
AcDbXrecord
280
1
1000
auto
  0
XRECORD
  5
18E
330
16F
100
AcDbXrecord
280
1
 90
1
  0
XRECORD
  5
18F
330
16F
100
AcDbXrecord
280
1
 40
10.0
  0
XRECORD
  5
190
330
16F
100
AcDbXrecord
280
1
 40
10.0
  0
XRECORD
  5
191
330
16F
100
AcDbXrecord
280
1
 40
10.0
  0
XRECORD
  5
192
330
16F
100
AcDbXrecord
280
1
 40
10.0
  0
XRECORD
  5
193
330
16F
100
AcDbXrecord
280
1
290
0
  0
XRECORD
  5
194
330
16F
100
AcDbXrecord
280
1
 90
1
  0
XRECORD
  5
195
330
16F
100
AcDbXrecord
280
1
 40
0.0
  0
XRECORD
  5
196
330
16F
100
AcDbXrecord
280
1
 40
0.0
  0
XRECORD
  5
197
330
16F
100
AcDbXrecord
280
1
1000
Portrait
  0
XRECORD
  5
198
330
16F
100
AcDbXrecord
280
1
 40
297.0
  0
XRECORD
  5
199
330
16F
100
AcDbXrecord
280
1
 40
210.0
  0
XRECORD
  5
19A
330
16F
100
AcDbXrecord
280
1
1000
1:1
  0
XRECORD
  5
19B
330
16F
100
AcDbXrecord
280
1
290
1
  0
XRECORD
  5
19C
330
16F
100
AcDbXrecord
280
1
 90
4
  0
ENDSEC
  0
EOF
