<?xml version="1.0" encoding="UTF-8"?>
<!-- 2014-07-30 22:34:47 Generated by QCAD SVG Exporter -->
<svg width="249.7623033501716mm" height="169.94228634059948mm" viewBox="-0.4474411167423398 -170.94228634059948 249.7623033501716 169.94228634059948" version="1.1" xmlns="http://www.w3.org/2000/svg" style="stroke-linecap:round;stroke-linejoin:round;fill:none">
    <g transform="scale(1,-1)">
        <!-- Line -->
        <path d="M33,36 L33,39 " style="stroke:#000000;stroke-width:0.01;"/>
        <!-- Line -->
        <path d="M33,39 L27,39 " style="stroke:#000000;stroke-width:0.01;"/>
        <!-- Line -->
        <path d="M27,39 L27,36 " style="stroke:#000000;stroke-width:0.01;"/>
        <!-- Line -->
        <path d="M49,39 L55,39 " style="stroke:#000000;stroke-width:0.01;"/>
        <!-- Line -->
        <path d="M55,39 L55,36 " style="stroke:#000000;stroke-width:0.01;"/>
        <!-- Line -->
        <path d="M81,39 L76,39 " style="stroke:#000000;stroke-width:0.01;"/>
        <!-- Line -->
        <path d="M76,39 L76,36 " style="stroke:#000000;stroke-width:0.01;"/>
        <!-- Line -->
        <path d="M69,36 L69,39 " style="stroke:#000000;stroke-width:0.01;"/>
        <!-- Line -->
        <path d="M69,39 L63,39 " style="stroke:#000000;stroke-width:0.01;"/>
        <!-- Line -->
        <path d="M63,39 L63,36 " style="stroke:#000000;stroke-width:0.01;"/>
        <!-- Line -->
        <path d="M49,36 L49,39 " style="stroke:#000000;stroke-width:0.01;"/>
        <!-- Line -->
        <path d="M1,68 L6,68 " style="stroke:#000000;stroke-width:0.01;"/>
        <!-- Line -->
        <path d="M6,68 L6,65 " style="stroke:#000000;stroke-width:0.01;"/>
        <!-- Line -->
        <path d="M76,36 L69,36 " style="stroke:#000000;stroke-width:0.01;"/>
        <!-- Line -->
        <path d="M63,36 L55,36 " style="stroke:#000000;stroke-width:0.01;"/>
        <!-- Line -->
        <path d="M27,36 L19,36 " style="stroke:#000000;stroke-width:0.01;"/>
        <!-- Line -->
        <path d="M13,36 L6,36 " style="stroke:#000000;stroke-width:0.01;"/>
        <!-- Line -->
        <path d="M1,39 L1,64 " style="stroke:#000000;stroke-width:0.01;"/>
        <!-- Line -->
        <path d="M76.00000000000006,65 L71,65 " style="stroke:#000000;stroke-width:0.01;"/>
        <!-- Line -->
        <path d="M27,32 L27,35 " style="stroke:#000000;stroke-width:0.01;"/>
        <!-- Line -->
        <path d="M6,32 L6,35 " style="stroke:#000000;stroke-width:0.01;"/>
        <!-- Line -->
        <path d="M13,35.00000000000003 L13,32.00000000000003 " style="stroke:#000000;stroke-width:0.01;"/>
        <!-- Line -->
        <path d="M19,32 L19,35 " style="stroke:#000000;stroke-width:0.01;"/>
        <!-- Line -->
        <path d="M1,7.000000000000014 L1,35 " style="stroke:#000000;stroke-width:0.01;"/>
        <!-- Line -->
        <path d="M33,35 L33,32 " style="stroke:#000000;stroke-width:0.01;"/>
        <!-- Line -->
        <path d="M81,32 L81,10 " style="stroke:#000000;stroke-width:0.01;"/>
        <!-- Line -->
        <path d="M76,32 L76,35 " style="stroke:#000000;stroke-width:0.01;"/>
        <!-- Line -->
        <path d="M69,35 L69,32 " style="stroke:#000000;stroke-width:0.01;"/>
        <!-- Line -->
        <path d="M63,32 L63,35 " style="stroke:#000000;stroke-width:0.01;"/>
        <!-- Line -->
        <path d="M81,35 L81,32 " style="stroke:#000000;stroke-width:0.01;"/>
        <!-- Line -->
        <path d="M1,35 L6,35 " style="stroke:#000000;stroke-width:0.01;"/>
        <!-- Line -->
        <path d="M13,35.00000000000003 L19,35 " style="stroke:#000000;stroke-width:0.01;"/>
        <!-- Line -->
        <path d="M13,32.00000000000003 L6,32 " style="stroke:#000000;stroke-width:0.01;"/>
        <!-- Line -->
        <path d="M27,32 L19,32 " style="stroke:#000000;stroke-width:0.01;"/>
        <!-- Line -->
        <path d="M27,35 L33,35 " style="stroke:#000000;stroke-width:0.01;"/>
        <!-- Line -->
        <path d="M63,35 L69,35 " style="stroke:#000000;stroke-width:0.01;"/>
        <!-- Line -->
        <path d="M76,35 L81,35 " style="stroke:#000000;stroke-width:0.01;"/>
        <!-- Line -->
        <path d="M76,32 L69,32 " style="stroke:#000000;stroke-width:0.01;"/>
        <!-- Line -->
        <path d="M31,10 L31,7 " style="stroke:#000000;stroke-width:0.01;"/>
        <!-- Line -->
        <!-- Line -->
        <path d="M31,7 L36,7 " style="stroke:#000000;stroke-width:0.01;"/>
        <!-- Line -->
        <path d="M36,7 L36,6 " style="stroke:#000000;stroke-width:0.01;"/>
        <!-- Circle -->
        <circle cx="41" cy="6" r="1.5" style="stroke:#000000;stroke-width:0.01;"/>
        <!-- Line -->
        <path d="M51,10 L51,7 " style="stroke:#000000;stroke-width:0.01;"/>
        <!-- Line -->
        <path d="M51,7 L46,7 " style="stroke:#000000;stroke-width:0.01;"/>
        <!-- Line -->
        <path d="M46,7 L46,6 " style="stroke:#000000;stroke-width:0.01;"/>
        <!-- Arc -->
        <path d="M36,6.000000000000001 A5,5 0 0,1 46,6 " style="stroke:#000000;stroke-width:0.01;"/>
        <!-- Line -->
        <path d="M81,78 L81,75 " style="stroke:#000000;stroke-width:0.01;"/>
        <!-- Line -->
        <path d="M1,7.000000000000014 L6,7.000000000000014 " style="stroke:#000000;stroke-width:0.01;"/>
        <!-- Line -->
        <path d="M6,7.000000000000014 L6,10.000000000000028 " style="stroke:#000000;stroke-width:0.01;"/>
        <!-- Line -->
        <path d="M81,10 L81,7 " style="stroke:#000000;stroke-width:0.01;"/>
        <!-- Line -->
        <path d="M81,7 L76,7 " style="stroke:#000000;stroke-width:0.01;"/>
        <!-- Line -->
        <path d="M76,7 L76,10 " style="stroke:#000000;stroke-width:0.01;"/>
        <!-- Line -->
        <path d="M61,10 L61,15 " style="stroke:#000000;stroke-width:0.01;"/>
        <!-- Line -->
        <path d="M71,15 L71,10 " style="stroke:#000000;stroke-width:0.01;"/>
        <!-- Line -->
        <path d="M76,10 L71,10 " style="stroke:#000000;stroke-width:0.01;"/>
        <!-- Line -->
        <path d="M61,10 L51,10 " style="stroke:#000000;stroke-width:0.01;"/>
        <!-- Line -->
        <path d="M21,10 L21,15 " style="stroke:#000000;stroke-width:0.01;"/>
        <!-- Line -->
        <path d="M11,15 L11,10.000000000000028 " style="stroke:#000000;stroke-width:0.01;"/>
        <!-- Line -->
        <path d="M6,10.000000000000028 L11,10.000000000000028 " style="stroke:#000000;stroke-width:0.01;"/>
        <!-- Line -->
        <path d="M21,10 L31,10 " style="stroke:#000000;stroke-width:0.01;"/>
        <!-- Line -->
        <path d="M33,36 L49,36 " style="stroke:#000000;stroke-width:0.01;"/>
        <!-- Line -->
        <path d="M38,73 L38,77 " style="stroke:#000000;stroke-width:0.01;"/>
        <!-- Line -->
        <path d="M38,77 L44,77 " style="stroke:#000000;stroke-width:0.01;"/>
        <!-- Line -->
        <path d="M44,77 L44,73 " style="stroke:#000000;stroke-width:0.01;"/>
        <!-- Line -->
        <path d="M46,73 L44,73 " style="stroke:#000000;stroke-width:0.01;"/>
        <!-- Line -->
        <path d="M38,73 L36,73 " style="stroke:#000000;stroke-width:0.01;"/>
        <!-- Line -->
        <path d="M63,15 L63,19 " style="stroke:#000000;stroke-width:0.01;"/>
        <!-- Line -->
        <path d="M63,19 L69,19 " style="stroke:#000000;stroke-width:0.01;"/>
        <!-- Line -->
        <path d="M69,19 L69,15 " style="stroke:#000000;stroke-width:0.01;"/>
        <!-- Line -->
        <path d="M61,15 L63,15 " style="stroke:#000000;stroke-width:0.01;"/>
        <!-- Line -->
        <path d="M69,15 L71,15 " style="stroke:#000000;stroke-width:0.01;"/>
        <!-- Line -->
        <path d="M13,15 L13,19.00000000000003 " style="stroke:#000000;stroke-width:0.01;"/>
        <!-- Line -->
        <path d="M13,19.00000000000003 L19,19 " style="stroke:#000000;stroke-width:0.01;"/>
        <!-- Line -->
        <path d="M19,19 L19,15 " style="stroke:#000000;stroke-width:0.01;"/>
        <!-- Line -->
        <path d="M21,15 L19,15 " style="stroke:#000000;stroke-width:0.01;"/>
        <!-- Line -->
        <path d="M13,15 L11,15 " style="stroke:#000000;stroke-width:0.01;"/>
        <!-- Line -->
        <path d="M27,90 L27,93 " style="stroke:#000000;stroke-width:0.01;"/>
        <!-- Line -->
        <path d="M6,90 L6,93 " style="stroke:#000000;stroke-width:0.01;"/>
        <!-- Line -->
        <path d="M13,93 L13,90 " style="stroke:#000000;stroke-width:0.01;"/>
        <!-- Line -->
        <path d="M19,90 L19,93 " style="stroke:#000000;stroke-width:0.01;"/>
        <!-- Line -->
        <path d="M1,71 L1,93 " style="stroke:#000000;stroke-width:0.01;"/>
        <!-- Line -->
        <path d="M33,93 L33,90 " style="stroke:#000000;stroke-width:0.01;"/>
        <!-- Line -->
        <path d="M81,93 L81,71 " style="stroke:#000000;stroke-width:0.01;"/>
        <!-- Line -->
        <path d="M33,90 L63,90 " style="stroke:#000000;stroke-width:0.01;"/>
        <!-- Line -->
        <path d="M76,90 L75.99999999999994,93 " style="stroke:#000000;stroke-width:0.01;"/>
        <!-- Line -->
        <path d="M69,93 L69,90 " style="stroke:#000000;stroke-width:0.01;"/>
        <!-- Line -->
        <path d="M63,90 L63,93 " style="stroke:#000000;stroke-width:0.01;"/>
        <!-- Line -->
        <path d="M1,71 L1,68 " style="stroke:#000000;stroke-width:0.01;"/>
        <!-- Line -->
        <path d="M1,93 L6,93 " style="stroke:#000000;stroke-width:0.01;"/>
        <!-- Line -->
        <path d="M81,64 L76,64 " style="stroke:#000000;stroke-width:0.01;"/>
        <!-- Line -->
        <path d="M13,93 L19,93 " style="stroke:#000000;stroke-width:0.01;"/>
        <!-- Line -->
        <path d="M76,64 L76.00000000000006,61 " style="stroke:#000000;stroke-width:0.01;"/>
        <!-- Line -->
        <path d="M13,90 L6,90 " style="stroke:#000000;stroke-width:0.01;"/>
        <!-- Line -->
        <path d="M81,71 L81,68 " style="stroke:#000000;stroke-width:0.01;"/>
        <!-- Line -->
        <path d="M27,90 L19,90 " style="stroke:#000000;stroke-width:0.01;"/>
        <!-- Line -->
        <path d="M1,64 L6,64 " style="stroke:#000000;stroke-width:0.01;"/>
        <!-- Line -->
        <path d="M27,93 L33,93 " style="stroke:#000000;stroke-width:0.01;"/>
        <!-- Line -->
        <path d="M6,64 L6,61 " style="stroke:#000000;stroke-width:0.01;"/>
        <!-- Line -->
        <path d="M19,56 L19,52 " style="stroke:#000000;stroke-width:0.01;"/>
        <!-- Line -->
        <path d="M19,52 L13,52 " style="stroke:#000000;stroke-width:0.01;"/>
        <!-- Line -->
        <path d="M63,93 L69,93 " style="stroke:#000000;stroke-width:0.01;"/>
        <!-- Line -->
        <path d="M21,61 L21,56 " style="stroke:#000000;stroke-width:0.01;"/>
        <!-- Line -->
        <path d="M13,52 L13,56 " style="stroke:#000000;stroke-width:0.01;"/>
        <!-- Line -->
        <path d="M51,61 L51,64 " style="stroke:#000000;stroke-width:0.01;"/>
        <!-- Line -->
        <path d="M75.99999999999994,93 L81,93 " style="stroke:#000000;stroke-width:0.01;"/>
        <!-- Line -->
        <path d="M21,56 L19,56 " style="stroke:#000000;stroke-width:0.01;"/>
        <!-- Line -->
        <!-- Line -->
        <path d="M11,56 L11,61 " style="stroke:#000000;stroke-width:0.01;"/>
        <!-- Line -->
        <path d="M51,64 L46,64 " style="stroke:#000000;stroke-width:0.01;"/>
        <!-- Line -->
        <path d="M6,61 L11,61 " style="stroke:#000000;stroke-width:0.01;"/>
        <!-- Line -->
        <path d="M13,56 L11,56 " style="stroke:#000000;stroke-width:0.01;"/>
        <!-- Line -->
        <path d="M46,64 L46,65 " style="stroke:#000000;stroke-width:0.01;"/>
        <!-- Line -->
        <path d="M76,90 L69,90 " style="stroke:#000000;stroke-width:0.01;"/>
        <!-- Line -->
        <path d="M21,61 L31,61.00000000000003 " style="stroke:#000000;stroke-width:0.01;"/>
        <!-- Line -->
        <path d="M69,56 L69,52 " style="stroke:#000000;stroke-width:0.01;"/>
        <!-- Line -->
        <path d="M61,61 L61,56 " style="stroke:#000000;stroke-width:0.01;"/>
        <!-- Line -->
        <path d="M69,52 L63,52 " style="stroke:#000000;stroke-width:0.01;"/>
        <!-- Line -->
        <path d="M31,61.00000000000003 L31,64 " style="stroke:#000000;stroke-width:0.01;"/>
        <!-- Line -->
        <path d="M63,52 L63,56 " style="stroke:#000000;stroke-width:0.01;"/>
        <!-- Line -->
        <path d="M31,64 L36,64 " style="stroke:#000000;stroke-width:0.01;"/>
        <!-- Line -->
        <path d="M71,56 L71,61 " style="stroke:#000000;stroke-width:0.01;"/>
        <!-- Line -->
        <path d="M61,56 L63,56 " style="stroke:#000000;stroke-width:0.01;"/>
        <!-- Line -->
        <path d="M36,64 L36,65 " style="stroke:#000000;stroke-width:0.01;"/>
        <!-- Line -->
        <path d="M76.00000000000006,61 L71,61 " style="stroke:#000000;stroke-width:0.01;"/>
        <!-- Line -->
        <path d="M69,56 L71,56 " style="stroke:#000000;stroke-width:0.01;"/>
        <!-- Arc -->
        <path d="M46,65 A5,5 0 0,1 36,65 " style="stroke:#000000;stroke-width:0.01;"/>
        <!-- Line -->
        <path d="M61,61 L51,61 " style="stroke:#000000;stroke-width:0.01;"/>
        <!-- Line -->
        <path d="M49,32 L49,35 " style="stroke:#000000;stroke-width:0.01;"/>
        <!-- Line -->
        <path d="M49,35 L55,35 " style="stroke:#000000;stroke-width:0.01;"/>
        <!-- Line -->
        <path d="M55,35 L55,32 " style="stroke:#000000;stroke-width:0.01;"/>
        <!-- Line -->
        <path d="M33,32 L49,32 " style="stroke:#000000;stroke-width:0.01;"/>
        <!-- Line -->
        <path d="M55,32 L63,32 " style="stroke:#000000;stroke-width:0.01;"/>
        <!-- Line -->
        <path d="M67.5,63.5 L67.5,64.5 " style="stroke:#000000;stroke-width:0.01;"/>
        <!-- Line -->
        <path d="M64.5,63.5 L64.5,64.5 " style="stroke:#000000;stroke-width:0.01;"/>
        <!-- Arc -->
        <path d="M64.5,63.5 A1.5,1.5 0 0,1 67.5,63.5 " style="stroke:#000000;stroke-width:0.01;"/>
        <!-- Arc -->
        <path d="M67.5,64.5 A1.5,1.5 0 0,1 64.5,64.5 " style="stroke:#000000;stroke-width:0.01;"/>
        <!-- Arc -->
        <path d="M14.5,63.5 A1.5,1.5 0 0,1 17.5,63.5 " style="stroke:#000000;stroke-width:0.01;"/>
        <!-- Arc -->
        <path d="M17.5,64.5 A1.5,1.5 0 0,1 14.5,64.5 " style="stroke:#000000;stroke-width:0.01;"/>
        <!-- Line -->
        <path d="M17.5,63.5 L17.5,64.5 " style="stroke:#000000;stroke-width:0.01;"/>
        <!-- Line -->
        <path d="M14.5,63.5 L14.5,64.5 " style="stroke:#000000;stroke-width:0.01;"/>
        <!-- Arc -->
        <path d="M42.5,65.5 A1.5,1.5 0 0,1 39.5,65.5 " style="stroke:#000000;stroke-width:0.01;"/>
        <!-- Arc -->
        <path d="M39.5,64.5 A1.5,1.5 0 0,1 42.5,64.5 " style="stroke:#000000;stroke-width:0.01;"/>
        <!-- Line -->
        <path d="M39.5,65.5 L39.5,64.5 " style="stroke:#000000;stroke-width:0.01;"/>
        <!-- Line -->
        <path d="M42.5,65.5 L42.5,64.5 " style="stroke:#000000;stroke-width:0.01;"/>
        <!-- Line -->
        <path d="M81,64 L81,39 " style="stroke:#000000;stroke-width:0.01;"/>
        <!-- Line -->
        <path d="M21,64.00000000000003 L21,65 " style="stroke:#000000;stroke-width:0.01;"/>
        <!-- Line -->
        <path d="M11,64.00000000000003 L11,65 " style="stroke:#000000;stroke-width:0.01;"/>
        <!-- Arc -->
        <path d="M11,64 A5,5 0 0,1 21,64 " style="stroke:#000000;stroke-width:0.01;"/>
        <!-- Line -->
        <path d="M11,65 L6,65 " style="stroke:#000000;stroke-width:0.01;"/>
        <!-- Line -->
        <path d="M61,64 L61,65 " style="stroke:#000000;stroke-width:0.01;"/>
        <!-- Line -->
        <path d="M71,64 L71,65 " style="stroke:#000000;stroke-width:0.01;"/>
        <!-- Arc -->
        <path d="M61,64 A5,5 0 0,1 71,64 " style="stroke:#000000;stroke-width:0.01;"/>
        <!-- Line -->
        <path d="M46,68 L51,68 " style="stroke:#000000;stroke-width:0.01;"/>
        <!-- Line -->
        <path d="M51,68 L51,65 " style="stroke:#000000;stroke-width:0.01;"/>
        <!-- Line -->
        <path d="M36,68 L31,68 " style="stroke:#000000;stroke-width:0.01;"/>
        <!-- Line -->
        <path d="M31,68 L31,65 " style="stroke:#000000;stroke-width:0.01;"/>
        <!-- Line -->
        <path d="M31,65 L21,65 " style="stroke:#000000;stroke-width:0.01;"/>
        <!-- Line -->
        <path d="M36,73 L36,68 " style="stroke:#000000;stroke-width:0.01;"/>
        <!-- Line -->
        <path d="M46,68 L46,73 " style="stroke:#000000;stroke-width:0.01;"/>
        <!-- Line -->
        <path d="M61,65 L51,65 " style="stroke:#000000;stroke-width:0.01;"/>
        <!-- Line -->
        <path d="M81,68 L76,68 " style="stroke:#000000;stroke-width:0.01;"/>
        <!-- Line -->
        <path d="M76,68 L76.00000000000006,65 " style="stroke:#000000;stroke-width:0.01;"/>
        <!-- Line -->
        <path d="M1,39 L6,39 " style="stroke:#000000;stroke-width:0.01;"/>
        <!-- Line -->
        <path d="M6,39 L6,36 " style="stroke:#000000;stroke-width:0.01;"/>
        <!-- Line -->
        <path d="M13,36 L13,39 " style="stroke:#000000;stroke-width:0.01;"/>
        <!-- Line -->
        <path d="M13,39 L19,39.00000000000003 " style="stroke:#000000;stroke-width:0.01;"/>
        <!-- Line -->
        <path d="M19,39.00000000000003 L19,36 " style="stroke:#000000;stroke-width:0.01;"/>
        <!-- Line -->
        <path d="M134.5,30 L137.5,30.000000000000014 " style="stroke:#000000;stroke-width:0.01;"/>
        <!-- Line -->
        <path d="M137.5,24 L134.5,24 " style="stroke:#000000;stroke-width:0.01;"/>
        <!-- Line -->
        <path d="M134.5,47 L134.5,7 " style="stroke:#ff0000;stroke-width:0.01;"/>
        <!-- Line -->
        <path d="M133,12 L139,12 " style="stroke:#000000;stroke-width:0.01;"/>
        <!-- Line -->
        <path d="M139,12 L139,18 " style="stroke:#000000;stroke-width:0.01;"/>
        <!-- Line -->
        <path d="M139,18 L133,18 " style="stroke:#000000;stroke-width:0.01;"/>
        <!-- Line -->
        <path d="M133,18 L133,12 " style="stroke:#000000;stroke-width:0.01;"/>
        <!-- Line -->
        <path d="M133,24 L139,24 " style="stroke:#000000;stroke-width:0.01;"/>
        <!-- Line -->
        <path d="M139,24 L139,30 " style="stroke:#000000;stroke-width:0.01;"/>
        <!-- Line -->
        <path d="M139,30 L133,30 " style="stroke:#000000;stroke-width:0.01;"/>
        <!-- Line -->
        <path d="M133,30 L133,24 " style="stroke:#000000;stroke-width:0.01;"/>
        <!-- Line -->
        <path d="M133,36 L139,36 " style="stroke:#000000;stroke-width:0.01;"/>
        <!-- Line -->
        <path d="M139,36 L139,42 " style="stroke:#000000;stroke-width:0.01;"/>
        <!-- Line -->
        <path d="M139,42 L133,42 " style="stroke:#000000;stroke-width:0.01;"/>
        <!-- Line -->
        <path d="M133,42 L133,36 " style="stroke:#000000;stroke-width:0.01;"/>
        <!-- Line -->
        <path d="M174.31486223342927,7 L174.31486223342927,47 " style="stroke:#ff0000;stroke-width:0.01;"/>
        <!-- Line -->
        <path d="M122,7 L144,7 " style="stroke:#000000;stroke-width:0.01;"/>
        <!-- Line -->
        <path d="M142,47 L122,47 " style="stroke:#000000;stroke-width:0.01;"/>
        <!-- Line -->
        <path d="M152.34139835452487,35.5 L141.31486223342927,35.5 " style="stroke:#ff0000;stroke-width:0.01;"/>
        <!-- Arc -->
        <path d="M149.2268088570756,35.86363636363637 A2.499999999999996,2.499999999999996 0 1,1 144.7731911429244,35.86363636363637 " style="stroke:#000000;stroke-width:0.01;"/>
        <!-- Line -->
        <path d="M149.4494897427832,35.5 L151.75,35.5 " style="stroke:#000000;stroke-width:0.01;"/>
        <!-- Line -->
        <!-- Line -->
        <path d="M152,35.75 L152,42 " style="stroke:#000000;stroke-width:0.01;"/>
        <!-- Arc -->
        <path d="M152,42 A5,5 0 0,1 147,47 " style="stroke:#000000;stroke-width:0.01;"/>
        <!-- Line -->
        <path d="M147,47 L142,47 " style="stroke:#000000;stroke-width:0.01;"/>
        <!-- Line -->
        <path d="M144.25,7.25 L144.25,35.25 " style="stroke:#000000;stroke-width:0.01;"/>
        <!-- Arc -->
        <path d="M144.55051025721684,35.5 A0.25,0.25 0 0,1 144.77319114292442,35.86363636363637 " style="stroke:#000000;stroke-width:0.01;"/>
        <!-- Arc -->
        <path d="M149.22680885707564,35.86363636363637 A0.25,0.25 0 0,1 149.4494897427832,35.5 " style="stroke:#000000;stroke-width:0.01;"/>
        <!-- Arc -->
        <path d="M151.75,35.5 A0.25,0.25 0 0,1 152,35.75 " style="stroke:#000000;stroke-width:0.01;"/>
        <!-- Arc -->
        <path d="M144.5,35.5 A0.25,0.25 0 0,1 144.25,35.25 " style="stroke:#000000;stroke-width:0.01;"/>
        <!-- Arc -->
        <path d="M144,7 A0.25,0.25 0 0,1 144.25,7.25 " style="stroke:#000000;stroke-width:0.01;"/>
        <!-- Line -->
        <path d="M144.55051025721684,35.5 L144.5,35.5 " style="stroke:#000000;stroke-width:0.01;"/>
        <!-- Line -->
        <path d="M105.5,39.999999999999986 L106.5,39.999999999999986 " style="stroke:#000000;stroke-width:0.01;"/>
        <!-- Circle -->
        <circle cx="122" cy="27" r="0.6" style="stroke:#000000;stroke-width:0.01;"/>
        <!-- Line -->
        <path d="M102,47 L122,47 " style="stroke:#000000;stroke-width:0.01;"/>
        <!-- Line -->
        <path d="M99.5,26 L99.5,26.64012588493202 " style="stroke:#000000;stroke-width:0.01;"/>
        <!-- Line -->
        <path d="M106.5,37.999999999999986 L105.5,37.999999999999986 " style="stroke:#000000;stroke-width:0.01;"/>
        <!-- Circle -->
        <circle cx="122" cy="27" r="0.6" style="stroke:#000000;stroke-width:0.01;"/>
        <!-- Line -->
        <path d="M105.5,37.999999999999986 L105.5,39.999999999999986 " style="stroke:#000000;stroke-width:0.01;"/>
        <!-- Arc -->
        <path d="M99.22680885707561,35.86363636363637 A2.499999999999996,2.499999999999996 0 1,1 94.77319114292439,35.86363636363637 " style="stroke:#000000;stroke-width:0.01;"/>
        <!-- Line -->
        <path d="M106.5,42 L106.5,39.999999999999986 " style="stroke:#000000;stroke-width:0.01;"/>
        <!-- Line -->
        <path d="M94.55051025721684,35.5 L92.25,35.5 " style="stroke:#000000;stroke-width:0.01;"/>
        <!-- Line -->
        <path d="M106.5,37.999999999999986 L106.5,36 " style="stroke:#000000;stroke-width:0.01;"/>
        <!-- Line -->
        <!-- Line -->
        <path d="M106.5,13.999999999999986 L105.5,13.999999999999986 " style="stroke:#000000;stroke-width:0.01;"/>
        <!-- Line -->
        <path d="M92,35.75 L92,42 " style="stroke:#000000;stroke-width:0.01;"/>
        <!-- Line -->
        <path d="M105.5,13.999999999999986 L105.5,15.999999999999986 " style="stroke:#000000;stroke-width:0.01;"/>
        <!-- Arc -->
        <path d="M97,47 A5,5 0 0,1 92,42 " style="stroke:#000000;stroke-width:0.01;"/>
        <!-- Line -->
        <path d="M106.5,18 L106.5,15.999999999999986 " style="stroke:#000000;stroke-width:0.01;"/>
        <!-- Line -->
        <path d="M97,47 L102,47 " style="stroke:#000000;stroke-width:0.01;"/>
        <!-- Line -->
        <path d="M106.5,13.999999999999986 L106.5,12 " style="stroke:#000000;stroke-width:0.01;"/>
        <!-- Line -->
        <path d="M99.75000000000003,7.25 L99.75,35.25 " style="stroke:#000000;stroke-width:0.01;"/>
        <!-- Line -->
        <path d="M105.5,15.999999999999986 L106.5,15.999999999999986 " style="stroke:#000000;stroke-width:0.01;"/>
        <!-- Arc -->
        <path d="M99.22680885707562,35.86363636363638 A0.25,0.25 0 0,1 99.44948974278319,35.500000000000014 " style="stroke:#000000;stroke-width:0.01;"/>
        <!-- Arc -->
        <path d="M94.55051025721684,35.5 A0.25,0.25 0 0,1 94.7731911429244,35.86363636363637 " style="stroke:#000000;stroke-width:0.01;"/>
        <!-- Arc -->
        <path d="M92,35.750000000000014 A0.25,0.25 0 0,1 92.25,35.500000000000014 " style="stroke:#000000;stroke-width:0.01;"/>
        <!-- Arc -->
        <path d="M99.75,35.25 A0.25,0.25 0 0,1 99.5,35.5 " style="stroke:#000000;stroke-width:0.01;"/>
        <!-- Arc -->
        <path d="M99.75,7.25 A0.25,0.25 0 0,1 100,7 " style="stroke:#000000;stroke-width:0.01;"/>
        <!-- Line -->
        <path d="M109.5,12 L106.5,12 " style="stroke:#000000;stroke-width:0.01;"/>
        <!-- Line -->
        <path d="M106.5,18 L109.5,18 " style="stroke:#000000;stroke-width:0.01;"/>
        <!-- Line -->
        <path d="M109.5,18 L109.5,12 " style="stroke:#000000;stroke-width:0.01;"/>
        <!-- Line -->
        <path d="M109.5,42 L106.5,42 " style="stroke:#000000;stroke-width:0.01;"/>
        <!-- Line -->
        <path d="M106.5,36 L109.5,36 " style="stroke:#000000;stroke-width:0.01;"/>
        <!-- Line -->
        <path d="M109.5,36 L109.5,42 " style="stroke:#000000;stroke-width:0.01;"/>
        <!-- Line -->
        <path d="M107.5,30 L109.5,30 " style="stroke:#000000;stroke-width:0.01;"/>
        <!-- Line -->
        <path d="M109.5,30 L106.5,30.000000000000014 " style="stroke:#000000;stroke-width:0.01;"/>
        <!-- Line -->
        <path d="M106.5,30.000000000000014 L106.5,24 " style="stroke:#000000;stroke-width:0.01;"/>
        <!-- Line -->
        <path d="M106.5,24 L109.5,24 " style="stroke:#000000;stroke-width:0.01;"/>
        <!-- Line -->
        <path d="M122,7 L100,7 " style="stroke:#000000;stroke-width:0.01;"/>
        <!-- Line -->
        <path d="M109.5,24 L109.5,30 " style="stroke:#000000;stroke-width:0.01;"/>
        <!-- Line -->
        <path d="M99.44948974278319,35.5 L99.5,35.5 " style="stroke:#000000;stroke-width:0.01;"/>
        <!-- Line -->
        <path d="M158.81486223342927,24 L161.81486223342927,24 " style="stroke:#000000;stroke-width:0.01;"/>
        <!-- Line -->
        <path d="M161.81486223342927,12 L158.81486223342927,12 " style="stroke:#000000;stroke-width:0.01;"/>
        <!-- Line -->
        <path d="M158.81486223342927,12 L158.81486223342927,18 " style="stroke:#000000;stroke-width:0.01;"/>
        <!-- Line -->
        <path d="M158.81486223342927,18 L161.81486223342927,18 " style="stroke:#000000;stroke-width:0.01;"/>
        <!-- Line -->
        <path d="M161.81486223342927,42 L158.81486223342927,42 " style="stroke:#000000;stroke-width:0.01;"/>
        <!-- Line -->
        <path d="M158.81486223342927,42 L158.81486223342927,36 " style="stroke:#000000;stroke-width:0.01;"/>
        <!-- Line -->
        <path d="M158.81486223342927,36 L161.81486223342927,36 " style="stroke:#000000;stroke-width:0.01;"/>
        <!-- Line -->
        <path d="M159.81486223342927,30 L161.81486223342927,30 " style="stroke:#000000;stroke-width:0.01;"/>
        <!-- Line -->
        <path d="M161.81486223342927,30 L158.81486223342927,30.000000000000014 " style="stroke:#000000;stroke-width:0.01;"/>
        <!-- Line -->
        <path d="M158.81486223342927,30.000000000000014 L158.81486223342927,24 " style="stroke:#000000;stroke-width:0.01;"/>
        <!-- Line -->
        <path d="M161.81486223342927,7 L161.81486223342927,12 " style="stroke:#000000;stroke-width:0.01;"/>
        <!-- Line -->
        <path d="M161.81486223342927,18 L161.81486223342927,24 " style="stroke:#000000;stroke-width:0.01;"/>
        <!-- Line -->
        <path d="M161.81486223342927,30 L161.81486223342927,36 " style="stroke:#000000;stroke-width:0.01;"/>
        <!-- Line -->
        <path d="M161.81486223342927,42 L161.81486223342927,47 " style="stroke:#000000;stroke-width:0.01;"/>
        <!-- Line -->
        <path d="M185.31486223342927,29.999999999999986 L192.31486223342927,29.999999999999986 " style="stroke:#000000;stroke-width:0.01;"/>
        <!-- Line -->
        <path d="M192.31486223342927,29.999999999999986 L192.31486223342927,23.999999999999986 " style="stroke:#000000;stroke-width:0.01;"/>
        <!-- Line -->
        <path d="M185.31486223342927,6.999999999999986 L185.31486223342927,11.999999999999986 " style="stroke:#000000;stroke-width:0.01;"/>
        <!-- Line -->
        <path d="M185.31486223342927,17.999999999999986 L185.31486223342927,23.999999999999986 " style="stroke:#000000;stroke-width:0.01;"/>
        <!-- Line -->
        <path d="M192.31486223342927,23.999999999999986 L185.31486223342927,23.999999999999986 " style="stroke:#000000;stroke-width:0.01;"/>
        <!-- Line -->
        <path d="M185.31486223342927,29.999999999999986 L185.31486223342927,36 " style="stroke:#000000;stroke-width:0.01;"/>
        <!-- Circle -->
        <circle cx="203.31486223342927" cy="26.999999999999986" r="0.6" style="stroke:#000000;stroke-width:0.01;"/>
        <!-- Line -->
        <path d="M185.31486223342927,42 L185.31486223342927,47 " style="stroke:#000000;stroke-width:0.01;"/>
        <!-- Circle -->
        <circle cx="203.31486223342927" cy="26.999999999999986" r="0.6" style="stroke:#000000;stroke-width:0.01;"/>
        <!-- Line -->
        <path d="M185.31486223342927,11.999999999999986 L192.31486223342927,11.999999999999986 " style="stroke:#000000;stroke-width:0.01;"/>
        <!-- Line -->
        <path d="M203.31486223342927,46.999999999999986 L203.31486223342927,6.999999999999986 " style="stroke:#ff0000;stroke-width:0.01;"/>
        <!-- Line -->
        <path d="M192.31486223342927,11.999999999999986 L192.31486223342927,18 " style="stroke:#000000;stroke-width:0.01;"/>
        <!-- Line -->
        <path d="M215.81486223342927,41.99999999999997 L218.81486223342927,41.999999999999986 " style="stroke:#000000;stroke-width:0.01;"/>
        <!-- Line -->
        <path d="M192.31486223342927,18 L185.31486223342927,17.999999999999986 " style="stroke:#000000;stroke-width:0.01;"/>
        <!-- Line -->
        <path d="M215.81486223342927,6.999999999999972 L215.81486223342927,46.999999999999986 " style="stroke:#ff0000;stroke-width:0.01;"/>
        <!-- Line -->
        <path d="M185.31486223342927,42 L192.31486223342927,42 " style="stroke:#000000;stroke-width:0.01;"/>
        <!-- Line -->
        <path d="M218.81486223342927,35.99999999999997 L215.81486223342927,35.999999999999986 " style="stroke:#000000;stroke-width:0.01;"/>
        <!-- Line -->
        <path d="M192.31486223342927,42 L192.31486223342927,35.999999999999986 " style="stroke:#000000;stroke-width:0.01;"/>
        <!-- Line -->
        <path d="M215.81486223342927,35.999999999999986 L215.81486223342927,41.99999999999997 " style="stroke:#000000;stroke-width:0.01;"/>
        <!-- Line -->
        <path d="M192.31486223342927,35.999999999999986 L185.31486223342927,35.999999999999986 " style="stroke:#000000;stroke-width:0.01;"/>
        <!-- Line -->
        <path d="M215.81486223342927,11.999999999999986 L218.81486223342927,11.999999999999986 " style="stroke:#000000;stroke-width:0.01;"/>
        <!-- Line -->
        <path d="M218.81486223342927,17.999999999999986 L215.81486223342927,17.999999999999986 " style="stroke:#000000;stroke-width:0.01;"/>
        <!-- Line -->
        <path d="M215.81486223342927,17.999999999999986 L215.81486223342927,11.999999999999986 " style="stroke:#000000;stroke-width:0.01;"/>
        <!-- Line -->
        <path d="M217.81486223342927,23.999999999999986 L215.81486223342927,23.999999999999986 " style="stroke:#000000;stroke-width:0.01;"/>
        <!-- Line -->
        <path d="M215.81486223342927,23.999999999999986 L218.81486223342927,23.99999999999997 " style="stroke:#000000;stroke-width:0.01;"/>
        <!-- Line -->
        <path d="M218.81486223342927,29.999999999999986 L215.81486223342927,29.999999999999986 " style="stroke:#000000;stroke-width:0.01;"/>
        <!-- Line -->
        <path d="M215.81486223342927,29.999999999999986 L215.81486223342927,23.999999999999986 " style="stroke:#000000;stroke-width:0.01;"/>
        <!-- Line -->
        <path d="M218.81486223342927,11.999999999999986 L218.81486223342927,6.999999999999986 " style="stroke:#000000;stroke-width:0.01;"/>
        <!-- Line -->
        <path d="M218.81486223342927,17.999999999999986 L218.81486223342927,23.99999999999997 " style="stroke:#000000;stroke-width:0.01;"/>
        <!-- Line -->
        <path d="M218.81486223342927,29.999999999999986 L218.81486223342915,35.99999999999997 " style="stroke:#000000;stroke-width:0.01;"/>
        <!-- Line -->
        <path d="M218.81486223342915,41.999999999999986 L218.81486223342915,46.99999999999997 " style="stroke:#000000;stroke-width:0.01;"/>
        <!-- Aligned Dimension -->
        <g>
            <path d="M144.31486223342927,56.99999999999997 L141.81486223342927,56.58371534222713 L141.81486223342927,57.41628465777281 Z" style="stroke:#00ffff;stroke-width:0.01;fill:#00ffff;fill-rule:evenodd;"/>
            <path d="M94.31486223342927,57 L96.81486223342927,57.41628465777284 L96.81486223342927,56.58371534222716 Z" style="stroke:#00ffff;stroke-width:0.01;fill:#00ffff;fill-rule:evenodd;"/>
            <g>
                <path d="M118.8981955667626,60.124999999999986 L117.7870844556515,60.124999999999986 L117.7870844556515,59.01388888888887 L118.34264001120704,59.01388888888887 M118.8981955667626,58.45833333333332 C118.8981955667626,58.76515819433332 118.64946487220705,59.01388888888887 118.34264001120704,59.01388888888887 M118.8981955667626,58.45833333333332 L118.8981955667626,58.18055555555554 M118.34264001120704,57.624999999999986 C118.64946487220705,57.624999999999986 118.8981955667626,57.87373069455554 118.8981955667626,58.18055555555554 M118.34264001120704,57.624999999999986 L117.7870844556515,57.624999999999986 " style="stroke:#00ffff;stroke-width:0.01;"/>
                <path d="M120.541703787514,59.98606171244951 L120.54173079826062,59.986087401724276 C120.48783077219251,60.06966775278415 120.3939193833173,60.124999999999986 120.2870844556515,60.124999999999986 C120.18032079354084,60.124999999999986 120.08646343435976,60.06974154827771 120.0325593448231,59.986275255047175 M120.03283029765716,59.98691872624052 L120.03278493593672,59.98699064147097 C119.91205458549211,59.82586776503978 119.8269038221971,59.63657722978903 119.78904216178974,59.4311604016163 M119.78916137627583,58.31949335124575 L119.78896602220195,58.319252324245824 C119.82701915825814,58.113161682570386 119.91214193503615,57.92400975055648 120.03277077899405,57.76302825158655 M120.03257956737085,57.76376056966438 L120.03255270038981,57.763735032885236 C120.08647114601807,57.68025391159514 120.18032517957175,57.624999999999986 120.2870844556515,57.624999999999986 C120.39384811776213,57.624999999999986 120.48770547694322,57.68025845172226 120.54160956647988,57.7637247449528 M120.54122750253471,57.763081273759454 L120.54127286425515,57.763009358529004 C120.66200321469975,57.92413223496019 120.74715397799477,58.11342277021094 120.78501563840213,58.31883959838366 M120.78459871723891,58.31876039330264 L120.78487235955102,58.31745868266401 C120.8227776129177,58.494986224024615 120.84264001120704,58.678368000612885 120.84264001120704,58.86638888888888 C120.84264001120704,58.86927040496926 120.84263534610035,58.87215083145559 120.8426261712891,58.87498425025647 M120.84262409496303,58.87449178428882 L120.84262426406934,58.87444268896982 C120.84263481493078,58.87753004532933 120.84264001120704,58.88056997139254 120.84264001120704,58.883611111111094 C120.84264001120704,59.071746449162546 120.82275342476588,59.25523702608072 120.78513183028473,59.431326471690355 M120.7848539427809,59.43073574487187 L120.78504949055649,59.43097699118978 C120.74701939861615,59.636740748467034 120.66206811138167,59.82561209108598 120.5417059893875,59.98641230285514 M119.73154481633996,58.87550821571115 L119.73154464723365,58.87555731103014 C119.7315340963722,58.872469954670635 119.73152890009594,58.86943002860743 119.73152890009594,58.86638888888888 C119.73152890009594,58.67809543956825 119.75144892645015,58.49445456169109 119.78913230735412,58.318227346733906 M119.78957019406407,59.43123960669733 L119.78929655175196,59.432541317335954 C119.75139129838527,59.25501377597536 119.73152890009594,59.07163199938709 119.73152890009594,58.883611111111094 C119.73152890009594,58.880553740909775 119.73153415198499,58.87749759735287 119.7315444805304,58.8744913413158 " style="stroke:#00ffff;stroke-width:0.01;"/>
            </g>
            <path d="M144.31486223342927,37.624999999999986 L144.31486223342927,58.24999999999997 M94.31486223342927,37.625000000000014 L94.31486223342927,58.25 M144.31486223342927,56.99999999999997 L94.31486223342927,57 " style="stroke:#00ffff;stroke-width:0.01;"/>
        </g>
        <!-- Line -->
        <path d="M231.31486223342927,7 L231.31486223342927,47 " style="stroke:#ff0000;stroke-width:0.01;"/>
        <!-- Line -->
        <path d="M242.31486223342927,29.999999999999986 L249.31486223342927,29.999999999999986 " style="stroke:#000000;stroke-width:0.01;"/>
        <!-- Line -->
        <path d="M249.31486223342927,29.999999999999986 L249.31486223342927,23.999999999999986 " style="stroke:#000000;stroke-width:0.01;"/>
        <!-- Line -->
        <path d="M242.31486223342927,6.999999999999986 L242.31486223342927,11.999999999999986 " style="stroke:#000000;stroke-width:0.01;"/>
        <!-- Line -->
        <path d="M242.31486223342927,17.999999999999986 L242.31486223342927,23.999999999999986 " style="stroke:#000000;stroke-width:0.01;"/>
        <!-- Line -->
        <path d="M249.31486223342927,23.999999999999986 L242.31486223342927,23.999999999999986 " style="stroke:#000000;stroke-width:0.01;"/>
        <!-- Line -->
        <path d="M242.31486223342927,29.999999999999986 L242.31486223342927,36 " style="stroke:#000000;stroke-width:0.01;"/>
        <!-- Line -->
        <path d="M242.31486223342927,42 L242.31486223342927,47 " style="stroke:#000000;stroke-width:0.01;"/>
        <!-- Line -->
        <path d="M242.31486223342927,11.999999999999986 L249.31486223342927,11.999999999999986 " style="stroke:#000000;stroke-width:0.01;"/>
        <!-- Line -->
        <path d="M249.31486223342927,11.999999999999986 L249.31486223342927,18 " style="stroke:#000000;stroke-width:0.01;"/>
        <!-- Line -->
        <path d="M249.31486223342927,18 L242.31486223342927,17.999999999999986 " style="stroke:#000000;stroke-width:0.01;"/>
        <!-- Line -->
        <path d="M242.31486223342927,42 L249.31486223342927,42 " style="stroke:#000000;stroke-width:0.01;"/>
        <!-- Line -->
        <path d="M249.31486223342927,42 L249.31486223342927,35.999999999999986 " style="stroke:#000000;stroke-width:0.01;"/>
        <!-- Line -->
        <path d="M249.31486223342927,35.999999999999986 L242.31486223342927,35.999999999999986 " style="stroke:#000000;stroke-width:0.01;"/>
        <!-- Aligned Dimension -->
        <g>
            <path d="M78.81895587221942,7.000000000000003 L78.40267121444658,9.500000000000004 L79.23524052999225,9.500000000000004 Z" style="stroke:#00ffff;stroke-width:0.01;fill:#00ffff;fill-rule:evenodd;"/>
            <path d="M78.81895587221942,46.999999999999986 L79.23524052999225,44.499999999999986 L78.40267121444658,44.499999999999986 Z" style="stroke:#00ffff;stroke-width:0.01;fill:#00ffff;fill-rule:evenodd;"/>
            <g>
                <path d="M78.19395587221942,26.30555555555555 L77.0828447611083,26.30555555555555 M77.63840031666386,26.722222222222214 L77.63840031666386,25.333333333333325 L75.69395587221942,25.888888888888882 " style="stroke:#00ffff;stroke-width:0.01;"/>
                <path d="M75.83289415976989,28.365730442973607 L75.83286847049513,28.365757453720235 C75.74928811943525,28.31185742765213 75.69395587221942,28.217946038776915 75.69395587221942,28.111111111111104 C75.69395587221942,28.004347449000452 75.74921432394169,27.910490089819373 75.83268061717223,27.856586000282718 M75.83203714597889,27.85685695311677 L75.83196523074844,27.85681159139633 C75.99308810717962,27.73608124095173 76.18237864243036,27.650930477656708 76.3877954706031,27.613068817249356 M77.49946252097367,27.613188031735447 L77.49970354797358,27.612992677661556 C77.70579418964903,27.651045813717747 77.89494612166293,27.73616859049576 78.05592762063286,27.856797434453668 M78.05519530255502,27.856606222830468 L78.05522083933417,27.856579355849433 C78.13870196062426,27.910497801477685 78.19395587221942,28.004351835031365 78.19395587221942,28.111111111111104 C78.19395587221942,28.217874773221755 78.13869742049715,28.311732132402838 78.05523112726661,28.365636221939493 M78.05587459845995,28.36525415799433 L78.0559465136904,28.365299519714767 C77.89482363725922,28.486029870159367 77.70553310200847,28.571180633454393 77.50011627383574,28.60904229386174 M77.50019547891677,28.60862537269852 L77.5014971895554,28.608899015010635 C77.32396964819479,28.646804268377316 77.14058787160653,28.66666666666666 76.95256698333053,28.66666666666666 C76.94968546725015,28.66666666666666 76.94680504076382,28.666662001559963 76.94397162196294,28.666652826748717 M76.94446408793058,28.666650750422637 L76.94451318324958,28.66665091952895 C76.94142582689007,28.666661470390395 76.93838590082687,28.66666666666666 76.93534476110831,28.66666666666666 C76.74720942305686,28.66666666666666 76.56371884613868,28.64678008022549 76.38762940052905,28.60915848574434 M76.38822012734754,28.608880598240518 L76.38797888102962,28.6090761460161 C76.18221512375237,28.57104605407576 75.99334378113343,28.486094766841283 75.83254356936426,28.365732644847107 M76.94344765650825,27.55557147179957 L76.94339856118926,27.555571302693256 C76.94648591754877,27.555560751831813 76.94952584361198,27.55555555555555 76.95256698333053,27.55555555555555 C77.14086043265115,27.55555555555555 77.32450131052832,27.575475581909767 77.5007285254855,27.613158962813735 M76.38771626552207,27.613596849523688 L76.38641455488344,27.61332320721157 C76.56394209624405,27.57541795384489 76.74732387283233,27.55555555555555 76.93534476110831,27.55555555555555 C76.93840213130963,27.55555555555555 76.94145827486653,27.5555608074446 76.9444645309036,27.555571135990014 " style="stroke:#00ffff;stroke-width:0.01;"/>
            </g>
            <path d="M96.68986223342927,7 L77.56895587221942,7.000000000000003 M96.68986223342927,46.999999999999986 L77.56895587221942,46.999999999999986 M78.81895587221942,7.000000000000003 L78.81895587221942,46.999999999999986 " style="stroke:#00ffff;stroke-width:0.01;"/>
        </g>
        <!-- Aligned Dimension -->
        <g>
            <path d="M119.31486223342927,8.671200023394823 L116.81486223342927,8.254915365621983 L116.81486223342927,9.087484681167664 Z" style="stroke:#00ffff;stroke-width:0.01;fill:#00ffff;fill-rule:evenodd;"/>
            <path d="M122.51486223342926,8.671200023394801 L125.01486223342926,9.087484681167641 L125.01486223342926,8.25491536562196 Z" style="stroke:#00ffff;stroke-width:0.01;fill:#00ffff;fill-rule:evenodd;"/>
            <g>
                <path d="M123.13986223342926,11.79620002339481 L123.69541778898481,11.79620002339481 M123.69541778898481,10.6850889122837 C124.00224264998481,10.6850889122837 124.25097334454037,10.933819606839254 124.25097334454037,11.240644467839255 C124.25097334454037,11.547469328839256 124.00224264998481,11.79620002339481 123.69541778898481,11.79620002339481 M123.69541778898481,10.6850889122837 L123.41764001120703,10.6850889122837 M124.25097334454037,10.129533356728144 C124.25097334454037,10.436358217728143 124.00224264998481,10.6850889122837 123.69541778898481,10.6850889122837 M124.25097334454037,10.129533356728144 L124.25097334454037,9.851755578950366 M123.69541778898481,9.29620002339481 C124.00224264998481,9.29620002339481 124.25097334454037,9.544930717950367 124.25097334454037,9.851755578950366 M123.69541778898481,9.29620002339481 L123.13986223342926,9.29620002339481 " style="stroke:#00ffff;stroke-width:0.01;"/>
                <path d="M125.0843066778737,9.29620002339481 L125.0843066778737,9.4350889122837 " style="stroke:#00ffff;stroke-width:0.01;"/>
                <path d="M127.02875112231814,9.29620002339481 L125.91764001120703,9.29620002339481 L126.99125112231815,11.1425889122837 M126.99104967841639,11.1423055937753 L126.99107444725442,11.142258047234039 C127.01503081166807,11.18332649354412 127.02875112231814,11.231077650008812 127.02875112231814,11.282033356728144 C127.02875112231814,11.316351221508365 127.02252785002749,11.349215563164194 127.01116575084664,11.37951281285763 M127.01110388926395,11.379556713132523 L127.0112100922781,11.379683247099136 C126.94939700539398,11.619293977663121 126.73195559651066,11.79620002339481 126.47319556676258,11.79620002339481 C126.21445061411653,11.79620002339481 125.99701946747325,11.619314592537801 125.93526712737899,11.380016895277327 " style="stroke:#00ffff;stroke-width:0.01;"/>
            </g>
            <path d="M119.31486223342927,22.16422577446778 L119.31486223342927,7.421200023394823 M122.51486223342926,22.16422577446776 L122.51486223342926,7.4212000233948014 M114.31486223342927,8.671200023394823 L127.51486223342926,8.671200023394801 " style="stroke:#00ffff;stroke-width:0.01;"/>
        </g>
        <!-- Line -->
        <path d="M109.5,47 L109.5,7 " style="stroke:#ff0000;stroke-width:0.01;"/>
        <!-- Line -->
        <path d="M134.5,42 L137.5,42 " style="stroke:#000000;stroke-width:0.01;"/>
        <!-- Line -->
        <path d="M137.5,36 L134.5,36 " style="stroke:#000000;stroke-width:0.01;"/>
        <!-- Line -->
        <path d="M136.5,30 L134.5,30 " style="stroke:#000000;stroke-width:0.01;"/>
        <!-- Line -->
        <path d="M242.31486223342927,6.999999999999986 L161.81486223342927,7 " style="stroke:#000000;stroke-width:0.01;"/>
        <!-- Line -->
        <path d="M242.31486223342927,47 L161.81486223342927,47 " style="stroke:#000000;stroke-width:0.01;"/>
        <!-- Line -->
        <path d="M158.81486223342927,64 L161.81486223342927,64 " style="stroke:#000000;stroke-width:0.01;"/>
        <!-- Line -->
        <path d="M161.81486223342927,52 L158.81486223342927,52 " style="stroke:#000000;stroke-width:0.01;"/>
        <!-- Line -->
        <path d="M158.81486223342927,52 L158.81486223342927,58 " style="stroke:#000000;stroke-width:0.01;"/>
        <!-- Line -->
        <path d="M158.81486223342927,58 L161.81486223342927,58 " style="stroke:#000000;stroke-width:0.01;"/>
        <!-- Line -->
        <path d="M161.81486223342927,82 L158.81486223342927,82 " style="stroke:#000000;stroke-width:0.01;"/>
        <!-- Line -->
        <path d="M158.81486223342927,82 L158.81486223342927,76 " style="stroke:#000000;stroke-width:0.01;"/>
        <!-- Line -->
        <path d="M158.81486223342927,76 L161.81486223342927,76 " style="stroke:#000000;stroke-width:0.01;"/>
        <!-- Line -->
        <path d="M159.81486223342927,70 L161.81486223342927,70 " style="stroke:#000000;stroke-width:0.01;"/>
        <!-- Line -->
        <path d="M161.81486223342927,70 L158.81486223342927,70.00000000000001 " style="stroke:#000000;stroke-width:0.01;"/>
        <!-- Line -->
        <path d="M158.81486223342927,70.00000000000001 L158.81486223342927,64 " style="stroke:#000000;stroke-width:0.01;"/>
        <!-- Line -->
        <path d="M161.81486223342927,47 L161.81486223342927,52 " style="stroke:#000000;stroke-width:0.01;"/>
        <!-- Line -->
        <path d="M174.31486223342927,47 L174.31486223342927,87 " style="stroke:#ff0000;stroke-width:0.01;"/>
        <!-- Line -->
        <path d="M161.81486223342927,58 L161.81486223342927,64 " style="stroke:#000000;stroke-width:0.01;"/>
        <!-- Line -->
        <path d="M161.81486223342927,70 L161.81486223342927,76 " style="stroke:#000000;stroke-width:0.01;"/>
        <!-- Line -->
        <path d="M161.81486223342927,82 L161.81486223342927,87 " style="stroke:#000000;stroke-width:0.01;"/>
        <!-- Line -->
        <path d="M231.31486223342927,47 L231.31486223342927,87 " style="stroke:#ff0000;stroke-width:0.01;"/>
        <!-- Line -->
        <path d="M185.31486223342927,69.99999999999999 L192.31486223342927,69.99999999999999 " style="stroke:#000000;stroke-width:0.01;"/>
        <!-- Line -->
        <path d="M192.31486223342927,69.99999999999999 L192.31486223342927,63.999999999999986 " style="stroke:#000000;stroke-width:0.01;"/>
        <!-- Line -->
        <path d="M242.31486223342927,69.99999999999999 L249.31486223342927,69.99999999999999 " style="stroke:#000000;stroke-width:0.01;"/>
        <!-- Line -->
        <path d="M185.31486223342927,46.999999999999986 L185.31486223342927,51.999999999999986 " style="stroke:#000000;stroke-width:0.01;"/>
        <!-- Line -->
        <path d="M249.31486223342927,69.99999999999999 L249.31486223342927,63.999999999999986 " style="stroke:#000000;stroke-width:0.01;"/>
        <!-- Line -->
        <path d="M185.31486223342927,57.999999999999986 L185.31486223342927,63.999999999999986 " style="stroke:#000000;stroke-width:0.01;"/>
        <!-- Line -->
        <path d="M242.31486223342927,46.999999999999986 L242.31486223342927,51.999999999999986 " style="stroke:#000000;stroke-width:0.01;"/>
        <!-- Line -->
        <path d="M192.31486223342927,63.999999999999986 L185.31486223342927,63.999999999999986 " style="stroke:#000000;stroke-width:0.01;"/>
        <!-- Line -->
        <path d="M242.31486223342927,57.999999999999986 L242.31486223342927,63.999999999999986 " style="stroke:#000000;stroke-width:0.01;"/>
        <!-- Line -->
        <path d="M185.31486223342927,69.99999999999999 L185.31486223342927,76 " style="stroke:#000000;stroke-width:0.01;"/>
        <!-- Line -->
        <path d="M249.31486223342927,63.999999999999986 L242.31486223342927,63.999999999999986 " style="stroke:#000000;stroke-width:0.01;"/>
        <!-- Circle -->
        <circle cx="203.31486223342927" cy="66.99999999999999" r="0.6" style="stroke:#000000;stroke-width:0.01;"/>
        <!-- Line -->
        <path d="M242.31486223342927,69.99999999999999 L242.31486223342927,76 " style="stroke:#000000;stroke-width:0.01;"/>
        <!-- Line -->
        <path d="M185.31486223342927,82 L185.31486223342927,87 " style="stroke:#000000;stroke-width:0.01;"/>
        <!-- Line -->
        <path d="M242.31486223342927,82 L242.31486223342927,87 " style="stroke:#000000;stroke-width:0.01;"/>
        <!-- Circle -->
        <circle cx="203.31486223342927" cy="66.99999999999999" r="0.6" style="stroke:#000000;stroke-width:0.01;"/>
        <!-- Line -->
        <path d="M242.31486223342927,51.999999999999986 L249.31486223342927,51.999999999999986 " style="stroke:#000000;stroke-width:0.01;"/>
        <!-- Line -->
        <path d="M185.31486223342927,51.999999999999986 L192.31486223342927,51.999999999999986 " style="stroke:#000000;stroke-width:0.01;"/>
        <!-- Line -->
        <path d="M249.31486223342927,51.999999999999986 L249.31486223342927,58 " style="stroke:#000000;stroke-width:0.01;"/>
        <!-- Line -->
        <path d="M203.31486223342927,86.99999999999999 L203.31486223342927,46.999999999999986 " style="stroke:#ff0000;stroke-width:0.01;"/>
        <!-- Line -->
        <path d="M249.31486223342927,58 L242.31486223342927,57.999999999999986 " style="stroke:#000000;stroke-width:0.01;"/>
        <!-- Line -->
        <path d="M192.31486223342927,51.999999999999986 L192.31486223342927,58 " style="stroke:#000000;stroke-width:0.01;"/>
        <!-- Line -->
        <path d="M242.31486223342927,82 L249.31486223342927,82 " style="stroke:#000000;stroke-width:0.01;"/>
        <!-- Line -->
        <path d="M215.81486223342927,81.99999999999997 L218.81486223342927,81.99999999999999 " style="stroke:#000000;stroke-width:0.01;"/>
        <!-- Line -->
        <path d="M249.31486223342927,82 L249.31486223342927,75.99999999999999 " style="stroke:#000000;stroke-width:0.01;"/>
        <!-- Line -->
        <path d="M192.31486223342927,58 L185.31486223342927,57.999999999999986 " style="stroke:#000000;stroke-width:0.01;"/>
        <!-- Line -->
        <path d="M249.31486223342927,75.99999999999999 L242.31486223342927,75.99999999999999 " style="stroke:#000000;stroke-width:0.01;"/>
        <!-- Line -->
        <path d="M215.81486223342927,46.99999999999997 L215.81486223342927,86.99999999999999 " style="stroke:#ff0000;stroke-width:0.01;"/>
        <!-- Line -->
        <path d="M185.31486223342927,82 L192.31486223342927,82 " style="stroke:#000000;stroke-width:0.01;"/>
        <!-- Line -->
        <path d="M218.81486223342927,75.99999999999997 L215.81486223342927,75.99999999999999 " style="stroke:#000000;stroke-width:0.01;"/>
        <!-- Line -->
        <path d="M192.31486223342927,82 L192.31486223342927,75.99999999999999 " style="stroke:#000000;stroke-width:0.01;"/>
        <!-- Line -->
        <path d="M215.81486223342927,75.99999999999999 L215.81486223342927,81.99999999999997 " style="stroke:#000000;stroke-width:0.01;"/>
        <!-- Line -->
        <path d="M192.31486223342927,75.99999999999999 L185.31486223342927,75.99999999999999 " style="stroke:#000000;stroke-width:0.01;"/>
        <!-- Line -->
        <path d="M242.31486223342927,46.999999999999986 L161.81486223342927,47 " style="stroke:#000000;stroke-width:0.01;"/>
        <!-- Line -->
        <path d="M215.81486223342927,51.999999999999986 L218.81486223342927,51.999999999999986 " style="stroke:#000000;stroke-width:0.01;"/>
        <!-- Line -->
        <path d="M242.31486223342927,87 L161.81486223342927,87 " style="stroke:#000000;stroke-width:0.01;"/>
        <!-- Line -->
        <path d="M218.81486223342927,57.999999999999986 L215.81486223342927,57.999999999999986 " style="stroke:#000000;stroke-width:0.01;"/>
        <!-- Line -->
        <path d="M215.81486223342927,57.999999999999986 L215.81486223342927,51.999999999999986 " style="stroke:#000000;stroke-width:0.01;"/>
        <!-- Line -->
        <path d="M217.81486223342927,63.999999999999986 L215.81486223342927,63.999999999999986 " style="stroke:#000000;stroke-width:0.01;"/>
        <!-- Line -->
        <path d="M215.81486223342927,63.999999999999986 L218.81486223342927,63.99999999999997 " style="stroke:#000000;stroke-width:0.01;"/>
        <!-- Line -->
        <path d="M218.81486223342927,69.99999999999999 L215.81486223342927,69.99999999999999 " style="stroke:#000000;stroke-width:0.01;"/>
        <!-- Line -->
        <path d="M215.81486223342927,69.99999999999999 L215.81486223342927,63.999999999999986 " style="stroke:#000000;stroke-width:0.01;"/>
        <!-- Line -->
        <path d="M218.81486223342927,51.999999999999986 L218.81486223342927,46.999999999999986 " style="stroke:#000000;stroke-width:0.01;"/>
        <!-- Line -->
        <path d="M218.81486223342927,57.999999999999986 L218.81486223342927,63.99999999999997 " style="stroke:#000000;stroke-width:0.01;"/>
        <!-- Line -->
        <path d="M218.81486223342927,69.99999999999999 L218.81486223342915,75.99999999999997 " style="stroke:#000000;stroke-width:0.01;"/>
        <!-- Line -->
        <path d="M218.81486223342915,81.99999999999999 L218.81486223342915,86.99999999999997 " style="stroke:#000000;stroke-width:0.01;"/>
        <!-- Line -->
        <path d="M242.31486223342927,109.99999999999999 L242.31486223342927,115.99999999999999 " style="stroke:#000000;stroke-width:0.01;"/>
        <!-- Line -->
        <path d="M185.31486223342927,121.99999999999999 L185.31486223342927,126.99999999999999 " style="stroke:#000000;stroke-width:0.01;"/>
        <!-- Line -->
        <path d="M242.31486223342927,121.99999999999999 L242.31486223342927,126.99999999999999 " style="stroke:#000000;stroke-width:0.01;"/>
        <!-- Circle -->
        <circle cx="203.31486223342927" cy="106.99999999999999" r="0.6" style="stroke:#000000;stroke-width:0.01;"/>
        <!-- Line -->
        <path d="M242.31486223342927,91.99999999999999 L249.31486223342927,91.99999999999999 " style="stroke:#000000;stroke-width:0.01;"/>
        <!-- Line -->
        <path d="M185.31486223342927,91.99999999999999 L192.31486223342927,91.99999999999999 " style="stroke:#000000;stroke-width:0.01;"/>
        <!-- Line -->
        <path d="M249.31486223342927,91.99999999999999 L249.31486223342927,97.99999999999999 " style="stroke:#000000;stroke-width:0.01;"/>
        <!-- Line -->
        <path d="M203.31486223342927,126.99999999999999 L203.31486223342927,86.99999999999999 " style="stroke:#ff0000;stroke-width:0.01;"/>
        <!-- Line -->
        <path d="M249.31486223342927,97.99999999999999 L242.31486223342927,97.99999999999999 " style="stroke:#000000;stroke-width:0.01;"/>
        <!-- Line -->
        <path d="M192.31486223342927,91.99999999999999 L192.31486223342927,97.99999999999999 " style="stroke:#000000;stroke-width:0.01;"/>
        <!-- Line -->
        <path d="M242.31486223342927,121.99999999999999 L249.31486223342927,121.99999999999999 " style="stroke:#000000;stroke-width:0.01;"/>
        <!-- Line -->
        <path d="M215.81486223342927,121.99999999999999 L218.81486223342927,121.99999999999999 " style="stroke:#000000;stroke-width:0.01;"/>
        <!-- Line -->
        <path d="M249.31486223342927,121.99999999999999 L249.31486223342927,115.99999999999999 " style="stroke:#000000;stroke-width:0.01;"/>
        <!-- Line -->
        <path d="M192.31486223342927,97.99999999999999 L185.31486223342927,97.99999999999999 " style="stroke:#000000;stroke-width:0.01;"/>
        <!-- Line -->
        <path d="M249.31486223342927,115.99999999999999 L242.31486223342927,115.99999999999999 " style="stroke:#000000;stroke-width:0.01;"/>
        <!-- Line -->
        <path d="M215.81486223342927,86.99999999999997 L215.81486223342927,126.99999999999999 " style="stroke:#ff0000;stroke-width:0.01;"/>
        <!-- Line -->
        <path d="M185.31486223342927,121.99999999999999 L192.31486223342927,121.99999999999999 " style="stroke:#000000;stroke-width:0.01;"/>
        <!-- Line -->
        <path d="M218.81486223342927,115.99999999999999 L215.81486223342927,115.99999999999999 " style="stroke:#000000;stroke-width:0.01;"/>
        <!-- Line -->
        <path d="M192.31486223342927,121.99999999999999 L192.31486223342927,115.99999999999999 " style="stroke:#000000;stroke-width:0.01;"/>
        <!-- Line -->
        <path d="M215.81486223342927,115.99999999999999 L215.81486223342927,121.99999999999999 " style="stroke:#000000;stroke-width:0.01;"/>
        <!-- Line -->
        <path d="M192.31486223342927,115.99999999999999 L185.31486223342927,115.99999999999999 " style="stroke:#000000;stroke-width:0.01;"/>
        <!-- Line -->
        <path d="M242.31486223342927,86.99999999999999 L161.81486223342927,87 " style="stroke:#000000;stroke-width:0.01;"/>
        <!-- Line -->
        <path d="M215.81486223342927,91.99999999999999 L218.81486223342927,91.99999999999999 " style="stroke:#000000;stroke-width:0.01;"/>
        <!-- Line -->
        <path d="M242.31486223342927,126.99999999999999 L161.81486223342927,126.99999999999999 " style="stroke:#000000;stroke-width:0.01;"/>
        <!-- Line -->
        <path d="M218.81486223342927,97.99999999999999 L215.81486223342927,97.99999999999999 " style="stroke:#000000;stroke-width:0.01;"/>
        <!-- Line -->
        <path d="M215.81486223342927,97.99999999999999 L215.81486223342927,91.99999999999999 " style="stroke:#000000;stroke-width:0.01;"/>
        <!-- Line -->
        <path d="M217.81486223342927,103.99999999999999 L215.81486223342927,103.99999999999999 " style="stroke:#000000;stroke-width:0.01;"/>
        <!-- Line -->
        <path d="M215.81486223342927,103.99999999999999 L218.81486223342927,103.99999999999999 " style="stroke:#000000;stroke-width:0.01;"/>
        <!-- Line -->
        <path d="M218.81486223342927,109.99999999999999 L215.81486223342927,109.99999999999999 " style="stroke:#000000;stroke-width:0.01;"/>
        <!-- Line -->
        <path d="M215.81486223342927,109.99999999999999 L215.81486223342927,103.99999999999999 " style="stroke:#000000;stroke-width:0.01;"/>
        <!-- Line -->
        <path d="M218.81486223342927,91.99999999999999 L218.81486223342927,86.99999999999999 " style="stroke:#000000;stroke-width:0.01;"/>
        <!-- Line -->
        <path d="M218.81486223342927,97.99999999999999 L218.81486223342927,103.99999999999999 " style="stroke:#000000;stroke-width:0.01;"/>
        <!-- Line -->
        <path d="M218.81486223342927,109.99999999999999 L218.81486223342915,115.99999999999999 " style="stroke:#000000;stroke-width:0.01;"/>
        <!-- Line -->
        <path d="M218.81486223342915,121.99999999999999 L218.81486223342915,126.99999999999999 " style="stroke:#000000;stroke-width:0.01;"/>
        <!-- Line -->
        <path d="M158.81486223342927,103.99999999999999 L161.81486223342927,103.99999999999999 " style="stroke:#000000;stroke-width:0.01;"/>
        <!-- Line -->
        <path d="M161.81486223342927,92 L158.81486223342927,92 " style="stroke:#000000;stroke-width:0.01;"/>
        <!-- Line -->
        <path d="M158.81486223342927,92 L158.81486223342927,97.99999999999999 " style="stroke:#000000;stroke-width:0.01;"/>
        <!-- Line -->
        <path d="M158.81486223342927,97.99999999999999 L161.81486223342927,97.99999999999999 " style="stroke:#000000;stroke-width:0.01;"/>
        <!-- Line -->
        <path d="M161.81486223342927,121.99999999999999 L158.81486223342927,121.99999999999999 " style="stroke:#000000;stroke-width:0.01;"/>
        <!-- Line -->
        <path d="M158.81486223342927,121.99999999999999 L158.81486223342927,115.99999999999999 " style="stroke:#000000;stroke-width:0.01;"/>
        <!-- Line -->
        <path d="M158.81486223342927,115.99999999999999 L161.81486223342927,115.99999999999999 " style="stroke:#000000;stroke-width:0.01;"/>
        <!-- Line -->
        <path d="M159.81486223342927,109.99999999999999 L161.81486223342927,109.99999999999999 " style="stroke:#000000;stroke-width:0.01;"/>
        <!-- Line -->
        <path d="M161.81486223342927,109.99999999999999 L158.81486223342927,110.00000000000001 " style="stroke:#000000;stroke-width:0.01;"/>
        <!-- Line -->
        <path d="M158.81486223342927,110.00000000000001 L158.81486223342927,103.99999999999999 " style="stroke:#000000;stroke-width:0.01;"/>
        <!-- Line -->
        <path d="M161.81486223342927,87 L161.81486223342927,92 " style="stroke:#000000;stroke-width:0.01;"/>
        <!-- Line -->
        <path d="M174.31486223342927,87 L174.31486223342927,126.99999999999999 " style="stroke:#ff0000;stroke-width:0.01;"/>
        <!-- Line -->
        <path d="M161.81486223342927,97.99999999999999 L161.81486223342927,103.99999999999999 " style="stroke:#000000;stroke-width:0.01;"/>
        <!-- Line -->
        <path d="M161.81486223342927,109.99999999999999 L161.81486223342927,115.99999999999999 " style="stroke:#000000;stroke-width:0.01;"/>
        <!-- Line -->
        <path d="M161.81486223342927,121.99999999999999 L161.81486223342927,126.99999999999999 " style="stroke:#000000;stroke-width:0.01;"/>
        <!-- Line -->
        <path d="M231.31486223342927,87 L231.31486223342927,126.99999999999999 " style="stroke:#ff0000;stroke-width:0.01;"/>
        <!-- Line -->
        <path d="M185.31486223342927,109.99999999999999 L192.31486223342927,109.99999999999999 " style="stroke:#000000;stroke-width:0.01;"/>
        <!-- Line -->
        <path d="M192.31486223342927,109.99999999999999 L192.31486223342927,103.99999999999999 " style="stroke:#000000;stroke-width:0.01;"/>
        <!-- Line -->
        <path d="M242.31486223342927,109.99999999999999 L249.31486223342927,109.99999999999999 " style="stroke:#000000;stroke-width:0.01;"/>
        <!-- Line -->
        <path d="M185.31486223342927,86.99999999999999 L185.31486223342927,91.99999999999999 " style="stroke:#000000;stroke-width:0.01;"/>
        <!-- Line -->
        <path d="M249.31486223342927,109.99999999999999 L249.31486223342927,103.99999999999999 " style="stroke:#000000;stroke-width:0.01;"/>
        <!-- Line -->
        <path d="M185.31486223342927,97.99999999999999 L185.31486223342927,103.99999999999999 " style="stroke:#000000;stroke-width:0.01;"/>
        <!-- Line -->
        <path d="M242.31486223342927,86.99999999999999 L242.31486223342927,91.99999999999999 " style="stroke:#000000;stroke-width:0.01;"/>
        <!-- Line -->
        <path d="M192.31486223342927,103.99999999999999 L185.31486223342927,103.99999999999999 " style="stroke:#000000;stroke-width:0.01;"/>
        <!-- Line -->
        <path d="M242.31486223342927,97.99999999999999 L242.31486223342927,103.99999999999999 " style="stroke:#000000;stroke-width:0.01;"/>
        <!-- Line -->
        <path d="M185.31486223342927,109.99999999999999 L185.31486223342927,115.99999999999999 " style="stroke:#000000;stroke-width:0.01;"/>
        <!-- Line -->
        <path d="M249.31486223342927,103.99999999999999 L242.31486223342927,103.99999999999999 " style="stroke:#000000;stroke-width:0.01;"/>
        <!-- Circle -->
        <circle cx="203.31486223342927" cy="106.99999999999999" r="0.6" style="stroke:#000000;stroke-width:0.01;"/>
        <!-- Line -->
        <path d="M106.49999999999997,76 L109.49999999999997,76 " style="stroke:#000000;stroke-width:0.01;"/>
        <!-- Line -->
        <path d="M109.49999999999997,76 L109.49999999999997,82 " style="stroke:#000000;stroke-width:0.01;"/>
        <!-- Line -->
        <path d="M107.49999999999997,70 L109.49999999999997,70 " style="stroke:#000000;stroke-width:0.01;"/>
        <!-- Line -->
        <path d="M109.49999999999997,70 L106.49999999999997,70.00000000000001 " style="stroke:#000000;stroke-width:0.01;"/>
        <!-- Line -->
        <path d="M106.49999999999997,70.00000000000001 L106.49999999999997,64 " style="stroke:#000000;stroke-width:0.01;"/>
        <!-- Line -->
        <path d="M106.49999999999997,64 L109.49999999999997,64 " style="stroke:#000000;stroke-width:0.01;"/>
        <!-- Line -->
        <path d="M121.99999999999997,47 L99.99999999999997,47 " style="stroke:#000000;stroke-width:0.01;"/>
        <!-- Line -->
        <path d="M109.49999999999997,64 L109.49999999999997,70 " style="stroke:#000000;stroke-width:0.01;"/>
        <!-- Line -->
        <path d="M99.44948974278316,75.5 L99.49999999999997,75.5 " style="stroke:#000000;stroke-width:0.01;"/>
        <!-- Line -->
        <path d="M134.49999999999997,70 L137.49999999999997,70.00000000000001 " style="stroke:#000000;stroke-width:0.01;"/>
        <!-- Line -->
        <path d="M137.49999999999997,64 L134.49999999999997,64 " style="stroke:#000000;stroke-width:0.01;"/>
        <!-- Line -->
        <path d="M134.49999999999997,87 L134.49999999999997,47 " style="stroke:#ff0000;stroke-width:0.01;"/>
        <!-- Line -->
        <path d="M132.99999999999997,52 L138.99999999999997,52 " style="stroke:#000000;stroke-width:0.01;"/>
        <!-- Line -->
        <path d="M138.99999999999997,52 L138.99999999999997,58 " style="stroke:#000000;stroke-width:0.01;"/>
        <!-- Line -->
        <path d="M138.99999999999997,58 L132.99999999999997,58 " style="stroke:#000000;stroke-width:0.01;"/>
        <!-- Line -->
        <path d="M132.99999999999997,58 L132.99999999999997,52 " style="stroke:#000000;stroke-width:0.01;"/>
        <!-- Line -->
        <path d="M132.99999999999997,64 L138.99999999999997,64 " style="stroke:#000000;stroke-width:0.01;"/>
        <!-- Line -->
        <path d="M138.99999999999997,64 L138.99999999999997,70 " style="stroke:#000000;stroke-width:0.01;"/>
        <!-- Line -->
        <path d="M138.99999999999997,70 L132.99999999999997,70 " style="stroke:#000000;stroke-width:0.01;"/>
        <!-- Line -->
        <path d="M132.99999999999997,70 L132.99999999999997,64 " style="stroke:#000000;stroke-width:0.01;"/>
        <!-- Line -->
        <path d="M132.99999999999997,76 L138.99999999999997,76 " style="stroke:#000000;stroke-width:0.01;"/>
        <!-- Line -->
        <path d="M138.99999999999997,76 L138.99999999999997,82 " style="stroke:#000000;stroke-width:0.01;"/>
        <!-- Line -->
        <path d="M138.99999999999997,82 L132.99999999999997,82 " style="stroke:#000000;stroke-width:0.01;"/>
        <!-- Line -->
        <path d="M132.99999999999997,82 L132.99999999999997,76 " style="stroke:#000000;stroke-width:0.01;"/>
        <!-- Line -->
        <path d="M121.99999999999997,47 L143.99999999999997,47 " style="stroke:#000000;stroke-width:0.01;"/>
        <!-- Line -->
        <path d="M141.99999999999997,87 L121.99999999999997,87 " style="stroke:#000000;stroke-width:0.01;"/>
        <!-- Arc -->
        <path d="M149.22680885707558,75.86363636363637 A2.499999999999996,2.499999999999996 0 1,1 144.77319114292436,75.86363636363636 " style="stroke:#000000;stroke-width:0.01;"/>
        <!-- Line -->
        <path d="M149.44948974278316,75.5 L151.74999999999997,75.5 " style="stroke:#000000;stroke-width:0.01;"/>
        <!-- Line -->
        <!-- Line -->
        <path d="M151.99999999999997,75.75 L151.99999999999997,82 " style="stroke:#000000;stroke-width:0.01;"/>
        <!-- Arc -->
        <path d="M151.99999999999997,82 A5,5 0 0,1 146.99999999999997,87 " style="stroke:#000000;stroke-width:0.01;"/>
        <!-- Line -->
        <path d="M146.99999999999997,87 L141.99999999999997,87 " style="stroke:#000000;stroke-width:0.01;"/>
        <!-- Line -->
        <path d="M144.24999999999997,47.25 L144.24999999999997,75.25 " style="stroke:#000000;stroke-width:0.01;"/>
        <!-- Arc -->
        <path d="M144.5505102572168,75.5 A0.25,0.25 0 0,1 144.7731911429244,75.86363636363636 " style="stroke:#000000;stroke-width:0.01;"/>
        <!-- Arc -->
        <path d="M149.2268088570756,75.86363636363636 A0.25,0.25 0 0,1 149.44948974278316,75.5 " style="stroke:#000000;stroke-width:0.01;"/>
        <!-- Arc -->
        <path d="M151.74999999999997,75.5 A0.25,0.25 0 0,1 151.99999999999997,75.75 " style="stroke:#000000;stroke-width:0.01;"/>
        <!-- Arc -->
        <path d="M144.49999999999997,75.5 A0.25,0.25 0 0,1 144.24999999999997,75.25 " style="stroke:#000000;stroke-width:0.01;"/>
        <!-- Arc -->
        <path d="M143.99999999999997,47 A0.25,0.25 0 0,1 144.24999999999997,47.25 " style="stroke:#000000;stroke-width:0.01;"/>
        <!-- Line -->
        <path d="M144.5505102572168,75.5 L144.49999999999997,75.5 " style="stroke:#000000;stroke-width:0.01;"/>
        <!-- Line -->
        <path d="M105.49999999999997,79.99999999999999 L106.49999999999997,79.99999999999999 " style="stroke:#000000;stroke-width:0.01;"/>
        <!-- Circle -->
        <circle cx="121.99999999999997" cy="67" r="0.6" style="stroke:#000000;stroke-width:0.01;"/>
        <!-- Line -->
        <path d="M101.99999999999997,87 L121.99999999999997,87 " style="stroke:#000000;stroke-width:0.01;"/>
        <!-- Line -->
        <path d="M99.49999999999997,66 L99.49999999999997,66.64012588493202 " style="stroke:#000000;stroke-width:0.01;"/>
        <!-- Line -->
        <path d="M106.49999999999997,77.99999999999999 L105.49999999999997,77.99999999999999 " style="stroke:#000000;stroke-width:0.01;"/>
        <!-- Aligned Dimension -->
        <g>
            <path d="M119.31486223342924,48.67120002339483 L116.81486223342924,48.25491536562199 L116.81486223342924,49.08748468116767 Z" style="stroke:#00ffff;stroke-width:0.01;fill:#00ffff;fill-rule:evenodd;"/>
            <path d="M122.51486223342923,48.67120002339482 L125.01486223342923,49.08748468116766 L125.01486223342923,48.254915365621976 Z" style="stroke:#00ffff;stroke-width:0.01;fill:#00ffff;fill-rule:evenodd;"/>
            <g>
                <path d="M123.13986223342923,51.796200023394825 L123.69541778898478,51.796200023394825 M123.69541778898478,50.68508891228371 C124.00224264998478,50.68508891228371 124.25097334454034,50.93381960683927 124.25097334454034,51.24064446783927 C124.25097334454034,51.54746932883927 124.00224264998478,51.796200023394825 123.69541778898478,51.796200023394825 M123.69541778898478,50.68508891228371 L123.417640011207,50.68508891228371 M124.25097334454034,50.12953335672816 C124.25097334454034,50.436358217728156 124.00224264998478,50.68508891228371 123.69541778898478,50.68508891228371 M124.25097334454034,50.12953335672816 L124.25097334454034,49.85175557895038 M123.69541778898478,49.296200023394825 C124.00224264998478,49.296200023394825 124.25097334454034,49.54493071795038 124.25097334454034,49.85175557895038 M123.69541778898478,49.296200023394825 L123.13986223342923,49.296200023394825 " style="stroke:#00ffff;stroke-width:0.01;"/>
                <path d="M125.08430667787367,49.296200023394825 L125.08430667787367,49.43508891228371 " style="stroke:#00ffff;stroke-width:0.01;"/>
                <path d="M127.02875112231811,49.296200023394825 L125.917640011207,49.296200023394825 L126.99125112231812,51.14258891228371 M126.99104967841636,51.14230559377531 L126.99107444725439,51.14225804723405 C127.01503081166804,51.183326493544136 127.02875112231811,51.23107765000883 127.02875112231811,51.28203335672816 C127.02875112231811,51.31635122150838 127.02252785002746,51.34921556316421 127.01116575084662,51.37951281285764 M127.01110388926392,51.37955671313254 L127.01121009227808,51.37968324709915 C126.94939700539395,51.61929397766313 126.73195559651063,51.796200023394825 126.47319556676256,51.796200023394825 C126.2144506141165,51.796200023394825 125.99701946747322,51.61931459253782 125.93526712737896,51.38001689527734 " style="stroke:#00ffff;stroke-width:0.01;"/>
            </g>
            <path d="M119.31486223342924,62.16422577446778 L119.31486223342924,47.42120002339483 M122.51486223342923,62.164225774467766 L122.51486223342923,47.42120002339482 M114.31486223342924,48.67120002339483 L127.51486223342923,48.67120002339482 " style="stroke:#00ffff;stroke-width:0.01;"/>
        </g>
        <!-- Circle -->
        <circle cx="121.99999999999997" cy="67" r="0.6" style="stroke:#000000;stroke-width:0.01;"/>
        <!-- Line -->
        <path d="M109.49999999999997,87 L109.49999999999997,47 " style="stroke:#ff0000;stroke-width:0.01;"/>
        <!-- Line -->
        <path d="M105.49999999999997,77.99999999999999 L105.49999999999997,79.99999999999999 " style="stroke:#000000;stroke-width:0.01;"/>
        <!-- Line -->
        <path d="M134.49999999999997,82 L137.49999999999997,82 " style="stroke:#000000;stroke-width:0.01;"/>
        <!-- Arc -->
        <path d="M99.22680885707558,75.86363636363637 A2.499999999999996,2.499999999999996 0 1,1 94.77319114292436,75.86363636363636 " style="stroke:#000000;stroke-width:0.01;"/>
        <!-- Line -->
        <path d="M137.49999999999997,76 L134.49999999999997,76 " style="stroke:#000000;stroke-width:0.01;"/>
        <!-- Line -->
        <path d="M106.49999999999997,82 L106.49999999999997,79.99999999999999 " style="stroke:#000000;stroke-width:0.01;"/>
        <!-- Line -->
        <path d="M136.49999999999997,70 L134.49999999999997,70 " style="stroke:#000000;stroke-width:0.01;"/>
        <!-- Line -->
        <path d="M94.55051025721681,75.5 L92.24999999999997,75.5 " style="stroke:#000000;stroke-width:0.01;"/>
        <!-- Line -->
        <path d="M106.49999999999997,77.99999999999999 L106.49999999999997,76 " style="stroke:#000000;stroke-width:0.01;"/>
        <!-- Line -->
        <!-- Line -->
        <path d="M106.49999999999997,53.999999999999986 L105.49999999999997,53.999999999999986 " style="stroke:#000000;stroke-width:0.01;"/>
        <!-- Line -->
        <path d="M91.99999999999997,75.75 L91.99999999999997,82 " style="stroke:#000000;stroke-width:0.01;"/>
        <!-- Line -->
        <path d="M105.49999999999997,53.999999999999986 L105.49999999999997,55.999999999999986 " style="stroke:#000000;stroke-width:0.01;"/>
        <!-- Arc -->
        <path d="M96.99999999999997,87 A5,5 0 0,1 91.99999999999997,82 " style="stroke:#000000;stroke-width:0.01;"/>
        <!-- Line -->
        <path d="M106.49999999999997,58 L106.49999999999997,55.999999999999986 " style="stroke:#000000;stroke-width:0.01;"/>
        <!-- Line -->
        <path d="M96.99999999999997,87 L101.99999999999997,87 " style="stroke:#000000;stroke-width:0.01;"/>
        <!-- Line -->
        <path d="M106.49999999999997,53.999999999999986 L106.49999999999997,52 " style="stroke:#000000;stroke-width:0.01;"/>
        <!-- Line -->
        <path d="M99.75,47.25 L99.74999999999997,75.25 " style="stroke:#000000;stroke-width:0.01;"/>
        <!-- Line -->
        <path d="M105.49999999999997,55.999999999999986 L106.49999999999997,55.999999999999986 " style="stroke:#000000;stroke-width:0.01;"/>
        <!-- Arc -->
        <path d="M99.2268088570756,75.86363636363637 A0.25,0.25 0 0,1 99.44948974278316,75.50000000000001 " style="stroke:#000000;stroke-width:0.01;"/>
        <!-- Arc -->
        <path d="M94.55051025721681,75.5 A0.25,0.25 0 0,1 94.77319114292438,75.86363636363636 " style="stroke:#000000;stroke-width:0.01;"/>
        <!-- Arc -->
        <path d="M91.99999999999997,75.75000000000001 A0.25,0.25 0 0,1 92.24999999999997,75.50000000000001 " style="stroke:#000000;stroke-width:0.01;"/>
        <!-- Arc -->
        <path d="M99.74999999999997,75.25 A0.25,0.25 0 0,1 99.49999999999997,75.5 " style="stroke:#000000;stroke-width:0.01;"/>
        <!-- Arc -->
        <path d="M99.74999999999997,47.25 A0.25,0.25 0 0,1 99.99999999999997,47 " style="stroke:#000000;stroke-width:0.01;"/>
        <!-- Line -->
        <path d="M109.49999999999997,52 L106.49999999999997,52 " style="stroke:#000000;stroke-width:0.01;"/>
        <!-- Line -->
        <path d="M106.49999999999997,58 L109.49999999999997,58 " style="stroke:#000000;stroke-width:0.01;"/>
        <!-- Line -->
        <path d="M109.49999999999997,58 L109.49999999999997,52 " style="stroke:#000000;stroke-width:0.01;"/>
        <!-- Line -->
        <path d="M109.49999999999997,82 L106.49999999999997,82 " style="stroke:#000000;stroke-width:0.01;"/>
        <!-- Line -->
        <path d="M106.49999999999991,115.99999999999999 L109.49999999999991,115.99999999999999 " style="stroke:#000000;stroke-width:0.01;"/>
        <!-- Line -->
        <path d="M109.49999999999991,115.99999999999999 L109.49999999999991,121.99999999999999 " style="stroke:#000000;stroke-width:0.01;"/>
        <!-- Line -->
        <path d="M107.49999999999991,109.99999999999999 L109.49999999999991,109.99999999999999 " style="stroke:#000000;stroke-width:0.01;"/>
        <!-- Line -->
        <path d="M109.49999999999991,109.99999999999999 L106.49999999999991,110.00000000000001 " style="stroke:#000000;stroke-width:0.01;"/>
        <!-- Line -->
        <path d="M106.49999999999991,110.00000000000001 L106.49999999999991,103.99999999999999 " style="stroke:#000000;stroke-width:0.01;"/>
        <!-- Line -->
        <path d="M106.49999999999991,103.99999999999999 L109.49999999999991,103.99999999999999 " style="stroke:#000000;stroke-width:0.01;"/>
        <!-- Line -->
        <path d="M121.99999999999991,87 L99.99999999999991,87 " style="stroke:#000000;stroke-width:0.01;"/>
        <!-- Line -->
        <path d="M109.49999999999991,103.99999999999999 L109.49999999999991,109.99999999999999 " style="stroke:#000000;stroke-width:0.01;"/>
        <!-- Line -->
        <path d="M99.4494897427831,115.49999999999999 L99.49999999999991,115.49999999999999 " style="stroke:#000000;stroke-width:0.01;"/>
        <!-- Line -->
        <path d="M134.49999999999991,109.99999999999999 L137.49999999999991,110.00000000000001 " style="stroke:#000000;stroke-width:0.01;"/>
        <!-- Line -->
        <path d="M137.49999999999991,103.99999999999999 L134.49999999999991,103.99999999999999 " style="stroke:#000000;stroke-width:0.01;"/>
        <!-- Line -->
        <path d="M134.49999999999991,126.99999999999999 L134.49999999999991,87 " style="stroke:#ff0000;stroke-width:0.01;"/>
        <!-- Line -->
        <path d="M132.99999999999991,92 L138.99999999999991,92 " style="stroke:#000000;stroke-width:0.01;"/>
        <!-- Line -->
        <path d="M138.99999999999991,92 L138.99999999999991,97.99999999999999 " style="stroke:#000000;stroke-width:0.01;"/>
        <!-- Line -->
        <path d="M138.99999999999991,97.99999999999999 L132.99999999999991,97.99999999999999 " style="stroke:#000000;stroke-width:0.01;"/>
        <!-- Line -->
        <path d="M132.99999999999991,97.99999999999999 L132.99999999999991,92 " style="stroke:#000000;stroke-width:0.01;"/>
        <!-- Line -->
        <path d="M132.99999999999991,103.99999999999999 L138.99999999999991,103.99999999999999 " style="stroke:#000000;stroke-width:0.01;"/>
        <!-- Line -->
        <path d="M138.99999999999991,103.99999999999999 L138.99999999999991,109.99999999999999 " style="stroke:#000000;stroke-width:0.01;"/>
        <!-- Line -->
        <path d="M138.99999999999991,109.99999999999999 L132.99999999999991,109.99999999999999 " style="stroke:#000000;stroke-width:0.01;"/>
        <!-- Line -->
        <path d="M132.99999999999991,109.99999999999999 L132.99999999999991,103.99999999999999 " style="stroke:#000000;stroke-width:0.01;"/>
        <!-- Line -->
        <path d="M132.99999999999991,115.99999999999999 L138.99999999999991,115.99999999999999 " style="stroke:#000000;stroke-width:0.01;"/>
        <!-- Line -->
        <path d="M138.99999999999991,115.99999999999999 L138.99999999999991,121.99999999999999 " style="stroke:#000000;stroke-width:0.01;"/>
        <!-- Line -->
        <path d="M138.99999999999991,121.99999999999999 L132.99999999999991,121.99999999999999 " style="stroke:#000000;stroke-width:0.01;"/>
        <!-- Line -->
        <path d="M132.99999999999991,121.99999999999999 L132.99999999999991,115.99999999999999 " style="stroke:#000000;stroke-width:0.01;"/>
        <!-- Line -->
        <path d="M121.99999999999991,87 L143.99999999999991,87 " style="stroke:#000000;stroke-width:0.01;"/>
        <!-- Line -->
        <path d="M141.99999999999991,126.99999999999999 L121.99999999999991,126.99999999999999 " style="stroke:#000000;stroke-width:0.01;"/>
        <!-- Arc -->
        <path d="M149.22680885707553,115.86363636363636 A2.499999999999996,2.499999999999996 0 1,1 144.7731911429243,115.86363636363635 " style="stroke:#000000;stroke-width:0.01;"/>
        <!-- Line -->
        <path d="M149.4494897427831,115.49999999999999 L151.74999999999991,115.49999999999999 " style="stroke:#000000;stroke-width:0.01;"/>
        <!-- Line -->
        <!-- Line -->
        <path d="M151.99999999999991,115.74999999999999 L151.99999999999991,121.99999999999999 " style="stroke:#000000;stroke-width:0.01;"/>
        <!-- Arc -->
        <path d="M151.99999999999991,121.99999999999999 A5,5 0 0,1 146.99999999999991,126.99999999999999 " style="stroke:#000000;stroke-width:0.01;"/>
        <!-- Line -->
        <path d="M146.99999999999991,126.99999999999999 L141.99999999999991,126.99999999999999 " style="stroke:#000000;stroke-width:0.01;"/>
        <!-- Line -->
        <path d="M144.24999999999991,87.25 L144.24999999999991,115.24999999999999 " style="stroke:#000000;stroke-width:0.01;"/>
        <!-- Arc -->
        <path d="M144.55051025721676,115.49999999999999 A0.25,0.25 0 0,1 144.77319114292433,115.86363636363635 " style="stroke:#000000;stroke-width:0.01;"/>
        <!-- Arc -->
        <path d="M149.22680885707555,115.86363636363635 A0.25,0.25 0 0,1 149.4494897427831,115.49999999999999 " style="stroke:#000000;stroke-width:0.01;"/>
        <!-- Arc -->
        <path d="M151.74999999999991,115.49999999999999 A0.25,0.25 0 0,1 151.99999999999991,115.74999999999999 " style="stroke:#000000;stroke-width:0.01;"/>
        <!-- Arc -->
        <path d="M144.49999999999991,115.49999999999999 A0.25,0.25 0 0,1 144.24999999999991,115.24999999999999 " style="stroke:#000000;stroke-width:0.01;"/>
        <!-- Arc -->
        <path d="M143.99999999999991,87 A0.25,0.25 0 0,1 144.24999999999991,87.25 " style="stroke:#000000;stroke-width:0.01;"/>
        <!-- Line -->
        <path d="M144.55051025721676,115.49999999999999 L144.49999999999991,115.49999999999999 " style="stroke:#000000;stroke-width:0.01;"/>
        <!-- Line -->
        <path d="M105.49999999999991,119.99999999999999 L106.49999999999991,119.99999999999999 " style="stroke:#000000;stroke-width:0.01;"/>
        <!-- Circle -->
        <circle cx="121.99999999999991" cy="106.99999999999999" r="0.6" style="stroke:#000000;stroke-width:0.01;"/>
        <!-- Line -->
        <path d="M101.99999999999991,126.99999999999999 L121.99999999999991,126.99999999999999 " style="stroke:#000000;stroke-width:0.01;"/>
        <!-- Line -->
        <path d="M99.49999999999991,105.99999999999999 L99.49999999999991,106.64012588493203 " style="stroke:#000000;stroke-width:0.01;"/>
        <!-- Line -->
        <path d="M106.49999999999991,117.99999999999999 L105.49999999999991,117.99999999999999 " style="stroke:#000000;stroke-width:0.01;"/>
        <!-- Aligned Dimension -->
        <g>
            <path d="M119.31486223342918,88.67120002339483 L116.81486223342918,88.254915365622 L116.81486223342918,89.08748468116767 Z" style="stroke:#00ffff;stroke-width:0.01;fill:#00ffff;fill-rule:evenodd;"/>
            <path d="M122.51486223342917,88.6712000233948 L125.01486223342917,89.08748468116764 L125.01486223342917,88.25491536562197 Z" style="stroke:#00ffff;stroke-width:0.01;fill:#00ffff;fill-rule:evenodd;"/>
            <g>
                <path d="M123.13986223342917,91.79620002339482 L123.69541778898473,91.79620002339482 M123.69541778898473,90.6850889122837 C124.00224264998472,90.6850889122837 124.25097334454028,90.93381960683926 124.25097334454028,91.24064446783926 C124.25097334454028,91.54746932883926 124.00224264998472,91.79620002339482 123.69541778898473,91.79620002339482 M123.69541778898473,90.6850889122837 L123.41764001120694,90.6850889122837 M124.25097334454028,90.12953335672815 C124.25097334454028,90.43635821772816 124.00224264998472,90.6850889122837 123.69541778898473,90.6850889122837 M124.25097334454028,90.12953335672815 L124.25097334454028,89.85175557895037 M123.69541778898473,89.29620002339482 C124.00224264998472,89.29620002339482 124.25097334454028,89.54493071795038 124.25097334454028,89.85175557895037 M123.69541778898473,89.29620002339482 L123.13986223342917,89.29620002339482 " style="stroke:#00ffff;stroke-width:0.01;"/>
                <path d="M125.08430667787361,89.29620002339482 L125.08430667787361,89.4350889122837 " style="stroke:#00ffff;stroke-width:0.01;"/>
                <path d="M127.02875112231806,89.29620002339482 L125.91764001120694,89.29620002339482 L126.99125112231806,91.14258891228371 M126.9910496784163,91.1423055937753 L126.99107444725433,91.14225804723405 C127.01503081166798,91.18332649354413 127.02875112231806,91.23107765000881 127.02875112231806,91.28203335672815 C127.02875112231806,91.31635122150837 127.0225278500274,91.3492155631642 127.01116575084656,91.37951281285764 M127.01110388926386,91.37955671313253 L127.01121009227802,91.37968324709914 C126.94939700539389,91.61929397766313 126.73195559651057,91.79620002339482 126.4731955667625,91.79620002339482 C126.21445061411644,91.79620002339482 125.99701946747317,91.6193145925378 125.9352671273789,91.38001689527734 " style="stroke:#00ffff;stroke-width:0.01;"/>
            </g>
            <path d="M119.31486223342918,102.1642257744678 L119.31486223342918,87.42120002339483 M122.51486223342917,102.16422577446777 L122.51486223342917,87.4212000233948 M114.31486223342918,88.67120002339483 L127.51486223342917,88.6712000233948 " style="stroke:#00ffff;stroke-width:0.01;"/>
        </g>
        <!-- Circle -->
        <circle cx="121.99999999999991" cy="106.99999999999999" r="0.6" style="stroke:#000000;stroke-width:0.01;"/>
        <!-- Line -->
        <path d="M109.49999999999991,126.99999999999999 L109.49999999999991,87 " style="stroke:#ff0000;stroke-width:0.01;"/>
        <!-- Line -->
        <path d="M105.49999999999991,117.99999999999999 L105.49999999999991,119.99999999999999 " style="stroke:#000000;stroke-width:0.01;"/>
        <!-- Line -->
        <path d="M134.49999999999991,121.99999999999999 L137.49999999999991,121.99999999999999 " style="stroke:#000000;stroke-width:0.01;"/>
        <!-- Arc -->
        <path d="M99.22680885707553,115.86363636363636 A2.499999999999996,2.499999999999996 0 1,1 94.7731911429243,115.86363636363635 " style="stroke:#000000;stroke-width:0.01;"/>
        <!-- Line -->
        <path d="M137.49999999999991,115.99999999999999 L134.49999999999991,115.99999999999999 " style="stroke:#000000;stroke-width:0.01;"/>
        <!-- Line -->
        <path d="M106.49999999999991,121.99999999999999 L106.49999999999991,119.99999999999999 " style="stroke:#000000;stroke-width:0.01;"/>
        <!-- Line -->
        <path d="M136.49999999999991,109.99999999999999 L134.49999999999991,109.99999999999999 " style="stroke:#000000;stroke-width:0.01;"/>
        <!-- Line -->
        <path d="M94.55051025721676,115.49999999999999 L92.24999999999991,115.49999999999999 " style="stroke:#000000;stroke-width:0.01;"/>
        <!-- Line -->
        <path d="M106.49999999999991,117.99999999999999 L106.49999999999991,115.99999999999999 " style="stroke:#000000;stroke-width:0.01;"/>
        <!-- Line -->
        <!-- Line -->
        <path d="M106.49999999999991,93.99999999999999 L105.49999999999991,93.99999999999999 " style="stroke:#000000;stroke-width:0.01;"/>
        <!-- Line -->
        <path d="M91.99999999999991,115.74999999999999 L91.99999999999991,121.99999999999999 " style="stroke:#000000;stroke-width:0.01;"/>
        <!-- Line -->
        <path d="M105.49999999999991,93.99999999999999 L105.49999999999991,95.99999999999999 " style="stroke:#000000;stroke-width:0.01;"/>
        <!-- Arc -->
        <path d="M96.99999999999991,126.99999999999999 A5,5 0 0,1 91.99999999999991,121.99999999999999 " style="stroke:#000000;stroke-width:0.01;"/>
        <!-- Line -->
        <path d="M106.49999999999991,97.99999999999999 L106.49999999999991,95.99999999999999 " style="stroke:#000000;stroke-width:0.01;"/>
        <!-- Line -->
        <path d="M96.99999999999991,126.99999999999999 L101.99999999999991,126.99999999999999 " style="stroke:#000000;stroke-width:0.01;"/>
        <!-- Line -->
        <path d="M106.49999999999991,93.99999999999999 L106.49999999999991,92 " style="stroke:#000000;stroke-width:0.01;"/>
        <!-- Line -->
        <path d="M99.74999999999994,87.25 L99.74999999999991,115.24999999999999 " style="stroke:#000000;stroke-width:0.01;"/>
        <!-- Line -->
        <path d="M105.49999999999991,95.99999999999999 L106.49999999999991,95.99999999999999 " style="stroke:#000000;stroke-width:0.01;"/>
        <!-- Arc -->
        <path d="M99.22680885707554,115.86363636363637 A0.25,0.25 0 0,1 99.4494897427831,115.50000000000001 " style="stroke:#000000;stroke-width:0.01;"/>
        <!-- Arc -->
        <path d="M94.55051025721676,115.49999999999999 A0.25,0.25 0 0,1 94.77319114292432,115.86363636363635 " style="stroke:#000000;stroke-width:0.01;"/>
        <!-- Arc -->
        <path d="M91.99999999999991,115.75000000000001 A0.25,0.25 0 0,1 92.24999999999991,115.50000000000001 " style="stroke:#000000;stroke-width:0.01;"/>
        <!-- Arc -->
        <path d="M99.74999999999991,115.24999999999999 A0.25,0.25 0 0,1 99.49999999999991,115.49999999999999 " style="stroke:#000000;stroke-width:0.01;"/>
        <!-- Arc -->
        <path d="M99.74999999999991,87.25 A0.25,0.25 0 0,1 99.99999999999991,87 " style="stroke:#000000;stroke-width:0.01;"/>
        <!-- Line -->
        <path d="M109.49999999999991,92 L106.49999999999991,92 " style="stroke:#000000;stroke-width:0.01;"/>
        <!-- Line -->
        <path d="M106.49999999999991,97.99999999999999 L109.49999999999991,97.99999999999999 " style="stroke:#000000;stroke-width:0.01;"/>
        <!-- Line -->
        <path d="M109.49999999999991,97.99999999999999 L109.49999999999991,92 " style="stroke:#000000;stroke-width:0.01;"/>
        <!-- Line -->
        <path d="M109.49999999999991,121.99999999999999 L106.49999999999991,121.99999999999999 " style="stroke:#000000;stroke-width:0.01;"/>
        <!-- Line -->
        <path d="M14.839745962155632,136.97114317029968 L32.160254037844396,126.97114317029968 " style="stroke:#ff0000;stroke-width:0.01;"/>
        <!-- Line -->
        <path d="M74.10511776651532,110.32050807568868 L39.10511776651532,170.94228634059948 " style="stroke:#ff0000;stroke-width:0.01;"/>
        <!-- Line -->
        <path d="M76.20079233306734,113.69069325029068 L53.07162102645435,153.7515930903087 " style="stroke:#000000;stroke-width:0.01;"/>
        <!-- Line -->
        <path d="M74.10511776651532,110.32050807568868 L83.10511776651532,94.73205080756884 " style="stroke:#ff0000;stroke-width:0.01;"/>
        <!-- Circle -->
        <circle cx="61.60511776651532" cy="131.97114317029968" r="1.5" style="stroke:#000000;stroke-width:0.01;"/>
        <!-- Line -->
        <path d="M65.4448637286709,105.32050807568868 L82.76537180435969,115.32050807568868 " style="stroke:#ff0000;stroke-width:0.01;"/>
        <!-- Line -->
        <path d="M57.765371804359745,158.6217782649107 L40.444863728670924,148.6217782649107 " style="stroke:#ff0000;stroke-width:0.01;"/>
        <!-- Circle -->
        <circle cx="49.10511776651532" cy="153.6217782649107" r="5" style="stroke:#ff0000;stroke-width:0.01;"/>
        <!-- Circle -->
        <circle cx="74.10511776651532" cy="110.32050807568868" r="5" style="stroke:#ff0000;stroke-width:0.01;"/>
        <!-- Line -->
        <path d="M70.26537180435969,136.97114317029968 L52.94486372867095,126.97114317029968 " style="stroke:#ff0000;stroke-width:0.01;"/>
        <!-- Line -->
        <path d="M37.87082869338698,157.1217782649107 L47.234289073128366,157.1217782649107 " style="stroke:#000000;stroke-width:0.01;"/>
        <!-- Line -->
        <path d="M76.20079233306734,106.95032290108674 L71.51906214319666,98.84132834490168 " style="stroke:#000000;stroke-width:0.01;"/>
        <!-- Line -->
        <path d="M13.586055623318629,98.84132834490168 L8.90432543344798,106.95032290108674 " style="stroke:#000000;stroke-width:0.01;"/>
        <!-- Arc -->
        <path d="M19.298665663752168,95.93780983696641 A3.5,3.5 0 1,1 14.05256176819761,98.96664933326159 " style="stroke:#000000;stroke-width:0.01;"/>
        <!-- Arc -->
        <path d="M9.246109665434485,107.29166857939354 A3.5,3.5 0 1,1 9.246109665434453,113.3493475719839 " style="stroke:#000000;stroke-width:0.01;"/>
        <!-- Arc -->
        <path d="M71.05255599831769,98.96664933326159 A3.5,3.5 0 1,1 65.80645210276313,95.93780983696641 " style="stroke:#000000;stroke-width:0.01;"/>
        <!-- Arc -->
        <path d="M75.85900810108083,113.34934757198387 A3.5,3.5 0 1,1 75.85900810108085,107.2916685793935 " style="stroke:#000000;stroke-width:0.01;"/>
        <!-- Arc -->
        <path d="M47.35901098602082,156.65511159824402 A3.5,3.5 0 1,1 52.60511488157537,153.62627210194884 " style="stroke:#000000;stroke-width:0.01;"/>
        <!-- Arc -->
        <path d="M32.50000288493995,153.62627210194884 A3.5,3.5 0 1,1 37.74610678049451,156.65511159824402 " style="stroke:#000000;stroke-width:0.01;"/>
        <!-- Arc -->
        <path d="M65.68173018987068,95.47114317029974 A0.25,0.25 0 0,1 65.80645210276315,95.93780983696641 " style="stroke:#000000;stroke-width:0.01;"/>
        <!-- Arc -->
        <path d="M71.05255599831773,98.96664933326156 A0.25,0.25 0 0,1 71.51906214319669,98.84132834490168 " style="stroke:#000000;stroke-width:0.01;"/>
        <!-- Arc -->
        <path d="M76.20079233306731,106.95032290108674 A0.25,0.25 0 0,1 75.85900810108082,107.29166857939353 " style="stroke:#000000;stroke-width:0.01;"/>
        <!-- Arc -->
        <path d="M75.85900810108082,113.34934757198388 A0.25,0.25 0 0,1 76.20079233306731,113.69069325029068 " style="stroke:#000000;stroke-width:0.01;"/>
        <!-- Arc -->
        <path d="M53.07162102645433,153.7515930903087 A0.25,0.25 0 0,1 52.60511488157536,153.6262721019488 " style="stroke:#000000;stroke-width:0.01;"/>
        <!-- Arc -->
        <path d="M47.35901098602083,156.65511159824402 A0.25,0.25 0 0,1 47.234289073128366,157.1217782649107 " style="stroke:#000000;stroke-width:0.01;"/>
        <!-- Arc -->
        <path d="M37.87082869338698,157.1217782649107 A0.25,0.25 0 0,1 37.74610678049452,156.65511159824402 " style="stroke:#000000;stroke-width:0.01;"/>
        <!-- Arc -->
        <path d="M32.50000288493996,153.62627210194884 A0.25,0.25 0 0,1 32.03349674006099,153.7515930903087 " style="stroke:#000000;stroke-width:0.01;"/>
        <!-- Arc -->
        <path d="M8.904325433447942,113.69069325029074 A0.25,0.25 0 0,1 9.246109665434453,113.34934757198394 " style="stroke:#000000;stroke-width:0.01;"/>
        <!-- Arc -->
        <path d="M9.246109665434508,107.29166857939353 A0.25,0.25 0 0,1 8.904325433448005,106.95032290108674 " style="stroke:#000000;stroke-width:0.01;"/>
        <!-- Arc -->
        <path d="M13.586055623318654,98.84132834490168 A0.25,0.25 0 0,1 14.052561768197624,98.96664933326153 " style="stroke:#000000;stroke-width:0.01;"/>
        <!-- Arc -->
        <path d="M19.29866566375218,95.93780983696641 A0.25,0.25 0 0,1 19.423387576644643,95.47114317029974 " style="stroke:#000000;stroke-width:0.01;"/>
        <!-- Circle -->
        <circle cx="42.55255888325766" cy="120.97114317029974" r="22.00000000000001" style="stroke:#ff0000;stroke-width:0.01;"/>
        <!-- Circle -->
        <circle cx="42.55255888325766" cy="142.97114317029974" r="1.5" style="stroke:#000000;stroke-width:0.01;"/>
        <!-- Circle -->
        <circle cx="61.60511776651532" cy="109.97114317029968" r="1.5" style="stroke:#000000;stroke-width:0.01;"/>
        <!-- Circle -->
        <circle cx="23.5" cy="109.97114317029974" r="1.5" style="stroke:#000000;stroke-width:0.01;"/>
        <!-- Circle -->
        <circle cx="42.55255888325766" cy="120.97114317029974" r="15" style="stroke:#000000;stroke-width:0.01;"/>
        <!-- Circle -->
        <circle cx="42.55255888325766" cy="120.97114317029974" r="25.5" style="stroke:#ff0000;stroke-width:0.01;"/>
        <!-- Line -->
        <path d="M17.55255888325766,98.97114317029974 L-0.4474411167423398,98.97114317029974 " style="stroke:#ff0000;stroke-width:0.01;"/>
        <!-- Circle -->
        <circle cx="67.55255888325763" cy="98.97114317029974" r="5" style="stroke:#ff0000;stroke-width:0.01;"/>
        <!-- Circle -->
        <circle cx="17.55255888325766" cy="98.97114317029974" r="5" style="stroke:#ff0000;stroke-width:0.01;"/>
        <!-- Line -->
        <path d="M19.423387576644643,95.47114317029974 L65.68173018987068,95.47114317029974 " style="stroke:#000000;stroke-width:0.01;"/>
        <!-- Circle -->
        <circle cx="42.55255888325766" cy="98.97114317029974" r="1.5" style="stroke:#000000;stroke-width:0.01;"/>
        <!-- Line -->
        <path d="M36,153.6217782649107 L1,93 " style="stroke:#ff0000;stroke-width:0.01;"/>
        <!-- Line -->
        <path d="M32.033496740061,153.7515930903087 L8.904325433447923,113.69069325029068 " style="stroke:#000000;stroke-width:0.01;"/>
        <!-- Line -->
        <path d="M36,153.6217782649107 L45.00000000000006,169.21023553303058 " style="stroke:#ff0000;stroke-width:0.01;"/>
        <!-- Circle -->
        <circle cx="23.5" cy="131.97114317029968" r="1.5" style="stroke:#000000;stroke-width:0.01;"/>
        <!-- Line -->
        <path d="M44.660254037844425,148.6217782649107 L27.339745962155632,158.6217782649107 " style="stroke:#ff0000;stroke-width:0.01;"/>
        <!-- Line -->
        <path d="M2.3397459621556322,115.32050807568874 L19.660254037844396,105.32050807568879 " style="stroke:#ff0000;stroke-width:0.01;"/>
        <!-- Circle -->
        <circle cx="11" cy="110.32050807568874" r="5" style="stroke:#ff0000;stroke-width:0.01;"/>
        <!-- Circle -->
        <circle cx="36" cy="153.6217782649107" r="5" style="stroke:#ff0000;stroke-width:0.01;"/>
    </g>
</svg>
