999
dxflib 3.3.4.0
  0
SECTION
  2
HEADER
  9
$ACADVER
  1
AC1015
  9
$HANDSEED
  5
FFFF
  9
$ANGBASE
 50
0.0
  9
$ATTMODE
 70
1
  9
$AUNITS
 70
0
  9
$AUPREC
 70
0
  9
$CELTSCALE
 40
1.0
  9
$CHAMFERA
 40
0.0
  9
$CHAMFERB
 40
0.0
  9
$CHAMFERC
 40
0.0
  9
$CHAMFERD
 40
0.0
  9
$CMLJUST
 70
0
  9
$CMLSCALE
 40
1.0
  9
$DIMADEC
 70
0
  9
$DIMALTD
 70
2
  9
$DIMALTF
 40
25.3999999999999986
  9
$DIMALTRND
 40
0.0
  9
$DIMALTTD
 70
2
  9
$DIMALTTZ
 70
0
  9
$DIMALTU
 70
2
  9
$DIMALTZ
 70
0
  9
$DIMAPOST
  1

  9
$DIMASZ
 40
2.5
  9
$DIMATFIT
 70
3
  9
$DIMAUNIT
 70
0
  9
$DIMAZIN
 70
2
  9
$DIMCEN
 40
0.09
  9
$DIMDEC
 70
4
  9
$DIMDLE
 40
0.0
  9
$DIMDLI
 40
0.38
  9
$DIMDSEP
 70
46
  9
$DIMEXE
 40
1.25
  9
$DIMEXO
 40
0.625
  9
$DIMFRAC
 70
0
  9
$DIMGAP
 40
0.625
  9
$DIMJUST
 70
0
  9
$DIMLFAC
 40
1.0
  9
$DIMLUNIT
 70
2
  9
$DIMLWD
 70
-2
  9
$DIMLWE
 70
-2
  9
$DIMPOST
  1

  9
$DIMRND
 40
0.0
  9
$DIMSCALE
 40
1.0
  9
$DIMTAD
 70
0
  9
$DIMTDEC
 70
4
  9
$DIMTFAC
 40
1.0
  9
$DIMTM
 40
0.0
  9
$DIMTOLJ
 70
1
  9
$DIMTP
 40
0.0
  9
$DIMTSZ
 40
0.0
  9
$DIMTVP
 40
0.0
  9
$DIMTXT
 40
2.5
  9
$DIMTZIN
 70
0
  9
$DIMZIN
 70
8
  9
$DWGCODEPAGE
  3
ANSI_1252
  9
$ELEVATION
 40
0.0
  9
$EXTMAX
 10
-100000000000000000000.0
 20
-100000000000000000000.0
 30
-100000000000000000000.0
  9
$EXTMIN
 10
100000000000000000000.0
 20
100000000000000000000.0
 30
100000000000000000000.0
  9
$FILLETRAD
 40
0.5
  9
$INSBASE
 10
0.0
 20
0.0
 30
0.0
  9
$INSUNITS
 70
4
  9
$LIMMAX
 10
12.0
 20
9.0
  9
$LIMMIN
 10
0.0
 20
0.0
  9
$LTSCALE
 40
1.0
  9
$LUNITS
 70
2
  9
$LUPREC
 70
4
  9
$MAXACTVP
 70
64
  9
$PDMODE
 70
0
  9
$PDSIZE
 40
0.0
  9
$PELEVATION
 40
0.0
  9
$PEXTMAX
 10
-100000000000000000000.0
 20
-100000000000000000000.0
 30
-100000000000000000000.0
  9
$PEXTMIN
 10
100000000000000000000.0
 20
100000000000000000000.0
 30
100000000000000000000.0
  9
$PINSBASE
 10
0.0
 20
0.0
 30
0.0
  9
$PLIMMAX
 10
12.0
 20
9.0
  9
$PLIMMIN
 10
0.0
 20
0.0
  9
$PLINEWID
 40
0.0
  9
$PROXYGRAPHICS
 70
1
  9
$PUCSORG
 10
0.0
 20
0.0
 30
0.0
  9
$PUCSXDIR
 10
1.0
 20
0.0
 30
0.0
  9
$PUCSYDIR
 10
0.0
 20
1.0
 30
0.0
  9
$SHADEDGE
 70
3
  9
$SHADEDIF
 70
70
  9
$SKETCHINC
 40
0.1
  9
$SPLINESEGS
 70
8
  9
$SPLINETYPE
 70
6
  9
$SURFTAB1
 70
6
  9
$SURFTAB2
 70
6
  9
$SURFTYPE
 70
6
  9
$SURFU
 70
6
  9
$SURFV
 70
6
  9
$TEXTSIZE
 40
0.2
  9
$THICKNESS
 40
0.0
  9
$TRACEWID
 40
0.05
  9
$TREEDEPTH
 70
3020
  9
$UCSORG
 10
0.0
 20
0.0
 30
0.0
  9
$UCSXDIR
 10
1.0
 20
0.0
 30
0.0
  9
$UCSYDIR
 10
0.0
 20
1.0
 30
0.0
  9
$UNITMODE
 70
0
  9
$USERI1
 70
0
  9
$USERI2
 70
0
  9
$USERI3
 70
0
  9
$USERI4
 70
0
  9
$USERI5
 70
0
  9
$USERR1
 40
0.0
  9
$USERR2
 40
0.0
  9
$USERR3
 40
0.0
  9
$USERR4
 40
0.0
  9
$USERR5
 40
0.0
  0
ENDSEC
  0
SECTION
  2
TABLES
  0
TABLE
  2
VPORT
  5
8
100
AcDbSymbolTable
 70
1
  0
VPORT
  5
30
100
AcDbSymbolTableRecord
100
AcDbViewportTableRecord
  2
*Active
 70
0
 10
0.0
 20
0.0
 11
1.0
 21
1.0
 12
286.3055555555554861
 22
148.5
 13
0.0
 23
0.0
 14
10.0
 24
10.0
 15
10.0
 25
10.0
 16
0.0
 26
0.0
 36
1.0
 17
0.0
 27
0.0
 37
0.0
 40
297.0
 41
1.92798353909465
 42
50.0
 43
0.0
 44
0.0
 50
0.0
 51
0.0
 71
0
 72
100
 73
1
 74
3
 75
1
 76
1
 77
0
 78
0
281
0
 65
1
110
0.0
120
0.0
130
0.0
111
1.0
121
0.0
131
0.0
112
0.0
122
1.0
132
0.0
 79
0
146
0.0
  0
ENDTAB
  0
TABLE
  2
LTYPE
  5
5
100
AcDbSymbolTable
 70
21
  0
LTYPE
  5
16
100
AcDbSymbolTableRecord
100
AcDbLinetypeTableRecord
  2
CONTINUOUS
 70
0
  3
Solid line
 72
65
 73
0
 40
0.0
  0
LTYPE
  5
31
100
AcDbSymbolTableRecord
100
AcDbLinetypeTableRecord
  2
CENTER2
 70
0
  3
Center (.5x) ___ _ ___ _ ___ _ ___ _ ___ _ ___
 72
65
 73
4
 40
28.5749999999999993
 49
19.0500000000000007
 74
0
 49
-3.1749999999999998
 74
0
 49
3.1749999999999998
 74
0
 49
-3.1749999999999998
 74
0
  0
LTYPE
  5
32
100
AcDbSymbolTableRecord
100
AcDbLinetypeTableRecord
  2
DIVIDEX2
 70
0
  3
Divide (2x) ________  .  .  ________  .  .  _
 72
65
 73
6
 40
63.5
 49
25.3999999999999986
 74
0
 49
-12.6999999999999993
 74
0
 49
0.0
 74
0
 49
-12.6999999999999993
 74
0
 49
0.0
 74
0
 49
-12.6999999999999993
 74
0
  0
LTYPE
  5
33
100
AcDbSymbolTableRecord
100
AcDbLinetypeTableRecord
  2
DOT2
 70
0
  3
Dot (.5x) .....................................
 72
65
 73
2
 40
3.1749999999999998
 49
0.0
 74
0
 49
-3.1749999999999998
 74
0
  0
LTYPE
  5
34
100
AcDbSymbolTableRecord
100
AcDbLinetypeTableRecord
  2
DASHDOT2
 70
0
  3
Dash dot (.5x) _._._._._._._._._._._._._._._.
 72
65
 73
4
 40
12.6999999999999993
 49
6.3499999999999996
 74
0
 49
-3.1749999999999998
 74
0
 49
0.0
 74
0
 49
-3.1749999999999998
 74
0
  0
LTYPE
  5
35
100
AcDbSymbolTableRecord
100
AcDbLinetypeTableRecord
  2
DIVIDE
 70
0
  3
Divide ____ . . ____ . . ____ . . ____ . . ____
 72
65
 73
6
 40
31.75
 49
12.6999999999999993
 74
0
 49
-6.3499999999999996
 74
0
 49
0.0
 74
0
 49
-6.3499999999999996
 74
0
 49
0.0
 74
0
 49
-6.3499999999999996
 74
0
  0
LTYPE
  5
36
100
AcDbSymbolTableRecord
100
AcDbLinetypeTableRecord
  2
DASHDOT
 70
0
  3
Dash dot __ . __ . __ . __ . __ . __ . __ . __
 72
65
 73
4
 40
25.3999999999999986
 49
12.6999999999999993
 74
0
 49
-6.3499999999999996
 74
0
 49
0.0
 74
0
 49
-6.3499999999999996
 74
0
  0
LTYPE
  5
37
100
AcDbSymbolTableRecord
100
AcDbLinetypeTableRecord
  2
BORDER
 70
0
  3
Border __ __ . __ __ . __ __ . __ __ . __ __ .
 72
65
 73
6
 40
44.4500000000000028
 49
12.6999999999999993
 74
0
 49
-6.3499999999999996
 74
0
 49
12.6999999999999993
 74
0
 49
-6.3499999999999996
 74
0
 49
0.0
 74
0
 49
-6.3499999999999996
 74
0
  0
LTYPE
  5
38
100
AcDbSymbolTableRecord
100
AcDbLinetypeTableRecord
  2
DASHDOTX2
 70
0
  3
Dash dot (2x) ____  .  ____  .  ____  .  ___
 72
65
 73
4
 40
50.7999999999999972
 49
25.3999999999999986
 74
0
 49
-12.6999999999999993
 74
0
 49
0.0
 74
0
 49
-12.6999999999999993
 74
0
  0
LTYPE
  5
39
100
AcDbSymbolTableRecord
100
AcDbLinetypeTableRecord
  2
CENTERX2
 70
0
  3
Center (2x) ________  __  ________  __  _____
 72
65
 73
4
 40
101.5999999999999943
 49
63.5
 74
0
 49
-12.6999999999999993
 74
0
 49
12.6999999999999993
 74
0
 49
-12.6999999999999993
 74
0
  0
LTYPE
  5
3A
100
AcDbSymbolTableRecord
100
AcDbLinetypeTableRecord
  2
BORDER2
 70
0
  3
Border (.5x) __.__.__.__.__.__.__.__.__.__.__.
 72
65
 73
6
 40
22.2250000000000014
 49
6.3499999999999996
 74
0
 49
-3.1749999999999998
 74
0
 49
6.3499999999999996
 74
0
 49
-3.1749999999999998
 74
0
 49
0.0
 74
0
 49
-3.1749999999999998
 74
0
  0
LTYPE
  5
3B
100
AcDbSymbolTableRecord
100
AcDbLinetypeTableRecord
  2
BORDERX2
 70
0
  3
Border (2x) ____  ____  .  ____  ____  .  ___
 72
65
 73
6
 40
88.9000000000000057
 49
25.3999999999999986
 74
0
 49
-12.6999999999999993
 74
0
 49
25.3999999999999986
 74
0
 49
-12.6999999999999993
 74
0
 49
0.0
 74
0
 49
-12.6999999999999993
 74
0
  0
LTYPE
  5
14
100
AcDbSymbolTableRecord
100
AcDbLinetypeTableRecord
  2
BYBLOCK
 70
0
  3

 72
65
 73
0
 40
0.0
  0
LTYPE
  5
15
100
AcDbSymbolTableRecord
100
AcDbLinetypeTableRecord
  2
BYLAYER
 70
0
  3

 72
65
 73
0
 40
0.0
  0
LTYPE
  5
3C
100
AcDbSymbolTableRecord
100
AcDbLinetypeTableRecord
  2
DASHED2
 70
0
  3
Dashed (.5x) _ _ _ _ _ _ _ _ _ _ _ _ _ _ _ _ _
 72
65
 73
2
 40
9.5250000000000004
 49
6.3499999999999996
 74
0
 49
-3.1749999999999998
 74
0
  0
LTYPE
  5
3D
100
AcDbSymbolTableRecord
100
AcDbLinetypeTableRecord
  2
CENTER
 70
0
  3
Center ____ _ ____ _ ____ _ ____ _ ____ _ ____
 72
65
 73
4
 40
50.7999999999999972
 49
31.75
 74
0
 49
-6.3499999999999996
 74
0
 49
6.3499999999999996
 74
0
 49
-6.3499999999999996
 74
0
  0
LTYPE
  5
3E
100
AcDbSymbolTableRecord
100
AcDbLinetypeTableRecord
  2
DIVIDE2
 70
0
  3
Divide (.5x) __..__..__..__..__..__..__..__.._
 72
65
 73
6
 40
15.875
 49
6.3499999999999996
 74
0
 49
-3.1749999999999998
 74
0
 49
0.0
 74
0
 49
-3.1749999999999998
 74
0
 49
0.0
 74
0
 49
-3.1749999999999998
 74
0
  0
LTYPE
  5
3F
100
AcDbSymbolTableRecord
100
AcDbLinetypeTableRecord
  2
DASHED
 70
0
  3
Dashed __ __ __ __ __ __ __ __ __ __ __ __ __ _
 72
65
 73
2
 40
19.0500000000000007
 49
12.6999999999999993
 74
0
 49
-6.3499999999999996
 74
0
  0
LTYPE
  5
40
100
AcDbSymbolTableRecord
100
AcDbLinetypeTableRecord
  2
DOTX2
 70
0
  3
Dot (2x) .  .  .  .  .  .  .  .  .  .  .  .  .
 72
65
 73
2
 40
12.6999999999999993
 49
0.0
 74
0
 49
-12.6999999999999993
 74
0
  0
LTYPE
  5
41
100
AcDbSymbolTableRecord
100
AcDbLinetypeTableRecord
  2
DASHEDX2
 70
0
  3
Dashed (2x) ____  ____  ____  ____  ____  ___
 72
65
 73
2
 40
38.1000000000000014
 49
25.3999999999999986
 74
0
 49
-12.6999999999999993
 74
0
  0
LTYPE
  5
42
100
AcDbSymbolTableRecord
100
AcDbLinetypeTableRecord
  2
DOT
 70
0
  3
Dot . . . . . . . . . . . . . . . . . . . . . .
 72
65
 73
2
 40
6.3499999999999996
 49
0.0
 74
0
 49
-6.3499999999999996
 74
0
  0
ENDTAB
  0
TABLE
  2
LAYER
  5
2
100
AcDbSymbolTable
 70
5
  0
LAYER
  5
43
100
AcDbSymbolTableRecord
100
AcDbLayerTableRecord
  2
guides
 70
0
 62
1
420
16711680
  6
CONTINUOUS
370
0
390
F
  0
LAYER
  5
44
100
AcDbSymbolTableRecord
100
AcDbLayerTableRecord
  2
dimensions
 70
0
 62
4
420
65535
  6
CONTINUOUS
370
0
390
F
  0
LAYER
  5
45
100
AcDbSymbolTableRecord
100
AcDbLayerTableRecord
  2
parts
 70
0
 62
3
420
65280
  6
CONTINUOUS
370
0
390
F
  0
LAYER
  5
10
100
AcDbSymbolTableRecord
100
AcDbLayerTableRecord
  2
0
 70
0
 62
7
420
16777215
  6
CONTINUOUS
370
0
390
F
  0
LAYER
  5
46
100
AcDbSymbolTableRecord
100
AcDbLayerTableRecord
  2
labels
 70
0
 62
6
420
16711935
  6
CONTINUOUS
370
0
390
F
  0
ENDTAB
  0
TABLE
  2
STYLE
  5
3
100
AcDbSymbolTable
 70
1
  0
STYLE
  5
47
100
AcDbSymbolTableRecord
100
AcDbTextStyleTableRecord
  2
Standard
 70
0
 40
0.0
 41
1.0
 50
0.0
 71
0
 42
2.5
  3

  4

1001
ACAD
1000
txt
1071
0
  0
ENDTAB
  0
TABLE
  2
VIEW
  5
6
100
AcDbSymbolTable
 70
0
  0
ENDTAB
  0
TABLE
  2
UCS
  5
7
100
AcDbSymbolTable
 70
0
  0
ENDTAB
  0
TABLE
  2
APPID
  5
9
100
AcDbSymbolTable
 70
1
  0
APPID
  5
12
100
AcDbSymbolTableRecord
100
AcDbRegAppTableRecord
  2
ACAD
 70
0
  0
APPID
  5
48
100
AcDbSymbolTableRecord
100
AcDbRegAppTableRecord
  2
QCAD
 70
0
  0
ENDTAB
  0
TABLE
  2
DIMSTYLE
  5
A
100
AcDbSymbolTable
 70
1
100
AcDbDimStyleTable
 71
0
  0
DIMSTYLE
105
27
100
AcDbSymbolTableRecord
100
AcDbDimStyleTableRecord
  2
Standard
 41
2.5
 42
0.625
 43
3.75
 44
1.25
 70
0
 73
0
 74
0
 77
1
 78
8
140
2.5
141
2.5
143
0.03937007874016
147
0.625
171
3
172
1
271
2
272
2
274
3
278
44
283
0
284
8
340
47
  0
ENDTAB
  0
TABLE
  2
BLOCK_RECORD
  5
1
100
AcDbSymbolTable
 70
1
  0
BLOCK_RECORD
  5
1F
100
AcDbSymbolTableRecord
100
AcDbBlockTableRecord
  2
*Model_Space
340
22
  0
BLOCK_RECORD
  5
1B
100
AcDbSymbolTableRecord
100
AcDbBlockTableRecord
  2
*Paper_Space
340
1E
  0
BLOCK_RECORD
  5
23
100
AcDbSymbolTableRecord
100
AcDbBlockTableRecord
  2
*Paper_Space0
340
26
  0
ENDTAB
  0
ENDSEC
  0
SECTION
  2
BLOCKS
  0
BLOCK
  5
20
100
AcDbEntity
  8
0
100
AcDbBlockBegin
  2
*Model_Space
 70
0
 10
0.0
 20
0.0
 30
0.0
  3
*Model_Space
  1

  0
ENDBLK
  5
21
100
AcDbEntity
  8
0
100
AcDbBlockEnd
  0
BLOCK
  5
1C
100
AcDbEntity
 67
1
  8
0
100
AcDbBlockBegin
  2
*Paper_Space
 70
0
 10
0.0
 20
0.0
 30
0.0
  3
*Paper_Space
  1

  0
ENDBLK
  5
1D
100
AcDbEntity
 67
1
  8
0
100
AcDbBlockEnd
  0
BLOCK
  5
24
100
AcDbEntity
  8
0
100
AcDbBlockBegin
  2
*Paper_Space0
 70
0
 10
0.0
 20
0.0
 30
0.0
  3
*Paper_Space0
  1

  0
ENDBLK
  5
25
100
AcDbEntity
  8
0
100
AcDbBlockEnd
  0
ENDSEC
  0
SECTION
  2
ENTITIES
  0
LINE
  5
49
100
AcDbEntity
100
AcDbLine
  8
0
 62
256
370
-1
  6
BYLAYER
 10
33.0
 20
36.0
 30
0.0
 11
33.0
 21
39.0
 31
0.0
  0
LINE
  5
4A
100
AcDbEntity
100
AcDbLine
  8
0
 62
256
370
-1
  6
BYLAYER
 10
33.0
 20
39.0
 30
0.0
 11
27.0
 21
39.0
 31
0.0
  0
LINE
  5
4B
100
AcDbEntity
100
AcDbLine
  8
0
 62
256
370
-1
  6
BYLAYER
 10
27.0
 20
39.0
 30
0.0
 11
27.0
 21
36.0
 31
0.0
  0
LINE
  5
4C
100
AcDbEntity
100
AcDbLine
  8
0
 62
256
370
-1
  6
BYLAYER
 10
49.0
 20
39.0
 30
0.0
 11
55.0
 21
39.0
 31
0.0
  0
LINE
  5
4D
100
AcDbEntity
100
AcDbLine
  8
0
 62
256
370
-1
  6
BYLAYER
 10
55.0
 20
39.0
 30
0.0
 11
55.0
 21
36.0
 31
0.0
  0
LINE
  5
4E
100
AcDbEntity
100
AcDbLine
  8
0
 62
256
370
-1
  6
BYLAYER
 10
81.0
 20
39.0
 30
0.0
 11
76.0
 21
39.0
 31
0.0
  0
LINE
  5
4F
100
AcDbEntity
100
AcDbLine
  8
0
 62
256
370
-1
  6
BYLAYER
 10
76.0
 20
39.0
 30
0.0
 11
76.0
 21
36.0
 31
0.0
  0
LINE
  5
50
100
AcDbEntity
100
AcDbLine
  8
0
 62
256
370
-1
  6
BYLAYER
 10
69.0
 20
36.0
 30
0.0
 11
69.0
 21
39.0
 31
0.0
  0
LINE
  5
51
100
AcDbEntity
100
AcDbLine
  8
0
 62
256
370
-1
  6
BYLAYER
 10
69.0
 20
39.0
 30
0.0
 11
63.0
 21
39.0
 31
0.0
  0
LINE
  5
52
100
AcDbEntity
100
AcDbLine
  8
0
 62
256
370
-1
  6
BYLAYER
 10
63.0
 20
39.0
 30
0.0
 11
63.0
 21
36.0
 31
0.0
  0
LINE
  5
53
100
AcDbEntity
100
AcDbLine
  8
0
 62
256
370
-1
  6
BYLAYER
 10
49.0
 20
36.0
 30
0.0
 11
49.0
 21
39.0
 31
0.0
  0
LINE
  5
54
100
AcDbEntity
100
AcDbLine
  8
0
 62
256
370
-1
  6
BYLAYER
 10
1.0
 20
68.0
 30
0.0
 11
6.0
 21
68.0
 31
0.0
  0
LINE
  5
55
100
AcDbEntity
100
AcDbLine
  8
0
 62
256
370
-1
  6
BYLAYER
 10
6.0
 20
68.0
 30
0.0
 11
6.0
 21
65.0
 31
0.0
  0
LINE
  5
56
100
AcDbEntity
100
AcDbLine
  8
0
 62
256
370
-1
  6
BYLAYER
 10
76.0
 20
36.0
 30
0.0
 11
69.0
 21
36.0
 31
0.0
  0
LINE
  5
57
100
AcDbEntity
100
AcDbLine
  8
0
 62
256
370
-1
  6
BYLAYER
 10
63.0
 20
36.0
 30
0.0
 11
55.0
 21
36.0
 31
0.0
  0
LINE
  5
58
100
AcDbEntity
100
AcDbLine
  8
0
 62
256
370
-1
  6
BYLAYER
 10
27.0
 20
36.0
 30
0.0
 11
19.0
 21
36.0
 31
0.0
  0
LINE
  5
59
100
AcDbEntity
100
AcDbLine
  8
0
 62
256
370
-1
  6
BYLAYER
 10
13.0
 20
36.0
 30
0.0
 11
6.0
 21
36.0
 31
0.0
  0
LINE
  5
5A
100
AcDbEntity
100
AcDbLine
  8
0
 62
256
370
-1
  6
BYLAYER
 10
1.0
 20
39.0
 30
0.0
 11
1.0
 21
64.0
 31
0.0
  0
LINE
  5
5B
100
AcDbEntity
100
AcDbLine
  8
0
 62
256
370
-1
  6
BYLAYER
 10
76.0000000000000568
 20
65.0
 30
0.0
 11
71.0
 21
65.0
 31
0.0
  0
LINE
  5
5C
100
AcDbEntity
100
AcDbLine
  8
0
 62
256
370
-1
  6
BYLAYER
 10
27.0
 20
32.0
 30
0.0
 11
27.0
 21
35.0
 31
0.0
  0
LINE
  5
5D
100
AcDbEntity
100
AcDbLine
  8
0
 62
256
370
-1
  6
BYLAYER
 10
6.0
 20
32.0
 30
0.0
 11
6.0
 21
35.0
 31
0.0
  0
LINE
  5
5E
100
AcDbEntity
100
AcDbLine
  8
0
 62
256
370
-1
  6
BYLAYER
 10
13.0
 20
35.0000000000000284
 30
0.0
 11
13.0
 21
32.0000000000000284
 31
0.0
  0
LINE
  5
5F
100
AcDbEntity
100
AcDbLine
  8
0
 62
256
370
-1
  6
BYLAYER
 10
19.0
 20
32.0
 30
0.0
 11
19.0
 21
35.0
 31
0.0
  0
LINE
  5
60
100
AcDbEntity
100
AcDbLine
  8
0
 62
256
370
-1
  6
BYLAYER
 10
1.0
 20
7.0000000000000142
 30
0.0
 11
1.0
 21
35.0
 31
0.0
  0
LINE
  5
61
100
AcDbEntity
100
AcDbLine
  8
0
 62
256
370
-1
  6
BYLAYER
 10
33.0
 20
35.0
 30
0.0
 11
33.0
 21
32.0
 31
0.0
  0
LINE
  5
62
100
AcDbEntity
100
AcDbLine
  8
0
 62
256
370
-1
  6
BYLAYER
 10
81.0
 20
32.0
 30
0.0
 11
81.0
 21
10.0
 31
0.0
  0
LINE
  5
63
100
AcDbEntity
100
AcDbLine
  8
0
 62
256
370
-1
  6
BYLAYER
 10
76.0
 20
32.0
 30
0.0
 11
76.0
 21
35.0
 31
0.0
  0
LINE
  5
64
100
AcDbEntity
100
AcDbLine
  8
0
 62
256
370
-1
  6
BYLAYER
 10
69.0
 20
35.0
 30
0.0
 11
69.0
 21
32.0
 31
0.0
  0
LINE
  5
65
100
AcDbEntity
100
AcDbLine
  8
0
 62
256
370
-1
  6
BYLAYER
 10
63.0
 20
32.0
 30
0.0
 11
63.0
 21
35.0
 31
0.0
  0
LINE
  5
66
100
AcDbEntity
100
AcDbLine
  8
0
 62
256
370
-1
  6
BYLAYER
 10
81.0
 20
35.0
 30
0.0
 11
81.0
 21
32.0
 31
0.0
  0
LINE
  5
67
100
AcDbEntity
100
AcDbLine
  8
0
 62
256
370
-1
  6
BYLAYER
 10
1.0
 20
35.0
 30
0.0
 11
6.0
 21
35.0
 31
0.0
  0
LINE
  5
68
100
AcDbEntity
100
AcDbLine
  8
0
 62
256
370
-1
  6
BYLAYER
 10
13.0
 20
35.0000000000000284
 30
0.0
 11
19.0
 21
35.0
 31
0.0
  0
LINE
  5
69
100
AcDbEntity
100
AcDbLine
  8
0
 62
256
370
-1
  6
BYLAYER
 10
13.0
 20
32.0000000000000284
 30
0.0
 11
6.0
 21
32.0
 31
0.0
  0
LINE
  5
6A
100
AcDbEntity
100
AcDbLine
  8
0
 62
256
370
-1
  6
BYLAYER
 10
27.0
 20
32.0
 30
0.0
 11
19.0
 21
32.0
 31
0.0
  0
LINE
  5
6B
100
AcDbEntity
100
AcDbLine
  8
0
 62
256
370
-1
  6
BYLAYER
 10
27.0
 20
35.0
 30
0.0
 11
33.0
 21
35.0
 31
0.0
  0
LINE
  5
6C
100
AcDbEntity
100
AcDbLine
  8
0
 62
256
370
-1
  6
BYLAYER
 10
63.0
 20
35.0
 30
0.0
 11
69.0
 21
35.0
 31
0.0
  0
LINE
  5
6D
100
AcDbEntity
100
AcDbLine
  8
0
 62
256
370
-1
  6
BYLAYER
 10
76.0
 20
35.0
 30
0.0
 11
81.0
 21
35.0
 31
0.0
  0
LINE
  5
6E
100
AcDbEntity
100
AcDbLine
  8
0
 62
256
370
-1
  6
BYLAYER
 10
76.0
 20
32.0
 30
0.0
 11
69.0
 21
32.0
 31
0.0
  0
LINE
  5
6F
100
AcDbEntity
100
AcDbLine
  8
0
 62
256
370
-1
  6
BYLAYER
 10
31.0
 20
10.0
 30
0.0
 11
31.0
 21
7.0
 31
0.0
  0
LINE
  5
70
100
AcDbEntity
100
AcDbLine
  8
0
 62
256
370
-1
  6
BYLAYER
 10
31.0
 20
7.0
 30
0.0
 11
31.0
 21
7.0
 31
0.0
  0
LINE
  5
71
100
AcDbEntity
100
AcDbLine
  8
0
 62
256
370
-1
  6
BYLAYER
 10
31.0
 20
7.0
 30
0.0
 11
36.0
 21
7.0
 31
0.0
  0
LINE
  5
72
100
AcDbEntity
100
AcDbLine
  8
0
 62
256
370
-1
  6
BYLAYER
 10
36.0
 20
7.0
 30
0.0
 11
36.0
 21
6.0
 31
0.0
  0
CIRCLE
  5
73
100
AcDbEntity
100
AcDbCircle
  8
0
 62
256
370
-1
  6
BYLAYER
 10
41.0
 20
6.0
 30
0.0
 40
1.5
  0
LINE
  5
74
100
AcDbEntity
100
AcDbLine
  8
0
 62
256
370
-1
  6
BYLAYER
 10
51.0
 20
10.0
 30
0.0
 11
51.0
 21
7.0
 31
0.0
  0
LINE
  5
75
100
AcDbEntity
100
AcDbLine
  8
0
 62
256
370
-1
  6
BYLAYER
 10
51.0
 20
7.0
 30
0.0
 11
46.0
 21
7.0
 31
0.0
  0
LINE
  5
76
100
AcDbEntity
100
AcDbLine
  8
0
 62
256
370
-1
  6
BYLAYER
 10
46.0
 20
7.0
 30
0.0
 11
46.0
 21
6.0
 31
0.0
  0
ARC
  5
77
100
AcDbEntity
  8
0
 62
256
370
-1
  6
BYLAYER
100
AcDbCircle
 10
41.0
 20
6.0
 30
0.0
 40
5.0
100
AcDbArc
 50
180.0
 51
0.0
  0
LINE
  5
78
100
AcDbEntity
100
AcDbLine
  8
0
 62
256
370
-1
  6
BYLAYER
 10
81.0
 20
78.0
 30
0.0
 11
81.0
 21
75.0
 31
0.0
  0
LINE
  5
79
100
AcDbEntity
100
AcDbLine
  8
0
 62
256
370
-1
  6
BYLAYER
 10
1.0
 20
7.0000000000000142
 30
0.0
 11
6.0
 21
7.0000000000000142
 31
0.0
  0
LINE
  5
7A
100
AcDbEntity
100
AcDbLine
  8
0
 62
256
370
-1
  6
BYLAYER
 10
6.0
 20
7.0000000000000142
 30
0.0
 11
6.0
 21
10.0000000000000284
 31
0.0
  0
LINE
  5
7B
100
AcDbEntity
100
AcDbLine
  8
0
 62
256
370
-1
  6
BYLAYER
 10
81.0
 20
10.0
 30
0.0
 11
81.0
 21
7.0
 31
0.0
  0
LINE
  5
7C
100
AcDbEntity
100
AcDbLine
  8
0
 62
256
370
-1
  6
BYLAYER
 10
81.0
 20
7.0
 30
0.0
 11
76.0
 21
7.0
 31
0.0
  0
LINE
  5
7D
100
AcDbEntity
100
AcDbLine
  8
0
 62
256
370
-1
  6
BYLAYER
 10
76.0
 20
7.0
 30
0.0
 11
76.0
 21
10.0
 31
0.0
  0
LINE
  5
7E
100
AcDbEntity
100
AcDbLine
  8
0
 62
256
370
-1
  6
BYLAYER
 10
61.0
 20
10.0
 30
0.0
 11
61.0
 21
15.0
 31
0.0
  0
LINE
  5
7F
100
AcDbEntity
100
AcDbLine
  8
0
 62
256
370
-1
  6
BYLAYER
 10
71.0
 20
15.0
 30
0.0
 11
71.0
 21
10.0
 31
0.0
  0
LINE
  5
80
100
AcDbEntity
100
AcDbLine
  8
0
 62
256
370
-1
  6
BYLAYER
 10
76.0
 20
10.0
 30
0.0
 11
71.0
 21
10.0
 31
0.0
  0
LINE
  5
81
100
AcDbEntity
100
AcDbLine
  8
0
 62
256
370
-1
  6
BYLAYER
 10
61.0
 20
10.0
 30
0.0
 11
51.0
 21
10.0
 31
0.0
  0
LINE
  5
82
100
AcDbEntity
100
AcDbLine
  8
0
 62
256
370
-1
  6
BYLAYER
 10
21.0
 20
10.0
 30
0.0
 11
21.0
 21
15.0
 31
0.0
  0
LINE
  5
83
100
AcDbEntity
100
AcDbLine
  8
0
 62
256
370
-1
  6
BYLAYER
 10
11.0
 20
15.0
 30
0.0
 11
11.0
 21
10.0000000000000284
 31
0.0
  0
LINE
  5
84
100
AcDbEntity
100
AcDbLine
  8
0
 62
256
370
-1
  6
BYLAYER
 10
6.0
 20
10.0000000000000284
 30
0.0
 11
11.0
 21
10.0000000000000284
 31
0.0
  0
LINE
  5
85
100
AcDbEntity
100
AcDbLine
  8
0
 62
256
370
-1
  6
BYLAYER
 10
21.0
 20
10.0
 30
0.0
 11
31.0
 21
10.0
 31
0.0
  0
LINE
  5
86
100
AcDbEntity
100
AcDbLine
  8
0
 62
256
370
-1
  6
BYLAYER
 10
33.0
 20
36.0
 30
0.0
 11
49.0
 21
36.0
 31
0.0
  0
LINE
  5
87
100
AcDbEntity
100
AcDbLine
  8
0
 62
256
370
-1
  6
BYLAYER
 10
38.0
 20
73.0
 30
0.0
 11
38.0
 21
77.0
 31
0.0
  0
LINE
  5
88
100
AcDbEntity
100
AcDbLine
  8
0
 62
256
370
-1
  6
BYLAYER
 10
38.0
 20
77.0
 30
0.0
 11
44.0
 21
77.0
 31
0.0
  0
LINE
  5
89
100
AcDbEntity
100
AcDbLine
  8
0
 62
256
370
-1
  6
BYLAYER
 10
44.0
 20
77.0
 30
0.0
 11
44.0
 21
73.0
 31
0.0
  0
LINE
  5
8A
100
AcDbEntity
100
AcDbLine
  8
0
 62
256
370
-1
  6
BYLAYER
 10
46.0
 20
73.0
 30
0.0
 11
44.0
 21
73.0
 31
0.0
  0
LINE
  5
8B
100
AcDbEntity
100
AcDbLine
  8
0
 62
256
370
-1
  6
BYLAYER
 10
38.0
 20
73.0
 30
0.0
 11
36.0
 21
73.0
 31
0.0
  0
LINE
  5
8C
100
AcDbEntity
100
AcDbLine
  8
0
 62
256
370
-1
  6
BYLAYER
 10
63.0
 20
15.0
 30
0.0
 11
63.0
 21
19.0
 31
0.0
  0
LINE
  5
8D
100
AcDbEntity
100
AcDbLine
  8
0
 62
256
370
-1
  6
BYLAYER
 10
63.0
 20
19.0
 30
0.0
 11
69.0
 21
19.0
 31
0.0
  0
LINE
  5
8E
100
AcDbEntity
100
AcDbLine
  8
0
 62
256
370
-1
  6
BYLAYER
 10
69.0
 20
19.0
 30
0.0
 11
69.0
 21
15.0
 31
0.0
  0
LINE
  5
8F
100
AcDbEntity
100
AcDbLine
  8
0
 62
256
370
-1
  6
BYLAYER
 10
61.0
 20
15.0
 30
0.0
 11
63.0
 21
15.0
 31
0.0
  0
LINE
  5
90
100
AcDbEntity
100
AcDbLine
  8
0
 62
256
370
-1
  6
BYLAYER
 10
69.0
 20
15.0
 30
0.0
 11
71.0
 21
15.0
 31
0.0
  0
LINE
  5
91
100
AcDbEntity
100
AcDbLine
  8
0
 62
256
370
-1
  6
BYLAYER
 10
13.0
 20
15.0
 30
0.0
 11
13.0
 21
19.0000000000000284
 31
0.0
  0
LINE
  5
92
100
AcDbEntity
100
AcDbLine
  8
0
 62
256
370
-1
  6
BYLAYER
 10
13.0
 20
19.0000000000000284
 30
0.0
 11
19.0
 21
19.0
 31
0.0
  0
LINE
  5
93
100
AcDbEntity
100
AcDbLine
  8
0
 62
256
370
-1
  6
BYLAYER
 10
19.0
 20
19.0
 30
0.0
 11
19.0
 21
15.0
 31
0.0
  0
LINE
  5
94
100
AcDbEntity
100
AcDbLine
  8
0
 62
256
370
-1
  6
BYLAYER
 10
21.0
 20
15.0
 30
0.0
 11
19.0
 21
15.0
 31
0.0
  0
LINE
  5
95
100
AcDbEntity
100
AcDbLine
  8
0
 62
256
370
-1
  6
BYLAYER
 10
13.0
 20
15.0
 30
0.0
 11
11.0
 21
15.0
 31
0.0
  0
LINE
  5
96
100
AcDbEntity
100
AcDbLine
  8
0
 62
256
370
-1
  6
BYLAYER
 10
27.0
 20
90.0
 30
0.0
 11
27.0
 21
93.0
 31
0.0
  0
LINE
  5
97
100
AcDbEntity
100
AcDbLine
  8
0
 62
256
370
-1
  6
BYLAYER
 10
6.0
 20
90.0
 30
0.0
 11
6.0
 21
93.0
 31
0.0
  0
LINE
  5
98
100
AcDbEntity
100
AcDbLine
  8
0
 62
256
370
-1
  6
BYLAYER
 10
13.0
 20
93.0
 30
0.0
 11
13.0
 21
90.0
 31
0.0
  0
LINE
  5
99
100
AcDbEntity
100
AcDbLine
  8
0
 62
256
370
-1
  6
BYLAYER
 10
19.0
 20
90.0
 30
0.0
 11
19.0
 21
93.0
 31
0.0
  0
LINE
  5
9A
100
AcDbEntity
100
AcDbLine
  8
0
 62
256
370
-1
  6
BYLAYER
 10
1.0
 20
71.0
 30
0.0
 11
1.0
 21
93.0
 31
0.0
  0
LINE
  5
9B
100
AcDbEntity
100
AcDbLine
  8
0
 62
256
370
-1
  6
BYLAYER
 10
33.0
 20
93.0
 30
0.0
 11
33.0
 21
90.0
 31
0.0
  0
LINE
  5
9C
100
AcDbEntity
100
AcDbLine
  8
0
 62
256
370
-1
  6
BYLAYER
 10
81.0
 20
93.0
 30
0.0
 11
81.0
 21
71.0
 31
0.0
  0
LINE
  5
9D
100
AcDbEntity
100
AcDbLine
  8
0
 62
256
370
-1
  6
BYLAYER
 10
33.0
 20
90.0
 30
0.0
 11
63.0
 21
90.0
 31
0.0
  0
LINE
  5
9E
100
AcDbEntity
100
AcDbLine
  8
0
 62
256
370
-1
  6
BYLAYER
 10
76.0
 20
90.0
 30
0.0
 11
75.9999999999999432
 21
93.0
 31
0.0
  0
LINE
  5
9F
100
AcDbEntity
100
AcDbLine
  8
0
 62
256
370
-1
  6
BYLAYER
 10
69.0
 20
93.0
 30
0.0
 11
69.0
 21
90.0
 31
0.0
  0
LINE
  5
A0
100
AcDbEntity
100
AcDbLine
  8
0
 62
256
370
-1
  6
BYLAYER
 10
63.0
 20
90.0
 30
0.0
 11
63.0
 21
93.0
 31
0.0
  0
LINE
  5
A1
100
AcDbEntity
100
AcDbLine
  8
0
 62
256
370
-1
  6
BYLAYER
 10
1.0
 20
71.0
 30
0.0
 11
1.0
 21
68.0
 31
0.0
  0
LINE
  5
A2
100
AcDbEntity
100
AcDbLine
  8
0
 62
256
370
-1
  6
BYLAYER
 10
1.0
 20
93.0
 30
0.0
 11
6.0
 21
93.0
 31
0.0
  0
LINE
  5
A3
100
AcDbEntity
100
AcDbLine
  8
0
 62
256
370
-1
  6
BYLAYER
 10
81.0
 20
64.0
 30
0.0
 11
76.0
 21
64.0
 31
0.0
  0
LINE
  5
A4
100
AcDbEntity
100
AcDbLine
  8
0
 62
256
370
-1
  6
BYLAYER
 10
13.0
 20
93.0
 30
0.0
 11
19.0
 21
93.0
 31
0.0
  0
LINE
  5
A5
100
AcDbEntity
100
AcDbLine
  8
0
 62
256
370
-1
  6
BYLAYER
 10
76.0
 20
64.0
 30
0.0
 11
76.0000000000000568
 21
61.0
 31
0.0
  0
LINE
  5
A6
100
AcDbEntity
100
AcDbLine
  8
0
 62
256
370
-1
  6
BYLAYER
 10
13.0
 20
90.0
 30
0.0
 11
6.0
 21
90.0
 31
0.0
  0
LINE
  5
A7
100
AcDbEntity
100
AcDbLine
  8
0
 62
256
370
-1
  6
BYLAYER
 10
81.0
 20
71.0
 30
0.0
 11
81.0
 21
68.0
 31
0.0
  0
LINE
  5
A8
100
AcDbEntity
100
AcDbLine
  8
0
 62
256
370
-1
  6
BYLAYER
 10
27.0
 20
90.0
 30
0.0
 11
19.0
 21
90.0
 31
0.0
  0
LINE
  5
A9
100
AcDbEntity
100
AcDbLine
  8
0
 62
256
370
-1
  6
BYLAYER
 10
1.0
 20
64.0
 30
0.0
 11
6.0
 21
64.0
 31
0.0
  0
LINE
  5
AA
100
AcDbEntity
100
AcDbLine
  8
0
 62
256
370
-1
  6
BYLAYER
 10
27.0
 20
93.0
 30
0.0
 11
33.0
 21
93.0
 31
0.0
  0
LINE
  5
AB
100
AcDbEntity
100
AcDbLine
  8
0
 62
256
370
-1
  6
BYLAYER
 10
6.0
 20
64.0
 30
0.0
 11
6.0
 21
61.0
 31
0.0
  0
LINE
  5
AC
100
AcDbEntity
100
AcDbLine
  8
0
 62
256
370
-1
  6
BYLAYER
 10
19.0
 20
56.0
 30
0.0
 11
19.0
 21
52.0
 31
0.0
  0
LINE
  5
AD
100
AcDbEntity
100
AcDbLine
  8
0
 62
256
370
-1
  6
BYLAYER
 10
19.0
 20
52.0
 30
0.0
 11
13.0
 21
52.0
 31
0.0
  0
LINE
  5
AE
100
AcDbEntity
100
AcDbLine
  8
0
 62
256
370
-1
  6
BYLAYER
 10
63.0
 20
93.0
 30
0.0
 11
69.0
 21
93.0
 31
0.0
  0
LINE
  5
AF
100
AcDbEntity
100
AcDbLine
  8
0
 62
256
370
-1
  6
BYLAYER
 10
21.0
 20
61.0
 30
0.0
 11
21.0
 21
56.0
 31
0.0
  0
LINE
  5
B0
100
AcDbEntity
100
AcDbLine
  8
0
 62
256
370
-1
  6
BYLAYER
 10
13.0
 20
52.0
 30
0.0
 11
13.0
 21
56.0
 31
0.0
  0
LINE
  5
B1
100
AcDbEntity
100
AcDbLine
  8
0
 62
256
370
-1
  6
BYLAYER
 10
51.0
 20
61.0
 30
0.0
 11
51.0
 21
64.0
 31
0.0
  0
LINE
  5
B2
100
AcDbEntity
100
AcDbLine
  8
0
 62
256
370
-1
  6
BYLAYER
 10
75.9999999999999432
 20
93.0
 30
0.0
 11
81.0
 21
93.0
 31
0.0
  0
LINE
  5
B3
100
AcDbEntity
100
AcDbLine
  8
0
 62
256
370
-1
  6
BYLAYER
 10
21.0
 20
56.0
 30
0.0
 11
19.0
 21
56.0
 31
0.0
  0
LINE
  5
B4
100
AcDbEntity
100
AcDbLine
  8
0
 62
256
370
-1
  6
BYLAYER
 10
51.0
 20
64.0
 30
0.0
 11
51.0
 21
64.0
 31
0.0
  0
LINE
  5
B5
100
AcDbEntity
100
AcDbLine
  8
0
 62
256
370
-1
  6
BYLAYER
 10
11.0
 20
56.0
 30
0.0
 11
11.0
 21
61.0
 31
0.0
  0
LINE
  5
B6
100
AcDbEntity
100
AcDbLine
  8
0
 62
256
370
-1
  6
BYLAYER
 10
51.0
 20
64.0
 30
0.0
 11
46.0
 21
64.0
 31
0.0
  0
LINE
  5
B7
100
AcDbEntity
100
AcDbLine
  8
0
 62
256
370
-1
  6
BYLAYER
 10
6.0
 20
61.0
 30
0.0
 11
11.0
 21
61.0
 31
0.0
  0
LINE
  5
B8
100
AcDbEntity
100
AcDbLine
  8
0
 62
256
370
-1
  6
BYLAYER
 10
13.0
 20
56.0
 30
0.0
 11
11.0
 21
56.0
 31
0.0
  0
LINE
  5
B9
100
AcDbEntity
100
AcDbLine
  8
0
 62
256
370
-1
  6
BYLAYER
 10
46.0
 20
64.0
 30
0.0
 11
46.0
 21
65.0
 31
0.0
  0
LINE
  5
BA
100
AcDbEntity
100
AcDbLine
  8
0
 62
256
370
-1
  6
BYLAYER
 10
76.0
 20
90.0
 30
0.0
 11
69.0
 21
90.0
 31
0.0
  0
LINE
  5
BB
100
AcDbEntity
100
AcDbLine
  8
0
 62
256
370
-1
  6
BYLAYER
 10
21.0
 20
61.0
 30
0.0
 11
31.0
 21
61.0000000000000284
 31
0.0
  0
LINE
  5
BC
100
AcDbEntity
100
AcDbLine
  8
0
 62
256
370
-1
  6
BYLAYER
 10
69.0
 20
56.0
 30
0.0
 11
69.0
 21
52.0
 31
0.0
  0
LINE
  5
BD
100
AcDbEntity
100
AcDbLine
  8
0
 62
256
370
-1
  6
BYLAYER
 10
61.0
 20
61.0
 30
0.0
 11
61.0
 21
56.0
 31
0.0
  0
LINE
  5
BE
100
AcDbEntity
100
AcDbLine
  8
0
 62
256
370
-1
  6
BYLAYER
 10
69.0
 20
52.0
 30
0.0
 11
63.0
 21
52.0
 31
0.0
  0
LINE
  5
BF
100
AcDbEntity
100
AcDbLine
  8
0
 62
256
370
-1
  6
BYLAYER
 10
31.0
 20
61.0000000000000284
 30
0.0
 11
31.0
 21
64.0
 31
0.0
  0
LINE
  5
C0
100
AcDbEntity
100
AcDbLine
  8
0
 62
256
370
-1
  6
BYLAYER
 10
63.0
 20
52.0
 30
0.0
 11
63.0
 21
56.0
 31
0.0
  0
LINE
  5
C1
100
AcDbEntity
100
AcDbLine
  8
0
 62
256
370
-1
  6
BYLAYER
 10
31.0
 20
64.0
 30
0.0
 11
36.0
 21
64.0
 31
0.0
  0
LINE
  5
C2
100
AcDbEntity
100
AcDbLine
  8
0
 62
256
370
-1
  6
BYLAYER
 10
71.0
 20
56.0
 30
0.0
 11
71.0
 21
61.0
 31
0.0
  0
LINE
  5
C3
100
AcDbEntity
100
AcDbLine
  8
0
 62
256
370
-1
  6
BYLAYER
 10
61.0
 20
56.0
 30
0.0
 11
63.0
 21
56.0
 31
0.0
  0
LINE
  5
C4
100
AcDbEntity
100
AcDbLine
  8
0
 62
256
370
-1
  6
BYLAYER
 10
36.0
 20
64.0
 30
0.0
 11
36.0
 21
65.0
 31
0.0
  0
LINE
  5
C5
100
AcDbEntity
100
AcDbLine
  8
0
 62
256
370
-1
  6
BYLAYER
 10
76.0000000000000568
 20
61.0
 30
0.0
 11
71.0
 21
61.0
 31
0.0
  0
LINE
  5
C6
100
AcDbEntity
100
AcDbLine
  8
0
 62
256
370
-1
  6
BYLAYER
 10
69.0
 20
56.0
 30
0.0
 11
71.0
 21
56.0
 31
0.0
  0
ARC
  5
C7
100
AcDbEntity
  8
0
 62
256
370
-1
  6
BYLAYER
100
AcDbCircle
 10
41.0
 20
65.0
 30
0.0
 40
5.0
100
AcDbArc
 50
0.0
 51
180.0
  0
LINE
  5
C8
100
AcDbEntity
100
AcDbLine
  8
0
 62
256
370
-1
  6
BYLAYER
 10
61.0
 20
61.0
 30
0.0
 11
51.0
 21
61.0
 31
0.0
  0
LINE
  5
C9
100
AcDbEntity
100
AcDbLine
  8
0
 62
256
370
-1
  6
BYLAYER
 10
49.0
 20
32.0
 30
0.0
 11
49.0
 21
35.0
 31
0.0
  0
LINE
  5
CA
100
AcDbEntity
100
AcDbLine
  8
0
 62
256
370
-1
  6
BYLAYER
 10
49.0
 20
35.0
 30
0.0
 11
55.0
 21
35.0
 31
0.0
  0
LINE
  5
CB
100
AcDbEntity
100
AcDbLine
  8
0
 62
256
370
-1
  6
BYLAYER
 10
55.0
 20
35.0
 30
0.0
 11
55.0
 21
32.0
 31
0.0
  0
LINE
  5
CC
100
AcDbEntity
100
AcDbLine
  8
0
 62
256
370
-1
  6
BYLAYER
 10
33.0
 20
32.0
 30
0.0
 11
49.0
 21
32.0
 31
0.0
  0
LINE
  5
CD
100
AcDbEntity
100
AcDbLine
  8
0
 62
256
370
-1
  6
BYLAYER
 10
55.0
 20
32.0
 30
0.0
 11
63.0
 21
32.0
 31
0.0
  0
LINE
  5
CE
100
AcDbEntity
100
AcDbLine
  8
0
 62
256
370
-1
  6
BYLAYER
 10
67.5
 20
63.5
 30
0.0
 11
67.5
 21
64.5
 31
0.0
  0
LINE
  5
CF
100
AcDbEntity
100
AcDbLine
  8
0
 62
256
370
-1
  6
BYLAYER
 10
64.5
 20
63.5
 30
0.0
 11
64.5
 21
64.5
 31
0.0
  0
ARC
  5
D0
100
AcDbEntity
  8
0
 62
256
370
-1
  6
BYLAYER
100
AcDbCircle
 10
66.0
 20
63.5
 30
0.0
 40
1.5
100
AcDbArc
 50
180.0
 51
0.0
  0
ARC
  5
D1
100
AcDbEntity
  8
0
 62
256
370
-1
  6
BYLAYER
100
AcDbCircle
 10
66.0
 20
64.5
 30
0.0
 40
1.5
100
AcDbArc
 50
0.0
 51
180.0
  0
ARC
  5
D2
100
AcDbEntity
  8
0
 62
256
370
-1
  6
BYLAYER
100
AcDbCircle
 10
16.0
 20
63.5
 30
0.0
 40
1.5
100
AcDbArc
 50
180.0
 51
0.0
  0
ARC
  5
D3
100
AcDbEntity
  8
0
 62
256
370
-1
  6
BYLAYER
100
AcDbCircle
 10
16.0
 20
64.5
 30
0.0
 40
1.5
100
AcDbArc
 50
0.0
 51
180.0
  0
LINE
  5
D4
100
AcDbEntity
100
AcDbLine
  8
0
 62
256
370
-1
  6
BYLAYER
 10
17.5
 20
63.5
 30
0.0
 11
17.5
 21
64.5
 31
0.0
  0
LINE
  5
D5
100
AcDbEntity
100
AcDbLine
  8
0
 62
256
370
-1
  6
BYLAYER
 10
14.5
 20
63.5
 30
0.0
 11
14.5
 21
64.5
 31
0.0
  0
ARC
  5
D6
100
AcDbEntity
  8
0
 62
256
370
-1
  6
BYLAYER
100
AcDbCircle
 10
41.0
 20
65.5
 30
0.0
 40
1.5
100
AcDbArc
 50
0.0
 51
180.0
  0
ARC
  5
D7
100
AcDbEntity
  8
0
 62
256
370
-1
  6
BYLAYER
100
AcDbCircle
 10
41.0
 20
64.5
 30
0.0
 40
1.5
100
AcDbArc
 50
180.0
 51
0.0
  0
LINE
  5
D8
100
AcDbEntity
100
AcDbLine
  8
0
 62
256
370
-1
  6
BYLAYER
 10
39.5
 20
65.5
 30
0.0
 11
39.5
 21
64.5
 31
0.0
  0
LINE
  5
D9
100
AcDbEntity
100
AcDbLine
  8
0
 62
256
370
-1
  6
BYLAYER
 10
42.5
 20
65.5
 30
0.0
 11
42.5
 21
64.5
 31
0.0
  0
LINE
  5
DA
100
AcDbEntity
100
AcDbLine
  8
0
 62
256
370
-1
  6
BYLAYER
 10
81.0
 20
64.0
 30
0.0
 11
81.0
 21
39.0
 31
0.0
  0
LINE
  5
DB
100
AcDbEntity
100
AcDbLine
  8
0
 62
256
370
-1
  6
BYLAYER
 10
21.0
 20
64.0000000000000284
 30
0.0
 11
21.0
 21
65.0
 31
0.0
  0
LINE
  5
DC
100
AcDbEntity
100
AcDbLine
  8
0
 62
256
370
-1
  6
BYLAYER
 10
11.0
 20
64.0000000000000284
 30
0.0
 11
11.0
 21
65.0
 31
0.0
  0
ARC
  5
DD
100
AcDbEntity
  8
0
 62
256
370
-1
  6
BYLAYER
100
AcDbCircle
 10
16.0
 20
64.0
 30
0.0
 40
5.0
100
AcDbArc
 50
180.0
 51
0.0
  0
LINE
  5
DE
100
AcDbEntity
100
AcDbLine
  8
0
 62
256
370
-1
  6
BYLAYER
 10
11.0
 20
65.0
 30
0.0
 11
6.0
 21
65.0
 31
0.0
  0
LINE
  5
DF
100
AcDbEntity
100
AcDbLine
  8
0
 62
256
370
-1
  6
BYLAYER
 10
61.0
 20
64.0
 30
0.0
 11
61.0
 21
65.0
 31
0.0
  0
LINE
  5
E0
100
AcDbEntity
100
AcDbLine
  8
0
 62
256
370
-1
  6
BYLAYER
 10
71.0
 20
64.0
 30
0.0
 11
71.0
 21
65.0
 31
0.0
  0
ARC
  5
E1
100
AcDbEntity
  8
0
 62
256
370
-1
  6
BYLAYER
100
AcDbCircle
 10
66.0
 20
64.0
 30
0.0
 40
5.0
100
AcDbArc
 50
180.0
 51
0.0
  0
LINE
  5
E2
100
AcDbEntity
100
AcDbLine
  8
0
 62
256
370
-1
  6
BYLAYER
 10
46.0
 20
68.0
 30
0.0
 11
51.0
 21
68.0
 31
0.0
  0
LINE
  5
E3
100
AcDbEntity
100
AcDbLine
  8
0
 62
256
370
-1
  6
BYLAYER
 10
51.0
 20
68.0
 30
0.0
 11
51.0
 21
65.0
 31
0.0
  0
LINE
  5
E4
100
AcDbEntity
100
AcDbLine
  8
0
 62
256
370
-1
  6
BYLAYER
 10
36.0
 20
68.0
 30
0.0
 11
31.0
 21
68.0
 31
0.0
  0
LINE
  5
E5
100
AcDbEntity
100
AcDbLine
  8
0
 62
256
370
-1
  6
BYLAYER
 10
31.0
 20
68.0
 30
0.0
 11
31.0
 21
65.0
 31
0.0
  0
LINE
  5
E6
100
AcDbEntity
100
AcDbLine
  8
0
 62
256
370
-1
  6
BYLAYER
 10
31.0
 20
65.0
 30
0.0
 11
21.0
 21
65.0
 31
0.0
  0
LINE
  5
E7
100
AcDbEntity
100
AcDbLine
  8
0
 62
256
370
-1
  6
BYLAYER
 10
36.0
 20
73.0
 30
0.0
 11
36.0
 21
68.0
 31
0.0
  0
LINE
  5
E8
100
AcDbEntity
100
AcDbLine
  8
0
 62
256
370
-1
  6
BYLAYER
 10
46.0
 20
68.0
 30
0.0
 11
46.0
 21
73.0
 31
0.0
  0
LINE
  5
E9
100
AcDbEntity
100
AcDbLine
  8
0
 62
256
370
-1
  6
BYLAYER
 10
61.0
 20
65.0
 30
0.0
 11
51.0
 21
65.0
 31
0.0
  0
LINE
  5
EA
100
AcDbEntity
100
AcDbLine
  8
0
 62
256
370
-1
  6
BYLAYER
 10
81.0
 20
68.0
 30
0.0
 11
76.0
 21
68.0
 31
0.0
  0
LINE
  5
EB
100
AcDbEntity
100
AcDbLine
  8
0
 62
256
370
-1
  6
BYLAYER
 10
76.0
 20
68.0
 30
0.0
 11
76.0000000000000568
 21
65.0
 31
0.0
  0
LINE
  5
EC
100
AcDbEntity
100
AcDbLine
  8
0
 62
256
370
-1
  6
BYLAYER
 10
1.0
 20
39.0
 30
0.0
 11
6.0
 21
39.0
 31
0.0
  0
LINE
  5
ED
100
AcDbEntity
100
AcDbLine
  8
0
 62
256
370
-1
  6
BYLAYER
 10
6.0
 20
39.0
 30
0.0
 11
6.0
 21
36.0
 31
0.0
  0
LINE
  5
EE
100
AcDbEntity
100
AcDbLine
  8
0
 62
256
370
-1
  6
BYLAYER
 10
13.0
 20
36.0
 30
0.0
 11
13.0
 21
39.0
 31
0.0
  0
LINE
  5
EF
100
AcDbEntity
100
AcDbLine
  8
0
 62
256
370
-1
  6
BYLAYER
 10
13.0
 20
39.0
 30
0.0
 11
19.0
 21
39.0000000000000284
 31
0.0
  0
LINE
  5
F0
100
AcDbEntity
100
AcDbLine
  8
0
 62
256
370
-1
  6
BYLAYER
 10
19.0
 20
39.0000000000000284
 30
0.0
 11
19.0
 21
36.0
 31
0.0
  0
LINE
  5
F1
100
AcDbEntity
100
AcDbLine
  8
0
 62
256
370
-1
  6
BYLAYER
 10
134.5
 20
30.0
 30
0.0
 11
137.5
 21
30.0000000000000142
 31
0.0
  0
LINE
  5
F2
100
AcDbEntity
100
AcDbLine
  8
0
 62
256
370
-1
  6
BYLAYER
 10
137.5
 20
24.0
 30
0.0
 11
134.5
 21
24.0
 31
0.0
  0
LINE
  5
F3
100
AcDbEntity
100
AcDbLine
  8
guides
 62
256
370
-1
  6
BYLAYER
 10
134.5
 20
47.0
 30
0.0
 11
134.5
 21
7.0
 31
0.0
  0
LINE
  5
F4
100
AcDbEntity
100
AcDbLine
  8
0
 62
256
370
-1
  6
BYLAYER
 10
133.0
 20
12.0
 30
0.0
 11
139.0
 21
12.0
 31
0.0
  0
LINE
  5
F5
100
AcDbEntity
100
AcDbLine
  8
0
 62
256
370
-1
  6
BYLAYER
 10
139.0
 20
12.0
 30
0.0
 11
139.0
 21
18.0
 31
0.0
  0
LINE
  5
F6
100
AcDbEntity
100
AcDbLine
  8
0
 62
256
370
-1
  6
BYLAYER
 10
139.0
 20
18.0
 30
0.0
 11
133.0
 21
18.0
 31
0.0
  0
LINE
  5
F7
100
AcDbEntity
100
AcDbLine
  8
0
 62
256
370
-1
  6
BYLAYER
 10
133.0
 20
18.0
 30
0.0
 11
133.0
 21
12.0
 31
0.0
  0
LINE
  5
F8
100
AcDbEntity
100
AcDbLine
  8
0
 62
256
370
-1
  6
BYLAYER
 10
133.0
 20
24.0
 30
0.0
 11
139.0
 21
24.0
 31
0.0
  0
LINE
  5
F9
100
AcDbEntity
100
AcDbLine
  8
0
 62
256
370
-1
  6
BYLAYER
 10
139.0
 20
24.0
 30
0.0
 11
139.0
 21
30.0
 31
0.0
  0
LINE
  5
FA
100
AcDbEntity
100
AcDbLine
  8
0
 62
256
370
-1
  6
BYLAYER
 10
139.0
 20
30.0
 30
0.0
 11
133.0
 21
30.0
 31
0.0
  0
LINE
  5
FB
100
AcDbEntity
100
AcDbLine
  8
0
 62
256
370
-1
  6
BYLAYER
 10
133.0
 20
30.0
 30
0.0
 11
133.0
 21
24.0
 31
0.0
  0
LINE
  5
FC
100
AcDbEntity
100
AcDbLine
  8
0
 62
256
370
-1
  6
BYLAYER
 10
133.0
 20
36.0
 30
0.0
 11
139.0
 21
36.0
 31
0.0
  0
LINE
  5
FD
100
AcDbEntity
100
AcDbLine
  8
0
 62
256
370
-1
  6
BYLAYER
 10
139.0
 20
36.0
 30
0.0
 11
139.0
 21
42.0
 31
0.0
  0
LINE
  5
FE
100
AcDbEntity
100
AcDbLine
  8
0
 62
256
370
-1
  6
BYLAYER
 10
139.0
 20
42.0
 30
0.0
 11
133.0
 21
42.0
 31
0.0
  0
LINE
  5
FF
100
AcDbEntity
100
AcDbLine
  8
0
 62
256
370
-1
  6
BYLAYER
 10
133.0
 20
42.0
 30
0.0
 11
133.0
 21
36.0
 31
0.0
  0
LINE
  5
100
100
AcDbEntity
100
AcDbLine
  8
guides
 62
256
370
-1
  6
BYLAYER
 10
174.3148622334292668
 20
7.0
 30
0.0
 11
174.3148622334292668
 21
47.0
 31
0.0
  0
LINE
  5
101
100
AcDbEntity
100
AcDbLine
  8
0
 62
256
370
-1
  6
BYLAYER
 10
122.0
 20
7.0
 30
0.0
 11
144.0
 21
7.0
 31
0.0
  0
LINE
  5
102
100
AcDbEntity
100
AcDbLine
  8
0
 62
256
370
-1
  6
BYLAYER
 10
142.0
 20
47.0
 30
0.0
 11
122.0
 21
47.0
 31
0.0
  0
LINE
  5
103
100
AcDbEntity
100
AcDbLine
  8
guides
 62
256
370
-1
  6
BYLAYER
 10
152.3413983545248698
 20
35.5
 30
0.0
 11
141.3148622334292668
 21
35.5
 31
0.0
  0
ARC
  5
104
100
AcDbEntity
  8
0
 62
256
370
-1
  6
BYLAYER
100
AcDbCircle
 10
147.0
 20
37.0
 30
0.0
 40
2.499999999999996
100
AcDbArc
 50
332.9643082105877738
 51
207.0356917894123399
  0
LINE
  5
105
100
AcDbEntity
100
AcDbLine
  8
0
 62
256
370
-1
  6
BYLAYER
 10
149.4494897427831859
 20
35.5
 30
0.0
 11
151.75
 21
35.5
 31
0.0
  0
LINE
  5
106
100
AcDbEntity
100
AcDbLine
  8
0
 62
256
370
-1
  6
BYLAYER
 10
152.0
 20
35.5
 30
0.0
 11
152.0
 21
35.5
 31
0.0
  0
LINE
  5
107
100
AcDbEntity
100
AcDbLine
  8
0
 62
256
370
-1
  6
BYLAYER
 10
152.0
 20
35.75
 30
0.0
 11
152.0
 21
42.0
 31
0.0
  0
ARC
  5
108
100
AcDbEntity
  8
0
 62
256
370
-1
  6
BYLAYER
100
AcDbCircle
 10
147.0
 20
42.0
 30
0.0
 40
5.0
100
AcDbArc
 50
0.0
 51
90.0
  0
LINE
  5
109
100
AcDbEntity
100
AcDbLine
  8
0
 62
256
370
-1
  6
BYLAYER
 10
147.0
 20
47.0
 30
0.0
 11
142.0
 21
47.0
 31
0.0
  0
LINE
  5
10A
100
AcDbEntity
100
AcDbLine
  8
0
 62
256
370
-1
  6
BYLAYER
 10
144.25
 20
7.25
 30
0.0
 11
144.25
 21
35.25
 31
0.0
  0
ARC
  5
10B
100
AcDbEntity
  8
0
 62
256
370
-1
  6
BYLAYER
100
AcDbCircle
 10
144.5505102572168425
 20
35.75
 30
0.0
 40
0.25
100
AcDbArc
 50
270.0
 51
27.0356917894122972
  0
ARC
  5
10C
100
AcDbEntity
  8
0
 62
256
370
-1
  6
BYLAYER
100
AcDbCircle
 10
149.4494897427831859
 20
35.75
 30
0.0
 40
0.25
100
AcDbArc
 50
152.9643082105874043
 51
270.0
  0
ARC
  5
10D
100
AcDbEntity
  8
0
 62
256
370
-1
  6
BYLAYER
100
AcDbCircle
 10
151.75
 20
35.75
 30
0.0
 40
0.25
100
AcDbArc
 50
270.0
 51
0.0
  0
ARC
  5
10E
100
AcDbEntity
  8
0
 62
256
370
-1
  6
BYLAYER
100
AcDbCircle
 10
144.5
 20
35.25
 30
0.0
 40
0.25
100
AcDbArc
 50
90.0
 51
180.0
  0
ARC
  5
10F
100
AcDbEntity
  8
0
 62
256
370
-1
  6
BYLAYER
100
AcDbCircle
 10
144.0
 20
7.25
 30
0.0
 40
0.25
100
AcDbArc
 50
270.0
 51
0.0
  0
LINE
  5
110
100
AcDbEntity
100
AcDbLine
  8
0
 62
256
370
-1
  6
BYLAYER
 10
144.5505102572168425
 20
35.5
 30
0.0
 11
144.5
 21
35.5
 31
0.0
  0
LINE
  5
111
100
AcDbEntity
100
AcDbLine
  8
0
 62
256
370
-1
  6
BYLAYER
 10
105.5
 20
39.9999999999999858
 30
0.0
 11
106.5
 21
39.9999999999999858
 31
0.0
  0
CIRCLE
  5
112
100
AcDbEntity
100
AcDbCircle
  8
0
 62
256
370
-1
  6
BYLAYER
 10
122.0
 20
27.0
 30
0.0
 40
0.6
  0
LINE
  5
113
100
AcDbEntity
100
AcDbLine
  8
0
 62
256
370
-1
  6
BYLAYER
 10
102.0
 20
47.0
 30
0.0
 11
122.0
 21
47.0
 31
0.0
  0
LINE
  5
114
100
AcDbEntity
100
AcDbLine
  8
0
 62
256
370
-1
  6
BYLAYER
 10
99.5
 20
26.0
 30
0.0
 11
99.5
 21
26.6401258849320186
 31
0.0
  0
LINE
  5
115
100
AcDbEntity
100
AcDbLine
  8
0
 62
256
370
-1
  6
BYLAYER
 10
106.5
 20
37.9999999999999858
 30
0.0
 11
105.5
 21
37.9999999999999858
 31
0.0
  0
CIRCLE
  5
116
100
AcDbEntity
100
AcDbCircle
  8
0
 62
256
370
-1
  6
BYLAYER
 10
122.0
 20
27.0
 30
0.0
 40
0.6
  0
LINE
  5
117
100
AcDbEntity
100
AcDbLine
  8
0
 62
256
370
-1
  6
BYLAYER
 10
105.5
 20
37.9999999999999858
 30
0.0
 11
105.5
 21
39.9999999999999858
 31
0.0
  0
ARC
  5
118
100
AcDbEntity
  8
0
 62
256
370
-1
  6
BYLAYER
100
AcDbCircle
 10
97.0
 20
37.0
 30
0.0
 40
2.499999999999996
100
AcDbArc
 50
332.9643082105877738
 51
207.0356917894123399
  0
LINE
  5
119
100
AcDbEntity
100
AcDbLine
  8
0
 62
256
370
-1
  6
BYLAYER
 10
106.5
 20
42.0
 30
0.0
 11
106.5
 21
39.9999999999999858
 31
0.0
  0
LINE
  5
11A
100
AcDbEntity
100
AcDbLine
  8
0
 62
256
370
-1
  6
BYLAYER
 10
94.5505102572168425
 20
35.5
 30
0.0
 11
92.25
 21
35.5
 31
0.0
  0
LINE
  5
11B
100
AcDbEntity
100
AcDbLine
  8
0
 62
256
370
-1
  6
BYLAYER
 10
106.5
 20
37.9999999999999858
 30
0.0
 11
106.5
 21
36.0
 31
0.0
  0
LINE
  5
11C
100
AcDbEntity
100
AcDbLine
  8
0
 62
256
370
-1
  6
BYLAYER
 10
92.0
 20
35.5
 30
0.0
 11
92.0
 21
35.5
 31
0.0
  0
LINE
  5
11D
100
AcDbEntity
100
AcDbLine
  8
0
 62
256
370
-1
  6
BYLAYER
 10
106.5
 20
13.9999999999999858
 30
0.0
 11
105.5
 21
13.9999999999999858
 31
0.0
  0
LINE
  5
11E
100
AcDbEntity
100
AcDbLine
  8
0
 62
256
370
-1
  6
BYLAYER
 10
92.0
 20
35.75
 30
0.0
 11
92.0
 21
42.0
 31
0.0
  0
LINE
  5
11F
100
AcDbEntity
100
AcDbLine
  8
0
 62
256
370
-1
  6
BYLAYER
 10
105.5
 20
13.9999999999999858
 30
0.0
 11
105.5
 21
15.9999999999999858
 31
0.0
  0
ARC
  5
120
100
AcDbEntity
  8
0
 62
256
370
-1
  6
BYLAYER
100
AcDbCircle
 10
97.0
 20
42.0
 30
0.0
 40
5.0
100
AcDbArc
 50
89.9999999999999858
 51
180.0
  0
LINE
  5
121
100
AcDbEntity
100
AcDbLine
  8
0
 62
256
370
-1
  6
BYLAYER
 10
106.5
 20
18.0
 30
0.0
 11
106.5
 21
15.9999999999999858
 31
0.0
  0
LINE
  5
122
100
AcDbEntity
100
AcDbLine
  8
0
 62
256
370
-1
  6
BYLAYER
 10
97.0
 20
47.0
 30
0.0
 11
102.0
 21
47.0
 31
0.0
  0
LINE
  5
123
100
AcDbEntity
100
AcDbLine
  8
0
 62
256
370
-1
  6
BYLAYER
 10
106.5
 20
13.9999999999999858
 30
0.0
 11
106.5
 21
12.0
 31
0.0
  0
LINE
  5
124
100
AcDbEntity
100
AcDbLine
  8
0
 62
256
370
-1
  6
BYLAYER
 10
99.7500000000000284
 20
7.25
 30
0.0
 11
99.75
 21
35.25
 31
0.0
  0
LINE
  5
125
100
AcDbEntity
100
AcDbLine
  8
0
 62
256
370
-1
  6
BYLAYER
 10
105.5
 20
15.9999999999999858
 30
0.0
 11
106.5
 21
15.9999999999999858
 31
0.0
  0
ARC
  5
126
100
AcDbEntity
  8
0
 62
256
370
-1
  6
BYLAYER
100
AcDbCircle
 10
99.4494897427831859
 20
35.7500000000000142
 30
0.0
 40
0.25
100
AcDbArc
 50
152.9643082105876886
 51
270.0
  0
ARC
  5
127
100
AcDbEntity
  8
0
 62
256
370
-1
  6
BYLAYER
100
AcDbCircle
 10
94.5505102572168425
 20
35.75
 30
0.0
 40
0.25
100
AcDbArc
 50
270.0
 51
27.0356917894126383
  0
ARC
  5
128
100
AcDbEntity
  8
0
 62
256
370
-1
  6
BYLAYER
100
AcDbCircle
 10
92.25
 20
35.7500000000000142
 30
0.0
 40
0.25
100
AcDbArc
 50
180.0
 51
270.0
  0
ARC
  5
129
100
AcDbEntity
  8
0
 62
256
370
-1
  6
BYLAYER
100
AcDbCircle
 10
99.5
 20
35.25
 30
0.0
 40
0.25
100
AcDbArc
 50
0.0
 51
89.9999999999999858
  0
ARC
  5
12A
100
AcDbEntity
  8
0
 62
256
370
-1
  6
BYLAYER
100
AcDbCircle
 10
100.0
 20
7.25
 30
0.0
 40
0.25
100
AcDbArc
 50
180.0
 51
270.0
  0
LINE
  5
12B
100
AcDbEntity
100
AcDbLine
  8
0
 62
256
370
-1
  6
BYLAYER
 10
109.5
 20
12.0
 30
0.0
 11
106.5
 21
12.0
 31
0.0
  0
LINE
  5
12C
100
AcDbEntity
100
AcDbLine
  8
0
 62
256
370
-1
  6
BYLAYER
 10
106.5
 20
18.0
 30
0.0
 11
109.5
 21
18.0
 31
0.0
  0
LINE
  5
12D
100
AcDbEntity
100
AcDbLine
  8
0
 62
256
370
-1
  6
BYLAYER
 10
109.5
 20
18.0
 30
0.0
 11
109.5
 21
12.0
 31
0.0
  0
LINE
  5
12E
100
AcDbEntity
100
AcDbLine
  8
0
 62
256
370
-1
  6
BYLAYER
 10
109.5
 20
42.0
 30
0.0
 11
106.5
 21
42.0
 31
0.0
  0
LINE
  5
12F
100
AcDbEntity
100
AcDbLine
  8
0
 62
256
370
-1
  6
BYLAYER
 10
106.5
 20
36.0
 30
0.0
 11
109.5
 21
36.0
 31
0.0
  0
LINE
  5
130
100
AcDbEntity
100
AcDbLine
  8
0
 62
256
370
-1
  6
BYLAYER
 10
109.5
 20
36.0
 30
0.0
 11
109.5
 21
42.0
 31
0.0
  0
LINE
  5
131
100
AcDbEntity
100
AcDbLine
  8
0
 62
256
370
-1
  6
BYLAYER
 10
107.5
 20
30.0
 30
0.0
 11
109.5
 21
30.0
 31
0.0
  0
LINE
  5
132
100
AcDbEntity
100
AcDbLine
  8
0
 62
256
370
-1
  6
BYLAYER
 10
109.5
 20
30.0
 30
0.0
 11
106.5
 21
30.0000000000000142
 31
0.0
  0
LINE
  5
133
100
AcDbEntity
100
AcDbLine
  8
0
 62
256
370
-1
  6
BYLAYER
 10
106.5
 20
30.0000000000000142
 30
0.0
 11
106.5
 21
24.0
 31
0.0
  0
LINE
  5
134
100
AcDbEntity
100
AcDbLine
  8
0
 62
256
370
-1
  6
BYLAYER
 10
106.5
 20
24.0
 30
0.0
 11
109.5
 21
24.0
 31
0.0
  0
LINE
  5
135
100
AcDbEntity
100
AcDbLine
  8
0
 62
256
370
-1
  6
BYLAYER
 10
122.0
 20
7.0
 30
0.0
 11
100.0
 21
7.0
 31
0.0
  0
LINE
  5
136
100
AcDbEntity
100
AcDbLine
  8
0
 62
256
370
-1
  6
BYLAYER
 10
109.5
 20
24.0
 30
0.0
 11
109.5
 21
30.0
 31
0.0
  0
LINE
  5
137
100
AcDbEntity
100
AcDbLine
  8
0
 62
256
370
-1
  6
BYLAYER
 10
99.4494897427831859
 20
35.5
 30
0.0
 11
99.5
 21
35.5
 31
0.0
  0
LINE
  5
138
100
AcDbEntity
100
AcDbLine
  8
0
 62
256
370
-1
  6
BYLAYER
 10
158.8148622334292668
 20
24.0
 30
0.0
 11
161.8148622334292668
 21
24.0
 31
0.0
  0
LINE
  5
139
100
AcDbEntity
100
AcDbLine
  8
0
 62
256
370
-1
  6
BYLAYER
 10
161.8148622334292668
 20
12.0
 30
0.0
 11
158.8148622334292668
 21
12.0
 31
0.0
  0
LINE
  5
13A
100
AcDbEntity
100
AcDbLine
  8
0
 62
256
370
-1
  6
BYLAYER
 10
158.8148622334292668
 20
12.0
 30
0.0
 11
158.8148622334292668
 21
18.0
 31
0.0
  0
LINE
  5
13B
100
AcDbEntity
100
AcDbLine
  8
0
 62
256
370
-1
  6
BYLAYER
 10
158.8148622334292668
 20
18.0
 30
0.0
 11
161.8148622334292668
 21
18.0
 31
0.0
  0
LINE
  5
13C
100
AcDbEntity
100
AcDbLine
  8
0
 62
256
370
-1
  6
BYLAYER
 10
161.8148622334292668
 20
42.0
 30
0.0
 11
158.8148622334292668
 21
42.0
 31
0.0
  0
LINE
  5
13D
100
AcDbEntity
100
AcDbLine
  8
0
 62
256
370
-1
  6
BYLAYER
 10
158.8148622334292668
 20
42.0
 30
0.0
 11
158.8148622334292668
 21
36.0
 31
0.0
  0
LINE
  5
13E
100
AcDbEntity
100
AcDbLine
  8
0
 62
256
370
-1
  6
BYLAYER
 10
158.8148622334292668
 20
36.0
 30
0.0
 11
161.8148622334292668
 21
36.0
 31
0.0
  0
LINE
  5
13F
100
AcDbEntity
100
AcDbLine
  8
0
 62
256
370
-1
  6
BYLAYER
 10
159.8148622334292668
 20
30.0
 30
0.0
 11
161.8148622334292668
 21
30.0
 31
0.0
  0
LINE
  5
140
100
AcDbEntity
100
AcDbLine
  8
0
 62
256
370
-1
  6
BYLAYER
 10
161.8148622334292668
 20
30.0
 30
0.0
 11
158.8148622334292668
 21
30.0000000000000142
 31
0.0
  0
LINE
  5
141
100
AcDbEntity
100
AcDbLine
  8
0
 62
256
370
-1
  6
BYLAYER
 10
158.8148622334292668
 20
30.0000000000000142
 30
0.0
 11
158.8148622334292668
 21
24.0
 31
0.0
  0
LINE
  5
142
100
AcDbEntity
100
AcDbLine
  8
0
 62
256
370
-1
  6
BYLAYER
 10
161.8148622334292668
 20
7.0
 30
0.0
 11
161.8148622334292668
 21
12.0
 31
0.0
  0
LINE
  5
143
100
AcDbEntity
100
AcDbLine
  8
0
 62
256
370
-1
  6
BYLAYER
 10
161.8148622334292668
 20
18.0
 30
0.0
 11
161.8148622334292668
 21
24.0
 31
0.0
  0
LINE
  5
144
100
AcDbEntity
100
AcDbLine
  8
0
 62
256
370
-1
  6
BYLAYER
 10
161.8148622334292668
 20
30.0
 30
0.0
 11
161.8148622334292668
 21
36.0
 31
0.0
  0
LINE
  5
145
100
AcDbEntity
100
AcDbLine
  8
0
 62
256
370
-1
  6
BYLAYER
 10
161.8148622334292668
 20
42.0
 30
0.0
 11
161.8148622334292668
 21
47.0
 31
0.0
  0
LINE
  5
146
100
AcDbEntity
100
AcDbLine
  8
0
 62
256
370
-1
  6
BYLAYER
 10
185.3148622334292668
 20
29.9999999999999858
 30
0.0
 11
192.3148622334292668
 21
29.9999999999999858
 31
0.0
  0
LINE
  5
147
100
AcDbEntity
100
AcDbLine
  8
0
 62
256
370
-1
  6
BYLAYER
 10
192.3148622334292668
 20
29.9999999999999858
 30
0.0
 11
192.3148622334292668
 21
23.9999999999999858
 31
0.0
  0
LINE
  5
148
100
AcDbEntity
100
AcDbLine
  8
0
 62
256
370
-1
  6
BYLAYER
 10
185.3148622334292668
 20
6.9999999999999858
 30
0.0
 11
185.3148622334292668
 21
11.9999999999999858
 31
0.0
  0
LINE
  5
149
100
AcDbEntity
100
AcDbLine
  8
0
 62
256
370
-1
  6
BYLAYER
 10
185.3148622334292668
 20
17.9999999999999858
 30
0.0
 11
185.3148622334292668
 21
23.9999999999999858
 31
0.0
  0
LINE
  5
14A
100
AcDbEntity
100
AcDbLine
  8
0
 62
256
370
-1
  6
BYLAYER
 10
192.3148622334292668
 20
23.9999999999999858
 30
0.0
 11
185.3148622334292668
 21
23.9999999999999858
 31
0.0
  0
LINE
  5
14B
100
AcDbEntity
100
AcDbLine
  8
0
 62
256
370
-1
  6
BYLAYER
 10
185.3148622334292668
 20
29.9999999999999858
 30
0.0
 11
185.3148622334292668
 21
36.0
 31
0.0
  0
CIRCLE
  5
14C
100
AcDbEntity
100
AcDbCircle
  8
0
 62
256
370
-1
  6
BYLAYER
 10
203.3148622334292668
 20
26.9999999999999858
 30
0.0
 40
0.6
  0
LINE
  5
14D
100
AcDbEntity
100
AcDbLine
  8
0
 62
256
370
-1
  6
BYLAYER
 10
185.3148622334292668
 20
42.0
 30
0.0
 11
185.3148622334292668
 21
47.0
 31
0.0
  0
CIRCLE
  5
14E
100
AcDbEntity
100
AcDbCircle
  8
0
 62
256
370
-1
  6
BYLAYER
 10
203.3148622334292668
 20
26.9999999999999858
 30
0.0
 40
0.6
  0
LINE
  5
14F
100
AcDbEntity
100
AcDbLine
  8
0
 62
256
370
-1
  6
BYLAYER
 10
185.3148622334292668
 20
11.9999999999999858
 30
0.0
 11
192.3148622334292668
 21
11.9999999999999858
 31
0.0
  0
LINE
  5
150
100
AcDbEntity
100
AcDbLine
  8
guides
 62
256
370
-1
  6
BYLAYER
 10
203.3148622334292668
 20
46.9999999999999858
 30
0.0
 11
203.3148622334292668
 21
6.9999999999999858
 31
0.0
  0
LINE
  5
151
100
AcDbEntity
100
AcDbLine
  8
0
 62
256
370
-1
  6
BYLAYER
 10
192.3148622334292668
 20
11.9999999999999858
 30
0.0
 11
192.3148622334292668
 21
18.0
 31
0.0
  0
LINE
  5
152
100
AcDbEntity
100
AcDbLine
  8
0
 62
256
370
-1
  6
BYLAYER
 10
215.8148622334292668
 20
41.9999999999999716
 30
0.0
 11
218.8148622334292668
 21
41.9999999999999858
 31
0.0
  0
LINE
  5
153
100
AcDbEntity
100
AcDbLine
  8
0
 62
256
370
-1
  6
BYLAYER
 10
192.3148622334292668
 20
18.0
 30
0.0
 11
185.3148622334292668
 21
17.9999999999999858
 31
0.0
  0
LINE
  5
154
100
AcDbEntity
100
AcDbLine
  8
guides
 62
256
370
-1
  6
BYLAYER
 10
215.8148622334292668
 20
6.9999999999999716
 30
0.0
 11
215.8148622334292668
 21
46.9999999999999858
 31
0.0
  0
LINE
  5
155
100
AcDbEntity
100
AcDbLine
  8
0
 62
256
370
-1
  6
BYLAYER
 10
185.3148622334292668
 20
42.0
 30
0.0
 11
192.3148622334292668
 21
42.0
 31
0.0
  0
LINE
  5
156
100
AcDbEntity
100
AcDbLine
  8
0
 62
256
370
-1
  6
BYLAYER
 10
218.8148622334292668
 20
35.9999999999999716
 30
0.0
 11
215.8148622334292668
 21
35.9999999999999858
 31
0.0
  0
LINE
  5
157
100
AcDbEntity
100
AcDbLine
  8
0
 62
256
370
-1
  6
BYLAYER
 10
192.3148622334292668
 20
42.0
 30
0.0
 11
192.3148622334292668
 21
35.9999999999999858
 31
0.0
  0
LINE
  5
158
100
AcDbEntity
100
AcDbLine
  8
0
 62
256
370
-1
  6
BYLAYER
 10
215.8148622334292668
 20
35.9999999999999858
 30
0.0
 11
215.8148622334292668
 21
41.9999999999999716
 31
0.0
  0
LINE
  5
159
100
AcDbEntity
100
AcDbLine
  8
0
 62
256
370
-1
  6
BYLAYER
 10
192.3148622334292668
 20
35.9999999999999858
 30
0.0
 11
185.3148622334292668
 21
35.9999999999999858
 31
0.0
  0
LINE
  5
15A
100
AcDbEntity
100
AcDbLine
  8
0
 62
256
370
-1
  6
BYLAYER
 10
215.8148622334292668
 20
11.9999999999999858
 30
0.0
 11
218.8148622334292668
 21
11.9999999999999858
 31
0.0
  0
LINE
  5
15B
100
AcDbEntity
100
AcDbLine
  8
0
 62
256
370
-1
  6
BYLAYER
 10
218.8148622334292668
 20
17.9999999999999858
 30
0.0
 11
215.8148622334292668
 21
17.9999999999999858
 31
0.0
  0
LINE
  5
15C
100
AcDbEntity
100
AcDbLine
  8
0
 62
256
370
-1
  6
BYLAYER
 10
215.8148622334292668
 20
17.9999999999999858
 30
0.0
 11
215.8148622334292668
 21
11.9999999999999858
 31
0.0
  0
LINE
  5
15D
100
AcDbEntity
100
AcDbLine
  8
0
 62
256
370
-1
  6
BYLAYER
 10
217.8148622334292668
 20
23.9999999999999858
 30
0.0
 11
215.8148622334292668
 21
23.9999999999999858
 31
0.0
  0
LINE
  5
15E
100
AcDbEntity
100
AcDbLine
  8
0
 62
256
370
-1
  6
BYLAYER
 10
215.8148622334292668
 20
23.9999999999999858
 30
0.0
 11
218.8148622334292668
 21
23.9999999999999716
 31
0.0
  0
LINE
  5
15F
100
AcDbEntity
100
AcDbLine
  8
0
 62
256
370
-1
  6
BYLAYER
 10
218.8148622334292668
 20
29.9999999999999858
 30
0.0
 11
215.8148622334292668
 21
29.9999999999999858
 31
0.0
  0
LINE
  5
160
100
AcDbEntity
100
AcDbLine
  8
0
 62
256
370
-1
  6
BYLAYER
 10
215.8148622334292668
 20
29.9999999999999858
 30
0.0
 11
215.8148622334292668
 21
23.9999999999999858
 31
0.0
  0
LINE
  5
161
100
AcDbEntity
100
AcDbLine
  8
0
 62
256
370
-1
  6
BYLAYER
 10
218.8148622334292668
 20
11.9999999999999858
 30
0.0
 11
218.8148622334292668
 21
6.9999999999999858
 31
0.0
  0
LINE
  5
162
100
AcDbEntity
100
AcDbLine
  8
0
 62
256
370
-1
  6
BYLAYER
 10
218.8148622334292668
 20
17.9999999999999858
 30
0.0
 11
218.8148622334292668
 21
23.9999999999999716
 31
0.0
  0
LINE
  5
163
100
AcDbEntity
100
AcDbLine
  8
0
 62
256
370
-1
  6
BYLAYER
 10
218.8148622334292668
 20
29.9999999999999858
 30
0.0
 11
218.8148622334291531
 21
35.9999999999999716
 31
0.0
  0
LINE
  5
164
100
AcDbEntity
100
AcDbLine
  8
0
 62
256
370
-1
  6
BYLAYER
 10
218.8148622334291531
 20
41.9999999999999858
 30
0.0
 11
218.8148622334291531
 21
46.9999999999999716
 31
0.0
  0
DIMENSION
  5
165
100
AcDbEntity
  8
dimensions
 62
256
370
-1
  6
BYLAYER
100
AcDbDimension
 10
144.3148622334292668
 20
56.9999999999999716
 30
0.0
 11
119.3148622334292668
 21
58.8749999999999858
 31
0.0
 70
1
 71
8
 72
2
 41
1.0
 42
0.0
  1

  3
Standard
100
AcDbAlignedDimension
 13
144.3148622334292668
 23
36.9999999999999858
 33
0.0
 14
94.3148622334292668
 24
37.0000000000000142
 34
0.0
1001
ACAD
1000
DSTYLE
1002
{
1070
144
1040
1
1002
}
  0
LINE
  5
166
100
AcDbEntity
100
AcDbLine
  8
guides
 62
256
370
-1
  6
BYLAYER
 10
231.3148622334292668
 20
7.0
 30
0.0
 11
231.3148622334292668
 21
47.0
 31
0.0
  0
LINE
  5
167
100
AcDbEntity
100
AcDbLine
  8
0
 62
256
370
-1
  6
BYLAYER
 10
242.3148622334292668
 20
29.9999999999999858
 30
0.0
 11
249.3148622334292668
 21
29.9999999999999858
 31
0.0
  0
LINE
  5
168
100
AcDbEntity
100
AcDbLine
  8
0
 62
256
370
-1
  6
BYLAYER
 10
249.3148622334292668
 20
29.9999999999999858
 30
0.0
 11
249.3148622334292668
 21
23.9999999999999858
 31
0.0
  0
LINE
  5
169
100
AcDbEntity
100
AcDbLine
  8
0
 62
256
370
-1
  6
BYLAYER
 10
242.3148622334292668
 20
6.9999999999999858
 30
0.0
 11
242.3148622334292668
 21
11.9999999999999858
 31
0.0
  0
LINE
  5
16A
100
AcDbEntity
100
AcDbLine
  8
0
 62
256
370
-1
  6
BYLAYER
 10
242.3148622334292668
 20
17.9999999999999858
 30
0.0
 11
242.3148622334292668
 21
23.9999999999999858
 31
0.0
  0
LINE
  5
16B
100
AcDbEntity
100
AcDbLine
  8
0
 62
256
370
-1
  6
BYLAYER
 10
249.3148622334292668
 20
23.9999999999999858
 30
0.0
 11
242.3148622334292668
 21
23.9999999999999858
 31
0.0
  0
LINE
  5
16C
100
AcDbEntity
100
AcDbLine
  8
0
 62
256
370
-1
  6
BYLAYER
 10
242.3148622334292668
 20
29.9999999999999858
 30
0.0
 11
242.3148622334292668
 21
36.0
 31
0.0
  0
LINE
  5
16D
100
AcDbEntity
100
AcDbLine
  8
0
 62
256
370
-1
  6
BYLAYER
 10
242.3148622334292668
 20
42.0
 30
0.0
 11
242.3148622334292668
 21
47.0
 31
0.0
  0
LINE
  5
16E
100
AcDbEntity
100
AcDbLine
  8
0
 62
256
370
-1
  6
BYLAYER
 10
242.3148622334292668
 20
11.9999999999999858
 30
0.0
 11
249.3148622334292668
 21
11.9999999999999858
 31
0.0
  0
LINE
  5
16F
100
AcDbEntity
100
AcDbLine
  8
0
 62
256
370
-1
  6
BYLAYER
 10
249.3148622334292668
 20
11.9999999999999858
 30
0.0
 11
249.3148622334292668
 21
18.0
 31
0.0
  0
LINE
  5
170
100
AcDbEntity
100
AcDbLine
  8
0
 62
256
370
-1
  6
BYLAYER
 10
249.3148622334292668
 20
18.0
 30
0.0
 11
242.3148622334292668
 21
17.9999999999999858
 31
0.0
  0
LINE
  5
171
100
AcDbEntity
100
AcDbLine
  8
0
 62
256
370
-1
  6
BYLAYER
 10
242.3148622334292668
 20
42.0
 30
0.0
 11
249.3148622334292668
 21
42.0
 31
0.0
  0
LINE
  5
172
100
AcDbEntity
100
AcDbLine
  8
0
 62
256
370
-1
  6
BYLAYER
 10
249.3148622334292668
 20
42.0
 30
0.0
 11
249.3148622334292668
 21
35.9999999999999858
 31
0.0
  0
LINE
  5
173
100
AcDbEntity
100
AcDbLine
  8
0
 62
256
370
-1
  6
BYLAYER
 10
249.3148622334292668
 20
35.9999999999999858
 30
0.0
 11
242.3148622334292668
 21
35.9999999999999858
 31
0.0
  0
DIMENSION
  5
174
100
AcDbEntity
  8
dimensions
 62
256
370
-1
  6
BYLAYER
100
AcDbDimension
 10
78.8189558722194192
 20
7.0000000000000027
 30
0.0
 11
76.9439558722194192
 21
26.9999999999999929
 31
0.0
 70
1
 71
8
 72
2
 41
1.0
 42
0.0
  1

  3
Standard
100
AcDbAlignedDimension
 13
97.3148622334292668
 23
7.0
 33
0.0
 14
97.3148622334292668
 24
46.9999999999999858
 34
0.0
1001
ACAD
1000
DSTYLE
1002
{
1070
144
1040
1
1002
}
  0
DIMENSION
  5
175
100
AcDbEntity
  8
dimensions
 62
256
370
-1
  6
BYLAYER
100
AcDbDimension
 10
119.3148622334292668
 20
8.6712000233948245
 30
0.0
 11
125.0843066778736983
 21
10.5462000233948121
 31
0.0
 70
1
 71
8
 72
2
 41
1.0
 42
0.0
  1

  3
Standard
100
AcDbAlignedDimension
 13
119.3148622334292668
 23
22.7892257744677806
 33
0.0
 14
122.5148622334292554
 24
22.7892257744677593
 34
0.0
1001
ACAD
1000
DSTYLE
1002
{
1070
144
1040
1
1002
}
  0
LINE
  5
176
100
AcDbEntity
100
AcDbLine
  8
guides
 62
256
370
-1
  6
BYLAYER
 10
109.5
 20
47.0
 30
0.0
 11
109.5
 21
7.0
 31
0.0
  0
LINE
  5
177
100
AcDbEntity
100
AcDbLine
  8
0
 62
256
370
-1
  6
BYLAYER
 10
134.5
 20
42.0
 30
0.0
 11
137.5
 21
42.0
 31
0.0
  0
LINE
  5
178
100
AcDbEntity
100
AcDbLine
  8
0
 62
256
370
-1
  6
BYLAYER
 10
137.5
 20
36.0
 30
0.0
 11
134.5
 21
36.0
 31
0.0
  0
LINE
  5
179
100
AcDbEntity
100
AcDbLine
  8
0
 62
256
370
-1
  6
BYLAYER
 10
136.5
 20
30.0
 30
0.0
 11
134.5
 21
30.0
 31
0.0
  0
LINE
  5
17A
100
AcDbEntity
100
AcDbLine
  8
0
 62
256
370
-1
  6
BYLAYER
 10
242.3148622334292668
 20
6.9999999999999858
 30
0.0
 11
161.8148622334292668
 21
7.0
 31
0.0
  0
LINE
  5
17B
100
AcDbEntity
100
AcDbLine
  8
0
 62
256
370
-1
  6
BYLAYER
 10
242.3148622334292668
 20
47.0
 30
0.0
 11
161.8148622334292668
 21
47.0
 31
0.0
  0
LINE
  5
17C
100
AcDbEntity
100
AcDbLine
  8
0
 62
256
370
-1
  6
BYLAYER
 10
158.8148622334292668
 20
64.0
 30
0.0
 11
161.8148622334292668
 21
64.0
 31
0.0
  0
LINE
  5
17D
100
AcDbEntity
100
AcDbLine
  8
0
 62
256
370
-1
  6
BYLAYER
 10
161.8148622334292668
 20
52.0
 30
0.0
 11
158.8148622334292668
 21
52.0
 31
0.0
  0
LINE
  5
17E
100
AcDbEntity
100
AcDbLine
  8
0
 62
256
370
-1
  6
BYLAYER
 10
158.8148622334292668
 20
52.0
 30
0.0
 11
158.8148622334292668
 21
58.0
 31
0.0
  0
LINE
  5
17F
100
AcDbEntity
100
AcDbLine
  8
0
 62
256
370
-1
  6
BYLAYER
 10
158.8148622334292668
 20
58.0
 30
0.0
 11
161.8148622334292668
 21
58.0
 31
0.0
  0
LINE
  5
180
100
AcDbEntity
100
AcDbLine
  8
0
 62
256
370
-1
  6
BYLAYER
 10
161.8148622334292668
 20
82.0
 30
0.0
 11
158.8148622334292668
 21
82.0
 31
0.0
  0
LINE
  5
181
100
AcDbEntity
100
AcDbLine
  8
0
 62
256
370
-1
  6
BYLAYER
 10
158.8148622334292668
 20
82.0
 30
0.0
 11
158.8148622334292668
 21
76.0
 31
0.0
  0
LINE
  5
182
100
AcDbEntity
100
AcDbLine
  8
0
 62
256
370
-1
  6
BYLAYER
 10
158.8148622334292668
 20
76.0
 30
0.0
 11
161.8148622334292668
 21
76.0
 31
0.0
  0
LINE
  5
183
100
AcDbEntity
100
AcDbLine
  8
0
 62
256
370
-1
  6
BYLAYER
 10
159.8148622334292668
 20
70.0
 30
0.0
 11
161.8148622334292668
 21
70.0
 31
0.0
  0
LINE
  5
184
100
AcDbEntity
100
AcDbLine
  8
0
 62
256
370
-1
  6
BYLAYER
 10
161.8148622334292668
 20
70.0
 30
0.0
 11
158.8148622334292668
 21
70.0000000000000142
 31
0.0
  0
LINE
  5
185
100
AcDbEntity
100
AcDbLine
  8
0
 62
256
370
-1
  6
BYLAYER
 10
158.8148622334292668
 20
70.0000000000000142
 30
0.0
 11
158.8148622334292668
 21
64.0
 31
0.0
  0
LINE
  5
186
100
AcDbEntity
100
AcDbLine
  8
0
 62
256
370
-1
  6
BYLAYER
 10
161.8148622334292668
 20
47.0
 30
0.0
 11
161.8148622334292668
 21
52.0
 31
0.0
  0
LINE
  5
187
100
AcDbEntity
100
AcDbLine
  8
guides
 62
256
370
-1
  6
BYLAYER
 10
174.3148622334292668
 20
47.0
 30
0.0
 11
174.3148622334292668
 21
87.0
 31
0.0
  0
LINE
  5
188
100
AcDbEntity
100
AcDbLine
  8
0
 62
256
370
-1
  6
BYLAYER
 10
161.8148622334292668
 20
58.0
 30
0.0
 11
161.8148622334292668
 21
64.0
 31
0.0
  0
LINE
  5
189
100
AcDbEntity
100
AcDbLine
  8
0
 62
256
370
-1
  6
BYLAYER
 10
161.8148622334292668
 20
70.0
 30
0.0
 11
161.8148622334292668
 21
76.0
 31
0.0
  0
LINE
  5
18A
100
AcDbEntity
100
AcDbLine
  8
0
 62
256
370
-1
  6
BYLAYER
 10
161.8148622334292668
 20
82.0
 30
0.0
 11
161.8148622334292668
 21
87.0
 31
0.0
  0
LINE
  5
18B
100
AcDbEntity
100
AcDbLine
  8
guides
 62
256
370
-1
  6
BYLAYER
 10
231.3148622334292668
 20
47.0
 30
0.0
 11
231.3148622334292668
 21
87.0
 31
0.0
  0
LINE
  5
18C
100
AcDbEntity
100
AcDbLine
  8
0
 62
256
370
-1
  6
BYLAYER
 10
185.3148622334292668
 20
69.9999999999999858
 30
0.0
 11
192.3148622334292668
 21
69.9999999999999858
 31
0.0
  0
LINE
  5
18D
100
AcDbEntity
100
AcDbLine
  8
0
 62
256
370
-1
  6
BYLAYER
 10
192.3148622334292668
 20
69.9999999999999858
 30
0.0
 11
192.3148622334292668
 21
63.9999999999999858
 31
0.0
  0
LINE
  5
18E
100
AcDbEntity
100
AcDbLine
  8
0
 62
256
370
-1
  6
BYLAYER
 10
242.3148622334292668
 20
69.9999999999999858
 30
0.0
 11
249.3148622334292668
 21
69.9999999999999858
 31
0.0
  0
LINE
  5
18F
100
AcDbEntity
100
AcDbLine
  8
0
 62
256
370
-1
  6
BYLAYER
 10
185.3148622334292668
 20
46.9999999999999858
 30
0.0
 11
185.3148622334292668
 21
51.9999999999999858
 31
0.0
  0
LINE
  5
190
100
AcDbEntity
100
AcDbLine
  8
0
 62
256
370
-1
  6
BYLAYER
 10
249.3148622334292668
 20
69.9999999999999858
 30
0.0
 11
249.3148622334292668
 21
63.9999999999999858
 31
0.0
  0
LINE
  5
191
100
AcDbEntity
100
AcDbLine
  8
0
 62
256
370
-1
  6
BYLAYER
 10
185.3148622334292668
 20
57.9999999999999858
 30
0.0
 11
185.3148622334292668
 21
63.9999999999999858
 31
0.0
  0
LINE
  5
192
100
AcDbEntity
100
AcDbLine
  8
0
 62
256
370
-1
  6
BYLAYER
 10
242.3148622334292668
 20
46.9999999999999858
 30
0.0
 11
242.3148622334292668
 21
51.9999999999999858
 31
0.0
  0
LINE
  5
193
100
AcDbEntity
100
AcDbLine
  8
0
 62
256
370
-1
  6
BYLAYER
 10
192.3148622334292668
 20
63.9999999999999858
 30
0.0
 11
185.3148622334292668
 21
63.9999999999999858
 31
0.0
  0
LINE
  5
194
100
AcDbEntity
100
AcDbLine
  8
0
 62
256
370
-1
  6
BYLAYER
 10
242.3148622334292668
 20
57.9999999999999858
 30
0.0
 11
242.3148622334292668
 21
63.9999999999999858
 31
0.0
  0
LINE
  5
195
100
AcDbEntity
100
AcDbLine
  8
0
 62
256
370
-1
  6
BYLAYER
 10
185.3148622334292668
 20
69.9999999999999858
 30
0.0
 11
185.3148622334292668
 21
76.0
 31
0.0
  0
LINE
  5
196
100
AcDbEntity
100
AcDbLine
  8
0
 62
256
370
-1
  6
BYLAYER
 10
249.3148622334292668
 20
63.9999999999999858
 30
0.0
 11
242.3148622334292668
 21
63.9999999999999858
 31
0.0
  0
CIRCLE
  5
197
100
AcDbEntity
100
AcDbCircle
  8
0
 62
256
370
-1
  6
BYLAYER
 10
203.3148622334292668
 20
66.9999999999999858
 30
0.0
 40
0.6
  0
LINE
  5
198
100
AcDbEntity
100
AcDbLine
  8
0
 62
256
370
-1
  6
BYLAYER
 10
242.3148622334292668
 20
69.9999999999999858
 30
0.0
 11
242.3148622334292668
 21
76.0
 31
0.0
  0
LINE
  5
199
100
AcDbEntity
100
AcDbLine
  8
0
 62
256
370
-1
  6
BYLAYER
 10
185.3148622334292668
 20
82.0
 30
0.0
 11
185.3148622334292668
 21
87.0
 31
0.0
  0
LINE
  5
19A
100
AcDbEntity
100
AcDbLine
  8
0
 62
256
370
-1
  6
BYLAYER
 10
242.3148622334292668
 20
82.0
 30
0.0
 11
242.3148622334292668
 21
87.0
 31
0.0
  0
CIRCLE
  5
19B
100
AcDbEntity
100
AcDbCircle
  8
0
 62
256
370
-1
  6
BYLAYER
 10
203.3148622334292668
 20
66.9999999999999858
 30
0.0
 40
0.6
  0
LINE
  5
19C
100
AcDbEntity
100
AcDbLine
  8
0
 62
256
370
-1
  6
BYLAYER
 10
242.3148622334292668
 20
51.9999999999999858
 30
0.0
 11
249.3148622334292668
 21
51.9999999999999858
 31
0.0
  0
LINE
  5
19D
100
AcDbEntity
100
AcDbLine
  8
0
 62
256
370
-1
  6
BYLAYER
 10
185.3148622334292668
 20
51.9999999999999858
 30
0.0
 11
192.3148622334292668
 21
51.9999999999999858
 31
0.0
  0
LINE
  5
19E
100
AcDbEntity
100
AcDbLine
  8
0
 62
256
370
-1
  6
BYLAYER
 10
249.3148622334292668
 20
51.9999999999999858
 30
0.0
 11
249.3148622334292668
 21
58.0
 31
0.0
  0
LINE
  5
19F
100
AcDbEntity
100
AcDbLine
  8
guides
 62
256
370
-1
  6
BYLAYER
 10
203.3148622334292668
 20
86.9999999999999858
 30
0.0
 11
203.3148622334292668
 21
46.9999999999999858
 31
0.0
  0
LINE
  5
1A0
100
AcDbEntity
100
AcDbLine
  8
0
 62
256
370
-1
  6
BYLAYER
 10
249.3148622334292668
 20
58.0
 30
0.0
 11
242.3148622334292668
 21
57.9999999999999858
 31
0.0
  0
LINE
  5
1A1
100
AcDbEntity
100
AcDbLine
  8
0
 62
256
370
-1
  6
BYLAYER
 10
192.3148622334292668
 20
51.9999999999999858
 30
0.0
 11
192.3148622334292668
 21
58.0
 31
0.0
  0
LINE
  5
1A2
100
AcDbEntity
100
AcDbLine
  8
0
 62
256
370
-1
  6
BYLAYER
 10
242.3148622334292668
 20
82.0
 30
0.0
 11
249.3148622334292668
 21
82.0
 31
0.0
  0
LINE
  5
1A3
100
AcDbEntity
100
AcDbLine
  8
0
 62
256
370
-1
  6
BYLAYER
 10
215.8148622334292668
 20
81.9999999999999716
 30
0.0
 11
218.8148622334292668
 21
81.9999999999999858
 31
0.0
  0
LINE
  5
1A4
100
AcDbEntity
100
AcDbLine
  8
0
 62
256
370
-1
  6
BYLAYER
 10
249.3148622334292668
 20
82.0
 30
0.0
 11
249.3148622334292668
 21
75.9999999999999858
 31
0.0
  0
LINE
  5
1A5
100
AcDbEntity
100
AcDbLine
  8
0
 62
256
370
-1
  6
BYLAYER
 10
192.3148622334292668
 20
58.0
 30
0.0
 11
185.3148622334292668
 21
57.9999999999999858
 31
0.0
  0
LINE
  5
1A6
100
AcDbEntity
100
AcDbLine
  8
0
 62
256
370
-1
  6
BYLAYER
 10
249.3148622334292668
 20
75.9999999999999858
 30
0.0
 11
242.3148622334292668
 21
75.9999999999999858
 31
0.0
  0
LINE
  5
1A7
100
AcDbEntity
100
AcDbLine
  8
guides
 62
256
370
-1
  6
BYLAYER
 10
215.8148622334292668
 20
46.9999999999999716
 30
0.0
 11
215.8148622334292668
 21
86.9999999999999858
 31
0.0
  0
LINE
  5
1A8
100
AcDbEntity
100
AcDbLine
  8
0
 62
256
370
-1
  6
BYLAYER
 10
185.3148622334292668
 20
82.0
 30
0.0
 11
192.3148622334292668
 21
82.0
 31
0.0
  0
LINE
  5
1A9
100
AcDbEntity
100
AcDbLine
  8
0
 62
256
370
-1
  6
BYLAYER
 10
218.8148622334292668
 20
75.9999999999999716
 30
0.0
 11
215.8148622334292668
 21
75.9999999999999858
 31
0.0
  0
LINE
  5
1AA
100
AcDbEntity
100
AcDbLine
  8
0
 62
256
370
-1
  6
BYLAYER
 10
192.3148622334292668
 20
82.0
 30
0.0
 11
192.3148622334292668
 21
75.9999999999999858
 31
0.0
  0
LINE
  5
1AB
100
AcDbEntity
100
AcDbLine
  8
0
 62
256
370
-1
  6
BYLAYER
 10
215.8148622334292668
 20
75.9999999999999858
 30
0.0
 11
215.8148622334292668
 21
81.9999999999999716
 31
0.0
  0
LINE
  5
1AC
100
AcDbEntity
100
AcDbLine
  8
0
 62
256
370
-1
  6
BYLAYER
 10
192.3148622334292668
 20
75.9999999999999858
 30
0.0
 11
185.3148622334292668
 21
75.9999999999999858
 31
0.0
  0
LINE
  5
1AD
100
AcDbEntity
100
AcDbLine
  8
0
 62
256
370
-1
  6
BYLAYER
 10
242.3148622334292668
 20
46.9999999999999858
 30
0.0
 11
161.8148622334292668
 21
47.0
 31
0.0
  0
LINE
  5
1AE
100
AcDbEntity
100
AcDbLine
  8
0
 62
256
370
-1
  6
BYLAYER
 10
215.8148622334292668
 20
51.9999999999999858
 30
0.0
 11
218.8148622334292668
 21
51.9999999999999858
 31
0.0
  0
LINE
  5
1AF
100
AcDbEntity
100
AcDbLine
  8
0
 62
256
370
-1
  6
BYLAYER
 10
242.3148622334292668
 20
87.0
 30
0.0
 11
161.8148622334292668
 21
87.0
 31
0.0
  0
LINE
  5
1B0
100
AcDbEntity
100
AcDbLine
  8
0
 62
256
370
-1
  6
BYLAYER
 10
218.8148622334292668
 20
57.9999999999999858
 30
0.0
 11
215.8148622334292668
 21
57.9999999999999858
 31
0.0
  0
LINE
  5
1B1
100
AcDbEntity
100
AcDbLine
  8
0
 62
256
370
-1
  6
BYLAYER
 10
215.8148622334292668
 20
57.9999999999999858
 30
0.0
 11
215.8148622334292668
 21
51.9999999999999858
 31
0.0
  0
LINE
  5
1B2
100
AcDbEntity
100
AcDbLine
  8
0
 62
256
370
-1
  6
BYLAYER
 10
217.8148622334292668
 20
63.9999999999999858
 30
0.0
 11
215.8148622334292668
 21
63.9999999999999858
 31
0.0
  0
LINE
  5
1B3
100
AcDbEntity
100
AcDbLine
  8
0
 62
256
370
-1
  6
BYLAYER
 10
215.8148622334292668
 20
63.9999999999999858
 30
0.0
 11
218.8148622334292668
 21
63.9999999999999716
 31
0.0
  0
LINE
  5
1B4
100
AcDbEntity
100
AcDbLine
  8
0
 62
256
370
-1
  6
BYLAYER
 10
218.8148622334292668
 20
69.9999999999999858
 30
0.0
 11
215.8148622334292668
 21
69.9999999999999858
 31
0.0
  0
LINE
  5
1B5
100
AcDbEntity
100
AcDbLine
  8
0
 62
256
370
-1
  6
BYLAYER
 10
215.8148622334292668
 20
69.9999999999999858
 30
0.0
 11
215.8148622334292668
 21
63.9999999999999858
 31
0.0
  0
LINE
  5
1B6
100
AcDbEntity
100
AcDbLine
  8
0
 62
256
370
-1
  6
BYLAYER
 10
218.8148622334292668
 20
51.9999999999999858
 30
0.0
 11
218.8148622334292668
 21
46.9999999999999858
 31
0.0
  0
LINE
  5
1B7
100
AcDbEntity
100
AcDbLine
  8
0
 62
256
370
-1
  6
BYLAYER
 10
218.8148622334292668
 20
57.9999999999999858
 30
0.0
 11
218.8148622334292668
 21
63.9999999999999716
 31
0.0
  0
LINE
  5
1B8
100
AcDbEntity
100
AcDbLine
  8
0
 62
256
370
-1
  6
BYLAYER
 10
218.8148622334292668
 20
69.9999999999999858
 30
0.0
 11
218.8148622334291531
 21
75.9999999999999716
 31
0.0
  0
LINE
  5
1B9
100
AcDbEntity
100
AcDbLine
  8
0
 62
256
370
-1
  6
BYLAYER
 10
218.8148622334291531
 20
81.9999999999999858
 30
0.0
 11
218.8148622334291531
 21
86.9999999999999716
 31
0.0
  0
LINE
  5
1BA
100
AcDbEntity
100
AcDbLine
  8
0
 62
256
370
-1
  6
BYLAYER
 10
242.3148622334292668
 20
109.9999999999999858
 30
0.0
 11
242.3148622334292668
 21
115.9999999999999858
 31
0.0
  0
LINE
  5
1BB
100
AcDbEntity
100
AcDbLine
  8
0
 62
256
370
-1
  6
BYLAYER
 10
185.3148622334292668
 20
121.9999999999999858
 30
0.0
 11
185.3148622334292668
 21
126.9999999999999858
 31
0.0
  0
LINE
  5
1BC
100
AcDbEntity
100
AcDbLine
  8
0
 62
256
370
-1
  6
BYLAYER
 10
242.3148622334292668
 20
121.9999999999999858
 30
0.0
 11
242.3148622334292668
 21
126.9999999999999858
 31
0.0
  0
CIRCLE
  5
1BD
100
AcDbEntity
100
AcDbCircle
  8
0
 62
256
370
-1
  6
BYLAYER
 10
203.3148622334292668
 20
106.9999999999999858
 30
0.0
 40
0.6
  0
LINE
  5
1BE
100
AcDbEntity
100
AcDbLine
  8
0
 62
256
370
-1
  6
BYLAYER
 10
242.3148622334292668
 20
91.9999999999999858
 30
0.0
 11
249.3148622334292668
 21
91.9999999999999858
 31
0.0
  0
LINE
  5
1BF
100
AcDbEntity
100
AcDbLine
  8
0
 62
256
370
-1
  6
BYLAYER
 10
185.3148622334292668
 20
91.9999999999999858
 30
0.0
 11
192.3148622334292668
 21
91.9999999999999858
 31
0.0
  0
LINE
  5
1C0
100
AcDbEntity
100
AcDbLine
  8
0
 62
256
370
-1
  6
BYLAYER
 10
249.3148622334292668
 20
91.9999999999999858
 30
0.0
 11
249.3148622334292668
 21
97.9999999999999858
 31
0.0
  0
LINE
  5
1C1
100
AcDbEntity
100
AcDbLine
  8
guides
 62
256
370
-1
  6
BYLAYER
 10
203.3148622334292668
 20
126.9999999999999858
 30
0.0
 11
203.3148622334292668
 21
86.9999999999999858
 31
0.0
  0
LINE
  5
1C2
100
AcDbEntity
100
AcDbLine
  8
0
 62
256
370
-1
  6
BYLAYER
 10
249.3148622334292668
 20
97.9999999999999858
 30
0.0
 11
242.3148622334292668
 21
97.9999999999999858
 31
0.0
  0
LINE
  5
1C3
100
AcDbEntity
100
AcDbLine
  8
0
 62
256
370
-1
  6
BYLAYER
 10
192.3148622334292668
 20
91.9999999999999858
 30
0.0
 11
192.3148622334292668
 21
97.9999999999999858
 31
0.0
  0
LINE
  5
1C4
100
AcDbEntity
100
AcDbLine
  8
0
 62
256
370
-1
  6
BYLAYER
 10
242.3148622334292668
 20
121.9999999999999858
 30
0.0
 11
249.3148622334292668
 21
121.9999999999999858
 31
0.0
  0
LINE
  5
1C5
100
AcDbEntity
100
AcDbLine
  8
0
 62
256
370
-1
  6
BYLAYER
 10
215.8148622334292668
 20
121.9999999999999858
 30
0.0
 11
218.8148622334292668
 21
121.9999999999999858
 31
0.0
  0
LINE
  5
1C6
100
AcDbEntity
100
AcDbLine
  8
0
 62
256
370
-1
  6
BYLAYER
 10
249.3148622334292668
 20
121.9999999999999858
 30
0.0
 11
249.3148622334292668
 21
115.9999999999999858
 31
0.0
  0
LINE
  5
1C7
100
AcDbEntity
100
AcDbLine
  8
0
 62
256
370
-1
  6
BYLAYER
 10
192.3148622334292668
 20
97.9999999999999858
 30
0.0
 11
185.3148622334292668
 21
97.9999999999999858
 31
0.0
  0
LINE
  5
1C8
100
AcDbEntity
100
AcDbLine
  8
0
 62
256
370
-1
  6
BYLAYER
 10
249.3148622334292668
 20
115.9999999999999858
 30
0.0
 11
242.3148622334292668
 21
115.9999999999999858
 31
0.0
  0
LINE
  5
1C9
100
AcDbEntity
100
AcDbLine
  8
guides
 62
256
370
-1
  6
BYLAYER
 10
215.8148622334292668
 20
86.9999999999999716
 30
0.0
 11
215.8148622334292668
 21
126.9999999999999858
 31
0.0
  0
LINE
  5
1CA
100
AcDbEntity
100
AcDbLine
  8
0
 62
256
370
-1
  6
BYLAYER
 10
185.3148622334292668
 20
121.9999999999999858
 30
0.0
 11
192.3148622334292668
 21
121.9999999999999858
 31
0.0
  0
LINE
  5
1CB
100
AcDbEntity
100
AcDbLine
  8
0
 62
256
370
-1
  6
BYLAYER
 10
218.8148622334292668
 20
115.9999999999999858
 30
0.0
 11
215.8148622334292668
 21
115.9999999999999858
 31
0.0
  0
LINE
  5
1CC
100
AcDbEntity
100
AcDbLine
  8
0
 62
256
370
-1
  6
BYLAYER
 10
192.3148622334292668
 20
121.9999999999999858
 30
0.0
 11
192.3148622334292668
 21
115.9999999999999858
 31
0.0
  0
LINE
  5
1CD
100
AcDbEntity
100
AcDbLine
  8
0
 62
256
370
-1
  6
BYLAYER
 10
215.8148622334292668
 20
115.9999999999999858
 30
0.0
 11
215.8148622334292668
 21
121.9999999999999858
 31
0.0
  0
LINE
  5
1CE
100
AcDbEntity
100
AcDbLine
  8
0
 62
256
370
-1
  6
BYLAYER
 10
192.3148622334292668
 20
115.9999999999999858
 30
0.0
 11
185.3148622334292668
 21
115.9999999999999858
 31
0.0
  0
LINE
  5
1CF
100
AcDbEntity
100
AcDbLine
  8
0
 62
256
370
-1
  6
BYLAYER
 10
242.3148622334292668
 20
86.9999999999999858
 30
0.0
 11
161.8148622334292668
 21
87.0
 31
0.0
  0
LINE
  5
1D0
100
AcDbEntity
100
AcDbLine
  8
0
 62
256
370
-1
  6
BYLAYER
 10
215.8148622334292668
 20
91.9999999999999858
 30
0.0
 11
218.8148622334292668
 21
91.9999999999999858
 31
0.0
  0
LINE
  5
1D1
100
AcDbEntity
100
AcDbLine
  8
0
 62
256
370
-1
  6
BYLAYER
 10
242.3148622334292668
 20
126.9999999999999858
 30
0.0
 11
161.8148622334292668
 21
126.9999999999999858
 31
0.0
  0
LINE
  5
1D2
100
AcDbEntity
100
AcDbLine
  8
0
 62
256
370
-1
  6
BYLAYER
 10
218.8148622334292668
 20
97.9999999999999858
 30
0.0
 11
215.8148622334292668
 21
97.9999999999999858
 31
0.0
  0
LINE
  5
1D3
100
AcDbEntity
100
AcDbLine
  8
0
 62
256
370
-1
  6
BYLAYER
 10
215.8148622334292668
 20
97.9999999999999858
 30
0.0
 11
215.8148622334292668
 21
91.9999999999999858
 31
0.0
  0
LINE
  5
1D4
100
AcDbEntity
100
AcDbLine
  8
0
 62
256
370
-1
  6
BYLAYER
 10
217.8148622334292668
 20
103.9999999999999858
 30
0.0
 11
215.8148622334292668
 21
103.9999999999999858
 31
0.0
  0
LINE
  5
1D5
100
AcDbEntity
100
AcDbLine
  8
0
 62
256
370
-1
  6
BYLAYER
 10
215.8148622334292668
 20
103.9999999999999858
 30
0.0
 11
218.8148622334292668
 21
103.9999999999999858
 31
0.0
  0
LINE
  5
1D6
100
AcDbEntity
100
AcDbLine
  8
0
 62
256
370
-1
  6
BYLAYER
 10
218.8148622334292668
 20
109.9999999999999858
 30
0.0
 11
215.8148622334292668
 21
109.9999999999999858
 31
0.0
  0
LINE
  5
1D7
100
AcDbEntity
100
AcDbLine
  8
0
 62
256
370
-1
  6
BYLAYER
 10
215.8148622334292668
 20
109.9999999999999858
 30
0.0
 11
215.8148622334292668
 21
103.9999999999999858
 31
0.0
  0
LINE
  5
1D8
100
AcDbEntity
100
AcDbLine
  8
0
 62
256
370
-1
  6
BYLAYER
 10
218.8148622334292668
 20
91.9999999999999858
 30
0.0
 11
218.8148622334292668
 21
86.9999999999999858
 31
0.0
  0
LINE
  5
1D9
100
AcDbEntity
100
AcDbLine
  8
0
 62
256
370
-1
  6
BYLAYER
 10
218.8148622334292668
 20
97.9999999999999858
 30
0.0
 11
218.8148622334292668
 21
103.9999999999999858
 31
0.0
  0
LINE
  5
1DA
100
AcDbEntity
100
AcDbLine
  8
0
 62
256
370
-1
  6
BYLAYER
 10
218.8148622334292668
 20
109.9999999999999858
 30
0.0
 11
218.8148622334291531
 21
115.9999999999999858
 31
0.0
  0
LINE
  5
1DB
100
AcDbEntity
100
AcDbLine
  8
0
 62
256
370
-1
  6
BYLAYER
 10
218.8148622334291531
 20
121.9999999999999858
 30
0.0
 11
218.8148622334291531
 21
126.9999999999999858
 31
0.0
  0
LINE
  5
1DC
100
AcDbEntity
100
AcDbLine
  8
0
 62
256
370
-1
  6
BYLAYER
 10
158.8148622334292668
 20
103.9999999999999858
 30
0.0
 11
161.8148622334292668
 21
103.9999999999999858
 31
0.0
  0
LINE
  5
1DD
100
AcDbEntity
100
AcDbLine
  8
0
 62
256
370
-1
  6
BYLAYER
 10
161.8148622334292668
 20
92.0
 30
0.0
 11
158.8148622334292668
 21
92.0
 31
0.0
  0
LINE
  5
1DE
100
AcDbEntity
100
AcDbLine
  8
0
 62
256
370
-1
  6
BYLAYER
 10
158.8148622334292668
 20
92.0
 30
0.0
 11
158.8148622334292668
 21
97.9999999999999858
 31
0.0
  0
LINE
  5
1DF
100
AcDbEntity
100
AcDbLine
  8
0
 62
256
370
-1
  6
BYLAYER
 10
158.8148622334292668
 20
97.9999999999999858
 30
0.0
 11
161.8148622334292668
 21
97.9999999999999858
 31
0.0
  0
LINE
  5
1E0
100
AcDbEntity
100
AcDbLine
  8
0
 62
256
370
-1
  6
BYLAYER
 10
161.8148622334292668
 20
121.9999999999999858
 30
0.0
 11
158.8148622334292668
 21
121.9999999999999858
 31
0.0
  0
LINE
  5
1E1
100
AcDbEntity
100
AcDbLine
  8
0
 62
256
370
-1
  6
BYLAYER
 10
158.8148622334292668
 20
121.9999999999999858
 30
0.0
 11
158.8148622334292668
 21
115.9999999999999858
 31
0.0
  0
LINE
  5
1E2
100
AcDbEntity
100
AcDbLine
  8
0
 62
256
370
-1
  6
BYLAYER
 10
158.8148622334292668
 20
115.9999999999999858
 30
0.0
 11
161.8148622334292668
 21
115.9999999999999858
 31
0.0
  0
LINE
  5
1E3
100
AcDbEntity
100
AcDbLine
  8
0
 62
256
370
-1
  6
BYLAYER
 10
159.8148622334292668
 20
109.9999999999999858
 30
0.0
 11
161.8148622334292668
 21
109.9999999999999858
 31
0.0
  0
LINE
  5
1E4
100
AcDbEntity
100
AcDbLine
  8
0
 62
256
370
-1
  6
BYLAYER
 10
161.8148622334292668
 20
109.9999999999999858
 30
0.0
 11
158.8148622334292668
 21
110.0000000000000142
 31
0.0
  0
LINE
  5
1E5
100
AcDbEntity
100
AcDbLine
  8
0
 62
256
370
-1
  6
BYLAYER
 10
158.8148622334292668
 20
110.0000000000000142
 30
0.0
 11
158.8148622334292668
 21
103.9999999999999858
 31
0.0
  0
LINE
  5
1E6
100
AcDbEntity
100
AcDbLine
  8
0
 62
256
370
-1
  6
BYLAYER
 10
161.8148622334292668
 20
87.0
 30
0.0
 11
161.8148622334292668
 21
92.0
 31
0.0
  0
LINE
  5
1E7
100
AcDbEntity
100
AcDbLine
  8
guides
 62
256
370
-1
  6
BYLAYER
 10
174.3148622334292668
 20
87.0
 30
0.0
 11
174.3148622334292668
 21
126.9999999999999858
 31
0.0
  0
LINE
  5
1E8
100
AcDbEntity
100
AcDbLine
  8
0
 62
256
370
-1
  6
BYLAYER
 10
161.8148622334292668
 20
97.9999999999999858
 30
0.0
 11
161.8148622334292668
 21
103.9999999999999858
 31
0.0
  0
LINE
  5
1E9
100
AcDbEntity
100
AcDbLine
  8
0
 62
256
370
-1
  6
BYLAYER
 10
161.8148622334292668
 20
109.9999999999999858
 30
0.0
 11
161.8148622334292668
 21
115.9999999999999858
 31
0.0
  0
LINE
  5
1EA
100
AcDbEntity
100
AcDbLine
  8
0
 62
256
370
-1
  6
BYLAYER
 10
161.8148622334292668
 20
121.9999999999999858
 30
0.0
 11
161.8148622334292668
 21
126.9999999999999858
 31
0.0
  0
LINE
  5
1EB
100
AcDbEntity
100
AcDbLine
  8
guides
 62
256
370
-1
  6
BYLAYER
 10
231.3148622334292668
 20
87.0
 30
0.0
 11
231.3148622334292668
 21
126.9999999999999858
 31
0.0
  0
LINE
  5
1EC
100
AcDbEntity
100
AcDbLine
  8
0
 62
256
370
-1
  6
BYLAYER
 10
185.3148622334292668
 20
109.9999999999999858
 30
0.0
 11
192.3148622334292668
 21
109.9999999999999858
 31
0.0
  0
LINE
  5
1ED
100
AcDbEntity
100
AcDbLine
  8
0
 62
256
370
-1
  6
BYLAYER
 10
192.3148622334292668
 20
109.9999999999999858
 30
0.0
 11
192.3148622334292668
 21
103.9999999999999858
 31
0.0
  0
LINE
  5
1EE
100
AcDbEntity
100
AcDbLine
  8
0
 62
256
370
-1
  6
BYLAYER
 10
242.3148622334292668
 20
109.9999999999999858
 30
0.0
 11
249.3148622334292668
 21
109.9999999999999858
 31
0.0
  0
LINE
  5
1EF
100
AcDbEntity
100
AcDbLine
  8
0
 62
256
370
-1
  6
BYLAYER
 10
185.3148622334292668
 20
86.9999999999999858
 30
0.0
 11
185.3148622334292668
 21
91.9999999999999858
 31
0.0
  0
LINE
  5
1F0
100
AcDbEntity
100
AcDbLine
  8
0
 62
256
370
-1
  6
BYLAYER
 10
249.3148622334292668
 20
109.9999999999999858
 30
0.0
 11
249.3148622334292668
 21
103.9999999999999858
 31
0.0
  0
LINE
  5
1F1
100
AcDbEntity
100
AcDbLine
  8
0
 62
256
370
-1
  6
BYLAYER
 10
185.3148622334292668
 20
97.9999999999999858
 30
0.0
 11
185.3148622334292668
 21
103.9999999999999858
 31
0.0
  0
LINE
  5
1F2
100
AcDbEntity
100
AcDbLine
  8
0
 62
256
370
-1
  6
BYLAYER
 10
242.3148622334292668
 20
86.9999999999999858
 30
0.0
 11
242.3148622334292668
 21
91.9999999999999858
 31
0.0
  0
LINE
  5
1F3
100
AcDbEntity
100
AcDbLine
  8
0
 62
256
370
-1
  6
BYLAYER
 10
192.3148622334292668
 20
103.9999999999999858
 30
0.0
 11
185.3148622334292668
 21
103.9999999999999858
 31
0.0
  0
LINE
  5
1F4
100
AcDbEntity
100
AcDbLine
  8
0
 62
256
370
-1
  6
BYLAYER
 10
242.3148622334292668
 20
97.9999999999999858
 30
0.0
 11
242.3148622334292668
 21
103.9999999999999858
 31
0.0
  0
LINE
  5
1F5
100
AcDbEntity
100
AcDbLine
  8
0
 62
256
370
-1
  6
BYLAYER
 10
185.3148622334292668
 20
109.9999999999999858
 30
0.0
 11
185.3148622334292668
 21
115.9999999999999858
 31
0.0
  0
LINE
  5
1F6
100
AcDbEntity
100
AcDbLine
  8
0
 62
256
370
-1
  6
BYLAYER
 10
249.3148622334292668
 20
103.9999999999999858
 30
0.0
 11
242.3148622334292668
 21
103.9999999999999858
 31
0.0
  0
CIRCLE
  5
1F7
100
AcDbEntity
100
AcDbCircle
  8
0
 62
256
370
-1
  6
BYLAYER
 10
203.3148622334292668
 20
106.9999999999999858
 30
0.0
 40
0.6
  0
LINE
  5
1F8
100
AcDbEntity
100
AcDbLine
  8
0
 62
256
370
-1
  6
BYLAYER
 10
106.4999999999999716
 20
76.0
 30
0.0
 11
109.4999999999999716
 21
76.0
 31
0.0
  0
LINE
  5
1F9
100
AcDbEntity
100
AcDbLine
  8
0
 62
256
370
-1
  6
BYLAYER
 10
109.4999999999999716
 20
76.0
 30
0.0
 11
109.4999999999999716
 21
82.0
 31
0.0
  0
LINE
  5
1FA
100
AcDbEntity
100
AcDbLine
  8
0
 62
256
370
-1
  6
BYLAYER
 10
107.4999999999999716
 20
70.0
 30
0.0
 11
109.4999999999999716
 21
70.0
 31
0.0
  0
LINE
  5
1FB
100
AcDbEntity
100
AcDbLine
  8
0
 62
256
370
-1
  6
BYLAYER
 10
109.4999999999999716
 20
70.0
 30
0.0
 11
106.4999999999999716
 21
70.0000000000000142
 31
0.0
  0
LINE
  5
1FC
100
AcDbEntity
100
AcDbLine
  8
0
 62
256
370
-1
  6
BYLAYER
 10
106.4999999999999716
 20
70.0000000000000142
 30
0.0
 11
106.4999999999999716
 21
64.0
 31
0.0
  0
LINE
  5
1FD
100
AcDbEntity
100
AcDbLine
  8
0
 62
256
370
-1
  6
BYLAYER
 10
106.4999999999999716
 20
64.0
 30
0.0
 11
109.4999999999999716
 21
64.0
 31
0.0
  0
LINE
  5
1FE
100
AcDbEntity
100
AcDbLine
  8
0
 62
256
370
-1
  6
BYLAYER
 10
121.9999999999999716
 20
47.0
 30
0.0
 11
99.9999999999999716
 21
47.0
 31
0.0
  0
LINE
  5
1FF
100
AcDbEntity
100
AcDbLine
  8
0
 62
256
370
-1
  6
BYLAYER
 10
109.4999999999999716
 20
64.0
 30
0.0
 11
109.4999999999999716
 21
70.0
 31
0.0
  0
LINE
  5
200
100
AcDbEntity
100
AcDbLine
  8
0
 62
256
370
-1
  6
BYLAYER
 10
99.4494897427831575
 20
75.5
 30
0.0
 11
99.4999999999999716
 21
75.5
 31
0.0
  0
LINE
  5
201
100
AcDbEntity
100
AcDbLine
  8
0
 62
256
370
-1
  6
BYLAYER
 10
134.4999999999999716
 20
70.0
 30
0.0
 11
137.4999999999999716
 21
70.0000000000000142
 31
0.0
  0
LINE
  5
202
100
AcDbEntity
100
AcDbLine
  8
0
 62
256
370
-1
  6
BYLAYER
 10
137.4999999999999716
 20
64.0
 30
0.0
 11
134.4999999999999716
 21
64.0
 31
0.0
  0
LINE
  5
203
100
AcDbEntity
100
AcDbLine
  8
guides
 62
256
370
-1
  6
BYLAYER
 10
134.4999999999999716
 20
87.0
 30
0.0
 11
134.4999999999999716
 21
47.0
 31
0.0
  0
LINE
  5
204
100
AcDbEntity
100
AcDbLine
  8
0
 62
256
370
-1
  6
BYLAYER
 10
132.9999999999999716
 20
52.0
 30
0.0
 11
138.9999999999999716
 21
52.0
 31
0.0
  0
LINE
  5
205
100
AcDbEntity
100
AcDbLine
  8
0
 62
256
370
-1
  6
BYLAYER
 10
138.9999999999999716
 20
52.0
 30
0.0
 11
138.9999999999999716
 21
58.0
 31
0.0
  0
LINE
  5
206
100
AcDbEntity
100
AcDbLine
  8
0
 62
256
370
-1
  6
BYLAYER
 10
138.9999999999999716
 20
58.0
 30
0.0
 11
132.9999999999999716
 21
58.0
 31
0.0
  0
LINE
  5
207
100
AcDbEntity
100
AcDbLine
  8
0
 62
256
370
-1
  6
BYLAYER
 10
132.9999999999999716
 20
58.0
 30
0.0
 11
132.9999999999999716
 21
52.0
 31
0.0
  0
LINE
  5
208
100
AcDbEntity
100
AcDbLine
  8
0
 62
256
370
-1
  6
BYLAYER
 10
132.9999999999999716
 20
64.0
 30
0.0
 11
138.9999999999999716
 21
64.0
 31
0.0
  0
LINE
  5
209
100
AcDbEntity
100
AcDbLine
  8
0
 62
256
370
-1
  6
BYLAYER
 10
138.9999999999999716
 20
64.0
 30
0.0
 11
138.9999999999999716
 21
70.0
 31
0.0
  0
LINE
  5
20A
100
AcDbEntity
100
AcDbLine
  8
0
 62
256
370
-1
  6
BYLAYER
 10
138.9999999999999716
 20
70.0
 30
0.0
 11
132.9999999999999716
 21
70.0
 31
0.0
  0
LINE
  5
20B
100
AcDbEntity
100
AcDbLine
  8
0
 62
256
370
-1
  6
BYLAYER
 10
132.9999999999999716
 20
70.0
 30
0.0
 11
132.9999999999999716
 21
64.0
 31
0.0
  0
LINE
  5
20C
100
AcDbEntity
100
AcDbLine
  8
0
 62
256
370
-1
  6
BYLAYER
 10
132.9999999999999716
 20
76.0
 30
0.0
 11
138.9999999999999716
 21
76.0
 31
0.0
  0
LINE
  5
20D
100
AcDbEntity
100
AcDbLine
  8
0
 62
256
370
-1
  6
BYLAYER
 10
138.9999999999999716
 20
76.0
 30
0.0
 11
138.9999999999999716
 21
82.0
 31
0.0
  0
LINE
  5
20E
100
AcDbEntity
100
AcDbLine
  8
0
 62
256
370
-1
  6
BYLAYER
 10
138.9999999999999716
 20
82.0
 30
0.0
 11
132.9999999999999716
 21
82.0
 31
0.0
  0
LINE
  5
20F
100
AcDbEntity
100
AcDbLine
  8
0
 62
256
370
-1
  6
BYLAYER
 10
132.9999999999999716
 20
82.0
 30
0.0
 11
132.9999999999999716
 21
76.0
 31
0.0
  0
LINE
  5
210
100
AcDbEntity
100
AcDbLine
  8
0
 62
256
370
-1
  6
BYLAYER
 10
121.9999999999999716
 20
47.0
 30
0.0
 11
143.9999999999999716
 21
47.0
 31
0.0
  0
LINE
  5
211
100
AcDbEntity
100
AcDbLine
  8
0
 62
256
370
-1
  6
BYLAYER
 10
141.9999999999999716
 20
87.0
 30
0.0
 11
121.9999999999999716
 21
87.0
 31
0.0
  0
ARC
  5
212
100
AcDbEntity
  8
0
 62
256
370
-1
  6
BYLAYER
100
AcDbCircle
 10
146.9999999999999716
 20
77.0
 30
0.0
 40
2.499999999999996
100
AcDbArc
 50
332.9643082105877738
 51
207.0356917894123399
  0
LINE
  5
213
100
AcDbEntity
100
AcDbLine
  8
0
 62
256
370
-1
  6
BYLAYER
 10
149.4494897427831575
 20
75.5
 30
0.0
 11
151.7499999999999716
 21
75.5
 31
0.0
  0
LINE
  5
214
100
AcDbEntity
100
AcDbLine
  8
0
 62
256
370
-1
  6
BYLAYER
 10
151.9999999999999716
 20
75.5
 30
0.0
 11
151.9999999999999716
 21
75.5
 31
0.0
  0
LINE
  5
215
100
AcDbEntity
100
AcDbLine
  8
0
 62
256
370
-1
  6
BYLAYER
 10
151.9999999999999716
 20
75.75
 30
0.0
 11
151.9999999999999716
 21
82.0
 31
0.0
  0
ARC
  5
216
100
AcDbEntity
  8
0
 62
256
370
-1
  6
BYLAYER
100
AcDbCircle
 10
146.9999999999999716
 20
82.0
 30
0.0
 40
5.0
100
AcDbArc
 50
0.0
 51
90.0
  0
LINE
  5
217
100
AcDbEntity
100
AcDbLine
  8
0
 62
256
370
-1
  6
BYLAYER
 10
146.9999999999999716
 20
87.0
 30
0.0
 11
141.9999999999999716
 21
87.0
 31
0.0
  0
LINE
  5
218
100
AcDbEntity
100
AcDbLine
  8
0
 62
256
370
-1
  6
BYLAYER
 10
144.2499999999999716
 20
47.25
 30
0.0
 11
144.2499999999999716
 21
75.25
 31
0.0
  0
ARC
  5
219
100
AcDbEntity
  8
0
 62
256
370
-1
  6
BYLAYER
100
AcDbCircle
 10
144.5505102572168141
 20
75.75
 30
0.0
 40
0.25
100
AcDbArc
 50
270.0
 51
27.0356917894122972
  0
ARC
  5
21A
100
AcDbEntity
  8
0
 62
256
370
-1
  6
BYLAYER
100
AcDbCircle
 10
149.4494897427831575
 20
75.75
 30
0.0
 40
0.25
100
AcDbArc
 50
152.9643082105874043
 51
270.0
  0
ARC
  5
21B
100
AcDbEntity
  8
0
 62
256
370
-1
  6
BYLAYER
100
AcDbCircle
 10
151.7499999999999716
 20
75.75
 30
0.0
 40
0.25
100
AcDbArc
 50
270.0
 51
0.0
  0
ARC
  5
21C
100
AcDbEntity
  8
0
 62
256
370
-1
  6
BYLAYER
100
AcDbCircle
 10
144.4999999999999716
 20
75.25
 30
0.0
 40
0.25
100
AcDbArc
 50
90.0
 51
180.0
  0
ARC
  5
21D
100
AcDbEntity
  8
0
 62
256
370
-1
  6
BYLAYER
100
AcDbCircle
 10
143.9999999999999716
 20
47.25
 30
0.0
 40
0.25
100
AcDbArc
 50
270.0
 51
0.0
  0
LINE
  5
21E
100
AcDbEntity
100
AcDbLine
  8
0
 62
256
370
-1
  6
BYLAYER
 10
144.5505102572168141
 20
75.5
 30
0.0
 11
144.4999999999999716
 21
75.5
 31
0.0
  0
LINE
  5
21F
100
AcDbEntity
100
AcDbLine
  8
0
 62
256
370
-1
  6
BYLAYER
 10
105.4999999999999716
 20
79.9999999999999858
 30
0.0
 11
106.4999999999999716
 21
79.9999999999999858
 31
0.0
  0
CIRCLE
  5
220
100
AcDbEntity
100
AcDbCircle
  8
0
 62
256
370
-1
  6
BYLAYER
 10
121.9999999999999716
 20
67.0
 30
0.0
 40
0.6
  0
LINE
  5
221
100
AcDbEntity
100
AcDbLine
  8
0
 62
256
370
-1
  6
BYLAYER
 10
101.9999999999999716
 20
87.0
 30
0.0
 11
121.9999999999999716
 21
87.0
 31
0.0
  0
LINE
  5
222
100
AcDbEntity
100
AcDbLine
  8
0
 62
256
370
-1
  6
BYLAYER
 10
99.4999999999999716
 20
66.0
 30
0.0
 11
99.4999999999999716
 21
66.6401258849320186
 31
0.0
  0
LINE
  5
223
100
AcDbEntity
100
AcDbLine
  8
0
 62
256
370
-1
  6
BYLAYER
 10
106.4999999999999716
 20
77.9999999999999858
 30
0.0
 11
105.4999999999999716
 21
77.9999999999999858
 31
0.0
  0
DIMENSION
  5
224
100
AcDbEntity
  8
dimensions
 62
256
370
-1
  6
BYLAYER
100
AcDbDimension
 10
119.3148622334292384
 20
48.6712000233948316
 30
0.0
 11
125.0843066778736699
 21
50.5462000233948245
 31
0.0
 70
1
 71
8
 72
2
 41
1.0
 42
0.0
  1

  3
Standard
100
AcDbAlignedDimension
 13
119.3148622334292384
 23
62.7892257744677806
 33
0.0
 14
122.514862233429227
 24
62.7892257744677664
 34
0.0
1001
ACAD
1000
DSTYLE
1002
{
1070
144
1040
1
1002
}
  0
CIRCLE
  5
225
100
AcDbEntity
100
AcDbCircle
  8
0
 62
256
370
-1
  6
BYLAYER
 10
121.9999999999999716
 20
67.0
 30
0.0
 40
0.6
  0
LINE
  5
226
100
AcDbEntity
100
AcDbLine
  8
guides
 62
256
370
-1
  6
BYLAYER
 10
109.4999999999999716
 20
87.0
 30
0.0
 11
109.4999999999999716
 21
47.0
 31
0.0
  0
LINE
  5
227
100
AcDbEntity
100
AcDbLine
  8
0
 62
256
370
-1
  6
BYLAYER
 10
105.4999999999999716
 20
77.9999999999999858
 30
0.0
 11
105.4999999999999716
 21
79.9999999999999858
 31
0.0
  0
LINE
  5
228
100
AcDbEntity
100
AcDbLine
  8
0
 62
256
370
-1
  6
BYLAYER
 10
134.4999999999999716
 20
82.0
 30
0.0
 11
137.4999999999999716
 21
82.0
 31
0.0
  0
ARC
  5
229
100
AcDbEntity
  8
0
 62
256
370
-1
  6
BYLAYER
100
AcDbCircle
 10
96.9999999999999716
 20
77.0
 30
0.0
 40
2.499999999999996
100
AcDbArc
 50
332.9643082105877738
 51
207.0356917894123399
  0
LINE
  5
22A
100
AcDbEntity
100
AcDbLine
  8
0
 62
256
370
-1
  6
BYLAYER
 10
137.4999999999999716
 20
76.0
 30
0.0
 11
134.4999999999999716
 21
76.0
 31
0.0
  0
LINE
  5
22B
100
AcDbEntity
100
AcDbLine
  8
0
 62
256
370
-1
  6
BYLAYER
 10
106.4999999999999716
 20
82.0
 30
0.0
 11
106.4999999999999716
 21
79.9999999999999858
 31
0.0
  0
LINE
  5
22C
100
AcDbEntity
100
AcDbLine
  8
0
 62
256
370
-1
  6
BYLAYER
 10
136.4999999999999716
 20
70.0
 30
0.0
 11
134.4999999999999716
 21
70.0
 31
0.0
  0
LINE
  5
22D
100
AcDbEntity
100
AcDbLine
  8
0
 62
256
370
-1
  6
BYLAYER
 10
94.5505102572168141
 20
75.5
 30
0.0
 11
92.2499999999999716
 21
75.5
 31
0.0
  0
LINE
  5
22E
100
AcDbEntity
100
AcDbLine
  8
0
 62
256
370
-1
  6
BYLAYER
 10
106.4999999999999716
 20
77.9999999999999858
 30
0.0
 11
106.4999999999999716
 21
76.0
 31
0.0
  0
LINE
  5
22F
100
AcDbEntity
100
AcDbLine
  8
0
 62
256
370
-1
  6
BYLAYER
 10
91.9999999999999716
 20
75.5
 30
0.0
 11
91.9999999999999716
 21
75.5
 31
0.0
  0
LINE
  5
230
100
AcDbEntity
100
AcDbLine
  8
0
 62
256
370
-1
  6
BYLAYER
 10
106.4999999999999716
 20
53.9999999999999858
 30
0.0
 11
105.4999999999999716
 21
53.9999999999999858
 31
0.0
  0
LINE
  5
231
100
AcDbEntity
100
AcDbLine
  8
0
 62
256
370
-1
  6
BYLAYER
 10
91.9999999999999716
 20
75.75
 30
0.0
 11
91.9999999999999716
 21
82.0
 31
0.0
  0
LINE
  5
232
100
AcDbEntity
100
AcDbLine
  8
0
 62
256
370
-1
  6
BYLAYER
 10
105.4999999999999716
 20
53.9999999999999858
 30
0.0
 11
105.4999999999999716
 21
55.9999999999999858
 31
0.0
  0
ARC
  5
233
100
AcDbEntity
  8
0
 62
256
370
-1
  6
BYLAYER
100
AcDbCircle
 10
96.9999999999999716
 20
82.0
 30
0.0
 40
5.0
100
AcDbArc
 50
89.9999999999999858
 51
180.0
  0
LINE
  5
234
100
AcDbEntity
100
AcDbLine
  8
0
 62
256
370
-1
  6
BYLAYER
 10
106.4999999999999716
 20
58.0
 30
0.0
 11
106.4999999999999716
 21
55.9999999999999858
 31
0.0
  0
LINE
  5
235
100
AcDbEntity
100
AcDbLine
  8
0
 62
256
370
-1
  6
BYLAYER
 10
96.9999999999999716
 20
87.0
 30
0.0
 11
101.9999999999999716
 21
87.0
 31
0.0
  0
LINE
  5
236
100
AcDbEntity
100
AcDbLine
  8
0
 62
256
370
-1
  6
BYLAYER
 10
106.4999999999999716
 20
53.9999999999999858
 30
0.0
 11
106.4999999999999716
 21
52.0
 31
0.0
  0
LINE
  5
237
100
AcDbEntity
100
AcDbLine
  8
0
 62
256
370
-1
  6
BYLAYER
 10
99.75
 20
47.25
 30
0.0
 11
99.7499999999999716
 21
75.25
 31
0.0
  0
LINE
  5
238
100
AcDbEntity
100
AcDbLine
  8
0
 62
256
370
-1
  6
BYLAYER
 10
105.4999999999999716
 20
55.9999999999999858
 30
0.0
 11
106.4999999999999716
 21
55.9999999999999858
 31
0.0
  0
ARC
  5
239
100
AcDbEntity
  8
0
 62
256
370
-1
  6
BYLAYER
100
AcDbCircle
 10
99.4494897427831575
 20
75.7500000000000142
 30
0.0
 40
0.25
100
AcDbArc
 50
152.9643082105876886
 51
270.0
  0
ARC
  5
23A
100
AcDbEntity
  8
0
 62
256
370
-1
  6
BYLAYER
100
AcDbCircle
 10
94.5505102572168141
 20
75.75
 30
0.0
 40
0.25
100
AcDbArc
 50
270.0
 51
27.0356917894126383
  0
ARC
  5
23B
100
AcDbEntity
  8
0
 62
256
370
-1
  6
BYLAYER
100
AcDbCircle
 10
92.2499999999999716
 20
75.7500000000000142
 30
0.0
 40
0.25
100
AcDbArc
 50
180.0
 51
270.0
  0
ARC
  5
23C
100
AcDbEntity
  8
0
 62
256
370
-1
  6
BYLAYER
100
AcDbCircle
 10
99.4999999999999716
 20
75.25
 30
0.0
 40
0.25
100
AcDbArc
 50
0.0
 51
89.9999999999999858
  0
ARC
  5
23D
100
AcDbEntity
  8
0
 62
256
370
-1
  6
BYLAYER
100
AcDbCircle
 10
99.9999999999999716
 20
47.25
 30
0.0
 40
0.25
100
AcDbArc
 50
180.0
 51
270.0
  0
LINE
  5
23E
100
AcDbEntity
100
AcDbLine
  8
0
 62
256
370
-1
  6
BYLAYER
 10
109.4999999999999716
 20
52.0
 30
0.0
 11
106.4999999999999716
 21
52.0
 31
0.0
  0
LINE
  5
23F
100
AcDbEntity
100
AcDbLine
  8
0
 62
256
370
-1
  6
BYLAYER
 10
106.4999999999999716
 20
58.0
 30
0.0
 11
109.4999999999999716
 21
58.0
 31
0.0
  0
LINE
  5
240
100
AcDbEntity
100
AcDbLine
  8
0
 62
256
370
-1
  6
BYLAYER
 10
109.4999999999999716
 20
58.0
 30
0.0
 11
109.4999999999999716
 21
52.0
 31
0.0
  0
LINE
  5
241
100
AcDbEntity
100
AcDbLine
  8
0
 62
256
370
-1
  6
BYLAYER
 10
109.4999999999999716
 20
82.0
 30
0.0
 11
106.4999999999999716
 21
82.0
 31
0.0
  0
LINE
  5
242
100
AcDbEntity
100
AcDbLine
  8
0
 62
256
370
-1
  6
BYLAYER
 10
106.4999999999999147
 20
115.9999999999999858
 30
0.0
 11
109.4999999999999147
 21
115.9999999999999858
 31
0.0
  0
LINE
  5
243
100
AcDbEntity
100
AcDbLine
  8
0
 62
256
370
-1
  6
BYLAYER
 10
109.4999999999999147
 20
115.9999999999999858
 30
0.0
 11
109.4999999999999147
 21
121.9999999999999858
 31
0.0
  0
LINE
  5
244
100
AcDbEntity
100
AcDbLine
  8
0
 62
256
370
-1
  6
BYLAYER
 10
107.4999999999999147
 20
109.9999999999999858
 30
0.0
 11
109.4999999999999147
 21
109.9999999999999858
 31
0.0
  0
LINE
  5
245
100
AcDbEntity
100
AcDbLine
  8
0
 62
256
370
-1
  6
BYLAYER
 10
109.4999999999999147
 20
109.9999999999999858
 30
0.0
 11
106.4999999999999147
 21
110.0000000000000142
 31
0.0
  0
LINE
  5
246
100
AcDbEntity
100
AcDbLine
  8
0
 62
256
370
-1
  6
BYLAYER
 10
106.4999999999999147
 20
110.0000000000000142
 30
0.0
 11
106.4999999999999147
 21
103.9999999999999858
 31
0.0
  0
LINE
  5
247
100
AcDbEntity
100
AcDbLine
  8
0
 62
256
370
-1
  6
BYLAYER
 10
106.4999999999999147
 20
103.9999999999999858
 30
0.0
 11
109.4999999999999147
 21
103.9999999999999858
 31
0.0
  0
LINE
  5
248
100
AcDbEntity
100
AcDbLine
  8
0
 62
256
370
-1
  6
BYLAYER
 10
121.9999999999999147
 20
87.0
 30
0.0
 11
99.9999999999999147
 21
87.0
 31
0.0
  0
LINE
  5
249
100
AcDbEntity
100
AcDbLine
  8
0
 62
256
370
-1
  6
BYLAYER
 10
109.4999999999999147
 20
103.9999999999999858
 30
0.0
 11
109.4999999999999147
 21
109.9999999999999858
 31
0.0
  0
LINE
  5
24A
100
AcDbEntity
100
AcDbLine
  8
0
 62
256
370
-1
  6
BYLAYER
 10
99.4494897427831006
 20
115.4999999999999858
 30
0.0
 11
99.4999999999999147
 21
115.4999999999999858
 31
0.0
  0
LINE
  5
24B
100
AcDbEntity
100
AcDbLine
  8
0
 62
256
370
-1
  6
BYLAYER
 10
134.4999999999999147
 20
109.9999999999999858
 30
0.0
 11
137.4999999999999147
 21
110.0000000000000142
 31
0.0
  0
LINE
  5
24C
100
AcDbEntity
100
AcDbLine
  8
0
 62
256
370
-1
  6
BYLAYER
 10
137.4999999999999147
 20
103.9999999999999858
 30
0.0
 11
134.4999999999999147
 21
103.9999999999999858
 31
0.0
  0
LINE
  5
24D
100
AcDbEntity
100
AcDbLine
  8
guides
 62
256
370
-1
  6
BYLAYER
 10
134.4999999999999147
 20
126.9999999999999858
 30
0.0
 11
134.4999999999999147
 21
87.0
 31
0.0
  0
LINE
  5
24E
100
AcDbEntity
100
AcDbLine
  8
0
 62
256
370
-1
  6
BYLAYER
 10
132.9999999999999147
 20
92.0
 30
0.0
 11
138.9999999999999147
 21
92.0
 31
0.0
  0
LINE
  5
24F
100
AcDbEntity
100
AcDbLine
  8
0
 62
256
370
-1
  6
BYLAYER
 10
138.9999999999999147
 20
92.0
 30
0.0
 11
138.9999999999999147
 21
97.9999999999999858
 31
0.0
  0
LINE
  5
250
100
AcDbEntity
100
AcDbLine
  8
0
 62
256
370
-1
  6
BYLAYER
 10
138.9999999999999147
 20
97.9999999999999858
 30
0.0
 11
132.9999999999999147
 21
97.9999999999999858
 31
0.0
  0
LINE
  5
251
100
AcDbEntity
100
AcDbLine
  8
0
 62
256
370
-1
  6
BYLAYER
 10
132.9999999999999147
 20
97.9999999999999858
 30
0.0
 11
132.9999999999999147
 21
92.0
 31
0.0
  0
LINE
  5
252
100
AcDbEntity
100
AcDbLine
  8
0
 62
256
370
-1
  6
BYLAYER
 10
132.9999999999999147
 20
103.9999999999999858
 30
0.0
 11
138.9999999999999147
 21
103.9999999999999858
 31
0.0
  0
LINE
  5
253
100
AcDbEntity
100
AcDbLine
  8
0
 62
256
370
-1
  6
BYLAYER
 10
138.9999999999999147
 20
103.9999999999999858
 30
0.0
 11
138.9999999999999147
 21
109.9999999999999858
 31
0.0
  0
LINE
  5
254
100
AcDbEntity
100
AcDbLine
  8
0
 62
256
370
-1
  6
BYLAYER
 10
138.9999999999999147
 20
109.9999999999999858
 30
0.0
 11
132.9999999999999147
 21
109.9999999999999858
 31
0.0
  0
LINE
  5
255
100
AcDbEntity
100
AcDbLine
  8
0
 62
256
370
-1
  6
BYLAYER
 10
132.9999999999999147
 20
109.9999999999999858
 30
0.0
 11
132.9999999999999147
 21
103.9999999999999858
 31
0.0
  0
LINE
  5
256
100
AcDbEntity
100
AcDbLine
  8
0
 62
256
370
-1
  6
BYLAYER
 10
132.9999999999999147
 20
115.9999999999999858
 30
0.0
 11
138.9999999999999147
 21
115.9999999999999858
 31
0.0
  0
LINE
  5
257
100
AcDbEntity
100
AcDbLine
  8
0
 62
256
370
-1
  6
BYLAYER
 10
138.9999999999999147
 20
115.9999999999999858
 30
0.0
 11
138.9999999999999147
 21
121.9999999999999858
 31
0.0
  0
LINE
  5
258
100
AcDbEntity
100
AcDbLine
  8
0
 62
256
370
-1
  6
BYLAYER
 10
138.9999999999999147
 20
121.9999999999999858
 30
0.0
 11
132.9999999999999147
 21
121.9999999999999858
 31
0.0
  0
LINE
  5
259
100
AcDbEntity
100
AcDbLine
  8
0
 62
256
370
-1
  6
BYLAYER
 10
132.9999999999999147
 20
121.9999999999999858
 30
0.0
 11
132.9999999999999147
 21
115.9999999999999858
 31
0.0
  0
LINE
  5
25A
100
AcDbEntity
100
AcDbLine
  8
0
 62
256
370
-1
  6
BYLAYER
 10
121.9999999999999147
 20
87.0
 30
0.0
 11
143.9999999999999147
 21
87.0
 31
0.0
  0
LINE
  5
25B
100
AcDbEntity
100
AcDbLine
  8
0
 62
256
370
-1
  6
BYLAYER
 10
141.9999999999999147
 20
126.9999999999999858
 30
0.0
 11
121.9999999999999147
 21
126.9999999999999858
 31
0.0
  0
ARC
  5
25C
100
AcDbEntity
  8
0
 62
256
370
-1
  6
BYLAYER
100
AcDbCircle
 10
146.9999999999999147
 20
116.9999999999999858
 30
0.0
 40
2.499999999999996
100
AcDbArc
 50
332.9643082105877738
 51
207.0356917894123399
  0
LINE
  5
25D
100
AcDbEntity
100
AcDbLine
  8
0
 62
256
370
-1
  6
BYLAYER
 10
149.4494897427831006
 20
115.4999999999999858
 30
0.0
 11
151.7499999999999147
 21
115.4999999999999858
 31
0.0
  0
LINE
  5
25E
100
AcDbEntity
100
AcDbLine
  8
0
 62
256
370
-1
  6
BYLAYER
 10
151.9999999999999147
 20
115.4999999999999858
 30
0.0
 11
151.9999999999999147
 21
115.4999999999999858
 31
0.0
  0
LINE
  5
25F
100
AcDbEntity
100
AcDbLine
  8
0
 62
256
370
-1
  6
BYLAYER
 10
151.9999999999999147
 20
115.7499999999999858
 30
0.0
 11
151.9999999999999147
 21
121.9999999999999858
 31
0.0
  0
ARC
  5
260
100
AcDbEntity
  8
0
 62
256
370
-1
  6
BYLAYER
100
AcDbCircle
 10
146.9999999999999147
 20
121.9999999999999858
 30
0.0
 40
5.0
100
AcDbArc
 50
0.0
 51
90.0
  0
LINE
  5
261
100
AcDbEntity
100
AcDbLine
  8
0
 62
256
370
-1
  6
BYLAYER
 10
146.9999999999999147
 20
126.9999999999999858
 30
0.0
 11
141.9999999999999147
 21
126.9999999999999858
 31
0.0
  0
LINE
  5
262
100
AcDbEntity
100
AcDbLine
  8
0
 62
256
370
-1
  6
BYLAYER
 10
144.2499999999999147
 20
87.25
 30
0.0
 11
144.2499999999999147
 21
115.2499999999999858
 31
0.0
  0
ARC
  5
263
100
AcDbEntity
  8
0
 62
256
370
-1
  6
BYLAYER
100
AcDbCircle
 10
144.5505102572167573
 20
115.7499999999999858
 30
0.0
 40
0.25
100
AcDbArc
 50
270.0
 51
27.0356917894122972
  0
ARC
  5
264
100
AcDbEntity
  8
0
 62
256
370
-1
  6
BYLAYER
100
AcDbCircle
 10
149.4494897427831006
 20
115.7499999999999858
 30
0.0
 40
0.25
100
AcDbArc
 50
152.9643082105874043
 51
270.0
  0
ARC
  5
265
100
AcDbEntity
  8
0
 62
256
370
-1
  6
BYLAYER
100
AcDbCircle
 10
151.7499999999999147
 20
115.7499999999999858
 30
0.0
 40
0.25
100
AcDbArc
 50
270.0
 51
0.0
  0
ARC
  5
266
100
AcDbEntity
  8
0
 62
256
370
-1
  6
BYLAYER
100
AcDbCircle
 10
144.4999999999999147
 20
115.2499999999999858
 30
0.0
 40
0.25
100
AcDbArc
 50
90.0
 51
180.0
  0
ARC
  5
267
100
AcDbEntity
  8
0
 62
256
370
-1
  6
BYLAYER
100
AcDbCircle
 10
143.9999999999999147
 20
87.25
 30
0.0
 40
0.25
100
AcDbArc
 50
270.0
 51
0.0
  0
LINE
  5
268
100
AcDbEntity
100
AcDbLine
  8
0
 62
256
370
-1
  6
BYLAYER
 10
144.5505102572167573
 20
115.4999999999999858
 30
0.0
 11
144.4999999999999147
 21
115.4999999999999858
 31
0.0
  0
LINE
  5
269
100
AcDbEntity
100
AcDbLine
  8
0
 62
256
370
-1
  6
BYLAYER
 10
105.4999999999999147
 20
119.9999999999999858
 30
0.0
 11
106.4999999999999147
 21
119.9999999999999858
 31
0.0
  0
CIRCLE
  5
26A
100
AcDbEntity
100
AcDbCircle
  8
0
 62
256
370
-1
  6
BYLAYER
 10
121.9999999999999147
 20
106.9999999999999858
 30
0.0
 40
0.6
  0
LINE
  5
26B
100
AcDbEntity
100
AcDbLine
  8
0
 62
256
370
-1
  6
BYLAYER
 10
101.9999999999999147
 20
126.9999999999999858
 30
0.0
 11
121.9999999999999147
 21
126.9999999999999858
 31
0.0
  0
LINE
  5
26C
100
AcDbEntity
100
AcDbLine
  8
0
 62
256
370
-1
  6
BYLAYER
 10
99.4999999999999147
 20
105.9999999999999858
 30
0.0
 11
99.4999999999999147
 21
106.6401258849320328
 31
0.0
  0
LINE
  5
26D
100
AcDbEntity
100
AcDbLine
  8
0
 62
256
370
-1
  6
BYLAYER
 10
106.4999999999999147
 20
117.9999999999999858
 30
0.0
 11
105.4999999999999147
 21
117.9999999999999858
 31
0.0
  0
DIMENSION
  5
26E
100
AcDbEntity
  8
dimensions
 62
256
370
-1
  6
BYLAYER
100
AcDbDimension
 10
119.3148622334291815
 20
88.6712000233948316
 30
0.0
 11
125.084306677873613
 21
90.5462000233948174
 31
0.0
 70
1
 71
8
 72
2
 41
1.0
 42
0.0
  1

  3
Standard
100
AcDbAlignedDimension
 13
119.3148622334291815
 23
102.7892257744677948
 33
0.0
 14
122.5148622334291701
 24
102.7892257744677664
 34
0.0
1001
ACAD
1000
DSTYLE
1002
{
1070
144
1040
1
1002
}
  0
CIRCLE
  5
26F
100
AcDbEntity
100
AcDbCircle
  8
0
 62
256
370
-1
  6
BYLAYER
 10
121.9999999999999147
 20
106.9999999999999858
 30
0.0
 40
0.6
  0
LINE
  5
270
100
AcDbEntity
100
AcDbLine
  8
guides
 62
256
370
-1
  6
BYLAYER
 10
109.4999999999999147
 20
126.9999999999999858
 30
0.0
 11
109.4999999999999147
 21
87.0
 31
0.0
  0
LINE
  5
271
100
AcDbEntity
100
AcDbLine
  8
0
 62
256
370
-1
  6
BYLAYER
 10
105.4999999999999147
 20
117.9999999999999858
 30
0.0
 11
105.4999999999999147
 21
119.9999999999999858
 31
0.0
  0
LINE
  5
272
100
AcDbEntity
100
AcDbLine
  8
0
 62
256
370
-1
  6
BYLAYER
 10
134.4999999999999147
 20
121.9999999999999858
 30
0.0
 11
137.4999999999999147
 21
121.9999999999999858
 31
0.0
  0
ARC
  5
273
100
AcDbEntity
  8
0
 62
256
370
-1
  6
BYLAYER
100
AcDbCircle
 10
96.9999999999999147
 20
116.9999999999999858
 30
0.0
 40
2.499999999999996
100
AcDbArc
 50
332.9643082105877738
 51
207.0356917894123399
  0
LINE
  5
274
100
AcDbEntity
100
AcDbLine
  8
0
 62
256
370
-1
  6
BYLAYER
 10
137.4999999999999147
 20
115.9999999999999858
 30
0.0
 11
134.4999999999999147
 21
115.9999999999999858
 31
0.0
  0
LINE
  5
275
100
AcDbEntity
100
AcDbLine
  8
0
 62
256
370
-1
  6
BYLAYER
 10
106.4999999999999147
 20
121.9999999999999858
 30
0.0
 11
106.4999999999999147
 21
119.9999999999999858
 31
0.0
  0
LINE
  5
276
100
AcDbEntity
100
AcDbLine
  8
0
 62
256
370
-1
  6
BYLAYER
 10
136.4999999999999147
 20
109.9999999999999858
 30
0.0
 11
134.4999999999999147
 21
109.9999999999999858
 31
0.0
  0
LINE
  5
277
100
AcDbEntity
100
AcDbLine
  8
0
 62
256
370
-1
  6
BYLAYER
 10
94.5505102572167573
 20
115.4999999999999858
 30
0.0
 11
92.2499999999999147
 21
115.4999999999999858
 31
0.0
  0
LINE
  5
278
100
AcDbEntity
100
AcDbLine
  8
0
 62
256
370
-1
  6
BYLAYER
 10
106.4999999999999147
 20
117.9999999999999858
 30
0.0
 11
106.4999999999999147
 21
115.9999999999999858
 31
0.0
  0
LINE
  5
279
100
AcDbEntity
100
AcDbLine
  8
0
 62
256
370
-1
  6
BYLAYER
 10
91.9999999999999147
 20
115.4999999999999858
 30
0.0
 11
91.9999999999999147
 21
115.4999999999999858
 31
0.0
  0
LINE
  5
27A
100
AcDbEntity
100
AcDbLine
  8
0
 62
256
370
-1
  6
BYLAYER
 10
106.4999999999999147
 20
93.9999999999999858
 30
0.0
 11
105.4999999999999147
 21
93.9999999999999858
 31
0.0
  0
LINE
  5
27B
100
AcDbEntity
100
AcDbLine
  8
0
 62
256
370
-1
  6
BYLAYER
 10
91.9999999999999147
 20
115.7499999999999858
 30
0.0
 11
91.9999999999999147
 21
121.9999999999999858
 31
0.0
  0
LINE
  5
27C
100
AcDbEntity
100
AcDbLine
  8
0
 62
256
370
-1
  6
BYLAYER
 10
105.4999999999999147
 20
93.9999999999999858
 30
0.0
 11
105.4999999999999147
 21
95.9999999999999858
 31
0.0
  0
ARC
  5
27D
100
AcDbEntity
  8
0
 62
256
370
-1
  6
BYLAYER
100
AcDbCircle
 10
96.9999999999999147
 20
121.9999999999999858
 30
0.0
 40
5.0
100
AcDbArc
 50
89.9999999999999858
 51
180.0
  0
LINE
  5
27E
100
AcDbEntity
100
AcDbLine
  8
0
 62
256
370
-1
  6
BYLAYER
 10
106.4999999999999147
 20
97.9999999999999858
 30
0.0
 11
106.4999999999999147
 21
95.9999999999999858
 31
0.0
  0
LINE
  5
27F
100
AcDbEntity
100
AcDbLine
  8
0
 62
256
370
-1
  6
BYLAYER
 10
96.9999999999999147
 20
126.9999999999999858
 30
0.0
 11
101.9999999999999147
 21
126.9999999999999858
 31
0.0
  0
LINE
  5
280
100
AcDbEntity
100
AcDbLine
  8
0
 62
256
370
-1
  6
BYLAYER
 10
106.4999999999999147
 20
93.9999999999999858
 30
0.0
 11
106.4999999999999147
 21
92.0
 31
0.0
  0
LINE
  5
281
100
AcDbEntity
100
AcDbLine
  8
0
 62
256
370
-1
  6
BYLAYER
 10
99.7499999999999432
 20
87.25
 30
0.0
 11
99.7499999999999147
 21
115.2499999999999858
 31
0.0
  0
LINE
  5
282
100
AcDbEntity
100
AcDbLine
  8
0
 62
256
370
-1
  6
BYLAYER
 10
105.4999999999999147
 20
95.9999999999999858
 30
0.0
 11
106.4999999999999147
 21
95.9999999999999858
 31
0.0
  0
ARC
  5
283
100
AcDbEntity
  8
0
 62
256
370
-1
  6
BYLAYER
100
AcDbCircle
 10
99.4494897427831006
 20
115.7500000000000142
 30
0.0
 40
0.25
100
AcDbArc
 50
152.9643082105876886
 51
270.0
  0
ARC
  5
284
100
AcDbEntity
  8
0
 62
256
370
-1
  6
BYLAYER
100
AcDbCircle
 10
94.5505102572167573
 20
115.7499999999999858
 30
0.0
 40
0.25
100
AcDbArc
 50
270.0
 51
27.0356917894126383
  0
ARC
  5
285
100
AcDbEntity
  8
0
 62
256
370
-1
  6
BYLAYER
100
AcDbCircle
 10
92.2499999999999147
 20
115.7500000000000142
 30
0.0
 40
0.25
100
AcDbArc
 50
180.0
 51
270.0
  0
ARC
  5
286
100
AcDbEntity
  8
0
 62
256
370
-1
  6
BYLAYER
100
AcDbCircle
 10
99.4999999999999147
 20
115.2499999999999858
 30
0.0
 40
0.25
100
AcDbArc
 50
0.0
 51
89.9999999999999858
  0
ARC
  5
287
100
AcDbEntity
  8
0
 62
256
370
-1
  6
BYLAYER
100
AcDbCircle
 10
99.9999999999999147
 20
87.25
 30
0.0
 40
0.25
100
AcDbArc
 50
180.0
 51
270.0
  0
LINE
  5
288
100
AcDbEntity
100
AcDbLine
  8
0
 62
256
370
-1
  6
BYLAYER
 10
109.4999999999999147
 20
92.0
 30
0.0
 11
106.4999999999999147
 21
92.0
 31
0.0
  0
LINE
  5
289
100
AcDbEntity
100
AcDbLine
  8
0
 62
256
370
-1
  6
BYLAYER
 10
106.4999999999999147
 20
97.9999999999999858
 30
0.0
 11
109.4999999999999147
 21
97.9999999999999858
 31
0.0
  0
LINE
  5
28A
100
AcDbEntity
100
AcDbLine
  8
0
 62
256
370
-1
  6
BYLAYER
 10
109.4999999999999147
 20
97.9999999999999858
 30
0.0
 11
109.4999999999999147
 21
92.0
 31
0.0
  0
LINE
  5
28B
100
AcDbEntity
100
AcDbLine
  8
0
 62
256
370
-1
  6
BYLAYER
 10
109.4999999999999147
 20
121.9999999999999858
 30
0.0
 11
106.4999999999999147
 21
121.9999999999999858
 31
0.0
  0
LINE
  5
28C
100
AcDbEntity
100
AcDbLine
  8
guides
 62
256
370
-1
  6
BYLAYER
 10
14.8397459621556322
 20
136.9711431702996833
 30
0.0
 11
32.1602540378443962
 21
126.9711431702996833
 31
0.0
  0
LINE
  5
28D
100
AcDbEntity
100
AcDbLine
  8
guides
 62
256
370
-1
  6
BYLAYER
 10
74.1051177665153205
 20
110.3205080756886787
 30
0.0
 11
39.1051177665153205
 21
170.9422863405994804
 31
0.0
  0
LINE
  5
28E
100
AcDbEntity
100
AcDbLine
  8
0
 62
256
370
-1
  6
BYLAYER
 10
76.2007923330673407
 20
113.6906932502906784
 30
0.0
 11
53.071621026454352
 21
153.7515930903086883
 31
0.0
  0
LINE
  5
28F
100
AcDbEntity
100
AcDbLine
  8
guides
 62
256
370
-1
  6
BYLAYER
 10
74.1051177665153205
 20
110.3205080756886787
 30
0.0
 11
83.1051177665153205
 21
94.7320508075688394
 31
0.0
  0
CIRCLE
  5
290
100
AcDbEntity
100
AcDbCircle
  8
0
 62
256
370
-1
  6
BYLAYER
 10
61.6051177665153205
 20
131.9711431702996833
 30
0.0
 40
1.5
  0
LINE
  5
291
100
AcDbEntity
100
AcDbLine
  8
guides
 62
256
370
-1
  6
BYLAYER
 10
65.4448637286708959
 20
105.3205080756886787
 30
0.0
 11
82.7653718043596882
 21
115.3205080756886787
 31
0.0
  0
LINE
  5
292
100
AcDbEntity
100
AcDbLine
  8
guides
 62
256
370
-1
  6
BYLAYER
 10
57.7653718043597451
 20
158.621778264910688
 30
0.0
 11
40.4448637286709243
 21
148.621778264910688
 31
0.0
  0
CIRCLE
  5
293
100
AcDbEntity
100
AcDbCircle
  8
guides
 62
256
370
-1
  6
BYLAYER
 10
49.1051177665153205
 20
153.621778264910688
 30
0.0
 40
5.0
  0
CIRCLE
  5
294
100
AcDbEntity
100
AcDbCircle
  8
guides
 62
256
370
-1
  6
BYLAYER
 10
74.1051177665153205
 20
110.3205080756886787
 30
0.0
 40
5.0
  0
LINE
  5
295
100
AcDbEntity
100
AcDbLine
  8
guides
 62
256
370
-1
  6
BYLAYER
 10
70.2653718043596882
 20
136.9711431702996833
 30
0.0
 11
52.9448637286709527
 21
126.9711431702996833
 31
0.0
  0
LINE
  5
296
100
AcDbEntity
100
AcDbLine
  8
0
 62
256
370
-1
  6
BYLAYER
 10
37.8708286933869829
 20
157.121778264910688
 30
0.0
 11
47.234289073128366
 21
157.121778264910688
 31
0.0
  0
LINE
  5
297
100
AcDbEntity
100
AcDbLine
  8
0
 62
256
370
-1
  6
BYLAYER
 10
76.2007923330673407
 20
106.9503229010867358
 30
0.0
 11
71.5190621431966633
 21
98.8413283449016831
 31
0.0
  0
LINE
  5
298
100
AcDbEntity
100
AcDbLine
  8
0
 62
256
370
-1
  6
BYLAYER
 10
13.5860556233186287
 20
98.8413283449016831
 30
0.0
 11
8.9043254334479798
 21
106.9503229010867358
 31
0.0
  0
ARC
  5
299
100
AcDbEntity
  8
0
 62
256
370
-1
  6
BYLAYER
100
AcDbCircle
 10
17.5525588832576602
 20
98.9711431702997402
 30
0.0
 40
3.5
100
AcDbArc
 50
299.9264348666142723
 51
180.0735651333855287
  0
ARC
  5
29A
100
AcDbEntity
  8
0
 62
256
370
-1
  6
BYLAYER
100
AcDbCircle
 10
11.0
 20
110.3205080756887355
 30
0.0
 40
3.5
100
AcDbArc
 50
239.9264348666148123
 51
120.0735651333857987
  0
ARC
  5
29B
100
AcDbEntity
  8
0
 62
256
370
-1
  6
BYLAYER
100
AcDbCircle
 10
67.5525588832576318
 20
98.9711431702997402
 30
0.0
 40
3.5
100
AcDbArc
 50
359.926434866614386
 51
240.0735651333857561
  0
ARC
  5
29C
100
AcDbEntity
  8
0
 62
256
370
-1
  6
BYLAYER
100
AcDbCircle
 10
74.1051177665153205
 20
110.3205080756886787
 30
0.0
 40
3.5
100
AcDbArc
 50
59.9264348666148408
 51
300.0735651333853866
  0
ARC
  5
29D
100
AcDbEntity
  8
0
 62
256
370
-1
  6
BYLAYER
100
AcDbCircle
 10
49.1051177665153205
 20
153.621778264910688
 30
0.0
 40
3.5
100
AcDbArc
 50
119.9264348666141018
 51
0.0735651333855516
  0
ARC
  5
29E
100
AcDbEntity
  8
0
 62
256
370
-1
  6
BYLAYER
100
AcDbCircle
 10
36.0
 20
153.621778264910688
 30
0.0
 40
3.5
100
AcDbArc
 50
179.926434866614386
 51
60.0735651333857206
  0
ARC
  5
29F
100
AcDbEntity
  8
0
 62
256
370
-1
  6
BYLAYER
100
AcDbCircle
 10
65.6817301898706773
 20
95.7211431702997402
 30
0.0
 40
0.25
100
AcDbArc
 50
270.0
 51
60.0735651333855429
  0
ARC
  5
2A0
100
AcDbEntity
  8
0
 62
256
370
-1
  6
BYLAYER
100
AcDbCircle
 10
71.3025557922505868
 20
98.9663283449016831
 30
0.0
 40
0.25
100
AcDbArc
 50
179.926434866614386
 51
329.9999999999998863
  0
ARC
  5
2A1
100
AcDbEntity
  8
0
 62
256
370
-1
  6
BYLAYER
100
AcDbCircle
 10
75.9842859821212073
 20
107.0753229010867358
 30
0.0
 40
0.25
100
AcDbArc
 50
330.0000000000002274
 51
120.073565133385685
  0
ARC
  5
2A2
100
AcDbEntity
  8
0
 62
256
370
-1
  6
BYLAYER
100
AcDbCircle
 10
75.9842859821212073
 20
113.5656932502906784
 30
0.0
 40
0.25
100
AcDbArc
 50
239.9264348666141018
 51
30.0000000000000888
  0
ARC
  5
2A3
100
AcDbEntity
  8
0
 62
256
370
-1
  6
BYLAYER
100
AcDbCircle
 10
52.8551146755082186
 20
153.6265930903086883
 30
0.0
 40
0.25
100
AcDbArc
 50
30.0000000000001386
 51
180.0735651333855287
  0
ARC
  5
2A4
100
AcDbEntity
  8
0
 62
256
370
-1
  6
BYLAYER
100
AcDbCircle
 10
47.234289073128366
 20
156.871778264910688
 30
0.0
 40
0.25
100
AcDbArc
 50
299.9264348666142155
 51
90.0
  0
ARC
  5
2A5
100
AcDbEntity
  8
0
 62
256
370
-1
  6
BYLAYER
100
AcDbCircle
 10
37.8708286933869829
 20
156.871778264910688
 30
0.0
 40
0.25
100
AcDbArc
 50
90.0
 51
240.0735651333857561
  0
ARC
  5
2A6
100
AcDbEntity
  8
0
 62
256
370
-1
  6
BYLAYER
100
AcDbCircle
 10
32.2500030910071018
 20
153.6265930903086883
 30
0.0
 40
0.25
100
AcDbArc
 50
359.9264348666193882
 51
149.9999999999998863
  0
ARC
  5
2A7
100
AcDbEntity
  8
0
 62
256
370
-1
  6
BYLAYER
100
AcDbCircle
 10
9.1208317843940563
 20
113.5656932502907353
 30
0.0
 40
0.25
100
AcDbArc
 50
150.0000000000016769
 51
300.0735651333859551
  0
ARC
  5
2A8
100
AcDbEntity
  8
0
 62
256
370
-1
  6
BYLAYER
100
AcDbCircle
 10
9.1208317843941131
 20
107.0753229010867358
 30
0.0
 40
0.25
100
AcDbArc
 50
59.9264348666143292
 51
210.0000000000001421
  0
ARC
  5
2A9
100
AcDbEntity
  8
0
 62
256
370
-1
  6
BYLAYER
100
AcDbCircle
 10
13.8025619742647621
 20
98.9663283449016831
 30
0.0
 40
0.25
100
AcDbArc
 50
210.0000000000001421
 51
0.0735651333805973
  0
ARC
  5
2AA
100
AcDbEntity
  8
0
 62
256
370
-1
  6
BYLAYER
100
AcDbCircle
 10
19.4233875766446431
 20
95.7211431702997402
 30
0.0
 40
0.25
100
AcDbArc
 50
119.9264348666139597
 51
270.0
  0
CIRCLE
  5
2AB
100
AcDbEntity
100
AcDbCircle
  8
guides
 62
256
370
-1
  6
BYLAYER
 10
42.5525588832576602
 20
120.9711431702997402
 30
0.0
 40
22.0000000000000107
  0
CIRCLE
  5
2AC
100
AcDbEntity
100
AcDbCircle
  8
0
 62
256
370
-1
  6
BYLAYER
 10
42.5525588832576602
 20
142.9711431702997402
 30
0.0
 40
1.5
  0
CIRCLE
  5
2AD
100
AcDbEntity
100
AcDbCircle
  8
0
 62
256
370
-1
  6
BYLAYER
 10
61.6051177665153205
 20
109.9711431702996833
 30
0.0
 40
1.5
  0
CIRCLE
  5
2AE
100
AcDbEntity
100
AcDbCircle
  8
0
 62
256
370
-1
  6
BYLAYER
 10
23.5
 20
109.9711431702997402
 30
0.0
 40
1.5
  0
CIRCLE
  5
2AF
100
AcDbEntity
100
AcDbCircle
  8
0
 62
256
370
-1
  6
BYLAYER
 10
42.5525588832576602
 20
120.9711431702997402
 30
0.0
 40
15.0
  0
CIRCLE
  5
2B0
100
AcDbEntity
100
AcDbCircle
  8
guides
 62
256
370
-1
  6
BYLAYER
 10
42.5525588832576602
 20
120.9711431702997402
 30
0.0
 40
25.5
  0
LINE
  5
2B1
100
AcDbEntity
100
AcDbLine
  8
guides
 62
256
370
-1
  6
BYLAYER
 10
17.5525588832576602
 20
98.9711431702997402
 30
0.0
 11
-0.4474411167423398
 21
98.9711431702997402
 31
0.0
  0
CIRCLE
  5
2B2
100
AcDbEntity
100
AcDbCircle
  8
guides
 62
256
370
-1
  6
BYLAYER
 10
67.5525588832576318
 20
98.9711431702997402
 30
0.0
 40
5.0
  0
CIRCLE
  5
2B3
100
AcDbEntity
100
AcDbCircle
  8
guides
 62
256
370
-1
  6
BYLAYER
 10
17.5525588832576602
 20
98.9711431702997402
 30
0.0
 40
5.0
  0
LINE
  5
2B4
100
AcDbEntity
100
AcDbLine
  8
0
 62
256
370
-1
  6
BYLAYER
 10
19.4233875766446431
 20
95.4711431702997402
 30
0.0
 11
65.6817301898706773
 21
95.4711431702997402
 31
0.0
  0
CIRCLE
  5
2B5
100
AcDbEntity
100
AcDbCircle
  8
0
 62
256
370
-1
  6
BYLAYER
 10
42.5525588832576602
 20
98.9711431702997402
 30
0.0
 40
1.5
  0
LINE
  5
2B6
100
AcDbEntity
100
AcDbLine
  8
guides
 62
256
370
-1
  6
BYLAYER
 10
36.0
 20
153.621778264910688
 30
0.0
 11
1.0
 21
93.0
 31
0.0
  0
LINE
  5
2B7
100
AcDbEntity
100
AcDbLine
  8
0
 62
256
370
-1
  6
BYLAYER
 10
32.0334967400609969
 20
153.7515930903086883
 30
0.0
 11
8.9043254334479229
 21
113.6906932502906784
 31
0.0
  0
LINE
  5
2B8
100
AcDbEntity
100
AcDbLine
  8
guides
 62
256
370
-1
  6
BYLAYER
 10
36.0
 20
153.621778264910688
 30
0.0
 11
45.0000000000000568
 21
169.2102355330305841
 31
0.0
  0
CIRCLE
  5
2B9
100
AcDbEntity
100
AcDbCircle
  8
0
 62
256
370
-1
  6
BYLAYER
 10
23.5
 20
131.9711431702996833
 30
0.0
 40
1.5
  0
LINE
  5
2BA
100
AcDbEntity
100
AcDbLine
  8
guides
 62
256
370
-1
  6
BYLAYER
 10
44.6602540378444246
 20
148.621778264910688
 30
0.0
 11
27.3397459621556322
 21
158.621778264910688
 31
0.0
  0
LINE
  5
2BB
100
AcDbEntity
100
AcDbLine
  8
guides
 62
256
370
-1
  6
BYLAYER
 10
2.3397459621556322
 20
115.3205080756887355
 30
0.0
 11
19.6602540378443962
 21
105.3205080756887924
 31
0.0
  0
CIRCLE
  5
2BC
100
AcDbEntity
100
AcDbCircle
  8
guides
 62
256
370
-1
  6
BYLAYER
 10
11.0
 20
110.3205080756887355
 30
0.0
 40
5.0
  0
CIRCLE
  5
2BD
100
AcDbEntity
100
AcDbCircle
  8
guides
 62
256
370
-1
  6
BYLAYER
 10
36.0
 20
153.621778264910688
 30
0.0
 40
5.0
  0
ENDSEC
  0
SECTION
  2
OBJECTS
  0
DICTIONARY
  5
C
100
AcDbDictionary
280
0
281
1
  3
ACAD_GROUP
350
D
  3
ACAD_LAYOUT
350
1A
  3
ACAD_MLINESTYLE
350
17
  3
ACAD_PLOTSETTINGS
350
19
  3
ACAD_PLOTSTYLENAME
350
E
  3
AcDbVariableDictionary
350
2BE
  3
QCAD_OBJECTS
350
2BF
  0
DICTIONARY
  5
D
100
AcDbDictionary
280
0
281
1
  0
ACDBDICTIONARYWDFLT
  5
E
100
AcDbDictionary
281
1
  3
Normal
350
F
100
AcDbDictionaryWithDefault
340
F
  0
ACDBPLACEHOLDER
  5
F
  0
DICTIONARY
  5
17
100
AcDbDictionary
280
0
281
1
  3
Standard
350
18
  0
MLINESTYLE
  5
18
100
AcDbMlineStyle
  2
STANDARD
 70
0
  3

 62
256
 51
90.0
 52
90.0
 71
2
 49
0.5
 62
256
  6
BYLAYER
 49
-0.5
 62
256
  6
BYLAYER
  0
DICTIONARY
  5
19
100
AcDbDictionary
280
0
281
1
  0
DICTIONARY
  5
1A
100
AcDbDictionary
281
1
  3
Layout1
350
1E
  3
Layout2
350
26
  3
Model
350
22
  0
LAYOUT
  5
1E
100
AcDbPlotSettings
  1

  2
none_device
  4

  6

 40
0.0
 41
0.0
 42
0.0
 43
0.0
 44
0.0
 45
0.0
 46
0.0
 47
0.0
 48
0.0
 49
0.0
140
0.0
141
0.0
142
1.0
143
1.0
 70
688
 72
0
 73
0
 74
5
  7

 75
16
147
1.0
148
0.0
149
0.0
100
AcDbLayout
  1
Layout1
 70
1
 71
1
 10
0.0
 20
0.0
 11
420.0
 21
297.0
 12
0.0
 22
0.0
 32
0.0
 14
100000000000000000000.0
 24
100000000000000000000.0
 34
100000000000000000000.0
 15
-100000000000000000000.0
 25
-100000000000000000000.0
 35
-100000000000000000000.0
146
0.0
 13
0.0
 23
0.0
 33
0.0
 16
1.0
 26
0.0
 36
0.0
 17
0.0
 27
1.0
 37
0.0
 76
0
330
1B
  0
LAYOUT
  5
22
100
AcDbPlotSettings
  1

  2
none_device
  4

  6

 40
0.0
 41
0.0
 42
0.0
 43
0.0
 44
0.0
 45
0.0
 46
0.0
 47
0.0
 48
0.0
 49
0.0
140
0.0
141
0.0
142
1.0
143
1.0
 70
1712
 72
0
 73
0
 74
0
  7

 75
0
147
1.0
148
0.0
149
0.0
100
AcDbLayout
  1
Model
 70
1
 71
0
 10
0.0
 20
0.0
 11
12.0
 21
9.0
 12
0.0
 22
0.0
 32
0.0
 14
0.0
 24
0.0
 34
0.0
 15
0.0
 25
0.0
 35
0.0
146
0.0
 13
0.0
 23
0.0
 33
0.0
 16
1.0
 26
0.0
 36
0.0
 17
0.0
 27
1.0
 37
0.0
 76
0
330
1F
  0
LAYOUT
  5
26
100
AcDbPlotSettings
  1

  2
none_device
  4

  6

 40
0.0
 41
0.0
 42
0.0
 43
0.0
 44
0.0
 45
0.0
 46
0.0
 47
0.0
 48
0.0
 49
0.0
140
0.0
141
0.0
142
1.0
143
1.0
 70
688
 72
0
 73
0
 74
5
  7

 75
16
147
1.0
148
0.0
149
0.0
100
AcDbLayout
  1
Layout2
 70
1
 71
2
 10
0.0
 20
0.0
 11
12.0
 21
9.0
 12
0.0
 22
0.0
 32
0.0
 14
0.0
 24
0.0
 34
0.0
 15
0.0
 25
0.0
 35
0.0
146
0.0
 13
0.0
 23
0.0
 33
0.0
 16
1.0
 26
0.0
 36
0.0
 17
0.0
 27
1.0
 37
0.0
 76
0
330
23
  0
DICTIONARY
  5
2BE
100
AcDbDictionary
281
1
  3
DIMASSOC
350
2C1
  3
HIDETEXT
350
2C0
  0
DICTIONARYVAR
  5
2C0
100
DictionaryVariables
280
0
  1
2
  0
DICTIONARYVAR
  5
2C1
100
DictionaryVariables
280
0
  1
1
  0
DICTIONARY
  5
2BF
100
AcDbDictionary
281
1
  3
Grid/DisplayGrid00
350
2C2
  3
Grid/DisplayGrid01
350
2C3
  3
Grid/DisplayGrid02
350
2C4
  3
Grid/DisplayGrid03
350
2C5
  3
Grid/GridSpacingX00
350
2C6
  3
Grid/GridSpacingX01
350
2C7
  3
Grid/GridSpacingX02
350
2C8
  3
Grid/GridSpacingX03
350
2C9
  3
Grid/GridSpacingY00
350
2CA
  3
Grid/GridSpacingY01
350
2CB
  3
Grid/GridSpacingY02
350
2CC
  3
Grid/GridSpacingY03
350
2CD
  3
Grid/IsometricGrid00
350
2CE
  3
Grid/IsometricGrid01
350
2CF
  3
Grid/IsometricGrid02
350
2D0
  3
Grid/IsometricGrid03
350
2D1
  3
Grid/IsometricProjection00
350
2D2
  3
Grid/IsometricProjection01
350
2D3
  3
Grid/IsometricProjection02
350
2D4
  3
Grid/IsometricProjection03
350
2D5
  3
Grid/MetaGridSpacingX00
350
2D6
  3
Grid/MetaGridSpacingX01
350
2D7
  3
Grid/MetaGridSpacingX02
350
2D8
  3
Grid/MetaGridSpacingX03
350
2D9
  3
Grid/MetaGridSpacingY00
350
2DA
  3
Grid/MetaGridSpacingY01
350
2DB
  3
Grid/MetaGridSpacingY02
350
2DC
  3
Grid/MetaGridSpacingY03
350
2DD
  3
MultiPageSettings/Columns
350
2DE
  3
MultiPageSettings/GlueMarginsBottom
350
2DF
  3
MultiPageSettings/GlueMarginsLeft
350
2E0
  3
MultiPageSettings/GlueMarginsRight
350
2E1
  3
MultiPageSettings/GlueMarginsTop
350
2E2
  3
MultiPageSettings/PrintCropMarks
350
2E3
  3
MultiPageSettings/Rows
350
2E4
  3
PageSettings/OffsetX
350
2E5
  3
PageSettings/OffsetY
350
2E6
  3
PageSettings/PageOrientation
350
2E7
  3
PageSettings/PaperHeight
350
2E8
  3
PageSettings/PaperWidth
350
2E9
  3
PageSettings/Scale
350
2EA
  3
PageSettings/ShowPaperBorders
350
2EB
  3
UnitSettings/PaperUnit
350
2EC
  0
XRECORD
  5
2C2
330
2BF
100
AcDbXrecord
280
1
290
1
  0
XRECORD
  5
2C3
330
2BF
100
AcDbXrecord
280
1
290
1
  0
XRECORD
  5
2C4
330
2BF
100
AcDbXrecord
280
1
290
1
  0
XRECORD
  5
2C5
330
2BF
100
AcDbXrecord
280
1
290
1
  0
XRECORD
  5
2C6
330
2BF
100
AcDbXrecord
280
1
1000
auto
  0
XRECORD
  5
2C7
330
2BF
100
AcDbXrecord
280
1
1000
auto
  0
XRECORD
  5
2C8
330
2BF
100
AcDbXrecord
280
1
1000
auto
  0
XRECORD
  5
2C9
330
2BF
100
AcDbXrecord
280
1
1000
auto
  0
XRECORD
  5
2CA
330
2BF
100
AcDbXrecord
280
1
1000
auto
  0
XRECORD
  5
2CB
330
2BF
100
AcDbXrecord
280
1
1000
auto
  0
XRECORD
  5
2CC
330
2BF
100
AcDbXrecord
280
1
1000
auto
  0
XRECORD
  5
2CD
330
2BF
100
AcDbXrecord
280
1
1000
auto
  0
XRECORD
  5
2CE
330
2BF
100
AcDbXrecord
280
1
290
0
  0
XRECORD
  5
2CF
330
2BF
100
AcDbXrecord
280
1
290
0
  0
XRECORD
  5
2D0
330
2BF
100
AcDbXrecord
280
1
290
0
  0
XRECORD
  5
2D1
330
2BF
100
AcDbXrecord
280
1
290
0
  0
XRECORD
  5
2D2
330
2BF
100
AcDbXrecord
280
1
 90
0
  0
XRECORD
  5
2D3
330
2BF
100
AcDbXrecord
280
1
 90
0
  0
XRECORD
  5
2D4
330
2BF
100
AcDbXrecord
280
1
 90
0
  0
XRECORD
  5
2D5
330
2BF
100
AcDbXrecord
280
1
 90
0
  0
XRECORD
  5
2D6
330
2BF
100
AcDbXrecord
280
1
1000
auto
  0
XRECORD
  5
2D7
330
2BF
100
AcDbXrecord
280
1
1000
auto
  0
XRECORD
  5
2D8
330
2BF
100
AcDbXrecord
280
1
1000
auto
  0
XRECORD
  5
2D9
330
2BF
100
AcDbXrecord
280
1
1000
auto
  0
XRECORD
  5
2DA
330
2BF
100
AcDbXrecord
280
1
1000
auto
  0
XRECORD
  5
2DB
330
2BF
100
AcDbXrecord
280
1
1000
auto
  0
XRECORD
  5
2DC
330
2BF
100
AcDbXrecord
280
1
1000
auto
  0
XRECORD
  5
2DD
330
2BF
100
AcDbXrecord
280
1
1000
auto
  0
XRECORD
  5
2DE
330
2BF
100
AcDbXrecord
280
1
 90
1
  0
XRECORD
  5
2DF
330
2BF
100
AcDbXrecord
280
1
 40
10.0
  0
XRECORD
  5
2E0
330
2BF
100
AcDbXrecord
280
1
 40
10.0
  0
XRECORD
  5
2E1
330
2BF
100
AcDbXrecord
280
1
 40
10.0
  0
XRECORD
  5
2E2
330
2BF
100
AcDbXrecord
280
1
 40
10.0
  0
XRECORD
  5
2E3
330
2BF
100
AcDbXrecord
280
1
290
0
  0
XRECORD
  5
2E4
330
2BF
100
AcDbXrecord
280
1
 90
1
  0
XRECORD
  5
2E5
330
2BF
100
AcDbXrecord
280
1
 40
0.0
  0
XRECORD
  5
2E6
330
2BF
100
AcDbXrecord
280
1
 40
0.0
  0
XRECORD
  5
2E7
330
2BF
100
AcDbXrecord
280
1
1000
Portrait
  0
XRECORD
  5
2E8
330
2BF
100
AcDbXrecord
280
1
 40
297.0
  0
XRECORD
  5
2E9
330
2BF
100
AcDbXrecord
280
1
 40
210.0
  0
XRECORD
  5
2EA
330
2BF
100
AcDbXrecord
280
1
1000
1:1
  0
XRECORD
  5
2EB
330
2BF
100
AcDbXrecord
280
1
290
1
  0
XRECORD
  5
2EC
330
2BF
100
AcDbXrecord
280
1
 90
4
  0
ENDSEC
  0
EOF
