999
dxflib 3.3.4.0
  0
SECTION
  2
HEADER
  9
$ACADVER
  1
AC1015
  9
$HANDSEED
  5
FFFF
  9
$ANGBASE
 50
0.0
  9
$ATTMODE
 70
1
  9
$AUNITS
 70
0
  9
$AUPREC
 70
0
  9
$CELTSCALE
 40
1.0
  9
$CHAMFERA
 40
0.0
  9
$CHAMFERB
 40
0.0
  9
$CHAMFERC
 40
0.0
  9
$CHAMFERD
 40
0.0
  9
$CMLJUST
 70
0
  9
$CMLSCALE
 40
1.0
  9
$DIMADEC
 70
0
  9
$DIMALTD
 70
2
  9
$DIMALTF
 40
25.3999999999999986
  9
$DIMALTRND
 40
0.0
  9
$DIMALTTD
 70
2
  9
$DIMALTTZ
 70
0
  9
$DIMALTU
 70
2
  9
$DIMALTZ
 70
0
  9
$DIMAPOST
  1

  9
$DIMASZ
 40
2.5
  9
$DIMATFIT
 70
3
  9
$DIMAUNIT
 70
0
  9
$DIMAZIN
 70
2
  9
$DIMCEN
 40
0.09
  9
$DIMDEC
 70
4
  9
$DIMDLE
 40
0.0
  9
$DIMDLI
 40
0.38
  9
$DIMDSEP
 70
46
  9
$DIMEXE
 40
1.25
  9
$DIMEXO
 40
0.625
  9
$DIMFRAC
 70
0
  9
$DIMGAP
 40
0.625
  9
$DIMJUST
 70
0
  9
$DIMLFAC
 40
1.0
  9
$DIMLUNIT
 70
2
  9
$DIMLWD
 70
-2
  9
$DIMLWE
 70
-2
  9
$DIMPOST
  1

  9
$DIMRND
 40
0.0
  9
$DIMSCALE
 40
1.0
  9
$DIMTAD
 70
0
  9
$DIMTDEC
 70
4
  9
$DIMTFAC
 40
1.0
  9
$DIMTM
 40
0.0
  9
$DIMTOLJ
 70
1
  9
$DIMTP
 40
0.0
  9
$DIMTSZ
 40
0.0
  9
$DIMTVP
 40
0.0
  9
$DIMTXT
 40
2.5
  9
$DIMTZIN
 70
0
  9
$DIMZIN
 70
8
  9
$DWGCODEPAGE
  3
ANSI_1252
  9
$ELEVATION
 40
0.0
  9
$EXTMAX
 10
-100000000000000000000.0
 20
-100000000000000000000.0
 30
-100000000000000000000.0
  9
$EXTMIN
 10
100000000000000000000.0
 20
100000000000000000000.0
 30
100000000000000000000.0
  9
$FILLETRAD
 40
0.5
  9
$INSBASE
 10
0.0
 20
0.0
 30
0.0
  9
$INSUNITS
 70
4
  9
$LIMMAX
 10
12.0
 20
9.0
  9
$LIMMIN
 10
0.0
 20
0.0
  9
$LTSCALE
 40
1.0
  9
$LUNITS
 70
2
  9
$LUPREC
 70
4
  9
$MAXACTVP
 70
64
  9
$PDMODE
 70
0
  9
$PDSIZE
 40
0.0
  9
$PELEVATION
 40
0.0
  9
$PEXTMAX
 10
-100000000000000000000.0
 20
-100000000000000000000.0
 30
-100000000000000000000.0
  9
$PEXTMIN
 10
100000000000000000000.0
 20
100000000000000000000.0
 30
100000000000000000000.0
  9
$PINSBASE
 10
0.0
 20
0.0
 30
0.0
  9
$PLIMMAX
 10
12.0
 20
9.0
  9
$PLIMMIN
 10
0.0
 20
0.0
  9
$PLINEWID
 40
0.0
  9
$PROXYGRAPHICS
 70
1
  9
$PUCSORG
 10
0.0
 20
0.0
 30
0.0
  9
$PUCSXDIR
 10
1.0
 20
0.0
 30
0.0
  9
$PUCSYDIR
 10
0.0
 20
1.0
 30
0.0
  9
$SHADEDGE
 70
3
  9
$SHADEDIF
 70
70
  9
$SKETCHINC
 40
0.1
  9
$SPLINESEGS
 70
8
  9
$SPLINETYPE
 70
6
  9
$SURFTAB1
 70
6
  9
$SURFTAB2
 70
6
  9
$SURFTYPE
 70
6
  9
$SURFU
 70
6
  9
$SURFV
 70
6
  9
$TEXTSIZE
 40
2.5
  9
$THICKNESS
 40
0.0
  9
$TRACEWID
 40
0.05
  9
$TREEDEPTH
 70
3020
  9
$UCSORG
 10
0.0
 20
0.0
 30
0.0
  9
$UCSXDIR
 10
1.0
 20
0.0
 30
0.0
  9
$UCSYDIR
 10
0.0
 20
1.0
 30
0.0
  9
$UNITMODE
 70
0
  9
$USERI1
 70
0
  9
$USERI2
 70
0
  9
$USERI3
 70
0
  9
$USERI4
 70
0
  9
$USERI5
 70
0
  9
$USERR1
 40
0.0
  9
$USERR2
 40
0.0
  9
$USERR3
 40
0.0
  9
$USERR4
 40
0.0
  9
$USERR5
 40
0.0
  0
ENDSEC
  0
SECTION
  2
TABLES
  0
TABLE
  2
VPORT
  5
8
100
AcDbSymbolTable
 70
1
  0
VPORT
  5
30
100
AcDbSymbolTableRecord
100
AcDbViewportTableRecord
  2
*Active
 70
0
 10
0.0
 20
0.0
 11
1.0
 21
1.0
 12
286.3055555555554861
 22
148.5
 13
0.0
 23
0.0
 14
10.0
 24
10.0
 15
10.0
 25
10.0
 16
0.0
 26
0.0
 36
1.0
 17
0.0
 27
0.0
 37
0.0
 40
297.0
 41
1.92798353909465
 42
50.0
 43
0.0
 44
0.0
 50
0.0
 51
0.0
 71
0
 72
100
 73
1
 74
3
 75
1
 76
1
 77
0
 78
0
281
0
 65
1
110
0.0
120
0.0
130
0.0
111
1.0
121
0.0
131
0.0
112
0.0
122
1.0
132
0.0
 79
0
146
0.0
  0
ENDTAB
  0
TABLE
  2
LTYPE
  5
5
100
AcDbSymbolTable
 70
21
  0
LTYPE
  5
16
100
AcDbSymbolTableRecord
100
AcDbLinetypeTableRecord
  2
CONTINUOUS
 70
0
  3
Solid line
 72
65
 73
0
 40
0.0
  0
LTYPE
  5
31
100
AcDbSymbolTableRecord
100
AcDbLinetypeTableRecord
  2
CENTER2
 70
0
  3
Center (.5x) ___ _ ___ _ ___ _ ___ _ ___ _ ___
 72
65
 73
4
 40
28.5749999999999993
 49
19.0500000000000007
 74
0
 49
-3.1749999999999998
 74
0
 49
3.1749999999999998
 74
0
 49
-3.1749999999999998
 74
0
  0
LTYPE
  5
32
100
AcDbSymbolTableRecord
100
AcDbLinetypeTableRecord
  2
DIVIDEX2
 70
0
  3
Divide (2x) ________  .  .  ________  .  .  _
 72
65
 73
6
 40
63.5
 49
25.3999999999999986
 74
0
 49
-12.6999999999999993
 74
0
 49
0.0
 74
0
 49
-12.6999999999999993
 74
0
 49
0.0
 74
0
 49
-12.6999999999999993
 74
0
  0
LTYPE
  5
33
100
AcDbSymbolTableRecord
100
AcDbLinetypeTableRecord
  2
DOT2
 70
0
  3
Dot (.5x) .....................................
 72
65
 73
2
 40
3.1749999999999998
 49
0.0
 74
0
 49
-3.1749999999999998
 74
0
  0
LTYPE
  5
34
100
AcDbSymbolTableRecord
100
AcDbLinetypeTableRecord
  2
DASHDOT2
 70
0
  3
Dash dot (.5x) _._._._._._._._._._._._._._._.
 72
65
 73
4
 40
12.6999999999999993
 49
6.3499999999999996
 74
0
 49
-3.1749999999999998
 74
0
 49
0.0
 74
0
 49
-3.1749999999999998
 74
0
  0
LTYPE
  5
35
100
AcDbSymbolTableRecord
100
AcDbLinetypeTableRecord
  2
DIVIDE
 70
0
  3
Divide ____ . . ____ . . ____ . . ____ . . ____
 72
65
 73
6
 40
31.75
 49
12.6999999999999993
 74
0
 49
-6.3499999999999996
 74
0
 49
0.0
 74
0
 49
-6.3499999999999996
 74
0
 49
0.0
 74
0
 49
-6.3499999999999996
 74
0
  0
LTYPE
  5
36
100
AcDbSymbolTableRecord
100
AcDbLinetypeTableRecord
  2
DASHDOT
 70
0
  3
Dash dot __ . __ . __ . __ . __ . __ . __ . __
 72
65
 73
4
 40
25.3999999999999986
 49
12.6999999999999993
 74
0
 49
-6.3499999999999996
 74
0
 49
0.0
 74
0
 49
-6.3499999999999996
 74
0
  0
LTYPE
  5
37
100
AcDbSymbolTableRecord
100
AcDbLinetypeTableRecord
  2
BORDER
 70
0
  3
Border __ __ . __ __ . __ __ . __ __ . __ __ .
 72
65
 73
6
 40
44.4500000000000028
 49
12.6999999999999993
 74
0
 49
-6.3499999999999996
 74
0
 49
12.6999999999999993
 74
0
 49
-6.3499999999999996
 74
0
 49
0.0
 74
0
 49
-6.3499999999999996
 74
0
  0
LTYPE
  5
38
100
AcDbSymbolTableRecord
100
AcDbLinetypeTableRecord
  2
DASHDOTX2
 70
0
  3
Dash dot (2x) ____  .  ____  .  ____  .  ___
 72
65
 73
4
 40
50.7999999999999972
 49
25.3999999999999986
 74
0
 49
-12.6999999999999993
 74
0
 49
0.0
 74
0
 49
-12.6999999999999993
 74
0
  0
LTYPE
  5
39
100
AcDbSymbolTableRecord
100
AcDbLinetypeTableRecord
  2
CENTERX2
 70
0
  3
Center (2x) ________  __  ________  __  _____
 72
65
 73
4
 40
101.5999999999999943
 49
63.5
 74
0
 49
-12.6999999999999993
 74
0
 49
12.6999999999999993
 74
0
 49
-12.6999999999999993
 74
0
  0
LTYPE
  5
3A
100
AcDbSymbolTableRecord
100
AcDbLinetypeTableRecord
  2
BORDER2
 70
0
  3
Border (.5x) __.__.__.__.__.__.__.__.__.__.__.
 72
65
 73
6
 40
22.2250000000000014
 49
6.3499999999999996
 74
0
 49
-3.1749999999999998
 74
0
 49
6.3499999999999996
 74
0
 49
-3.1749999999999998
 74
0
 49
0.0
 74
0
 49
-3.1749999999999998
 74
0
  0
LTYPE
  5
3B
100
AcDbSymbolTableRecord
100
AcDbLinetypeTableRecord
  2
BORDERX2
 70
0
  3
Border (2x) ____  ____  .  ____  ____  .  ___
 72
65
 73
6
 40
88.9000000000000057
 49
25.3999999999999986
 74
0
 49
-12.6999999999999993
 74
0
 49
25.3999999999999986
 74
0
 49
-12.6999999999999993
 74
0
 49
0.0
 74
0
 49
-12.6999999999999993
 74
0
  0
LTYPE
  5
14
100
AcDbSymbolTableRecord
100
AcDbLinetypeTableRecord
  2
BYBLOCK
 70
0
  3

 72
65
 73
0
 40
0.0
  0
LTYPE
  5
15
100
AcDbSymbolTableRecord
100
AcDbLinetypeTableRecord
  2
BYLAYER
 70
0
  3

 72
65
 73
0
 40
0.0
  0
LTYPE
  5
3C
100
AcDbSymbolTableRecord
100
AcDbLinetypeTableRecord
  2
DASHED2
 70
0
  3
Dashed (.5x) _ _ _ _ _ _ _ _ _ _ _ _ _ _ _ _ _
 72
65
 73
2
 40
9.5250000000000004
 49
6.3499999999999996
 74
0
 49
-3.1749999999999998
 74
0
  0
LTYPE
  5
3D
100
AcDbSymbolTableRecord
100
AcDbLinetypeTableRecord
  2
CENTER
 70
0
  3
Center ____ _ ____ _ ____ _ ____ _ ____ _ ____
 72
65
 73
4
 40
50.7999999999999972
 49
31.75
 74
0
 49
-6.3499999999999996
 74
0
 49
6.3499999999999996
 74
0
 49
-6.3499999999999996
 74
0
  0
LTYPE
  5
3E
100
AcDbSymbolTableRecord
100
AcDbLinetypeTableRecord
  2
DIVIDE2
 70
0
  3
Divide (.5x) __..__..__..__..__..__..__..__.._
 72
65
 73
6
 40
15.875
 49
6.3499999999999996
 74
0
 49
-3.1749999999999998
 74
0
 49
0.0
 74
0
 49
-3.1749999999999998
 74
0
 49
0.0
 74
0
 49
-3.1749999999999998
 74
0
  0
LTYPE
  5
3F
100
AcDbSymbolTableRecord
100
AcDbLinetypeTableRecord
  2
DASHED
 70
0
  3
Dashed __ __ __ __ __ __ __ __ __ __ __ __ __ _
 72
65
 73
2
 40
19.0500000000000007
 49
12.6999999999999993
 74
0
 49
-6.3499999999999996
 74
0
  0
LTYPE
  5
40
100
AcDbSymbolTableRecord
100
AcDbLinetypeTableRecord
  2
DOTX2
 70
0
  3
Dot (2x) .  .  .  .  .  .  .  .  .  .  .  .  .
 72
65
 73
2
 40
12.6999999999999993
 49
0.0
 74
0
 49
-12.6999999999999993
 74
0
  0
LTYPE
  5
41
100
AcDbSymbolTableRecord
100
AcDbLinetypeTableRecord
  2
DASHEDX2
 70
0
  3
Dashed (2x) ____  ____  ____  ____  ____  ___
 72
65
 73
2
 40
38.1000000000000014
 49
25.3999999999999986
 74
0
 49
-12.6999999999999993
 74
0
  0
LTYPE
  5
42
100
AcDbSymbolTableRecord
100
AcDbLinetypeTableRecord
  2
DOT
 70
0
  3
Dot . . . . . . . . . . . . . . . . . . . . . .
 72
65
 73
2
 40
6.3499999999999996
 49
0.0
 74
0
 49
-6.3499999999999996
 74
0
  0
ENDTAB
  0
TABLE
  2
LAYER
  5
2
100
AcDbSymbolTable
 70
7
  0
LAYER
  5
43
100
AcDbSymbolTableRecord
100
AcDbLayerTableRecord
  2
guides
 70
0
 62
1
420
16711680
  6
CONTINUOUS
370
0
390
F
  0
LAYER
  5
44
100
AcDbSymbolTableRecord
100
AcDbLayerTableRecord
  2
dimensions
 70
0
 62
4
420
65535
  6
CONTINUOUS
370
0
390
F
  0
LAYER
  5
45
100
AcDbSymbolTableRecord
100
AcDbLayerTableRecord
  2
parts
 70
0
 62
3
420
65280
  6
CONTINUOUS
370
0
390
F
  0
LAYER
  5
46
100
AcDbSymbolTableRecord
100
AcDbLayerTableRecord
  2
Defpoints
 70
0
 62
7
420
16777215
  6
CONTINUOUS
290
0
370
-3
390
F
  0
LAYER
  5
10
100
AcDbSymbolTableRecord
100
AcDbLayerTableRecord
  2
0
 70
0
 62
7
420
16777215
  6
CONTINUOUS
370
0
390
F
  0
LAYER
  5
47
100
AcDbSymbolTableRecord
100
AcDbLayerTableRecord
  2
outline
 70
0
 62
2
420
16776960
  6
CONTINUOUS
370
0
390
F
  0
LAYER
  5
48
100
AcDbSymbolTableRecord
100
AcDbLayerTableRecord
  2
labels
 70
0
 62
6
420
16711935
  6
CONTINUOUS
370
0
390
F
  0
ENDTAB
  0
TABLE
  2
STYLE
  5
3
100
AcDbSymbolTable
 70
1
  0
STYLE
  5
49
100
AcDbSymbolTableRecord
100
AcDbTextStyleTableRecord
  2
Standard
 70
0
 40
0.0
 41
1.0
 50
0.0
 71
0
 42
2.5
  3

  4

1001
ACAD
1000
txt
1071
0
  0
ENDTAB
  0
TABLE
  2
VIEW
  5
6
100
AcDbSymbolTable
 70
0
  0
ENDTAB
  0
TABLE
  2
UCS
  5
7
100
AcDbSymbolTable
 70
0
  0
ENDTAB
  0
TABLE
  2
APPID
  5
9
100
AcDbSymbolTable
 70
1
  0
APPID
  5
12
100
AcDbSymbolTableRecord
100
AcDbRegAppTableRecord
  2
ACAD
 70
0
  0
APPID
  5
4A
100
AcDbSymbolTableRecord
100
AcDbRegAppTableRecord
  2
QCAD
 70
0
  0
ENDTAB
  0
TABLE
  2
DIMSTYLE
  5
A
100
AcDbSymbolTable
 70
1
100
AcDbDimStyleTable
 71
0
  0
DIMSTYLE
105
27
100
AcDbSymbolTableRecord
100
AcDbDimStyleTableRecord
  2
Standard
 41
2.5
 42
0.625
 43
3.75
 44
1.25
 70
0
 73
0
 74
0
 77
1
 78
8
140
2.5
141
2.5
143
0.03937007874016
147
0.625
171
3
172
1
271
2
272
2
274
3
278
44
283
0
284
8
340
49
  0
ENDTAB
  0
TABLE
  2
BLOCK_RECORD
  5
1
100
AcDbSymbolTable
 70
1
  0
BLOCK_RECORD
  5
1F
100
AcDbSymbolTableRecord
100
AcDbBlockTableRecord
  2
*Model_Space
340
22
  0
BLOCK_RECORD
  5
1B
100
AcDbSymbolTableRecord
100
AcDbBlockTableRecord
  2
*Paper_Space
340
1E
  0
BLOCK_RECORD
  5
23
100
AcDbSymbolTableRecord
100
AcDbBlockTableRecord
  2
*Paper_Space0
340
26
  0
BLOCK_RECORD
  5
4B
100
AcDbSymbolTableRecord
100
AcDbBlockTableRecord
  2
Nema17Top
340
0
  0
BLOCK_RECORD
  5
4C
100
AcDbSymbolTableRecord
100
AcDbBlockTableRecord
  2
pulley bearing side
340
0
  0
BLOCK_RECORD
  5
4D
100
AcDbSymbolTableRecord
100
AcDbBlockTableRecord
  2
nema 17
340
0
  0
ENDTAB
  0
ENDSEC
  0
SECTION
  2
BLOCKS
  0
BLOCK
  5
20
100
AcDbEntity
  8
0
100
AcDbBlockBegin
  2
*Model_Space
 70
0
 10
0.0
 20
0.0
 30
0.0
  3
*Model_Space
  1

  0
ENDBLK
  5
21
100
AcDbEntity
  8
0
100
AcDbBlockEnd
  0
BLOCK
  5
1C
100
AcDbEntity
 67
1
  8
0
100
AcDbBlockBegin
  2
*Paper_Space
 70
0
 10
0.0
 20
0.0
 30
0.0
  3
*Paper_Space
  1

  0
ENDBLK
  5
1D
100
AcDbEntity
 67
1
  8
0
100
AcDbBlockEnd
  0
BLOCK
  5
24
100
AcDbEntity
  8
0
100
AcDbBlockBegin
  2
*Paper_Space0
 70
0
 10
0.0
 20
0.0
 30
0.0
  3
*Paper_Space0
  1

  0
ENDBLK
  5
25
100
AcDbEntity
  8
0
100
AcDbBlockEnd
  0
BLOCK
  5
4E
100
AcDbEntity
  8
0
100
AcDbBlockBegin
  2
Nema17Top
 70
0
 10
0.0
 20
0.0
 30
0.0
  3
Nema17Top
  1

  0
LINE
  5
4F
100
AcDbEntity
100
AcDbLine
  8
parts
 62
256
370
-1
  6
BYLAYER
 10
15.4999999999999716
 20
15.5
 30
0.0
 11
16.9999999999999716
 21
17.0
 31
0.0
  0
LINE
  5
50
100
AcDbEntity
100
AcDbLine
  8
parts
 62
256
370
-1
  6
BYLAYER
 10
16.9999999999999716
 20
17.0
 30
0.0
 11
16.9999999999999716
 21
21.0
 31
0.0
  0
LINE
  5
51
100
AcDbEntity
100
AcDbLine
  8
parts
 62
256
370
-1
  6
BYLAYER
 10
-14.0
 20
21.0
 30
0.0
 11
-14.0000000000000284
 21
17.0
 31
0.0
  0
LINE
  5
52
100
AcDbEntity
100
AcDbLine
  8
parts
 62
256
370
-1
  6
BYLAYER
 10
-14.0000000000000284
 20
17.0
 30
0.0
 11
-15.5
 21
15.5
 31
0.0
  0
LINE
  5
53
100
AcDbEntity
100
AcDbLine
  8
parts
 62
256
370
-1
  6
BYLAYER
 10
-15.5
 20
15.5
 30
0.0
 11
-17.0
 21
17.0
 31
0.0
  0
LINE
  5
54
100
AcDbEntity
100
AcDbLine
  8
parts
 62
256
370
-1
  6
BYLAYER
 10
-17.0
 20
17.0
 30
0.0
 11
-17.0000000000000284
 21
21.0
 31
0.0
  0
LINE
  5
55
100
AcDbEntity
100
AcDbLine
  8
guides
 62
256
370
-1
  6
BYLAYER
 10
-0.0000000000000284
 20
-28.0
 30
0.0
 11
0.0
 21
52.0
 31
0.0
  0
LINE
  5
56
100
AcDbEntity
100
AcDbLine
  8
parts
 62
256
370
-1
  6
BYLAYER
 10
20.6499999999999488
 20
-21.0
 30
0.0
 11
-20.6500000000000625
 21
-21.0
 31
0.0
  0
LINE
  5
57
100
AcDbEntity
100
AcDbLine
  8
parts
 62
256
370
-1
  6
BYLAYER
 10
21.1499999999999488
 20
-20.5
 30
0.0
 11
21.1499999999999488
 21
20.5
 31
0.0
  0
LINE
  5
58
100
AcDbEntity
100
AcDbLine
  8
parts
 62
256
370
-1
  6
BYLAYER
 10
-21.1500000000000625
 20
20.5
 30
0.0
 11
-21.1500000000000625
 21
-20.5
 31
0.0
  0
LINE
  5
59
100
AcDbEntity
100
AcDbLine
  8
parts
 62
256
370
-1
  6
BYLAYER
 10
-11.0000000000000284
 20
23.0
 30
0.0
 11
-11.0000000000000284
 21
21.0
 31
0.0
  0
LINE
  5
5A
100
AcDbEntity
100
AcDbLine
  8
parts
 62
256
370
-1
  6
BYLAYER
 10
10.9999999999999716
 20
23.0
 30
0.0
 11
10.9999999999999716
 21
21.0
 31
0.0
  0
LINE
  5
5B
100
AcDbEntity
100
AcDbLine
  8
parts
 62
256
370
-1
  6
BYLAYER
 10
-11.0000000000000284
 20
21.0
 30
0.0
 11
-20.6500000000000625
 21
21.0
 31
0.0
  0
LINE
  5
5C
100
AcDbEntity
100
AcDbLine
  8
parts
 62
256
370
-1
  6
BYLAYER
 10
20.6499999999999773
 20
21.0
 30
0.0
 11
10.9999999999999716
 21
21.0
 31
0.0
  0
LINE
  5
5D
100
AcDbEntity
100
AcDbLine
  8
parts
 62
256
370
-1
  6
BYLAYER
 10
-2.5000000000000284
 20
23.0
 30
0.0
 11
-2.5000000000000284
 21
46.5
 31
0.0
  0
LINE
  5
5E
100
AcDbEntity
100
AcDbLine
  8
parts
 62
256
370
-1
  6
BYLAYER
 10
2.4999999999999716
 20
23.0
 30
0.0
 11
2.5
 21
46.5
 31
0.0
  0
LINE
  5
5F
100
AcDbEntity
100
AcDbLine
  8
parts
 62
256
370
-1
  6
BYLAYER
 10
-2.0000000000000284
 20
47.0
 30
0.0
 11
2.0
 21
47.0
 31
0.0
  0
LINE
  5
60
100
AcDbEntity
100
AcDbLine
  8
parts
 62
256
370
-1
  6
BYLAYER
 10
-2.5000000000000284
 20
23.0
 30
0.0
 11
-11.0000000000000284
 21
23.0
 31
0.0
  0
LINE
  5
61
100
AcDbEntity
100
AcDbLine
  8
parts
 62
256
370
-1
  6
BYLAYER
 10
10.9999999999999716
 20
23.0
 30
0.0
 11
2.4999999999999716
 21
23.0
 31
0.0
  0
LINE
  5
62
100
AcDbEntity
100
AcDbLine
  8
parts
 62
256
370
-1
  6
BYLAYER
 10
-2.5000000000000284
 20
46.5
 30
0.0
 11
-2.0000000000000284
 21
47.0
 31
0.0
  0
LINE
  5
63
100
AcDbEntity
100
AcDbLine
  8
parts
 62
256
370
-1
  6
BYLAYER
 10
2.0
 20
47.0
 30
0.0
 11
2.5
 21
46.5
 31
0.0
  0
LINE
  5
64
100
AcDbEntity
100
AcDbLine
  8
parts
 62
256
370
-1
  6
BYLAYER
 10
20.6499999999999773
 20
21.0
 30
0.0
 11
21.1499999999999488
 21
20.5
 31
0.0
  0
LINE
  5
65
100
AcDbEntity
100
AcDbLine
  8
parts
 62
256
370
-1
  6
BYLAYER
 10
-20.6500000000000625
 20
21.0
 30
0.0
 11
-21.1500000000000625
 21
20.5
 31
0.0
  0
LINE
  5
66
100
AcDbEntity
100
AcDbLine
  8
parts
 62
256
370
-1
  6
BYLAYER
 10
-20.6500000000000625
 20
-21.0
 30
0.0
 11
-21.1500000000000625
 21
-20.5
 31
0.0
  0
LINE
  5
67
100
AcDbEntity
100
AcDbLine
  8
parts
 62
256
370
-1
  6
BYLAYER
 10
20.6499999999999488
 20
-21.0
 30
0.0
 11
21.1499999999999488
 21
-20.5
 31
0.0
  0
LINE
  5
68
100
AcDbEntity
100
AcDbLine
  8
guides
 62
256
370
-1
  6
BYLAYER
 10
15.4999999999999716
 20
31.0
 30
0.0
 11
15.4999999999999716
 21
11.0
 31
0.0
  0
LINE
  5
69
100
AcDbEntity
100
AcDbLine
  8
guides
 62
256
370
-1
  6
BYLAYER
 10
-15.5000000000000568
 20
31.0
 30
0.0
 11
-15.5000000000000284
 21
11.0
 31
0.0
  0
LINE
  5
6A
100
AcDbEntity
100
AcDbLine
  8
parts
 62
256
370
-1
  6
BYLAYER
 10
13.9999999999999716
 20
21.0
 30
0.0
 11
13.9999999999999716
 21
17.0
 31
0.0
  0
LINE
  5
6B
100
AcDbEntity
100
AcDbLine
  8
parts
 62
256
370
-1
  6
BYLAYER
 10
13.9999999999999716
 20
17.0
 30
0.0
 11
15.4999999999999716
 21
15.5
 31
0.0
  0
LINE
  5
6C
100
AcDbEntity
100
AcDbLine
  8
guides
 62
256
370
-1
  6
BYLAYER
 10
9.9999999999999716
 20
0.0
 30
0.0
 11
-10.0000000000000284
 21
0.0
 31
0.0
  0
ENDBLK
  5
6D
100
AcDbEntity
  8
0
100
AcDbBlockEnd
  0
BLOCK
  5
6E
100
AcDbEntity
  8
0
100
AcDbBlockBegin
  2
pulley bearing side
 70
0
 10
0.0
 20
0.0
 30
0.0
  3
pulley bearing side
  1

  0
CIRCLE
  5
6F
100
AcDbEntity
100
AcDbCircle
  8
parts
 62
256
370
-1
  6
BYLAYER
 10
0.0
 20
0.0
 30
0.0
 40
2.0
  0
CIRCLE
  5
70
100
AcDbEntity
100
AcDbCircle
  8
parts
 62
256
370
-1
  6
BYLAYER
 10
0.0
 20
0.0
 30
0.0
 40
6.5
  0
CIRCLE
  5
71
100
AcDbEntity
100
AcDbCircle
  8
parts
 62
256
370
-1
  6
DASHED2
 10
0.0
 20
0.0
 30
0.0
 40
4.7000000000000002
  0
LINE
  5
72
100
AcDbEntity
100
AcDbLine
  8
guides
 62
256
370
-1
  6
BYLAYER
 10
10.0
 20
0.0
 30
0.0
 11
-10.0
 21
0.0
 31
0.0
  0
LINE
  5
73
100
AcDbEntity
100
AcDbLine
  8
guides
 62
256
370
-1
  6
BYLAYER
 10
0.0
 20
10.0
 30
0.0
 11
0.0
 21
-10.0
 31
0.0
  0
ENDBLK
  5
74
100
AcDbEntity
  8
0
100
AcDbBlockEnd
  0
BLOCK
  5
75
100
AcDbEntity
  8
0
100
AcDbBlockBegin
  2
nema 17
 70
0
 10
0.0
 20
0.0
 30
0.0
  3
nema 17
  1

  0
LINE
  5
76
100
AcDbEntity
100
AcDbLine
  8
parts
 62
256
370
-1
  6
BYLAYER
 10
-21.0
 20
21.0
 30
0.0
 11
-21.0
 21
21.0
 31
0.0
  0
LINE
  5
77
100
AcDbEntity
100
AcDbLine
  8
parts
 62
256
370
-1
  6
BYLAYER
 10
-21.0
 20
21.0
 30
0.0
 11
-21.0
 21
21.0
 31
0.0
  0
LINE
  5
78
100
AcDbEntity
100
AcDbLine
  8
parts
 62
256
370
-1
  6
BYLAYER
 10
-20.0
 20
21.0
 30
0.0
 11
20.0
 21
21.0
 31
0.0
  0
LINE
  5
79
100
AcDbEntity
100
AcDbLine
  8
parts
 62
256
370
-1
  6
BYLAYER
 10
21.0
 20
20.0
 30
0.0
 11
21.0
 21
-20.0
 31
0.0
  0
LINE
  5
7A
100
AcDbEntity
100
AcDbLine
  8
parts
 62
256
370
-1
  6
BYLAYER
 10
20.0
 20
-21.0
 30
0.0
 11
-20.0
 21
-21.0
 31
0.0
  0
LINE
  5
7B
100
AcDbEntity
100
AcDbLine
  8
parts
 62
256
370
-1
  6
BYLAYER
 10
-21.0
 20
-20.0
 30
0.0
 11
-21.0
 21
20.0
 31
0.0
  0
LINE
  5
7C
100
AcDbEntity
100
AcDbLine
  8
parts
 62
256
370
-1
  6
BYLAYER
 10
-21.0
 20
20.0
 30
0.0
 11
-20.0
 21
21.0
 31
0.0
  0
LINE
  5
7D
100
AcDbEntity
100
AcDbLine
  8
parts
 62
256
370
-1
  6
BYLAYER
 10
21.0
 20
20.0
 30
0.0
 11
20.0
 21
21.0
 31
0.0
  0
LINE
  5
7E
100
AcDbEntity
100
AcDbLine
  8
parts
 62
256
370
-1
  6
BYLAYER
 10
21.0
 20
-20.0
 30
0.0
 11
20.0
 21
-21.0
 31
0.0
  0
LINE
  5
7F
100
AcDbEntity
100
AcDbLine
  8
parts
 62
256
370
-1
  6
BYLAYER
 10
-20.0
 20
-21.0
 30
0.0
 11
-21.0
 21
-20.0
 31
0.0
  0
CIRCLE
  5
80
100
AcDbEntity
100
AcDbCircle
  8
parts
 62
256
370
-1
  6
BYLAYER
 10
0.0
 20
0.0
 30
0.0
 40
2.5
  0
CIRCLE
  5
81
100
AcDbEntity
100
AcDbCircle
  8
parts
 62
256
370
-1
  6
BYLAYER
 10
0.0
 20
0.0
 30
0.0
 40
11.0
  0
CIRCLE
  5
82
100
AcDbEntity
100
AcDbCircle
  8
parts
 62
256
370
-1
  6
BYLAYER
 10
15.5
 20
15.5
 30
0.0
 40
1.5
  0
CIRCLE
  5
83
100
AcDbEntity
100
AcDbCircle
  8
parts
 62
256
370
-1
  6
BYLAYER
 10
15.5
 20
-15.5
 30
0.0
 40
1.5
  0
CIRCLE
  5
84
100
AcDbEntity
100
AcDbCircle
  8
parts
 62
256
370
-1
  6
BYLAYER
 10
-15.4999999999999893
 20
-15.5
 30
0.0
 40
1.5
  0
CIRCLE
  5
85
100
AcDbEntity
100
AcDbCircle
  8
parts
 62
256
370
-1
  6
BYLAYER
 10
-15.4999999999999805
 20
15.5
 30
0.0
 40
1.5
  0
LINE
  5
86
100
AcDbEntity
100
AcDbLine
  8
guides
 62
256
370
-1
  6
BYLAYER
 10
0.0
 20
30.0
 30
0.0
 11
0.0
 21
-30.0
 31
0.0
  0
LINE
  5
87
100
AcDbEntity
100
AcDbLine
  8
guides
 62
256
370
-1
  6
BYLAYER
 10
-30.0
 20
0.0
 30
0.0
 11
30.0
 21
0.0
 31
0.0
  0
LINE
  5
88
100
AcDbEntity
100
AcDbLine
  8
parts
 62
256
370
-1
  6
BYLAYER
 10
-21.0
 20
21.0
 30
0.0
 11
-21.0
 21
21.0
 31
0.0
  0
LINE
  5
89
100
AcDbEntity
100
AcDbLine
  8
parts
 62
256
370
-1
  6
BYLAYER
 10
-21.0
 20
21.0
 30
0.0
 11
-21.0
 21
21.0
 31
0.0
  0
LINE
  5
8A
100
AcDbEntity
100
AcDbLine
  8
parts
 62
256
370
-1
  6
BYLAYER
 10
-21.0
 20
21.0
 30
0.0
 11
-21.0
 21
21.0
 31
0.0
  0
LINE
  5
8B
100
AcDbEntity
100
AcDbLine
  8
parts
 62
256
370
-1
  6
BYLAYER
 10
-21.0
 20
21.0
 30
0.0
 11
-21.0
 21
21.0
 31
0.0
  0
LINE
  5
8C
100
AcDbEntity
100
AcDbLine
  8
parts
 62
256
370
-1
  6
BYLAYER
 10
-21.0
 20
21.0
 30
0.0
 11
-21.0
 21
21.0
 31
0.0
  0
LINE
  5
8D
100
AcDbEntity
100
AcDbLine
  8
parts
 62
256
370
-1
  6
BYLAYER
 10
-21.0
 20
21.0
 30
0.0
 11
-21.0
 21
21.0
 31
0.0
  0
LINE
  5
8E
100
AcDbEntity
100
AcDbLine
  8
parts
 62
256
370
-1
  6
BYLAYER
 10
-21.0
 20
21.0
 30
0.0
 11
-21.0
 21
21.0
 31
0.0
  0
LINE
  5
8F
100
AcDbEntity
100
AcDbLine
  8
parts
 62
256
370
-1
  6
BYLAYER
 10
-21.0
 20
21.0
 30
0.0
 11
-21.0
 21
21.0
 31
0.0
  0
LINE
  5
90
100
AcDbEntity
100
AcDbLine
  8
parts
 62
256
370
-1
  6
BYLAYER
 10
-21.0
 20
21.0
 30
0.0
 11
-21.0
 21
21.0
 31
0.0
  0
LINE
  5
91
100
AcDbEntity
100
AcDbLine
  8
parts
 62
256
370
-1
  6
BYLAYER
 10
-21.0
 20
21.0
 30
0.0
 11
-21.0
 21
21.0
 31
0.0
  0
ENDBLK
  5
92
100
AcDbEntity
  8
0
100
AcDbBlockEnd
  0
ENDSEC
  0
SECTION
  2
ENTITIES
  0
LINE
  5
93
100
AcDbEntity
100
AcDbLine
  8
0
 62
256
370
-1
  6
BYLAYER
 10
205.0
 20
365.0
 30
0.0
 11
205.0
 21
368.0
 31
0.0
  0
LINE
  5
94
100
AcDbEntity
100
AcDbLine
  8
0
 62
256
370
-1
  6
BYLAYER
 10
205.0
 20
368.0
 30
0.0
 11
210.0
 21
368.0
 31
0.0
  0
LINE
  5
95
100
AcDbEntity
100
AcDbLine
  8
0
 62
256
370
-1
  6
BYLAYER
 10
210.0
 20
368.0
 30
0.0
 11
210.0
 21
373.0
 31
0.0
  0
LINE
  5
96
100
AcDbEntity
100
AcDbLine
  8
0
 62
256
370
-1
  6
BYLAYER
 10
210.0
 20
383.0
 30
0.0
 11
210.0
 21
388.0
 31
0.0
  0
LINE
  5
97
100
AcDbEntity
100
AcDbLine
  8
0
 62
256
370
-1
  6
BYLAYER
 10
210.0
 20
388.0
 30
0.0
 11
205.0
 21
388.0
 31
0.0
  0
LINE
  5
98
100
AcDbEntity
100
AcDbLine
  8
0
 62
256
370
-1
  6
BYLAYER
 10
195.0
 20
388.0
 30
0.0
 11
190.0
 21
388.0
 31
0.0
  0
LINE
  5
99
100
AcDbEntity
100
AcDbLine
  8
0
 62
256
370
-1
  6
BYLAYER
 10
190.0
 20
388.0
 30
0.0
 11
190.0
 21
383.0
 31
0.0
  0
LINE
  5
9A
100
AcDbEntity
100
AcDbLine
  8
0
 62
256
370
-1
  6
BYLAYER
 10
190.0
 20
373.0
 30
0.0
 11
190.0
 21
368.0
 31
0.0
  0
LINE
  5
9B
100
AcDbEntity
100
AcDbLine
  8
0
 62
256
370
-1
  6
BYLAYER
 10
190.0
 20
368.0
 30
0.0
 11
195.0
 21
368.0
 31
0.0
  0
LINE
  5
9C
100
AcDbEntity
100
AcDbLine
  8
0
 62
256
370
-1
  6
BYLAYER
 10
210.0
 20
373.0
 30
0.0
 11
210.0
 21
373.0
 31
0.0
  0
LINE
  5
9D
100
AcDbEntity
100
AcDbLine
  8
0
 62
256
370
-1
  6
BYLAYER
 10
210.0
 20
373.0
 30
0.0
 11
210.0
 21
373.0
 31
0.0
  0
LINE
  5
9E
100
AcDbEntity
100
AcDbLine
  8
0
 62
256
370
-1
  6
BYLAYER
 10
210.0
 20
373.0
 30
0.0
 11
210.0
 21
373.0
 31
0.0
  0
LINE
  5
9F
100
AcDbEntity
100
AcDbLine
  8
0
 62
256
370
-1
  6
BYLAYER
 10
210.0
 20
373.0
 30
0.0
 11
210.0
 21
373.0
 31
0.0
  0
LINE
  5
A0
100
AcDbEntity
100
AcDbLine
  8
0
 62
256
370
-1
  6
BYLAYER
 10
213.0
 20
373.0
 30
0.0
 11
210.0
 21
373.0
 31
0.0
  0
LINE
  5
A1
100
AcDbEntity
100
AcDbLine
  8
0
 62
256
370
-1
  6
BYLAYER
 10
210.0
 20
383.0
 30
0.0
 11
213.0
 21
383.0
 31
0.0
  0
LINE
  5
A2
100
AcDbEntity
100
AcDbLine
  8
0
 62
256
370
-1
  6
BYLAYER
 10
213.0
 20
383.0
 30
0.0
 11
213.0
 21
373.0
 31
0.0
  0
LINE
  5
A3
100
AcDbEntity
100
AcDbLine
  8
0
 62
256
370
-1
  6
BYLAYER
 10
195.0
 20
388.0
 30
0.0
 11
195.0
 21
391.0
 31
0.0
  0
LINE
  5
A4
100
AcDbEntity
100
AcDbLine
  8
0
 62
256
370
-1
  6
BYLAYER
 10
205.0
 20
391.0
 30
0.0
 11
205.0
 21
388.0
 31
0.0
  0
LINE
  5
A5
100
AcDbEntity
100
AcDbLine
  8
0
 62
256
370
-1
  6
BYLAYER
 10
190.0
 20
373.0
 30
0.0
 11
187.0
 21
373.0
 31
0.0
  0
LINE
  5
A6
100
AcDbEntity
100
AcDbLine
  8
0
 62
256
370
-1
  6
BYLAYER
 10
221.0
 20
391.0
 30
0.0
 11
205.0
 21
391.0
 31
0.0
  0
LINE
  5
A7
100
AcDbEntity
100
AcDbLine
  8
0
 62
256
370
-1
  6
BYLAYER
 10
187.0
 20
373.0
 30
0.0
 11
187.0
 21
383.0
 31
0.0
  0
LINE
  5
A8
100
AcDbEntity
100
AcDbLine
  8
0
 62
256
370
-1
  6
BYLAYER
 10
195.0
 20
391.0
 30
0.0
 11
179.0
 21
391.0
 31
0.0
  0
LINE
  5
A9
100
AcDbEntity
100
AcDbLine
  8
0
 62
256
370
-1
  6
BYLAYER
 10
187.0
 20
383.0
 30
0.0
 11
190.0
 21
383.0
 31
0.0
  0
LINE
  5
AA
100
AcDbEntity
100
AcDbLine
  8
0
 62
256
370
-1
  6
BYLAYER
 10
195.0
 20
368.0
 30
0.0
 11
195.0
 21
365.0
 31
0.0
  0
LINE
  5
AB
100
AcDbEntity
100
AcDbLine
  8
0
 62
256
370
-1
  6
BYLAYER
 10
195.0
 20
365.0
 30
0.0
 11
205.0
 21
365.0
 31
0.0
  0
LINE
  5
AC
100
AcDbEntity
100
AcDbLine
  8
guides
 62
256
370
-1
  6
BYLAYER
 10
213.0
 20
365.0
 30
0.0
 11
213.0
 21
391.0
 31
0.0
  0
LINE
  5
AD
100
AcDbEntity
100
AcDbLine
  8
guides
 62
256
370
-1
  6
BYLAYER
 10
213.0
 20
391.0
 30
0.0
 11
187.0
 21
391.0
 31
0.0
  0
LINE
  5
AE
100
AcDbEntity
100
AcDbLine
  8
guides
 62
256
370
-1
  6
BYLAYER
 10
187.0
 20
391.0
 30
0.0
 11
187.0
 21
365.0
 31
0.0
  0
LINE
  5
AF
100
AcDbEntity
100
AcDbLine
  8
guides
 62
256
370
-1
  6
BYLAYER
 10
187.0
 20
365.0
 30
0.0
 11
213.0
 21
365.0
 31
0.0
  0
LINE
  5
B0
100
AcDbEntity
100
AcDbLine
  8
guides
 62
256
370
-1
  6
BYLAYER
 10
210.0
 20
373.0
 30
0.0
 11
210.0
 21
383.0
 31
0.0
  0
LINE
  5
B1
100
AcDbEntity
100
AcDbLine
  8
guides
 62
256
370
-1
  6
BYLAYER
 10
205.0
 20
388.0
 30
0.0
 11
195.0
 21
388.0
 31
0.0
  0
LINE
  5
B2
100
AcDbEntity
100
AcDbLine
  8
guides
 62
256
370
-1
  6
BYLAYER
 10
190.0
 20
383.0
 30
0.0
 11
190.0
 21
373.0
 31
0.0
  0
LINE
  5
B3
100
AcDbEntity
100
AcDbLine
  8
guides
 62
256
370
-1
  6
BYLAYER
 10
205.0
 20
368.0
 30
0.0
 11
195.0
 21
368.0
 31
0.0
  0
LINE
  5
B4
100
AcDbEntity
100
AcDbLine
  8
guides
 62
256
370
-1
  6
BYLAYER
 10
200.0
 20
368.0
 30
0.0
 11
200.0
 21
388.0
 31
0.0
  0
LINE
  5
B5
100
AcDbEntity
100
AcDbLine
  8
guides
 62
256
370
-1
  6
BYLAYER
 10
190.0
 20
378.0
 30
0.0
 11
210.0
 21
378.0
 31
0.0
  0
LINE
  5
B6
100
AcDbEntity
100
AcDbLine
  8
0
 62
256
370
-1
  6
BYLAYER
 10
359.1525218736300644
 20
129.6602540378443678
 30
0.0
 11
354.8223948547078521
 21
132.1602540378443962
 31
0.0
  0
LINE
  5
B7
100
AcDbEntity
100
AcDbLine
  8
0
 62
256
370
-1
  6
BYLAYER
 10
346.1621408168634844
 20
137.1602540378443109
 30
0.0
 11
341.8320137979412721
 21
139.6602540378443393
 31
0.0
  0
LINE
  5
B8
100
AcDbEntity
100
AcDbLine
  8
0
 62
256
370
-1
  6
BYLAYER
 10
341.8320137979412721
 20
139.6602540378443393
 30
0.0
 11
339.3320137979412721
 21
135.3301270189220986
 31
0.0
  0
LINE
  5
B9
100
AcDbEntity
100
AcDbLine
  8
0
 62
256
370
-1
  6
BYLAYER
 10
336.1621408168634844
 20
119.8397459621555754
 30
0.0
 11
336.1621408168634844
 21
119.8397459621555754
 31
0.0
  0
LINE
  5
BA
100
AcDbEntity
100
AcDbLine
  8
0
 62
256
370
-1
  6
BYLAYER
 10
336.1621408168634844
 20
119.8397459621555754
 30
0.0
 11
336.1621408168634844
 21
119.8397459621555754
 31
0.0
  0
LINE
  5
BB
100
AcDbEntity
100
AcDbLine
  8
0
 62
256
370
-1
  6
BYLAYER
 10
336.1621408168634844
 20
119.8397459621555754
 30
0.0
 11
336.1621408168634844
 21
119.8397459621555754
 31
0.0
  0
LINE
  5
BC
100
AcDbEntity
100
AcDbLine
  8
0
 62
256
370
-1
  6
BYLAYER
 10
336.1621408168634844
 20
119.8397459621555754
 30
0.0
 11
336.1621408168634844
 21
119.8397459621555754
 31
0.0
  0
LINE
  5
BD
100
AcDbEntity
100
AcDbLine
  8
0
 62
256
370
-1
  6
BYLAYER
 10
334.6621408168634275
 20
117.2416697508022025
 30
0.0
 11
336.1621408168634844
 21
119.8397459621555754
 31
0.0
  0
LINE
  5
BE
100
AcDbEntity
100
AcDbLine
  8
0
 62
256
370
-1
  6
BYLAYER
 10
344.8223948547077953
 20
114.8397459621554759
 30
0.0
 11
343.3223948547078521
 21
112.2416697508022452
 31
0.0
  0
LINE
  5
BF
100
AcDbEntity
100
AcDbLine
  8
0
 62
256
370
-1
  6
BYLAYER
 10
343.3223948547078521
 20
112.2416697508022452
 30
0.0
 11
334.6621408168634275
 21
117.2416697508022025
 31
0.0
  0
LINE
  5
C0
100
AcDbEntity
100
AcDbLine
  8
0
 62
256
370
-1
  6
BYLAYER
 10
356.6525218736300644
 20
125.3301270189221412
 30
0.0
 11
359.2505980849833804
 21
123.8301270189221697
 31
0.0
  0
LINE
  5
C1
100
AcDbEntity
100
AcDbLine
  8
0
 62
256
370
-1
  6
BYLAYER
 10
354.2505980849833236
 20
115.1698729810776598
 30
0.0
 11
351.6525218736300076
 21
116.6698729810776882
 31
0.0
  0
LINE
  5
C2
100
AcDbEntity
100
AcDbLine
  8
0
 62
256
370
-1
  6
BYLAYER
 10
346.1621408168634844
 20
137.1602540378443109
 30
0.0
 11
347.6621408168634844
 21
139.7583302491976553
 31
0.0
  0
LINE
  5
C3
100
AcDbEntity
100
AcDbLine
  8
0
 62
256
370
-1
  6
BYLAYER
 10
346.2505980849833804
 20
101.3134665205267311
 30
0.0
 11
354.2505980849833236
 21
115.1698729810776598
 31
0.0
  0
LINE
  5
C4
100
AcDbEntity
100
AcDbLine
  8
0
 62
256
370
-1
  6
BYLAYER
 10
347.6621408168634844
 20
139.7583302491976553
 30
0.0
 11
356.3223948547078521
 21
134.7583302491975985
 31
0.0
  0
LINE
  5
C5
100
AcDbEntity
100
AcDbLine
  8
0
 62
256
370
-1
  6
BYLAYER
 10
359.2505980849833804
 20
123.8301270189221697
 30
0.0
 11
367.2505980849833804
 21
137.6865334794730984
 31
0.0
  0
LINE
  5
C6
100
AcDbEntity
100
AcDbLine
  8
0
 62
256
370
-1
  6
BYLAYER
 10
356.3223948547078521
 20
134.7583302491975985
 30
0.0
 11
354.8223948547078521
 21
132.1602540378443962
 31
0.0
  0
LINE
  5
C7
100
AcDbEntity
100
AcDbLine
  8
0
 62
256
370
-1
  6
BYLAYER
 10
339.3320137979412721
 20
135.3301270189220986
 30
0.0
 11
336.7339375865878992
 21
136.8301270189220702
 31
0.0
  0
LINE
  5
C8
100
AcDbEntity
100
AcDbLine
  8
0
 62
256
370
-1
  6
BYLAYER
 10
336.7339375865878992
 20
136.8301270189220702
 30
0.0
 11
331.7339375865880129
 21
128.1698729810777877
 31
0.0
  0
LINE
  5
C9
100
AcDbEntity
100
AcDbLine
  8
guides
 62
256
370
-1
  6
BYLAYER
 10
327.733937586587956
 20
121.2416697508022736
 30
0.0
 11
350.2505980849833804
 21
108.2416697508022878
 31
0.0
  0
LINE
  5
CA
100
AcDbEntity
100
AcDbLine
  8
guides
 62
256
370
-1
  6
BYLAYER
 10
336.8320137979412721
 20
130.9999999999999432
 30
0.0
 11
354.1525218736300076
 21
120.9999999999999147
 31
0.0
  0
LINE
  5
CB
100
AcDbEntity
100
AcDbLine
  8
guides
 62
256
370
-1
  6
BYLAYER
 10
350.2505980849833804
 20
108.2416697508022878
 30
0.0
 11
363.2505980849832667
 21
130.7583302491975701
 31
0.0
  0
LINE
  5
CC
100
AcDbEntity
100
AcDbLine
  8
guides
 62
256
370
-1
  6
BYLAYER
 10
350.4922678357856967
 20
134.6602540378443109
 30
0.0
 11
340.492267835785583
 21
117.339745962155547
 31
0.0
  0
LINE
  5
CD
100
AcDbEntity
100
AcDbLine
  8
guides
 62
256
370
-1
  6
BYLAYER
 10
363.2505980849832667
 20
130.7583302491975701
 30
0.0
 11
340.7339375865878992
 21
143.7583302491975701
 31
0.0
  0
LINE
  5
CE
100
AcDbEntity
100
AcDbLine
  8
guides
 62
256
370
-1
  6
BYLAYER
 10
340.7339375865878992
 20
143.7583302491975701
 30
0.0
 11
327.733937586587956
 21
121.2416697508022736
 31
0.0
  0
LINE
  5
CF
100
AcDbEntity
100
AcDbLine
  8
guides
 62
256
370
-1
  6
BYLAYER
 10
336.1621408168634844
 20
119.8397459621555754
 30
0.0
 11
344.8223948547077953
 21
114.8397459621554759
 31
0.0
  0
LINE
  5
D0
100
AcDbEntity
100
AcDbLine
  8
guides
 62
256
370
-1
  6
BYLAYER
 10
351.6525218736300076
 20
116.6698729810776882
 30
0.0
 11
356.6525218736300644
 21
125.3301270189221412
 31
0.0
  0
LINE
  5
D1
100
AcDbEntity
100
AcDbLine
  8
guides
 62
256
370
-1
  6
BYLAYER
 10
354.8223948547078521
 20
132.1602540378443962
 30
0.0
 11
346.1621408168634844
 21
137.1602540378443109
 31
0.0
  0
LINE
  5
D2
100
AcDbEntity
100
AcDbLine
  8
guides
 62
256
370
-1
  6
BYLAYER
 10
334.3320137979412721
 20
126.6698729810777451
 30
0.0
 11
339.3320137979412721
 21
135.3301270189220986
 31
0.0
  0
LINE
  5
D3
100
AcDbEntity
100
AcDbLine
  8
guides
 62
256
370
-1
  6
BYLAYER
 10
262.3538290724795843
 20
173.9999999999999716
 30
0.0
 11
331.63586137523464
 21
133.9999999999999432
 31
0.0
  0
LINE
  5
D4
100
AcDbEntity
100
AcDbLine
  8
0
 62
256
370
-1
  6
BYLAYER
 10
331.7339375865880129
 20
128.1698729810777877
 30
0.0
 11
334.3320137979412721
 21
126.6698729810777451
 31
0.0
  0
LINE
  5
D5
100
AcDbEntity
100
AcDbLine
  8
0
 62
256
370
-1
  6
BYLAYER
 10
334.3320137979412721
 20
126.6698729810777451
 30
0.0
 11
331.8320137979412721
 21
122.3397459621555328
 31
0.0
  0
LINE
  5
D6
100
AcDbEntity
100
AcDbLine
  8
0
 62
256
370
-1
  6
BYLAYER
 10
331.8320137979412721
 20
122.3397459621555328
 30
0.0
 11
336.1621408168634844
 21
119.8397459621555754
 31
0.0
  0
LINE
  5
D7
100
AcDbEntity
100
AcDbLine
  8
0
 62
256
370
-1
  6
BYLAYER
 10
344.8223948547077953
 20
114.8397459621554759
 30
0.0
 11
349.1525218736300076
 21
112.3397459621555043
 31
0.0
  0
LINE
  5
D8
100
AcDbEntity
100
AcDbLine
  8
0
 62
256
370
-1
  6
BYLAYER
 10
349.1525218736300076
 20
112.3397459621555043
 30
0.0
 11
351.6525218736300076
 21
116.6698729810776882
 31
0.0
  0
LINE
  5
D9
100
AcDbEntity
100
AcDbLine
  8
0
 62
256
370
-1
  6
BYLAYER
 10
356.6525218736300644
 20
125.3301270189221412
 30
0.0
 11
359.1525218736300644
 21
129.6602540378443678
 31
0.0
  0
LINE
  5
DA
100
AcDbEntity
100
AcDbLine
  8
0
 62
256
370
-1
  6
BYLAYER
 10
50.8474781263698503
 20
112.3397459621557175
 30
0.0
 11
55.1776051452919774
 21
114.839745962155817
 31
0.0
  0
LINE
  5
DB
100
AcDbEntity
100
AcDbLine
  8
0
 62
256
370
-1
  6
BYLAYER
 10
63.837859183136402
 20
119.8397459621557601
 30
0.0
 11
68.1679862020586143
 21
122.3397459621557317
 31
0.0
  0
LINE
  5
DC
100
AcDbEntity
100
AcDbLine
  8
0
 62
256
370
-1
  6
BYLAYER
 10
68.1679862020586143
 20
122.3397459621557317
 30
0.0
 11
65.667986202058529
 21
126.6698729810780435
 31
0.0
  0
LINE
  5
DD
100
AcDbEntity
100
AcDbLine
  8
0
 62
256
370
-1
  6
BYLAYER
 10
53.8378591831364304
 20
137.1602540378445099
 30
0.0
 11
53.8378591831364304
 21
137.1602540378445099
 31
0.0
  0
LINE
  5
DE
100
AcDbEntity
100
AcDbLine
  8
0
 62
256
370
-1
  6
BYLAYER
 10
53.8378591831364304
 20
137.1602540378445099
 30
0.0
 11
53.8378591831364304
 21
137.1602540378445099
 31
0.0
  0
LINE
  5
DF
100
AcDbEntity
100
AcDbLine
  8
0
 62
256
370
-1
  6
BYLAYER
 10
53.8378591831364304
 20
137.1602540378445099
 30
0.0
 11
53.8378591831364304
 21
137.1602540378445099
 31
0.0
  0
LINE
  5
E0
100
AcDbEntity
100
AcDbLine
  8
0
 62
256
370
-1
  6
BYLAYER
 10
53.8378591831364304
 20
137.1602540378445099
 30
0.0
 11
53.8378591831364304
 21
137.1602540378445099
 31
0.0
  0
LINE
  5
E1
100
AcDbEntity
100
AcDbLine
  8
0
 62
256
370
-1
  6
BYLAYER
 10
52.3378591831364872
 20
139.7583302491977406
 30
0.0
 11
53.8378591831364304
 21
137.1602540378445099
 31
0.0
  0
LINE
  5
E2
100
AcDbEntity
100
AcDbLine
  8
0
 62
256
370
-1
  6
BYLAYER
 10
45.177605145292091
 20
132.1602540378444814
 30
0.0
 11
43.6776051452920342
 21
134.7583302491978543
 31
0.0
  0
LINE
  5
E3
100
AcDbEntity
100
AcDbLine
  8
0
 62
256
370
-1
  6
BYLAYER
 10
43.6776051452920342
 20
134.7583302491978543
 30
0.0
 11
52.3378591831364872
 21
139.7583302491977406
 31
0.0
  0
LINE
  5
E4
100
AcDbEntity
100
AcDbLine
  8
0
 62
256
370
-1
  6
BYLAYER
 10
48.3474781263698503
 20
116.6698729810779298
 30
0.0
 11
45.7494019150164775
 21
115.1698729810780293
 31
0.0
  0
LINE
  5
E5
100
AcDbEntity
100
AcDbLine
  8
0
 62
256
370
-1
  6
BYLAYER
 10
40.7494019150165627
 20
123.8301270189222691
 30
0.0
 11
43.3474781263698219
 21
125.3301270189223686
 31
0.0
  0
LINE
  5
E6
100
AcDbEntity
100
AcDbLine
  8
0
 62
256
370
-1
  6
BYLAYER
 10
63.837859183136402
 20
119.8397459621557601
 30
0.0
 11
65.3378591831363451
 21
117.2416697508025294
 31
0.0
  0
LINE
  5
E7
100
AcDbEntity
100
AcDbLine
  8
0
 62
256
370
-1
  6
BYLAYER
 10
32.749401915016449
 20
137.6865334794734963
 30
0.0
 11
40.7494019150165627
 21
123.8301270189222691
 31
0.0
  0
LINE
  5
E8
100
AcDbEntity
100
AcDbLine
  8
0
 62
256
370
-1
  6
BYLAYER
 10
65.3378591831363451
 20
117.2416697508025294
 30
0.0
 11
56.6776051452920058
 21
112.2416697508024441
 31
0.0
  0
LINE
  5
E9
100
AcDbEntity
100
AcDbLine
  8
0
 62
256
370
-1
  6
BYLAYER
 10
45.7494019150164775
 20
115.1698729810780293
 30
0.0
 11
53.7494019150165627
 21
101.3134665205268163
 31
0.0
  0
LINE
  5
EA
100
AcDbEntity
100
AcDbLine
  8
0
 62
256
370
-1
  6
BYLAYER
 10
56.6776051452920058
 20
112.2416697508024441
 30
0.0
 11
55.1776051452919774
 21
114.839745962155817
 31
0.0
  0
LINE
  5
EB
100
AcDbEntity
100
AcDbLine
  8
0
 62
256
370
-1
  6
BYLAYER
 10
65.667986202058529
 20
126.6698729810780435
 30
0.0
 11
68.2660624134119587
 21
128.1698729810778445
 31
0.0
  0
LINE
  5
EC
100
AcDbEntity
100
AcDbLine
  8
0
 62
256
370
-1
  6
BYLAYER
 10
68.2660624134119587
 20
128.1698729810778445
 30
0.0
 11
63.2660624134119018
 21
136.8301270189223828
 31
0.0
  0
LINE
  5
ED
100
AcDbEntity
100
AcDbLine
  8
guides
 62
256
370
-1
  6
BYLAYER
 10
59.2660624134119018
 20
143.7583302491979111
 30
0.0
 11
36.7494019150165059
 21
130.758330249197968
 31
0.0
  0
LINE
  5
EE
100
AcDbEntity
100
AcDbLine
  8
guides
 62
256
370
-1
  6
BYLAYER
 10
63.1679862020586143
 20
131.0000000000001137
 30
0.0
 11
45.8474781263698219
 21
121.0000000000001421
 31
0.0
  0
LINE
  5
EF
100
AcDbEntity
100
AcDbLine
  8
guides
 62
256
370
-1
  6
BYLAYER
 10
36.7494019150165059
 20
130.758330249197968
 30
0.0
 11
49.7494019150165627
 21
108.2416697508023731
 31
0.0
  0
LINE
  5
F0
100
AcDbEntity
100
AcDbLine
  8
guides
 62
256
370
-1
  6
BYLAYER
 10
59.5077321642142181
 20
117.3397459621557459
 30
0.0
 11
49.5077321642142465
 21
134.6602540378445383
 31
0.0
  0
LINE
  5
F1
100
AcDbEntity
100
AcDbLine
  8
guides
 62
256
370
-1
  6
BYLAYER
 10
49.7494019150165627
 20
108.2416697508023731
 30
0.0
 11
72.2660624134119729
 21
121.2416697508023447
 31
0.0
  0
LINE
  5
F2
100
AcDbEntity
100
AcDbLine
  8
guides
 62
256
370
-1
  6
BYLAYER
 10
72.2660624134119729
 20
121.2416697508023447
 30
0.0
 11
59.2660624134119018
 21
143.7583302491979111
 31
0.0
  0
LINE
  5
F3
100
AcDbEntity
100
AcDbLine
  8
guides
 62
256
370
-1
  6
BYLAYER
 10
53.8378591831364304
 20
137.1602540378445099
 30
0.0
 11
45.177605145292091
 21
132.1602540378444814
 31
0.0
  0
LINE
  5
F4
100
AcDbEntity
100
AcDbLine
  8
guides
 62
256
370
-1
  6
BYLAYER
 10
43.3474781263698219
 20
125.3301270189223686
 30
0.0
 11
48.3474781263698503
 21
116.6698729810779298
 31
0.0
  0
LINE
  5
F5
100
AcDbEntity
100
AcDbLine
  8
guides
 62
256
370
-1
  6
BYLAYER
 10
55.1776051452919774
 20
114.839745962155817
 30
0.0
 11
63.837859183136402
 21
119.8397459621557601
 31
0.0
  0
LINE
  5
F6
100
AcDbEntity
100
AcDbLine
  8
guides
 62
256
370
-1
  6
BYLAYER
 10
60.6679862020586711
 20
135.3301270189222123
 30
0.0
 11
65.667986202058529
 21
126.6698729810780435
 31
0.0
  0
LINE
  5
F7
100
AcDbEntity
100
AcDbLine
  8
guides
 62
256
370
-1
  6
BYLAYER
 10
137.6461709275203873
 20
174.0000000000000568
 30
0.0
 11
68.3641386247652463
 21
134.0000000000001137
 31
0.0
  0
LINE
  5
F8
100
AcDbEntity
100
AcDbLine
  8
0
 62
256
370
-1
  6
BYLAYER
 10
63.2660624134119018
 20
136.8301270189223828
 30
0.0
 11
60.6679862020586711
 21
135.3301270189222123
 31
0.0
  0
LINE
  5
F9
100
AcDbEntity
100
AcDbLine
  8
0
 62
256
370
-1
  6
BYLAYER
 10
60.6679862020586711
 20
135.3301270189222123
 30
0.0
 11
58.1679862020586143
 21
139.6602540378445383
 31
0.0
  0
LINE
  5
FA
100
AcDbEntity
100
AcDbLine
  8
0
 62
256
370
-1
  6
BYLAYER
 10
58.1679862020586143
 20
139.6602540378445383
 30
0.0
 11
53.8378591831364304
 21
137.1602540378445099
 31
0.0
  0
LINE
  5
FB
100
AcDbEntity
100
AcDbLine
  8
0
 62
256
370
-1
  6
BYLAYER
 10
45.177605145292091
 20
132.1602540378444814
 30
0.0
 11
40.8474781263698219
 21
129.6602540378445951
 31
0.0
  0
LINE
  5
FC
100
AcDbEntity
100
AcDbLine
  8
0
 62
256
370
-1
  6
BYLAYER
 10
40.8474781263698219
 20
129.6602540378445951
 30
0.0
 11
43.3474781263698219
 21
125.3301270189223686
 31
0.0
  0
LINE
  5
FD
100
AcDbEntity
100
AcDbLine
  8
0
 62
256
370
-1
  6
BYLAYER
 10
48.3474781263698503
 20
116.6698729810779298
 30
0.0
 11
50.8474781263698503
 21
112.3397459621557175
 31
0.0
  0
LWPOLYLINE
  5
FE
  8
0
 62
256
370
-1
  6
BYLAYER
100
AcDbEntity
100
AcDbPolyline
 90
30
 70
0
 10
221.0
 20
391.0
 30
0.0
 10
230.5313247606229083
 20
374.4912612511618022
 30
0.0
 10
227.9332485492695923
 20
372.9912612511618022
 30
0.0
 10
237.9332485492695923
 20
355.6707531754730098
 30
0.0
 10
240.5313247606229083
 20
357.1707531754730098
 30
0.0
 10
250.0626495212458167
 20
340.662014426634812
 30
0.0
 10
247.4645733098925007
 20
339.162014426634812
 30
0.0
 10
257.4645733098925007
 20
321.8415063509460197
 30
0.0
 10
260.0626495212458167
 20
323.3415063509460197
 30
0.0
 10
269.593974281868725
 20
306.8327676021078219
 30
0.0
 10
266.995898070515409
 20
305.3327676021078219
 30
0.0
 10
276.995898070515409
 20
288.0122595264190295
 30
0.0
 10
279.593974281868725
 20
289.5122595264190295
 30
0.0
 10
289.1252990424916334
 20
273.0035207775808317
 30
0.0
 10
286.5272228311383174
 20
271.5035207775808317
 30
0.0
 10
296.5272228311383174
 20
254.1830127018920393
 30
0.0
 10
299.1252990424916334
 20
255.6830127018920393
 30
0.0
 10
308.6566238031145417
 20
239.1742739530538415
 30
0.0
 10
306.0585475917612257
 20
237.6742739530538415
 30
0.0
 10
316.0585475917612257
 20
220.3537658773650492
 30
0.0
 10
318.6566238031145417
 20
221.8537658773650492
 30
0.0
 10
328.1879485637374501
 20
205.3450271285268514
 30
0.0
 10
325.589872352384134
 20
203.8450271285268514
 30
0.0
 10
335.589872352384134
 20
186.524519052838059
 30
0.0
 10
338.1879485637374501
 20
188.024519052838059
 30
0.0
 10
347.7192733243603584
 20
171.5157803039998612
 30
0.0
 10
345.1211971130070424
 20
170.0157803039998612
 30
0.0
 10
355.1211971130070424
 20
152.6952722283110688
 30
0.0
 10
357.7192733243603584
 20
154.1952722283110688
 30
0.0
 10
367.2505980849833804
 20
137.6865334794730984
 30
0.0
  0
LWPOLYLINE
  5
FF
  8
0
 62
256
370
-1
  6
BYLAYER
100
AcDbEntity
100
AcDbPolyline
 90
30
 70
0
 10
346.2505980849833804
 20
101.3134665205267311
 30
0.0
 10
327.1879485637375069
 20
101.3134665205267879
 30
0.0
 10
327.1879485637375069
 20
104.3134665205267311
 30
0.0
 10
307.1879485637374501
 20
104.3134665205267453
 30
0.0
 10
307.1879485637375069
 20
101.3134665205268305
 30
0.0
 10
288.1252990424915765
 20
101.3134665205267737
 30
0.0
 10
288.1252990424915197
 20
104.3134665205267595
 30
0.0
 10
268.1252990424915765
 20
104.3134665205268448
 30
0.0
 10
268.1252990424916334
 20
101.3134665205268305
 30
0.0
 10
249.0626495212457598
 20
101.3134665205268874
 30
0.0
 10
249.0626495212456746
 20
104.3134665205268448
 30
0.0
 10
229.0626495212457314
 20
104.3134665205268874
 30
0.0
 10
229.0626495212457314
 20
101.3134665205268874
 30
0.0
 10
209.9999999999998863
 20
101.31346652052693
 30
0.0
 10
209.9999999999998295
 20
104.3134665205269158
 30
0.0
 10
189.9999999999998579
 20
104.31346652052693
 30
0.0
 10
189.9999999999998579
 20
101.31346652052693
 30
0.0
 10
170.9373504787539559
 20
101.3134665205269727
 30
0.0
 10
170.9373504787539559
 20
104.3134665205269869
 30
0.0
 10
150.9373504787538991
 20
104.3134665205270153
 30
0.0
 10
150.9373504787538991
 20
101.3134665205270295
 30
0.0
 10
131.8747009575078266
 20
101.3134665205271716
 30
0.0
 10
131.8747009575081393
 20
104.3134665205270011
 30
0.0
 10
111.8747009575079829
 20
104.3134665205271006
 30
0.0
 10
111.8747009575079261
 20
101.3134665205271432
 30
0.0
 10
92.8120514362620099
 20
101.3134665205272427
 30
0.0
 10
92.8120514362622089
 20
104.3134665205270863
 30
0.0
 10
72.8120514362620668
 20
104.3134665205272285
 30
0.0
 10
72.8120514362621094
 20
101.3134665205271716
 30
0.0
 10
53.7494019150165343
 20
101.3134665205268021
 30
0.0
  0
LWPOLYLINE
  5
100
  8
0
 62
256
370
-1
  6
BYLAYER
100
AcDbEntity
100
AcDbPolyline
 90
30
 70
0
 10
32.749401915016449
 20
137.6865334794734963
 30
0.0
 10
42.2807266756395279
 20
154.1952722283114952
 30
0.0
 10
44.8788028869927587
 20
152.6952722283116941
 30
0.0
 10
54.8788028869928439
 20
170.0157803040003444
 30
0.0
 10
52.2807266756395279
 20
171.5157803040003728
 30
0.0
 10
61.8120514362624931
 20
188.024519052838599
 30
0.0
 10
64.4101276476158375
 20
186.5245190528384285
 30
0.0
 10
74.4101276476158517
 20
203.8450271285273345
 30
0.0
 10
71.8120514362625215
 20
205.3450271285271924
 30
0.0
 10
81.3433761968855151
 20
221.8537658773654471
 30
0.0
 10
83.9414524082388169
 20
220.3537658773653334
 30
0.0
 10
93.941452408238888
 20
237.6742739530542394
 30
0.0
 10
91.3433761968855435
 20
239.1742739530541542
 30
0.0
 10
100.8747009575085372
 20
255.6830127018923804
 30
0.0
 10
103.4727771688617963
 20
254.1830127018922667
 30
0.0
 10
113.472777168861839
 20
271.5035207775811159
 30
0.0
 10
110.8747009575085656
 20
273.0035207775811728
 30
0.0
 10
120.4060257181314455
 20
289.5122595264192
 30
0.0
 10
123.0041019294848468
 20
288.0122595264192569
 30
0.0
 10
133.0041019294848184
 20
305.3327676021079924
 30
0.0
 10
130.406025718131616
 20
306.8327676021081061
 30
0.0
 10
139.9373504787546949
 20
323.3415063509463039
 30
0.0
 10
142.5354266901076699
 20
321.8415063509461334
 30
0.0
 10
152.5354266901078404
 20
339.1620144266349826
 30
0.0
 10
149.9373504787545812
 20
340.6620144266349826
 30
0.0
 10
159.4686752393776317
 20
357.1707531754731804
 30
0.0
 10
162.0667514507306919
 20
355.6707531754731235
 30
0.0
 10
172.0667514507309193
 20
372.9912612511619159
 30
0.0
 10
169.4686752393778022
 20
374.4912612511619727
 30
0.0
 10
179.0000000000002842
 20
391.0000000000001137
 30
0.0
  0
INSERT
  5
101
100
AcDbEntity
100
AcDbBlockReference
  8
0
 62
256
370
-1
  6
BYLAYER
  2
Nema17Top
 10
200.0
 20
316.0
 30
0.0
  0
LINE
  5
102
100
AcDbEntity
100
AcDbLine
  8
guides
 62
256
370
-1
  6
BYLAYER
 10
210.9999999999999716
 20
337.0
 30
0.0
 11
265.95076488490065
 21
337.0
 31
0.0
  0
LINE
  5
103
100
AcDbEntity
100
AcDbLine
  8
guides
 62
256
370
-1
  6
BYLAYER
 10
188.9999999999999716
 20
337.0
 30
0.0
 11
140.5839061396982004
 21
337.0
 31
0.0
  0
LINE
  5
104
100
AcDbEntity
100
AcDbLine
  8
guides
 62
256
370
-1
  6
BYLAYER
 10
250.0626495212458167
 20
340.662014426634812
 30
0.0
 11
260.0626495212458167
 21
323.3415063509460197
 31
0.0
  0
LINE
  5
105
100
AcDbEntity
100
AcDbLine
  8
guides
 62
256
370
-1
  6
BYLAYER
 10
149.9373504787545812
 20
340.6620144266349826
 30
0.0
 11
139.9373504787546949
 21
323.3415063509463039
 31
0.0
  0
LINE
  5
106
100
AcDbEntity
100
AcDbLine
  8
guides
 62
256
370
-1
  6
BYLAYER
 10
140.5839061396982004
 20
337.0
 30
0.0
 11
265.95076488490065
 21
337.0
 31
0.0
  0
LINE
  5
107
100
AcDbEntity
100
AcDbLine
  8
guides
 62
256
370
-1
  6
BYLAYER
 10
140.5839061396982004
 20
340.0
 30
0.0
 11
265.95076488490065
 21
340.0
 31
0.0
  0
DIMENSION
  5
108
100
AcDbEntity
  8
dimensions
 62
256
370
-1
  6
BYLAYER
100
AcDbDimension
 10
5.4035577872084346
 20
153.474663947881055
 30
0.0
 11
76.9050591976044871
 21
281.0688972081442785
 31
0.0
 70
1
 71
8
 72
2
 41
1.0
 42
0.0
  1

  3
Standard
100
AcDbAlignedDimension
 13
32.7494019150164632
 23
137.6865334794734963
 33
0.0
 14
179.000000000000199
 24
391.0
 34
0.0
1001
ACAD
1000
DSTYLE
1002
{
1070
144
1040
1
1002
}
  0
LINE
  5
109
100
AcDbEntity
100
AcDbLine
  8
guides
 62
256
370
-1
  6
BYLAYER
 10
179.000000000000199
 20
391.0
 30
0.0
 11
32.7494019150164632
 21
137.6865334794734963
 31
0.0
  0
LINE
  5
10A
100
AcDbEntity
100
AcDbLine
  8
guides
 62
256
370
-1
  6
BYLAYER
 10
367.2505980849833804
 20
137.6865334794730416
 30
0.0
 11
221.0
 21
391.0
 31
0.0
  0
LINE
  5
10B
100
AcDbEntity
100
AcDbLine
  8
guides
 62
256
370
-1
  6
BYLAYER
 10
200.0
 20
210.0
 30
0.0
 11
108.4727771688618247
 21
262.8432667397366913
 31
0.0
  0
LINE
  5
10C
100
AcDbEntity
100
AcDbLine
  8
guides
 62
256
370
-1
  6
BYLAYER
 10
200.0
 20
210.0
 30
0.0
 11
294.1252990424916902
 21
264.3432667397365208
 31
0.0
  0
DIMENSION
  5
10D
100
AcDbEntity
  8
dimensions
 62
256
370
-1
  6
BYLAYER
100
AcDbDimension
 10
294.1252990424916902
 20
225.0238571413725026
 30
0.0
 11
200.0
 21
226.8988571413726163
 31
0.0
 70
1
 71
8
 72
2
 41
1.0
 42
0.0
  1

  3
Standard
100
AcDbAlignedDimension
 13
294.1252990424916902
 23
264.3432667397365208
 33
0.0
 14
105.8747009575083382
 24
264.3432667397367481
 34
0.0
1001
ACAD
1000
DSTYLE
1002
{
1070
144
1040
1
1002
}
  0
DIMENSION
  5
10E
100
AcDbEntity
  8
dimensions
 62
256
370
-1
  6
BYLAYER
100
AcDbDimension
 10
32.749401915016449
 20
70.0000000000004547
 30
0.0
 11
199.9999999999999147
 21
71.8750000000002274
 31
0.0
 70
1
 71
8
 72
2
 41
1.0
 42
0.0
  1

  3
Standard
100
AcDbAlignedDimension
 13
32.7494019150164632
 23
137.6865334794734963
 33
0.0
 14
367.2505980849833804
 24
137.6865334794730416
 34
0.0
1001
ACAD
1000
DSTYLE
1002
{
1070
144
1040
1
1002
}
  0
LINE
  5
10F
100
AcDbEntity
100
AcDbLine
  8
guides
 62
256
370
-1
  6
BYLAYER
 10
250.444863728670839
 20
340.0
 30
0.0
 11
250.444863728670839
 21
337.0
 31
0.0
  0
LINE
  5
110
100
AcDbEntity
100
AcDbLine
  8
0
 62
256
370
-1
  6
BYLAYER
 10
205.0
 20
337.0
 30
0.0
 11
205.0
 21
340.0
 31
0.0
  0
LINE
  5
111
100
AcDbEntity
100
AcDbLine
  8
0
 62
256
370
-1
  6
BYLAYER
 10
205.0
 20
340.0
 30
0.0
 11
195.0
 21
340.0
 31
0.0
  0
LINE
  5
112
100
AcDbEntity
100
AcDbLine
  8
0
 62
256
370
-1
  6
BYLAYER
 10
195.0
 20
340.0
 30
0.0
 11
195.0
 21
337.0
 31
0.0
  0
LINE
  5
113
100
AcDbEntity
100
AcDbLine
  8
0
 62
256
370
-1
  6
BYLAYER
 10
195.0
 20
337.0
 30
0.0
 11
205.0
 21
337.0
 31
0.0
  0
INSERT
  5
114
100
AcDbEntity
100
AcDbBlockReference
  8
0
 62
256
370
-1
  6
BYLAYER
  2
Nema17Top
 10
291.7986928011504801
 20
156.9999999999999432
 30
0.0
 50
240.0
  0
INSERT
  5
115
100
AcDbEntity
100
AcDbBlockReference
  8
0
 62
256
370
-1
  6
BYLAYER
  2
Nema17Top
 10
108.2013071988494488
 20
157.0000000000000853
 30
0.0
 50
119.9999999999999716
  0
DIMENSION
  5
116
100
AcDbEntity
  8
dimensions
 62
256
370
-1
  6
BYLAYER
100
AcDbDimension
 10
260.9992772832109722
 20
346.0935935068524145
 30
0.0
 11
247.9006430509713823
 21
372.5310935068523577
 31
0.0
 70
1
 71
8
 72
2
 41
1.0
 42
0.0
  1

  3
Standard
100
AcDbAlignedDimension
 13
250.444863728670839
 23
340.0000000000000568
 33
0.0
 14
221.0
 24
391.0
 34
0.0
1001
ACAD
1000
DSTYLE
1002
{
1070
144
1040
1
1002
}
  0
DIMENSION
  5
117
100
AcDbEntity
  8
dimensions
 62
256
370
-1
  6
BYLAYER
100
AcDbDimension
 10
263.8769525881156142
 20
347.7550201187796688
 30
0.0
 11
269.975856583335883
 21
340.9414085285733904
 31
0.0
 70
1
 71
8
 72
2
 41
1.0
 42
0.0
  1

  3
Standard
100
AcDbAlignedDimension
 13
250.444863728670839
 23
340.0000000000000568
 33
0.0
 14
252.1769145362397637
 24
337.0000000000000568
 34
0.0
1001
ACAD
1000
DSTYLE
1002
{
1070
144
1040
1
1002
}
  0
LINE
  5
118
100
AcDbEntity
100
AcDbLine
  8
guides
 62
256
370
-1
  6
BYLAYER
 10
230.0
 20
388.0
 30
0.0
 11
170.0
 21
388.0
 31
0.0
  0
DIMENSION
  5
119
100
AcDbEntity
  8
dimensions
 62
256
370
-1
  6
BYLAYER
100
AcDbDimension
 10
168.0358983848622643
 20
393.3301270189221555
 30
0.0
 11
170.8872071158907318
 21
402.0187386091284907
 31
0.0
 70
1
 71
8
 72
2
 41
1.0
 42
0.0
  1

  3
Standard
100
AcDbAlignedDimension
 13
177.2679491924313879
 23
388.0
 33
0.0
 14
179.000000000000199
 24
391.0
 34
0.0
1001
ACAD
1000
DSTYLE
1002
{
1070
144
1040
1
1002
}
  0
ARC
  5
11A
100
AcDbEntity
  8
parts
 62
256
370
-1
  6
BYLAYER
100
AcDbCircle
 10
200.0
 20
210.0
 30
0.0
 40
125.0
100
AcDbArc
 50
120.3996912557688006
 51
99.7413086344633513
  0
LINE
  5
11B
100
AcDbEntity
100
AcDbLine
  8
guides
 62
256
370
-1
  6
BYLAYER
 10
149.5551362713292178
 20
340.0
 30
0.0
 11
149.5551362713292178
 21
337.0
 31
0.0
  0
LINE
  5
11C
100
AcDbEntity
100
AcDbLine
  8
guides
 62
256
370
-1
  6
BYLAYER
 10
151.2871870788982847
 20
337.0
 30
0.0
 11
151.2871870788982847
 21
340.0
 31
0.0
  0
LINE
  5
11D
100
AcDbEntity
100
AcDbLine
  8
guides
 62
256
370
-1
  6
BYLAYER
 10
248.7128129211019711
 20
337.0000000000000568
 30
0.0
 11
248.7128129211019711
 21
340.0
 31
0.0
  0
LINE
  5
11E
100
AcDbEntity
100
AcDbLine
  8
guides
 62
256
370
-1
  6
BYLAYER
 10
250.5839061396981151
 20
387.0000000000002274
 30
0.0
 11
375.95076488490065
 21
387.0000000000002274
 31
0.0
  0
LINE
  5
11F
100
AcDbEntity
100
AcDbLine
  8
guides
 62
256
370
-1
  6
BYLAYER
 10
248.5839061396980583
 20
392.0000000000001705
 30
0.0
 11
373.95076488490065
 21
392.0000000000001705
 31
0.0
  0
LINE
  5
120
100
AcDbEntity
100
AcDbLine
  8
guides
 62
256
370
-1
  6
BYLAYER
 10
259.555136271329161
 20
390.0000000000002274
 30
0.0
 11
259.555136271329161
 21
387.0000000000002274
 31
0.0
  0
LINE
  5
121
100
AcDbEntity
100
AcDbLine
  8
guides
 62
256
370
-1
  6
BYLAYER
 10
360.444863728670839
 20
390.0000000000002274
 30
0.0
 11
360.444863728670839
 21
387.0000000000002274
 31
0.0
  0
LINE
  5
122
100
AcDbEntity
100
AcDbLine
  8
guides
 62
256
370
-1
  6
BYLAYER
 10
261.2871870788982278
 20
387.0000000000002274
 30
0.0
 11
261.2871870788982278
 21
390.0000000000002274
 31
0.0
  0
LINE
  5
123
100
AcDbEntity
100
AcDbLine
  8
guides
 62
256
370
-1
  6
BYLAYER
 10
358.7128129211017722
 20
387.0000000000002842
 30
0.0
 11
358.7128129211017722
 21
390.0000000000002274
 31
0.0
  0
LINE
  5
124
100
AcDbEntity
100
AcDbLine
  8
guides
 62
256
370
-1
  6
BYLAYER
 10
320.9999999999998863
 20
387.0000000000002274
 30
0.0
 11
375.95076488490065
 21
387.0000000000002274
 31
0.0
  0
LINE
  5
125
100
AcDbEntity
100
AcDbLine
  8
guides
 62
256
370
-1
  6
BYLAYER
 10
298.9999999999998863
 20
387.0000000000002274
 30
0.0
 11
250.5839061396981151
 21
387.0000000000002274
 31
0.0
  0
DIMENSION
  5
126
100
AcDbEntity
  8
dimensions
 62
256
370
-1
  6
BYLAYER
100
AcDbDimension
 10
365.7952992693281544
 20
42.999999999999865
 30
0.0
 11
363.9202992693280976
 21
12.9999999999998703
 31
0.0
 70
1
 71
8
 72
2
 41
1.0
 42
0.0
  1

  3
Standard
100
AcDbAlignedDimension
 13
342.5011961699669882
 23
42.9999999999998934
 33
0.0
 14
342.5011961699669314
 24
-17.000000000000103
 34
0.0
1001
ACAD
1000
DSTYLE
1002
{
1070
144
1040
1
1002
}
  0
DIMENSION
  5
127
100
AcDbEntity
  8
dimensions
 62
256
370
-1
  6
BYLAYER
100
AcDbDimension
 10
355.0857477196475429
 20
39.9999999999998934
 30
0.0
 11
353.2107477196475429
 21
11.4999999999998934
 31
0.0
 70
1
 71
8
 72
2
 41
1.0
 42
0.0
  1

  3
Standard
100
AcDbAlignedDimension
 13
342.5011961699669314
 23
39.9999999999998934
 33
0.0
 14
342.5011961699669314
 24
-17.000000000000103
 34
0.0
1001
ACAD
1000
DSTYLE
1002
{
1070
144
1040
1
1002
}
  0
LINE
  5
128
100
AcDbEntity
100
AcDbLine
  8
guides
 62
256
370
-1
  6
BYLAYER
 10
259.5551362713291041
 20
387.0000000000001705
 30
0.0
 11
259.5551362713291041
 21
330.0000000000001705
 31
0.0
  0
LINE
  5
129
100
AcDbEntity
100
AcDbLine
  8
guides
 62
256
370
-1
  6
BYLAYER
 10
360.444863728670839
 20
387.0000000000001705
 30
0.0
 11
360.444863728670839
 21
330.0000000000001705
 31
0.0
  0
INSERT
  5
12A
100
AcDbEntity
100
AcDbBlockReference
  8
parts
 62
256
370
-1
  6
BYLAYER
  2
nema 17
 10
310.0000000000000568
 20
360.0000000000000568
 30
0.0
  0
LINE
  5
12B
100
AcDbEntity
100
AcDbLine
  8
guides
 62
256
370
-1
  6
BYLAYER
 10
309.9999999999999432
 20
390.0000000000002274
 30
0.0
 11
310.0000000000000568
 21
330.0000000000001705
 31
0.0
  0
LINE
  5
12C
100
AcDbEntity
100
AcDbLine
  8
guides
 62
256
370
-1
  6
BYLAYER
 10
259.5551362713291041
 20
360.0000000000001705
 30
0.0
 11
360.444863728670839
 21
360.0000000000001705
 31
0.0
  0
CIRCLE
  5
12D
100
AcDbEntity
100
AcDbCircle
  8
0
 62
256
370
-1
  6
BYLAYER
 10
310.0
 20
360.0000000000001137
 30
0.0
 40
11.0000000000001705
  0
CIRCLE
  5
12E
100
AcDbEntity
100
AcDbCircle
  8
0
 62
256
370
-1
  6
BYLAYER
 10
325.5000000000001705
 20
375.5000000000001137
 30
0.0
 40
1.5
  0
CIRCLE
  5
12F
100
AcDbEntity
100
AcDbCircle
  8
0
 62
256
370
-1
  6
BYLAYER
 10
294.5000000000001705
 20
375.5000000000001137
 30
0.0
 40
1.5
  0
CIRCLE
  5
130
100
AcDbEntity
100
AcDbCircle
  8
0
 62
256
370
-1
  6
BYLAYER
 10
294.5000000000001705
 20
344.5000000000001137
 30
0.0
 40
1.5
  0
CIRCLE
  5
131
100
AcDbEntity
100
AcDbCircle
  8
0
 62
256
370
-1
  6
BYLAYER
 10
325.5000000000001705
 20
344.5000000000001137
 30
0.0
 40
1.5
  0
DIMENSION
  5
132
100
AcDbEntity
  8
dimensions
 62
256
370
-1
  6
BYLAYER
100
AcDbDimension
 10
221.0
 20
417.0
 30
0.0
 11
200.0000000000001137
 21
418.875
 31
0.0
 70
1
 71
8
 72
2
 41
1.0
 42
0.0
  1

  3
Standard
100
AcDbAlignedDimension
 13
221.0
 23
391.0
 33
0.0
 14
179.000000000000199
 24
391.0
 34
0.0
1001
ACAD
1000
DSTYLE
1002
{
1070
144
1040
1
1002
}
  0
LINE
  5
133
100
AcDbEntity
100
AcDbLine
  8
guides
 62
256
370
-1
  6
BYLAYER
 10
384.0
 20
393.0000000000000568
 30
0.0
 11
384.0
 21
325.0000000000000568
 31
0.0
  0
DIMENSION
  5
134
100
AcDbEntity
  8
dimensions
 62
256
370
-1
  6
BYLAYER
100
AcDbDimension
 10
195.0
 20
397.6728421124748252
 30
0.0
 11
200.0
 21
399.5478421124748252
 31
0.0
 70
1
 71
8
 72
2
 41
1.0
 42
0.0
  1

  3
Standard
100
AcDbAlignedDimension
 13
195.0
 23
391.0
 33
0.0
 14
205.0
 24
391.0
 34
0.0
1001
ACAD
1000
DSTYLE
1002
{
1070
144
1040
1
1002
}
  0
LINE
  5
135
100
AcDbEntity
100
AcDbLine
  8
guides
 62
256
370
-1
  6
BYLAYER
 10
181.5980762113536287
 20
389.4999999999996589
 30
0.0
 11
35.3474781263698929
 21
136.1865334794731552
 31
0.0
  0
LINE
  5
136
100
AcDbEntity
100
AcDbLine
  8
guides
 62
256
370
-1
  6
BYLAYER
 10
191.5980762113537992
 20
406.820508075688565
 30
0.0
 11
45.3474781263700635
 21
153.5070415551620613
 31
0.0
  0
LINE
  5
137
100
AcDbEntity
100
AcDbLine
  8
guides
 62
256
370
-1
  6
BYLAYER
 10
179.000000000000199
 20
391.0
 30
0.0
 11
181.5980762113536287
 21
389.4999999999996589
 31
0.0
  0
LINE
  5
138
100
AcDbEntity
100
AcDbLine
  8
guides
 62
256
370
-1
  6
BYLAYER
 10
179.000000000000199
 20
391.0
 30
0.0
 11
179.000000000000199
 21
388.0
 31
0.0
  0
LINE
  5
139
100
AcDbEntity
100
AcDbLine
  8
guides
 62
256
370
-1
  6
BYLAYER
 10
181.5980762113536287
 20
389.4999999999996589
 30
0.0
 11
181.5980762113536287
 21
388.0
 31
0.0
  0
DIMENSION
  5
13A
100
AcDbEntity
  8
dimensions
 62
256
370
-1
  6
BYLAYER
100
AcDbDimension
 10
179.0000000000001705
 20
380.5615319868142592
 30
0.0
 11
186.8064095446869715
 21
382.4365319868142592
 31
0.0
 70
1
 71
8
 72
2
 41
1.0
 42
0.0
  1

  3
Standard
100
AcDbAlignedDimension
 13
179.0000000000001705
 23
388.0
 33
0.0
 14
181.5980762113536287
 24
388.0
 34
0.0
1001
ACAD
1000
DSTYLE
1002
{
1070
144
1040
1
1002
}
  0
DIMENSION
  5
13B
100
AcDbEntity
  8
dimensions
 62
256
370
-1
  6
BYLAYER
100
AcDbDimension
 10
180.7320508075694647
 20
410.0
 30
0.0
 11
190.3660254037847324
 21
411.875
 31
0.0
 70
1
 71
8
 72
2
 41
1.0
 42
0.0
  1

  3
Standard
100
AcDbAlignedDimension
 13
180.7320508075694647
 23
388.0
 33
0.0
 14
200.0
 24
388.0
 34
0.0
1001
ACAD
1000
DSTYLE
1002
{
1070
144
1040
1
1002
}
  0
LINE
  5
13C
100
AcDbEntity
100
AcDbLine
  8
0
 62
256
370
-1
  6
BYLAYER
 10
374.0
 20
370.0000000000000568
 30
0.0
 11
374.0
 21
380.0000000000000568
 31
0.0
  0
LINE
  5
13D
100
AcDbEntity
100
AcDbLine
  8
0
 62
256
370
-1
  6
BYLAYER
 10
374.0
 20
380.0000000000000568
 30
0.0
 11
371.0
 21
380.0000000000000568
 31
0.0
  0
LINE
  5
13E
100
AcDbEntity
100
AcDbLine
  8
0
 62
256
370
-1
  6
BYLAYER
 10
371.0
 20
380.0000000000000568
 30
0.0
 11
371.0
 21
370.0000000000000568
 31
0.0
  0
LINE
  5
13F
100
AcDbEntity
100
AcDbLine
  8
0
 62
256
370
-1
  6
BYLAYER
 10
371.0
 20
370.0000000000000568
 30
0.0
 11
374.0
 21
370.0000000000000568
 31
0.0
  0
LINE
  5
140
100
AcDbEntity
100
AcDbLine
  8
0
 62
256
370
-1
  6
BYLAYER
 10
374.0
 20
350.0000000000000568
 30
0.0
 11
374.0
 21
340.0000000000000568
 31
0.0
  0
LINE
  5
141
100
AcDbEntity
100
AcDbLine
  8
0
 62
256
370
-1
  6
BYLAYER
 10
374.0
 20
340.0000000000000568
 30
0.0
 11
371.0
 21
340.0000000000000568
 31
0.0
  0
LINE
  5
142
100
AcDbEntity
100
AcDbLine
  8
0
 62
256
370
-1
  6
BYLAYER
 10
371.0
 20
340.0000000000000568
 30
0.0
 11
371.0
 21
350.0000000000000568
 31
0.0
  0
LINE
  5
143
100
AcDbEntity
100
AcDbLine
  8
0
 62
256
370
-1
  6
BYLAYER
 10
371.0
 20
350.0000000000000568
 30
0.0
 11
374.0
 21
350.0000000000000568
 31
0.0
  0
LINE
  5
144
100
AcDbEntity
100
AcDbLine
  8
guides
 62
256
370
-1
  6
BYLAYER
 10
362.4115427318800471
 20
365.4999999999999432
 30
0.0
 11
487.9999999999998295
 21
365.4999999999999432
 31
0.0
  0
CIRCLE
  5
145
100
AcDbEntity
100
AcDbCircle
  8
0
 62
256
370
-1
  6
BYLAYER
 10
368.5
 20
375.4999999999998863
 30
0.0
 40
1.5
  0
CIRCLE
  5
146
100
AcDbEntity
100
AcDbCircle
  8
0
 62
256
370
-1
  6
BYLAYER
 10
368.5
 20
344.5000000000002274
 30
0.0
 40
1.5
  0
LINE
  5
147
100
AcDbEntity
100
AcDbLine
  8
0
 62
256
370
-1
  6
BYLAYER
 10
394.0
 20
370.0000000000000568
 30
0.0
 11
394.0
 21
380.0000000000000568
 31
0.0
  0
LINE
  5
148
100
AcDbEntity
100
AcDbLine
  8
0
 62
256
370
-1
  6
BYLAYER
 10
394.0
 20
380.0000000000000568
 30
0.0
 11
397.0
 21
380.0000000000000568
 31
0.0
  0
LINE
  5
149
100
AcDbEntity
100
AcDbLine
  8
0
 62
256
370
-1
  6
BYLAYER
 10
397.0
 20
380.0000000000000568
 30
0.0
 11
397.0
 21
370.0000000000000568
 31
0.0
  0
LINE
  5
14A
100
AcDbEntity
100
AcDbLine
  8
0
 62
256
370
-1
  6
BYLAYER
 10
397.0
 20
370.0000000000000568
 30
0.0
 11
394.0
 21
370.0000000000000568
 31
0.0
  0
LINE
  5
14B
100
AcDbEntity
100
AcDbLine
  8
0
 62
256
370
-1
  6
BYLAYER
 10
394.0
 20
350.0000000000000568
 30
0.0
 11
394.0
 21
340.0000000000000568
 31
0.0
  0
LINE
  5
14C
100
AcDbEntity
100
AcDbLine
  8
0
 62
256
370
-1
  6
BYLAYER
 10
394.0
 20
340.0000000000000568
 30
0.0
 11
397.0
 21
340.0000000000000568
 31
0.0
  0
LINE
  5
14D
100
AcDbEntity
100
AcDbLine
  8
0
 62
256
370
-1
  6
BYLAYER
 10
397.0
 20
340.0000000000000568
 30
0.0
 11
397.0
 21
350.0000000000000568
 31
0.0
  0
LINE
  5
14E
100
AcDbEntity
100
AcDbLine
  8
0
 62
256
370
-1
  6
BYLAYER
 10
397.0
 20
350.0000000000000568
 30
0.0
 11
394.0
 21
350.0000000000000568
 31
0.0
  0
CIRCLE
  5
14F
100
AcDbEntity
100
AcDbCircle
  8
0
 62
256
370
-1
  6
BYLAYER
 10
399.5
 20
375.4999999999998863
 30
0.0
 40
1.5
  0
CIRCLE
  5
150
100
AcDbEntity
100
AcDbCircle
  8
0
 62
256
370
-1
  6
BYLAYER
 10
399.5
 20
344.5000000000002274
 30
0.0
 40
1.5
  0
LINE
  5
151
100
AcDbEntity
100
AcDbLine
  8
guides
 62
256
370
-1
  6
BYLAYER
 10
527.9999999999997726
 20
390.0000000000001137
 30
0.0
 11
527.9999999999997726
 21
310.0000000000001137
 31
0.0
  0
CIRCLE
  5
152
100
AcDbEntity
100
AcDbCircle
  8
0
 62
256
370
-1
  6
BYLAYER
 10
384.0
 20
360.0000000000000568
 30
0.0
 40
2.0
  0
CIRCLE
  5
153
100
AcDbEntity
100
AcDbCircle
  8
0
 62
256
370
-1
  6
BYLAYER
 10
423.9999999999999432
 20
360.0000000000000568
 30
0.0
 40
2.0
  0
LINE
  5
154
100
AcDbEntity
100
AcDbLine
  8
guides
 62
256
370
-1
  6
BYLAYER
 10
557.9999999999997726
 20
390.0000000000001137
 30
0.0
 11
557.9999999999997726
 21
310.0000000000001137
 31
0.0
  0
CIRCLE
  5
155
100
AcDbEntity
100
AcDbCircle
  8
0
 62
256
370
-1
  6
BYLAYER
 10
453.9999999999999432
 20
360.0000000000000568
 30
0.0
 40
2.0
  0
LINE
  5
156
100
AcDbEntity
100
AcDbLine
  8
guides
 62
256
370
-1
  6
BYLAYER
 10
483.9999999999999432
 20
393.0000000000000568
 30
0.0
 11
483.9999999999999432
 21
325.0000000000000568
 31
0.0
  0
CIRCLE
  5
157
100
AcDbEntity
100
AcDbCircle
  8
0
 62
256
370
-1
  6
BYLAYER
 10
483.9999999999999432
 20
360.0000000000000568
 30
0.0
 40
2.0
  0
CIRCLE
  5
158
100
AcDbEntity
100
AcDbCircle
  8
parts
 62
256
370
-1
  6
BYLAYER
 10
199.9999999999999716
 20
209.9999999999999716
 30
0.0
 40
125.0000000000000284
  0
CIRCLE
  5
159
100
AcDbEntity
100
AcDbCircle
  8
0
 62
256
370
-1
  6
BYLAYER
 10
275.0884572681199529
 20
360.0000000000002842
 30
0.0
 40
4.0
  0
CIRCLE
  5
15A
100
AcDbEntity
100
AcDbCircle
  8
0
 62
256
370
-1
  6
BYLAYER
 10
344.9115427318803313
 20
360.0
 30
0.0
 40
4.0
  0
LINE
  5
15B
100
AcDbEntity
100
AcDbLine
  8
parts
 62
256
370
-1
  6
BYLAYER
 10
250.6807499204458338
 20
236.6073911986602241
 30
0.0
 11
250.6807499204458338
 21
183.3926088013397191
 31
0.0
  0
LINE
  5
15C
100
AcDbEntity
100
AcDbLine
  8
parts
 62
256
370
-1
  6
BYLAYER
 10
250.6807499204458338
 20
183.3926088013397191
 30
0.0
 11
149.3192500795541378
 21
183.3926088013397191
 31
0.0
  0
LINE
  5
15D
100
AcDbEntity
100
AcDbLine
  8
parts
 62
256
370
-1
  6
BYLAYER
 10
149.3192500795541378
 20
183.3926088013397191
 30
0.0
 11
149.3192500795541378
 21
236.6073911986602241
 31
0.0
  0
CIRCLE
  5
15E
100
AcDbEntity
100
AcDbCircle
  8
0
 62
256
370
-1
  6
BYLAYER
 10
164.5234808768945527
 20
234.073357790702147
 30
0.0
 40
1.581356286168502
  0
CIRCLE
  5
15F
100
AcDbEntity
100
AcDbCircle
  8
0
 62
256
370
-1
  6
BYLAYER
 10
239.2775791200046456
 20
234.073356288190098
 30
0.0
 40
1.5813660243157941
  0
CIRCLE
  5
160
100
AcDbEntity
100
AcDbCircle
  8
0
 62
256
370
-1
  6
BYLAYER
 10
215.2042184266098275
 20
218.8691371276095481
 30
0.0
 40
1.5813673761576481
  0
CIRCLE
  5
161
100
AcDbEntity
100
AcDbCircle
  8
0
 62
256
370
-1
  6
BYLAYER
 10
215.2042184266133518
 20
190.9947227150396714
 30
0.0
 40
1.5813673761495659
  0
CIRCLE
  5
162
100
AcDbEntity
100
AcDbCircle
  8
0
 62
256
370
-1
  6
BYLAYER
 10
163.2564607457131842
 20
185.9266466653299688
 30
0.0
 40
1.5813576380231471
  0
CIRCLE
  5
163
100
AcDbEntity
100
AcDbCircle
  8
0
 62
256
370
-1
  6
BYLAYER
 10
245.612682754870491
 20
185.9266460761890016
 30
0.0
 40
1.5813562861915029
  0
LINE
  5
164
100
AcDbEntity
100
AcDbLine
  8
parts
 62
256
370
-1
  6
BYLAYER
 10
149.3192500795541378
 20
236.6073911986602241
 30
0.0
 11
250.6807499204458338
 21
236.6073911986602241
 31
0.0
  0
LINE
  5
165
100
AcDbEntity
100
AcDbLine
  8
guides
 62
256
370
-1
  6
BYLAYER
 10
210.0
 20
335.0
 30
0.0
 11
190.0
 21
335.0
 31
0.0
  0
LINE
  5
166
100
AcDbEntity
100
AcDbLine
  8
guides
 62
256
370
-1
  6
BYLAYER
 10
199.9999999999999716
 20
335.0
 30
0.0
 11
200.0
 21
325.0
 31
0.0
  0
LINE
  5
167
100
AcDbEntity
100
AcDbLine
  8
guides
 62
256
370
-1
  6
BYLAYER
 10
200.0
 20
325.0
 30
0.0
 11
203.0
 21
325.0
 31
0.0
  0
LINE
  5
168
100
AcDbEntity
100
AcDbLine
  8
guides
 62
256
370
-1
  6
BYLAYER
 10
165.0
 20
337.0
 30
0.0
 11
165.0
 21
340.0
 31
0.0
  0
LINE
  5
169
100
AcDbEntity
100
AcDbLine
  8
guides
 62
256
370
-1
  6
BYLAYER
 10
165.0
 20
337.0
 30
0.0
 11
165.0
 21
323.0
 31
0.0
  0
LINE
  5
16A
100
AcDbEntity
100
AcDbLine
  8
guides
 62
256
370
-1
  6
BYLAYER
 10
32.0
 20
100.0
 30
0.0
 11
632.0
 21
100.0
 31
0.0
  0
LINE
  5
16B
100
AcDbEntity
100
AcDbLine
  8
guides
 62
256
370
-1
  6
BYLAYER
 10
632.0
 20
100.0
 30
0.0
 11
632.0
 21
400.0
 31
0.0
  0
LINE
  5
16C
100
AcDbEntity
100
AcDbLine
  8
guides
 62
256
370
-1
  6
BYLAYER
 10
632.0
 20
400.0
 30
0.0
 11
32.0
 21
400.0
 31
0.0
  0
LINE
  5
16D
100
AcDbEntity
100
AcDbLine
  8
guides
 62
256
370
-1
  6
BYLAYER
 10
32.0
 20
400.0
 30
0.0
 11
32.0
 21
100.0
 31
0.0
  0
LINE
  5
16E
100
AcDbEntity
100
AcDbLine
  8
guides
 62
256
370
-1
  6
BYLAYER
 10
39.5551362713291041
 20
386.9999999999999432
 30
0.0
 11
39.5551362713291041
 21
329.9999999999999432
 31
0.0
  0
LINE
  5
16F
100
AcDbEntity
100
AcDbLine
  8
guides
 62
256
370
-1
  6
BYLAYER
 10
140.444863728670839
 20
386.9999999999999432
 30
0.0
 11
140.444863728670839
 21
329.9999999999999432
 31
0.0
  0
CIRCLE
  5
170
100
AcDbEntity
100
AcDbCircle
  8
0
 62
256
370
-1
  6
BYLAYER
 10
55.0884572681199529
 20
360.0000000000000568
 30
0.0
 40
4.0
  0
CIRCLE
  5
171
100
AcDbEntity
100
AcDbCircle
  8
0
 62
256
370
-1
  6
BYLAYER
 10
124.9115427318803313
 20
359.9999999999997726
 30
0.0
 40
4.0
  0
LINE
  5
172
100
AcDbEntity
100
AcDbLine
  8
guides
 62
256
370
-1
  6
BYLAYER
 10
72.4115427318801039
 20
375.4999999999997726
 30
0.0
 11
197.9999999999998863
 21
375.4999999999997726
 31
0.0
  0
INSERT
  5
173
100
AcDbEntity
100
AcDbBlockReference
  8
parts
 62
256
370
-1
  6
BYLAYER
  2
nema 17
 10
90.0000000000000568
 20
359.9999999999998295
 30
0.0
  0
LINE
  5
174
100
AcDbEntity
100
AcDbLine
  8
guides
 62
256
370
-1
  6
BYLAYER
 10
89.9999999999999432
 20
390.0
 30
0.0
 11
90.0000000000000568
 21
329.9999999999999432
 31
0.0
  0
LINE
  5
175
100
AcDbEntity
100
AcDbLine
  8
guides
 62
256
370
-1
  6
BYLAYER
 10
39.5551362713291041
 20
359.9999999999999432
 30
0.0
 11
140.444863728670839
 21
359.9999999999999432
 31
0.0
  0
CIRCLE
  5
176
100
AcDbEntity
100
AcDbCircle
  8
0
 62
256
370
-1
  6
BYLAYER
 10
90.0
 20
359.9999999999998863
 30
0.0
 40
11.0000000000001705
  0
CIRCLE
  5
177
100
AcDbEntity
100
AcDbCircle
  8
0
 62
256
370
-1
  6
BYLAYER
 10
105.5000000000001705
 20
375.4999999999998863
 30
0.0
 40
1.5
  0
CIRCLE
  5
178
100
AcDbEntity
100
AcDbCircle
  8
0
 62
256
370
-1
  6
BYLAYER
 10
74.5000000000001705
 20
375.4999999999998863
 30
0.0
 40
1.5
  0
CIRCLE
  5
179
100
AcDbEntity
100
AcDbCircle
  8
0
 62
256
370
-1
  6
BYLAYER
 10
74.5000000000001705
 20
344.4999999999998863
 30
0.0
 40
1.5
  0
CIRCLE
  5
17A
100
AcDbEntity
100
AcDbCircle
  8
0
 62
256
370
-1
  6
BYLAYER
 10
105.5000000000001705
 20
344.4999999999998863
 30
0.0
 40
1.5
  0
LINE
  5
17B
100
AcDbEntity
100
AcDbLine
  8
guides
 62
256
370
-1
  6
BYLAYER
 10
30.5839061396981151
 20
387.0
 30
0.0
 11
155.95076488490065
 21
387.0
 31
0.0
  0
LINE
  5
17C
100
AcDbEntity
100
AcDbLine
  8
guides
 62
256
370
-1
  6
BYLAYER
 10
28.5839061396980583
 20
391.9999999999999432
 30
0.0
 11
153.95076488490065
 21
391.9999999999999432
 31
0.0
  0
LINE
  5
17D
100
AcDbEntity
100
AcDbLine
  8
guides
 62
256
370
-1
  6
BYLAYER
 10
39.555136271329161
 20
390.0
 30
0.0
 11
39.555136271329161
 21
387.0
 31
0.0
  0
LINE
  5
17E
100
AcDbEntity
100
AcDbLine
  8
guides
 62
256
370
-1
  6
BYLAYER
 10
140.444863728670839
 20
390.0
 30
0.0
 11
140.444863728670839
 21
387.0
 31
0.0
  0
LINE
  5
17F
100
AcDbEntity
100
AcDbLine
  8
guides
 62
256
370
-1
  6
BYLAYER
 10
41.2871870788982278
 20
387.0
 30
0.0
 11
41.2871870788982278
 21
390.0
 31
0.0
  0
LINE
  5
180
100
AcDbEntity
100
AcDbLine
  8
guides
 62
256
370
-1
  6
BYLAYER
 10
138.7128129211017722
 20
387.0000000000000568
 30
0.0
 11
138.7128129211017722
 21
390.0
 31
0.0
  0
LINE
  5
181
100
AcDbEntity
100
AcDbLine
  8
guides
 62
256
370
-1
  6
BYLAYER
 10
100.9999999999998863
 20
387.0
 30
0.0
 11
155.95076488490065
 21
387.0
 31
0.0
  0
LINE
  5
182
100
AcDbEntity
100
AcDbLine
  8
guides
 62
256
370
-1
  6
BYLAYER
 10
78.9999999999998863
 20
387.0
 30
0.0
 11
30.5839061396981151
 21
387.0
 31
0.0
  0
LINE
  5
183
100
AcDbEntity
100
AcDbLine
  8
guides
 62
256
370
-1
  6
BYLAYER
 10
299.5551362713290473
 20
317.0
 30
0.0
 11
299.5551362713290473
 21
260.0
 31
0.0
  0
LINE
  5
184
100
AcDbEntity
100
AcDbLine
  8
guides
 62
256
370
-1
  6
BYLAYER
 10
400.4448637286707822
 20
317.0
 30
0.0
 11
400.4448637286707822
 21
260.0
 31
0.0
  0
CIRCLE
  5
185
100
AcDbEntity
100
AcDbCircle
  8
0
 62
256
370
-1
  6
BYLAYER
 10
315.0884572681198961
 20
290.0000000000001137
 30
0.0
 40
4.0
  0
CIRCLE
  5
186
100
AcDbEntity
100
AcDbCircle
  8
0
 62
256
370
-1
  6
BYLAYER
 10
384.9115427318802745
 20
289.9999999999998295
 30
0.0
 40
4.0
  0
INSERT
  5
187
100
AcDbEntity
100
AcDbBlockReference
  8
parts
 62
256
370
-1
  6
BYLAYER
  2
nema 17
 10
350.0
 20
289.9999999999998863
 30
0.0
  0
LINE
  5
188
100
AcDbEntity
100
AcDbLine
  8
guides
 62
256
370
-1
  6
BYLAYER
 10
349.9999999999998863
 20
320.0000000000000568
 30
0.0
 11
350.0
 21
260.0
 31
0.0
  0
LINE
  5
189
100
AcDbEntity
100
AcDbLine
  8
guides
 62
256
370
-1
  6
BYLAYER
 10
299.5551362713290473
 20
290.0
 30
0.0
 11
400.4448637286707822
 21
290.0
 31
0.0
  0
CIRCLE
  5
18A
100
AcDbEntity
100
AcDbCircle
  8
0
 62
256
370
-1
  6
BYLAYER
 10
349.9999999999999432
 20
289.9999999999999432
 30
0.0
 40
11.0000000000001705
  0
CIRCLE
  5
18B
100
AcDbEntity
100
AcDbCircle
  8
0
 62
256
370
-1
  6
BYLAYER
 10
365.5000000000001137
 20
305.4999999999999432
 30
0.0
 40
1.5
  0
CIRCLE
  5
18C
100
AcDbEntity
100
AcDbCircle
  8
0
 62
256
370
-1
  6
BYLAYER
 10
334.5000000000001137
 20
305.4999999999999432
 30
0.0
 40
1.5
  0
CIRCLE
  5
18D
100
AcDbEntity
100
AcDbCircle
  8
0
 62
256
370
-1
  6
BYLAYER
 10
334.5000000000001137
 20
274.4999999999999432
 30
0.0
 40
1.5
  0
CIRCLE
  5
18E
100
AcDbEntity
100
AcDbCircle
  8
0
 62
256
370
-1
  6
BYLAYER
 10
365.5000000000001137
 20
274.4999999999999432
 30
0.0
 40
1.5
  0
LINE
  5
18F
100
AcDbEntity
100
AcDbLine
  8
guides
 62
256
370
-1
  6
BYLAYER
 10
290.5839061396980583
 20
317.0000000000000568
 30
0.0
 11
415.9507648849005932
 21
317.0000000000000568
 31
0.0
  0
LINE
  5
190
100
AcDbEntity
100
AcDbLine
  8
guides
 62
256
370
-1
  6
BYLAYER
 10
288.5839061396980014
 20
322.0
 30
0.0
 11
413.9507648849005932
 21
322.0
 31
0.0
  0
LINE
  5
191
100
AcDbEntity
100
AcDbLine
  8
guides
 62
256
370
-1
  6
BYLAYER
 10
299.5551362713291041
 20
320.0000000000000568
 30
0.0
 11
299.5551362713291041
 21
317.0000000000000568
 31
0.0
  0
LINE
  5
192
100
AcDbEntity
100
AcDbLine
  8
guides
 62
256
370
-1
  6
BYLAYER
 10
400.4448637286707822
 20
320.0000000000000568
 30
0.0
 11
400.4448637286707822
 21
317.0000000000000568
 31
0.0
  0
LINE
  5
193
100
AcDbEntity
100
AcDbLine
  8
guides
 62
256
370
-1
  6
BYLAYER
 10
301.287187078898171
 20
317.0000000000000568
 30
0.0
 11
301.287187078898171
 21
320.0000000000000568
 31
0.0
  0
LINE
  5
194
100
AcDbEntity
100
AcDbLine
  8
guides
 62
256
370
-1
  6
BYLAYER
 10
398.7128129211017153
 20
317.0000000000001137
 30
0.0
 11
398.7128129211017153
 21
320.0000000000000568
 31
0.0
  0
LINE
  5
195
100
AcDbEntity
100
AcDbLine
  8
guides
 62
256
370
-1
  6
BYLAYER
 10
360.9999999999998295
 20
317.0000000000000568
 30
0.0
 11
415.9507648849005932
 21
317.0000000000000568
 31
0.0
  0
LINE
  5
196
100
AcDbEntity
100
AcDbLine
  8
guides
 62
256
370
-1
  6
BYLAYER
 10
338.9999999999998295
 20
317.0000000000000568
 30
0.0
 11
290.5839061396980583
 21
317.0000000000000568
 31
0.0
  0
CIRCLE
  5
197
100
AcDbEntity
100
AcDbCircle
  8
0
 62
256
370
-1
  6
BYLAYER
 10
423.0000000000000568
 20
290.0
 30
0.0
 40
2.0
  0
CIRCLE
  5
198
100
AcDbEntity
100
AcDbCircle
  8
0
 62
256
370
-1
  6
BYLAYER
 10
463.0
 20
290.0
 30
0.0
 40
2.0
  0
CIRCLE
  5
199
100
AcDbEntity
100
AcDbCircle
  8
0
 62
256
370
-1
  6
BYLAYER
 10
493.0
 20
290.0
 30
0.0
 40
2.0
  0
CIRCLE
  5
19A
100
AcDbEntity
100
AcDbCircle
  8
0
 62
256
370
-1
  6
BYLAYER
 10
523.0
 20
290.0
 30
0.0
 40
2.0
  0
LINE
  5
19B
100
AcDbEntity
100
AcDbLine
  8
0
 62
256
370
-1
  6
BYLAYER
 10
413.0000000000000568
 20
300.0
 30
0.0
 11
413.0000000000000568
 21
310.0
 31
0.0
  0
LINE
  5
19C
100
AcDbEntity
100
AcDbLine
  8
0
 62
256
370
-1
  6
BYLAYER
 10
413.0000000000000568
 20
310.0
 30
0.0
 11
410.0000000000000568
 21
310.0
 31
0.0
  0
LINE
  5
19D
100
AcDbEntity
100
AcDbLine
  8
0
 62
256
370
-1
  6
BYLAYER
 10
410.0000000000000568
 20
310.0
 30
0.0
 11
410.0000000000000568
 21
300.0
 31
0.0
  0
LINE
  5
19E
100
AcDbEntity
100
AcDbLine
  8
0
 62
256
370
-1
  6
BYLAYER
 10
410.0000000000000568
 20
300.0
 30
0.0
 11
413.0000000000000568
 21
300.0
 31
0.0
  0
LINE
  5
19F
100
AcDbEntity
100
AcDbLine
  8
0
 62
256
370
-1
  6
BYLAYER
 10
413.0000000000000568
 20
280.0
 30
0.0
 11
413.0000000000000568
 21
270.0
 31
0.0
  0
LINE
  5
1A0
100
AcDbEntity
100
AcDbLine
  8
0
 62
256
370
-1
  6
BYLAYER
 10
413.0000000000000568
 20
270.0
 30
0.0
 11
410.0000000000000568
 21
270.0
 31
0.0
  0
LINE
  5
1A1
100
AcDbEntity
100
AcDbLine
  8
0
 62
256
370
-1
  6
BYLAYER
 10
410.0000000000000568
 20
270.0
 30
0.0
 11
410.0000000000000568
 21
280.0
 31
0.0
  0
LINE
  5
1A2
100
AcDbEntity
100
AcDbLine
  8
0
 62
256
370
-1
  6
BYLAYER
 10
410.0000000000000568
 20
280.0
 30
0.0
 11
413.0000000000000568
 21
280.0
 31
0.0
  0
CIRCLE
  5
1A3
100
AcDbEntity
100
AcDbCircle
  8
0
 62
256
370
-1
  6
BYLAYER
 10
407.5000000000000568
 20
305.4999999999998295
 30
0.0
 40
1.5
  0
CIRCLE
  5
1A4
100
AcDbEntity
100
AcDbCircle
  8
0
 62
256
370
-1
  6
BYLAYER
 10
407.5000000000000568
 20
274.5000000000001705
 30
0.0
 40
1.5
  0
LINE
  5
1A5
100
AcDbEntity
100
AcDbLine
  8
0
 62
256
370
-1
  6
BYLAYER
 10
433.0000000000000568
 20
300.0
 30
0.0
 11
433.0000000000000568
 21
310.0
 31
0.0
  0
LINE
  5
1A6
100
AcDbEntity
100
AcDbLine
  8
0
 62
256
370
-1
  6
BYLAYER
 10
433.0000000000000568
 20
310.0
 30
0.0
 11
436.0000000000000568
 21
310.0
 31
0.0
  0
LINE
  5
1A7
100
AcDbEntity
100
AcDbLine
  8
0
 62
256
370
-1
  6
BYLAYER
 10
436.0000000000000568
 20
310.0
 30
0.0
 11
436.0000000000000568
 21
300.0
 31
0.0
  0
LINE
  5
1A8
100
AcDbEntity
100
AcDbLine
  8
0
 62
256
370
-1
  6
BYLAYER
 10
436.0000000000000568
 20
300.0
 30
0.0
 11
433.0000000000000568
 21
300.0
 31
0.0
  0
LINE
  5
1A9
100
AcDbEntity
100
AcDbLine
  8
0
 62
256
370
-1
  6
BYLAYER
 10
433.0000000000000568
 20
280.0
 30
0.0
 11
433.0000000000000568
 21
270.0
 31
0.0
  0
LINE
  5
1AA
100
AcDbEntity
100
AcDbLine
  8
0
 62
256
370
-1
  6
BYLAYER
 10
433.0000000000000568
 20
270.0
 30
0.0
 11
436.0000000000000568
 21
270.0
 31
0.0
  0
LINE
  5
1AB
100
AcDbEntity
100
AcDbLine
  8
0
 62
256
370
-1
  6
BYLAYER
 10
436.0000000000000568
 20
270.0
 30
0.0
 11
436.0000000000000568
 21
280.0
 31
0.0
  0
LINE
  5
1AC
100
AcDbEntity
100
AcDbLine
  8
0
 62
256
370
-1
  6
BYLAYER
 10
436.0000000000000568
 20
280.0
 30
0.0
 11
433.0000000000000568
 21
280.0
 31
0.0
  0
CIRCLE
  5
1AD
100
AcDbEntity
100
AcDbCircle
  8
0
 62
256
370
-1
  6
BYLAYER
 10
438.5000000000000568
 20
305.4999999999998295
 30
0.0
 40
1.5
  0
CIRCLE
  5
1AE
100
AcDbEntity
100
AcDbCircle
  8
0
 62
256
370
-1
  6
BYLAYER
 10
438.5000000000000568
 20
274.5000000000001705
 30
0.0
 40
1.5
  0
LINE
  5
1AF
100
AcDbEntity
100
AcDbLine
  8
0
 62
256
370
-1
  6
BYLAYER
 10
372.2000000000001023
 20
230.0
 30
0.0
 11
369.2000000000001023
 21
230.0
 31
0.0
  0
LINE
  5
1B0
100
AcDbEntity
100
AcDbLine
  8
0
 62
256
370
-1
  6
BYLAYER
 10
369.2000000000001023
 20
210.0
 30
0.0
 11
369.2000000000001023
 21
200.0
 31
0.0
  0
LINE
  5
1B1
100
AcDbEntity
100
AcDbLine
  8
0
 62
256
370
-1
  6
BYLAYER
 10
369.2000000000001023
 20
200.0
 30
0.0
 11
372.2000000000001023
 21
200.0
 31
0.0
  0
LINE
  5
1B2
100
AcDbEntity
100
AcDbLine
  8
0
 62
256
370
-1
  6
BYLAYER
 10
372.2000000000001023
 20
200.0
 30
0.0
 11
372.2000000000001023
 21
210.0
 31
0.0
  0
LINE
  5
1B3
100
AcDbEntity
100
AcDbLine
  8
0
 62
256
370
-1
  6
BYLAYER
 10
372.2000000000001023
 20
210.0
 30
0.0
 11
369.2000000000001023
 21
210.0
 31
0.0
  0
CIRCLE
  5
1B4
100
AcDbEntity
100
AcDbCircle
  8
0
 62
256
370
-1
  6
BYLAYER
 10
374.7000000000001023
 20
235.4999999999998295
 30
0.0
 40
1.5
  0
CIRCLE
  5
1B5
100
AcDbEntity
100
AcDbCircle
  8
0
 62
256
370
-1
  6
BYLAYER
 10
374.7000000000001023
 20
204.5000000000001705
 30
0.0
 40
1.5
  0
CIRCLE
  5
1B6
100
AcDbEntity
100
AcDbCircle
  8
0
 62
256
370
-1
  6
BYLAYER
 10
359.2000000000001023
 20
220.0
 30
0.0
 40
2.0
  0
CIRCLE
  5
1B7
100
AcDbEntity
100
AcDbCircle
  8
0
 62
256
370
-1
  6
BYLAYER
 10
399.2000000000000455
 20
220.0
 30
0.0
 40
2.0
  0
CIRCLE
  5
1B8
100
AcDbEntity
100
AcDbCircle
  8
0
 62
256
370
-1
  6
BYLAYER
 10
429.2000000000000455
 20
220.0
 30
0.0
 40
2.0
  0
CIRCLE
  5
1B9
100
AcDbEntity
100
AcDbCircle
  8
0
 62
256
370
-1
  6
BYLAYER
 10
459.2000000000000455
 20
220.0
 30
0.0
 40
2.0
  0
LINE
  5
1BA
100
AcDbEntity
100
AcDbLine
  8
0
 62
256
370
-1
  6
BYLAYER
 10
349.2000000000001023
 20
230.0
 30
0.0
 11
349.2000000000001023
 21
240.0
 31
0.0
  0
LINE
  5
1BB
100
AcDbEntity
100
AcDbLine
  8
0
 62
256
370
-1
  6
BYLAYER
 10
349.2000000000001023
 20
240.0
 30
0.0
 11
346.2000000000001023
 21
240.0
 31
0.0
  0
LINE
  5
1BC
100
AcDbEntity
100
AcDbLine
  8
0
 62
256
370
-1
  6
BYLAYER
 10
346.2000000000001023
 20
240.0
 30
0.0
 11
346.2000000000001023
 21
230.0
 31
0.0
  0
LINE
  5
1BD
100
AcDbEntity
100
AcDbLine
  8
0
 62
256
370
-1
  6
BYLAYER
 10
346.2000000000001023
 20
230.0
 30
0.0
 11
349.2000000000001023
 21
230.0
 31
0.0
  0
LINE
  5
1BE
100
AcDbEntity
100
AcDbLine
  8
0
 62
256
370
-1
  6
BYLAYER
 10
349.2000000000001023
 20
210.0
 30
0.0
 11
349.2000000000001023
 21
200.0
 31
0.0
  0
LINE
  5
1BF
100
AcDbEntity
100
AcDbLine
  8
0
 62
256
370
-1
  6
BYLAYER
 10
349.2000000000001023
 20
200.0
 30
0.0
 11
346.2000000000001023
 21
200.0
 31
0.0
  0
LINE
  5
1C0
100
AcDbEntity
100
AcDbLine
  8
0
 62
256
370
-1
  6
BYLAYER
 10
346.2000000000001023
 20
200.0
 30
0.0
 11
346.2000000000001023
 21
210.0
 31
0.0
  0
LINE
  5
1C1
100
AcDbEntity
100
AcDbLine
  8
0
 62
256
370
-1
  6
BYLAYER
 10
346.2000000000001023
 20
210.0
 30
0.0
 11
349.2000000000001023
 21
210.0
 31
0.0
  0
CIRCLE
  5
1C2
100
AcDbEntity
100
AcDbCircle
  8
0
 62
256
370
-1
  6
BYLAYER
 10
343.7000000000001023
 20
235.4999999999998295
 30
0.0
 40
1.5
  0
CIRCLE
  5
1C3
100
AcDbEntity
100
AcDbCircle
  8
0
 62
256
370
-1
  6
BYLAYER
 10
343.7000000000001023
 20
204.5000000000001705
 30
0.0
 40
1.5
  0
LINE
  5
1C4
100
AcDbEntity
100
AcDbLine
  8
0
 62
256
370
-1
  6
BYLAYER
 10
369.2000000000001023
 20
230.0
 30
0.0
 11
369.2000000000001023
 21
240.0
 31
0.0
  0
LINE
  5
1C5
100
AcDbEntity
100
AcDbLine
  8
0
 62
256
370
-1
  6
BYLAYER
 10
369.2000000000001023
 20
240.0
 30
0.0
 11
372.2000000000001023
 21
240.0
 31
0.0
  0
LINE
  5
1C6
100
AcDbEntity
100
AcDbLine
  8
0
 62
256
370
-1
  6
BYLAYER
 10
372.2000000000001023
 20
240.0
 30
0.0
 11
372.2000000000001023
 21
230.0
 31
0.0
  0
LINE
  5
1C7
100
AcDbEntity
100
AcDbLine
  8
0
 62
256
370
-1
  6
BYLAYER
 10
400.0
 20
155.0
 30
0.0
 11
395.0
 21
155.0
 31
0.0
  0
LINE
  5
1C8
100
AcDbEntity
100
AcDbLine
  8
0
 62
256
370
-1
  6
BYLAYER
 10
395.0
 20
152.0
 30
0.0
 11
400.0
 21
152.0
 31
0.0
  0
LINE
  5
1C9
100
AcDbEntity
100
AcDbLine
  8
0
 62
256
370
-1
  6
BYLAYER
 10
405.0
 20
155.0
 30
0.0
 11
405.0
 21
152.0
 31
0.0
  0
LINE
  5
1CA
100
AcDbEntity
100
AcDbLine
  8
0
 62
256
370
-1
  6
BYLAYER
 10
422.0
 20
155.0
 30
0.0
 11
422.0
 21
152.0
 31
0.0
  0
LINE
  5
1CB
100
AcDbEntity
100
AcDbLine
  8
0
 62
256
370
-1
  6
BYLAYER
 10
422.0
 20
152.0
 30
0.0
 11
432.0
 21
152.0
 31
0.0
  0
LINE
  5
1CC
100
AcDbEntity
100
AcDbLine
  8
0
 62
256
370
-1
  6
BYLAYER
 10
400.0
 20
155.0
 30
0.0
 11
405.0
 21
155.0
 31
0.0
  0
LINE
  5
1CD
100
AcDbEntity
100
AcDbLine
  8
0
 62
256
370
-1
  6
BYLAYER
 10
432.0
 20
152.0
 30
0.0
 11
432.0
 21
155.0
 31
0.0
  0
LINE
  5
1CE
100
AcDbEntity
100
AcDbLine
  8
0
 62
256
370
-1
  6
BYLAYER
 10
395.0
 20
155.0
 30
0.0
 11
395.0
 21
152.0
 31
0.0
  0
LINE
  5
1CF
100
AcDbEntity
100
AcDbLine
  8
0
 62
256
370
-1
  6
BYLAYER
 10
405.0
 20
152.0
 30
0.0
 11
400.0
 21
152.0
 31
0.0
  0
LINE
  5
1D0
100
AcDbEntity
100
AcDbLine
  8
0
 62
256
370
-1
  6
BYLAYER
 10
432.0
 20
155.0
 30
0.0
 11
422.0
 21
155.0
 31
0.0
  0
LINE
  5
1D1
100
AcDbEntity
100
AcDbLine
  8
0
 62
256
370
-1
  6
BYLAYER
 10
378.0
 20
155.0
 30
0.0
 11
378.0
 21
152.0
 31
0.0
  0
LINE
  5
1D2
100
AcDbEntity
100
AcDbLine
  8
0
 62
256
370
-1
  6
BYLAYER
 10
378.0
 20
152.0
 30
0.0
 11
368.0
 21
152.0
 31
0.0
  0
LINE
  5
1D3
100
AcDbEntity
100
AcDbLine
  8
0
 62
256
370
-1
  6
BYLAYER
 10
368.0
 20
152.0
 30
0.0
 11
368.0
 21
155.0
 31
0.0
  0
LINE
  5
1D4
100
AcDbEntity
100
AcDbLine
  8
0
 62
256
370
-1
  6
BYLAYER
 10
368.0
 20
155.0
 30
0.0
 11
378.0
 21
155.0
 31
0.0
  0
LINE
  5
1D5
100
AcDbEntity
100
AcDbLine
  8
0
 62
256
370
-1
  6
BYLAYER
 10
432.0
 20
105.0
 30
0.0
 11
432.0
 21
108.0
 31
0.0
  0
LINE
  5
1D6
100
AcDbEntity
100
AcDbLine
  8
0
 62
256
370
-1
  6
BYLAYER
 10
432.0
 20
108.0
 30
0.0
 11
442.0
 21
108.0
 31
0.0
  0
LINE
  5
1D7
100
AcDbEntity
100
AcDbLine
  8
0
 62
256
370
-1
  6
BYLAYER
 10
442.0
 20
108.0
 30
0.0
 11
442.0
 21
104.9999999999999858
 31
0.0
  0
LINE
  5
1D8
100
AcDbEntity
100
AcDbLine
  8
0
 62
256
370
-1
  6
BYLAYER
 10
442.0
 20
104.9999999999999858
 30
0.0
 11
432.0
 21
105.0
 31
0.0
  0
LINE
  5
1D9
100
AcDbEntity
100
AcDbLine
  8
0
 62
256
370
-1
  6
BYLAYER
 10
410.0
 20
105.0
 30
0.0
 11
415.0
 21
105.0
 31
0.0
  0
LINE
  5
1DA
100
AcDbEntity
100
AcDbLine
  8
0
 62
256
370
-1
  6
BYLAYER
 10
415.0
 20
108.0
 30
0.0
 11
410.0
 21
108.0
 31
0.0
  0
LINE
  5
1DB
100
AcDbEntity
100
AcDbLine
  8
0
 62
256
370
-1
  6
BYLAYER
 10
405.0
 20
105.0
 30
0.0
 11
405.0
 21
108.0
 31
0.0
  0
LINE
  5
1DC
100
AcDbEntity
100
AcDbLine
  8
0
 62
256
370
-1
  6
BYLAYER
 10
388.0
 20
105.0
 30
0.0
 11
388.0
 21
108.0
 31
0.0
  0
LINE
  5
1DD
100
AcDbEntity
100
AcDbLine
  8
0
 62
256
370
-1
  6
BYLAYER
 10
388.0
 20
108.0
 30
0.0
 11
378.0
 21
108.0
 31
0.0
  0
LINE
  5
1DE
100
AcDbEntity
100
AcDbLine
  8
0
 62
256
370
-1
  6
BYLAYER
 10
410.0
 20
105.0
 30
0.0
 11
405.0
 21
105.0
 31
0.0
  0
LINE
  5
1DF
100
AcDbEntity
100
AcDbLine
  8
0
 62
256
370
-1
  6
BYLAYER
 10
378.0
 20
108.0
 30
0.0
 11
378.0
 21
105.0
 31
0.0
  0
LINE
  5
1E0
100
AcDbEntity
100
AcDbLine
  8
0
 62
256
370
-1
  6
BYLAYER
 10
415.0
 20
105.0
 30
0.0
 11
415.0
 21
108.0
 31
0.0
  0
LINE
  5
1E1
100
AcDbEntity
100
AcDbLine
  8
0
 62
256
370
-1
  6
BYLAYER
 10
405.0
 20
108.0
 30
0.0
 11
410.0
 21
108.0
 31
0.0
  0
LINE
  5
1E2
100
AcDbEntity
100
AcDbLine
  8
0
 62
256
370
-1
  6
BYLAYER
 10
378.0
 20
105.0
 30
0.0
 11
388.0
 21
105.0
 31
0.0
  0
LINE
  5
1E3
100
AcDbEntity
100
AcDbLine
  8
0
 62
256
370
-1
  6
BYLAYER
 10
37.2702999891889704
 20
293.8254307389758537
 30
0.0
 11
37.2702999891889704
 21
288.8254307389758537
 31
0.0
  0
LINE
  5
1E4
100
AcDbEntity
100
AcDbLine
  8
0
 62
256
370
-1
  6
BYLAYER
 10
40.2702999891889704
 20
288.8254307389758537
 30
0.0
 11
40.2702999891889704
 21
293.8254307389758537
 31
0.0
  0
LINE
  5
1E5
100
AcDbEntity
100
AcDbLine
  8
0
 62
256
370
-1
  6
BYLAYER
 10
37.2702999891889704
 20
315.8254307389758537
 30
0.0
 11
40.2702999891889704
 21
315.8254307389758537
 31
0.0
  0
LINE
  5
1E6
100
AcDbEntity
100
AcDbLine
  8
0
 62
256
370
-1
  6
BYLAYER
 10
40.2702999891889704
 20
315.8254307389758537
 30
0.0
 11
40.2702999891889704
 21
325.8254307389758537
 31
0.0
  0
LINE
  5
1E7
100
AcDbEntity
100
AcDbLine
  8
0
 62
256
370
-1
  6
BYLAYER
 10
37.2702999891889704
 20
293.8254307389758537
 30
0.0
 11
37.2702999891889704
 21
298.8254307389758537
 31
0.0
  0
LINE
  5
1E8
100
AcDbEntity
100
AcDbLine
  8
0
 62
256
370
-1
  6
BYLAYER
 10
37.2702999891889704
 20
288.8254307389758537
 30
0.0
 11
40.2702999891889704
 21
288.8254307389758537
 31
0.0
  0
LINE
  5
1E9
100
AcDbEntity
100
AcDbLine
  8
0
 62
256
370
-1
  6
BYLAYER
 10
40.2702999891889704
 20
325.8254307389758537
 30
0.0
 11
37.2702999891889704
 21
325.8254307389758537
 31
0.0
  0
LINE
  5
1EA
100
AcDbEntity
100
AcDbLine
  8
0
 62
256
370
-1
  6
BYLAYER
 10
40.2702999891889704
 20
298.8254307389758537
 30
0.0
 11
40.2702999891889704
 21
293.8254307389758537
 31
0.0
  0
LINE
  5
1EB
100
AcDbEntity
100
AcDbLine
  8
0
 62
256
370
-1
  6
BYLAYER
 10
37.2702999891889704
 20
325.8254307389758537
 30
0.0
 11
37.2702999891889704
 21
315.8254307389758537
 31
0.0
  0
LINE
  5
1EC
100
AcDbEntity
100
AcDbLine
  8
0
 62
256
370
-1
  6
BYLAYER
 10
37.2702999891889704
 20
298.8254307389758537
 30
0.0
 11
40.2702999891889704
 21
298.8254307389758537
 31
0.0
  0
LINE
  5
1ED
100
AcDbEntity
100
AcDbLine
  8
0
 62
256
370
-1
  6
BYLAYER
 10
37.2702999891889704
 20
315.8254307389758537
 30
0.0
 11
40.2702999891889704
 21
315.8254307389758537
 31
0.0
  0
LINE
  5
1EE
100
AcDbEntity
100
AcDbLine
  8
0
 62
256
370
-1
  6
BYLAYER
 10
40.2702999891889704
 20
315.8254307389758537
 30
0.0
 11
40.2702999891889704
 21
325.8254307389758537
 31
0.0
  0
LINE
  5
1EF
100
AcDbEntity
100
AcDbLine
  8
0
 62
256
370
-1
  6
BYLAYER
 10
40.2702999891889704
 20
325.8254307389758537
 30
0.0
 11
37.2702999891889704
 21
325.8254307389758537
 31
0.0
  0
LINE
  5
1F0
100
AcDbEntity
100
AcDbLine
  8
0
 62
256
370
-1
  6
BYLAYER
 10
37.2702999891889704
 20
325.8254307389758537
 30
0.0
 11
37.2702999891889704
 21
315.8254307389758537
 31
0.0
  0
LINE
  5
1F1
100
AcDbEntity
100
AcDbLine
  8
0
 62
256
370
-1
  6
BYLAYER
 10
37.2702999891889704
 20
271.8254307389758537
 30
0.0
 11
40.2702999891889704
 21
271.8254307389758537
 31
0.0
  0
LINE
  5
1F2
100
AcDbEntity
100
AcDbLine
  8
0
 62
256
370
-1
  6
BYLAYER
 10
40.2702999891889704
 20
271.8254307389758537
 30
0.0
 11
40.2702999891889704
 21
261.8254307389758537
 31
0.0
  0
LINE
  5
1F3
100
AcDbEntity
100
AcDbLine
  8
0
 62
256
370
-1
  6
BYLAYER
 10
40.2702999891889704
 20
261.8254307389758537
 30
0.0
 11
37.2702999891889704
 21
261.8254307389758537
 31
0.0
  0
LINE
  5
1F4
100
AcDbEntity
100
AcDbLine
  8
0
 62
256
370
-1
  6
BYLAYER
 10
37.2702999891889704
 20
261.8254307389758537
 30
0.0
 11
37.2702999891889704
 21
271.8254307389758537
 31
0.0
  0
LINE
  5
1F5
100
AcDbEntity
100
AcDbLine
  8
0
 62
256
370
-1
  6
BYLAYER
 10
55.0816024608132011
 20
315.5805692813887049
 30
0.0
 11
55.0816024608132011
 21
325.5805692813887049
 31
0.0
  0
LINE
  5
1F6
100
AcDbEntity
100
AcDbLine
  8
0
 62
256
370
-1
  6
BYLAYER
 10
55.0816024608132011
 20
325.5805692813887049
 30
0.0
 11
52.0816024608132011
 21
325.5805692813887049
 31
0.0
  0
LINE
  5
1F7
100
AcDbEntity
100
AcDbLine
  8
0
 62
256
370
-1
  6
BYLAYER
 10
52.0816024608132011
 20
325.5805692813887049
 30
0.0
 11
52.0816024608132011
 21
315.5805692813887049
 31
0.0
  0
LINE
  5
1F8
100
AcDbEntity
100
AcDbLine
  8
0
 62
256
370
-1
  6
BYLAYER
 10
52.0816024608132011
 20
271.5805692813887049
 30
0.0
 11
55.0816024608132011
 21
271.5805692813887049
 31
0.0
  0
LINE
  5
1F9
100
AcDbEntity
100
AcDbLine
  8
0
 62
256
370
-1
  6
BYLAYER
 10
55.0816024608132011
 20
271.5805692813887049
 30
0.0
 11
55.0816024608132011
 21
261.5805692813887049
 31
0.0
  0
LINE
  5
1FA
100
AcDbEntity
100
AcDbLine
  8
0
 62
256
370
-1
  6
BYLAYER
 10
55.0816024608132011
 20
261.5805692813887049
 30
0.0
 11
52.0816024608132011
 21
261.5805692813887049
 31
0.0
  0
LINE
  5
1FB
100
AcDbEntity
100
AcDbLine
  8
0
 62
256
370
-1
  6
BYLAYER
 10
52.0816024608132011
 20
261.5805692813887049
 30
0.0
 11
52.0816024608132011
 21
271.5805692813887049
 31
0.0
  0
LINE
  5
1FC
100
AcDbEntity
100
AcDbLine
  8
0
 62
256
370
-1
  6
BYLAYER
 10
52.0816024608132011
 20
293.5805692813887049
 30
0.0
 11
52.0816024608132011
 21
288.5805692813887049
 31
0.0
  0
LINE
  5
1FD
100
AcDbEntity
100
AcDbLine
  8
0
 62
256
370
-1
  6
BYLAYER
 10
55.0816024608132011
 20
288.5805692813887049
 30
0.0
 11
55.0816024608132011
 21
293.5805692813887049
 31
0.0
  0
LINE
  5
1FE
100
AcDbEntity
100
AcDbLine
  8
0
 62
256
370
-1
  6
BYLAYER
 10
52.0816024608132011
 20
315.5805692813887049
 30
0.0
 11
55.0816024608132011
 21
315.5805692813887049
 31
0.0
  0
LINE
  5
1FF
100
AcDbEntity
100
AcDbLine
  8
0
 62
256
370
-1
  6
BYLAYER
 10
55.0816024608132011
 20
315.5805692813887049
 30
0.0
 11
55.0816024608132011
 21
325.5805692813887049
 31
0.0
  0
LINE
  5
200
100
AcDbEntity
100
AcDbLine
  8
0
 62
256
370
-1
  6
BYLAYER
 10
52.0816024608132011
 20
293.5805692813887049
 30
0.0
 11
52.0816024608132011
 21
298.5805692813887049
 31
0.0
  0
LINE
  5
201
100
AcDbEntity
100
AcDbLine
  8
0
 62
256
370
-1
  6
BYLAYER
 10
52.0816024608132011
 20
288.5805692813887049
 30
0.0
 11
55.0816024608132011
 21
288.5805692813887049
 31
0.0
  0
LINE
  5
202
100
AcDbEntity
100
AcDbLine
  8
0
 62
256
370
-1
  6
BYLAYER
 10
55.0816024608132011
 20
325.5805692813887049
 30
0.0
 11
52.0816024608132011
 21
325.5805692813887049
 31
0.0
  0
LINE
  5
203
100
AcDbEntity
100
AcDbLine
  8
0
 62
256
370
-1
  6
BYLAYER
 10
55.0816024608132011
 20
298.5805692813887049
 30
0.0
 11
55.0816024608132011
 21
293.5805692813887049
 31
0.0
  0
LINE
  5
204
100
AcDbEntity
100
AcDbLine
  8
0
 62
256
370
-1
  6
BYLAYER
 10
52.0816024608132011
 20
325.5805692813887049
 30
0.0
 11
52.0816024608132011
 21
315.5805692813887049
 31
0.0
  0
LINE
  5
205
100
AcDbEntity
100
AcDbLine
  8
0
 62
256
370
-1
  6
BYLAYER
 10
52.0816024608132011
 20
298.5805692813887049
 30
0.0
 11
55.0816024608132011
 21
298.5805692813887049
 31
0.0
  0
LINE
  5
206
100
AcDbEntity
100
AcDbLine
  8
0
 62
256
370
-1
  6
BYLAYER
 10
52.0816024608132011
 20
315.5805692813887049
 30
0.0
 11
55.0816024608132011
 21
315.5805692813887049
 31
0.0
  0
LINE
  5
207
100
AcDbEntity
100
AcDbLine
  8
0
 62
256
370
-1
  6
BYLAYER
 10
69.4059977296618058
 20
315.4581385525951305
 30
0.0
 11
69.4059977296618058
 21
325.4581385525951305
 31
0.0
  0
LINE
  5
208
100
AcDbEntity
100
AcDbLine
  8
0
 62
256
370
-1
  6
BYLAYER
 10
69.4059977296618058
 20
325.4581385525951305
 30
0.0
 11
66.4059977296618058
 21
325.4581385525951305
 31
0.0
  0
LINE
  5
209
100
AcDbEntity
100
AcDbLine
  8
0
 62
256
370
-1
  6
BYLAYER
 10
66.4059977296618058
 20
325.4581385525951305
 30
0.0
 11
66.4059977296618058
 21
315.4581385525951305
 31
0.0
  0
LINE
  5
20A
100
AcDbEntity
100
AcDbLine
  8
0
 62
256
370
-1
  6
BYLAYER
 10
66.4059977296618058
 20
271.4581385525951305
 30
0.0
 11
69.4059977296618058
 21
271.4581385525951305
 31
0.0
  0
LINE
  5
20B
100
AcDbEntity
100
AcDbLine
  8
0
 62
256
370
-1
  6
BYLAYER
 10
69.4059977296618058
 20
271.4581385525951305
 30
0.0
 11
69.4059977296618058
 21
261.4581385525951305
 31
0.0
  0
LINE
  5
20C
100
AcDbEntity
100
AcDbLine
  8
0
 62
256
370
-1
  6
BYLAYER
 10
69.4059977296618058
 20
261.4581385525951305
 30
0.0
 11
66.4059977296618058
 21
261.4581385525951305
 31
0.0
  0
LINE
  5
20D
100
AcDbEntity
100
AcDbLine
  8
0
 62
256
370
-1
  6
BYLAYER
 10
66.4059977296618058
 20
261.4581385525951305
 30
0.0
 11
66.4059977296618058
 21
271.4581385525951305
 31
0.0
  0
LINE
  5
20E
100
AcDbEntity
100
AcDbLine
  8
0
 62
256
370
-1
  6
BYLAYER
 10
66.4059977296618058
 20
293.4581385525951305
 30
0.0
 11
66.4059977296618058
 21
288.4581385525951305
 31
0.0
  0
LINE
  5
20F
100
AcDbEntity
100
AcDbLine
  8
0
 62
256
370
-1
  6
BYLAYER
 10
69.4059977296618058
 20
288.4581385525951305
 30
0.0
 11
69.4059977296618058
 21
293.4581385525951305
 31
0.0
  0
LINE
  5
210
100
AcDbEntity
100
AcDbLine
  8
0
 62
256
370
-1
  6
BYLAYER
 10
66.4059977296618058
 20
315.4581385525951305
 30
0.0
 11
69.4059977296618058
 21
315.4581385525951305
 31
0.0
  0
LINE
  5
211
100
AcDbEntity
100
AcDbLine
  8
0
 62
256
370
-1
  6
BYLAYER
 10
69.4059977296618058
 20
315.4581385525951305
 30
0.0
 11
69.4059977296618058
 21
325.4581385525951305
 31
0.0
  0
LINE
  5
212
100
AcDbEntity
100
AcDbLine
  8
0
 62
256
370
-1
  6
BYLAYER
 10
66.4059977296618058
 20
293.4581385525951305
 30
0.0
 11
66.4059977296618058
 21
298.4581385525951305
 31
0.0
  0
LINE
  5
213
100
AcDbEntity
100
AcDbLine
  8
0
 62
256
370
-1
  6
BYLAYER
 10
66.4059977296618058
 20
288.4581385525951305
 30
0.0
 11
69.4059977296618058
 21
288.4581385525951305
 31
0.0
  0
LINE
  5
214
100
AcDbEntity
100
AcDbLine
  8
0
 62
256
370
-1
  6
BYLAYER
 10
69.4059977296618058
 20
325.4581385525951305
 30
0.0
 11
66.4059977296618058
 21
325.4581385525951305
 31
0.0
  0
LINE
  5
215
100
AcDbEntity
100
AcDbLine
  8
0
 62
256
370
-1
  6
BYLAYER
 10
69.4059977296618058
 20
298.4581385525951305
 30
0.0
 11
69.4059977296618058
 21
293.4581385525951305
 31
0.0
  0
LINE
  5
216
100
AcDbEntity
100
AcDbLine
  8
0
 62
256
370
-1
  6
BYLAYER
 10
66.4059977296618058
 20
325.4581385525951305
 30
0.0
 11
66.4059977296618058
 21
315.4581385525951305
 31
0.0
  0
LINE
  5
217
100
AcDbEntity
100
AcDbLine
  8
0
 62
256
370
-1
  6
BYLAYER
 10
66.4059977296618058
 20
298.4581385525951305
 30
0.0
 11
69.4059977296618058
 21
298.4581385525951305
 31
0.0
  0
LINE
  5
218
100
AcDbEntity
100
AcDbLine
  8
0
 62
256
370
-1
  6
BYLAYER
 10
66.4059977296618058
 20
315.4581385525951305
 30
0.0
 11
69.4059977296618058
 21
315.4581385525951305
 31
0.0
  0
LINE
  5
219
100
AcDbEntity
100
AcDbLine
  8
guides
 62
256
370
-1
  6
BYLAYER
 10
472.9999999999998863
 20
156.9999999999999432
 30
0.0
 11
446.9999999999998863
 21
182.9999999999999432
 31
0.0
  0
LINE
  5
21A
100
AcDbEntity
100
AcDbLine
  8
guides
 62
256
370
-1
  6
BYLAYER
 10
472.9999999999998863
 20
182.9999999999999432
 30
0.0
 11
446.9999999999998863
 21
156.9999999999999432
 31
0.0
  0
LINE
  5
21B
100
AcDbEntity
100
AcDbLine
  8
guides
 62
256
370
-1
  6
BYLAYER
 10
444.0000000000001137
 20
183.0000000000000568
 30
0.0
 11
476.0000000000001137
 21
182.9999999999999432
 31
0.0
  0
LINE
  5
21C
100
AcDbEntity
100
AcDbLine
  8
guides
 62
256
370
-1
  6
BYLAYER
 10
449.9999999999998863
 20
159.9999999999999432
 30
0.0
 11
449.9999999999998863
 21
159.9999999999999432
 31
0.0
  0
LINE
  5
21D
100
AcDbEntity
100
AcDbLine
  8
guides
 62
256
370
-1
  6
BYLAYER
 10
449.9999999999998863
 20
159.9999999999999432
 30
0.0
 11
449.9999999999998863
 21
159.9999999999999432
 31
0.0
  0
LINE
  5
21E
100
AcDbEntity
100
AcDbLine
  8
guides
 62
256
370
-1
  6
BYLAYER
 10
449.9999999999998863
 20
159.9999999999999432
 30
0.0
 11
449.9999999999998863
 21
159.9999999999999432
 31
0.0
  0
LINE
  5
21F
100
AcDbEntity
100
AcDbLine
  8
guides
 62
256
370
-1
  6
BYLAYER
 10
449.9999999999998863
 20
159.9999999999999432
 30
0.0
 11
449.9999999999998863
 21
159.9999999999999432
 31
0.0
  0
LINE
  5
220
100
AcDbEntity
100
AcDbLine
  8
guides
 62
256
370
-1
  6
BYLAYER
 10
449.9999999999998863
 20
159.9999999999999432
 30
0.0
 11
449.9999999999998863
 21
159.9999999999999432
 31
0.0
  0
LINE
  5
221
100
AcDbEntity
100
AcDbLine
  8
guides
 62
256
370
-1
  6
BYLAYER
 10
449.9999999999998863
 20
159.9999999999999432
 30
0.0
 11
449.9999999999998863
 21
159.9999999999999432
 31
0.0
  0
LINE
  5
222
100
AcDbEntity
100
AcDbLine
  8
guides
 62
256
370
-1
  6
BYLAYER
 10
449.9999999999998863
 20
159.9999999999999432
 30
0.0
 11
469.9999999999998863
 21
159.9999999999999432
 31
0.0
  0
LINE
  5
223
100
AcDbEntity
100
AcDbLine
  8
guides
 62
256
370
-1
  6
BYLAYER
 10
469.9999999999998863
 20
159.9999999999999432
 30
0.0
 11
469.9999999999998863
 21
179.9999999999999432
 31
0.0
  0
LINE
  5
224
100
AcDbEntity
100
AcDbLine
  8
guides
 62
256
370
-1
  6
BYLAYER
 10
469.9999999999998863
 20
179.9999999999999432
 30
0.0
 11
449.9999999999998863
 21
179.9999999999999432
 31
0.0
  0
LINE
  5
225
100
AcDbEntity
100
AcDbLine
  8
guides
 62
256
370
-1
  6
BYLAYER
 10
449.9999999999998863
 20
179.9999999999999432
 30
0.0
 11
449.9999999999998863
 21
159.9999999999999432
 31
0.0
  0
LINE
  5
226
100
AcDbEntity
100
AcDbLine
  8
0
 62
256
370
-1
  6
BYLAYER
 10
469.9999999999998863
 20
164.9999999999999432
 30
0.0
 11
469.9999999999998863
 21
164.9999999999999432
 31
0.0
  0
LINE
  5
227
100
AcDbEntity
100
AcDbLine
  8
guides
 62
256
370
-1
  6
BYLAYER
 10
446.9999999999998863
 20
182.9999999999999432
 30
0.0
 11
472.9999999999998863
 21
182.9999999999999432
 31
0.0
  0
LINE
  5
228
100
AcDbEntity
100
AcDbLine
  8
guides
 62
256
370
-1
  6
BYLAYER
 10
472.9999999999998863
 20
182.9999999999999432
 30
0.0
 11
472.9999999999998863
 21
156.9999999999999432
 31
0.0
  0
LINE
  5
229
100
AcDbEntity
100
AcDbLine
  8
guides
 62
256
370
-1
  6
BYLAYER
 10
472.9999999999998863
 20
156.9999999999999432
 30
0.0
 11
446.9999999999998863
 21
156.9999999999999432
 31
0.0
  0
LINE
  5
22A
100
AcDbEntity
100
AcDbLine
  8
guides
 62
256
370
-1
  6
BYLAYER
 10
446.9999999999998863
 20
156.9999999999999432
 30
0.0
 11
446.9999999999998863
 21
182.9999999999999432
 31
0.0
  0
LINE
  5
22B
100
AcDbEntity
100
AcDbLine
  8
guides
 62
256
370
-1
  6
BYLAYER
 10
443.9999999999998863
 20
182.9999999999999432
 30
0.0
 11
475.9999999999998863
 21
182.9999999999999432
 31
0.0
  0
LINE
  5
22C
100
AcDbEntity
100
AcDbLine
  8
guides
 62
256
370
-1
  6
BYLAYER
 10
449.9999999999998863
 20
159.9999999999999432
 30
0.0
 11
449.9999999999998863
 21
159.9999999999999432
 31
0.0
  0
LINE
  5
22D
100
AcDbEntity
100
AcDbLine
  8
guides
 62
256
370
-1
  6
BYLAYER
 10
449.9999999999998863
 20
159.9999999999999432
 30
0.0
 11
449.9999999999998863
 21
159.9999999999999432
 31
0.0
  0
LINE
  5
22E
100
AcDbEntity
100
AcDbLine
  8
guides
 62
256
370
-1
  6
BYLAYER
 10
472.9999999999998863
 20
126.9999999999999432
 30
0.0
 11
446.9999999999998863
 21
152.9999999999999432
 31
0.0
  0
LINE
  5
22F
100
AcDbEntity
100
AcDbLine
  8
guides
 62
256
370
-1
  6
BYLAYER
 10
472.9999999999998863
 20
152.9999999999999432
 30
0.0
 11
446.9999999999998863
 21
126.9999999999999432
 31
0.0
  0
LINE
  5
230
100
AcDbEntity
100
AcDbLine
  8
guides
 62
256
370
-1
  6
BYLAYER
 10
444.0000000000001137
 20
153.0000000000000568
 30
0.0
 11
476.0000000000001137
 21
152.9999999999999432
 31
0.0
  0
LINE
  5
231
100
AcDbEntity
100
AcDbLine
  8
guides
 62
256
370
-1
  6
BYLAYER
 10
449.9999999999998863
 20
129.9999999999999432
 30
0.0
 11
449.9999999999998863
 21
129.9999999999999432
 31
0.0
  0
LINE
  5
232
100
AcDbEntity
100
AcDbLine
  8
guides
 62
256
370
-1
  6
BYLAYER
 10
449.9999999999998863
 20
129.9999999999999432
 30
0.0
 11
449.9999999999998863
 21
129.9999999999999432
 31
0.0
  0
LINE
  5
233
100
AcDbEntity
100
AcDbLine
  8
guides
 62
256
370
-1
  6
BYLAYER
 10
449.9999999999998863
 20
129.9999999999999432
 30
0.0
 11
449.9999999999998863
 21
129.9999999999999432
 31
0.0
  0
LINE
  5
234
100
AcDbEntity
100
AcDbLine
  8
guides
 62
256
370
-1
  6
BYLAYER
 10
449.9999999999998863
 20
129.9999999999999432
 30
0.0
 11
449.9999999999998863
 21
129.9999999999999432
 31
0.0
  0
LINE
  5
235
100
AcDbEntity
100
AcDbLine
  8
guides
 62
256
370
-1
  6
BYLAYER
 10
449.9999999999998863
 20
129.9999999999999432
 30
0.0
 11
449.9999999999998863
 21
129.9999999999999432
 31
0.0
  0
LINE
  5
236
100
AcDbEntity
100
AcDbLine
  8
guides
 62
256
370
-1
  6
BYLAYER
 10
449.9999999999998863
 20
129.9999999999999432
 30
0.0
 11
449.9999999999998863
 21
129.9999999999999432
 31
0.0
  0
LINE
  5
237
100
AcDbEntity
100
AcDbLine
  8
guides
 62
256
370
-1
  6
BYLAYER
 10
449.9999999999998863
 20
129.9999999999999432
 30
0.0
 11
469.9999999999998863
 21
129.9999999999999432
 31
0.0
  0
LINE
  5
238
100
AcDbEntity
100
AcDbLine
  8
guides
 62
256
370
-1
  6
BYLAYER
 10
469.9999999999998863
 20
129.9999999999999432
 30
0.0
 11
469.9999999999998863
 21
149.9999999999999432
 31
0.0
  0
LINE
  5
239
100
AcDbEntity
100
AcDbLine
  8
guides
 62
256
370
-1
  6
BYLAYER
 10
469.9999999999998863
 20
149.9999999999999432
 30
0.0
 11
449.9999999999998863
 21
149.9999999999999432
 31
0.0
  0
LINE
  5
23A
100
AcDbEntity
100
AcDbLine
  8
guides
 62
256
370
-1
  6
BYLAYER
 10
449.9999999999998863
 20
149.9999999999999432
 30
0.0
 11
449.9999999999998863
 21
129.9999999999999432
 31
0.0
  0
LINE
  5
23B
100
AcDbEntity
100
AcDbLine
  8
0
 62
256
370
-1
  6
BYLAYER
 10
469.9999999999998863
 20
134.9999999999999432
 30
0.0
 11
469.9999999999998863
 21
134.9999999999999432
 31
0.0
  0
LINE
  5
23C
100
AcDbEntity
100
AcDbLine
  8
0
 62
256
370
-1
  6
BYLAYER
 10
469.9999999999998863
 20
134.9999999999999432
 30
0.0
 11
469.9999999999998863
 21
134.9999999999999432
 31
0.0
  0
LINE
  5
23D
100
AcDbEntity
100
AcDbLine
  8
0
 62
256
370
-1
  6
BYLAYER
 10
469.9999999999998863
 20
134.9999999999999432
 30
0.0
 11
469.9999999999998863
 21
134.9999999999999432
 31
0.0
  0
LINE
  5
23E
100
AcDbEntity
100
AcDbLine
  8
0
 62
256
370
-1
  6
BYLAYER
 10
469.9999999999998863
 20
134.9999999999999432
 30
0.0
 11
469.9999999999998863
 21
134.9999999999999432
 31
0.0
  0
LINE
  5
23F
100
AcDbEntity
100
AcDbLine
  8
guides
 62
256
370
-1
  6
BYLAYER
 10
446.9999999999998863
 20
152.9999999999999432
 30
0.0
 11
472.9999999999998863
 21
152.9999999999999432
 31
0.0
  0
LINE
  5
240
100
AcDbEntity
100
AcDbLine
  8
guides
 62
256
370
-1
  6
BYLAYER
 10
472.9999999999998863
 20
152.9999999999999432
 30
0.0
 11
472.9999999999998863
 21
126.9999999999999432
 31
0.0
  0
LINE
  5
241
100
AcDbEntity
100
AcDbLine
  8
guides
 62
256
370
-1
  6
BYLAYER
 10
472.9999999999998863
 20
126.9999999999999432
 30
0.0
 11
446.9999999999998863
 21
126.9999999999999432
 31
0.0
  0
LINE
  5
242
100
AcDbEntity
100
AcDbLine
  8
guides
 62
256
370
-1
  6
BYLAYER
 10
446.9999999999998863
 20
126.9999999999999432
 30
0.0
 11
446.9999999999998863
 21
152.9999999999999432
 31
0.0
  0
LINE
  5
243
100
AcDbEntity
100
AcDbLine
  8
guides
 62
256
370
-1
  6
BYLAYER
 10
443.9999999999998863
 20
152.9999999999999432
 30
0.0
 11
475.9999999999998863
 21
152.9999999999999432
 31
0.0
  0
LINE
  5
244
100
AcDbEntity
100
AcDbLine
  8
guides
 62
256
370
-1
  6
BYLAYER
 10
449.9999999999998863
 20
129.9999999999999432
 30
0.0
 11
449.9999999999998863
 21
129.9999999999999432
 31
0.0
  0
LINE
  5
245
100
AcDbEntity
100
AcDbLine
  8
guides
 62
256
370
-1
  6
BYLAYER
 10
449.9999999999998863
 20
129.9999999999999432
 30
0.0
 11
449.9999999999998863
 21
129.9999999999999432
 31
0.0
  0
LINE
  5
246
100
AcDbEntity
100
AcDbLine
  8
guides
 62
256
370
-1
  6
BYLAYER
 10
472.9999999999998863
 20
99.9999999999999432
 30
0.0
 11
446.9999999999998863
 21
125.9999999999999432
 31
0.0
  0
LINE
  5
247
100
AcDbEntity
100
AcDbLine
  8
guides
 62
256
370
-1
  6
BYLAYER
 10
472.9999999999998863
 20
125.9999999999999432
 30
0.0
 11
446.9999999999998863
 21
99.9999999999999432
 31
0.0
  0
LINE
  5
248
100
AcDbEntity
100
AcDbLine
  8
guides
 62
256
370
-1
  6
BYLAYER
 10
444.0000000000001137
 20
126.0000000000000568
 30
0.0
 11
476.0000000000001137
 21
125.9999999999999432
 31
0.0
  0
LINE
  5
249
100
AcDbEntity
100
AcDbLine
  8
guides
 62
256
370
-1
  6
BYLAYER
 10
449.9999999999998863
 20
102.9999999999999432
 30
0.0
 11
449.9999999999998863
 21
102.9999999999999432
 31
0.0
  0
LINE
  5
24A
100
AcDbEntity
100
AcDbLine
  8
guides
 62
256
370
-1
  6
BYLAYER
 10
449.9999999999998863
 20
102.9999999999999432
 30
0.0
 11
449.9999999999998863
 21
102.9999999999999432
 31
0.0
  0
LINE
  5
24B
100
AcDbEntity
100
AcDbLine
  8
guides
 62
256
370
-1
  6
BYLAYER
 10
449.9999999999998863
 20
102.9999999999999432
 30
0.0
 11
449.9999999999998863
 21
102.9999999999999432
 31
0.0
  0
LINE
  5
24C
100
AcDbEntity
100
AcDbLine
  8
guides
 62
256
370
-1
  6
BYLAYER
 10
449.9999999999998863
 20
102.9999999999999432
 30
0.0
 11
449.9999999999998863
 21
102.9999999999999432
 31
0.0
  0
LINE
  5
24D
100
AcDbEntity
100
AcDbLine
  8
guides
 62
256
370
-1
  6
BYLAYER
 10
449.9999999999998863
 20
102.9999999999999432
 30
0.0
 11
449.9999999999998863
 21
102.9999999999999432
 31
0.0
  0
LINE
  5
24E
100
AcDbEntity
100
AcDbLine
  8
guides
 62
256
370
-1
  6
BYLAYER
 10
449.9999999999998863
 20
102.9999999999999432
 30
0.0
 11
449.9999999999998863
 21
102.9999999999999432
 31
0.0
  0
LINE
  5
24F
100
AcDbEntity
100
AcDbLine
  8
guides
 62
256
370
-1
  6
BYLAYER
 10
449.9999999999998863
 20
102.9999999999999432
 30
0.0
 11
469.9999999999998863
 21
102.9999999999999432
 31
0.0
  0
LINE
  5
250
100
AcDbEntity
100
AcDbLine
  8
guides
 62
256
370
-1
  6
BYLAYER
 10
469.9999999999998863
 20
102.9999999999999432
 30
0.0
 11
469.9999999999998863
 21
122.9999999999999432
 31
0.0
  0
LINE
  5
251
100
AcDbEntity
100
AcDbLine
  8
guides
 62
256
370
-1
  6
BYLAYER
 10
469.9999999999998863
 20
122.9999999999999432
 30
0.0
 11
449.9999999999998863
 21
122.9999999999999432
 31
0.0
  0
LINE
  5
252
100
AcDbEntity
100
AcDbLine
  8
guides
 62
256
370
-1
  6
BYLAYER
 10
449.9999999999998863
 20
122.9999999999999432
 30
0.0
 11
449.9999999999998863
 21
102.9999999999999432
 31
0.0
  0
LINE
  5
253
100
AcDbEntity
100
AcDbLine
  8
guides
 62
256
370
-1
  6
BYLAYER
 10
446.9999999999998863
 20
125.9999999999999432
 30
0.0
 11
472.9999999999998863
 21
125.9999999999999432
 31
0.0
  0
LINE
  5
254
100
AcDbEntity
100
AcDbLine
  8
guides
 62
256
370
-1
  6
BYLAYER
 10
472.9999999999998863
 20
125.9999999999999432
 30
0.0
 11
472.9999999999998863
 21
99.9999999999999432
 31
0.0
  0
LINE
  5
255
100
AcDbEntity
100
AcDbLine
  8
guides
 62
256
370
-1
  6
BYLAYER
 10
472.9999999999998863
 20
99.9999999999999432
 30
0.0
 11
446.9999999999998863
 21
99.9999999999999432
 31
0.0
  0
LINE
  5
256
100
AcDbEntity
100
AcDbLine
  8
guides
 62
256
370
-1
  6
BYLAYER
 10
446.9999999999998863
 20
99.9999999999999432
 30
0.0
 11
446.9999999999998863
 21
125.9999999999999432
 31
0.0
  0
LINE
  5
257
100
AcDbEntity
100
AcDbLine
  8
guides
 62
256
370
-1
  6
BYLAYER
 10
443.9999999999998863
 20
125.9999999999999432
 30
0.0
 11
475.9999999999998863
 21
125.9999999999999432
 31
0.0
  0
LINE
  5
258
100
AcDbEntity
100
AcDbLine
  8
guides
 62
256
370
-1
  6
BYLAYER
 10
449.9999999999998863
 20
102.9999999999999432
 30
0.0
 11
449.9999999999998863
 21
102.9999999999999432
 31
0.0
  0
LINE
  5
259
100
AcDbEntity
100
AcDbLine
  8
guides
 62
256
370
-1
  6
BYLAYER
 10
449.9999999999998863
 20
102.9999999999999432
 30
0.0
 11
449.9999999999998863
 21
102.9999999999999432
 31
0.0
  0
LWPOLYLINE
  5
25A
  8
0
 62
256
370
-1
  6
BYLAYER
100
AcDbEntity
100
AcDbPolyline
 90
25
 70
0
 10
259.5551362713291041
 20
370.0000000000001705
 30
0.0
 10
261.2871870788982278
 20
370.0000000000002274
 30
0.0
 10
261.2871870788982278
 20
387.0000000000001705
 30
0.0
 10
277.9999999999999432
 20
387.0000000000002274
 30
0.0
 10
277.9999999999998863
 20
396.0000000000001705
 30
0.0
 10
287.9999999999998863
 20
396.0000000000001705
 30
0.0
 10
287.9999999999999432
 20
387.0000000000001705
 30
0.0
 10
305.0
 20
387.0000000000002274
 30
0.0
 10
304.9999999999999432
 20
396.0000000000001705
 30
0.0
 10
314.9999999999999432
 20
396.0000000000001705
 30
0.0
 10
314.9999999999998295
 20
387.0000000000002274
 30
0.0
 10
331.9999999999998863
 20
387.0000000000001705
 30
0.0
 10
331.9999999999998863
 20
396.0000000000001137
 30
0.0
 10
341.9999999999998863
 20
396.0000000000001137
 30
0.0
 10
341.9999999999998863
 20
387.0000000000001705
 30
0.0
 10
358.7128129211017722
 20
387.0000000000001705
 30
0.0
 10
358.7128129211017722
 20
370.0000000000001705
 30
0.0
 10
360.444863728670839
 20
370.0000000000001705
 30
0.0
 10
360.444863728670839
 20
350.0000000000001705
 30
0.0
 10
358.7128129211017722
 20
350.0000000000001137
 30
0.0
 10
358.7128129211017722
 20
330.0000000000001705
 30
0.0
 10
261.2871870788982278
 20
330.0000000000002274
 30
0.0
 10
261.2871870788982847
 20
350.0000000000001705
 30
0.0
 10
259.5551362713291041
 20
350.0000000000001705
 30
0.0
 10
259.5551362713291041
 20
370.0000000000001705
 30
0.0
  0
LWPOLYLINE
  5
25B
  8
0
 62
256
370
-1
  6
BYLAYER
100
AcDbEntity
100
AcDbPolyline
 90
25
 70
0
 10
301.287187078898171
 20
300.0
 30
0.0
 10
299.5551362713290473
 20
300.0
 30
0.0
 10
299.5551362713290473
 20
280.0
 30
0.0
 10
301.287187078898171
 20
279.9999999999999432
 30
0.0
 10
301.287187078898171
 20
260.0000000000000568
 30
0.0
 10
398.7128129211017153
 20
260.0
 30
0.0
 10
398.712812921101488
 20
280.0
 30
0.0
 10
400.4448637286707822
 20
280.0
 30
0.0
 10
400.4448637286707822
 20
300.0
 30
0.0
 10
398.7128129211017153
 20
300.0
 30
0.0
 10
398.7128129211017153
 20
317.0
 30
0.0
 10
381.9999999999998295
 20
317.0
 30
0.0
 10
381.9999999999998295
 20
325.9999999999999432
 30
0.0
 10
371.9999999999998295
 20
325.9999999999999432
 30
0.0
 10
371.9999999999998295
 20
317.0
 30
0.0
 10
354.9999999999999432
 20
317.0000000000000568
 30
0.0
 10
354.9999999999998863
 20
326.0
 30
0.0
 10
344.9999999999998863
 20
326.0
 30
0.0
 10
344.9999999999998863
 20
317.0000000000000568
 30
0.0
 10
327.9999999999998863
 20
317.0000000000000568
 30
0.0
 10
327.9999999999998295
 20
326.0
 30
0.0
 10
317.9999999999998295
 20
326.0
 30
0.0
 10
317.9999999999998863
 20
317.0
 30
0.0
 10
301.287187078898171
 20
317.0000000000000568
 30
0.0
 10
301.287187078898171
 20
300.0000000000000568
 30
0.0
  0
LWPOLYLINE
  5
25C
  8
0
 62
256
370
-1
  6
BYLAYER
100
AcDbEntity
100
AcDbPolyline
 90
23
 70
0
 10
340.0000000000000568
 20
247.0
 30
0.0
 10
354.2000000000001023
 20
247.0
 30
0.0
 10
354.2000000000001023
 20
250.0
 30
0.0
 10
359.2000000000001023
 20
250.0
 30
0.0
 10
364.2000000000001023
 20
250.0
 30
0.0
 10
364.2000000000001023
 20
247.0
 30
0.0
 10
378.4000000000001478
 20
247.0
 30
0.0
 10
378.4000000000001478
 20
230.0
 30
0.0
 10
380.2000000000001023
 20
229.9999999999999432
 30
0.0
 10
380.2000000000001023
 20
210.0
 30
0.0
 10
378.4000000000001478
 20
210.0
 30
0.0
 10
378.4000000000001478
 20
190.0
 30
0.0
 10
364.2000000000001023
 20
190.0
 30
0.0
 10
364.2000000000001023
 20
193.0
 30
0.0
 10
359.2000000000001023
 20
193.0
 30
0.0
 10
354.2000000000001023
 20
193.0
 30
0.0
 10
354.2000000000001023
 20
190.0
 30
0.0
 10
340.0000000000000568
 20
190.0
 30
0.0
 10
340.0000000000000568
 20
210.0
 30
0.0
 10
338.2000000000001023
 20
210.0
 30
0.0
 10
338.2000000000001023
 20
229.9999999999999432
 30
0.0
 10
340.0000000000000568
 20
230.0
 30
0.0
 10
340.0000000000000568
 20
247.0
 30
0.0
  0
LWPOLYLINE
  5
25D
  8
0
 62
256
370
-1
  6
BYLAYER
100
AcDbEntity
100
AcDbPolyline
 90
25
 70
0
 10
138.7128129211017722
 20
369.9999999999999432
 30
0.0
 10
140.444863728670839
 20
369.9999999999999432
 30
0.0
 10
140.444863728670839
 20
349.9999999999999432
 30
0.0
 10
138.7128129211017722
 20
349.9999999999998863
 30
0.0
 10
138.7128129211017722
 20
329.9999999999999432
 30
0.0
 10
41.2871870788982278
 20
330.0
 30
0.0
 10
41.2871870788982847
 20
349.9999999999999432
 30
0.0
 10
39.5551362713291041
 20
349.9999999999999432
 30
0.0
 10
39.5551362713291041
 20
369.9999999999999432
 30
0.0
 10
41.2871870788982278
 20
370.0
 30
0.0
 10
41.2871870788982278
 20
386.9999999999999432
 30
0.0
 10
57.9999999999999432
 20
387.0
 30
0.0
 10
57.9999999999998863
 20
395.9999999999999432
 30
0.0
 10
67.9999999999998863
 20
395.9999999999999432
 30
0.0
 10
67.9999999999999432
 20
386.9999999999999432
 30
0.0
 10
85.0
 20
387.0
 30
0.0
 10
84.9999999999999432
 20
395.9999999999999432
 30
0.0
 10
94.9999999999999432
 20
395.9999999999999432
 30
0.0
 10
94.9999999999998295
 20
387.0
 30
0.0
 10
111.9999999999998863
 20
386.9999999999999432
 30
0.0
 10
111.9999999999998863
 20
395.9999999999998863
 30
0.0
 10
121.9999999999998863
 20
395.9999999999998863
 30
0.0
 10
121.9999999999998863
 20
386.9999999999999432
 30
0.0
 10
138.7128129211017722
 20
386.9999999999999432
 30
0.0
 10
138.7128129211017722
 20
369.9999999999999432
 30
0.0
  0
LWPOLYLINE
  5
25E
  8
0
 62
256
370
-1
  6
BYLAYER
100
AcDbEntity
100
AcDbPolyline
 90
11
 70
0
 10
71.4059977296617774
 20
293.4581385525950736
 30
0.0
 42
0.0622878798386075
 10
75.3174442028473266
 20
262.1818217829282389
 30
0.0
 42
-0.4896417664784319
 10
72.4047988565742457
 20
258.4430153870663958
 30
0.0
 10
66.4009560100061975
 20
258.4531052988108399
 30
0.0
 42
-0.4137214192602354
 10
63.4059977296618058
 20
261.4531010623183533
 30
0.0
 10
63.4059977296618058
 20
293.4581385525951305
 30
0.0
 10
63.4059977296619195
 20
325.4631760428719076
 30
0.0
 42
-0.4137214192602353
 10
66.4009560100064959
 20
328.4631718063793073
 30
0.0
 10
72.4047988565739473
 20
328.4732617181238652
 30
0.0
 42
-0.4896417664784322
 10
75.3174442028473834
 20
324.7344553222619652
 30
0.0
 42
0.0622878798386075
 10
71.4059977296617774
 20
293.4581385525950736
 30
0.0
  0
LWPOLYLINE
  5
25F
  8
0
 62
256
370
-1
  6
BYLAYER
100
AcDbEntity
100
AcDbPolyline
 90
11
 70
0
 10
57.0816024608131727
 20
293.5805692813886481
 30
0.0
 42
0.0622878798386075
 10
60.993048933998729
 20
262.3042525117218133
 30
0.0
 42
-0.4896417664784319
 10
58.080403587725641
 20
258.5654461158599702
 30
0.0
 10
52.0765607411575857
 20
258.5755360276044144
 30
0.0
 42
-0.4137214192602354
 10
49.0816024608132011
 20
261.5755317911119278
 30
0.0
 10
49.0816024608132011
 20
293.5805692813887049
 30
0.0
 10
49.0816024608133148
 20
325.585606771665482
 30
0.0
 42
-0.4137214192602353
 10
52.0765607411578912
 20
328.5856025351728817
 30
0.0
 10
58.0804035877253355
 20
328.5956924469174396
 30
0.0
 42
-0.4896417664784322
 10
60.9930489339987787
 20
324.8568860510555396
 30
0.0
 42
0.0622878798386075
 10
57.0816024608131727
 20
293.5805692813886481
 30
0.0
  0
LWPOLYLINE
  5
260
  8
0
 62
256
370
-1
  6
BYLAYER
100
AcDbEntity
100
AcDbPolyline
 90
11
 70
0
 10
42.2702999891889419
 20
293.8254307389757969
 30
0.0
 42
0.0622878798386075
 10
46.1817464623744982
 20
262.5491139693089622
 30
0.0
 42
-0.4896417664784319
 10
43.2691011161014103
 20
258.810307573447119
 30
0.0
 10
37.265258269533355
 20
258.8203974851915632
 30
0.0
 42
-0.4137214192602354
 10
34.2702999891889704
 20
261.8203932486990766
 30
0.0
 10
34.2702999891889704
 20
293.8254307389758537
 30
0.0
 10
34.270299989189084
 20
325.8304682292526309
 30
0.0
 42
-0.4137214192602353
 10
37.2652582695336605
 20
328.8304639927600306
 30
0.0
 10
43.2691011161011048
 20
328.8405539045045884
 30
0.0
 42
-0.4896417664784322
 10
46.1817464623745479
 20
325.1017475086426884
 30
0.0
 42
0.0622878798386075
 10
42.2702999891889419
 20
293.8254307389757969
 30
0.0
  0
LWPOLYLINE
  5
261
  8
0
 62
256
370
-1
  6
BYLAYER
100
AcDbEntity
100
AcDbPolyline
 90
5
 70
0
 10
76.4166975080229491
 20
164.0525588832577455
 30
0.0
 10
79.0147737193762651
 20
165.5525588832577171
 30
0.0
 10
74.0147737193762794
 20
174.2128129211021133
 30
0.0
 10
71.4166975080229065
 20
172.7128129211022838
 30
0.0
 10
76.4166975080229491
 20
164.0525588832577455
 30
0.0
  0
LWPOLYLINE
  5
262
  8
0
 62
256
370
-1
  6
BYLAYER
100
AcDbEntity
100
AcDbPolyline
 90
5
 70
0
 10
87.5147737193762651
 20
150.8301270189222407
 30
0.0
 10
84.9166975080229633
 20
149.3301270189222407
 30
0.0
 10
89.9166975080228781
 20
140.6698729810779867
 30
0.0
 10
92.5147737193761799
 20
142.1698729810779582
 30
0.0
 10
87.5147737193762651
 20
150.8301270189222407
 30
0.0
  0
LWPOLYLINE
  5
263
  8
0
 62
256
370
-1
  6
BYLAYER
100
AcDbEntity
100
AcDbPolyline
 90
5
 70
0
 10
106.0147737193761799
 20
118.7871870788980999
 30
0.0
 10
103.4166975080229918
 20
117.287187078897972
 30
0.0
 10
98.4166975080228923
 20
125.9474411167424677
 30
0.0
 10
101.0147737193761799
 20
127.4474411167424819
 30
0.0
 10
106.0147737193761799
 20
118.7871870788980999
 30
0.0
  0
LWPOLYLINE
  5
264
  8
0
 62
256
370
-1
  6
BYLAYER
100
AcDbEntity
100
AcDbPolyline
 90
9
 70
0
 10
74.2301640285495807
 20
125.8397459621557744
 30
0.0
 42
-0.4142135623730953
 10
72.864138624765161
 20
126.2057713659401941
 30
0.0
 10
63.8641386247652534
 20
141.794228634059948
 30
0.0
 42
-0.4142135623730951
 10
64.2301640285496376
 20
143.1602540378445383
 30
0.0
 10
78.9525958928851139
 20
151.660254037844453
 30
0.0
 42
-0.4142135623730951
 10
80.3186212966695052
 20
151.294228634060147
 30
0.0
 10
89.3186212966695194
 20
135.7057713659401088
 30
0.0
 42
-0.4142135623730948
 10
88.9525958928850145
 20
134.3397459621558028
 30
0.0
 10
74.230164028549666
 20
125.8397459621556322
 30
0.0
  0
LWPOLYLINE
  5
265
  8
0
 62
256
370
-1
  6
BYLAYER
100
AcDbEntity
100
AcDbPolyline
 90
9
 70
0
 10
210.0
 20
344.0
 30
0.0
 42
-0.4142135623730951
 10
209.0
 20
343.0
 30
0.0
 10
191.0
 20
343.0
 30
0.0
 42
-0.4142135623730951
 10
190.0
 20
344.0
 30
0.0
 10
190.0
 20
361.0
 30
0.0
 42
-0.4142135623730951
 10
191.0
 20
362.0
 30
0.0
 10
209.0
 20
362.0
 30
0.0
 42
-0.4142135623730951
 10
210.0
 20
361.0
 30
0.0
 10
210.0
 20
344.0
 30
0.0
  0
LWPOLYLINE
  5
266
  8
0
 62
256
370
-1
  6
BYLAYER
100
AcDbEntity
100
AcDbPolyline
 90
5
 70
0
 10
222.0
 20
340.0
 30
0.0
 10
222.0
 20
337.0
 30
0.0
 10
232.0
 20
337.0
 30
0.0
 10
232.0
 20
340.0
 30
0.0
 10
221.9999999999999716
 20
340.0
 30
0.0
  0
LWPOLYLINE
  5
267
  8
0
 62
256
370
-1
  6
BYLAYER
100
AcDbEntity
100
AcDbPolyline
 90
5
 70
0
 10
168.0
 20
337.0
 30
0.0
 10
168.0
 20
340.0
 30
0.0
 10
178.0
 20
340.0
 30
0.0
 10
178.0
 20
337.0
 30
0.0
 10
168.0
 20
337.0
 30
0.0
  0
LWPOLYLINE
  5
268
  8
0
 62
256
370
-1
  6
BYLAYER
100
AcDbEntity
100
AcDbPolyline
 90
5
 70
0
 10
325.9852262806236922
 20
174.2128129211020564
 30
0.0
 10
328.5833024919770082
 20
172.7128129211019996
 30
0.0
 10
323.5833024919770082
 20
164.052558883257575
 30
0.0
 10
320.9852262806236922
 20
165.5525588832576602
 30
0.0
 10
325.9852262806236922
 20
174.2128129211020564
 30
0.0
  0
LWPOLYLINE
  5
269
  8
0
 62
256
370
-1
  6
BYLAYER
100
AcDbEntity
100
AcDbPolyline
 90
5
 70
0
 10
312.4852262806236922
 20
150.8301270189221555
 30
0.0
 10
307.4852262806236354
 20
142.1698729810777309
 30
0.0
 10
310.0833024919769514
 20
140.6698729810777309
 30
0.0
 10
315.0833024919770082
 20
149.3301270189221555
 30
0.0
 10
312.4852262806236922
 20
150.8301270189221555
 30
0.0
  0
LWPOLYLINE
  5
26A
  8
0
 62
256
370
-1
  6
BYLAYER
100
AcDbEntity
100
AcDbPolyline
 90
5
 70
0
 10
301.5833024919769514
 20
125.9474411167423114
 30
0.0
 10
298.9852262806236354
 20
127.4474411167422545
 30
0.0
 10
293.9852262806236354
 20
118.7871870788978725
 30
0.0
 10
296.5833024919769514
 20
117.2871870788979152
 30
0.0
 10
301.5833024919769514
 20
125.9474411167423114
 30
0.0
  0
LWPOLYLINE
  5
26B
  8
0
 62
256
370
-1
  6
BYLAYER
100
AcDbEntity
100
AcDbPolyline
 90
9
 70
0
 10
311.047404107114744
 20
134.3397459621555186
 30
0.0
 42
-0.4142135623730948
 10
310.6813787033303242
 20
135.7057713659399383
 30
0.0
 10
319.6813787033303242
 20
151.2942286340598343
 30
0.0
 42
-0.4142135623730953
 10
321.047404107114744
 20
151.6602540378442541
 30
0.0
 10
335.7698359714502203
 20
143.1602540378443393
 30
0.0
 42
-0.4142135623730951
 10
336.1358613752345832
 20
141.7942286340597775
 30
0.0
 10
327.1358613752345832
 20
126.2057713659399241
 30
0.0
 42
-0.4142135623730951
 10
325.7698359714501635
 20
125.8397459621554759
 30
0.0
 10
311.047404107114744
 20
134.3397459621555186
 30
0.0
  0
LWPOLYLINE
  5
26C
  8
0
 62
256
370
-1
  6
BYLAYER
100
AcDbEntity
100
AcDbPolyline
 90
14
 70
0
 10
399.9999999999999432
 20
119.9999999999999858
 30
0.0
 42
-0.4654712022127606
 10
388.2905982905983251
 20
111.8692608612103072
 30
0.0
 42
-0.0192639433463107
 10
378.7236832303331084
 20
113.911446473185606
 30
0.0
 42
0.489641766478432
 10
374.9848768344712653
 20
110.9988011269124399
 30
0.0
 10
374.9949667462157095
 20
104.994958280344278
 30
0.0
 42
0.4137214192602353
 10
377.9949625097232229
 20
101.9999999999999716
 30
0.0
 10
410.0
 20
102.0
 30
0.0
 10
442.0050374902767771
 20
102.0000000000000284
 30
0.0
 42
0.4137214192602354
 10
445.0050332537841768
 20
104.9949582803445622
 30
0.0
 10
445.0151231655287347
 20
110.9988011269121984
 30
0.0
 42
0.4896417664784319
 10
441.2763167696668916
 20
113.9114464731855634
 30
0.0
 42
-0.0192639433463107
 10
431.7094017094017318
 20
111.8692608612103498
 30
0.0
 42
-0.4654712022127603
 10
420.0
 20
120.0
 30
0.0
 42
0.9999999999999999
 10
400.0
 20
120.0
 30
0.0
  0
LWPOLYLINE
  5
26D
  8
0
 62
256
370
-1
  6
BYLAYER
100
AcDbEntity
100
AcDbPolyline
 90
14
 70
0
 10
410.0000000000000568
 20
140.0
 30
0.0
 42
-0.4654712022127604
 10
421.7094017094017318
 20
148.1307391387896644
 30
0.0
 42
-0.0192639433463107
 10
431.2763167696668916
 20
146.088553526814394
 30
0.0
 42
0.4896417664784324
 10
435.0151231655287347
 20
149.0011988730875601
 30
0.0
 10
435.0050332537842905
 20
155.0050417196557362
 30
0.0
 42
0.4137214192602353
 10
432.0050374902767771
 20
158.0000000000000284
 30
0.0
 10
400.0
 20
158.0
 30
0.0
 10
367.9949625097232229
 20
157.9999999999999716
 30
0.0
 42
0.4137214192602353
 10
364.9949667462158232
 20
155.0050417196554235
 30
0.0
 10
364.9848768344712653
 20
149.0011988730878159
 30
0.0
 42
0.4896417664784321
 10
368.7236832303331084
 20
146.088553526814394
 30
0.0
 42
-0.0192639433463106
 10
378.2905982905982682
 20
148.1307391387896644
 30
0.0
 42
-0.4654712022127598
 10
390.0
 20
140.0
 30
0.0
 42
0.9999999999999999
 10
410.0
 20
140.0
 30
0.0
  0
LWPOLYLINE
  5
26E
  8
0
 62
256
370
-1
  6
BYLAYER
100
AcDbEntity
100
AcDbPolyline
 90
14
 70
0
 10
390.0
 20
170.0
 30
0.0
 42
-0.9999999999999999
 10
369.9999999999999432
 20
170.0
 30
0.0
 42
0.4654712022127598
 10
358.2905982905982682
 20
178.1307391387896644
 30
0.0
 42
0.0192639433463106
 10
348.7236832303331084
 20
176.0885535268144224
 30
0.0
 42
-0.4896417664784321
 10
344.9848768344712653
 20
179.0011988730875316
 30
0.0
 10
344.9949667462157095
 20
185.0050417196557078
 30
0.0
 42
-0.4137214192602353
 10
347.9949625097232229
 20
188.0
 30
0.0
 10
380.0
 20
188.0
 30
0.0
 10
412.0050374902767771
 20
188.0
 30
0.0
 42
-0.4137214192602353
 10
415.0050332537841768
 20
185.0050417196553951
 30
0.0
 10
415.0151231655287347
 20
179.0011988730877874
 30
0.0
 42
-0.4896417664784324
 10
411.2763167696668916
 20
176.088553526814394
 30
0.0
 42
0.0192639433463107
 10
401.7094017094017318
 20
178.1307391387896644
 30
0.0
 42
0.4654712022127604
 10
390.0000000000000568
 20
170.0
 30
0.0
  0
LWPOLYLINE
  5
26F
  8
0
 62
256
370
-1
  6
BYLAYER
100
AcDbEntity
100
AcDbPolyline
 90
7
 70
0
 10
380.0
 20
182.0
 30
0.0
 10
375.0
 20
182.0
 30
0.0
 10
375.0
 20
185.0
 30
0.0
 10
380.0
 20
185.0
 30
0.0
 10
385.0
 20
185.0
 30
0.0
 10
385.0
 20
182.0
 30
0.0
 10
380.0
 20
182.0
 30
0.0
  0
LWPOLYLINE
  5
270
  8
0
 62
256
370
-1
  6
BYLAYER
100
AcDbEntity
100
AcDbPolyline
 90
5
 70
0
 10
358.0
 20
185.0
 30
0.0
 10
358.0
 20
182.0
 30
0.0
 10
348.0
 20
182.0
 30
0.0
 10
348.0
 20
185.0
 30
0.0
 10
358.0
 20
185.0
 30
0.0
  0
LWPOLYLINE
  5
271
  8
0
 62
256
370
-1
  6
BYLAYER
100
AcDbEntity
100
AcDbPolyline
 90
5
 70
0
 10
412.0
 20
182.0
 30
0.0
 10
412.0
 20
185.0
 30
0.0
 10
402.0
 20
185.0
 30
0.0
 10
402.0
 20
182.0
 30
0.0
 10
412.0
 20
182.0
 30
0.0
  0
LWPOLYLINE
  5
272
  8
0
 62
256
370
-1
  6
BYLAYER
100
AcDbEntity
100
AcDbPolyline
 90
31
 70
0
 10
409.2000000000000455
 20
230.0
 30
0.0
 10
412.2000000000000455
 20
230.0
 30
0.0
 10
412.2000000000000455
 20
240.0
 30
0.0
 10
409.2000000000000455
 20
240.0
 30
0.0
 10
409.2000000000000455
 20
247.0
 30
0.0
 10
404.2000000000000455
 20
247.0
 30
0.0
 10
404.2000000000000455
 20
250.0
 30
0.0
 10
399.2000000000000455
 20
250.0
 30
0.0
 10
394.2000000000000455
 20
250.0
 30
0.0
 10
394.2000000000000455
 20
247.0
 30
0.0
 10
389.2000000000000455
 20
247.0
 30
0.0
 10
389.2000000000000455
 20
240.0
 30
0.0
 10
386.2000000000000455
 20
240.0
 30
0.0
 10
386.2000000000000455
 20
230.0
 30
0.0
 10
389.2000000000000455
 20
230.0
 30
0.0
 10
389.2000000000000455
 20
210.0
 30
0.0
 10
386.2000000000000455
 20
210.0
 30
0.0
 10
386.2000000000000455
 20
200.0
 30
0.0
 10
389.2000000000000455
 20
200.0
 30
0.0
 10
389.2000000000000455
 20
190.0
 30
0.0
 10
394.2000000000000455
 20
190.0
 30
0.0
 10
394.2000000000000455
 20
193.0
 30
0.0
 10
399.2000000000000455
 20
193.0
 30
0.0
 10
404.2000000000000455
 20
193.0
 30
0.0
 10
404.2000000000000455
 20
190.0
 30
0.0
 10
409.2000000000000455
 20
190.0
 30
0.0
 10
409.2000000000000455
 20
200.0
 30
0.0
 10
412.2000000000000455
 20
200.0
 30
0.0
 10
412.2000000000000455
 20
210.0
 30
0.0
 10
409.2000000000000455
 20
210.0
 30
0.0
 10
409.2000000000000455
 20
230.0
 30
0.0
  0
LWPOLYLINE
  5
273
  8
0
 62
256
370
-1
  6
BYLAYER
100
AcDbEntity
100
AcDbPolyline
 90
31
 70
0
 10
439.2000000000000455
 20
230.0
 30
0.0
 10
442.2000000000000455
 20
230.0
 30
0.0
 10
442.2000000000000455
 20
240.0
 30
0.0
 10
439.2000000000000455
 20
240.0
 30
0.0
 10
439.2000000000000455
 20
247.0
 30
0.0
 10
434.2000000000000455
 20
247.0
 30
0.0
 10
434.2000000000000455
 20
250.0
 30
0.0
 10
429.2000000000000455
 20
250.0
 30
0.0
 10
424.2000000000000455
 20
250.0
 30
0.0
 10
424.2000000000000455
 20
247.0
 30
0.0
 10
419.2000000000000455
 20
247.0
 30
0.0
 10
419.2000000000000455
 20
240.0
 30
0.0
 10
416.2000000000000455
 20
240.0
 30
0.0
 10
416.2000000000000455
 20
230.0
 30
0.0
 10
419.2000000000000455
 20
230.0
 30
0.0
 10
419.2000000000000455
 20
210.0
 30
0.0
 10
416.2000000000000455
 20
210.0
 30
0.0
 10
416.2000000000000455
 20
200.0
 30
0.0
 10
419.2000000000000455
 20
200.0
 30
0.0
 10
419.2000000000000455
 20
190.0
 30
0.0
 10
424.2000000000000455
 20
190.0
 30
0.0
 10
424.2000000000000455
 20
193.0
 30
0.0
 10
429.2000000000000455
 20
193.0
 30
0.0
 10
434.2000000000000455
 20
193.0
 30
0.0
 10
434.2000000000000455
 20
190.0
 30
0.0
 10
439.2000000000000455
 20
190.0
 30
0.0
 10
439.2000000000000455
 20
200.0
 30
0.0
 10
442.2000000000000455
 20
200.0
 30
0.0
 10
442.2000000000000455
 20
210.0
 30
0.0
 10
439.2000000000000455
 20
210.0
 30
0.0
 10
439.2000000000000455
 20
230.0
 30
0.0
  0
LWPOLYLINE
  5
274
  8
0
 62
256
370
-1
  6
BYLAYER
100
AcDbEntity
100
AcDbPolyline
 90
23
 70
0
 10
444.0000000000000568
 20
299.9999999999999432
 30
0.0
 10
442.2000000000001023
 20
300.0
 30
0.0
 10
442.2000000000001023
 20
317.0
 30
0.0
 10
428.0000000000000568
 20
317.0
 30
0.0
 10
428.0000000000000568
 20
320.0
 30
0.0
 10
423.0000000000000568
 20
320.0
 30
0.0
 10
418.0000000000000568
 20
320.0
 30
0.0
 10
418.0000000000000568
 20
317.0
 30
0.0
 10
403.8000000000000114
 20
317.0
 30
0.0
 10
403.8000000000000114
 20
300.0
 30
0.0
 10
402.0000000000000568
 20
299.9999999999999432
 30
0.0
 10
402.0000000000000568
 20
280.0
 30
0.0
 10
403.8000000000000114
 20
280.0
 30
0.0
 10
403.8000000000000114
 20
260.0
 30
0.0
 10
418.0000000000000568
 20
260.0
 30
0.0
 10
418.0000000000000568
 20
263.0
 30
0.0
 10
423.0000000000000568
 20
263.0
 30
0.0
 10
428.0000000000000568
 20
263.0
 30
0.0
 10
428.0000000000000568
 20
260.0
 30
0.0
 10
442.2000000000001023
 20
260.0
 30
0.0
 10
442.2000000000001023
 20
280.0
 30
0.0
 10
444.0000000000000568
 20
280.0
 30
0.0
 10
444.0000000000000568
 20
299.9999999999999432
 30
0.0
  0
LWPOLYLINE
  5
275
  8
0
 62
256
370
-1
  6
BYLAYER
100
AcDbEntity
100
AcDbPolyline
 90
23
 70
0
 10
405.0
 20
370.0
 30
0.0
 10
403.2000000000000455
 20
370.0000000000000568
 30
0.0
 10
403.2000000000000455
 20
387.0000000000000568
 30
0.0
 10
389.0
 20
387.0000000000000568
 30
0.0
 10
389.0
 20
390.0000000000000568
 30
0.0
 10
384.0
 20
390.0000000000000568
 30
0.0
 10
379.0
 20
390.0000000000000568
 30
0.0
 10
379.0
 20
387.0000000000000568
 30
0.0
 10
364.7999999999999545
 20
387.0000000000000568
 30
0.0
 10
364.7999999999999545
 20
370.0000000000000568
 30
0.0
 10
363.0
 20
370.0
 30
0.0
 10
363.0
 20
350.0000000000000568
 30
0.0
 10
364.7999999999999545
 20
350.0000000000000568
 30
0.0
 10
364.7999999999999545
 20
330.0000000000000568
 30
0.0
 10
379.0
 20
330.0000000000000568
 30
0.0
 10
379.0
 20
333.0000000000000568
 30
0.0
 10
384.0
 20
333.0000000000000568
 30
0.0
 10
389.0
 20
333.0000000000000568
 30
0.0
 10
389.0
 20
330.0000000000000568
 30
0.0
 10
403.2000000000000455
 20
330.0000000000000568
 30
0.0
 10
403.2000000000000455
 20
350.0000000000000568
 30
0.0
 10
405.0
 20
350.0000000000000568
 30
0.0
 10
405.0
 20
370.0
 30
0.0
  0
LWPOLYLINE
  5
276
  8
0
 62
256
370
-1
  6
BYLAYER
100
AcDbEntity
100
AcDbPolyline
 90
31
 70
0
 10
433.9999999999999432
 20
370.0000000000000568
 30
0.0
 10
436.9999999999999432
 20
370.0000000000000568
 30
0.0
 10
436.9999999999999432
 20
380.0000000000000568
 30
0.0
 10
433.9999999999999432
 20
380.0000000000000568
 30
0.0
 10
433.9999999999999432
 20
387.0000000000000568
 30
0.0
 10
428.9999999999999432
 20
387.0000000000000568
 30
0.0
 10
428.9999999999999432
 20
390.0000000000000568
 30
0.0
 10
423.9999999999999432
 20
390.0000000000000568
 30
0.0
 10
418.9999999999999432
 20
390.0000000000000568
 30
0.0
 10
418.9999999999999432
 20
387.0000000000000568
 30
0.0
 10
413.9999999999999432
 20
387.0000000000000568
 30
0.0
 10
413.9999999999999432
 20
380.0000000000000568
 30
0.0
 10
410.9999999999999432
 20
380.0000000000000568
 30
0.0
 10
410.9999999999999432
 20
370.0000000000000568
 30
0.0
 10
413.9999999999999432
 20
370.0000000000000568
 30
0.0
 10
413.9999999999999432
 20
350.0000000000000568
 30
0.0
 10
410.9999999999999432
 20
350.0000000000000568
 30
0.0
 10
410.9999999999999432
 20
340.0000000000000568
 30
0.0
 10
413.9999999999999432
 20
340.0000000000000568
 30
0.0
 10
413.9999999999999432
 20
330.0000000000000568
 30
0.0
 10
418.9999999999999432
 20
330.0000000000000568
 30
0.0
 10
418.9999999999999432
 20
333.0000000000000568
 30
0.0
 10
423.9999999999999432
 20
333.0000000000000568
 30
0.0
 10
428.9999999999999432
 20
333.0000000000000568
 30
0.0
 10
428.9999999999999432
 20
330.0000000000000568
 30
0.0
 10
433.9999999999999432
 20
330.0000000000000568
 30
0.0
 10
433.9999999999999432
 20
340.0000000000000568
 30
0.0
 10
436.9999999999999432
 20
340.0000000000000568
 30
0.0
 10
436.9999999999999432
 20
350.0000000000000568
 30
0.0
 10
433.9999999999999432
 20
350.0000000000000568
 30
0.0
 10
433.9999999999999432
 20
370.0000000000000568
 30
0.0
  0
LWPOLYLINE
  5
277
  8
0
 62
256
370
-1
  6
BYLAYER
100
AcDbEntity
100
AcDbPolyline
 90
31
 70
0
 10
463.9999999999999432
 20
370.0000000000000568
 30
0.0
 10
466.9999999999999432
 20
370.0000000000000568
 30
0.0
 10
466.9999999999999432
 20
380.0000000000000568
 30
0.0
 10
463.9999999999999432
 20
380.0000000000000568
 30
0.0
 10
463.9999999999999432
 20
387.0000000000000568
 30
0.0
 10
458.9999999999999432
 20
387.0000000000000568
 30
0.0
 10
458.9999999999999432
 20
390.0000000000000568
 30
0.0
 10
453.9999999999999432
 20
390.0000000000000568
 30
0.0
 10
448.9999999999999432
 20
390.0000000000000568
 30
0.0
 10
448.9999999999999432
 20
387.0000000000000568
 30
0.0
 10
443.9999999999999432
 20
387.0000000000000568
 30
0.0
 10
443.9999999999999432
 20
380.0000000000000568
 30
0.0
 10
440.9999999999999432
 20
380.0000000000000568
 30
0.0
 10
440.9999999999999432
 20
370.0000000000000568
 30
0.0
 10
443.9999999999999432
 20
370.0000000000000568
 30
0.0
 10
443.9999999999999432
 20
350.0000000000000568
 30
0.0
 10
440.9999999999999432
 20
350.0000000000000568
 30
0.0
 10
440.9999999999999432
 20
340.0000000000000568
 30
0.0
 10
443.9999999999999432
 20
340.0000000000000568
 30
0.0
 10
443.9999999999999432
 20
330.0000000000000568
 30
0.0
 10
448.9999999999999432
 20
330.0000000000000568
 30
0.0
 10
448.9999999999999432
 20
333.0000000000000568
 30
0.0
 10
453.9999999999999432
 20
333.0000000000000568
 30
0.0
 10
458.9999999999999432
 20
333.0000000000000568
 30
0.0
 10
458.9999999999999432
 20
330.0000000000000568
 30
0.0
 10
463.9999999999999432
 20
330.0000000000000568
 30
0.0
 10
463.9999999999999432
 20
340.0000000000000568
 30
0.0
 10
466.9999999999999432
 20
340.0000000000000568
 30
0.0
 10
466.9999999999999432
 20
350.0000000000000568
 30
0.0
 10
463.9999999999999432
 20
350.0000000000000568
 30
0.0
 10
463.9999999999999432
 20
370.0000000000000568
 30
0.0
  0
LWPOLYLINE
  5
278
  8
0
 62
256
370
-1
  6
BYLAYER
100
AcDbEntity
100
AcDbPolyline
 90
31
 70
0
 10
496.9999999999999432
 20
350.0000000000000568
 30
0.0
 10
493.9999999999999432
 20
350.0000000000000568
 30
0.0
 10
493.9999999999999432
 20
340.0000000000000568
 30
0.0
 10
496.9999999999999432
 20
340.0000000000000568
 30
0.0
 10
496.9999999999999432
 20
330.0000000000000568
 30
0.0
 10
488.9999999999999432
 20
330.0000000000000568
 30
0.0
 10
488.9999999999999432
 20
333.0000000000000568
 30
0.0
 10
483.9999999999999432
 20
333.0000000000000568
 30
0.0
 10
478.9999999999999432
 20
333.0000000000000568
 30
0.0
 10
478.9999999999999432
 20
330.0000000000000568
 30
0.0
 10
470.9999999999999432
 20
330.0000000000000568
 30
0.0
 10
470.9999999999999432
 20
340.0000000000000568
 30
0.0
 10
473.9999999999999432
 20
340.0000000000000568
 30
0.0
 10
473.9999999999999432
 20
350.0000000000000568
 30
0.0
 10
470.9999999999999432
 20
350.0000000000000568
 30
0.0
 10
470.9999999999999432
 20
370.0000000000000568
 30
0.0
 10
473.9999999999999432
 20
370.0000000000000568
 30
0.0
 10
473.9999999999999432
 20
380.0000000000000568
 30
0.0
 10
470.9999999999999432
 20
380.0000000000000568
 30
0.0
 10
470.9999999999999432
 20
387.0000000000000568
 30
0.0
 10
478.9999999999999432
 20
387.0000000000000568
 30
0.0
 10
478.9999999999999432
 20
390.0000000000000568
 30
0.0
 10
483.9999999999999432
 20
390.0000000000000568
 30
0.0
 10
488.9999999999999432
 20
390.0000000000000568
 30
0.0
 10
488.9999999999999432
 20
387.0000000000000568
 30
0.0
 10
496.9999999999999432
 20
387.0000000000000568
 30
0.0
 10
496.9999999999999432
 20
380.0000000000000568
 30
0.0
 10
493.9999999999999432
 20
380.0000000000000568
 30
0.0
 10
493.9999999999999432
 20
370.0000000000000568
 30
0.0
 10
496.9999999999999432
 20
370.0000000000000568
 30
0.0
 10
496.9999999999999432
 20
350.0000000000000568
 30
0.0
  0
LWPOLYLINE
  5
279
  8
0
 62
256
370
-1
  6
BYLAYER
100
AcDbEntity
100
AcDbPolyline
 90
31
 70
0
 10
533.0
 20
310.0
 30
0.0
 10
536.0
 20
310.0
 30
0.0
 10
536.0
 20
317.0
 30
0.0
 10
528.0
 20
317.0
 30
0.0
 10
528.0
 20
320.0
 30
0.0
 10
523.0
 20
320.0
 30
0.0
 10
518.0
 20
320.0
 30
0.0
 10
518.0
 20
317.0
 30
0.0
 10
510.0
 20
317.0
 30
0.0
 10
510.0
 20
310.0
 30
0.0
 10
513.0
 20
310.0
 30
0.0
 10
513.0
 20
300.0
 30
0.0
 10
510.0
 20
300.0
 30
0.0
 10
510.0
 20
280.0
 30
0.0
 10
513.0
 20
280.0
 30
0.0
 10
513.0
 20
270.0
 30
0.0
 10
510.0
 20
270.0
 30
0.0
 10
510.0
 20
260.0
 30
0.0
 10
518.0
 20
260.0
 30
0.0
 10
518.0
 20
263.0
 30
0.0
 10
523.0
 20
263.0
 30
0.0
 10
528.0
 20
263.0
 30
0.0
 10
528.0
 20
260.0
 30
0.0
 10
536.0
 20
260.0
 30
0.0
 10
536.0
 20
270.0
 30
0.0
 10
533.0
 20
270.0
 30
0.0
 10
533.0
 20
280.0
 30
0.0
 10
536.0
 20
280.0
 30
0.0
 10
536.0
 20
300.0
 30
0.0
 10
533.0
 20
300.0
 30
0.0
 10
533.0
 20
310.0
 30
0.0
  0
LWPOLYLINE
  5
27A
  8
0
 62
256
370
-1
  6
BYLAYER
100
AcDbEntity
100
AcDbPolyline
 90
31
 70
0
 10
503.0
 20
300.0
 30
0.0
 10
506.0
 20
300.0
 30
0.0
 10
506.0
 20
310.0
 30
0.0
 10
503.0
 20
310.0
 30
0.0
 10
503.0
 20
317.0
 30
0.0
 10
498.0
 20
317.0
 30
0.0
 10
498.0
 20
320.0
 30
0.0
 10
493.0
 20
320.0
 30
0.0
 10
488.0
 20
320.0
 30
0.0
 10
488.0
 20
317.0
 30
0.0
 10
483.0
 20
317.0
 30
0.0
 10
483.0
 20
310.0
 30
0.0
 10
480.0
 20
310.0
 30
0.0
 10
480.0
 20
300.0
 30
0.0
 10
483.0
 20
300.0
 30
0.0
 10
483.0
 20
280.0
 30
0.0
 10
480.0
 20
280.0
 30
0.0
 10
480.0
 20
270.0
 30
0.0
 10
483.0
 20
270.0
 30
0.0
 10
483.0
 20
260.0
 30
0.0
 10
488.0
 20
260.0
 30
0.0
 10
488.0
 20
263.0
 30
0.0
 10
493.0
 20
263.0
 30
0.0
 10
498.0
 20
263.0
 30
0.0
 10
498.0
 20
260.0
 30
0.0
 10
503.0
 20
260.0
 30
0.0
 10
503.0
 20
270.0
 30
0.0
 10
506.0
 20
270.0
 30
0.0
 10
506.0
 20
280.0
 30
0.0
 10
503.0
 20
280.0
 30
0.0
 10
503.0
 20
300.0
 30
0.0
  0
LWPOLYLINE
  5
27B
  8
0
 62
256
370
-1
  6
BYLAYER
100
AcDbEntity
100
AcDbPolyline
 90
31
 70
0
 10
473.0
 20
300.0
 30
0.0
 10
476.0
 20
300.0
 30
0.0
 10
476.0
 20
310.0
 30
0.0
 10
473.0
 20
310.0
 30
0.0
 10
473.0
 20
317.0
 30
0.0
 10
468.0
 20
317.0
 30
0.0
 10
468.0
 20
320.0
 30
0.0
 10
463.0
 20
320.0
 30
0.0
 10
458.0
 20
320.0
 30
0.0
 10
458.0
 20
317.0
 30
0.0
 10
453.0
 20
317.0
 30
0.0
 10
453.0
 20
310.0
 30
0.0
 10
450.0
 20
310.0
 30
0.0
 10
450.0
 20
300.0
 30
0.0
 10
453.0
 20
300.0
 30
0.0
 10
453.0
 20
280.0
 30
0.0
 10
450.0
 20
280.0
 30
0.0
 10
450.0
 20
270.0
 30
0.0
 10
453.0
 20
270.0
 30
0.0
 10
453.0
 20
260.0
 30
0.0
 10
458.0
 20
260.0
 30
0.0
 10
458.0
 20
263.0
 30
0.0
 10
463.0
 20
263.0
 30
0.0
 10
468.0
 20
263.0
 30
0.0
 10
468.0
 20
260.0
 30
0.0
 10
473.0
 20
260.0
 30
0.0
 10
473.0
 20
270.0
 30
0.0
 10
476.0
 20
270.0
 30
0.0
 10
476.0
 20
280.0
 30
0.0
 10
473.0
 20
280.0
 30
0.0
 10
473.0
 20
300.0
 30
0.0
  0
LWPOLYLINE
  5
27C
  8
0
 62
256
370
-1
  6
BYLAYER
100
AcDbEntity
100
AcDbPolyline
 90
31
 70
0
 10
472.2000000000000455
 20
240.0
 30
0.0
 10
469.2000000000000455
 20
240.0
 30
0.0
 10
469.2000000000000455
 20
230.0
 30
0.0
 10
472.2000000000000455
 20
230.0
 30
0.0
 10
472.2000000000000455
 20
210.0
 30
0.0
 10
469.2000000000000455
 20
210.0
 30
0.0
 10
469.2000000000000455
 20
200.0
 30
0.0
 10
472.2000000000000455
 20
200.0
 30
0.0
 10
472.2000000000000455
 20
190.0
 30
0.0
 10
464.2000000000000455
 20
190.0
 30
0.0
 10
464.2000000000000455
 20
193.0
 30
0.0
 10
459.2000000000000455
 20
193.0
 30
0.0
 10
454.2000000000000455
 20
193.0
 30
0.0
 10
454.2000000000000455
 20
190.0
 30
0.0
 10
446.2000000000000455
 20
190.0
 30
0.0
 10
446.2000000000000455
 20
200.0
 30
0.0
 10
449.2000000000000455
 20
200.0
 30
0.0
 10
449.2000000000000455
 20
210.0
 30
0.0
 10
446.2000000000000455
 20
210.0
 30
0.0
 10
446.2000000000000455
 20
230.0
 30
0.0
 10
449.2000000000000455
 20
230.0
 30
0.0
 10
449.2000000000000455
 20
240.0
 30
0.0
 10
446.2000000000000455
 20
240.0
 30
0.0
 10
446.2000000000000455
 20
247.0
 30
0.0
 10
454.2000000000000455
 20
247.0
 30
0.0
 10
454.2000000000000455
 20
250.0
 30
0.0
 10
459.2000000000000455
 20
250.0
 30
0.0
 10
464.2000000000000455
 20
250.0
 30
0.0
 10
464.2000000000000455
 20
247.0
 30
0.0
 10
472.2000000000000455
 20
247.0
 30
0.0
 10
472.2000000000000455
 20
240.0
 30
0.0
  0
LWPOLYLINE
  5
27D
  8
0
 62
256
370
-1
  6
BYLAYER
100
AcDbEntity
100
AcDbPolyline
 90
26
 70
0
 10
449.9999999999998863
 20
179.9999999999999432
 30
0.0
 10
449.9999999999998863
 20
174.9999999999999432
 30
0.0
 10
446.9999999999998863
 20
174.9999999999999432
 30
0.0
 10
446.9999999999998863
 20
164.9999999999999432
 30
0.0
 10
449.9999999999998863
 20
164.9999999999999432
 30
0.0
 10
449.9999999999998863
 20
159.9999999999999432
 30
0.0
 10
454.9999999999998863
 20
159.9999999999999432
 30
0.0
 10
456.9999999999997726
 20
159.9999999999999432
 30
0.0
 10
456.9999999999997726
 20
169.9999999999999432
 30
0.0
 42
-0.9999999999999999
 10
462.9999999999997726
 20
169.9999999999999432
 30
0.0
 10
462.9999999999997726
 20
159.9999999999999432
 30
0.0
 10
464.9999999999998863
 20
159.9999999999999432
 30
0.0
 10
469.9999999999998863
 20
159.9999999999999432
 30
0.0
 10
469.9999999999998863
 20
164.9999999999999432
 30
0.0
 10
469.9999999999998863
 20
164.9999999999999432
 30
0.0
 10
469.9999999999998863
 20
164.9999999999999432
 30
0.0
 10
469.9999999999998863
 20
164.9999999999999432
 30
0.0
 10
472.9999999999998863
 20
164.9999999999999432
 30
0.0
 10
472.9999999999998863
 20
174.9999999999999432
 30
0.0
 10
469.9999999999998863
 20
174.9999999999999432
 30
0.0
 10
469.9999999999998863
 20
179.9999999999999432
 30
0.0
 10
464.9999999999998863
 20
179.9999999999999432
 30
0.0
 10
464.9999999999998863
 20
182.9999999999999432
 30
0.0
 10
454.9999999999998863
 20
182.9999999999999432
 30
0.0
 10
454.9999999999998863
 20
179.9999999999999432
 30
0.0
 10
449.9999999999998863
 20
179.9999999999999432
 30
0.0
  0
LWPOLYLINE
  5
27E
  8
0
 62
256
370
-1
  6
BYLAYER
100
AcDbEntity
100
AcDbPolyline
 90
23
 70
0
 10
464.9999999999998863
 20
149.9999999999999432
 30
0.0
 10
464.9999999999998863
 20
152.9999999999999432
 30
0.0
 10
454.9999999999998863
 20
152.9999999999999432
 30
0.0
 10
454.9999999999998863
 20
149.9999999999999432
 30
0.0
 10
449.9999999999998863
 20
149.9999999999999432
 30
0.0
 10
449.9999999999998863
 20
144.9999999999999432
 30
0.0
 10
446.9999999999998863
 20
144.9999999999999432
 30
0.0
 10
446.9999999999998863
 20
134.9999999999999432
 30
0.0
 10
449.9999999999998863
 20
134.9999999999999432
 30
0.0
 10
449.9999999999998863
 20
129.9999999999999432
 30
0.0
 10
454.9999999999998863
 20
129.9999999999999432
 30
0.0
 10
456.9999999999997726
 20
129.9999999999999432
 30
0.0
 10
456.9999999999997726
 20
139.9999999999999432
 30
0.0
 42
-0.9999999999999999
 10
462.9999999999997726
 20
139.9999999999999432
 30
0.0
 10
462.9999999999997726
 20
129.9999999999999432
 30
0.0
 10
464.9999999999998863
 20
129.9999999999999432
 30
0.0
 10
469.9999999999998863
 20
129.9999999999999432
 30
0.0
 10
469.9999999999998863
 20
134.9999999999999432
 30
0.0
 10
472.9999999999998863
 20
134.9999999999999432
 30
0.0
 10
472.9999999999998863
 20
144.9999999999999432
 30
0.0
 10
469.9999999999998863
 20
144.9999999999999432
 30
0.0
 10
469.9999999999998863
 20
149.9999999999999432
 30
0.0
 10
464.9999999999998863
 20
149.9999999999999432
 30
0.0
  0
LWPOLYLINE
  5
27F
  8
0
 62
256
370
-1
  6
BYLAYER
100
AcDbEntity
100
AcDbPolyline
 90
27
 70
0
 10
472.9999999999998863
 20
107.9999999999999432
 30
0.0
 10
469.9999999999998863
 20
107.9999999999999432
 30
0.0
 10
469.9999999999998863
 20
107.9999999999999432
 30
0.0
 10
469.9999999999998863
 20
107.9999999999999432
 30
0.0
 10
469.9999999999998863
 20
107.9999999999999432
 30
0.0
 10
469.9999999999998863
 20
107.9999999999999432
 30
0.0
 10
469.9999999999998863
 20
102.9999999999999432
 30
0.0
 10
464.9999999999998863
 20
102.9999999999999432
 30
0.0
 10
462.9999999999997726
 20
102.9999999999999432
 30
0.0
 10
462.9999999999997726
 20
112.9999999999999432
 30
0.0
 42
0.9999999999999999
 10
456.9999999999997726
 20
112.9999999999999432
 30
0.0
 10
456.9999999999997726
 20
102.9999999999999432
 30
0.0
 10
454.9999999999998863
 20
102.9999999999999432
 30
0.0
 10
449.9999999999998863
 20
102.9999999999999432
 30
0.0
 10
449.9999999999998863
 20
107.9999999999999432
 30
0.0
 10
446.9999999999998863
 20
107.9999999999999432
 30
0.0
 10
446.9999999999998863
 20
117.9999999999999432
 30
0.0
 10
449.9999999999998863
 20
117.9999999999999432
 30
0.0
 10
449.9999999999998863
 20
122.9999999999999432
 30
0.0
 10
454.9999999999998863
 20
122.9999999999999432
 30
0.0
 10
454.9999999999998863
 20
125.9999999999999432
 30
0.0
 10
464.9999999999998863
 20
125.9999999999999432
 30
0.0
 10
464.9999999999998863
 20
122.9999999999999432
 30
0.0
 10
469.9999999999998863
 20
122.9999999999999432
 30
0.0
 10
469.9999999999998863
 20
117.9999999999999432
 30
0.0
 10
472.9999999999998863
 20
117.9999999999999432
 30
0.0
 10
472.9999999999998863
 20
107.9999999999999432
 30
0.0
  0
CIRCLE
  5
280
100
AcDbEntity
100
AcDbCircle
  8
0
 62
256
370
-1
  6
BYLAYER
 10
510.0
 20
112.6746824526945119
 30
0.0
 40
1.5
  0
CIRCLE
  5
281
100
AcDbEntity
100
AcDbCircle
  8
0
 62
256
370
-1
  6
BYLAYER
 10
490.9474411167423682
 20
145.6746824526944977
 30
0.0
 40
1.5
  0
CIRCLE
  5
282
100
AcDbEntity
100
AcDbCircle
  8
0
 62
256
370
-1
  6
BYLAYER
 10
510.0
 20
156.6746824526945261
 30
0.0
 40
1.5
  0
CIRCLE
  5
283
100
AcDbEntity
100
AcDbCircle
  8
0
 62
256
370
-1
  6
BYLAYER
 10
529.0525588832576886
 20
123.6746824526944977
 30
0.0
 40
1.5
  0
CIRCLE
  5
284
100
AcDbEntity
100
AcDbCircle
  8
0
 62
256
370
-1
  6
BYLAYER
 10
490.9474411167423682
 20
123.6746824526945261
 30
0.0
 40
1.5
  0
CIRCLE
  5
285
100
AcDbEntity
100
AcDbCircle
  8
0
 62
256
370
-1
  6
BYLAYER
 10
510.0
 20
134.6746824526945261
 30
0.0
 40
15.0
  0
CIRCLE
  5
286
100
AcDbEntity
100
AcDbCircle
  8
0
 62
256
370
-1
  6
BYLAYER
 10
529.0525588832576886
 20
145.6746824526944977
 30
0.0
 40
1.5
  0
CIRCLE
  5
287
100
AcDbEntity
100
AcDbCircle
  8
0
 62
256
370
-1
  6
BYLAYER
 10
510.0
 20
182.6746824526945261
 30
0.0
 40
1.5
  0
CIRCLE
  5
288
100
AcDbEntity
100
AcDbCircle
  8
0
 62
256
370
-1
  6
BYLAYER
 10
490.9474411167423682
 20
215.6746824526944977
 30
0.0
 40
1.5
  0
CIRCLE
  5
289
100
AcDbEntity
100
AcDbCircle
  8
0
 62
256
370
-1
  6
BYLAYER
 10
510.0
 20
226.6746824526945261
 30
0.0
 40
1.5
  0
CIRCLE
  5
28A
100
AcDbEntity
100
AcDbCircle
  8
0
 62
256
370
-1
  6
BYLAYER
 10
529.0525588832576886
 20
193.6746824526944977
 30
0.0
 40
1.5
  0
CIRCLE
  5
28B
100
AcDbEntity
100
AcDbCircle
  8
0
 62
256
370
-1
  6
BYLAYER
 10
490.9474411167423682
 20
193.6746824526945261
 30
0.0
 40
1.5
  0
CIRCLE
  5
28C
100
AcDbEntity
100
AcDbCircle
  8
0
 62
256
370
-1
  6
BYLAYER
 10
510.0
 20
204.6746824526945261
 30
0.0
 40
15.0
  0
CIRCLE
  5
28D
100
AcDbEntity
100
AcDbCircle
  8
0
 62
256
370
-1
  6
BYLAYER
 10
529.0525588832576886
 20
215.6746824526944977
 30
0.0
 40
1.5
  0
LWPOLYLINE
  5
28E
  8
0
 62
256
370
-1
  6
BYLAYER
100
AcDbEntity
100
AcDbPolyline
 90
25
 70
0
 10
520.5190621431967202
 20
167.4551323727035026
 30
0.0
 42
0.7678370971011043
 10
520.0525559983177573
 20
167.3298113843436283
 30
0.0
 42
-1.7346215740358719
 10
514.8064521027632736
 20
170.3586508806388053
 30
0.0
 42
0.7678370971011073
 10
514.681730189870791
 20
170.8253175473054739
 30
0.0
 10
505.3182698101293227
 20
170.8253175473054739
 30
0.0
 42
0.7678370971011073
 10
505.1935478972368969
 20
170.3586508806388053
 30
0.0
 42
-1.7346215740358701
 10
499.9474440016823564
 20
167.3298113843436283
 30
0.0
 42
0.7678370971010703
 10
499.4809378568033367
 20
167.4551323727034742
 30
0.0
 10
476.3517665501902911
 20
127.3942325326855212
 30
0.0
 42
0.7678370971010968
 10
476.6935507821768283
 20
127.0528868543786984
 30
0.0
 42
-1.734621574035863
 10
476.6935507821768851
 20
120.9952078617883444
 30
0.0
 42
0.7678370971011073
 10
476.351766550190348
 20
120.6538621834815501
 30
0.0
 10
481.0334967400609685
 20
112.544867627296469
 30
0.0
 42
0.7678370971010703
 10
481.5000028849399314
 20
112.6701886156563575
 30
0.0
 42
-1.7346215740358684
 10
486.7461067804945287
 20
109.6413491193611804
 30
0.0
 42
0.7678370971011086
 10
486.8708286933870113
 20
109.1746824526945119
 30
0.0
 10
533.1291713066131024
 20
109.1746824526945119
 30
0.0
 42
0.7678370971011055
 10
533.2538932195054713
 20
109.6413491193611804
 30
0.0
 42
-1.7346215740358719
 10
538.4999971150600686
 20
112.6701886156563575
 30
0.0
 42
0.7678370971011051
 10
538.9665032599390315
 20
112.5448676272964832
 30
0.0
 10
543.6482334498097089
 20
120.6538621834815217
 30
0.0
 42
0.7678370971011047
 10
543.3064492178232285
 20
120.9952078617883302
 30
0.0
 42
-1.7346215740358559
 10
543.3064492178232285
 20
127.0528868543786984
 30
0.0
 42
0.7678370971011083
 10
543.6482334498097089
 20
127.3942325326854927
 30
0.0
 10
520.5190621431967202
 20
167.4551323727035026
 30
0.0
  0
CIRCLE
  5
28F
100
AcDbEntity
100
AcDbCircle
  8
0
 62
256
370
-1
  6
BYLAYER
 10
580.0
 20
152.0
 30
0.0
 40
1.5
  0
CIRCLE
  5
290
100
AcDbEntity
100
AcDbCircle
  8
0
 62
256
370
-1
  6
BYLAYER
 10
580.0
 20
108.0
 30
0.0
 40
1.5
  0
CIRCLE
  5
291
100
AcDbEntity
100
AcDbCircle
  8
0
 62
256
370
-1
  6
BYLAYER
 10
599.052558883257575
 20
118.9999999999999716
 30
0.0
 40
1.5
  0
CIRCLE
  5
292
100
AcDbEntity
100
AcDbCircle
  8
0
 62
256
370
-1
  6
BYLAYER
 10
560.9474411167423114
 20
141.0
 30
0.0
 40
1.5
  0
CIRCLE
  5
293
100
AcDbEntity
100
AcDbCircle
  8
0
 62
256
370
-1
  6
BYLAYER
 10
560.9474411167423114
 20
119.0000000000000568
 30
0.0
 40
1.5
  0
CIRCLE
  5
294
100
AcDbEntity
100
AcDbCircle
  8
0
 62
256
370
-1
  6
BYLAYER
 10
599.0525588832576886
 20
140.9999999999999716
 30
0.0
 40
1.5
  0
CIRCLE
  5
295
100
AcDbEntity
100
AcDbCircle
  8
0
 62
256
370
-1
  6
BYLAYER
 10
580.0
 20
130.0
 30
0.0
 40
25.5
  0
CIRCLE
  5
296
100
AcDbEntity
100
AcDbCircle
  8
0
 62
256
370
-1
  6
BYLAYER
 10
580.0
 20
130.0
 30
0.0
 40
5.0
  0
CIRCLE
  5
297
100
AcDbEntity
100
AcDbCircle
  8
0
 62
256
370
-1
  6
BYLAYER
 10
580.0
 20
212.0
 30
0.0
 40
1.5
  0
CIRCLE
  5
298
100
AcDbEntity
100
AcDbCircle
  8
0
 62
256
370
-1
  6
BYLAYER
 10
580.0
 20
168.0
 30
0.0
 40
1.5
  0
CIRCLE
  5
299
100
AcDbEntity
100
AcDbCircle
  8
0
 62
256
370
-1
  6
BYLAYER
 10
599.052558883257575
 20
178.9999999999999716
 30
0.0
 40
1.5
  0
CIRCLE
  5
29A
100
AcDbEntity
100
AcDbCircle
  8
0
 62
256
370
-1
  6
BYLAYER
 10
560.9474411167423114
 20
201.0
 30
0.0
 40
1.5
  0
CIRCLE
  5
29B
100
AcDbEntity
100
AcDbCircle
  8
0
 62
256
370
-1
  6
BYLAYER
 10
560.9474411167423114
 20
179.0000000000000568
 30
0.0
 40
1.5
  0
CIRCLE
  5
29C
100
AcDbEntity
100
AcDbCircle
  8
0
 62
256
370
-1
  6
BYLAYER
 10
599.0525588832576886
 20
200.9999999999999716
 30
0.0
 40
1.5
  0
CIRCLE
  5
29D
100
AcDbEntity
100
AcDbCircle
  8
0
 62
256
370
-1
  6
BYLAYER
 10
580.0
 20
190.0
 30
0.0
 40
25.5
  0
CIRCLE
  5
29E
100
AcDbEntity
100
AcDbCircle
  8
0
 62
256
370
-1
  6
BYLAYER
 10
580.0
 20
190.0
 30
0.0
 40
5.0
  0
DIMENSION
  5
29F
100
AcDbEntity
  8
dimensions
 62
256
370
-1
  6
BYLAYER
100
AcDbDimension
 10
384.0437918367463794
 20
152.0
 30
0.0
 11
382.1687918367463794
 21
141.0
 31
0.0
 70
1
 71
8
 72
2
 41
1.0
 42
0.0
  1

  3
Standard
100
AcDbAlignedDimension
 13
400.0
 23
152.0
 33
0.0
 14
400.0
 24
130.0
 34
0.0
1001
ACAD
1000
DSTYLE
1002
{
1070
144
1040
1
1002
}
  0
ARC
  5
2A0
100
AcDbEntity
  8
0
 62
256
370
-1
  6
BYLAYER
100
AcDbCircle
 10
520.3025557922507005
 20
237.3301323727035026
 30
0.0
 40
0.2499999999999972
100
AcDbArc
 50
30.0000000000103135
 51
180.0735651333806118
  0
ARC
  5
2A1
100
AcDbEntity
  8
0
 62
256
370
-1
  6
BYLAYER
100
AcDbCircle
 10
516.5525588832578023
 20
237.3253175473055023
 30
0.0
 40
3.4999999999999654
100
AcDbArc
 50
119.9264348666148123
 51
0.0735651333855516
  0
ARC
  5
2A2
100
AcDbEntity
  8
0
 62
256
370
-1
  6
BYLAYER
100
AcDbCircle
 10
514.681730189870791
 20
240.5753175473054455
 30
0.0
 40
0.2500000000000033
100
AcDbArc
 50
299.9264348666208093
 51
90.0
  0
LINE
  5
2A3
100
AcDbEntity
100
AcDbLine
  8
0
 62
256
370
-1
  6
BYLAYER
 10
514.681730189870791
 20
240.8253175473054739
 30
0.0
 11
505.3182698101293227
 21
240.8253175473054739
 31
0.0
  0
ARC
  5
2A4
100
AcDbEntity
  8
0
 62
256
370
-1
  6
BYLAYER
100
AcDbCircle
 10
505.3182698101293227
 20
240.5753175473054739
 30
0.0
 40
0.2499999999999957
100
AcDbArc
 50
90.0
 51
240.0735651333937142
  0
ARC
  5
2A5
100
AcDbEntity
  8
0
 62
256
370
-1
  6
BYLAYER
100
AcDbCircle
 10
503.447441116742425
 20
237.3253175473054739
 30
0.0
 40
3.499999999999992
100
AcDbArc
 50
179.9264348666144429
 51
60.0735651333862251
  0
ARC
  5
2A6
100
AcDbEntity
  8
0
 62
256
370
-1
  6
BYLAYER
100
AcDbCircle
 10
499.69744420774947
 20
237.3301323727034742
 30
0.0
 40
0.2500000000000246
100
AcDbArc
 50
359.9264348666194451
 51
150.0000000000027285
  0
LINE
  5
2A7
100
AcDbEntity
100
AcDbLine
  8
0
 62
256
370
-1
  6
BYLAYER
 10
499.4809378568033367
 20
237.4551323727034742
 30
0.0
 11
476.3517665501902911
 21
197.3942325326855212
 31
0.0
  0
ARC
  5
2A8
100
AcDbEntity
  8
0
 62
256
370
-1
  6
BYLAYER
100
AcDbCircle
 10
476.5682729011364245
 20
197.2692325326855212
 30
0.0
 40
0.2500000000000216
100
AcDbArc
 50
150.0000000000027285
 51
300.0735651333844203
  0
ARC
  5
2A9
100
AcDbEntity
  8
0
 62
256
370
-1
  6
BYLAYER
100
AcDbCircle
 10
478.447441116742425
 20
194.0240473580835499
 30
0.0
 40
3.5000000000000009
100
AcDbArc
 50
239.9264348666146134
 51
120.0735651333866372
  0
ARC
  5
2AA
100
AcDbEntity
  8
0
 62
256
370
-1
  6
BYLAYER
100
AcDbCircle
 10
476.5682729011364245
 20
190.7788621834815501
 30
0.0
 40
0.2500000000000103
100
AcDbArc
 50
59.926434866601042
 51
210.0000000000037801
  0
LINE
  5
2AB
100
AcDbEntity
100
AcDbLine
  8
0
 62
256
370
-1
  6
BYLAYER
 10
476.351766550190348
 20
190.6538621834815501
 30
0.0
 11
481.0334967400609685
 21
182.544867627296469
 31
0.0
  0
ARC
  5
2AC
100
AcDbEntity
  8
0
 62
256
370
-1
  6
BYLAYER
100
AcDbCircle
 10
481.250003091007045
 20
182.6698676272964974
 30
0.0
 40
0.2500000000000038
100
AcDbArc
 50
210.000000000009436
 51
0.0735651333805973
  0
ARC
  5
2AD
100
AcDbEntity
  8
0
 62
256
370
-1
  6
BYLAYER
100
AcDbCircle
 10
485.0
 20
182.6746824526945261
 30
0.0
 40
3.5000000000000182
100
AcDbArc
 50
299.9264348666145565
 51
180.0735651333855287
  0
ARC
  5
2AE
100
AcDbEntity
  8
0
 62
256
370
-1
  6
BYLAYER
100
AcDbCircle
 10
486.8708286933870113
 20
179.4246824526945545
 30
0.0
 40
0.2500000000000032
100
AcDbArc
 50
119.9264348666208377
 51
270.0
  0
LINE
  5
2AF
100
AcDbEntity
100
AcDbLine
  8
0
 62
256
370
-1
  6
BYLAYER
 10
486.8708286933870113
 20
179.1746824526945261
 30
0.0
 11
533.1291713066131024
 21
179.1746824526945261
 31
0.0
  0
ARC
  5
2B0
100
AcDbEntity
  8
0
 62
256
370
-1
  6
BYLAYER
100
AcDbCircle
 10
533.1291713066131024
 20
179.4246824526945261
 30
0.0
 40
0.2499999999999883
100
AcDbArc
 50
270.0
 51
60.0735651334050047
  0
ARC
  5
2B1
100
AcDbEntity
  8
0
 62
256
370
-1
  6
BYLAYER
100
AcDbCircle
 10
535.0
 20
182.6746824526945545
 30
0.0
 40
3.5000000000000218
100
AcDbArc
 50
359.9264348666144429
 51
240.0735651333856424
  0
ARC
  5
2B2
100
AcDbEntity
  8
0
 62
256
370
-1
  6
BYLAYER
100
AcDbCircle
 10
538.7499969089930119
 20
182.6698676272964974
 30
0.0
 40
0.2499999999999971
100
AcDbArc
 50
179.9264348666193882
 51
329.9999999999897113
  0
LINE
  5
2B3
100
AcDbEntity
100
AcDbLine
  8
0
 62
256
370
-1
  6
BYLAYER
 10
538.9665032599390315
 20
182.5448676272964974
 30
0.0
 11
543.6482334498097089
 21
190.6538621834815217
 31
0.0
  0
ARC
  5
2B4
100
AcDbEntity
  8
0
 62
256
370
-1
  6
BYLAYER
100
AcDbCircle
 10
543.4317270988635755
 20
190.7788621834815217
 30
0.0
 40
0.2499999999999896
100
AcDbArc
 50
330.0000000000027285
 51
120.0735651333764338
  0
ARC
  5
2B5
100
AcDbEntity
  8
0
 62
256
370
-1
  6
BYLAYER
100
AcDbCircle
 10
541.5525588832576886
 20
194.0240473580835214
 30
0.0
 40
3.5000000000000102
100
AcDbArc
 50
59.9264348666143931
 51
300.0735651333853866
  0
ARC
  5
2B6
100
AcDbEntity
  8
0
 62
256
370
-1
  6
BYLAYER
100
AcDbCircle
 10
543.4317270988635755
 20
197.2692325326854643
 30
0.0
 40
0.2499999999999894
100
AcDbArc
 50
239.9264348666203261
 51
30.0000000000029168
  0
LINE
  5
2B7
100
AcDbEntity
100
AcDbLine
  8
0
 62
256
370
-1
  6
BYLAYER
 10
543.6482334498097089
 20
197.3942325326854927
 30
0.0
 11
520.5190621431967202
 21
237.4551323727035026
 31
0.0
  0
LINE
  5
2B8
100
AcDbEntity
100
AcDbLine
  8
guides
 62
256
370
-1
  6
BYLAYER
 10
516.5525588832578023
 20
237.3253175473055023
 30
0.0
 11
503.447441116742425
 21
237.3253175473054739
 31
0.0
  0
LINE
  5
2B9
100
AcDbEntity
100
AcDbLine
  8
guides
 62
256
370
-1
  6
BYLAYER
 10
503.447441116742425
 20
237.3253175473054739
 30
0.0
 11
478.447441116742425
 21
194.0240473580835499
 31
0.0
  0
LINE
  5
2BA
100
AcDbEntity
100
AcDbLine
  8
guides
 62
256
370
-1
  6
BYLAYER
 10
478.447441116742425
 20
194.0240473580835499
 30
0.0
 11
485.0
 21
182.6746824526945261
 31
0.0
  0
LINE
  5
2BB
100
AcDbEntity
100
AcDbLine
  8
guides
 62
256
370
-1
  6
BYLAYER
 10
485.0
 20
182.6746824526945261
 30
0.0
 11
535.0
 21
182.6746824526945545
 31
0.0
  0
LINE
  5
2BC
100
AcDbEntity
100
AcDbLine
  8
guides
 62
256
370
-1
  6
BYLAYER
 10
535.0
 20
182.6746824526945545
 30
0.0
 11
541.5525588832576886
 21
194.0240473580835214
 31
0.0
  0
LINE
  5
2BD
100
AcDbEntity
100
AcDbLine
  8
guides
 62
256
370
-1
  6
BYLAYER
 10
541.5525588832576886
 20
194.0240473580835214
 30
0.0
 11
516.5525588832578023
 21
237.3253175473055023
 31
0.0
  0
DIMENSION
  5
2BE
100
AcDbEntity
  8
dimensions
 62
256
370
-1
  6
BYLAYER
100
AcDbDimension
 10
516.5525588832576886
 20
244.0000000000000284
 30
0.0
 11
519.122003327702032
 21
245.875
 31
0.0
 70
1
 71
8
 72
2
 41
1.0
 42
0.0
  1

  3
Standard
100
AcDbAlignedDimension
 13
516.5525588832576886
 23
237.3253175473055308
 33
0.0
 14
513.0525588832578023
 24
237.3253175473055023
 34
0.0
1001
ACAD
1000
DSTYLE
1002
{
1070
144
1040
1
1002
}
  0
DIMENSION
  5
2BF
100
AcDbEntity
  8
dimensions
 62
256
370
-1
  6
BYLAYER
100
AcDbDimension
 10
537.0
 20
237.3253175473059002
 30
0.0
 11
535.125
 21
243.3947619917503573
 31
0.0
 70
1
 71
8
 72
2
 41
1.0
 42
0.0
  1

  3
Standard
100
AcDbAlignedDimension
 13
510.0000000000001137
 23
237.3253175473054739
 33
0.0
 14
510.0000000000000568
 24
240.8253175473054739
 34
0.0
1001
ACAD
1000
DSTYLE
1002
{
1070
144
1040
1
1002
}
  0
ENDSEC
  0
SECTION
  2
OBJECTS
  0
DICTIONARY
  5
C
100
AcDbDictionary
280
0
281
1
  3
ACAD_GROUP
350
D
  3
ACAD_LAYOUT
350
1A
  3
ACAD_MLINESTYLE
350
17
  3
ACAD_PLOTSETTINGS
350
19
  3
ACAD_PLOTSTYLENAME
350
E
  3
AcDbVariableDictionary
350
2C0
  3
QCAD_OBJECTS
350
2C1
  0
DICTIONARY
  5
D
100
AcDbDictionary
280
0
281
1
  0
ACDBDICTIONARYWDFLT
  5
E
100
AcDbDictionary
281
1
  3
Normal
350
F
100
AcDbDictionaryWithDefault
340
F
  0
ACDBPLACEHOLDER
  5
F
  0
DICTIONARY
  5
17
100
AcDbDictionary
280
0
281
1
  3
Standard
350
18
  0
MLINESTYLE
  5
18
100
AcDbMlineStyle
  2
STANDARD
 70
0
  3

 62
256
 51
90.0
 52
90.0
 71
2
 49
0.5
 62
256
  6
BYLAYER
 49
-0.5
 62
256
  6
BYLAYER
  0
DICTIONARY
  5
19
100
AcDbDictionary
280
0
281
1
  0
DICTIONARY
  5
1A
100
AcDbDictionary
281
1
  3
Layout1
350
1E
  3
Layout2
350
26
  3
Model
350
22
  0
LAYOUT
  5
1E
100
AcDbPlotSettings
  1

  2
none_device
  4

  6

 40
0.0
 41
0.0
 42
0.0
 43
0.0
 44
0.0
 45
0.0
 46
0.0
 47
0.0
 48
0.0
 49
0.0
140
0.0
141
0.0
142
1.0
143
1.0
 70
688
 72
0
 73
0
 74
5
  7

 75
16
147
1.0
148
0.0
149
0.0
100
AcDbLayout
  1
Layout1
 70
1
 71
1
 10
0.0
 20
0.0
 11
420.0
 21
297.0
 12
0.0
 22
0.0
 32
0.0
 14
100000000000000000000.0
 24
100000000000000000000.0
 34
100000000000000000000.0
 15
-100000000000000000000.0
 25
-100000000000000000000.0
 35
-100000000000000000000.0
146
0.0
 13
0.0
 23
0.0
 33
0.0
 16
1.0
 26
0.0
 36
0.0
 17
0.0
 27
1.0
 37
0.0
 76
0
330
1B
  0
LAYOUT
  5
22
100
AcDbPlotSettings
  1

  2
none_device
  4

  6

 40
0.0
 41
0.0
 42
0.0
 43
0.0
 44
0.0
 45
0.0
 46
0.0
 47
0.0
 48
0.0
 49
0.0
140
0.0
141
0.0
142
1.0
143
1.0
 70
1712
 72
0
 73
0
 74
0
  7

 75
0
147
1.0
148
0.0
149
0.0
100
AcDbLayout
  1
Model
 70
1
 71
0
 10
0.0
 20
0.0
 11
12.0
 21
9.0
 12
0.0
 22
0.0
 32
0.0
 14
0.0
 24
0.0
 34
0.0
 15
0.0
 25
0.0
 35
0.0
146
0.0
 13
0.0
 23
0.0
 33
0.0
 16
1.0
 26
0.0
 36
0.0
 17
0.0
 27
1.0
 37
0.0
 76
0
330
1F
  0
LAYOUT
  5
26
100
AcDbPlotSettings
  1

  2
none_device
  4

  6

 40
0.0
 41
0.0
 42
0.0
 43
0.0
 44
0.0
 45
0.0
 46
0.0
 47
0.0
 48
0.0
 49
0.0
140
0.0
141
0.0
142
1.0
143
1.0
 70
688
 72
0
 73
0
 74
5
  7

 75
16
147
1.0
148
0.0
149
0.0
100
AcDbLayout
  1
Layout2
 70
1
 71
2
 10
0.0
 20
0.0
 11
12.0
 21
9.0
 12
0.0
 22
0.0
 32
0.0
 14
0.0
 24
0.0
 34
0.0
 15
0.0
 25
0.0
 35
0.0
146
0.0
 13
0.0
 23
0.0
 33
0.0
 16
1.0
 26
0.0
 36
0.0
 17
0.0
 27
1.0
 37
0.0
 76
0
330
23
  0
DICTIONARY
  5
2C0
100
AcDbDictionary
281
1
  3
DIMASSOC
350
2C3
  3
HIDETEXT
350
2C2
  0
DICTIONARYVAR
  5
2C2
100
DictionaryVariables
280
0
  1
2
  0
DICTIONARYVAR
  5
2C3
100
DictionaryVariables
280
0
  1
1
  0
DICTIONARY
  5
2C1
100
AcDbDictionary
281
1
  3
Grid/DisplayGrid00
350
2C4
  3
Grid/DisplayGrid01
350
2C5
  3
Grid/DisplayGrid02
350
2C6
  3
Grid/DisplayGrid03
350
2C7
  3
Grid/GridSpacingX00
350
2C8
  3
Grid/GridSpacingX01
350
2C9
  3
Grid/GridSpacingX02
350
2CA
  3
Grid/GridSpacingX03
350
2CB
  3
Grid/GridSpacingY00
350
2CC
  3
Grid/GridSpacingY01
350
2CD
  3
Grid/GridSpacingY02
350
2CE
  3
Grid/GridSpacingY03
350
2CF
  3
Grid/IsometricGrid00
350
2D0
  3
Grid/IsometricGrid01
350
2D1
  3
Grid/IsometricGrid02
350
2D2
  3
Grid/IsometricGrid03
350
2D3
  3
Grid/IsometricProjection00
350
2D4
  3
Grid/IsometricProjection01
350
2D5
  3
Grid/IsometricProjection02
350
2D6
  3
Grid/IsometricProjection03
350
2D7
  3
Grid/MetaGridSpacingX00
350
2D8
  3
Grid/MetaGridSpacingX01
350
2D9
  3
Grid/MetaGridSpacingX02
350
2DA
  3
Grid/MetaGridSpacingX03
350
2DB
  3
Grid/MetaGridSpacingY00
350
2DC
  3
Grid/MetaGridSpacingY01
350
2DD
  3
Grid/MetaGridSpacingY02
350
2DE
  3
Grid/MetaGridSpacingY03
350
2DF
  3
MultiPageSettings/Columns
350
2E0
  3
MultiPageSettings/GlueMarginsBottom
350
2E1
  3
MultiPageSettings/GlueMarginsLeft
350
2E2
  3
MultiPageSettings/GlueMarginsRight
350
2E3
  3
MultiPageSettings/GlueMarginsTop
350
2E4
  3
MultiPageSettings/PrintCropMarks
350
2E5
  3
MultiPageSettings/Rows
350
2E6
  3
PageSettings/OffsetX
350
2E7
  3
PageSettings/OffsetY
350
2E8
  3
PageSettings/PageOrientation
350
2E9
  3
PageSettings/PaperHeight
350
2EA
  3
PageSettings/PaperWidth
350
2EB
  3
PageSettings/Scale
350
2EC
  3
PageSettings/ShowPaperBorders
350
2ED
  3
UnitSettings/PaperUnit
350
2EE
  0
XRECORD
  5
2C4
330
2C1
100
AcDbXrecord
280
1
290
1
  0
XRECORD
  5
2C5
330
2C1
100
AcDbXrecord
280
1
290
1
  0
XRECORD
  5
2C6
330
2C1
100
AcDbXrecord
280
1
290
1
  0
XRECORD
  5
2C7
330
2C1
100
AcDbXrecord
280
1
290
1
  0
XRECORD
  5
2C8
330
2C1
100
AcDbXrecord
280
1
1000
auto
  0
XRECORD
  5
2C9
330
2C1
100
AcDbXrecord
280
1
1000
auto
  0
XRECORD
  5
2CA
330
2C1
100
AcDbXrecord
280
1
1000
auto
  0
XRECORD
  5
2CB
330
2C1
100
AcDbXrecord
280
1
1000
auto
  0
XRECORD
  5
2CC
330
2C1
100
AcDbXrecord
280
1
1000
auto
  0
XRECORD
  5
2CD
330
2C1
100
AcDbXrecord
280
1
1000
auto
  0
XRECORD
  5
2CE
330
2C1
100
AcDbXrecord
280
1
1000
auto
  0
XRECORD
  5
2CF
330
2C1
100
AcDbXrecord
280
1
1000
auto
  0
XRECORD
  5
2D0
330
2C1
100
AcDbXrecord
280
1
290
0
  0
XRECORD
  5
2D1
330
2C1
100
AcDbXrecord
280
1
290
0
  0
XRECORD
  5
2D2
330
2C1
100
AcDbXrecord
280
1
290
0
  0
XRECORD
  5
2D3
330
2C1
100
AcDbXrecord
280
1
290
0
  0
XRECORD
  5
2D4
330
2C1
100
AcDbXrecord
280
1
 90
0
  0
XRECORD
  5
2D5
330
2C1
100
AcDbXrecord
280
1
 90
0
  0
XRECORD
  5
2D6
330
2C1
100
AcDbXrecord
280
1
 90
0
  0
XRECORD
  5
2D7
330
2C1
100
AcDbXrecord
280
1
 90
0
  0
XRECORD
  5
2D8
330
2C1
100
AcDbXrecord
280
1
1000
auto
  0
XRECORD
  5
2D9
330
2C1
100
AcDbXrecord
280
1
1000
auto
  0
XRECORD
  5
2DA
330
2C1
100
AcDbXrecord
280
1
1000
auto
  0
XRECORD
  5
2DB
330
2C1
100
AcDbXrecord
280
1
1000
auto
  0
XRECORD
  5
2DC
330
2C1
100
AcDbXrecord
280
1
1000
auto
  0
XRECORD
  5
2DD
330
2C1
100
AcDbXrecord
280
1
1000
auto
  0
XRECORD
  5
2DE
330
2C1
100
AcDbXrecord
280
1
1000
auto
  0
XRECORD
  5
2DF
330
2C1
100
AcDbXrecord
280
1
1000
auto
  0
XRECORD
  5
2E0
330
2C1
100
AcDbXrecord
280
1
 90
1
  0
XRECORD
  5
2E1
330
2C1
100
AcDbXrecord
280
1
 40
10.0
  0
XRECORD
  5
2E2
330
2C1
100
AcDbXrecord
280
1
 40
10.0
  0
XRECORD
  5
2E3
330
2C1
100
AcDbXrecord
280
1
 40
10.0
  0
XRECORD
  5
2E4
330
2C1
100
AcDbXrecord
280
1
 40
10.0
  0
XRECORD
  5
2E5
330
2C1
100
AcDbXrecord
280
1
290
0
  0
XRECORD
  5
2E6
330
2C1
100
AcDbXrecord
280
1
 90
1
  0
XRECORD
  5
2E7
330
2C1
100
AcDbXrecord
280
1
 40
0.0
  0
XRECORD
  5
2E8
330
2C1
100
AcDbXrecord
280
1
 40
0.0
  0
XRECORD
  5
2E9
330
2C1
100
AcDbXrecord
280
1
1000
Portrait
  0
XRECORD
  5
2EA
330
2C1
100
AcDbXrecord
280
1
 40
297.0
  0
XRECORD
  5
2EB
330
2C1
100
AcDbXrecord
280
1
 40
210.0
  0
XRECORD
  5
2EC
330
2C1
100
AcDbXrecord
280
1
1000
1:1
  0
XRECORD
  5
2ED
330
2C1
100
AcDbXrecord
280
1
290
1
  0
XRECORD
  5
2EE
330
2C1
100
AcDbXrecord
280
1
 90
4
  0
ENDSEC
  0
EOF
